<?xml version="1.0" encoding="UTF-8"?> <svg xmlns="http://www.w3.org/2000/svg" xmlns:xlink="http://www.w3.org/1999/xlink" width="528.497" height="189.703" viewBox="0 0 528.497 189.703"><defs><filter id="Path_30613"><feOffset dy="3"></feOffset><feGaussianBlur stdDeviation="3" result="blur"></feGaussianBlur><feFlood flood-opacity="0.608" result="color"></feFlood><feComposite operator="out" in="SourceGraphic" in2="blur"></feComposite><feComposite operator="in" in="color"></feComposite><feComposite operator="in" in2="SourceGraphic"></feComposite></filter></defs><g data-type="innerShadowGroup"><path id="Path_30613-2" data-name="Path 30613" d="M88.25,173.842v-28.56L174.717,28.944h44.544L134.628,145.282l-20.7-6.027H258.3v34.587Zm98.782,38.517V173.842l1.31-34.587V104.93h40.089V212.359ZM349.485,215.5q-22.534,0-40.351-11.136T281.1,172.008q-10.219-21.224-10.219-51.356T281.1,69.3q10.219-21.224,28.036-32.36T349.485,25.8q22.8,0,40.482,11.136T417.873,69.3q10.219,21.224,10.219,51.356t-10.219,51.356q-10.219,21.224-27.905,32.36T349.485,215.5Zm0-35.9a30.244,30.244,0,0,0,18.735-6.027q7.992-6.026,12.577-19.128t4.585-33.8q0-20.7-4.585-33.8T368.22,67.723A30.244,30.244,0,0,0,349.485,61.7a29.844,29.844,0,0,0-18.472,6.027q-7.992,6.026-12.577,19.128t-4.585,33.8q0,20.7,4.585,33.8t12.577,19.128A29.845,29.845,0,0,0,349.485,179.606Zm97.21-5.764v-28.56L533.162,28.944h44.544L493.073,145.282l-20.7-6.027H616.747v34.587Zm98.782,38.517V173.842l1.31-34.587V104.93h40.089V212.359Z" transform="translate(-88.25 -25.8)" fill="#fff"></path><g transform="matrix(1, 0, 0, 1, 0, 0)" filter="url(#Path_30613)"><path id="Path_30613-3" data-name="Path 30613" d="M88.25,173.842v-28.56L174.717,28.944h44.544L134.628,145.282l-20.7-6.027H258.3v34.587Zm98.782,38.517V173.842l1.31-34.587V104.93h40.089V212.359ZM349.485,215.5q-22.534,0-40.351-11.136T281.1,172.008q-10.219-21.224-10.219-51.356T281.1,69.3q10.219-21.224,28.036-32.36T349.485,25.8q22.8,0,40.482,11.136T417.873,69.3q10.219,21.224,10.219,51.356t-10.219,51.356q-10.219,21.224-27.905,32.36T349.485,215.5Zm0-35.9a30.244,30.244,0,0,0,18.735-6.027q7.992-6.026,12.577-19.128t4.585-33.8q0-20.7-4.585-33.8T368.22,67.723A30.244,30.244,0,0,0,349.485,61.7a29.844,29.844,0,0,0-18.472,6.027q-7.992,6.026-12.577,19.128t-4.585,33.8q0,20.7,4.585,33.8t12.577,19.128A29.845,29.845,0,0,0,349.485,179.606Zm97.21-5.764v-28.56L533.162,28.944h44.544L493.073,145.282l-20.7-6.027H616.747v34.587Zm98.782,38.517V173.842l1.31-34.587V104.93h40.089V212.359Z" transform="translate(-88.25 -25.8)" fill="#fff"></path></g></g></svg> 