<?xml version="1.0" encoding="UTF-8"?> <svg xmlns="http://www.w3.org/2000/svg" width="100.957" height="115.759" viewBox="0 0 100.957 115.759"><g id="Group_12084" data-name="Group 12084" transform="translate(-991.096 -2415.285)"><g id="Group_11708" data-name="Group 11708" transform="translate(1022.355 2455.526)"><g id="np_interactive_5524042_FFFFFF" transform="translate(0 0)"><path id="Path_89767" data-name="Path 89767" d="M23.385,48.878a1.747,1.747,0,0,1-3.494,0,1.747,1.747,0,0,1,3.494,0" transform="translate(-11.161 -21.815)" fill="#fff"></path><path id="Path_89768" data-name="Path 89768" d="M10.792,48.318a2.619,2.619,0,0,1-5.238,0,2.619,2.619,0,0,1,5.238,0" transform="translate(-5.554 -21.255)" fill="#fff"></path><path id="Path_89769" data-name="Path 89769" d="M77.865,48.878a1.747,1.747,0,0,1-3.494,0,1.747,1.747,0,0,1,3.494,0" transform="translate(-32.468 -21.815)" fill="#fff"></path><path id="Path_89770" data-name="Path 89770" d="M91.081,48.318a2.619,2.619,0,1,1-5.238,0,2.619,2.619,0,1,1,5.238,0" transform="translate(-36.955 -21.255)" fill="#fff"></path><path id="Path_89771" data-name="Path 89771" d="M50.624,21.64a1.746,1.746,0,0,1-3.492,0,1.746,1.746,0,1,1,3.492,0" transform="translate(-21.815 -11.163)" fill="#fff"></path><path id="Path_89772" data-name="Path 89772" d="M50.937,8.173a2.619,2.619,0,0,1-5.238,0,2.619,2.619,0,0,1,5.238,0" transform="translate(-21.255 -5.555)" fill="#fff"></path><path id="Path_89773" data-name="Path 89773" d="M31.987,31.675a1.746,1.746,0,0,1-3.492,0,1.746,1.746,0,1,1,3.492,0" transform="translate(-14.527 -15.087)" fill="#fff"></path><path id="Path_89774" data-name="Path 89774" d="M23.179,21.994a2.619,2.619,0,1,1-5.238,0,2.619,2.619,0,0,1,5.238,0" transform="translate(-10.399 -10.96)" fill="#fff"></path><path id="Path_89775" data-name="Path 89775" d="M69.261,31.675a1.746,1.746,0,0,1-3.492,0,1.746,1.746,0,1,1,3.492,0" transform="translate(-29.104 -15.087)" fill="#fff"></path><path id="Path_89776" data-name="Path 89776" d="M78.695,21.994a2.619,2.619,0,1,1-5.238,0,2.619,2.619,0,1,1,5.238,0" transform="translate(-32.111 -10.96)" fill="#fff"></path><ellipse id="Ellipse_230" data-name="Ellipse 230" cx="7.355" cy="7.355" rx="7.355" ry="7.355" transform="translate(20.227 16.549)" fill="#fff"></ellipse></g></g><g id="BK_New_Logo-01" data-name="BK New Logo-01" transform="translate(991.096 2415.285)"><path id="Path_93660" data-name="Path 93660" d="M422.944,512.321l-.024-.021Z" transform="translate(-374.055 -396.562)" fill="#fff"></path><path id="Path_93661" data-name="Path 93661" d="M295.25,155.068l.136-.158c-.067.072-.107.12-.136.158" transform="translate(-280.531 -134.758)" fill="#fff"></path><path id="Path_93662" data-name="Path 93662" d="M550.089,436.9l-.029.005Z" transform="translate(-467.191 -341.328)" fill="#fff"></path><path id="Path_93663" data-name="Path 93663" d="M390.866,451.225c-.062-.019-.1-.024-.1,0,.083.019.1.016.1,0" transform="translate(-350.503 -351.809)" fill="#fff"></path><path id="Path_93664" data-name="Path 93664" d="M395.2,476.429l.024-.029Z" transform="translate(-353.749 -370.264)" fill="#fff"></path><path id="Path_93665" data-name="Path 93665" d="M374.67,466.97l.07.016Z" transform="translate(-338.71 -363.356)" fill="#fff"></path><g id="Group_11729" data-name="Group 11729" transform="translate(0 0)"><path id="Path_93666" data-name="Path 93666" d="M246.933,109.73a47.346,47.346,0,0,0-2.019,4.285c-.16.38-.348.746-.487,1.131s-.281.762-.417,1.134c-.278.744-.551,1.46-.818,2.121-.1.621-.313,1.5-.556,2.372l-.227.029-.155.744c-.15.278.131-.567-.1-.07l.04.31c-.088.035-.61,1.848-.388.591a13.647,13.647,0,0,0-.366,1.428l-.324,1.439c-.147.634.086.409-.12,1.1-.091.131.016-.259-.07-.219a6.01,6.01,0,0,0-.284,2.3,8.56,8.56,0,0,1-.144,2.2l0-.171c.005.345-.1.987-.064,1,.241-.233-.061-.369.15-.96.169.075-.016.765.123.741a4.345,4.345,0,0,0-.051,1.15c-.16.682-.152,1.685-.329,2.2a8.78,8.78,0,0,1,.158,1.458c-.136.519-.131-.128-.182.586l.1.118c-.013.583-.043.492-.091.471a8.279,8.279,0,0,1,.08,1.305l-.1-.436c.04.58.024.818.019,1.626-.059-.016-.056-.34-.04-.58a2,2,0,0,0,.064.99c.027-.07.056-.631.155-.361-.019.4.2.842.091,1.134l-.134-.431a5.346,5.346,0,0,1,.2,1.4c-.011-.051-.035-.024-.059-.043a12.334,12.334,0,0,1,.185,2.289l-.04-.166c.056.358.187.543.209.736-.021-.511.029-.377.123-.433-.064.687.353.99.423,2.086-.062-.008-.171-.259-.158-.567a2.394,2.394,0,0,1-.567-1.027c.1.409.206.893.115.8l.179.107c.037.251.067.449.094.637.118.091.086-.53.243.037.152.642-.11.372-.021.463.2.885.23.342.313,1.214a1.352,1.352,0,0,1-.078-.324c.016.634.3,1.506.152,1.725a.463.463,0,0,1-.158-.324l.032,0c-.284-.647.16.556-.056.38.091-.07.257.8.324,1.193l.088-.15c.655,1.2-.254-.013.115,1.246.286.786-.048-.313.163.16a7.444,7.444,0,0,0,.348,1.559c.021.233.1.7-.021.776a9.4,9.4,0,0,1,.292.941,2.518,2.518,0,0,0,.329.76c-.176-.842-.409-.768-.535-1.779l.206.23c.182.669.543,1.482.653,1.95-.008-.1.011-.152.056-.1.361.917.586,1.137.9,2.038-.064.16-.249-.369-.409-.746a12.62,12.62,0,0,0,.54,1.511c-.078.086-.23-.6-.364-.669l.417.979-.019.008c.219.075.308.749.615,1.324a8.061,8.061,0,0,0,1.447,2.212c.056.227.046.308-.035.241-.094-.372-.12-.286-.219-.385.235.46.35,1.091.158.867.433.706-.059-.3.227.115l.519,1c.016-.16-.152-.519.182-.037.251.423.342.642.666,1.2-.086-.059-.016.243-.254-.177a2.6,2.6,0,0,0,.538.824c-.284-.647.647.957.5.433.091.217.193.428.3.639-.083-.136-.144-.12-.254-.329-.011.241.34.465.481.663a7.064,7.064,0,0,1,.431.842,2.54,2.54,0,0,1,.425.757c.211.257.088-.027.179.027l.628.928c-.027.094-.144.289-.262.166.3.31.265,0,.631.527-.34-.211.42.746-.04.42a8.457,8.457,0,0,0,1.158,1.64c.31.214-.337-.532-.214-.58,1.038,1.257,1.361,1.121,2.075,2.073-.059-.086-.12-.166-.177-.254a4.847,4.847,0,0,0,.832.722c-.235-.07.238.915,1.118,1.771.123.024-.369-.591-.147-.524l.572.572c.032.051-.048,0-.134-.059.538.487.792,1.115,1.07,1.134l.377.666-.144-.27a7.7,7.7,0,0,1,.861.669,4.939,4.939,0,0,1,1.118,1.129c-.067-.142-.241-.484.257-.064-.166.174.96.982.875,1.048.206.166.519.522.6.468l-.128.086c.185-.126.9.522,1.516.925-.3.12.655.473.762.875.217-.056,1.1.719,1.3.658.468.318.321.431.4.564l.257.094a15.529,15.529,0,0,0,1.57,1.233l.586.179.144.182c.1.013.54.241.31.032l.27.171c.118-.144.412.185,1,.441.112.1.056.118-.075.07.273.163.11.174.227.316-.177-.144,1.158.273.449-.211-.016-.091.449.1.706.27l.088.235.412.024a8.362,8.362,0,0,1,.915.6c-.358-.179-.944-.136-.011.342a10.654,10.654,0,0,0-1.048-.385c.19.11.278.174-.053.075.752.34.286.048,1.019.4-.107.112.078.254.7.61l-.431-.329.11.008c-.174-.1-.214-.147-.227-.217.144.072.928.246,1.011.385-.634-.562,1.356.46.944.107a1.5,1.5,0,0,1,.647.3c-.666-.169.4.356.257.407.249.062-.444-.313-.11-.227a3.619,3.619,0,0,1,.8.484l-.166-.04.548.31c.123-.027-.505-.356.035-.163.126.088.679.257.639.3-.294-.005-.158.193-.626.037.385.136,1.6.588,1.163.27l.452.179c-.265-.169-1.016-.578-.1-.249l-.019.024.669.139c.083.059.166.118.251.171.005-.037.118-.037.353.045.048.061.265.155.227.2.69.227.658.136.762.126.388.12.522.2.316.219.516.211,1.463.439,1.8.629.733.144-.139-.072.308-.045a2.417,2.417,0,0,0,.615.308c.268.088.583.169.917.246.671.15,1.415.3,2.017.4-.275-.286.332.04.591-.115-.27.019,1.094.4.04.249l.639.107c.412.209-1.07-.123-.447.176a5.6,5.6,0,0,0,.99.078,3.944,3.944,0,0,1,1.075.118c-.31.112.661.051.423.19a2.994,2.994,0,0,1-.661-.051l.144.053c1.575.3.487-.112,1.327-.091.966.1.744.214.792.3a3.84,3.84,0,0,0,.9.067c-.6.029-1.081-.225-.794-.294a3.782,3.782,0,0,0,1.7.139c-1.353-.348-.955-.12-2.217-.473-.185.037-.176.206-.939.016.495,0-.019-.1-.152-.142.134.118-.54-.045-.781-.045-.2-.11.495-.139-.276-.3l-.185.193c-.3-.086.155-.131-.5-.2.369-.045-.075-.185.808-.08a8.022,8.022,0,0,0-2.434-.284c.086,0,.1-.024.185-.021a3.521,3.521,0,0,1-.738-.083c-.516-.171.441,0,.318-.1-.289-.051-.57-.128-.856-.193l-.019-.021a1.07,1.07,0,0,1-.514-.131c.27-.005.388-.054.57-.067l-.928-.072c.115-.045-.7-.3-.056-.2-.444-.094-.883-.2-1.319-.321l-.07-.174c-.318-.067-.337-.04.032.086-.433-.163-2.054-.326-1.728-.546a27.386,27.386,0,0,1-2.637-.76c.974.227-1-.572,0-.254a5.046,5.046,0,0,0-1.188-.329c-.4-.222-.155-.283.321-.158l-.562-.144.021-.024c-.166-.032-.329-.078-.492-.115-.455-.283-.045-.182-.538-.417l-.161.072-.308-.217c.1.11-.2.005-.572-.142l.021-.024c-.152-.053-.3-.115-.449-.179.463.136-.385-.219-.147-.206-.369-.185-.377-.187-1.056-.492l.078.139c-.909-.356.021-.136-.679-.489l0,.115c-.912-.7-1.752-.805-2.415-1.332.425.222.38.056.358.078-.634-.342-1.645-.936-2.332-1.244-.15-.275-.179-.348-.784-.818a1.793,1.793,0,0,0-.746-.358c-.407-.358-1.284-.869-1.241-.974-.152,0-.388-.289-.663-.415l-.024-.075-.024.112c-.61-.773-1.38-.859-1.987-1.645l.144.086-.337-.227c-.021-.075.123.008.177-.027-.473-.412-.968-.8-1.423-1.228l.225.3a5.513,5.513,0,0,1-.861-.711c.663.388-.46-.423-.471-.591l.326.241c-.415-.361-.415-.361-.452-.254-.548-.463-.219-.481-.77-.859l.332.332c.059.139-.243-.035-.465-.254-.043-.064-.169-.251.011-.094-.433-.364-1-.992-1.193-1.15-.187-.243-.064-.222.07-.12-.893-.81-.361-.407-1.254-1.222l.056-.024-.326-.265-.3-.527.083.209a8.851,8.851,0,0,1-.744-.818l.187.083c-.765-.813-.706-1.086-1.474-1.827-.032-.067.091.045.155.1-.725-.679-.329-.679-1.059-1.364.059.029.024-.078.067-.062l-.316-.326.115-.043-.361-.19c-.024-.1-.045-.2-.064-.294l-.144-.11c-.088-.524-.612-.982-.842-1.613l-.062.174c-1.166-1.22-1.891-3.274-2.923-4.969l.12-.024-.508-.661c-.126-.431.214.187.2.04-.463-.752-.321-.249-.8-1.153-.158-.506.158.126.3.329-.233-.42-.524-.939-.773-1.439a13.331,13.331,0,0,1-.554-1.311l-.048,0a19.64,19.64,0,0,1-.826-2.027c.056,0,.128.155.2.316a3.582,3.582,0,0,0-.308-.757l.193.211a6.974,6.974,0,0,1-.527-1.615c-.021.075-.115.08-.262-.364.075-.294-.457-1.187-.583-1.934.067.072.235.6.193.447a3.45,3.45,0,0,0-.391-.971l.1.078c-.193-.548-.361-1.107-.543-1.661.094-.289-.4-1.6-.246-1.511-.126-.61.032.527-.155-.238.029-.219-.187-.69-.064-.679l.032.08c-.037-.179-.091-.356-.118-.538.053.107.118.214.179.318-.123-.457-.27-.784-.366-.789a8.941,8.941,0,0,1-.086-1.3l.054.16a9.671,9.671,0,0,1-.139-1.637,6.953,6.953,0,0,0-.051-.714,3.733,3.733,0,0,0-.12-.711c.011-.075.04-.07.051.086l-.053-.776.1.177-.235-1.268.059.013c-.021-.423-.067-.965-.12-1.535-.035-.572-.029-1.177-.048-1.722l.029.163c-.1-1.19.053-1.15-.016-2.019l.027.094-.005-.784.059.174a5.306,5.306,0,0,1,.139-1.294,5.26,5.26,0,0,0-.126-1c.056-.853.091-.2.179-.728a9.111,9.111,0,0,1,.094-1.562l.056.024c.048-.388.04-.634.112-1.177l0,.163c.008-.9.332-1.07.179-1.8.1-.361.163-1.07.289-1.011.168-1.094.321-1.944.516-3.033.227-.126.035-.235.3-.856l-.115.021c.219-.749.522-1.535.824-2.335.147-.4.3-.808.444-1.214s.326-.8.463-1.209l.115-.008.016-.358c.366-.848.73-1.843,1.158-2.757l1.182-2.436c.078-.23.174-.522.284-.845a6.26,6.26,0,0,1,.5-.974l-.027.078c.3-.594.618-1.206.952-1.821.171-.3.345-.615.519-.928.2-.3.409-.594.623-.888-.013.1.094-.005.027.147a3.836,3.836,0,0,1,.645-.971l-.267.262a2.654,2.654,0,0,1,.736-.974l.273-.61.1-.075.019-.128c.1-.07.2-.142.31-.2a6.6,6.6,0,0,0,.642-1.139c.075-.021.479-.484.209-.1l1.5-1.861-.265.262c-.112-.032.281-.642.58-.875-.265.417.086.126.284.021.176-.278-.259.15-.187-.013a6.709,6.709,0,0,1,.957-1.145l-.134.209c.345-.439.65-.505,1.008-.917.267-.423.567-.639.372-.687.473-.532.281-.11.455-.259a3.8,3.8,0,0,1,1.094-.96c.1-.457,1.444-1.252,1.4-1.514a5.379,5.379,0,0,1,.516-.294c-.024-.056-.021-.23.329-.548.388-.235.372-.088.514-.128l.091-.358c.535-.364,1.091-.776,1.664-1.22.142-.11.286-.222.431-.337l.46-.313c.308-.211.62-.425.933-.642.626-.431,1.26-.864,1.88-1.289s1.281-.762,1.9-1.1c.53-.337,1.126-.717,1.744-1.113.634-.372,1.3-.744,1.955-1.067l-.131.1,1.335-.578-.995.366c.275-.16.479-.3.76-.436.733-.321,1.615-.626,2.517-1,.92-.332,1.861-.725,2.776-1.083,1.121-.658.864-.072,1.971-.6-.094.053-.12.1-.2.15,1.225-.476,1.9-.685,3.143-1.155-.088.275.834-.193.749-.037l.086-.123c.3,0,.974-.134.893-.04l.546-.23.069.094c.377-.064.968-.2,1.522-.286a3.825,3.825,0,0,1,1.281-.043,34.411,34.411,0,0,1,7.261-.578,7.911,7.911,0,0,1,1.583-.088l.58.15a8.175,8.175,0,0,1,1.669-.043l-.061.029c.567-.011,1.1.1,1.632.043.618.064,1.209.185,1.008.284.04-.1.366-.062.682,0,.158.032.313.067.428.1s.19.062.19.062.49.078,1.359.219c.433.072.966.142,1.575.259l2.046.433a56.717,56.717,0,0,1,11.046,3.728,59.378,59.378,0,0,1,11.217,6.8c3.231,2.461,5.793,4.8,7.3,6.066.251.126.8.618.7.332.412.39.452.7.6.711-.471-.61.358,0-.056-.637l.348.34c.12.024-.508-.431-.329-.431l-.235.027a2.281,2.281,0,0,1-.407-.637,2.765,2.765,0,0,1-1.163-.941l.174.171c-.489-.522-.209-.407-.292-.535l.11.115-.358-.492c.289.358.907.813.629.53-.551-.658.126.187-.34-.257-.289-.273-.139-.265-.083-.294l-.513-.5c.08-.045.334.337.193.07l-.709-.57c.035-.278-.768-.618-.925-1.051.508.409.011-.1.134-.078l-1.2-1.059c-.091-.123.358.23.171.075-.182-.246-.4-.289-.522-.4-.061-.139-.888-.8-.768-.869-.778-.762-.476-.144-1.2-.845-.045-.155.637.489.348.134l-.834-.637a.911.911,0,0,1,.543.278c-2.134-1.87-3.153-3.129-5.424-4.453-.254-.294.259.083.519.168a16.688,16.688,0,0,1-1.9-1.225,10.787,10.787,0,0,0-1.706-1.145l-.067.064a20.39,20.39,0,0,0-3.223-1.765L320,84.017c-.61-.235-1.217-.476-1.808-.73l.265.166a12.048,12.048,0,0,1-1.3-.348c-.048-.062.353-.086-.369-.275.136.078.425.2.324.214a31.359,31.359,0,0,0-4.466-1.506c-.457-.123-.925-.257-1.4-.372s-.96-.206-1.442-.308l-1.426-.31-1.383-.241a63.931,63.931,0,0,0-15.012-.495c.733-.083.439.166-.115.174-1.551-.214-2.6.364-4.17.374-2.747.6-5.282.917-7.695,2l-.08-.083a4.831,4.831,0,0,0-.848.332v-.029c-.939.267-1.99.81-2.527.966l.011.123c-.532.219-.313.024-.832.321l-.008-.062-.588.377c-.011-.107-.385.051-.816.249a9.213,9.213,0,0,1-1.126.524c-.666.342-1.872,1.083-2.883,1.589a16.27,16.27,0,0,0-2.217,1.121l-1.188.768c-.423.284-.85.607-1.3.925-.893.65-1.861,1.294-2.741,1.944l.112.08-.436.369c-.011-.029-.08.008-.021-.059-.436.163-.99.872-1.4,1.091.3-.091.321-.241.575-.444.4-.249.136.136-.393.487l-.008-.029-.289.329c-.1-.048-.439.163-.546.115a13.044,13.044,0,0,0-.979.883c-.286.3-.559.594-.834.883-.548.58-1.107,1.161-1.827,1.813.035-.1-.227.126-.441.369s-.433.452-.374.238c-.727.917.246-.029-.005.463-.219.238-.407.53-.5.522.067-.147-.267.112-.1-.1l-.511.588c-.061.045.032-.1.08-.174a20.93,20.93,0,0,1-1.46,1.621,15.093,15.093,0,0,0-1.27,1.621c-.008.128.364-.433.358-.3-.762,1.22-.883.917-1.618,2.038l.088-.278a4.433,4.433,0,0,1-.693,1.139c-.168.035.254-.556.4-.875-.275.4-.936,1.45-.639,1.2a4.259,4.259,0,0,1-.7.872c.019.024.369-.412.225-.1a18.963,18.963,0,0,0-1.658,2.5c-.021-.021-.094.013-.064-.067-.291.762-.481.556-.981,1.511" transform="translate(-240.217 -79.562)" fill="#fff"></path><path id="Path_93667" data-name="Path 93667" d="M293.987,167.409a51.124,51.124,0,0,0-.294,8.692c.139.564.174,1.393.3,2.22l-.128.1.115.69c-.011.286-.08-.53-.08-.024l.112.251c-.056.061.23,1.776-.045.634.128.9.262,1.792.452,2.677.115.591.177.321.281.976-.011.139-.08-.227-.115-.163a10.1,10.1,0,0,0,.588,2.049,10.676,10.676,0,0,1,.685,1.91l-.061-.144.211.538a2.284,2.284,0,0,0,.131.321c.059-.27-.187-.286-.278-.851.118.013.284.647.356.583a7.317,7.317,0,0,0,.377.992c.123.637.546,1.46.631,1.947.147.281.388.559.677,1.166.118.479-.128-.067.115.546l.107.067c.214.495.163.428.126.423.246.522.3.388.589,1.051l-.243-.329c.27.465.356.666.7,1.329-.045.005-.179-.262-.27-.463a2.233,2.233,0,0,0,.465.786c-.005-.069-.251-.522-.067-.337a5.492,5.492,0,0,1,.535.9l-.259-.316a6.513,6.513,0,0,1,.7,1.094l-.054-.019a17.443,17.443,0,0,1,1.145,1.784l-.1-.123c.2.27.364.38.46.53-.241-.407-.15-.313-.12-.383.267.57.658.7,1.193,1.559-.04.011-.222-.16-.35-.412a2.734,2.734,0,0,1-.8-.666c.246.3.524.661.428.61l.158.035.342.487c.112.04-.185-.449.166-.037.4.463.11.324.206.369.554.631.308.2.778.853a1.6,1.6,0,0,1-.2-.23,9.984,9.984,0,0,1,.92,1.3.526.526,0,0,1-.257-.206l.021-.005c-.489-.423.369.385.15.31.024-.078.548.546.781.829l-.019-.139c.987.752-.174.07.677.931.575.514-.187-.225.182.078a12.468,12.468,0,0,0,.99,1.091c.12.179.415.495.38.586a15.785,15.785,0,0,0,1.254,1.1c-.527-.594-.642-.471-1.238-1.185l.249.115c.473.428,1.078.974,1.407,1.273-.056-.07-.072-.112-.019-.091.719.559.966.669,1.634,1.244.04.136-.356-.2-.645-.436a8.309,8.309,0,0,0,1.142.944c-.005.083-.471-.364-.6-.372l.794.575-.008.011c.187-.013.58.473,1.1.781a9.253,9.253,0,0,0,2.148,1.137c.163.136.2.2.11.171-.267-.225-.238-.158-.356-.2.412.241.832.645.58.546.666.369-.2-.2.214.016.3.179.583.374.888.543-.078-.112-.39-.3.1-.078.407.2.591.318,1.11.607-.088-.016.12.169-.267-.048a3.285,3.285,0,0,0,.81.409c-.554-.342.976.428.586.126l.556.332a3.421,3.421,0,0,1-.356-.144c.126.161.487.209.7.3.2.12.73.377.762.42a2.809,2.809,0,0,1,.719.353c.289.1.045-.045.139-.037.318.136.631.284.952.409.032.067.064.225-.091.187.385.094.185-.088.741.123-.353-.029.709.342.206.278a7.952,7.952,0,0,0,1.733.647c.34.027-.54-.217-.481-.281,1.444.423,1.583.27,2.637.58l-.27-.094a6.3,6.3,0,0,0,1,.16c-.1.021.067.136.4.278a8.644,8.644,0,0,0,1.4.382c.1-.029-.6-.225-.4-.262l.733.142c.051.019-.032.019-.128.011a6,6,0,0,0,1.412.276l.65.251-.257-.1c.1-.035.843.08,1,.078a5.467,5.467,0,0,1,1.45.219c-.128-.056-.447-.185.152-.131-.024.174,1.254.168,1.23.243.243.013.674.094.706.029l-.045.1c.032-.067.27-.083.586-.08s.706-.008,1.046-.013c-.158.185.746,0,1.048.174.128-.12,1.209-.083,1.327-.193a.793.793,0,0,1,.612.134l.241-.054c.267.046,1.252-.027,1.84-.032.177-.054.356-.1.532-.16l.206.024c.083-.04.53-.112.249-.12l.291-.032c.008-.123.406-.086.984-.214.136,0,.107.035-.019.067.292-.037.177.043.342.059-.209.005,1.006-.4.219-.316-.061-.04.385-.155.671-.185l.193.078.318-.174c.439-.1.645-.056,1-.128-.361.088-.77.39.174.174-.492.134-.727.233-.984.3.2-.032.3-.037,0,.062.741-.171.238-.1.968-.278-.019.1.192.088.84-.027l-.495.04.085-.045c-.184.032-.238.029-.286,0a5.919,5.919,0,0,1,.955-.284c-.765.029,1.246-.423.757-.4a1.887,1.887,0,0,1,.639-.166c-.58.241.481-.021.4.072.217-.091-.492.064-.2-.056a4.809,4.809,0,0,1,.845-.152l-.144.059c.19-.04.38-.072.564-.126.075-.075-.554.1-.059-.094a5.3,5.3,0,0,1,.631-.177c-.219.144-.016.171-.441.332.356-.128,1.487-.522,1-.455l.425-.142c-.281.051-1.048.233-.2-.067v.021c.187-.091.38-.177.564-.273l.27-.053c-.016-.021.067-.078.281-.16.067.005.273-.064.273-.021.623-.251.554-.278.623-.337.345-.144.484-.177.345-.059.482-.179,1.286-.578,1.629-.671.607-.326-.136.04.2-.187a5.068,5.068,0,0,0,1.383-.583c.562-.3,1.171-.642,1.642-.944-.337.024.257-.168.366-.39-.185.163.979-.436.152.094l.511-.316c.4-.136-.826.554-.233.337.586-.337.869-.717,1.559-1.1-.163.235.492-.364.39-.158a3.736,3.736,0,0,1-.492.364l.128-.059c1.254-.784.289-.337.893-.821.722-.535.62-.348.693-.337a4.841,4.841,0,0,0,.658-.508c-.407.374-.859.543-.693.34a4.73,4.73,0,0,0,1.249-.957c-1.11.65-.722.516-1.771,1.11-.112.128-.021.209-.653.564.348-.292-.059-.032-.177.021.15-.024-.4.294-.572.436-.2.067.281-.356-.34.019l-.037.2c-.251.136.048-.152-.447.2.238-.235-.142-.045.532-.511a12.036,12.036,0,0,0-1.875,1.268c.064-.048.061-.069.123-.115a4.51,4.51,0,0,1-.567.383c-.452.219.313-.257.179-.227-.23.142-.468.27-.709.393h-.024a1.314,1.314,0,0,1-.439.222c.193-.152.254-.238.38-.348l-.709.481c.059-.086-.661.249-.139-.061-.369.2-.733.406-1.115.578l-.139-.045c-.265.139-.265.16.067.024-.4.155-1.664.947-1.535.674-.885.439-1.222.554-2.324,1.014.837-.38-1.035.227-.128-.123a6.556,6.556,0,0,0-1.048.439c-.412.094-.262-.059.155-.238l-.489.214,0-.021c-.142.064-.281.139-.423.2-.487.083-.128-.067-.62.059l-.08.115-.345.046c.136,0-.147.1-.5.209l0-.021-.425.139c.415-.166-.4.086-.219-.032-.372.083-.38.086-1.048.254l.131.032c-.867.254-.056-.078-.768.08l.059.056c-1.048.1-1.738.39-2.514.449.436-.083.313-.15.308-.126-.655.128-1.736.241-2.412.4a2.493,2.493,0,0,0-1.032-.094,2.016,2.016,0,0,0-.752.134,10.451,10.451,0,0,1-1.46,0c-.115.061-.447,0-.722.059l-.059-.029.043.067c-.883-.163-1.5.07-2.386-.094l.155-.008-.377,0c-.059-.035.1-.043.115-.08l-1.736-.128.337.075a4.645,4.645,0,0,1-1.032-.067c.7-.021-.575-.07-.677-.163l.374.016c-.508-.053-.508-.053-.473.021-.661-.056-.436-.168-1.048-.2.144.024.286.053.428.072.123.059-.2.072-.484.019-.067-.021-.265-.086-.046-.059-.519-.059-1.286-.222-1.519-.233-.273-.072-.174-.1-.019-.094-1.1-.171-.489-.118-1.594-.292l.027-.035-.385-.035c-.174-.061-.34-.144-.511-.214l.176.1c-.356-.088-.583-.12-.992-.251l.182-.011c-1.008-.227-1.126-.4-2.083-.626-.062-.029.091,0,.168.013-.891-.2-.629-.283-1.519-.5.059,0-.027-.056.013-.059l-.4-.11.056-.061-.358-.011-.211-.166-.166-.021c-.364-.281-.976-.441-1.49-.778l.056.131c-1.506-.4-3.118-1.591-4.761-2.426l.067-.051-.7-.321c-.316-.268.243.072.155-.029-.717-.39-.35-.08-1.171-.559-.372-.318.171.048.385.136-.4-.206-.848-.516-1.286-.8a9.756,9.756,0,0,1-1.073-.768l-.032.011c-.489-.337-1.1-.824-1.61-1.236.037-.019.16.086.294.179a5.076,5.076,0,0,0-.586-.479l.23.107a10.4,10.4,0,0,1-1.185-1.04c.029.059-.04.1-.35-.2-.094-.251-.9-.768-1.361-1.286.08.037.457.38.353.281a7.041,7.041,0,0,0-.733-.634l.1.032-1.177-1.115c-.078-.254-1.024-1.134-.888-1.107-.377-.439.281.4-.214-.142-.091-.179-.455-.481-.374-.508l.059.053c-.112-.128-.217-.262-.324-.393l.26.2c-.286-.334-.546-.538-.6-.519a11.351,11.351,0,0,1-.682-.987l.11.11a9.736,9.736,0,0,1-.832-1.276,7.983,7.983,0,0,0-.749-1.1c-.029-.064-.008-.067.069.054l-.385-.607.142.112c-.235-.318-.487-.631-.714-.957l.04-.008c-.377-.69-1.027-1.736-1.482-2.643l.086.126a16.761,16.761,0,0,1-.826-1.682l.051.07-.3-.661.1.131a6.067,6.067,0,0,1-.441-1.123,7.033,7.033,0,0,0-.463-.805c-.294-.736-.032-.2-.168-.669-.185-.543-.281-.615-.5-1.361l.043,0c-.131-.34-.217-.548-.366-1.032l.061.139a13.028,13.028,0,0,0-.516-1.6c-.051-.345-.233-.979-.147-.966-.155-.492-.267-.936-.366-1.383s-.214-.888-.31-1.391c.1-.182-.04-.217-.059-.84l-.061.056c-.246-1.431-.206-3.1-.313-4.686l.067-.048c-.035-.1-.059-.211-.086-.316-.024-1.714.091-3.926.225-5.285a11,11,0,0,1,.115-1.835v.075a25.618,25.618,0,0,1,.661-3.841c.011.088.059-.037.045.115a3.757,3.757,0,0,1,.246-1.051l-.136.316a3.4,3.4,0,0,1,.334-1.08l.083-.607.056-.1,0-.112.185-.281a8.938,8.938,0,0,0,.238-1.19c.043-.048.246-.578.123-.155.257-.693.514-1.388.786-2.073-.056.1-.107.206-.155.31-.088.013.126-.62.289-.928-.123.439.078.072.2-.086.08-.292-.158.219-.131.056a6.992,6.992,0,0,1,.508-1.289l-.072.217c.2-.476.406-.642.618-1.1.142-.436.334-.717.19-.685.286-.594.19-.187.3-.372a4.9,4.9,0,0,1,.666-1.172c.024-.4.952-1.5.893-1.688.112-.142.238-.275.358-.412-.024-.035-.04-.171.19-.548.262-.324.265-.2.366-.284l.032-.313a45.311,45.311,0,0,1,5.322-6.127,30.262,30.262,0,0,1,2.913-2.72l-.1.112c.353-.278.7-.564,1.075-.816-.278.174-.548.361-.808.559a5.456,5.456,0,0,1,.6-.543c1.214-.859,2.854-1.96,4.392-2.945.939-.738.733-.3,1.674-.931-.078.059-.1.1-.168.152,1.051-.612,1.613-.966,2.693-1.549-.059.211.722-.337.658-.211l.064-.1c.259-.088.867-.292.8-.219l.468-.278.07.048a11.057,11.057,0,0,1,2.493-.808,30.637,30.637,0,0,1,6.561-1.626,7.942,7.942,0,0,1,1.444-.265l.546.016a6.839,6.839,0,0,1,1.527-.214l-.054.027c.522-.048,1.019-.059,1.506-.144.575-.008,1.131.024.958.1.027-.07.332-.072.626-.056a4.866,4.866,0,0,1,.586.062s.46.019,1.276.048c.409.005.907.043,1.479.1s1.225.088,1.934.2a44.132,44.132,0,0,1,10.508,2.648,41.244,41.244,0,0,1,5.633,2.653,42.7,42.7,0,0,1,4.993,3.263,58.439,58.439,0,0,1,6.5,5.865c.2.147.658.647.559.4.345.393.4.653.516.69-.407-.583.278.067-.088-.53l.291.34c.1.043-.423-.444-.284-.412l-.179-.021a2.749,2.749,0,0,1-.358-.594,4.2,4.2,0,0,1-.984-.96l.155.163c-.441-.489-.209-.356-.283-.473l.1.11-.324-.46c.249.345.792.8.543.53-.5-.615.112.174-.292-.259-.249-.27-.131-.238-.091-.251l-.444-.492c.059-.024.289.329.155.088-.2-.193-.4-.393-.61-.572,0-.214-.693-.594-.861-.966.449.4,0-.075.1-.04-.342-.353-.7-.687-1.075-1.011-.088-.11.321.227.147.083a2.483,2.483,0,0,0-.473-.38c-.07-.115-.816-.743-.727-.781-.738-.682-.409-.168-1.1-.8-.059-.126.586.457.3.147l-.768-.594a1.117,1.117,0,0,1,.481.281c-.489-.441-.952-.794-1.364-1.147s-.789-.69-1.188-.984-.784-.6-1.206-.9a16.263,16.263,0,0,0-1.434-.845c-.259-.233.235.08.471.163-.393-.2-.717-.385-1-.562s-.551-.321-.8-.479a11.587,11.587,0,0,0-1.648-.933l-.051.043a33.268,33.268,0,0,0-6.478-2.568l.259.115c-.329-.032-.837-.169-1.217-.249-.051-.043.3-.048-.366-.206.134.053.407.155.316.16a30.51,30.51,0,0,0-4.22-1.014c-.859-.155-1.768-.257-2.667-.38-.9-.07-1.792-.185-2.629-.219a45.367,45.367,0,0,0-13.758,1.514c.653-.187.412.029-.088.136-1.423.123-2.305.744-3.707,1.056a35.562,35.562,0,0,0-6.6,3.161l-.075-.037a5.989,5.989,0,0,0-.706.449l0-.021c-.794.417-1.647,1.091-2.091,1.351l.016.083a6.032,6.032,0,0,0-.69.444l-.011-.04c-.163.136-.313.291-.468.436-.032-.147-1.2.891-1.581,1.1-.506.468-1.487,1.324-2.268,2.011a16.357,16.357,0,0,0-1.725,1.506,54.413,54.413,0,0,0-3.843,4.448l.094.024-.3.431c-.011-.019-.061.032-.021-.037a16.292,16.292,0,0,0-.982,1.316c.211-.179.219-.3.4-.54.292-.324.112.056-.257.508l-.011-.021-.179.358c-.083,0-.308.284-.39.284-.233.366-.449.7-.642,1.035s-.358.661-.532.984c-.364.642-.685,1.311-1.115,2.094.008-.1-.139.187-.281.452s-.257.516-.241.326c-.415.995.174-.112.051.372a2.647,2.647,0,0,1-.3.6c.029-.142-.179.187-.086-.04l-.294.655c-.038.059.008-.094.035-.169-.254.687-.519,1.279-.784,1.854a16.126,16.126,0,0,0-.658,1.779c.013.107.19-.484.2-.38-.361,1.27-.449,1.08-.765,2.273l.013-.262a6.057,6.057,0,0,1-.291,1.193c-.1.091.07-.559.136-.867-.139.428-.4,1.541-.241,1.222a5.4,5.4,0,0,1-.326.976c.016.013.179-.473.134-.16-.206.7-.463,1.808-.618,2.691-.019-.011-.059.045-.053-.035a15.507,15.507,0,0,1-.326,1.607" transform="translate(-279.345 -115.97)" fill="#fff"></path><path id="Path_93668" data-name="Path 93668" d="M281.417,311.162c.645.768,1.533,1.706,2.158,2.471a2.549,2.549,0,0,1,.661.543l-.08.118.209.166c.04.107-.152-.134-.067.043l.131.016c-.024.048.425.527.059.265.227.254.449.511.7.752.155.166.177.013.326.217.005.064-.083-.045-.1.005.452.61.8.433,1.241.974l-.053-.029c.11.059.262.225.281.211.032-.16-.142-.035-.233-.246.1-.07.23.144.283.07.086.144.206.16.313.251.126.219.417.417.487.607a1.273,1.273,0,0,1,.479.23c.072.193-.091.035.07.23l.075-.024c.142.147.107.139.08.158.158.15.2.056.369.27l-.158-.054a4.789,4.789,0,0,1,.436.364c-.029.027-.115-.048-.171-.112.051.174.23.136.286.2,0-.037-.139-.174-.021-.163.1.1.289.12.31.246l-.161-.048c.257.147.174.035.412.27l-.035.016c.219.07.377.308.612.516l-.056-.024c.112.064.2.061.251.107-.112-.144-.062-.128-.032-.19.11.238.353.134.618.415-.029.027-.131.008-.19-.088-.177.011-.252.08-.465-.032.128.075.273.169.214.185l.1-.056c.072.051.123.1.177.139.072-.032-.072-.2.118-.107.206.112.029.161.088.144.278.158.176-.011.4.2l-.1-.056c.147.166.439.31.412.452-.043,0-.072.029-.131-.029l.013-.013c-.249-.072.176.1.045.15.029-.067.265.134.366.227l.013-.091c.508.088-.112.112.27.364.262.134-.075-.086.1-.021a1.648,1.648,0,0,0,.428.358c.048.072.158.2.118.278.166.069.417.334.548.318-.2-.23-.3-.094-.522-.385l.131-.016a6.767,6.767,0,0,1,.6.4l.011-.064a3.6,3.6,0,0,1,.693.361c-.008.091-.161-.032-.284-.1.144.171.179.136.449.337-.024.07-.19-.123-.257-.091.1.067.217.123.324.182l-.008.011c.107-.07.235.155.447.246a1.933,1.933,0,0,0,.909.267c.051.07.056.107.013.112-.086-.112-.086-.067-.142-.064.16.086.278.3.168.292.262.12-.056-.107.112-.046l.332.214c-.011-.075-.12-.161.075-.091a4.418,4.418,0,0,1,.42.23c-.043.011.019.112-.128.029a.491.491,0,0,0,.318.136c-.19-.166.377.147.262-.019l.19.163c-.048-.027-.072,0-.139-.045.019.112.187.075.267.107.067.056.259.171.259.211.08.016.238.123.246.182.11.04.035-.048.078-.056l.34.2c-.005.054-.038.193-.1.182.155.027.115-.107.316-.005-.16.029.235.2.013.217a1.59,1.59,0,0,0,.612.342c.147-.013-.179-.134-.131-.2.524.222.65.04,1.008.257l-.088-.067a1.024,1.024,0,0,0,.385.075c-.107.056.155.372.559.511.054-.032-.182-.179-.086-.222l.267.1-.059.016c.246.067.385.3.5.225l.182.233-.07-.1c.051-.029.318.067.38.072a.817.817,0,0,1,.492.262c-.032-.056-.112-.19.1-.115-.062.152.423.23.388.3.088.029.225.131.257.075l-.048.086c.07-.12.382,0,.631.067-.118.155.27.083.318.286.088-.1.444.118.522.029.187.062.131.169.163.225l.1-.016a3.043,3.043,0,0,0,.637.286l.233-.051.059.064c.04-.019.211.011.12-.053l.107.035c.043-.1.161.011.388.024.046.029.024.051-.027.053.107.029.046.07.094.12-.067-.048.441-.078.166-.2-.008-.048.168-.029.267.019l.038.107.152-.056c.168.032.219.115.353.152-.139-.029-.353.091.005.169a2.461,2.461,0,0,0-.4-.013c.072.021.107.04-.019.048.286.04.107-.024.388.024-.037.072.035.11.273.182l-.168-.088.04-.013c-.067-.021-.083-.037-.088-.07.056.011.348-.024.38.029-.246-.171.508.021.348-.08l.241.067c-.243,0,.152.115.1.15.091,0-.168-.088-.045-.086a1.019,1.019,0,0,1,.3.123h-.061l.206.072c.043-.021-.193-.1.008-.07l.235.072c-.1.021-.048.088-.219.067.139.024.583.1.42.016l.166.035c-.1-.043-.377-.15-.045-.086l-.005.011.241.008.094.045c0-.013.04-.019.126,0l.088.059c.249.04.235.011.27,0,.139.021.19.04.118.056.19.037.524.088.65.131.259.024-.051-.019.1-.019a6.034,6.034,0,0,0,1.257.219c-.107-.054.115.008.2-.016-.094,0,.393.078.024.043l.225.024c.15.035-.374-.027-.147.024.254.021.423.011.717.053-.1.005.23.021.153.029-.061,0-.144-.011-.227-.019l.051.008a2.476,2.476,0,0,0,.452.021c.334.04.262.037.281.043.064.005.211.021.31.029-.206-.016-.377-.043-.284-.037.147.024.5.056.589.07-.476-.064-.332-.037-.778-.11a1.881,1.881,0,0,1-.321-.032c.171.016-.011-.008-.056-.019a2.248,2.248,0,0,1-.27-.029c-.072-.019.166,0-.107-.045l-.056.019c-.107-.019.048-.013-.179-.04.126,0-.032-.032.273.013a4.669,4.669,0,0,0-.848-.1h.061c-.061,0-.174-.016-.257-.027-.184-.046.152.005.1-.016-.1-.013-.2-.037-.3-.056l-.008-.005a.665.665,0,0,1-.182-.037c.094,0,.131-.005.193-.005l-.321-.035c.038-.008-.254-.086-.027-.048l-.465-.1-.032-.048c-.112-.019-.118-.011.013.024-.155-.048-.722-.08-.618-.15-.372-.048-.5-.083-.949-.166.348.04-.369-.171-.008-.1-.2-.083-.259-.035-.425-.07-.147-.067-.064-.11.107-.083l-.2-.029.005-.011-.176-.013c-.171-.086-.021-.075-.2-.136l-.056.046-.115-.07c.04.04-.072.021-.209-.013l.005-.013-.166-.035c.171.008-.144-.056-.059-.08-.139-.043-.142-.043-.4-.107l.032.056c-.34-.056.005-.07-.259-.152l0,.056c-.353-.214-.655-.163-.917-.315.163.04.144-.04.136-.024a4.972,4.972,0,0,0-.9-.222c-.062-.123-.072-.158-.313-.289-.185-.059-.217-.059-.294-.024-.163-.1-.516-.169-.5-.241-.062.04-.155-.067-.27-.056l-.011-.035-.008.072c-.265-.257-.564-.11-.835-.353l.062,0-.145-.024.07-.069-.615-.238.1.094a.874.874,0,0,1-.374-.118c.281.008-.2-.088-.211-.179l.139.029c-.179-.07-.179-.07-.193,0-.241-.075-.11-.19-.35-.211l.15.067c.029.056-.1.062-.2.019-.021-.021-.08-.08,0-.053-.192-.054-.452-.2-.543-.209-.091-.061-.037-.094.021-.088-.415-.11-.171-.086-.586-.2l.021-.032-.152-.013-.152-.166.045.078a1.616,1.616,0,0,1-.353-.158l.083-.024c-.366-.142-.366-.286-.736-.372l.072-.008c-.35-.067-.187-.206-.551-.257l.024-.056-.158-.035.045-.064-.168.048-.051-.115-.072.008c-.083-.206-.34-.225-.489-.433l-.011.107c-.6-.1-1.115-.727-1.765-1l.051-.062-.294-.072c-.1-.134.115-.008.094-.069-.286-.126-.168.032-.487-.136-.128-.142.086-.016.174.005a4.677,4.677,0,0,1-.933-.53l-.021.021a4,4,0,0,1-.65-.412c.024-.027.078,0,.134.032-.072-.053-.158-.144-.241-.155l.115,0c-.15-.118-.484-.275-.476-.364,0,.037-.04.08-.174-.013-.005-.15-.4-.211-.578-.415l.16.067a.688.688,0,0,0-.337-.158l.056-.019c-.182-.1-.364-.2-.538-.3,0-.152-.471-.337-.385-.382-.171-.136.115.155-.115,0-.029-.086-.214-.134-.158-.187l.029.011-.158-.112.145.013c-.142-.088-.286-.1-.329-.059-.1-.131-.3-.238-.313-.337l.059.021c-.377-.241-.444-.618-.792-.744l.043,0-.206-.179.088,0-.4-.222.029-.027c-.217-.206-.588-.489-.891-.73l.056.024c-.35-.238-.273-.3-.527-.479l.035.011-.2-.187.07.013c-.206-.078-.353-.479-.31-.34-.11-.051-.286-.155-.345-.142-.225-.2-.019-.088-.134-.238-.155-.152-.235-.126-.42-.358l.032-.024c-.1-.094-.182-.136-.321-.27l.053.027c-.278-.166-.192-.361-.487-.417-.069-.118-.262-.278-.2-.324-.308-.246-.543-.441-.832-.706.053-.134-.061-.056-.166-.284l-.04.059c-.374-.407-.666-.99-1.091-1.423l.04-.059-.139-.04c-.4-.522-.9-1.2-1.233-1.6a2.083,2.083,0,0,1-.513-.487l.024.016a9.1,9.1,0,0,1-.9-1.171c.043.008.029-.046.078-.011-.134-.053-.182-.238-.246-.329l.035.134a.519.519,0,0,1-.217-.372l-.2-.142v-.051l-.054-.013.008-.155c-.045-.037-.233-.278-.358-.308.013-.035-.086-.227.019-.1l-.441-.717.045.126c-.048.051-.225-.136-.27-.262.142.112.091-.04.094-.131-.094-.075,0,.115-.062.086a1.316,1.316,0,0,1-.324-.417l.072.056c-.131-.147-.075-.292-.177-.452-.134-.12-.155-.257-.238-.163-.147-.2.021-.126-.011-.2a.742.742,0,0,1-.225-.46c-.219-.029-.286-.61-.439-.583l-.032-.217c-.037.013-.136.021-.233-.115-.037-.158.043-.16.056-.219l-.177-.024c-.267-.88-.939-1.875-1.2-2.84a10.967,10.967,0,0,1-.679-1.351l.037.045-.147-.492.072.372a1.794,1.794,0,0,1-.15-.27,11.09,11.09,0,0,0-.65-1.9c-.3-.372.048-.332-.2-.7l.078.061a11.384,11.384,0,0,0-.538-1.065c.177,0-.1-.286,0-.27l-.075-.019c.013-.11-.035-.35.021-.329l-.134-.174.062-.035c-.064-.262-.27-.81-.171-.982a11.679,11.679,0,0,1-.612-2.493,1.55,1.55,0,0,1-.177-.532l.048-.217c-.056-.187-.193-.374-.168-.564l.024.019a1.865,1.865,0,0,0-.139-.559c-.029-.217-.021-.431.064-.377-.139,0-.054-.457-.054-.457s-.064-.7-.163-1.781c-.061-.54-.088-1.185-.123-1.885a14.61,14.61,0,0,0-.19-2.244,71.927,71.927,0,0,1-.7-8.093,2.422,2.422,0,0,0-.008-.254c.005-.179.005-.206.008-.332-.008.273,0-.086-.011.182l.011-.171c-.005.07-.005.067-.011.19v.048c-.008.115-.013.182-.019.262-.005.131.008.214-.013.524l0-.086c-.011.251-.019.152-.024.206l0-.056-.021.211c.016-.16.019-.428.011-.286-.027.3.008-.078,0,.147-.008.139-.016.1-.021.094l-.019.251c-.011-.011.013-.166-.005-.064l-.013.316c-.038.056-.008.345-.056.487.011-.227-.016.019-.024-.019-.019.184-.032.372-.04.556-.011.053-.005-.147-.008-.064a1.109,1.109,0,0,0,0,.23l-.061.4c-.054.377.04.163-.005.514-.029.045.011-.281-.027-.126l-.016.366a.353.353,0,0,1-.024-.211,22.4,22.4,0,0,0-.353,2.428c-.059.128-.027-.094-.053-.185a10.067,10.067,0,0,1-.23,1.492l.048.011a16.4,16.4,0,0,0-.222,2.634l.035-.11a2.808,2.808,0,0,1,.131.46c-.027.024-.139-.1-.088.158.016-.053.027-.166.062-.134a14.485,14.485,0,0,0,0,1.642c.045.658.126,1.375.158,2.009.11.848.27,1.725.382,2.608.136.877.324,1.747.511,2.568-.059-.249.107-.177.112.021-.107.57.276.875.251,1.442a14.571,14.571,0,0,0,.856,2.637l-.062.04c.013.139.07.16.12.294l-.019,0c.072.334.3.687.334.883l.078-.016c.078.185-.019.118.1.294l-.04.008.155.2c-.136.027.193.532.193.706.11.238.358.669.5,1.035a3.847,3.847,0,0,0,.257.834c.134.27.281.6.46.944s.366.7.53,1.048l.072-.053.1.174-.037.013c-.019.185.238.4.257.567.024-.128-.053-.131-.1-.233-.038-.166.11-.067.171.15l-.019.005.11.112c-.054.048-.019.185-.072.235.345.562.677.888.99,1.487-.1-.019.262.409.08.364.249.324.059-.115.235-.005.056.1.147.182.115.227-.056-.029-.021.123-.08.051l.158.222-.067-.032c.372.42.468.867.808,1.238.061,0-.1-.171-.037-.169.358.361.171.417.487.768l-.11-.043a.753.753,0,0,1,.307.35c-.037.08-.182-.128-.275-.209.091.144.369.473.348.329a.817.817,0,0,1,.177.35c.019-.008-.07-.185.029-.11a9.263,9.263,0,0,0,.58.869l-.054.029c.267.158.11.241.35.53" transform="translate(-263.419 -222.062)" fill="#fff"></path><path id="Path_93669" data-name="Path 93669" d="M470.986,167.838c-.235-.112-.508-.246-.781-.377-.278-.115-.559-.225-.792-.345a1.05,1.05,0,0,1-.441-.1l.024-.1-.139-.029c-.04-.051.1.027.029-.048l-.072.032c.005-.037-.313-.169-.075-.136l-.49-.225c-.107-.051-.094.045-.206-.029l.053-.035c-.334-.227-.5.011-.821-.16h.035c-.067,0-.179-.04-.185-.029.011.107.08-.027.166.064-.037.072-.147-.005-.163.053-.07-.056-.134-.029-.206-.051-.1-.091-.286-.12-.353-.214a.565.565,0,0,1-.286.013c-.07-.094.04-.051-.072-.118l-.035.037c-.1-.043-.078-.051-.067-.07-.107-.04-.11.029-.236-.048l.091-.016a1.165,1.165,0,0,1-.281-.1l.1.019c-.054-.1-.139-.019-.177-.04.005.024.1.07.037.1-.064-.035-.166.011-.2-.056l.091-.021c-.158-.005-.1.035-.259-.029l.016-.021c-.126.029-.249-.064-.4-.112l.035,0c-.07,0-.115.029-.15.016.083.051.054.059.048.1-.1-.11-.206.037-.388-.061l.112,0c.088-.059.115-.123.246-.126-.078,0-.169-.016-.142-.043l-.043.067-.112-.035c-.032.04.069.1-.043.1s-.04-.091-.07-.064c-.168-.016-.088.059-.235-.008l.062.005c-.1-.059-.275-.062-.284-.158l.072-.021-.005.013c.139-.029-.107-.011-.048-.08-.005.048-.158-.005-.225-.032l.008.059c-.273.1.04-.1-.2-.147-.155-.005.051.029-.048.043-.1-.037-.123-.094-.273-.112-.035-.032-.112-.075-.107-.139-.1.005-.267-.083-.332-.032.142.08.168-.032.329.08l-.064.048a2.574,2.574,0,0,1-.369-.067l.005.043c-.182-.013-.246.037-.412-.016-.011-.059.088-.029.161-.019-.1-.067-.115-.027-.284-.078,0-.048.115.027.144-.016l-.193-.021,0-.011c-.043.075-.144-.035-.265-.035-.276-.056-.337.043-.5.078l-.024-.07c.061.048.053.019.083,0-.094-.011-.19-.12-.131-.142-.152-.005.045.053-.048.059l-.2-.045c.016.045.086.07-.024.08a1.827,1.827,0,0,1-.246-.045c.019-.016-.027-.07.059-.051a.191.191,0,0,0-.182,0c.12.053-.214.008-.128.086l-.12-.053.078-.008c-.027-.067-.107.005-.152.005l-.166-.064-.152-.048c-.062.005-.011.04-.029.059l-.2-.032.021-.144c-.08.021-.04.1-.158.08.075-.059-.147-.07-.04-.139a.635.635,0,0,0-.361-.075c-.072.045.11.045.1.1-.3-.019-.332.131-.546.078l.054.021a.418.418,0,0,0-.206.045c.043-.062-.134-.206-.358-.211-.021.032.118.075.078.126-.048,0-.1,0-.147,0l.027-.024c-.134.016-.238-.1-.284-.024l-.126-.107.051.045-.2.045a.324.324,0,0,1-.286-.051c.024.029.086.1-.035.1.008-.11-.246-.056-.241-.112l-.139.005.011-.07c-.016.1-.193.08-.326.091.037-.128-.147,0-.2-.12-.029.088-.241.021-.267.1-.1,0-.091-.083-.115-.112l-.048.029a1.277,1.277,0,0,0-.361-.086l-.11.08-.04-.035c-.019.021-.107.032-.053.062l-.059-.005c-.005.086-.083.024-.2.061l.005-.045c-.059,0-.032-.045-.064-.072.04.021-.211.155-.053.193.011.035-.08.061-.136.045l-.035-.075-.069.08c-.088.011-.128-.037-.2-.045.072-.005.163-.15-.027-.144a.731.731,0,0,0,.2-.07c-.04,0-.059-.011,0-.043-.15.024-.051.048-.2.059.008-.07-.035-.091-.163-.112l.1.051-.019.019.056.045-.2.046c.15.107-.259.086-.163.147l-.131-.011c.123-.053-.094-.078-.075-.126-.045.021.1.051.037.078a.318.318,0,0,1-.171-.059l.029-.013-.115-.029c-.019.035.112.056.008.075l-.131-.024c.048-.048.011-.11.1-.123-.075.005-.31.016-.214.078l-.088,0c.056.029.214.08.037.091v-.013l-.12.053-.056-.035-.062.032-.054-.053c-.134.013-.12.045-.136.067-.072.011-.1,0-.07-.045a1.345,1.345,0,0,1-.35-.013c-.134.04.029.013-.048.064-.123-.112-.452-.016-.671.013.067.1-.059.016-.094.115.045-.035-.217-.067-.024-.11l-.118.019c-.086-.053.193-.056.064-.126-.134.013-.211.134-.369.1.045-.078-.118.032-.086-.051l.118-.032-.029-.013c-.294,0-.078.094-.225.155-.177.021-.145-.048-.158-.083l-.163.027c.1-.054.2.032.158.083-.086-.08-.265.011-.307.048.259.072.177-.008.42.072.029-.029.019-.1.163-.083-.086.043.011.043.035.053l.139-.045c.043.032-.078.107.067.115l.019-.1c.059.011-.019.078.1.045-.062.059.027.083-.137.11.2.075.292-.067.441-.115l-.029.029.134-.04c.1.016-.075.051-.048.078l.161-.013.005.008.1-.005-.094.1.163-.083c-.016.035.142.048.024.083l.249-.032.024.067c.059-.016.059-.029-.011-.035.086.011.372-.147.332-.008a2.19,2.19,0,0,1,.5-.094c-.179.064.211.08.019.11.115.029.136-.045.225-.056.086.029.048.1-.04.123l.1-.032,0,.013.091-.04c.1.037.021.07.123.078l.021-.062.07.035c-.027-.027.032-.04.107-.045l0,.013.088-.013c-.088.037.08.013.04.056a1.126,1.126,0,0,0,.214-.011l-.024-.043c.179-.037.008.061.152.064l-.008-.048c.208.08.353-.048.508,0-.088.011-.067.067-.064.054a2.069,2.069,0,0,0,.487-.067c.048.07.061.091.2.12.1,0,.118-.005.152-.045.1.032.286,0,.289.053.024-.04.088.013.144-.019l.011.021-.005-.048c.171.118.3-.043.471.061l-.032.011.075-.013-.024.061.345.029-.067-.04c.072,0,.126-.045.206-.011-.145.064.115.011.134.067l-.075.013c.1,0,.1,0,.1-.048.134-.011.083.1.209.053l-.086-.008c-.024-.029.043-.064.1-.062l.008.035c.1-.013.259.021.3.005.054.019.032.051,0,.062.225-.027.1.008.324-.008l-.005.027.078-.024.1.072-.035-.04a.781.781,0,0,1,.2.016l-.038.037c.206,0,.227.1.428.064l-.035.021c.187-.04.126.088.316.035l0,.043.086-.016-.013.054.078-.072.043.061.035-.021c.075.115.209.053.316.144l-.011-.072c.321-.1.682.15,1.048.169l-.016.053.16-.035c.072.059-.056.037-.035.07.163,0,.08-.067.268-.045.088.056-.04.032-.088.043a1.966,1.966,0,0,1,.556.083l.008-.019a2.779,2.779,0,0,1,.4.075l-.072.021.147.024-.059.037c.1.029.291.024.3.083-.008-.024.005-.062.091-.043.027.091.238.011.364.083l-.094.008a.333.333,0,0,0,.2,0l-.027.027.321.04c.024.094.294.07.259.123.11.032-.083-.061.059-.032.03.043.131.019.112.069l-.016,0,.1.024-.075.035c.086.013.163-.021.177-.062.072.051.193.059.214.115l-.032.005c.23.04.329.243.53.206l-.021.016.136.04-.045.029.246,0-.011.027c.15.045.382.112.575.177l-.032,0c.219.035.19.1.35.123l-.019.005.136.048-.037.013c.12-.019.259.177.217.107.064,0,.174,0,.2-.024.15.051.024.045.107.1.107.04.142,0,.278.08l-.013.024c.07.019.118.016.214.048l-.032,0c.174,0,.161.144.326.078.056.045.185.072.158.123.2.051.35.1.543.166-.005.1.043.013.134.112l.011-.048c.265.115.514.358.808.471l-.013.048.08-.021c.3.155.687.361.917.506a.872.872,0,0,1,.348.12l-.016,0a3.424,3.424,0,0,1,.682.361l-.04.032c.083-.016.139.075.187.1l-.04-.064a.206.206,0,0,1,.176.139l.131.013.008.027.032-.011.024.086c.032,0,.179.067.254.04,0,.024.083.1.005.064l.353.262-.046-.056c.019-.045.144,0,.19.059-.1-.016-.043.054-.032.1.064.011-.019-.064.021-.069a.5.5,0,0,1,.241.131l-.048-.008c.094.043.086.139.171.193.1.019.131.086.163.005.118.059.011.075.04.1.072,0,.209.126.206.174.128-.061.265.233.348.163l.056.107a.121.121,0,0,1,.152-.019c.051.07.005.1.011.134l.107-.051c.308.377.832.714,1.18,1.107a5.623,5.623,0,0,1,.65.452l-.032-.008a2.12,2.12,0,0,1,.182.2,1.823,1.823,0,0,0-.112-.166.453.453,0,0,1,.139.086,3.783,3.783,0,0,0,.73.754c.251.078.04.182.262.275l-.059,0a4.5,4.5,0,0,0,.535.332c-.1.062.118.107.056.134l.048-.019c.019.059.1.152.064.163l.118.035-.029.04c.091.107.324.308.3.431a6.313,6.313,0,0,1,.92.982.717.717,0,0,1,.23.187l.027.118c.08.064.214.1.243.2h-.019c.072.075.107.174.209.217.067.094.11.2.045.206.083-.051.136.2.136.2s.211.3.543.76l.583.8c.2.31.415.645.637.99A29.326,29.326,0,0,0,483.584,183c.064.021.158.123.182.054.067.083.013.163.067.158-.04-.139.131-.016.115-.166l.054.072c.04,0-.094-.088-.027-.1l-.091.019a.194.194,0,0,1-.011-.147c-.064-.043-.19-.027-.222-.19l.027.037c-.067-.112.011-.1.011-.128l.013.027-.013-.118c.013.088.144.176.1.115-.054-.15,0,.045-.067-.053-.04-.062.013-.067.037-.075l-.067-.115c.038-.016.04.078.051.011l-.118-.126c.078-.078-.131-.134-.08-.246.08.094.027-.027.064-.027l-.147-.254.04.016c0-.061-.067-.067-.08-.094.013-.037-.107-.19-.043-.217-.056-.2-.118-.029-.171-.211.024-.043.08.123.078.029l-.107-.16a.105.105,0,0,1,.1.067c-.209-.479-.131-.853-.452-1.22.005-.083.054.024.11.045-.246-.257-.171-.468-.34-.714l-.037.019a8.158,8.158,0,0,0-.663-1.214l.005.064a.907.907,0,0,1-.185-.168c.011-.021.1,0,.013-.107l-.005.086a11.633,11.633,0,0,0-1.038-1.61c-.292-.34-.54-.738-.848-1.089s-.6-.711-.9-1.03c.091.1-.021.123-.072.032-.059-.324-.34-.337-.444-.629a6.579,6.579,0,0,0-1.064-.987l.027-.04c-.037-.064-.075-.053-.131-.1l.011-.008c-.115-.136-.3-.246-.364-.334l-.043.035c-.08-.07-.011-.07-.11-.12l.021-.019-.126-.048c.072-.064-.209-.211-.241-.3a3.762,3.762,0,0,1-.492-.35c0-.062-.2-.219-.308-.342-.254-.187-.612-.457-.915-.722l-.032.053-.083-.061.019-.021c-.021-.107-.2-.136-.241-.219.011.075.054.051.1.088.048.078-.051.075-.123-.021l.011-.011-.086-.019,0-.147a8.288,8.288,0,0,1-.816-.465c.062-.024-.219-.131-.107-.169-.2-.091-.013.083-.131.083l-.1-.083.037-.056-.123-.075.043,0c-.27-.118-.393-.34-.639-.439l.046.086c-.251-.088-.161-.179-.4-.259l.07-.016a.282.282,0,0,1-.23-.088c.008-.059.12.016.187.024-.078-.045-.281-.144-.246-.067-.1-.037-.112-.1-.155-.139-.008.011.07.08,0,.072a3.343,3.343,0,0,0-.46-.3l.024-.035c-.161,0-.088-.1-.268-.187" transform="translate(-394.405 -141.585)" fill="#fff"></path><path id="Path_93670" data-name="Path 93670" d="M490.66,166.785l.056-.005Z" transform="translate(-423.678 -143.453)" fill="#fff"></path></g></g></g></svg> 