<?xml version="1.0" encoding="UTF-8"?> <svg xmlns="http://www.w3.org/2000/svg" width="143.212" height="164.211" viewBox="0 0 143.212 164.211"><g id="Group_11762" data-name="Group 11762" transform="translate(-131.789 -2431.256)"><g id="BK_New_Logo-01" data-name="BK New Logo-01" transform="translate(131.789 2431.256)"><path id="Path_93660" data-name="Path 93660" d="M422.954,512.33l-.034-.03Z" transform="translate(-353.602 -348.119)" fill="#fff"></path><path id="Path_93661" data-name="Path 93661" d="M295.25,155.134l.194-.224c-.095.1-.152.171-.194.224" transform="translate(-274.37 -126.323)" fill="#fff"></path><path id="Path_93662" data-name="Path 93662" d="M550.1,436.9l-.042.008Z" transform="translate(-432.505 -301.326)" fill="#fff"></path><path id="Path_93663" data-name="Path 93663" d="M390.906,451.232c-.087-.027-.14-.034-.136,0,.117.026.148.023.136,0" transform="translate(-333.65 -310.206)" fill="#fff"></path><path id="Path_93664" data-name="Path 93664" d="M395.2,476.442l.034-.042Z" transform="translate(-336.399 -325.84)" fill="#fff"></path><path id="Path_93665" data-name="Path 93665" d="M374.67,466.97l.1.023Z" transform="translate(-323.658 -319.987)" fill="#fff"></path><g id="Group_11729" data-name="Group 11729" transform="translate(0)"><path id="Path_93666" data-name="Path 93666" d="M249.745,122.357a67.19,67.19,0,0,0-2.864,6.078c-.228.539-.493,1.059-.691,1.6s-.4,1.081-.592,1.609c-.395,1.055-.782,2.072-1.161,3.009-.144.88-.444,2.125-.789,3.365l-.323.042-.22,1.055c-.212.395.186-.8-.144-.1l.057.44c-.125.049-.865,2.622-.55.838a19.343,19.343,0,0,0-.52,2.026l-.459,2.041c-.209.9.121.58-.171,1.559-.129.186.023-.368-.1-.311a8.527,8.527,0,0,0-.4,3.259,12.14,12.14,0,0,1-.2,3.119l0-.243c.008.489-.137,1.4-.091,1.415.341-.33-.087-.524.212-1.362.239.106-.023,1.085.175,1.051a6.162,6.162,0,0,0-.072,1.631c-.228.967-.216,2.39-.467,3.119a12.456,12.456,0,0,1,.224,2.068c-.193.736-.186-.182-.258.831l.148.167c-.019.827-.061.7-.129.668a11.731,11.731,0,0,1,.114,1.851l-.144-.618c.057.823.034,1.161.027,2.307-.083-.023-.08-.482-.057-.823a2.839,2.839,0,0,0,.091,1.4c.038-.1.08-.9.22-.512-.027.569.281,1.2.129,1.609l-.19-.611a7.583,7.583,0,0,1,.285,1.98c-.015-.072-.049-.034-.083-.061A17.5,17.5,0,0,1,241,171.11l-.057-.235c.08.508.266.77.3,1.043-.03-.725.042-.535.175-.615-.091.975.5,1.4.6,2.959-.087-.011-.243-.368-.224-.8a3.4,3.4,0,0,1-.8-1.457c.148.58.292,1.267.163,1.134l.254.152c.053.357.095.637.133.9.167.129.121-.751.345.053.216.911-.155.527-.03.656.288,1.256.326.486.444,1.722a1.918,1.918,0,0,1-.11-.459c.023.9.425,2.136.216,2.447a.657.657,0,0,1-.224-.459l.046,0c-.4-.918.228.789-.08.539.129-.1.364,1.134.459,1.692l.125-.212c.93,1.707-.36-.019.163,1.768.406,1.115-.068-.444.231.228a10.559,10.559,0,0,0,.493,2.212c.03.33.137.99-.03,1.1a13.329,13.329,0,0,1,.414,1.335,3.571,3.571,0,0,0,.467,1.077c-.25-1.2-.581-1.089-.759-2.523l.292.326c.258.948.77,2.1.926,2.766-.011-.14.015-.216.08-.144.512,1.3.831,1.612,1.279,2.891-.091.228-.353-.524-.58-1.059a17.9,17.9,0,0,0,.766,2.144c-.11.121-.326-.857-.516-.948l.592,1.389-.026.011c.311.106.436,1.062.873,1.878a11.435,11.435,0,0,0,2.052,3.138c.08.322.065.436-.049.341-.133-.527-.171-.406-.311-.546.334.653.5,1.548.224,1.229.615,1-.083-.432.322.163l.736,1.419c.023-.228-.216-.736.258-.053.357.6.486.911.945,1.7-.121-.083-.023.345-.36-.25a3.686,3.686,0,0,0,.763,1.169c-.4-.918.918,1.358.71.615.129.307.273.607.421.907-.118-.193-.2-.171-.36-.467-.015.341.482.66.683.941a10.018,10.018,0,0,1,.611,1.2,3.6,3.6,0,0,1,.6,1.074c.3.364.125-.038.254.038l.892,1.316c-.038.133-.2.41-.372.235.429.44.376,0,.9.747-.482-.3.6,1.059-.057.6a12,12,0,0,0,1.643,2.326c.44.3-.478-.755-.3-.823,1.472,1.783,1.931,1.59,2.944,2.94-.083-.121-.171-.235-.25-.36a6.872,6.872,0,0,0,1.18,1.024c-.334-.1.338,1.3,1.586,2.512.175.034-.524-.838-.209-.744l.812.812c.046.072-.068,0-.19-.083.763.691,1.123,1.582,1.518,1.609l.535.945-.2-.383a10.918,10.918,0,0,1,1.222.948,7.007,7.007,0,0,1,1.586,1.6c-.095-.2-.341-.687.364-.091-.235.247,1.362,1.392,1.241,1.487.292.235.736.74.857.664l-.182.121c.262-.178,1.275.74,2.151,1.313-.432.171.93.672,1.081,1.241.307-.08,1.559,1.021,1.848.933.664.452.455.611.573.8l.364.133a22.02,22.02,0,0,0,2.227,1.749l.831.254.2.258c.148.019.766.341.44.045l.383.243c.167-.2.584.262,1.419.626.159.14.08.167-.106.1.387.231.156.247.323.448-.25-.2,1.643.387.637-.3-.023-.129.637.137,1,.383l.125.334.584.034a11.857,11.857,0,0,1,1.3.854c-.508-.254-1.339-.193-.015.486a15.128,15.128,0,0,0-1.487-.546c.269.156.395.247-.076.106,1.066.482.406.068,1.445.565-.152.159.11.36.987.865l-.611-.467.156.011c-.247-.144-.3-.209-.322-.307.2.1,1.316.349,1.434.546-.9-.8,1.923.653,1.339.152a2.127,2.127,0,0,1,.918.432c-.945-.239.565.5.364.577.353.087-.63-.444-.156-.322a5.132,5.132,0,0,1,1.131.687l-.235-.057.778.44c.175-.038-.717-.5.049-.231.178.125.964.364.907.433-.417-.008-.224.273-.888.053.546.193,2.273.835,1.65.383l.641.254c-.376-.239-1.442-.82-.144-.353l-.026.034.948.2c.118.083.235.167.357.243.007-.053.167-.053.5.065.068.087.376.22.323.288.979.323.933.194,1.081.178.55.171.74.281.448.311.732.3,2.075.622,2.557.892,1.039.2-.2-.1.436-.064a3.433,3.433,0,0,0,.873.436c.38.125.827.239,1.3.349.952.212,2.007.432,2.861.562-.391-.406.47.057.839-.163-.383.027,1.552.565.057.353l.907.152c.584.3-1.518-.174-.634.25a7.954,7.954,0,0,0,1.4.11,5.591,5.591,0,0,1,1.525.167c-.44.159.937.072.6.269a4.248,4.248,0,0,1-.937-.072l.2.076c2.235.421.69-.159,1.882-.129,1.37.144,1.055.3,1.123.421a5.451,5.451,0,0,0,1.271.095c-.854.042-1.533-.319-1.127-.417a5.364,5.364,0,0,0,2.409.2c-1.92-.493-1.354-.171-3.145-.672-.262.053-.25.292-1.332.023.7,0-.027-.137-.216-.2.19.167-.766-.064-1.108-.064-.285-.156.7-.2-.391-.429l-.262.273c-.425-.121.22-.186-.706-.281.523-.065-.106-.262,1.146-.114a11.38,11.38,0,0,0-3.453-.4c.121,0,.144-.034.262-.03a5,5,0,0,1-1.047-.118c-.732-.243.626,0,.451-.14-.41-.072-.808-.182-1.214-.273l-.027-.03a1.516,1.516,0,0,1-.728-.186c.383-.008.55-.076.808-.095l-1.317-.1c.163-.065-1-.429-.08-.281-.63-.133-1.252-.281-1.87-.455l-.1-.247c-.451-.095-.478-.057.046.121-.615-.231-2.914-.463-2.451-.774a38.846,38.846,0,0,1-3.741-1.078c1.381.323-1.415-.812,0-.36a7.159,7.159,0,0,0-1.685-.467c-.569-.315-.22-.4.455-.224l-.8-.2.03-.034c-.235-.045-.467-.11-.7-.163-.645-.4-.064-.258-.762-.592l-.228.1-.436-.307c.148.156-.288.008-.812-.2l.03-.034c-.216-.076-.429-.163-.637-.254.656.193-.546-.311-.209-.292-.523-.262-.535-.266-1.5-.7l.11.2c-1.29-.5.03-.193-.964-.694l0,.163c-1.294-.986-2.485-1.142-3.426-1.889.6.315.539.08.508.11-.9-.486-2.333-1.328-3.308-1.764-.212-.391-.254-.493-1.112-1.161a2.543,2.543,0,0,0-1.059-.508c-.577-.508-1.821-1.233-1.76-1.381-.216,0-.55-.41-.941-.588l-.034-.106-.034.159c-.865-1.1-1.958-1.218-2.819-2.333l.2.121L272,223.3c-.03-.106.174.011.25-.038-.672-.584-1.374-1.131-2.018-1.741l.319.433a7.825,7.825,0,0,1-1.222-1.009c.941.55-.653-.6-.668-.839l.463.341c-.588-.512-.588-.512-.641-.36-.778-.656-.311-.683-1.093-1.218l.471.47c.083.2-.345-.049-.66-.36-.061-.091-.239-.357.015-.133-.615-.516-1.419-1.408-1.692-1.631-.266-.345-.091-.315.1-.171-1.267-1.15-.512-.577-1.779-1.734l.08-.034-.463-.376-.421-.747.118.3a12.551,12.551,0,0,1-1.055-1.161l.266.118c-1.085-1.153-1-1.54-2.091-2.591-.046-.095.129.064.22.144-1.028-.964-.467-.964-1.5-1.935.083.042.034-.11.095-.087l-.448-.463.163-.061-.512-.269c-.034-.137-.065-.277-.091-.417l-.2-.156c-.125-.744-.869-1.392-1.2-2.288l-.087.247c-1.654-1.73-2.682-4.644-4.147-7.049l.171-.034-.721-.937c-.178-.611.3.266.288.057-.656-1.066-.455-.353-1.134-1.635-.224-.717.224.178.429.467-.33-.6-.744-1.332-1.1-2.041a18.912,18.912,0,0,1-.785-1.859l-.068,0a27.848,27.848,0,0,1-1.172-2.876c.08,0,.182.22.288.448a5.083,5.083,0,0,0-.436-1.074l.273.3a9.894,9.894,0,0,1-.747-2.292c-.03.106-.163.114-.372-.516.106-.417-.649-1.685-.827-2.743.095.1.334.846.273.634a4.892,4.892,0,0,0-.554-1.377l.14.11c-.273-.778-.512-1.571-.77-2.356.133-.41-.569-2.265-.349-2.144-.178-.865.046.747-.22-.338.042-.311-.266-.979-.091-.964l.046.114c-.053-.254-.129-.5-.167-.763.076.152.167.3.254.451-.175-.649-.383-1.112-.52-1.119a12.678,12.678,0,0,1-.121-1.84l.076.228a13.713,13.713,0,0,1-.2-2.322,9.865,9.865,0,0,0-.072-1.013,5.294,5.294,0,0,0-.171-1.009c.015-.106.057-.1.072.121l-.076-1.1.144.25-.334-1.8.083.019c-.03-.6-.095-1.37-.171-2.178-.049-.812-.042-1.669-.068-2.443l.042.231c-.137-1.688.076-1.631-.023-2.864l.038.133-.008-1.112.083.247a7.525,7.525,0,0,1,.2-1.836,7.46,7.46,0,0,0-.178-1.419c.08-1.21.129-.288.254-1.032a12.92,12.92,0,0,1,.133-2.216l.08.034c.068-.55.057-.9.159-1.669l0,.231c.011-1.275.47-1.518.254-2.557.144-.512.231-1.518.41-1.434.239-1.552.455-2.758.732-4.3.323-.178.049-.334.421-1.214l-.163.03c.311-1.062.74-2.178,1.169-3.312.209-.569.421-1.146.63-1.722.193-.584.463-1.138.656-1.715l.163-.011.023-.508c.52-1.2,1.036-2.614,1.643-3.912.626-1.29,1.222-2.519,1.677-3.456.11-.326.247-.74.4-1.2a8.872,8.872,0,0,1,.713-1.381l-.038.11c.429-.842.876-1.711,1.351-2.584.243-.433.49-.873.736-1.316.285-.421.581-.842.884-1.26-.019.14.133-.008.038.209a5.442,5.442,0,0,1,.914-1.377l-.379.372a3.765,3.765,0,0,1,1.043-1.381l.387-.865.144-.106.027-.182c.144-.1.284-.2.44-.288a9.362,9.362,0,0,0,.911-1.616c.106-.03.679-.687.3-.137l2.125-2.641-.376.372c-.159-.046.4-.911.823-1.241-.376.592.121.178.4.03.25-.395-.368.212-.266-.019A9.516,9.516,0,0,1,264.2,109.4l-.19.3c.489-.622.922-.717,1.43-1.3.379-.6.8-.907.527-.975.672-.755.4-.156.645-.368a5.4,5.4,0,0,1,1.552-1.362c.144-.649,2.049-1.776,1.988-2.147a7.632,7.632,0,0,1,.732-.417c-.034-.08-.03-.326.467-.778.55-.334.527-.125.728-.182l.129-.508c.759-.516,1.548-1.1,2.36-1.73.2-.156.406-.315.611-.478l.653-.444c.436-.3.88-.6,1.324-.911.888-.611,1.787-1.225,2.667-1.829.892-.588,1.817-1.081,2.694-1.559.751-.478,1.6-1.017,2.474-1.578.9-.527,1.84-1.055,2.773-1.514l-.186.137,1.893-.819-1.411.52c.391-.228.679-.433,1.078-.618,1.04-.455,2.292-.888,3.57-1.415,1.305-.47,2.641-1.028,3.938-1.537,1.59-.933,1.225-.1,2.8-.857-.133.076-.171.14-.285.212,1.738-.675,2.7-.971,4.458-1.639-.125.391,1.184-.273,1.062-.053l.121-.175c.425,0,1.381-.19,1.267-.057l.774-.326.1.133c.535-.091,1.373-.285,2.159-.406a5.426,5.426,0,0,1,1.817-.061,48.816,48.816,0,0,1,10.3-.82,11.222,11.222,0,0,1,2.246-.125l.823.212a11.6,11.6,0,0,1,2.367-.061l-.087.042c.8-.015,1.556.148,2.314.061.876.091,1.715.262,1.43.4.057-.14.52-.087.967,0,.224.046.444.095.607.14s.269.087.269.087.694.11,1.927.311c.615.1,1.37.2,2.235.368.857.182,1.832.387,2.9.615a80.454,80.454,0,0,1,15.669,5.289,84.229,84.229,0,0,1,15.912,9.648c4.583,3.49,8.218,6.8,10.358,8.6.357.178,1.131.876.986.47.584.554.641.994.854,1.009-.668-.865.508,0-.08-.9l.493.482c.171.034-.721-.611-.467-.611l-.334.038a3.233,3.233,0,0,1-.577-.9,3.922,3.922,0,0,1-1.65-1.335l.247.243c-.694-.74-.3-.577-.414-.759l.156.163-.508-.7c.41.508,1.286,1.153.892.751-.782-.933.178.266-.482-.364-.41-.387-.2-.376-.118-.417l-.728-.709c.114-.065.474.478.273.1l-1.005-.808c.049-.395-1.089-.876-1.313-1.491.721.58.015-.14.19-.11l-1.7-1.5c-.129-.175.508.326.243.106-.258-.349-.573-.41-.74-.565-.087-.2-1.26-1.131-1.089-1.233-1.1-1.081-.675-.2-1.707-1.2-.065-.22.9.694.493.19l-1.184-.9a1.292,1.292,0,0,1,.77.395c-3.028-2.652-4.473-4.439-7.694-6.317-.36-.417.368.118.736.239a23.665,23.665,0,0,1-2.69-1.738,15.3,15.3,0,0,0-2.421-1.624l-.095.091a28.928,28.928,0,0,0-4.572-2.5c-.835-.372-1.685-.747-2.531-1.123-.865-.334-1.726-.675-2.565-1.036l.376.235a17.088,17.088,0,0,1-1.848-.493c-.068-.087.5-.121-.524-.391.193.11.6.288.459.3a44.485,44.485,0,0,0-6.336-2.136c-.649-.175-1.313-.364-1.984-.527-.679-.144-1.362-.292-2.045-.436l-2.022-.44c-.668-.118-1.328-.231-1.961-.341a90.69,90.69,0,0,0-21.3-.7c1.04-.118.622.235-.163.247-2.2-.3-3.692.516-5.915.531-3.9.854-7.493,1.3-10.915,2.842l-.114-.118a6.855,6.855,0,0,0-1.2.47v-.042c-1.332.379-2.823,1.15-3.585,1.37l.015.175c-.755.311-.444.034-1.18.455l-.011-.087-.835.535c-.015-.152-.546.072-1.157.353a13.074,13.074,0,0,1-1.6.744c-.945.486-2.656,1.537-4.09,2.254a23.077,23.077,0,0,0-3.145,1.59l-1.685,1.089c-.6.4-1.206.861-1.848,1.313-1.267.922-2.641,1.836-3.889,2.758l.159.114-.618.524c-.015-.042-.114.011-.03-.083-.618.231-1.4,1.237-1.992,1.548.425-.129.455-.341.816-.63.569-.353.193.193-.558.691l-.011-.042-.41.467c-.148-.068-.622.231-.774.163a18.506,18.506,0,0,0-1.389,1.252c-.406.429-.793.842-1.184,1.252-.778.823-1.571,1.647-2.591,2.572.049-.148-.323.178-.626.524s-.615.641-.531.338c-1.032,1.3.349-.042-.008.656-.311.338-.577.751-.713.74.095-.209-.379.159-.148-.137l-.725.835c-.087.065.045-.144.114-.247a29.68,29.68,0,0,1-2.072,2.3,21.4,21.4,0,0,0-1.8,2.3c-.011.182.516-.615.508-.433-1.081,1.73-1.252,1.3-2.3,2.891l.125-.395a6.287,6.287,0,0,1-.983,1.616c-.239.049.36-.789.569-1.241-.391.573-1.328,2.056-.907,1.7a6.042,6.042,0,0,1-.994,1.237c.027.034.524-.584.319-.137a26.9,26.9,0,0,0-2.352,3.54c-.03-.03-.133.019-.091-.095-.413,1.081-.683.789-1.392,2.144" transform="translate(-240.217 -79.562)" fill="#fff"></path><path id="Path_93667" data-name="Path 93667" d="M294.135,183.376a72.525,72.525,0,0,0-.417,12.33c.2.8.247,1.977.425,3.149l-.182.144.163.979c-.015.406-.114-.751-.114-.034l.159.357c-.08.087.326,2.519-.064.9.182,1.271.372,2.542.641,3.8.163.838.25.455.4,1.385-.015.2-.114-.322-.163-.231a14.347,14.347,0,0,0,.835,2.906,15.139,15.139,0,0,1,.971,2.709l-.087-.2.3.763a3.252,3.252,0,0,0,.186.455c.083-.383-.266-.406-.395-1.207.167.019.4.918.5.827a10.387,10.387,0,0,0,.535,1.408c.174.9.774,2.072.9,2.762.209.4.55.793.96,1.654.167.679-.182-.095.163.774l.152.095c.3.7.231.607.178.6.349.74.425.55.835,1.491l-.345-.467c.383.66.5.945.986,1.886-.064.008-.254-.372-.383-.656a3.167,3.167,0,0,0,.66,1.115c-.008-.1-.357-.74-.095-.478a7.8,7.8,0,0,1,.759,1.282l-.368-.448a9.233,9.233,0,0,1,.994,1.552l-.076-.027a24.746,24.746,0,0,1,1.624,2.531l-.144-.175c.277.383.516.539.652.751-.341-.577-.212-.444-.171-.543.379.808.933.99,1.692,2.212-.057.015-.315-.228-.5-.584a3.881,3.881,0,0,1-1.142-.945c.349.425.744.937.607.865l.224.049.486.69c.159.057-.262-.637.235-.053.561.656.155.459.292.524.785.9.436.285,1.1,1.21a2.282,2.282,0,0,1-.288-.326A14.156,14.156,0,0,1,309.125,233a.745.745,0,0,1-.364-.292l.03-.008c-.694-.6.524.546.212.44.034-.11.778.774,1.108,1.176l-.026-.2c1.4,1.066-.247.1.96,1.32.816.728-.266-.319.258.11a17.707,17.707,0,0,0,1.4,1.548c.171.254.588.7.539.831a22.369,22.369,0,0,0,1.779,1.563c-.747-.842-.911-.668-1.757-1.681l.353.163c.671.607,1.529,1.381,2,1.806-.08-.1-.1-.159-.027-.129,1.021.793,1.37.948,2.318,1.764.057.193-.5-.277-.914-.618a11.786,11.786,0,0,0,1.62,1.339c-.008.118-.668-.516-.846-.527l1.127.816-.011.015c.266-.019.823.672,1.555,1.108a13.125,13.125,0,0,0,3.047,1.613c.231.193.285.277.155.243-.379-.319-.338-.224-.5-.281.584.341,1.18.914.823.774.945.524-.284-.277.3.023.421.254.827.531,1.26.77-.11-.159-.554-.425.144-.11.577.288.839.452,1.574.861-.125-.023.171.239-.379-.068a4.658,4.658,0,0,0,1.15.58c-.785-.486,1.385.607.831.178l.789.47a4.86,4.86,0,0,1-.5-.2c.178.228.69.3.986.425.277.171,1.036.535,1.081.6a3.987,3.987,0,0,1,1.021.5c.41.148.064-.064.2-.053.451.194.9.4,1.351.58.046.095.091.319-.129.266.546.133.262-.125,1.051.175-.5-.042,1.005.486.292.395a11.277,11.277,0,0,0,2.458.918c.482.038-.766-.307-.683-.4,2.049.6,2.246.383,3.741.823l-.383-.133a8.943,8.943,0,0,0,1.415.228c-.148.03.095.193.573.395a12.263,12.263,0,0,0,1.984.542c.144-.042-.846-.319-.569-.372l1.04.2c.072.027-.046.027-.182.015a8.516,8.516,0,0,0,2,.391l.922.357-.364-.148c.14-.049,1.2.114,1.419.11a7.754,7.754,0,0,1,2.056.311c-.182-.08-.634-.262.216-.186-.034.247,1.779.239,1.745.345.345.019.956.133,1,.042l-.064.137c.045-.095.383-.118.831-.114s1-.011,1.484-.019c-.224.262,1.058,0,1.487.247.182-.171,1.715-.118,1.882-.273a1.125,1.125,0,0,1,.869.19l.341-.076c.379.065,1.776-.038,2.61-.045.25-.076.5-.137.755-.228l.292.034c.118-.057.751-.159.353-.171l.414-.046c.011-.174.577-.121,1.4-.3.193,0,.152.049-.027.095.414-.053.25.061.486.084-.3.008,1.427-.569.311-.448-.087-.057.546-.22.953-.262l.273.11.451-.247c.622-.137.914-.08,1.419-.182-.512.125-1.093.554.247.247-.7.19-1.032.33-1.4.425.281-.045.425-.053,0,.087,1.051-.243.338-.14,1.373-.395-.027.148.273.125,1.191-.038l-.7.057.121-.064c-.262.046-.338.042-.406,0a8.4,8.4,0,0,1,1.354-.4c-1.085.042,1.768-.6,1.074-.573a2.675,2.675,0,0,1,.907-.235c-.823.341.683-.03.573.1.307-.129-.7.091-.285-.08a6.82,6.82,0,0,1,1.2-.216l-.2.083c.269-.057.539-.1.8-.178.106-.106-.785.137-.083-.133a7.519,7.519,0,0,1,.9-.25c-.311.2-.023.243-.626.47.5-.182,2.109-.74,1.415-.645l.6-.2c-.4.072-1.487.33-.288-.095v.03c.266-.129.539-.25.8-.387l.383-.076c-.023-.03.095-.11.4-.228.095.008.387-.091.387-.03.884-.357.785-.395.884-.478.489-.2.687-.25.489-.083.683-.254,1.825-.82,2.311-.952.861-.463-.193.057.284-.266a7.189,7.189,0,0,0,1.962-.827c.8-.421,1.662-.911,2.33-1.339-.478.034.364-.239.52-.554-.262.231,1.389-.618.216.133l.725-.448c.562-.193-1.172.785-.33.478.831-.478,1.233-1.017,2.212-1.567-.231.334.7-.516.554-.224a5.3,5.3,0,0,1-.7.516l.182-.084c1.779-1.112.41-.478,1.267-1.165,1.024-.759.88-.493.983-.478a6.863,6.863,0,0,0,.933-.721c-.577.531-1.218.77-.983.482a6.709,6.709,0,0,0,1.772-1.358c-1.575.922-1.024.732-2.512,1.574-.159.182-.03.3-.926.8.493-.414-.083-.046-.25.03.212-.034-.573.417-.812.618-.277.095.4-.5-.482.027l-.053.281c-.357.193.068-.216-.634.284.338-.334-.2-.064.755-.725a17.073,17.073,0,0,0-2.66,1.8c.091-.068.087-.1.174-.163a6.405,6.405,0,0,1-.8.543c-.641.311.444-.364.254-.322-.326.2-.664.383-1.005.558h-.034a1.863,1.863,0,0,1-.622.315c.273-.216.36-.338.539-.493l-1.005.683c.083-.121-.937.353-.2-.087-.523.277-1.04.577-1.582.819l-.2-.064c-.376.2-.376.228.095.034-.565.22-2.36,1.343-2.178.956-1.256.622-1.734.785-3.3,1.438,1.188-.539-1.468.323-.182-.174a9.3,9.3,0,0,0-1.487.622c-.584.133-.372-.083.22-.338l-.694.3,0-.03c-.2.091-.4.2-.6.281-.691.118-.182-.095-.88.083l-.114.163-.489.065c.194,0-.209.144-.709.3l0-.03-.6.2c.588-.235-.565.122-.311-.046-.527.118-.539.121-1.487.36l.186.046c-1.229.36-.08-.11-1.089.114l.083.08c-1.487.137-2.466.554-3.566.637.618-.118.444-.212.436-.178-.93.182-2.462.341-3.422.573a3.536,3.536,0,0,0-1.465-.133,2.86,2.86,0,0,0-1.066.19,14.828,14.828,0,0,1-2.071,0c-.163.087-.634,0-1.024.083l-.083-.042.061.095c-1.252-.231-2.125.1-3.384-.133l.22-.011-.535,0c-.083-.049.137-.061.163-.114l-2.462-.182.478.106a6.591,6.591,0,0,1-1.464-.095c1-.03-.816-.1-.96-.231l.531.023c-.721-.076-.721-.076-.672.03-.937-.08-.618-.239-1.487-.281.2.034.406.076.607.1.174.084-.277.1-.687.027-.095-.03-.376-.121-.065-.083-.736-.083-1.825-.315-2.155-.33-.387-.1-.247-.148-.027-.133-1.563-.243-.694-.167-2.261-.414l.038-.049-.546-.049c-.247-.087-.482-.2-.725-.3l.25.14c-.5-.125-.827-.171-1.408-.357l.258-.015c-1.43-.323-1.6-.573-2.956-.888-.087-.042.129,0,.239.019-1.263-.281-.892-.4-2.155-.71.083,0-.038-.08.019-.083l-.573-.156.08-.087-.508-.015-.3-.235-.235-.03c-.516-.4-1.385-.626-2.113-1.1l.08.186c-2.136-.565-4.424-2.257-6.753-3.441l.095-.072-.99-.455c-.448-.379.345.1.22-.042-1.017-.554-.5-.114-1.662-.793-.527-.452.243.068.546.194-.562-.292-1.2-.732-1.825-1.131a13.846,13.846,0,0,1-1.521-1.089l-.045.015c-.694-.478-1.567-1.169-2.284-1.753.053-.027.228.121.417.254a7.2,7.2,0,0,0-.831-.679l.326.152a14.74,14.74,0,0,1-1.681-1.476c.042.083-.057.14-.5-.288-.133-.357-1.271-1.089-1.931-1.825.114.053.649.539.5.4a10,10,0,0,0-1.04-.9l.14.046-1.669-1.582c-.11-.36-1.453-1.609-1.26-1.571-.535-.622.4.565-.3-.2-.129-.254-.645-.683-.531-.721l.083.076c-.159-.182-.307-.372-.459-.558l.368.288c-.406-.474-.774-.763-.858-.736a16.111,16.111,0,0,1-.967-1.4l.156.156a13.8,13.8,0,0,1-1.18-1.81,11.318,11.318,0,0,0-1.062-1.559c-.042-.091-.011-.095.1.076l-.546-.861.2.159c-.334-.451-.69-.9-1.013-1.358l.057-.011c-.535-.979-1.457-2.462-2.1-3.749l.122.178a23.751,23.751,0,0,1-1.172-2.387l.072.1-.429-.937.144.186a8.606,8.606,0,0,1-.626-1.593,9.984,9.984,0,0,0-.656-1.142c-.417-1.043-.045-.277-.239-.949-.262-.77-.4-.873-.713-1.931l.061,0c-.186-.482-.307-.778-.52-1.465l.087.2a18.471,18.471,0,0,0-.732-2.269c-.072-.489-.33-1.389-.209-1.37-.22-.7-.379-1.328-.52-1.961s-.3-1.26-.44-1.973c.148-.258-.057-.307-.083-1.191l-.087.08c-.349-2.03-.292-4.4-.444-6.647l.095-.068c-.049-.148-.083-.3-.121-.448-.034-2.432.129-5.57.319-7.5a15.6,15.6,0,0,1,.163-2.6v.106a36.354,36.354,0,0,1,.937-5.448c.015.125.083-.053.064.163a5.33,5.33,0,0,1,.349-1.491l-.193.448a4.82,4.82,0,0,1,.474-1.533l.118-.861.08-.14,0-.159.262-.4a12.7,12.7,0,0,0,.338-1.688c.061-.068.349-.819.174-.22.364-.983.729-1.969,1.115-2.94-.08.144-.152.292-.22.44-.125.019.178-.88.41-1.316-.175.622.11.1.281-.121.114-.414-.224.311-.186.08a9.917,9.917,0,0,1,.721-1.829l-.1.307c.281-.675.577-.91.876-1.563.2-.618.474-1.017.269-.971.406-.842.269-.266.429-.527a6.954,6.954,0,0,1,.945-1.662c.034-.569,1.351-2.121,1.267-2.394.159-.2.338-.391.508-.584-.034-.049-.057-.243.269-.778.372-.459.376-.288.52-.4l.046-.444a64.278,64.278,0,0,1,7.55-8.692,42.926,42.926,0,0,1,4.132-3.859l-.148.159c.5-.395.994-.8,1.525-1.157-.395.247-.778.512-1.146.793a7.756,7.756,0,0,1,.857-.77c1.722-1.218,4.048-2.781,6.23-4.177,1.332-1.047,1.04-.425,2.375-1.32-.11.083-.14.137-.239.216,1.491-.869,2.288-1.37,3.821-2.2-.083.3,1.024-.478.933-.3l.091-.148c.368-.125,1.229-.414,1.131-.311l.664-.395.1.068a15.685,15.685,0,0,1,3.536-1.146,43.465,43.465,0,0,1,9.307-2.307,11.266,11.266,0,0,1,2.049-.376l.774.023a9.7,9.7,0,0,1,2.166-.3l-.076.038c.74-.068,1.445-.083,2.136-.2.816-.011,1.6.034,1.358.148.038-.1.47-.1.888-.08a6.9,6.9,0,0,1,.831.087s.653.027,1.81.068c.58.008,1.286.061,2.1.14s1.738.125,2.743.281a62.6,62.6,0,0,1,14.907,3.756,58.5,58.5,0,0,1,7.99,3.764,60.564,60.564,0,0,1,7.083,4.629,82.892,82.892,0,0,1,9.216,8.32c.288.209.933.918.793.562.49.558.565.926.732.979-.577-.827.394.095-.125-.751l.414.482c.137.061-.6-.63-.4-.584l-.254-.03a3.9,3.9,0,0,1-.508-.842,5.961,5.961,0,0,1-1.4-1.362l.22.231c-.626-.694-.3-.5-.4-.672l.136.156-.459-.653c.353.489,1.123,1.134.77.751-.709-.873.159.247-.414-.368-.353-.383-.186-.338-.129-.357l-.63-.7c.083-.034.41.467.22.125-.288-.273-.562-.558-.865-.812,0-.3-.982-.842-1.222-1.37.637.569,0-.106.14-.057-.486-.5-1-.975-1.525-1.434-.125-.156.455.323.209.118a3.526,3.526,0,0,0-.672-.539c-.1-.163-1.157-1.055-1.032-1.108-1.047-.967-.58-.239-1.559-1.138-.083-.178.831.649.429.209l-1.089-.842a1.584,1.584,0,0,1,.683.4c-.694-.626-1.351-1.127-1.935-1.628s-1.119-.979-1.685-1.4-1.112-.846-1.711-1.271a23.081,23.081,0,0,0-2.034-1.2c-.368-.33.334.114.668.231-.558-.285-1.017-.546-1.423-.8s-.782-.455-1.134-.679a16.428,16.428,0,0,0-2.337-1.324l-.072.061a47.191,47.191,0,0,0-9.189-3.642l.368.163c-.467-.046-1.188-.239-1.726-.353-.072-.061.429-.068-.52-.292.19.076.577.22.448.228a43.27,43.27,0,0,0-5.987-1.438c-1.218-.22-2.508-.364-3.783-.539-1.279-.1-2.542-.262-3.729-.311a64.355,64.355,0,0,0-19.516,2.147c.926-.266.584.042-.125.193-2.018.175-3.27,1.055-5.258,1.5a50.451,50.451,0,0,0-9.36,4.485l-.106-.053a8.5,8.5,0,0,0-1,.637l0-.03c-1.127.592-2.337,1.548-2.967,1.916l.023.118a8.546,8.546,0,0,0-.979.63l-.015-.057c-.232.194-.444.414-.664.618-.046-.209-1.707,1.263-2.242,1.556-.717.664-2.11,1.878-3.217,2.853a23.2,23.2,0,0,0-2.447,2.136,77.192,77.192,0,0,0-5.452,6.309l.133.034-.433.611c-.015-.027-.087.046-.03-.053a23.151,23.151,0,0,0-1.393,1.867c.3-.254.311-.421.562-.766.414-.459.159.08-.364.721l-.015-.03-.254.508c-.118,0-.436.4-.554.4-.33.52-.637,1-.911,1.468-.258.478-.508.937-.755,1.4-.516.911-.971,1.859-1.582,2.971.011-.14-.2.266-.4.641-.186.383-.364.732-.341.463-.588,1.411.247-.159.072.527a3.755,3.755,0,0,1-.425.85c.042-.2-.254.266-.121-.057l-.417.93c-.053.083.011-.133.049-.239-.36.975-.736,1.814-1.112,2.629a22.863,22.863,0,0,0-.933,2.523c.019.152.269-.687.288-.539-.512,1.8-.638,1.533-1.085,3.225l.019-.372a8.592,8.592,0,0,1-.414,1.692c-.144.129.1-.793.193-1.229-.2.607-.561,2.185-.341,1.734a7.671,7.671,0,0,1-.463,1.385c.023.019.254-.672.19-.228-.292,1-.656,2.565-.876,3.817-.027-.015-.083.064-.076-.049a22,22,0,0,1-.463,2.28" transform="translate(-273.366 -110.407)" fill="#fff"></path><path id="Path_93668" data-name="Path 93668" d="M285.4,326.679c.914,1.089,2.174,2.421,3.062,3.506a3.614,3.614,0,0,1,.937.77l-.114.167.3.235c.057.152-.216-.19-.095.061l.186.023c-.034.068.6.748.083.376.322.361.637.725.986,1.066.22.235.25.019.463.307.008.091-.118-.065-.148.008.641.865,1.134.615,1.76,1.381l-.076-.042c.156.083.372.319.4.3.046-.228-.2-.049-.33-.349.136-.1.326.2.4.1.121.2.292.228.444.357.178.311.592.592.69.861a1.8,1.8,0,0,1,.679.326c.1.273-.129.049.1.326l.106-.034c.2.209.152.2.114.224.224.212.277.08.524.383l-.224-.076a6.776,6.776,0,0,1,.618.516c-.042.038-.163-.068-.243-.159.072.247.326.193.406.281,0-.053-.2-.247-.03-.231.14.14.41.171.44.349l-.228-.068c.364.209.247.049.584.383l-.049.023c.311.1.535.436.869.732l-.08-.034c.159.091.289.087.357.152-.159-.2-.087-.182-.046-.269.156.338.5.19.876.588-.042.038-.186.011-.269-.125-.25.015-.357.114-.66-.045.182.106.387.239.3.262l.148-.08c.1.072.174.14.25.2.1-.045-.1-.277.167-.152.292.159.042.228.125.2.395.224.25-.015.561.284l-.148-.08c.209.235.622.44.584.641-.061,0-.1.042-.186-.042l.019-.019c-.353-.1.25.144.064.212.042-.095.376.19.52.323l.019-.129c.721.125-.159.159.383.516.372.19-.106-.121.144-.03a2.338,2.338,0,0,0,.607.508c.068.1.224.281.167.395.235.1.592.474.778.451-.288-.326-.425-.133-.74-.546l.186-.023a9.635,9.635,0,0,1,.846.565l.015-.091a5.121,5.121,0,0,1,.983.512c-.011.129-.228-.046-.4-.148.2.243.254.194.637.478-.034.1-.269-.175-.364-.129.148.095.307.175.459.258l-.011.015c.152-.1.334.22.634.349a2.742,2.742,0,0,0,1.29.379c.072.1.08.152.019.159-.121-.159-.121-.095-.2-.091.228.121.394.432.239.414.372.171-.08-.152.159-.065l.471.3c-.015-.106-.171-.228.106-.129a6.266,6.266,0,0,1,.6.326c-.061.015.026.159-.182.042a.7.7,0,0,0,.451.194c-.269-.235.535.209.372-.027l.269.231c-.068-.038-.1,0-.2-.065.027.159.266.106.379.152.095.08.368.243.368.3.114.023.338.174.349.258.156.057.049-.068.11-.08l.482.277c-.008.076-.053.273-.14.258.22.038.163-.152.448-.008-.228.042.334.277.019.307a2.258,2.258,0,0,0,.869.486c.209-.019-.254-.19-.186-.281.744.315.922.057,1.43.364l-.125-.095a1.453,1.453,0,0,0,.546.106c-.152.08.22.527.793.725.076-.046-.258-.254-.121-.315l.379.137-.083.023c.349.095.546.425.706.319l.258.33-.1-.137c.072-.042.452.095.539.1a1.159,1.159,0,0,1,.7.372c-.046-.08-.159-.269.144-.163-.087.216.6.326.55.429.125.042.319.186.364.106l-.068.121c.1-.171.542,0,.9.095-.167.22.383.118.451.406.125-.144.63.167.74.042.266.087.186.239.231.319l.144-.023a4.319,4.319,0,0,0,.9.406l.33-.072.084.091c.057-.027.3.015.171-.076l.152.049c.061-.148.228.015.55.034.065.042.034.072-.038.076.152.042.065.1.133.171-.095-.068.626-.11.235-.288-.011-.068.239-.042.379.027l.053.152.216-.08c.239.046.311.163.5.216-.2-.042-.5.129.008.239a3.489,3.489,0,0,0-.565-.019c.1.03.152.057-.027.068.406.057.152-.034.55.034-.053.1.049.156.387.258l-.239-.125.057-.019c-.095-.03-.118-.053-.125-.1.08.015.493-.034.539.042-.349-.243.721.03.493-.114l.341.095c-.345,0,.216.163.148.212.129,0-.239-.125-.064-.121a1.448,1.448,0,0,1,.425.174h-.087l.292.1c.061-.03-.273-.137.011-.1l.334.1c-.148.03-.068.125-.311.095.2.034.827.148.6.023l.235.049c-.14-.061-.535-.212-.064-.121l-.008.015.341.011.133.064c0-.019.057-.027.178,0l.125.083c.353.057.334.015.383,0,.2.03.269.057.167.08.269.053.744.125.922.186.368.034-.072-.026.148-.026a8.559,8.559,0,0,0,1.783.311c-.152-.076.163.011.281-.023-.133,0,.558.11.034.061l.319.034c.212.049-.531-.038-.209.034.36.03.6.015,1.017.076-.144.008.326.03.216.042-.087,0-.2-.015-.323-.027l.072.011a3.514,3.514,0,0,0,.641.03c.474.057.372.053.4.061.091.008.3.03.44.042-.292-.023-.535-.061-.4-.053.209.034.706.08.835.1-.675-.091-.47-.053-1.1-.156a2.676,2.676,0,0,1-.455-.046c.243.023-.015-.011-.08-.027a3.172,3.172,0,0,1-.383-.042c-.1-.027.235,0-.152-.064l-.08.027c-.152-.027.068-.019-.254-.057.178,0-.046-.045.387.019a6.619,6.619,0,0,0-1.2-.148h.087c-.087,0-.247-.023-.364-.038-.262-.065.216.008.148-.023-.144-.019-.285-.053-.429-.08l-.011-.007a.944.944,0,0,1-.258-.053c.133,0,.186-.008.273-.008l-.455-.049c.053-.011-.36-.121-.038-.068l-.66-.137-.046-.068c-.159-.027-.167-.015.019.034-.22-.068-1.024-.114-.876-.212-.527-.068-.713-.118-1.347-.235.493.057-.524-.243-.011-.136-.284-.118-.368-.049-.6-.1-.209-.095-.091-.155.152-.118l-.285-.042.008-.015-.25-.019c-.243-.121-.03-.106-.288-.194l-.08.065-.163-.1c.057.057-.1.03-.3-.019l.008-.019-.235-.049c.243.011-.2-.08-.083-.114-.2-.061-.2-.061-.561-.152l.046.08c-.482-.08.008-.1-.368-.216l0,.08c-.5-.3-.929-.231-1.3-.448.231.057.2-.057.193-.034a7.056,7.056,0,0,0-1.282-.315c-.087-.174-.1-.224-.444-.41-.262-.083-.307-.083-.417-.034-.231-.148-.732-.239-.713-.342-.087.057-.22-.095-.383-.08l-.015-.049-.011.1c-.376-.364-.8-.156-1.184-.5l.087,0-.2-.034.1-.1-.873-.338.148.133a1.239,1.239,0,0,1-.531-.167c.4.011-.285-.125-.3-.254l.2.042c-.254-.1-.254-.1-.273,0-.341-.106-.155-.269-.5-.3l.212.095c.042.08-.144.087-.288.027-.03-.03-.114-.114,0-.076-.273-.076-.641-.285-.77-.3-.129-.087-.053-.133.03-.125-.588-.156-.243-.121-.831-.277l.03-.046-.216-.019-.216-.235.065.11a2.287,2.287,0,0,1-.5-.224l.118-.034c-.52-.2-.52-.406-1.043-.527l.1-.011c-.5-.095-.266-.292-.782-.364l.034-.08-.224-.049.064-.091-.239.068L310.98,345l-.1.011c-.118-.292-.482-.319-.694-.615l-.015.152c-.857-.144-1.582-1.032-2.5-1.415l.072-.087-.417-.1c-.144-.19.163-.011.133-.1-.406-.178-.239.045-.691-.194-.182-.2.121-.023.247.008a6.631,6.631,0,0,1-1.324-.751l-.03.03a5.671,5.671,0,0,1-.922-.584c.034-.038.11,0,.19.046-.1-.076-.224-.2-.341-.22l.163,0c-.212-.167-.687-.391-.675-.516,0,.053-.057.114-.247-.019-.008-.212-.565-.3-.82-.588l.228.095a.976.976,0,0,0-.478-.224l.08-.027c-.258-.137-.516-.277-.763-.433,0-.216-.668-.478-.546-.542-.243-.193.163.22-.163,0-.042-.121-.3-.19-.224-.265l.042.015-.224-.159.2.019c-.2-.125-.406-.144-.467-.084-.14-.186-.425-.338-.444-.478l.083.03c-.535-.341-.63-.876-1.123-1.055l.061,0-.292-.254.125,0-.573-.315.042-.038c-.307-.292-.835-.694-1.263-1.036l.08.034c-.5-.338-.387-.429-.747-.679l.049.015-.288-.266.1.019c-.292-.11-.5-.679-.44-.482-.156-.072-.406-.22-.49-.2-.319-.288-.026-.125-.19-.338-.22-.216-.334-.178-.6-.508l.046-.034c-.144-.133-.258-.193-.455-.383l.076.038c-.395-.235-.273-.512-.69-.592-.1-.167-.372-.395-.281-.459-.436-.349-.77-.626-1.18-1,.076-.19-.087-.08-.235-.4l-.057.083c-.531-.577-.945-1.4-1.548-2.018l.057-.083-.2-.057c-.562-.74-1.279-1.7-1.749-2.265a2.952,2.952,0,0,1-.729-.691l.034.023a12.915,12.915,0,0,1-1.282-1.662c.061.011.042-.065.11-.015-.19-.076-.258-.338-.349-.467l.049.19a.737.737,0,0,1-.307-.527l-.281-.2v-.072l-.076-.019.011-.22c-.065-.053-.33-.395-.508-.436.019-.049-.121-.322.027-.141l-.626-1.017.065.178c-.068.072-.319-.193-.383-.372.2.159.129-.057.133-.186-.133-.106,0,.163-.087.121a1.867,1.867,0,0,1-.459-.592l.1.08c-.186-.209-.106-.414-.25-.641-.19-.171-.22-.364-.338-.231-.209-.288.03-.178-.015-.285a1.054,1.054,0,0,1-.319-.653c-.311-.042-.406-.865-.622-.827l-.046-.307c-.053.019-.194.03-.33-.163-.053-.224.061-.228.08-.311l-.25-.034c-.379-1.248-1.332-2.66-1.7-4.029a15.558,15.558,0,0,1-.964-1.916l.053.064-.209-.7.1.527a2.553,2.553,0,0,1-.212-.383,15.732,15.732,0,0,0-.922-2.69c-.421-.527.068-.471-.281-.99l.11.087a16.112,16.112,0,0,0-.763-1.51c.25,0-.14-.406,0-.383l-.106-.027c.019-.156-.049-.5.03-.467l-.19-.247.087-.049c-.091-.372-.383-1.15-.243-1.392a16.566,16.566,0,0,1-.869-3.536,2.195,2.195,0,0,1-.25-.755l.068-.307c-.08-.266-.273-.531-.239-.8l.034.027a2.646,2.646,0,0,0-.2-.793c-.042-.307-.03-.611.091-.535-.2,0-.076-.649-.076-.649s-.091-.987-.231-2.527c-.087-.766-.125-1.681-.175-2.675a20.719,20.719,0,0,0-.269-3.183,102.041,102.041,0,0,1-1-11.481,3.465,3.465,0,0,0-.011-.361c.007-.254.007-.292.011-.47-.011.387,0-.121-.015.258l.015-.243c-.008.1-.008.095-.015.269v.068c-.011.163-.019.258-.027.372-.008.186.011.3-.019.744l0-.121c-.015.357-.027.216-.034.292l0-.08-.03.3c.023-.228.027-.607.015-.406-.038.425.011-.11,0,.209-.012.2-.023.14-.03.133l-.027.357c-.015-.015.019-.235-.008-.091l-.019.448c-.053.08-.011.49-.08.691.015-.323-.023.027-.034-.027-.027.262-.046.527-.057.789-.015.076-.008-.209-.011-.091a1.575,1.575,0,0,0,0,.326l-.087.565c-.076.535.057.231-.008.728-.042.065.015-.4-.038-.178l-.023.52a.5.5,0,0,1-.034-.3,31.756,31.756,0,0,0-.5,3.445c-.083.182-.038-.133-.076-.262a14.29,14.29,0,0,1-.326,2.117l.068.015a23.248,23.248,0,0,0-.315,3.737l.049-.156a3.988,3.988,0,0,1,.186.653c-.038.034-.2-.14-.125.224.023-.076.038-.235.087-.19a20.567,20.567,0,0,0,0,2.329c.064.933.178,1.95.224,2.849.156,1.2.383,2.447.543,3.7.193,1.245.459,2.478.725,3.642-.083-.353.152-.25.159.03-.152.808.391,1.241.357,2.045a20.66,20.66,0,0,0,1.214,3.741l-.087.057c.019.2.1.228.171.417l-.027,0c.1.474.429.975.474,1.252l.11-.023c.11.262-.027.167.137.417l-.057.011.22.281c-.193.038.273.755.273,1,.155.338.508.949.706,1.468a5.456,5.456,0,0,0,.364,1.184c.19.383.4.857.653,1.339s.52.994.751,1.487l.1-.076.137.247-.053.019c-.027.262.338.561.364.8.034-.182-.076-.186-.148-.33-.053-.235.156-.095.243.212l-.027.008.156.159c-.076.068-.027.262-.1.334.49.8.96,1.26,1.4,2.109-.144-.026.372.581.114.516.353.459.083-.163.334-.008.08.14.209.258.163.323-.08-.042-.03.174-.114.072l.224.315-.095-.046c.527.6.664,1.229,1.146,1.757.087,0-.136-.243-.053-.239.508.512.243.592.69,1.089l-.156-.061a1.069,1.069,0,0,1,.436.5c-.053.114-.258-.182-.391-.3.129.2.523.671.493.467a1.163,1.163,0,0,1,.25.5c.026-.011-.1-.262.042-.156a13.148,13.148,0,0,0,.823,1.233l-.076.042c.379.224.155.341.5.751" transform="translate(-259.873 -200.286)" fill="#fff"></path><path id="Path_93669" data-name="Path 93669" d="M479.477,169.348c-.334-.159-.721-.349-1.108-.535-.395-.163-.793-.319-1.123-.489a1.492,1.492,0,0,1-.626-.144l.034-.137-.2-.042c-.057-.072.148.038.042-.068l-.1.046c.008-.053-.444-.239-.106-.193l-.694-.319c-.152-.072-.133.065-.292-.042l.076-.049c-.474-.322-.706.015-1.165-.228h.049c-.095,0-.254-.057-.262-.042.015.152.114-.038.235.091-.053.1-.209-.008-.231.076-.1-.08-.19-.042-.292-.072-.144-.129-.406-.171-.5-.3a.8.8,0,0,1-.406.019c-.1-.133.057-.072-.1-.167l-.049.053c-.141-.061-.11-.072-.095-.1-.152-.057-.156.042-.334-.068l.129-.023a1.654,1.654,0,0,1-.4-.137l.148.027c-.076-.137-.2-.027-.25-.057.007.034.14.1.053.137-.091-.049-.235.015-.285-.08l.129-.03c-.224-.008-.137.049-.368-.042l.023-.03c-.178.042-.353-.091-.573-.159l.049,0c-.1,0-.163.042-.213.023.118.072.076.083.068.148-.137-.156-.292.053-.55-.087l.159,0c.125-.083.163-.174.349-.178-.11,0-.239-.023-.2-.061l-.061.095-.159-.049c-.045.057.1.14-.061.144-.175-.011-.057-.129-.1-.091-.239-.023-.125.083-.334-.011l.087.008c-.144-.083-.391-.087-.4-.224l.1-.03-.008.019c.2-.042-.152-.015-.068-.114-.008.068-.224-.008-.319-.046l.011.083c-.387.137.057-.148-.277-.209-.22-.008.072.042-.068.061-.137-.053-.174-.133-.387-.159-.049-.046-.159-.106-.152-.2-.136.008-.379-.118-.47-.046.2.114.239-.046.467.114l-.091.068a3.639,3.639,0,0,1-.523-.095l.008.061c-.258-.019-.349.053-.584-.023-.015-.083.125-.042.228-.026-.144-.095-.163-.038-.4-.11,0-.068.163.038.2-.023l-.273-.03,0-.015c-.061.106-.2-.049-.376-.049-.391-.08-.478.061-.709.11l-.034-.1c.087.068.076.027.118,0-.133-.015-.269-.171-.186-.2-.216-.008.065.076-.068.083l-.285-.065c.023.065.121.1-.034.114a2.59,2.59,0,0,1-.349-.065c.027-.023-.038-.1.083-.072a.271.271,0,0,0-.258,0c.171.076-.3.011-.182.121l-.171-.076.11-.011c-.038-.095-.152.008-.216.008l-.235-.091-.216-.068c-.087.008-.015.057-.042.083l-.288-.046.03-.2c-.114.03-.057.14-.224.114.106-.083-.209-.1-.057-.2a.9.9,0,0,0-.512-.106c-.1.064.156.064.137.14-.421-.027-.471.186-.774.11l.076.03a.594.594,0,0,0-.292.065c.061-.087-.19-.292-.508-.3-.03.046.167.106.11.178-.068,0-.14,0-.209,0l.038-.034c-.19.023-.338-.144-.4-.034l-.178-.152.072.064-.288.065a.46.46,0,0,1-.406-.072c.034.042.121.137-.049.144.011-.156-.349-.08-.341-.159l-.2.008.015-.1c-.023.137-.273.114-.463.129.053-.182-.209,0-.288-.171-.042.125-.341.03-.379.137-.148,0-.129-.118-.163-.159l-.068.042a1.809,1.809,0,0,0-.512-.121l-.156.114-.057-.049c-.026.03-.152.046-.076.087l-.084-.008c-.008.121-.118.034-.281.087l.008-.064c-.083,0-.045-.064-.091-.1.057.03-.3.22-.076.273.015.049-.114.087-.194.065l-.049-.106-.1.114c-.125.015-.182-.053-.281-.064.1-.008.231-.213-.038-.2a1.038,1.038,0,0,0,.288-.1c-.057,0-.083-.015,0-.061-.212.034-.072.068-.281.083.011-.1-.049-.129-.232-.159l.137.072-.027.027.08.064-.277.065c.212.152-.368.121-.231.209l-.186-.015c.175-.076-.133-.11-.106-.178-.065.03.14.072.053.11a.452.452,0,0,1-.243-.083l.042-.019-.163-.042c-.026.049.159.08.011.106l-.186-.034c.068-.068.015-.156.14-.175-.106.008-.44.023-.3.11l-.125,0c.08.042.3.114.053.129v-.019l-.171.076-.08-.049-.087.045-.076-.076c-.19.019-.171.064-.194.095-.1.015-.144,0-.1-.064a1.908,1.908,0,0,1-.5-.019c-.19.057.042.019-.068.091-.175-.159-.641-.023-.952.019.095.144-.083.023-.133.163.064-.049-.307-.095-.034-.155l-.167.027c-.121-.076.273-.08.091-.178-.19.019-.3.19-.524.148.065-.11-.167.046-.121-.072l.167-.046-.042-.019c-.417,0-.11.133-.319.22-.25.03-.2-.068-.224-.118l-.231.038c.148-.076.288.045.224.118-.121-.114-.376.015-.436.068.368.1.25-.011.6.1.042-.042.027-.148.232-.118-.121.061.015.061.049.076l.2-.065c.061.046-.11.152.095.163l.026-.148c.084.015-.026.11.14.065-.087.083.038.118-.193.156.285.106.413-.095.626-.163l-.042.042.19-.057c.144.023-.106.072-.068.11l.228-.019.008.011.136-.008-.133.144.231-.118c-.023.049.2.068.034.118l.353-.046.034.095c.084-.023.084-.042-.015-.049.121.015.528-.209.471-.011a3.1,3.1,0,0,1,.709-.133c-.254.091.3.114.027.156.163.042.194-.064.319-.08.121.042.068.137-.057.175l.148-.046,0,.019.129-.057c.14.053.03.1.174.11l.03-.087.1.049c-.038-.038.045-.057.152-.065l0,.019.125-.019c-.125.053.114.019.057.08a1.6,1.6,0,0,0,.3-.015l-.034-.061c.254-.053.011.087.216.091l-.011-.068c.3.114.5-.068.721,0-.125.015-.095.095-.091.076a2.935,2.935,0,0,0,.69-.095c.068.1.087.129.285.171.144,0,.167-.008.216-.065.14.046.406,0,.41.076.034-.057.125.019.2-.027l.015.03-.008-.068c.243.167.425-.061.668.087l-.045.015.106-.019-.034.087.489.042-.095-.057c.1,0,.178-.065.292-.015-.2.091.163.015.19.095l-.106.019c.144,0,.144,0,.137-.068.19-.015.118.137.3.076l-.121-.011c-.034-.042.061-.091.141-.087l.011.049c.148-.019.368.03.432.008.076.027.046.072,0,.087.319-.038.14.011.459-.011l-.008.038.11-.034.144.1-.049-.057a1.107,1.107,0,0,1,.288.023l-.053.053c.292,0,.323.137.607.091l-.049.03c.266-.057.178.125.448.049l0,.061.121-.023-.019.076.11-.1.061.087.049-.03c.106.163.3.076.448.2l-.015-.1c.455-.137.968.213,1.487.239l-.023.076.228-.049c.1.083-.08.053-.049.1.231,0,.114-.095.379-.064.125.08-.057.045-.125.061a2.79,2.79,0,0,1,.789.118l.011-.027a3.943,3.943,0,0,1,.562.106l-.1.03.209.034-.083.053c.137.042.414.034.429.118-.012-.034.008-.087.129-.061.038.129.338.015.516.118l-.133.011a.472.472,0,0,0,.281,0l-.038.038.455.057c.034.133.417.1.368.175.156.046-.118-.087.083-.046.042.061.186.027.159.1l-.023,0,.141.034-.106.049c.121.019.232-.03.25-.087.1.072.273.083.3.163l-.045.008c.326.057.467.345.751.292l-.03.023.194.057-.065.042.349,0-.015.038c.212.065.542.159.816.25l-.045,0c.311.049.269.137.5.174l-.027.008.193.068-.053.019c.171-.027.368.25.307.152.091,0,.247,0,.288-.034.212.072.034.065.152.144.152.057.2,0,.395.114l-.019.034c.1.027.167.023.3.068l-.046,0c.247,0,.228.2.463.11.08.064.262.1.224.174.281.072.5.144.77.235-.008.137.061.019.19.159l.015-.068c.376.163.729.508,1.146.668l-.019.068.114-.03c.429.22.975.512,1.3.717a1.238,1.238,0,0,1,.493.171l-.023,0a4.86,4.86,0,0,1,.968.512l-.057.046c.117-.023.2.106.266.148l-.057-.091a.292.292,0,0,1,.25.2l.186.019.011.038.046-.015.034.121c.045,0,.254.095.36.057,0,.034.118.144.008.091l.5.372-.064-.08c.026-.065.2,0,.269.083-.137-.023-.061.076-.046.148.091.015-.026-.091.031-.1a.707.707,0,0,1,.341.186l-.068-.011c.133.061.122.2.243.273.137.026.186.121.231.008.167.083.015.106.057.148.1,0,.3.178.292.247.182-.087.375.33.493.231l.08.152a.172.172,0,0,1,.216-.027c.072.1.008.14.015.19l.152-.072c.436.535,1.18,1.013,1.673,1.571a8.007,8.007,0,0,1,.922.641l-.046-.011a3.013,3.013,0,0,1,.258.281,2.592,2.592,0,0,0-.159-.235.645.645,0,0,1,.2.121,5.365,5.365,0,0,0,1.036,1.07c.357.11.057.258.372.391l-.084,0a6.383,6.383,0,0,0,.759.47c-.144.087.167.152.08.19l.068-.027c.027.083.148.216.091.231l.167.049-.042.057c.129.152.459.436.429.611a8.962,8.962,0,0,1,1.305,1.392,1.016,1.016,0,0,1,.326.266l.038.167c.114.091.3.137.345.277h-.027c.1.106.152.247.3.307.095.133.155.285.064.292.118-.072.194.285.194.285s.3.421.77,1.078c.239.326.52.709.827,1.131.281.44.588.914.9,1.4,1.339,1.9,2.58,4.17,3.426,4.883.091.03.224.175.258.076.095.118.019.231.095.224-.057-.2.186-.023.163-.235l.076.1c.057,0-.133-.125-.038-.137l-.129.027a.274.274,0,0,1-.015-.209c-.091-.061-.269-.038-.315-.269l.038.053c-.095-.159.015-.137.015-.182l.019.038-.019-.167c.019.125.2.25.148.163-.076-.212,0,.064-.095-.076-.057-.087.019-.095.053-.106l-.095-.163c.053-.023.057.11.072.015l-.167-.178c.11-.11-.186-.19-.114-.349.114.133.038-.038.091-.038l-.209-.36.057.023c0-.087-.095-.095-.114-.133.019-.053-.152-.269-.061-.307-.08-.281-.167-.042-.243-.3.034-.061.114.175.11.042l-.152-.228a.149.149,0,0,1,.148.095c-.3-.679-.186-1.21-.641-1.73.008-.118.076.034.156.065-.349-.364-.243-.664-.482-1.013l-.053.027a11.562,11.562,0,0,0-.941-1.722l.008.091a1.286,1.286,0,0,1-.262-.239c.015-.03.144,0,.019-.152l-.008.121a16.512,16.512,0,0,0-1.472-2.284c-.414-.482-.766-1.047-1.2-1.544s-.85-1.009-1.279-1.461c.129.14-.03.175-.1.046-.084-.459-.482-.478-.63-.892a9.323,9.323,0,0,0-1.51-1.4l.038-.057c-.053-.091-.106-.076-.186-.144l.015-.011c-.163-.194-.432-.349-.516-.474l-.061.049c-.114-.1-.015-.1-.156-.171l.03-.027-.178-.068c.1-.091-.3-.3-.341-.425a5.343,5.343,0,0,1-.7-.5c0-.087-.277-.311-.436-.486-.36-.266-.869-.649-1.3-1.024l-.045.076-.118-.087.027-.03c-.03-.152-.281-.194-.341-.311.015.106.076.072.14.125.068.11-.072.106-.174-.03l.015-.015-.121-.027,0-.209a11.736,11.736,0,0,1-1.157-.66c.087-.034-.311-.186-.152-.239-.281-.129-.019.118-.186.118l-.148-.118.053-.08-.174-.106.061,0c-.383-.167-.558-.482-.907-.622l.065.121c-.357-.125-.228-.254-.565-.368l.1-.023a.4.4,0,0,1-.326-.125c.011-.083.171.023.266.034-.11-.064-.4-.2-.349-.095-.144-.053-.159-.14-.22-.2-.011.015.1.114,0,.1a4.729,4.729,0,0,0-.653-.421l.034-.049c-.228,0-.125-.148-.379-.266" transform="translate(-370.843 -132.107)" fill="#fff"></path><path id="Path_93670" data-name="Path 93670" d="M490.66,166.788l.08-.008Z" transform="translate(-395.642 -133.689)" fill="#fff"></path></g></g><path id="np_align_1989818_000000" d="M70.906,52.176H50.4v-5.4H62.961V29.18H50.4V22H47.531v7.18H34.964v17.6H47.531v5.4H27.02V68.281H47.531v7.191H50.4V68.281H70.906Z" transform="translate(164.306 2462.773)" fill="#fff"></path></g></svg> 