<?xml version="1.0" encoding="UTF-8"?> <svg xmlns="http://www.w3.org/2000/svg" width="106" height="121.543" viewBox="0 0 106 121.543"><g id="Group_12086" data-name="Group 12086" transform="translate(-948 -898.256)"><g id="BK_New_Logo-01" data-name="BK New Logo-01" transform="translate(948 898.256)"><path id="Path_93660" data-name="Path 93660" d="M422.945,512.322l-.025-.022Z" transform="translate(-371.614 -390.78)" fill="#2c2e50"></path><path id="Path_93661" data-name="Path 93661" d="M295.25,155.076l.143-.166c-.07.076-.112.126-.143.166" transform="translate(-279.796 -133.751)" fill="#2c2e50"></path><path id="Path_93662" data-name="Path 93662" d="M550.091,436.9l-.031.006Z" transform="translate(-463.051 -336.553)" fill="#2c2e50"></path><path id="Path_93663" data-name="Path 93663" d="M390.871,451.225c-.065-.02-.1-.025-.1,0,.087.02.109.017.1,0" transform="translate(-348.492 -346.844)" fill="#2c2e50"></path><path id="Path_93664" data-name="Path 93664" d="M395.2,476.431l.025-.031Z" transform="translate(-351.678 -364.961)" fill="#2c2e50"></path><path id="Path_93665" data-name="Path 93665" d="M374.67,466.97l.073.017Z" transform="translate(-336.913 -358.179)" fill="#2c2e50"></path><g id="Group_11729" data-name="Group 11729" transform="translate(0 0)"><path id="Path_93666" data-name="Path 93666" d="M247.269,111.238a49.718,49.718,0,0,0-2.12,4.5c-.168.4-.365.783-.511,1.188s-.295.8-.438,1.191c-.292.781-.578,1.533-.859,2.227-.107.652-.329,1.573-.584,2.491l-.239.031-.163.781c-.157.292.138-.6-.107-.073l.042.326c-.093.036-.64,1.94-.407.621a14.313,14.313,0,0,0-.385,1.5l-.34,1.511c-.154.666.09.43-.126,1.154-.1.138.017-.272-.073-.23a6.311,6.311,0,0,0-.3,2.412,8.985,8.985,0,0,1-.152,2.308l0-.18c.006.362-.1,1.036-.067,1.047.253-.244-.065-.388.157-1.008.177.079-.017.8.129.778a4.561,4.561,0,0,0-.053,1.208c-.168.716-.16,1.769-.345,2.308a9.224,9.224,0,0,1,.166,1.53c-.143.545-.138-.135-.191.615l.11.124c-.014.612-.045.517-.1.494a8.691,8.691,0,0,1,.084,1.37l-.107-.458c.042.609.025.859.02,1.707-.062-.017-.059-.357-.042-.609a2.1,2.1,0,0,0,.067,1.039c.028-.073.059-.663.163-.379-.02.421.208.885.1,1.191l-.14-.452a5.614,5.614,0,0,1,.211,1.466c-.011-.053-.036-.025-.062-.045a12.948,12.948,0,0,1,.194,2.4l-.042-.174c.059.376.2.57.219.772-.022-.536.031-.4.129-.455-.067.722.371,1.039.444,2.19-.065-.008-.18-.272-.166-.6a2.513,2.513,0,0,1-.6-1.078c.11.43.216.938.121.84l.188.112c.039.264.07.472.1.668.124.1.09-.556.255.039.16.674-.115.39-.022.486.213.93.241.359.329,1.275a1.419,1.419,0,0,1-.081-.34c.017.666.314,1.581.16,1.811a.486.486,0,0,1-.166-.34l.034,0c-.3-.68.168.584-.059.4.1-.073.27.84.34,1.252l.093-.157c.688,1.264-.267-.014.121,1.309.3.826-.051-.329.171.168a7.815,7.815,0,0,0,.365,1.637c.022.244.1.733-.022.814a9.888,9.888,0,0,1,.306.988,2.643,2.643,0,0,0,.345.8c-.185-.885-.43-.806-.562-1.867l.216.242c.191.7.57,1.556.685,2.047-.008-.1.011-.16.059-.107.379.963.615,1.193.946,2.14-.067.168-.261-.388-.43-.783a13.257,13.257,0,0,0,.567,1.587c-.081.09-.242-.635-.382-.7l.438,1.028-.02.008c.23.079.323.786.646,1.39a8.462,8.462,0,0,0,1.519,2.322c.059.239.048.323-.037.253-.1-.39-.126-.3-.23-.4.247.483.368,1.146.166.91.455.741-.062-.32.239.121l.545,1.05c.017-.168-.16-.545.191-.039.264.444.359.674.7,1.255-.09-.062-.017.256-.267-.185a2.729,2.729,0,0,0,.564.865c-.3-.68.68,1.005.525.455.1.227.2.449.312.671-.087-.143-.152-.126-.267-.345-.011.253.357.489.505.7a7.411,7.411,0,0,1,.452.885,2.668,2.668,0,0,1,.446.795c.222.27.093-.028.188.028l.66.974c-.028.1-.152.3-.275.174.317.326.278,0,.663.553-.357-.222.441.784-.042.441a8.88,8.88,0,0,0,1.216,1.721c.326.225-.354-.559-.225-.609,1.09,1.32,1.429,1.177,2.179,2.176-.062-.09-.126-.174-.185-.267a5.088,5.088,0,0,0,.873.758c-.247-.073.25.96,1.174,1.859.129.025-.388-.621-.154-.55l.6.6c.034.053-.051,0-.14-.062.564.511.831,1.171,1.123,1.191l.4.7-.152-.284a8.089,8.089,0,0,1,.9.7,5.187,5.187,0,0,1,1.174,1.185c-.07-.149-.253-.508.27-.067-.174.182,1.008,1.031.918,1.1.216.174.545.548.635.491l-.135.09c.194-.132.943.548,1.592.972-.32.126.688.5.8.918.227-.059,1.154.755,1.368.691.491.334.337.452.424.593l.27.1a16.3,16.3,0,0,0,1.648,1.295l.615.188.152.191c.11.014.567.253.326.034l.284.18c.124-.152.432.194,1.05.463.118.1.059.124-.079.073.286.171.115.183.239.331-.185-.152,1.216.286.472-.222-.017-.1.472.1.741.284l.093.247.432.025a8.782,8.782,0,0,1,.96.632c-.376-.188-.991-.143-.011.359a11.2,11.2,0,0,0-1.1-.4c.2.115.292.183-.056.079.789.357.3.051,1.07.418-.112.118.082.267.73.64l-.452-.345.115.008c-.182-.107-.225-.154-.239-.227.152.076.974.258,1.061.4-.665-.59,1.424.483.991.112a1.574,1.574,0,0,1,.68.32c-.7-.177.418.374.27.427.261.065-.466-.329-.115-.239a3.8,3.8,0,0,1,.837.508l-.174-.042.576.326c.129-.028-.531-.373.037-.171.132.093.713.27.671.32-.309-.006-.166.2-.657.039.4.143,1.682.618,1.222.284l.475.188c-.278-.177-1.067-.607-.107-.261l-.02.025.7.146c.087.062.174.124.264.18.005-.039.124-.039.371.048.05.065.278.163.239.213.724.239.691.143.8.132.407.126.548.208.331.23.542.222,1.536.461,1.893.66.769.152-.146-.076.323-.048a2.538,2.538,0,0,0,.646.323c.281.093.612.177.963.258.7.157,1.486.32,2.117.416-.289-.3.348.042.621-.121-.284.02,1.149.418.042.261l.671.112c.432.219-1.123-.129-.469.185a5.883,5.883,0,0,0,1.039.081,4.14,4.14,0,0,1,1.129.124c-.326.118.694.053.444.2a3.142,3.142,0,0,1-.694-.053l.152.056c1.654.312.511-.118,1.393-.1,1.014.107.781.225.831.312a4.033,4.033,0,0,0,.941.07c-.632.031-1.135-.236-.834-.309a3.97,3.97,0,0,0,1.783.146c-1.421-.365-1-.126-2.328-.5-.194.039-.185.216-.986.017.519,0-.02-.1-.16-.149.14.124-.567-.048-.82-.048-.211-.115.519-.146-.289-.317l-.194.2c-.315-.09.163-.138-.522-.208.387-.048-.079-.194.848-.084a8.422,8.422,0,0,0-2.555-.3c.09,0,.107-.025.194-.022a3.694,3.694,0,0,1-.775-.087c-.542-.18.463,0,.334-.1-.3-.053-.6-.135-.9-.2l-.02-.022a1.123,1.123,0,0,1-.539-.138c.284-.006.407-.056.6-.07l-.974-.076c.121-.048-.739-.317-.059-.208-.466-.1-.927-.208-1.384-.337l-.073-.183c-.334-.07-.354-.042.034.09-.455-.171-2.157-.343-1.814-.573a28.771,28.771,0,0,1-2.769-.8c1.022.239-1.047-.6,0-.267a5.3,5.3,0,0,0-1.247-.345c-.421-.233-.163-.3.337-.166l-.59-.152.023-.025c-.174-.034-.345-.081-.517-.121-.477-.3-.048-.191-.564-.438l-.169.076-.323-.227c.11.115-.213.006-.6-.149l.022-.025c-.16-.056-.317-.121-.472-.188.486.143-.4-.23-.154-.216-.387-.194-.4-.2-1.109-.517l.081.146c-.955-.373.022-.143-.713-.514l0,.121c-.958-.73-1.839-.845-2.536-1.4.446.233.4.059.376.081-.666-.359-1.727-.983-2.449-1.306-.157-.289-.188-.365-.823-.859a1.881,1.881,0,0,0-.784-.376c-.427-.376-1.348-.913-1.3-1.022-.16,0-.407-.3-.7-.435l-.025-.079-.025.118c-.64-.812-1.449-.9-2.086-1.727l.152.09-.354-.239c-.023-.079.129.008.185-.028-.5-.432-1.017-.837-1.494-1.289l.236.32a5.789,5.789,0,0,1-.9-.747c.7.407-.483-.444-.494-.621l.343.253c-.435-.379-.435-.379-.475-.267-.576-.486-.23-.505-.809-.9l.348.348c.062.146-.256-.037-.489-.267-.045-.067-.177-.264.011-.1-.455-.382-1.05-1.042-1.252-1.207-.2-.256-.067-.233.073-.126-.938-.851-.379-.427-1.317-1.283l.059-.025-.343-.278-.312-.553.087.219a9.291,9.291,0,0,1-.781-.859l.2.087c-.8-.854-.741-1.14-1.547-1.918-.034-.07.1.048.163.107-.761-.713-.345-.713-1.112-1.432.062.031.025-.081.07-.065l-.331-.343.121-.045-.379-.2c-.025-.1-.048-.205-.067-.309l-.152-.115c-.093-.55-.643-1.031-.885-1.693l-.065.183c-1.224-1.281-1.985-3.437-3.069-5.218l.126-.025-.534-.694c-.132-.452.225.2.213.042-.486-.789-.337-.261-.84-1.21-.166-.531.166.132.317.345-.244-.441-.55-.986-.812-1.511a14,14,0,0,1-.581-1.376l-.051,0a20.615,20.615,0,0,1-.868-2.129c.059,0,.135.163.213.331a3.762,3.762,0,0,0-.323-.795l.2.222a7.323,7.323,0,0,1-.553-1.7c-.022.079-.121.084-.275-.382.079-.309-.48-1.247-.612-2.03.07.076.247.626.2.469a3.622,3.622,0,0,0-.41-1.019l.1.081c-.2-.576-.379-1.163-.57-1.744.1-.3-.421-1.676-.258-1.587-.132-.64.034.553-.163-.25.031-.23-.2-.724-.067-.713l.034.084c-.039-.188-.1-.373-.124-.564.056.112.124.225.188.334-.129-.48-.284-.823-.385-.828a9.387,9.387,0,0,1-.09-1.362l.056.169a10.15,10.15,0,0,1-.146-1.719,7.3,7.3,0,0,0-.053-.75,3.924,3.924,0,0,0-.126-.747c.011-.079.042-.073.053.09l-.056-.814.107.185-.247-1.331.062.014c-.022-.444-.07-1.014-.126-1.612-.036-.6-.031-1.236-.051-1.808l.031.171c-.1-1.25.056-1.207-.017-2.12l.028.1-.006-.823.062.183a5.572,5.572,0,0,1,.146-1.359,5.517,5.517,0,0,0-.132-1.05c.059-.9.1-.213.188-.764a9.568,9.568,0,0,1,.1-1.64l.059.025c.051-.407.042-.666.118-1.236l0,.171c.008-.944.348-1.123.188-1.893.107-.379.171-1.123.3-1.061.177-1.149.337-2.042.542-3.184.239-.132.036-.247.312-.9l-.121.022c.23-.786.548-1.612.865-2.452.154-.421.312-.848.466-1.275s.343-.842.486-1.269l.121-.008.017-.376c.385-.89.767-1.935,1.216-2.9l1.241-2.558c.081-.242.183-.548.3-.887a6.568,6.568,0,0,1,.528-1.022l-.028.081c.317-.623.649-1.266,1-1.912.18-.32.362-.646.545-.974.211-.312.43-.623.654-.932-.014.1.1-.006.028.154a4.028,4.028,0,0,1,.677-1.019l-.281.275a2.788,2.788,0,0,1,.772-1.022l.286-.64.107-.079.02-.135c.107-.073.211-.149.326-.213a6.929,6.929,0,0,0,.674-1.2c.079-.022.5-.508.219-.1l1.573-1.954-.278.275c-.118-.034.295-.674.609-.918-.278.438.09.132.3.022.185-.292-.272.157-.2-.014a7.048,7.048,0,0,1,1.005-1.2l-.14.219c.362-.461.682-.531,1.059-.963.281-.444.6-.671.39-.722.5-.559.295-.115.477-.272A4,4,0,0,1,260.9,98.9c.107-.48,1.516-1.314,1.471-1.589a5.654,5.654,0,0,1,.542-.309c-.025-.059-.022-.242.345-.576.407-.247.39-.093.539-.135l.1-.376c.562-.382,1.146-.814,1.747-1.281.149-.115.3-.233.452-.354l.483-.329c.323-.222.651-.446.98-.674.657-.452,1.323-.907,1.974-1.354s1.345-.8,1.994-1.154c.556-.354,1.182-.753,1.831-1.168.666-.39,1.362-.781,2.053-1.12l-.138.1,1.4-.607-1.045.385c.289-.168.5-.32.8-.458.769-.337,1.7-.657,2.642-1.047.966-.348,1.954-.761,2.915-1.137,1.177-.691.907-.076,2.07-.635-.1.056-.126.1-.211.157,1.286-.5,2-.719,3.3-1.213-.093.289.876-.2.786-.039l.09-.129c.314,0,1.022-.14.938-.042l.573-.242.073.1c.4-.067,1.017-.211,1.6-.3a4.016,4.016,0,0,1,1.345-.045,36.131,36.131,0,0,1,7.624-.607,8.307,8.307,0,0,1,1.662-.093l.609.157a8.583,8.583,0,0,1,1.752-.045l-.065.031c.6-.011,1.151.109,1.713.045.649.067,1.269.194,1.059.3.042-.1.385-.065.716,0,.166.034.329.07.449.1s.2.065.2.065.514.081,1.427.23c.455.076,1.014.149,1.654.272l2.148.455a59.549,59.549,0,0,1,11.6,3.915A62.344,62.344,0,0,1,336.866,95.3c3.392,2.584,6.082,5.035,7.666,6.369.264.132.837.649.73.348.432.41.475.736.632.747-.494-.64.376,0-.059-.668l.365.357c.126.025-.534-.452-.345-.452l-.247.028a2.393,2.393,0,0,1-.427-.668,2.9,2.9,0,0,1-1.222-.988l.183.18c-.514-.548-.219-.427-.306-.562l.115.121-.376-.517c.3.376.952.854.66.556-.578-.691.132.2-.357-.27-.3-.286-.146-.278-.087-.309l-.539-.525c.084-.048.351.354.2.073l-.744-.6c.036-.292-.806-.649-.972-1.1.534.43.011-.1.14-.081l-1.255-1.112c-.1-.129.376.242.18.079-.191-.258-.424-.3-.548-.418-.065-.146-.932-.837-.806-.913-.817-.8-.5-.152-1.264-.887-.048-.163.668.514.365.14l-.876-.668a.957.957,0,0,1,.57.292c-2.241-1.963-3.311-3.286-5.7-4.676-.267-.309.272.087.545.177a17.508,17.508,0,0,1-1.991-1.286,11.324,11.324,0,0,0-1.792-1.2l-.07.067a21.409,21.409,0,0,0-3.384-1.853c-.618-.275-1.247-.553-1.873-.831-.64-.247-1.278-.5-1.9-.767l.278.174A12.653,12.653,0,0,1,321,83.282c-.051-.065.371-.09-.388-.289.143.081.446.213.34.225a32.93,32.93,0,0,0-4.69-1.581c-.48-.129-.972-.27-1.469-.39s-1.008-.216-1.514-.323l-1.5-.326c-.494-.087-.983-.171-1.452-.253a67.126,67.126,0,0,0-15.762-.52c.769-.087.461.174-.121.183-1.629-.225-2.732.382-4.378.393-2.884.632-5.546.963-8.079,2.1l-.084-.087a5.072,5.072,0,0,0-.89.348v-.031c-.986.281-2.089.851-2.654,1.014l.011.129c-.559.23-.328.025-.873.337l-.008-.065-.618.4c-.011-.112-.4.053-.857.261a9.673,9.673,0,0,1-1.182.55c-.7.359-1.966,1.137-3.027,1.668a17.084,17.084,0,0,0-2.328,1.177l-1.247.806c-.444.3-.893.637-1.368.972-.938.682-1.954,1.359-2.878,2.042l.118.084-.458.388c-.011-.031-.084.008-.022-.062-.458.171-1.039.915-1.474,1.146.315-.1.337-.253.6-.466.421-.261.143.143-.413.511l-.008-.031-.3.345c-.11-.051-.461.171-.573.121a13.712,13.712,0,0,0-1.028.927c-.3.317-.587.623-.876.927-.576.609-1.163,1.219-1.918,1.9.036-.11-.239.132-.463.388s-.455.475-.393.25c-.764.963.258-.031-.006.486-.23.25-.427.556-.528.548.07-.154-.281.118-.109-.1L255.6,100c-.065.048.034-.107.084-.183a21.964,21.964,0,0,1-1.533,1.7,15.85,15.85,0,0,0-1.334,1.7c-.008.135.382-.455.376-.32-.8,1.281-.927.963-1.7,2.14l.093-.292a4.654,4.654,0,0,1-.727,1.2c-.177.037.267-.584.421-.918-.289.424-.983,1.522-.671,1.258a4.47,4.47,0,0,1-.736.915c.02.025.388-.432.236-.1a19.908,19.908,0,0,0-1.741,2.62c-.022-.022-.1.014-.067-.07-.306.8-.505.584-1.031,1.587" transform="translate(-240.217 -79.562)" fill="#2c2e50"></path><path id="Path_93667" data-name="Path 93667" d="M294,169.315a53.685,53.685,0,0,0-.309,9.126c.146.593.182,1.463.315,2.331l-.135.107.121.725c-.011.3-.084-.556-.084-.025l.118.264c-.059.065.242,1.865-.048.666.135.941.275,1.881.474,2.811.121.621.185.337.295,1.025-.011.146-.084-.239-.121-.171a10.613,10.613,0,0,0,.618,2.151,11.208,11.208,0,0,1,.719,2.005l-.065-.152.222.564a2.383,2.383,0,0,0,.138.337c.062-.284-.2-.3-.292-.893.124.014.3.68.373.612a7.691,7.691,0,0,0,.4,1.042c.129.668.573,1.533.663,2.044.154.295.407.587.71,1.224.124.5-.135-.07.121.573l.112.07c.225.52.171.449.132.444.258.548.315.407.618,1.1l-.256-.345c.284.489.373.7.73,1.4-.048.006-.188-.275-.284-.486a2.344,2.344,0,0,0,.489.826c-.006-.073-.264-.548-.07-.354a5.768,5.768,0,0,1,.562.949l-.272-.331a6.836,6.836,0,0,1,.736,1.149l-.056-.02a18.315,18.315,0,0,1,1.2,1.873l-.107-.129c.2.284.382.4.483.556-.253-.427-.157-.329-.126-.4.281.6.691.733,1.253,1.637-.042.011-.233-.169-.368-.432a2.871,2.871,0,0,1-.845-.7c.258.315.55.694.449.64l.166.037.359.511c.118.042-.194-.472.174-.039.416.486.115.34.216.388.581.663.323.211.817.9a1.685,1.685,0,0,1-.214-.241,10.482,10.482,0,0,1,.966,1.368.552.552,0,0,1-.27-.216l.022-.006c-.514-.444.388.4.157.326.025-.081.576.573.82.871l-.02-.146c1.036.789-.182.073.71.977.6.539-.2-.236.191.081a13.1,13.1,0,0,0,1.039,1.146c.126.188.435.52.4.615a16.563,16.563,0,0,0,1.317,1.157c-.553-.623-.674-.494-1.3-1.244l.261.121c.5.449,1.132,1.022,1.477,1.337-.059-.073-.076-.118-.02-.1.755.587,1.014.7,1.716,1.306.042.143-.373-.2-.677-.458a8.722,8.722,0,0,0,1.2.991c-.006.087-.494-.382-.626-.39l.834.6-.008.011c.2-.014.609.5,1.151.82a9.714,9.714,0,0,0,2.255,1.194c.171.143.211.2.115.18-.281-.236-.25-.166-.373-.208.432.253.873.677.609.573.7.388-.211-.205.225.017.312.188.612.393.932.57-.081-.118-.41-.314.107-.081.427.213.621.334,1.165.638-.093-.017.126.177-.281-.051a3.446,3.446,0,0,0,.851.43c-.581-.359,1.025.449.615.132l.584.348a3.6,3.6,0,0,1-.373-.152c.132.169.511.219.73.315.205.126.767.4.8.441a2.951,2.951,0,0,1,.755.371c.3.11.048-.048.146-.039.334.143.663.3,1,.43.034.07.067.236-.1.2.4.1.194-.093.778.129-.371-.031.744.359.216.292a8.348,8.348,0,0,0,1.82.68c.357.028-.567-.227-.505-.295,1.516.444,1.663.284,2.769.609l-.284-.1a6.623,6.623,0,0,0,1.048.168c-.11.022.07.143.424.292a9.071,9.071,0,0,0,1.469.4c.107-.031-.626-.236-.421-.275l.769.149c.053.02-.034.02-.135.011a6.3,6.3,0,0,0,1.483.289l.682.264-.27-.11c.1-.037.885.084,1.05.081a5.739,5.739,0,0,1,1.522.23c-.135-.059-.469-.194.16-.138-.025.183,1.317.177,1.292.256.256.014.708.1.741.031l-.048.1c.034-.07.284-.087.615-.084s.741-.008,1.1-.014c-.166.194.783,0,1.1.183.135-.126,1.269-.087,1.393-.2a.832.832,0,0,1,.643.14l.253-.056c.281.048,1.314-.028,1.932-.034.185-.056.373-.1.559-.169l.216.025c.087-.042.556-.118.261-.126l.306-.034c.008-.129.427-.09,1.033-.225.143,0,.112.037-.02.07.306-.039.185.045.36.062-.219.006,1.056-.421.23-.331-.065-.042.4-.163.7-.194l.2.081.334-.182c.461-.1.677-.059,1.05-.135-.379.093-.809.41.183.183-.517.14-.764.244-1.033.314.208-.034.315-.039,0,.065.778-.18.25-.1,1.017-.292-.02.11.2.093.882-.028l-.52.042.09-.048c-.194.034-.25.031-.3,0a6.211,6.211,0,0,1,1-.3c-.8.031,1.309-.444.795-.424a1.979,1.979,0,0,1,.671-.174c-.609.253.505-.022.424.076.227-.1-.517.067-.211-.059a5.047,5.047,0,0,1,.887-.16l-.152.062c.2-.042.4-.076.593-.132.079-.079-.581.1-.062-.1a5.56,5.56,0,0,1,.663-.185c-.23.152-.017.18-.463.348.373-.135,1.561-.548,1.047-.477l.447-.149c-.295.053-1.1.244-.213-.07v.022c.2-.1.4-.185.593-.286l.284-.056c-.017-.022.07-.081.295-.169.07.006.286-.067.286-.022.654-.264.581-.292.654-.354.362-.152.508-.185.362-.062.505-.188,1.351-.607,1.71-.7.638-.343-.143.042.211-.2a5.322,5.322,0,0,0,1.452-.612c.59-.312,1.23-.674,1.724-.991-.354.025.27-.177.385-.41-.194.171,1.028-.458.16.1l.536-.331c.416-.143-.868.581-.244.354.615-.354.913-.753,1.637-1.16-.171.247.517-.382.41-.166a3.92,3.92,0,0,1-.517.382l.135-.062c1.317-.823.3-.354.938-.862.758-.562.651-.365.727-.354a5.087,5.087,0,0,0,.691-.534c-.427.393-.9.57-.727.357a4.965,4.965,0,0,0,1.311-1.005c-1.165.682-.758.542-1.859,1.165-.118.135-.022.219-.685.593.365-.306-.062-.034-.185.022.157-.025-.424.309-.6.458-.205.07.295-.373-.357.02l-.039.208c-.264.143.05-.16-.469.211.25-.247-.149-.048.559-.536a12.64,12.64,0,0,0-1.969,1.331c.067-.051.065-.073.129-.121a4.733,4.733,0,0,1-.6.4c-.475.23.328-.27.188-.239-.242.149-.491.284-.744.413h-.025a1.379,1.379,0,0,1-.461.233c.2-.16.267-.25.4-.365l-.744.505c.062-.09-.694.261-.146-.065-.387.2-.769.427-1.171.607l-.146-.048c-.278.146-.278.168.07.025-.418.163-1.747.994-1.612.708-.93.461-1.283.581-2.44,1.064.879-.4-1.087.239-.135-.129a6.891,6.891,0,0,0-1.1.461c-.432.1-.275-.062.163-.25l-.514.225,0-.022c-.149.067-.295.146-.444.208-.511.087-.135-.07-.651.062l-.084.121-.362.048c.143,0-.155.107-.525.219l0-.022-.447.146c.435-.174-.418.09-.23-.034-.39.087-.4.09-1.1.267l.138.034c-.91.267-.059-.081-.806.084l.062.059c-1.1.1-1.825.41-2.64.472.458-.087.329-.157.323-.132-.688.135-1.823.253-2.533.424a2.617,2.617,0,0,0-1.084-.1,2.117,2.117,0,0,0-.789.14,10.973,10.973,0,0,1-1.533,0c-.121.065-.469,0-.758.062l-.062-.031.045.07c-.927-.171-1.573.073-2.5-.1l.163-.008-.4,0c-.062-.037.1-.045.121-.084l-1.823-.135.354.079a4.88,4.88,0,0,1-1.084-.07c.739-.023-.6-.073-.71-.171l.393.017c-.534-.056-.534-.056-.5.022-.694-.059-.458-.177-1.1-.208.152.025.3.056.449.076.129.062-.205.076-.508.02-.07-.022-.278-.09-.048-.062-.545-.062-1.351-.233-1.6-.244-.286-.076-.182-.11-.02-.1-1.157-.18-.514-.124-1.674-.306l.028-.036-.4-.037c-.182-.065-.357-.152-.536-.225l.185.1c-.373-.093-.612-.126-1.042-.264l.191-.011c-1.059-.239-1.182-.424-2.188-.657-.065-.031.1,0,.177.014-.935-.208-.66-.3-1.595-.525.062,0-.028-.059.014-.062l-.424-.115.059-.065-.376-.011-.222-.174-.174-.023c-.382-.295-1.025-.463-1.564-.817l.059.138c-1.581-.418-3.274-1.671-5-2.547l.07-.053-.733-.337c-.331-.281.256.076.163-.031-.753-.41-.368-.084-1.23-.587-.39-.334.18.051.4.143-.416-.216-.89-.542-1.351-.837a10.241,10.241,0,0,1-1.126-.806l-.034.011c-.514-.354-1.16-.865-1.69-1.3.039-.02.168.09.309.188a5.321,5.321,0,0,0-.615-.5l.241.112a10.912,10.912,0,0,1-1.244-1.092c.031.062-.042.1-.368-.213-.1-.264-.941-.806-1.429-1.351.084.039.48.4.371.295a7.4,7.4,0,0,0-.769-.666l.1.034L307.41,206.6c-.081-.267-1.076-1.191-.932-1.163-.4-.461.295.418-.225-.149-.1-.188-.477-.505-.393-.534l.062.056c-.118-.135-.227-.275-.34-.413l.272.213c-.3-.351-.573-.564-.635-.545a11.918,11.918,0,0,1-.716-1.036l.115.115a10.222,10.222,0,0,1-.873-1.34,8.376,8.376,0,0,0-.786-1.154c-.031-.067-.008-.07.073.056l-.4-.637.149.118c-.247-.334-.511-.663-.75-1.005l.042-.008c-.4-.725-1.078-1.823-1.556-2.775l.09.132a17.581,17.581,0,0,1-.868-1.766l.053.073-.317-.694.107.138a6.365,6.365,0,0,1-.463-1.179,7.4,7.4,0,0,0-.486-.845c-.309-.772-.034-.205-.177-.7-.194-.57-.295-.646-.528-1.429l.045,0c-.138-.357-.228-.576-.385-1.084l.065.146a13.673,13.673,0,0,0-.542-1.679c-.053-.362-.244-1.028-.154-1.014-.163-.517-.281-.983-.385-1.452s-.225-.932-.326-1.46c.11-.191-.042-.227-.062-.882l-.065.059c-.258-1.5-.216-3.257-.329-4.92l.07-.051c-.037-.11-.062-.222-.09-.331-.025-1.8.1-4.122.236-5.549a11.544,11.544,0,0,1,.121-1.926v.079a26.906,26.906,0,0,1,.694-4.032c.011.093.062-.039.048.121a3.944,3.944,0,0,1,.258-1.1l-.143.331a3.569,3.569,0,0,1,.351-1.134l.087-.637.059-.1,0-.118.194-.295a9.393,9.393,0,0,0,.25-1.25c.045-.051.258-.607.129-.163.27-.727.539-1.457.826-2.176-.059.107-.112.216-.163.326-.093.014.132-.651.3-.974-.129.461.081.076.208-.09.084-.306-.166.23-.138.059a7.34,7.34,0,0,1,.534-1.354l-.076.227c.208-.5.427-.674.649-1.157.149-.458.351-.753.2-.719.3-.623.2-.2.317-.39a5.147,5.147,0,0,1,.7-1.23c.025-.421,1-1.57.938-1.772.118-.149.25-.289.376-.432-.025-.036-.042-.18.2-.576.275-.34.278-.213.385-.3l.034-.329a47.577,47.577,0,0,1,5.588-6.434,31.781,31.781,0,0,1,3.058-2.856l-.109.118c.371-.292.736-.593,1.129-.857-.292.183-.576.379-.848.587a5.741,5.741,0,0,1,.635-.57c1.275-.9,3-2.058,4.611-3.092.986-.775.769-.314,1.758-.977-.081.062-.1.1-.177.16,1.1-.643,1.693-1.014,2.828-1.626-.062.222.758-.354.691-.222l.067-.11c.272-.093.91-.306.837-.23l.491-.292.073.051a11.61,11.61,0,0,1,2.617-.848,32.169,32.169,0,0,1,6.888-1.707,8.341,8.341,0,0,1,1.516-.278l.573.017a7.18,7.18,0,0,1,1.6-.225l-.056.028c.548-.051,1.07-.062,1.581-.152.6-.008,1.188.025,1.005.11.028-.073.348-.076.657-.059a5.11,5.11,0,0,1,.615.065s.483.02,1.339.05c.43.006.952.045,1.553.1s1.286.093,2.03.208a46.336,46.336,0,0,1,11.033,2.78,43.3,43.3,0,0,1,5.914,2.786,44.831,44.831,0,0,1,5.243,3.426,61.36,61.36,0,0,1,6.821,6.158c.213.154.691.68.587.416.362.413.419.685.542.725-.427-.612.292.07-.093-.556l.306.357c.1.045-.444-.466-.3-.432l-.188-.022a2.884,2.884,0,0,1-.376-.623,4.411,4.411,0,0,1-1.034-1.008l.163.171c-.463-.514-.219-.373-.3-.5l.1.115-.34-.483c.261.362.831.84.57.556-.525-.646.118.183-.306-.272-.261-.284-.138-.25-.1-.264l-.466-.517c.062-.025.3.345.163.093-.213-.2-.416-.413-.64-.6,0-.225-.727-.623-.9-1.014.472.421,0-.079.1-.042-.359-.371-.739-.722-1.129-1.061-.093-.115.337.239.154.087a2.61,2.61,0,0,0-.5-.4c-.073-.121-.857-.781-.764-.82-.775-.716-.43-.177-1.154-.842-.062-.132.615.48.317.154l-.806-.623a1.172,1.172,0,0,1,.506.295c-.514-.463-1-.834-1.432-1.2s-.828-.725-1.247-1.033-.823-.626-1.266-.941a17.083,17.083,0,0,0-1.505-.887c-.272-.244.247.084.494.171-.413-.211-.753-.4-1.053-.59s-.578-.337-.84-.5a12.162,12.162,0,0,0-1.73-.98l-.053.045a34.93,34.93,0,0,0-6.8-2.7l.272.121c-.345-.034-.879-.177-1.278-.261-.053-.045.317-.051-.385-.216.14.056.427.163.331.169a32.034,32.034,0,0,0-4.431-1.064c-.9-.163-1.856-.27-2.8-.4-.946-.073-1.881-.194-2.76-.23a47.634,47.634,0,0,0-14.445,1.589c.685-.2.432.031-.093.143-1.494.129-2.421.781-3.892,1.109a37.341,37.341,0,0,0-6.928,3.319l-.079-.039a6.286,6.286,0,0,0-.741.472l0-.022c-.834.438-1.73,1.146-2.2,1.418l.017.087a6.33,6.33,0,0,0-.725.466l-.011-.042c-.171.143-.329.306-.491.458-.034-.154-1.264.935-1.66,1.151-.531.491-1.561,1.39-2.381,2.112a17.175,17.175,0,0,0-1.811,1.581,57.135,57.135,0,0,0-4.035,4.67l.1.025-.32.452c-.011-.02-.065.034-.022-.039a17.133,17.133,0,0,0-1.031,1.382c.222-.188.23-.312.416-.567.306-.34.118.059-.27.534l-.011-.022-.188.376c-.087,0-.323.3-.41.3-.244.385-.472.739-.674,1.087s-.376.694-.559,1.033c-.382.674-.719,1.376-1.171,2.2.008-.1-.146.2-.295.475s-.27.542-.253.343c-.435,1.045.182-.118.053.39a2.778,2.778,0,0,1-.315.629c.031-.149-.188.2-.09-.042l-.309.688c-.039.062.008-.1.036-.177-.267.722-.545,1.342-.823,1.946a16.929,16.929,0,0,0-.691,1.867c.014.112.2-.508.213-.4-.379,1.334-.472,1.134-.8,2.387l.014-.275a6.361,6.361,0,0,1-.306,1.252c-.107.1.073-.587.143-.91-.146.449-.416,1.618-.253,1.283a5.672,5.672,0,0,1-.343,1.025c.017.014.188-.5.14-.169-.216.739-.486,1.9-.649,2.825-.02-.011-.062.048-.056-.036a16.277,16.277,0,0,1-.343,1.688" transform="translate(-278.632 -115.306)" fill="#2c2e50"></path><path id="Path_93668" data-name="Path 93668" d="M281.893,313.014c.677.806,1.609,1.792,2.266,2.595a2.675,2.675,0,0,1,.694.57l-.084.124.219.174c.042.112-.16-.14-.07.045l.138.017c-.025.051.446.553.062.278.239.267.472.536.73.789.163.174.185.014.343.227.006.067-.087-.048-.109.006.474.64.84.455,1.3,1.022l-.056-.031c.115.062.275.236.295.222.034-.168-.149-.037-.244-.258.1-.073.241.152.3.073.09.152.216.169.329.264.132.23.438.438.511.637a1.338,1.338,0,0,1,.5.242c.076.2-.1.037.073.242l.079-.025c.149.154.112.146.084.166.166.157.205.059.388.284l-.166-.056a5.018,5.018,0,0,1,.458.382c-.031.028-.121-.051-.18-.118.053.182.242.143.3.208,0-.039-.146-.183-.022-.171.1.1.3.126.326.258l-.169-.05c.27.154.183.037.432.284l-.036.017c.23.073.4.323.643.542l-.059-.025c.118.067.214.065.264.112-.118-.152-.065-.135-.034-.2.115.25.371.141.649.435-.031.028-.138.008-.2-.093-.185.011-.264.084-.489-.034.135.079.286.177.225.194l.11-.059c.076.053.129.1.185.146.076-.034-.076-.2.124-.112.216.118.031.169.093.152.292.166.185-.011.416.211l-.109-.059c.154.174.461.326.432.475-.045,0-.076.031-.138-.031l.014-.014c-.261-.076.185.107.048.157.031-.07.278.141.385.239l.014-.1c.534.093-.118.118.284.382.275.141-.079-.09.107-.022a1.731,1.731,0,0,0,.449.376c.051.076.166.208.124.292.174.073.438.351.576.334-.213-.242-.315-.1-.548-.4l.138-.017a7.116,7.116,0,0,1,.626.419l.011-.067a3.785,3.785,0,0,1,.727.379c-.008.1-.169-.034-.3-.11.152.18.188.143.472.354-.025.073-.2-.129-.27-.1.11.07.227.129.34.191l-.008.011c.112-.073.247.163.469.258a2.029,2.029,0,0,0,.955.281c.053.073.059.112.014.118-.09-.118-.09-.07-.149-.067.168.09.292.32.177.306.275.126-.059-.112.118-.048l.348.225c-.011-.079-.126-.168.079-.1a4.635,4.635,0,0,1,.441.241c-.045.011.02.118-.135.031a.516.516,0,0,0,.334.143c-.2-.174.4.154.275-.02l.2.171c-.05-.028-.076,0-.146-.048.02.118.2.079.281.112.07.059.272.18.272.222.084.017.25.129.258.191.115.042.036-.051.081-.059l.357.2c-.006.056-.039.2-.1.191.163.028.121-.112.331-.006-.168.031.247.205.014.227a1.67,1.67,0,0,0,.643.359c.154-.014-.188-.14-.138-.208.55.233.682.042,1.059.27l-.093-.07a1.077,1.077,0,0,0,.4.079c-.112.059.163.39.587.536.056-.034-.191-.188-.09-.233l.281.1-.062.017c.258.07.4.314.522.236l.191.244-.073-.1c.053-.031.334.07.4.076a.857.857,0,0,1,.517.275c-.034-.059-.118-.2.107-.121-.065.16.444.241.407.317.093.031.236.138.27.079l-.051.09c.073-.126.4,0,.663.07-.124.163.284.087.334.3.093-.107.466.124.548.031.2.065.138.177.171.236l.107-.017a3.2,3.2,0,0,0,.668.3l.244-.053.062.067c.042-.02.222.011.126-.056l.112.036c.045-.11.169.011.407.025.048.031.025.053-.028.056.112.031.048.073.1.126-.07-.05.463-.081.174-.213-.008-.051.177-.031.281.02l.039.112.16-.059c.177.034.23.121.371.16-.146-.031-.371.1.006.177a2.585,2.585,0,0,0-.418-.014c.076.023.112.042-.02.051.3.042.112-.025.407.025-.039.076.036.115.286.191l-.177-.093.042-.014c-.07-.022-.087-.039-.093-.073.059.011.365-.025.4.031-.258-.18.534.022.365-.084l.253.07c-.256,0,.16.121.109.157.1,0-.177-.093-.048-.09a1.069,1.069,0,0,1,.315.129h-.065l.216.076c.045-.022-.2-.1.008-.073l.247.076c-.109.022-.051.093-.23.07.146.025.612.11.441.017l.174.037c-.1-.045-.4-.157-.048-.09l-.006.011.253.008.1.048c0-.014.042-.02.132,0l.093.062c.261.042.247.011.284,0,.146.022.2.042.124.059.2.039.55.093.682.138.272.025-.053-.02.109-.02a6.338,6.338,0,0,0,1.32.23c-.112-.056.121.008.208-.017-.1,0,.413.081.025.045l.236.025c.157.036-.393-.028-.154.025.267.022.444.011.753.056-.107.006.242.022.16.031-.065,0-.152-.011-.239-.02l.053.008a2.6,2.6,0,0,0,.475.022c.351.042.275.039.295.045.067.006.222.022.326.031-.216-.017-.4-.045-.3-.039.154.025.522.059.618.073-.5-.067-.348-.039-.817-.115a1.98,1.98,0,0,1-.337-.034c.18.017-.011-.008-.059-.02a2.354,2.354,0,0,1-.284-.031c-.076-.02.174,0-.112-.048l-.059.02c-.112-.02.051-.014-.188-.042.132,0-.034-.034.286.014a4.9,4.9,0,0,0-.89-.11h.065c-.065,0-.183-.017-.27-.028-.194-.048.16.006.109-.017-.107-.014-.211-.039-.317-.059l-.008-.006a.7.7,0,0,1-.191-.039c.1,0,.138-.006.2-.006l-.337-.037c.039-.008-.267-.09-.028-.051l-.489-.1-.034-.051c-.118-.02-.124-.011.014.025-.163-.051-.758-.084-.649-.157-.39-.051-.528-.087-1-.174.365.042-.388-.18-.008-.1-.211-.087-.272-.036-.447-.073-.154-.07-.067-.115.112-.087l-.211-.031.006-.011-.185-.014c-.18-.09-.022-.079-.213-.143l-.059.048-.121-.073c.042.042-.076.022-.219-.014l.006-.014-.174-.036c.18.008-.152-.059-.062-.084-.146-.045-.149-.045-.416-.112l.034.059c-.357-.059.006-.073-.272-.16l0,.059c-.371-.225-.688-.171-.963-.331.171.042.152-.042.143-.025a5.219,5.219,0,0,0-.949-.233c-.065-.129-.076-.166-.329-.3-.194-.062-.227-.062-.309-.025-.171-.11-.542-.177-.528-.253-.065.042-.163-.07-.284-.059l-.011-.036-.008.076c-.278-.27-.593-.115-.876-.371l.065,0-.152-.025.073-.073-.646-.25.11.1a.917.917,0,0,1-.393-.124c.295.008-.211-.093-.222-.188l.146.031c-.188-.073-.188-.073-.2,0-.253-.079-.115-.2-.368-.222l.157.07c.031.059-.107.065-.214.02-.022-.023-.084-.084,0-.056-.2-.056-.474-.211-.57-.219-.1-.065-.039-.1.022-.093-.435-.115-.18-.09-.615-.205l.022-.034-.16-.014-.16-.174.048.081a1.7,1.7,0,0,1-.371-.166l.087-.025c-.385-.149-.385-.3-.772-.39l.076-.008c-.368-.07-.2-.216-.579-.27l.025-.059-.166-.036.048-.067-.177.051-.053-.121-.076.008c-.087-.216-.357-.236-.514-.455l-.011.112c-.635-.107-1.171-.764-1.853-1.047l.053-.065-.309-.076c-.107-.14.121-.008.1-.073-.3-.132-.177.034-.511-.143-.135-.149.09-.017.183.006a4.909,4.909,0,0,1-.98-.556l-.022.022a4.2,4.2,0,0,1-.682-.432c.025-.028.081,0,.14.034-.076-.056-.166-.152-.253-.163l.121,0c-.157-.124-.508-.289-.5-.382,0,.039-.042.084-.183-.014-.006-.157-.418-.222-.607-.435l.168.07a.722.722,0,0,0-.354-.166l.059-.02c-.191-.1-.382-.2-.564-.32,0-.16-.494-.354-.4-.4-.18-.143.121.163-.121,0-.031-.09-.225-.14-.166-.2l.031.011-.166-.118.152.014c-.149-.093-.3-.107-.345-.062-.1-.138-.315-.25-.329-.354l.062.022c-.4-.253-.466-.649-.831-.781l.045,0-.216-.188.093,0-.424-.233.031-.028c-.227-.216-.618-.514-.935-.767l.059.025c-.368-.25-.286-.317-.553-.5l.036.011-.213-.2.073.014c-.216-.082-.371-.5-.326-.357-.115-.053-.3-.163-.362-.149-.236-.213-.02-.093-.14-.25-.163-.16-.247-.132-.441-.376l.034-.025c-.107-.1-.191-.143-.337-.284l.056.028c-.292-.174-.2-.379-.511-.438-.073-.124-.275-.292-.208-.34-.323-.258-.57-.463-.873-.741.056-.14-.065-.059-.174-.3l-.042.062c-.393-.427-.7-1.039-1.146-1.494l.042-.062-.146-.042c-.416-.548-.946-1.255-1.295-1.676a2.186,2.186,0,0,1-.539-.511l.025.017a9.56,9.56,0,0,1-.949-1.23c.045.008.031-.048.081-.011-.14-.056-.191-.25-.258-.345l.036.141a.545.545,0,0,1-.227-.39l-.208-.149v-.053l-.056-.014.008-.163c-.048-.039-.244-.292-.376-.323.014-.037-.09-.239.02-.1l-.463-.753.048.132c-.051.053-.236-.143-.284-.275.149.118.1-.042.1-.138-.1-.079,0,.121-.065.09a1.38,1.38,0,0,1-.34-.438l.076.059c-.138-.154-.079-.306-.185-.475-.14-.126-.163-.27-.25-.171-.154-.214.023-.132-.011-.211a.78.78,0,0,1-.236-.483c-.23-.031-.3-.64-.461-.612l-.034-.227c-.039.014-.143.022-.244-.121-.039-.166.045-.168.059-.23l-.185-.025c-.281-.924-.986-1.969-1.261-2.982a11.508,11.508,0,0,1-.713-1.418l.039.048-.154-.517.076.39a1.881,1.881,0,0,1-.157-.284,11.648,11.648,0,0,0-.682-1.991c-.312-.39.051-.348-.208-.733l.081.065a11.935,11.935,0,0,0-.564-1.118c.185,0-.1-.3,0-.284l-.079-.02c.014-.115-.036-.368.022-.345l-.141-.182.065-.036c-.067-.275-.284-.851-.18-1.031a12.261,12.261,0,0,1-.643-2.617,1.627,1.627,0,0,1-.185-.559l.051-.227c-.059-.2-.2-.393-.177-.593l.025.02a1.96,1.96,0,0,0-.146-.587c-.031-.227-.023-.452.067-.4-.146,0-.056-.48-.056-.48s-.067-.73-.171-1.87c-.065-.567-.093-1.244-.129-1.98a15.337,15.337,0,0,0-.2-2.356,75.537,75.537,0,0,1-.739-8.5,2.52,2.52,0,0,0-.008-.267c.006-.188.006-.216.008-.348-.008.286,0-.09-.011.191l.011-.18c-.005.073-.005.07-.011.2v.051c-.008.121-.014.191-.02.275-.006.138.008.225-.014.55l0-.09c-.011.264-.02.16-.025.216l0-.059-.023.222c.017-.168.02-.449.011-.3-.028.314.008-.081,0,.154-.008.146-.017.1-.022.1l-.02.264c-.011-.011.014-.174-.006-.067l-.014.331c-.039.059-.008.362-.059.511.011-.239-.017.02-.025-.02-.02.194-.034.39-.042.584-.011.056-.006-.154-.008-.067a1.164,1.164,0,0,0,0,.242l-.065.418c-.056.4.042.171-.006.539-.031.048.011-.295-.028-.132l-.017.385a.37.37,0,0,1-.025-.222,23.49,23.49,0,0,0-.371,2.55c-.062.135-.028-.1-.056-.194a10.581,10.581,0,0,1-.241,1.567l.05.011a17.216,17.216,0,0,0-.233,2.766l.036-.115a2.955,2.955,0,0,1,.138.483c-.028.025-.146-.1-.093.166.017-.056.028-.174.065-.14a15.217,15.217,0,0,0,0,1.724c.048.691.132,1.443.166,2.109.115.89.284,1.811.4,2.738.143.921.34,1.834.536,2.7-.062-.261.112-.185.118.022-.112.6.289.918.264,1.514a15.294,15.294,0,0,0,.9,2.769l-.065.042c.014.146.073.168.126.309l-.02,0c.076.351.317.722.351.927l.081-.017c.081.194-.02.124.1.309l-.042.008.163.208c-.143.028.2.559.2.741.115.25.376.7.522,1.087a4.038,4.038,0,0,0,.27.876c.14.284.295.635.483.991s.385.736.556,1.1l.076-.056.1.183-.039.014c-.02.194.25.416.27.6.025-.135-.056-.138-.109-.244-.039-.174.115-.07.18.157l-.02.006.115.118c-.056.051-.02.194-.076.247.362.59.71.932,1.039,1.561-.107-.02.275.43.084.382.261.34.062-.121.247-.006.059.1.154.191.121.239-.059-.031-.022.129-.084.053l.166.233-.07-.034c.39.441.491.91.848,1.3.065,0-.1-.18-.039-.177.376.379.18.438.511.806l-.115-.045a.791.791,0,0,1,.323.368c-.039.084-.191-.135-.289-.219.1.152.388.5.365.345a.861.861,0,0,1,.185.368c.02-.008-.073-.194.031-.115a9.715,9.715,0,0,0,.609.913l-.056.031c.281.166.115.253.368.556" transform="translate(-262.996 -219.463)" fill="#2c2e50"></path><path id="Path_93669" data-name="Path 93669" d="M472,168.018c-.247-.118-.534-.258-.82-.4-.292-.121-.587-.236-.831-.362a1.1,1.1,0,0,1-.463-.107l.025-.1-.146-.031c-.042-.053.109.028.031-.051l-.076.034c.006-.039-.328-.177-.079-.143l-.514-.236c-.112-.053-.1.048-.216-.031l.056-.036c-.351-.239-.522.011-.862-.169h.037c-.07,0-.188-.042-.194-.031.011.112.084-.028.174.067-.039.076-.154-.006-.171.056-.073-.059-.14-.031-.216-.053-.107-.1-.3-.126-.371-.225a.593.593,0,0,1-.3.014c-.073-.1.042-.053-.076-.124l-.036.039c-.1-.045-.081-.053-.07-.073-.112-.042-.115.031-.247-.051l.1-.017a1.223,1.223,0,0,1-.295-.1l.109.02c-.056-.1-.146-.02-.185-.042.006.025.1.073.039.1-.067-.036-.174.011-.211-.059l.1-.022c-.166-.006-.1.036-.272-.031l.017-.022c-.132.031-.261-.067-.424-.118l.036,0c-.073,0-.121.031-.157.017.087.053.056.062.051.109-.1-.115-.216.039-.407-.065l.118,0c.093-.062.121-.129.258-.132-.081,0-.177-.017-.149-.045l-.045.07-.118-.037c-.034.042.073.1-.045.107s-.042-.1-.073-.067c-.177-.017-.093.062-.247-.008l.065.006c-.107-.062-.289-.065-.3-.166l.076-.022-.006.014c.146-.031-.112-.011-.051-.084-.006.051-.166-.006-.236-.034l.008.062c-.286.1.042-.109-.205-.154-.163-.006.053.031-.051.045-.1-.039-.129-.1-.286-.118-.036-.034-.118-.079-.112-.146-.1.006-.281-.087-.348-.034.149.084.177-.034.345.084l-.067.051a2.7,2.7,0,0,1-.388-.07l.006.045c-.191-.014-.258.039-.432-.017-.011-.062.093-.031.169-.02-.107-.07-.121-.028-.3-.081,0-.051.121.028.152-.017l-.2-.022,0-.011c-.045.079-.152-.036-.278-.036-.289-.059-.354.045-.525.081l-.025-.073c.065.051.056.02.087,0-.1-.011-.2-.126-.138-.149-.16-.006.048.056-.051.062l-.211-.048c.017.048.09.073-.025.084a1.919,1.919,0,0,1-.258-.048c.02-.017-.028-.073.062-.053a.2.2,0,0,0-.191,0c.126.056-.225.008-.135.09l-.126-.056.081-.008c-.028-.07-.112.006-.16.006l-.174-.067-.16-.051c-.065.006-.011.042-.031.062l-.213-.034.022-.152c-.084.022-.042.1-.166.084.079-.062-.154-.073-.042-.146a.667.667,0,0,0-.379-.079c-.076.048.115.048.1.1-.312-.02-.348.138-.573.081l.056.022a.439.439,0,0,0-.216.048c.045-.065-.14-.216-.376-.222-.023.034.124.079.081.132-.05,0-.1,0-.154,0l.028-.025c-.14.017-.25-.107-.3-.025l-.132-.112.053.048-.214.048a.341.341,0,0,1-.3-.053c.025.031.09.1-.036.107.008-.115-.258-.059-.253-.118l-.146.006.011-.073c-.017.1-.2.084-.343.1.039-.135-.154,0-.213-.126-.031.093-.253.022-.281.1-.11,0-.1-.087-.121-.118l-.051.031a1.339,1.339,0,0,0-.379-.09l-.115.084-.042-.036c-.02.022-.112.034-.056.065l-.062-.006c-.006.09-.087.025-.208.065l.006-.048c-.062,0-.034-.048-.067-.076.042.022-.222.163-.056.2.011.036-.084.065-.143.048l-.036-.079-.073.084c-.093.011-.135-.039-.208-.048.076-.006.171-.157-.028-.152a.767.767,0,0,0,.213-.073c-.042,0-.062-.011,0-.045-.157.025-.053.051-.208.062.008-.073-.037-.1-.171-.118l.1.053-.02.02.059.048-.205.048c.157.112-.272.09-.171.154l-.138-.011c.129-.056-.1-.081-.079-.132-.048.022.1.053.039.081a.335.335,0,0,1-.18-.062l.031-.014-.121-.031c-.02.037.118.059.008.079l-.138-.025c.051-.051.011-.115.1-.129-.079.006-.326.017-.225.081l-.093,0c.059.031.225.084.039.1v-.014l-.126.056-.059-.036-.065.034-.056-.056c-.14.014-.126.048-.143.07-.076.011-.107,0-.073-.048a1.413,1.413,0,0,1-.368-.014c-.14.042.031.014-.05.067-.129-.118-.475-.017-.7.014.07.107-.062.017-.1.121.048-.036-.228-.07-.025-.115l-.124.02c-.09-.056.2-.059.067-.132-.14.014-.222.14-.388.11.048-.081-.124.034-.09-.053l.124-.034-.031-.014c-.309,0-.081.1-.236.163-.185.022-.152-.051-.166-.087l-.171.028c.109-.056.213.034.166.087-.09-.084-.278.011-.323.051.272.076.185-.008.441.076.031-.031.02-.11.171-.087-.09.045.011.045.037.056l.146-.048c.045.034-.081.112.07.121l.02-.11c.062.011-.02.081.1.048-.065.062.028.087-.143.115.211.079.306-.07.463-.121l-.031.031.141-.042c.107.017-.079.053-.051.081l.169-.014.006.008.1-.006-.1.107.171-.087c-.017.036.149.051.025.087l.261-.034.025.07c.062-.017.062-.031-.011-.036.09.011.39-.154.348-.008a2.3,2.3,0,0,1,.525-.1c-.188.067.222.084.02.115.121.031.143-.048.236-.059.09.031.051.1-.042.129l.11-.034,0,.014.1-.042c.1.039.022.073.129.081l.023-.065.073.036c-.028-.028.034-.042.112-.048l0,.014.093-.014c-.093.039.084.014.042.059a1.189,1.189,0,0,0,.225-.011l-.025-.045c.188-.039.008.065.16.067l-.008-.051c.219.084.371-.051.534,0-.093.011-.07.07-.067.056a2.171,2.171,0,0,0,.511-.07c.051.073.065.1.211.126.107,0,.124-.006.16-.048.1.034.3,0,.3.056.025-.042.093.014.152-.02l.011.022-.005-.051c.18.124.315-.045.494.065l-.034.011.079-.014-.025.065.362.031-.07-.042c.076,0,.132-.048.216-.011-.152.067.121.011.14.07l-.079.014c.107,0,.107,0,.1-.051.14-.011.087.1.219.056l-.09-.008c-.025-.031.045-.067.1-.065l.008.036c.109-.014.272.022.32.006.056.02.034.053,0,.065.236-.028.1.008.34-.008l-.006.028.081-.025.107.076-.036-.042a.818.818,0,0,1,.213.017l-.039.039c.216,0,.239.1.449.067l-.036.022c.2-.042.132.093.331.036l0,.045.09-.017-.014.056.081-.076.045.065.037-.022c.079.121.219.056.331.152l-.011-.076c.337-.1.716.157,1.1.177l-.017.056.169-.036c.076.062-.059.039-.036.073.171,0,.084-.07.281-.048.093.059-.042.034-.093.045a2.065,2.065,0,0,1,.584.087l.008-.02a2.918,2.918,0,0,1,.416.079l-.076.023.154.025-.062.039c.1.031.306.025.317.087-.008-.025.006-.065.1-.045.028.1.25.011.382.087l-.1.008a.349.349,0,0,0,.208,0l-.028.028.337.042c.025.1.309.073.272.129.115.034-.087-.065.062-.034.031.045.138.02.118.073l-.017,0,.1.025-.079.037c.09.014.171-.022.185-.065.076.053.2.062.225.121l-.034.006c.242.042.345.256.556.216l-.022.017.143.042-.048.031.258,0-.011.028c.157.048.4.118.6.185l-.034,0c.23.036.2.1.368.129l-.02.006.143.051-.039.014c.126-.02.272.185.227.112.067,0,.183,0,.214-.025.157.053.025.048.112.107.112.042.149,0,.292.084l-.014.025c.073.02.124.017.225.051l-.034,0c.183,0,.169.152.343.081.059.048.194.076.166.129.208.053.368.107.57.174-.006.1.045.014.14.118l.011-.051c.278.121.539.376.848.494l-.014.051.084-.022c.317.163.722.379.963.531a.916.916,0,0,1,.365.126l-.017,0a3.6,3.6,0,0,1,.716.379l-.042.034c.087-.017.146.079.2.11l-.042-.067a.216.216,0,0,1,.185.146l.138.014.008.028.034-.011.025.09c.034,0,.188.07.267.042,0,.025.087.107.006.067l.371.275-.048-.059c.02-.048.152,0,.2.062-.1-.017-.045.056-.034.11.067.011-.02-.067.023-.073a.524.524,0,0,1,.253.138l-.051-.008c.1.045.09.146.18.2.1.02.138.09.171.006.124.062.011.079.042.11.076,0,.219.132.216.183.135-.065.278.244.365.171l.059.112a.128.128,0,0,1,.16-.02c.053.073.006.1.011.14l.112-.053c.323.4.873.75,1.238,1.163a5.912,5.912,0,0,1,.682.475l-.034-.008a2.234,2.234,0,0,1,.191.208,1.9,1.9,0,0,0-.118-.174.476.476,0,0,1,.146.09,3.969,3.969,0,0,0,.767.792c.264.081.042.191.275.289l-.062,0a4.718,4.718,0,0,0,.562.348c-.107.065.124.112.059.14l.051-.02c.02.062.109.16.067.171l.124.036-.031.042c.1.112.34.323.317.452a6.628,6.628,0,0,1,.966,1.031.752.752,0,0,1,.242.2l.028.124c.084.067.225.1.256.2h-.02c.076.079.112.183.219.227.07.1.115.211.048.216.087-.053.143.211.143.211s.222.312.57.8l.612.837c.208.326.435.677.668,1.039a30.793,30.793,0,0,0,2.536,3.614c.067.022.166.129.191.056.07.087.014.171.07.166-.042-.146.138-.017.121-.174l.056.076c.042,0-.1-.093-.028-.1l-.1.02a.2.2,0,0,1-.011-.154c-.067-.045-.2-.028-.233-.2l.028.039c-.07-.118.011-.1.011-.135l.014.028-.014-.124c.014.093.152.185.11.121-.056-.157,0,.048-.07-.056-.042-.065.014-.07.039-.079l-.07-.121c.039-.017.042.081.053.011l-.124-.132c.082-.081-.138-.14-.084-.258.084.1.028-.028.067-.028l-.154-.267.042.017c0-.065-.07-.07-.084-.1.014-.039-.112-.2-.045-.227-.059-.208-.124-.031-.18-.222.025-.045.084.129.081.031l-.112-.168a.11.11,0,0,1,.109.07c-.219-.5-.138-.9-.475-1.281.006-.087.056.025.115.048-.258-.27-.18-.491-.357-.75l-.039.02a8.57,8.57,0,0,0-.7-1.275l.006.067a.954.954,0,0,1-.194-.177c.011-.022.107,0,.014-.112l-.006.09a12.216,12.216,0,0,0-1.089-1.691c-.306-.357-.567-.775-.89-1.143s-.629-.747-.946-1.081c.1.1-.022.129-.076.034-.062-.34-.357-.354-.466-.66a6.907,6.907,0,0,0-1.118-1.036l.028-.042c-.039-.067-.079-.056-.138-.107l.011-.008c-.121-.143-.32-.258-.382-.351l-.045.037c-.084-.073-.011-.073-.115-.126l.022-.02-.132-.051c.076-.067-.219-.222-.253-.315a3.959,3.959,0,0,1-.517-.368c0-.065-.2-.23-.323-.359-.267-.2-.643-.48-.96-.758l-.034.056-.087-.065.02-.022c-.023-.112-.208-.143-.253-.23.011.079.056.053.1.093.051.081-.053.079-.129-.022l.011-.011-.09-.02,0-.154a8.69,8.69,0,0,1-.857-.489c.065-.025-.23-.138-.112-.177-.208-.1-.014.087-.138.087l-.11-.087.039-.059-.129-.079.045,0c-.284-.124-.413-.357-.671-.461l.048.09c-.264-.093-.169-.188-.419-.272l.073-.017a.3.3,0,0,1-.242-.093c.008-.062.126.017.2.025-.081-.048-.295-.152-.258-.07-.107-.039-.118-.1-.163-.146-.008.011.073.084,0,.076a3.505,3.505,0,0,0-.483-.312l.025-.036c-.169,0-.093-.11-.281-.2" transform="translate(-391.593 -140.454)" fill="#2c2e50"></path><path id="Path_93670" data-name="Path 93670" d="M490.66,166.786l.059-.006Z" transform="translate(-420.331 -142.288)" fill="#2c2e50"></path></g></g><path id="np_align_1989818_000000" d="M59.5,44.335H44.321V40.34h9.3V27.315h-9.3V22H42.2v5.314H32.9V40.34h9.3v3.995H27.02V56.256H42.2v5.323h2.12V56.256H59.5Z" transform="translate(965.046 915.867)" fill="#2c2e50"></path></g></svg> 