<?xml version="1.0" encoding="UTF-8"?> <svg xmlns="http://www.w3.org/2000/svg" width="199.106" height="228.3" viewBox="0 0 199.106 228.3"><g id="Group_12088" data-name="Group 12088" transform="translate(-554 -1183.867)"><g id="Group_11707" data-name="Group 11707" transform="translate(644.661 1252.152)"><path id="np_consumer-behaviour_6149115_FFFFFF" d="M42.492,71.619A11.764,11.764,0,1,1,30.715,59.852,11.782,11.782,0,0,1,42.492,71.619ZM4.965,32.573V14.762a4.406,4.406,0,0,1,4.4-4.394H36.545a4.4,4.4,0,0,1,4.394,4.394V32.573a4.395,4.395,0,0,1-4.394,4.394h-4.6A1.55,1.55,0,0,0,30.4,38.51v7.021a1.114,1.114,0,0,1-1.777.9L15.985,37.265a1.581,1.581,0,0,0-.913-.3h-5.7a4.406,4.406,0,0,1-4.4-4.394Zm9.77-7.817,4.756,4.756a1.541,1.541,0,0,0,2.178,0L31.184,20A1.545,1.545,0,1,0,29,17.818l-8.422,8.418-3.662-3.662a1.542,1.542,0,1,0-2.178,2.183Zm15.98,61.71a25.726,25.726,0,0,0-25.55,22.4l-.078.581H56.355l-.073-.581a25.731,25.731,0,0,0-25.565-22.4Z" transform="translate(-4.965 -10.367)" fill="#2c2e50"></path></g><g id="BK_New_Logo-01" data-name="BK New Logo-01" transform="translate(554 1183.867)"><path id="Path_93660" data-name="Path 93660" d="M422.968,512.342l-.048-.042Z" transform="translate(-326.549 -284.042)" fill="#2c2e50"></path><path id="Path_93661" data-name="Path 93661" d="M295.25,155.221l.269-.311c-.132.142-.211.237-.269.311" transform="translate(-266.221 -115.166)" fill="#2c2e50"></path><path id="Path_93662" data-name="Path 93662" d="M550.118,436.9l-.058.01Z" transform="translate(-386.626 -248.414)" fill="#2c2e50"></path><path id="Path_93663" data-name="Path 93663" d="M390.959,451.241c-.121-.037-.195-.047-.19-.005.163.037.206.032.19.005" transform="translate(-311.357 -255.174)" fill="#2c2e50"></path><path id="Path_93664" data-name="Path 93664" d="M395.2,476.458l.047-.058Z" transform="translate(-313.45 -267.078)" fill="#2c2e50"></path><path id="Path_93665" data-name="Path 93665" d="M374.67,466.97l.137.032Z" transform="translate(-303.749 -262.622)" fill="#2c2e50"></path><g id="Group_11729" data-name="Group 11729" transform="translate(0 0)"><path id="Path_93666" data-name="Path 93666" d="M253.463,139.06a93.4,93.4,0,0,0-3.982,8.45c-.316.749-.686,1.472-.96,2.231s-.554,1.5-.823,2.237c-.549,1.466-1.087,2.88-1.614,4.183-.2,1.224-.617,2.954-1.1,4.679l-.448.058-.306,1.466c-.3.549.258-1.118-.2-.137l.079.612c-.174.069-1.2,3.645-.765,1.166a26.865,26.865,0,0,0-.723,2.817l-.638,2.838c-.29,1.25.169.807-.237,2.168-.179.258.032-.512-.137-.433a11.854,11.854,0,0,0-.559,4.531,16.881,16.881,0,0,1-.285,4.336l-.005-.338c.011.68-.19,1.946-.127,1.967.475-.459-.121-.728.3-1.894.332.148-.032,1.509.243,1.461a8.566,8.566,0,0,0-.1,2.268c-.316,1.345-.3,3.323-.649,4.336a17.317,17.317,0,0,1,.311,2.875c-.269,1.023-.258-.253-.359,1.155l.206.232c-.026,1.15-.084.971-.179.928a16.332,16.332,0,0,1,.158,2.574l-.2-.86c.079,1.145.047,1.614.037,3.207-.116-.032-.111-.67-.079-1.145a3.948,3.948,0,0,0,.127,1.952c.053-.137.111-1.245.306-.712-.037.791.39,1.662.179,2.236l-.264-.849a10.543,10.543,0,0,1,.4,2.753c-.021-.1-.069-.047-.116-.084a24.324,24.324,0,0,1,.364,4.515l-.079-.327c.111.707.369,1.071.411,1.451-.042-1.008.058-.744.243-.855-.127,1.356.7,1.952.833,4.114-.121-.016-.338-.512-.311-1.118a4.721,4.721,0,0,1-1.118-2.025c.206.807.406,1.762.227,1.577l.353.211c.074.5.132.886.185,1.255.232.179.169-1.044.48.074.3,1.266-.216.733-.042.913.4,1.746.454.675.617,2.395a2.668,2.668,0,0,1-.153-.638c.032,1.25.591,2.97.3,3.4a.913.913,0,0,1-.311-.638l.063.005c-.559-1.276.316,1.1-.111.749.179-.137.506,1.577.638,2.353l.174-.3c1.292,2.374-.5-.026.227,2.458.564,1.551-.095-.617.322.316a14.679,14.679,0,0,0,.686,3.075c.042.459.19,1.377-.042,1.53a18.547,18.547,0,0,1,.575,1.857,4.966,4.966,0,0,0,.649,1.5c-.348-1.662-.807-1.514-1.055-3.508l.406.454c.359,1.319,1.071,2.922,1.287,3.845-.016-.2.021-.3.111-.2.712,1.809,1.155,2.242,1.778,4.019-.127.316-.491-.728-.807-1.472a24.9,24.9,0,0,0,1.065,2.98c-.153.169-.454-1.192-.717-1.319l.823,1.931-.037.016c.432.148.607,1.477,1.213,2.611,1.2,2.79,1.9,2.97,2.854,4.362.111.448.09.607-.069.475-.185-.733-.237-.564-.432-.76.464.907.691,2.152.311,1.709.855,1.393-.116-.6.448.227l1.023,1.973c.032-.316-.3-1.023.359-.074.5.833.675,1.266,1.313,2.358-.169-.116-.032.48-.5-.348a5.125,5.125,0,0,0,1.06,1.625c-.559-1.276,1.276,1.888.986.854.179.427.38.844.586,1.261-.164-.269-.285-.237-.5-.649-.021.475.67.918.949,1.308a13.915,13.915,0,0,1,.849,1.661,5.012,5.012,0,0,1,.839,1.493c.417.506.174-.053.353.053l1.24,1.83c-.053.185-.285.57-.517.327.6.612.522,0,1.245,1.039-.67-.417.828,1.472-.079.828a16.68,16.68,0,0,0,2.284,3.233c.612.422-.665-1.05-.422-1.145,2.047,2.479,2.685,2.21,4.093,4.088-.116-.169-.237-.327-.348-.5a9.561,9.561,0,0,0,1.64,1.424c-.464-.137.469,1.8,2.2,3.492.243.048-.728-1.166-.29-1.034l1.129,1.129c.063.1-.095.005-.264-.116,1.06.96,1.561,2.2,2.11,2.236l.744,1.313-.285-.533a15.188,15.188,0,0,1,1.7,1.319,9.742,9.742,0,0,1,2.2,2.226c-.132-.28-.475-.955.506-.126-.327.343,1.894,1.936,1.725,2.068.406.327,1.023,1.029,1.192.923l-.253.169c.364-.248,1.772,1.029,2.991,1.825-.6.237,1.292.934,1.5,1.725.427-.111,2.168,1.419,2.569,1.3.923.628.633.849.8,1.113l.506.185a30.615,30.615,0,0,0,3.1,2.432l1.155.353.285.359c.206.026,1.066.475.612.063l.533.338c.232-.285.812.364,1.973.87.222.2.111.232-.148.137.538.322.216.343.448.622-.348-.285,2.284.538.886-.417-.032-.179.886.19,1.393.533l.174.464.812.047a16.489,16.489,0,0,1,1.8,1.187c-.707-.353-1.862-.269-.021.675a21.035,21.035,0,0,0-2.068-.76c.375.216.549.343-.105.148,1.482.67.564.095,2.01.786-.211.221.153.5,1.372,1.2l-.849-.649.216.016c-.343-.2-.422-.29-.448-.427.285.142,1.83.485,1.994.76-1.25-1.108,2.674.907,1.862.211a2.958,2.958,0,0,1,1.277.6c-1.313-.332.786.7.506.8.491.121-.876-.617-.216-.448a7.134,7.134,0,0,1,1.572.955l-.327-.079,1.081.612c.243-.053-1-.7.069-.322.248.174,1.34.506,1.261.6-.58-.011-.311.38-1.234.074.76.269,3.159,1.16,2.294.533l.891.353c-.522-.332-2-1.139-.2-.491l-.037.047,1.319.274c.164.116.327.232.5.338.01-.074.232-.074.7.09.095.121.522.306.448.4,1.361.448,1.3.269,1.5.248.765.237,1.029.39.622.432,1.018.417,2.885.865,3.555,1.24,1.445.285-.274-.142.607-.09a4.769,4.769,0,0,0,1.213.607c.528.174,1.15.332,1.809.485,1.324.3,2.79.6,3.977.781-.543-.564.654.079,1.166-.227-.533.037,2.157.786.079.491l1.261.211c.812.411-2.11-.243-.881.348a11.05,11.05,0,0,0,1.952.153,7.776,7.776,0,0,1,2.12.232c-.612.222,1.3.1.833.375a5.9,5.9,0,0,1-1.3-.1l.285.105c3.107.586.96-.221,2.616-.179,1.9.2,1.466.422,1.561.586a7.573,7.573,0,0,0,1.767.132c-1.187.058-2.131-.443-1.567-.58a7.458,7.458,0,0,0,3.35.274c-2.669-.686-1.883-.237-4.373-.934-.364.074-.348.406-1.851.032.976-.005-.037-.19-.3-.28.264.232-1.065-.09-1.54-.09-.4-.216.976-.274-.543-.6l-.364.38c-.591-.169.306-.258-.981-.39.728-.09-.148-.364,1.593-.158-1.989-.686-3.17-.411-4.8-.559.169.005.2-.047.364-.042a6.94,6.94,0,0,1-1.456-.164c-1.018-.338.87-.005.628-.2-.57-.1-1.124-.253-1.688-.38l-.037-.042a2.109,2.109,0,0,1-1.013-.258c.533-.011.765-.106,1.124-.132l-1.83-.142c.227-.09-1.387-.6-.111-.39-.876-.185-1.741-.39-2.6-.633l-.137-.343c-.628-.132-.665-.079.063.169-.854-.322-4.051-.643-3.408-1.076a54.023,54.023,0,0,1-5.2-1.5c1.92.448-1.967-1.129.005-.5a9.952,9.952,0,0,0-2.342-.649c-.791-.438-.306-.559.633-.311l-1.108-.285.042-.048c-.327-.063-.649-.153-.971-.227-.9-.559-.089-.359-1.06-.823l-.317.142-.607-.427c.206.216-.4.011-1.129-.28l.042-.047c-.3-.106-.6-.227-.886-.353.913.269-.76-.433-.29-.406-.728-.364-.744-.369-2.083-.971l.153.274c-1.793-.7.042-.269-1.34-.965l-.005.227c-1.8-1.371-3.455-1.588-4.763-2.627.839.438.749.111.707.153-1.25-.675-3.244-1.846-4.6-2.453-.3-.543-.353-.686-1.545-1.614a3.534,3.534,0,0,0-1.472-.707c-.8-.707-2.532-1.714-2.448-1.92-.3-.005-.765-.57-1.308-.818l-.047-.148-.047.222c-1.2-1.524-2.722-1.693-3.919-3.244l.285.169-.665-.448c-.042-.148.243.016.348-.053-.934-.812-1.91-1.572-2.806-2.421l.443.6a10.877,10.877,0,0,1-1.7-1.4c1.308.765-.907-.833-.928-1.166l.643.475c-.818-.712-.818-.712-.891-.5-1.081-.913-.433-.949-1.519-1.693l.654.654c.116.274-.48-.069-.918-.5-.084-.127-.332-.5.021-.185-.854-.717-1.973-1.957-2.352-2.268-.369-.48-.127-.438.137-.237-1.762-1.6-.712-.8-2.474-2.411l.111-.047-.644-.522-.585-1.039.164.411a17.44,17.44,0,0,1-1.466-1.614l.369.164c-1.509-1.6-1.393-2.142-2.906-3.6-.063-.132.179.09.306.2-1.429-1.34-.649-1.34-2.089-2.69.116.058.047-.153.132-.121l-.622-.644.227-.084-.712-.375c-.047-.19-.09-.385-.127-.58l-.285-.216c-.174-1.034-1.208-1.936-1.661-3.181l-.121.343c-2.3-2.405-3.729-6.456-5.765-9.8l.237-.047-1-1.3c-.248-.849.422.369.4.079-.913-1.482-.633-.491-1.577-2.273-.311-1,.311.248.6.649-.459-.828-1.034-1.852-1.524-2.838a26.3,26.3,0,0,1-1.092-2.585l-.095-.005a38.716,38.716,0,0,1-1.63-4c.111-.005.253.306.4.622a7.066,7.066,0,0,0-.607-1.493l.38.417c-.375-1-1.171-2.891-1.039-3.186-.042.148-.227.158-.517-.717.148-.58-.9-2.342-1.15-3.814.132.142.464,1.176.38.881a6.8,6.8,0,0,0-.77-1.915l.2.153c-.38-1.081-.712-2.184-1.071-3.276.185-.57-.791-3.149-.485-2.98-.248-1.2.063,1.039-.306-.469.058-.433-.369-1.361-.127-1.34l.063.158c-.074-.353-.179-.7-.232-1.06.105.211.232.422.353.628-.243-.9-.533-1.545-.723-1.556a17.63,17.63,0,0,1-.169-2.558l.106.316a19.07,19.07,0,0,1-.274-3.228,13.713,13.713,0,0,0-.1-1.408,7.372,7.372,0,0,0-.237-1.4c.021-.148.079-.137.1.169l-.106-1.53.2.348-.464-2.5.116.026c-.042-.833-.132-1.9-.237-3.028-.069-1.129-.058-2.321-.095-3.4l.058.322c-.19-2.347.105-2.268-.032-3.982l.053.185-.011-1.545.116.343a10.468,10.468,0,0,1,.274-2.553,10.37,10.37,0,0,0-.248-1.973c.111-1.683.179-.4.353-1.435a17.969,17.969,0,0,1,.185-3.08l.111.047c.095-.765.079-1.25.222-2.321l.005.322c.016-1.772.654-2.11.353-3.555.2-.712.322-2.11.57-1.994.332-2.157.633-3.835,1.018-5.982.448-.248.069-.464.585-1.688l-.227.042c.432-1.477,1.029-3.028,1.625-4.6.29-.791.586-1.593.876-2.395.269-.812.643-1.582.913-2.384l.227-.016.032-.707c.723-1.672,1.44-3.634,2.284-5.438.87-1.793,1.7-3.5,2.331-4.805.153-.454.343-1.029.559-1.667a12.344,12.344,0,0,1,.992-1.92l-.053.153c.6-1.171,1.219-2.379,1.878-3.592.338-.6.68-1.213,1.023-1.83.4-.586.807-1.171,1.229-1.751-.026.2.185-.011.053.29a7.567,7.567,0,0,1,1.271-1.915l-.528.517a5.235,5.235,0,0,1,1.451-1.92l.538-1.2.2-.148.037-.253c.2-.137.4-.28.612-.4a13.014,13.014,0,0,0,1.266-2.247c.148-.042.944-.955.411-.19l2.954-3.671-.522.517c-.221-.063.554-1.266,1.145-1.725-.522.823.169.248.559.042.348-.549-.512.3-.369-.026a13.232,13.232,0,0,1,1.888-2.258l-.264.411c.68-.865,1.282-1,1.989-1.809.527-.833,1.118-1.261.733-1.356.934-1.05.554-.216.9-.512a7.505,7.505,0,0,1,2.157-1.894c.2-.9,2.848-2.469,2.764-2.986a10.6,10.6,0,0,1,1.018-.58c-.047-.111-.042-.454.649-1.081.765-.464.733-.174,1.013-.253l.179-.707c1.055-.717,2.152-1.53,3.281-2.405.28-.216.564-.438.849-.665.3-.206.607-.411.907-.617.607-.417,1.224-.839,1.841-1.266,1.234-.849,2.484-1.7,3.708-2.542,1.239-.818,2.526-1.5,3.745-2.168,1.044-.665,2.221-1.414,3.439-2.194,1.25-.733,2.558-1.466,3.856-2.1l-.258.19,2.632-1.139-1.962.723c.543-.316.944-.6,1.5-.86,1.445-.633,3.186-1.234,4.963-1.967,1.815-.654,3.671-1.429,5.475-2.136,2.21-1.3,1.7-.142,3.888-1.192-.185.105-.237.2-.4.3,2.416-.939,3.756-1.35,6.2-2.279-.174.543,1.646-.38,1.477-.074l.169-.243c.591-.005,1.92-.264,1.762-.079l1.076-.454.137.185c.744-.127,1.91-.4,3-.564a7.543,7.543,0,0,1,2.527-.084A67.866,67.866,0,0,1,352.823,85.5a15.6,15.6,0,0,1,3.123-.174l1.145.3a16.124,16.124,0,0,1,3.291-.084l-.121.058c1.118-.021,2.163.206,3.218.084,1.219.127,2.384.364,1.989.559.079-.2.723-.121,1.345,0,.311.063.617.132.844.2s.374.121.374.121.966.153,2.68.432c.854.142,1.9.28,3.107.512,1.192.253,2.548.538,4.035.854A111.856,111.856,0,0,1,399.637,95.7a117.1,117.1,0,0,1,22.122,13.414c6.372,4.853,11.425,9.458,14.4,11.963.5.248,1.572,1.218,1.371.654.812.77.891,1.382,1.187,1.4-.928-1.2.707.005-.111-1.255l.686.67c.237.047-1-.849-.649-.849l-.464.053a4.493,4.493,0,0,1-.8-1.255,5.453,5.453,0,0,1-2.295-1.857l.343.338c-.965-1.029-.411-.8-.575-1.055l.216.227-.707-.971c.57.707,1.788,1.6,1.24,1.044-1.087-1.3.248.369-.67-.506-.57-.538-.274-.522-.164-.58l-1.013-.986c.158-.09.659.665.38.137l-1.4-1.124c.069-.549-1.514-1.218-1.825-2.073,1,.807.021-.2.264-.153l-2.358-2.089c-.179-.243.707.454.338.148-.359-.485-.8-.57-1.029-.786-.121-.274-1.751-1.572-1.514-1.714-1.535-1.5-.939-.285-2.374-1.667-.09-.306,1.255.965.686.264l-1.646-1.255a1.8,1.8,0,0,1,1.071.549c-4.209-3.687-6.219-6.171-10.7-8.782-.5-.58.512.163,1.023.332a32.892,32.892,0,0,1-3.74-2.416,21.269,21.269,0,0,0-3.365-2.258l-.132.127a40.213,40.213,0,0,0-6.356-3.481c-1.161-.517-2.342-1.039-3.518-1.561-1.2-.464-2.4-.939-3.566-1.44l.522.327a23.764,23.764,0,0,1-2.569-.686c-.095-.121.7-.169-.728-.543.269.153.839.4.638.422a61.849,61.849,0,0,0-8.809-2.97c-.9-.243-1.825-.506-2.759-.733-.944-.2-1.894-.406-2.843-.607l-2.812-.612c-.928-.163-1.846-.322-2.727-.475-9.579-1.3-20.1-2.01-29.607-.976,1.445-.164.865.327-.227.343-3.059-.422-5.132.717-8.223.738-5.417,1.187-10.418,1.809-15.175,3.951l-.158-.164a9.528,9.528,0,0,0-1.672.654v-.058c-1.851.527-3.924,1.6-4.984,1.9l.021.243c-1.05.433-.617.047-1.64.633l-.016-.121-1.16.744c-.021-.211-.76.1-1.609.491a18.171,18.171,0,0,1-2.221,1.034c-1.314.675-3.692,2.136-5.686,3.133a32.086,32.086,0,0,0-4.373,2.21c-.712.459-1.5.971-2.342,1.514-.833.559-1.677,1.2-2.569,1.825-1.762,1.282-3.671,2.553-5.407,3.835l.221.158-.86.728c-.021-.058-.158.016-.042-.116-.86.322-1.952,1.72-2.769,2.152.591-.179.633-.475,1.134-.876.791-.491.269.269-.775.96l-.016-.058-.57.649c-.206-.095-.865.322-1.076.227a25.728,25.728,0,0,0-1.931,1.741c-.564.6-1.1,1.171-1.646,1.741-1.081,1.145-2.184,2.289-3.6,3.576.069-.206-.448.248-.87.728s-.854.891-.738.469c-1.435,1.809.485-.058-.011.913-.433.469-.8,1.044-.992,1.029.132-.29-.527.221-.206-.19l-1.007,1.16c-.121.09.063-.2.158-.343a41.268,41.268,0,0,1-2.88,3.2,29.776,29.776,0,0,0-2.505,3.2c-.016.253.717-.855.707-.6-1.5,2.405-1.741,1.809-3.191,4.019l.174-.549a8.741,8.741,0,0,1-1.366,2.247c-.332.069.5-1.1.791-1.725-.543.8-1.846,2.859-1.261,2.363a8.4,8.4,0,0,1-1.382,1.72c.037.048.728-.812.443-.19a37.4,37.4,0,0,0-3.27,4.921c-.042-.042-.185.026-.127-.132-.575,1.5-.949,1.1-1.936,2.98" transform="translate(-240.217 -79.562)" fill="#2c2e50"></path><path id="Path_93667" data-name="Path 93667" d="M294.332,204.5a100.844,100.844,0,0,0-.58,17.143c.274,1.113.343,2.748.591,4.378l-.253.2.227,1.361c-.021.564-.158-1.044-.158-.047l.221.5c-.111.121.454,3.5-.09,1.25.253,1.767.517,3.534.891,5.28.227,1.166.348.633.554,1.925-.021.274-.158-.448-.227-.322a19.941,19.941,0,0,0,1.161,4.04,21.062,21.062,0,0,1,1.35,3.766l-.121-.285.417,1.06a4.5,4.5,0,0,0,.259.633c.116-.533-.369-.564-.549-1.677.232.026.559,1.276.7,1.15a14.45,14.45,0,0,0,.744,1.957c.243,1.255,1.076,2.88,1.245,3.84.29.554.765,1.1,1.334,2.3.232.944-.253-.132.227,1.076l.211.132c.422.976.322.844.248.833.485,1.029.591.765,1.161,2.073l-.48-.649c.533.918.7,1.313,1.371,2.622-.089.011-.353-.517-.533-.912a4.4,4.4,0,0,0,.918,1.551c-.01-.137-.5-1.029-.132-.665a10.835,10.835,0,0,1,1.055,1.783l-.512-.622a12.827,12.827,0,0,1,1.382,2.157l-.106-.037a34.424,34.424,0,0,1,2.258,3.518l-.2-.243c.385.533.717.749.907,1.044-.475-.8-.3-.617-.237-.754.527,1.123,1.3,1.377,2.353,3.075-.079.021-.438-.317-.691-.812a5.4,5.4,0,0,1-1.588-1.313c.485.591,1.034,1.3.844,1.2l.311.069.675.96c.222.079-.364-.886.327-.074.781.912.216.638.406.728,1.092,1.245.607.4,1.535,1.683a3.17,3.17,0,0,1-.4-.453,19.675,19.675,0,0,1,1.814,2.569,1.037,1.037,0,0,1-.506-.406l.042-.011c-.965-.833.728.76.3.612.047-.153,1.081,1.076,1.54,1.635l-.037-.274c1.947,1.482-.343.137,1.334,1.836,1.134,1.013-.369-.443.359.153a24.627,24.627,0,0,0,1.952,2.152c.237.353.818.976.749,1.155a31.118,31.118,0,0,0,2.474,2.173c-1.039-1.171-1.266-.928-2.442-2.337l.491.227c.934.844,2.126,1.92,2.774,2.511-.111-.137-.142-.222-.037-.179,1.419,1.1,1.9,1.319,3.223,2.453.079.269-.7-.385-1.271-.86a16.387,16.387,0,0,0,2.252,1.862c-.011.163-.928-.717-1.176-.733l1.567,1.134-.016.021c.369-.026,1.145.934,2.163,1.54a18.249,18.249,0,0,0,4.236,2.242c.322.269.4.385.216.338-.527-.443-.469-.311-.7-.39.812.475,1.641,1.271,1.145,1.076,1.313.728-.4-.385.422.032.585.353,1.15.738,1.751,1.071-.153-.222-.77-.591.2-.153.8.4,1.166.628,2.189,1.2-.174-.032.237.332-.528-.095a6.473,6.473,0,0,0,1.6.807c-1.092-.675,1.925.844,1.155.248l1.1.654a6.768,6.768,0,0,1-.7-.285c.248.317.96.411,1.371.591.385.237,1.44.744,1.5.828a5.545,5.545,0,0,1,1.419.7c.57.206.09-.09.274-.074.628.269,1.245.559,1.878.807.063.132.127.443-.179.369.76.185.364-.174,1.461.243-.7-.058,1.4.675.406.549a15.681,15.681,0,0,0,3.418,1.276c.67.053-1.065-.427-.949-.554,2.848.833,3.123.533,5.2,1.145l-.533-.185a12.435,12.435,0,0,0,1.968.316c-.206.042.132.269.8.549a17.043,17.043,0,0,0,2.759.754c.2-.058-1.176-.443-.791-.517l1.445.28c.1.037-.063.037-.253.021,1.3.237,2.374.7,2.785.543l1.282.5-.506-.206c.2-.069,1.662.158,1.973.153a10.784,10.784,0,0,1,2.859.432c-.253-.111-.881-.364.3-.258-.047.343,2.474.332,2.426.48.48.026,1.329.185,1.393.058l-.089.19c.063-.132.533-.163,1.155-.158s1.393-.016,2.063-.026c-.311.364,1.471,0,2.068.343.253-.237,2.384-.163,2.616-.38a1.563,1.563,0,0,1,1.208.264l.475-.106c.527.09,2.469-.053,3.629-.063.348-.106.7-.19,1.05-.317l.406.047c.164-.079,1.045-.222.491-.237l.575-.063c.016-.243.8-.169,1.941-.422.269.005.211.069-.037.132.575-.074.348.084.675.116-.411.01,1.983-.791.432-.622-.121-.079.76-.306,1.324-.364l.38.153.628-.343c.865-.19,1.271-.111,1.973-.253-.712.174-1.519.77.343.343-.971.264-1.435.459-1.941.591.39-.063.591-.074,0,.121,1.461-.338.469-.2,1.909-.549-.037.206.38.174,1.656-.053l-.976.079.169-.09c-.364.063-.469.058-.564,0a11.677,11.677,0,0,1,1.883-.559c-1.509.058,2.458-.833,1.493-.8a3.719,3.719,0,0,1,1.261-.327c-1.145.475.949-.042.8.142.427-.179-.971.127-.4-.111a9.485,9.485,0,0,1,1.667-.3l-.285.116c.375-.079.749-.142,1.113-.248.148-.148-1.092.19-.116-.185a10.439,10.439,0,0,1,1.245-.348c-.432.285-.032.338-.87.654.7-.253,2.933-1.029,1.967-.9l.839-.28c-.554.1-2.068.459-.4-.132v.042c.369-.179.749-.348,1.113-.538l.533-.105c-.032-.042.132-.153.554-.316.132.01.538-.127.538-.042,1.229-.5,1.092-.549,1.229-.665.68-.285.955-.348.68-.116.949-.353,2.537-1.139,3.212-1.324,1.2-.644-.269.079.4-.369a9.995,9.995,0,0,0,2.727-1.15c1.108-.586,2.31-1.266,3.239-1.862-.665.047.506-.332.723-.77-.364.322,1.93-.86.3.185l1.007-.622c.781-.269-1.63,1.092-.459.665,1.155-.665,1.714-1.414,3.075-2.178-.322.464.971-.717.77-.311a7.368,7.368,0,0,1-.971.717l.253-.116c2.474-1.545.57-.665,1.762-1.619,1.424-1.055,1.224-.686,1.366-.665a9.552,9.552,0,0,0,1.3-1c-.8.738-1.693,1.071-1.366.67a9.328,9.328,0,0,0,2.463-1.888c-2.189,1.282-1.424,1.018-3.492,2.189-.222.253-.042.411-1.287,1.113.686-.575-.116-.063-.348.042.3-.047-.8.58-1.129.86-.385.132.554-.7-.67.037l-.074.39c-.5.269.095-.3-.881.4.469-.464-.28-.09,1.05-1.007a23.737,23.737,0,0,0-3.7,2.5c.127-.095.121-.137.243-.227a8.9,8.9,0,0,1-1.118.754c-.891.432.617-.506.353-.448-.454.28-.923.533-1.4.775h-.047a2.591,2.591,0,0,1-.865.438c.38-.3.5-.469.749-.686l-1.4.949c.116-.169-1.3.491-.274-.121-.728.385-1.445.8-2.2,1.139l-.274-.09c-.522.274-.522.316.132.047-.786.306-3.281,1.867-3.028,1.329-1.746.865-2.411,1.092-4.584,2,1.651-.749-2.041.448-.253-.243a12.936,12.936,0,0,0-2.068.865c-.812.185-.517-.116.306-.469l-.965.422.005-.042c-.28.127-.554.274-.833.39-.96.164-.253-.132-1.224.116l-.158.227-.68.09c.269.005-.29.2-.986.411l.005-.042-.839.274c.818-.327-.786.169-.432-.063-.733.164-.749.169-2.068.5l.259.063c-1.709.5-.111-.153-1.514.158l.116.111c-2.068.19-3.429.77-4.958.886.86-.164.617-.3.607-.248-1.292.253-3.423.475-4.758.8a4.917,4.917,0,0,0-2.036-.185,3.977,3.977,0,0,0-1.482.264,20.6,20.6,0,0,1-2.88,0c-.227.121-.881.005-1.424.116l-.116-.058.084.132c-1.741-.322-2.954.137-4.705-.185l.306-.016-.744.005c-.116-.069.19-.084.227-.158l-3.423-.253.665.148a9.164,9.164,0,0,1-2.036-.132c1.387-.042-1.134-.137-1.334-.322l.738.032c-1-.105-1-.105-.934.042-1.3-.111-.86-.332-2.068-.39.285.047.564.105.844.142.243.116-.385.142-.955.037-.132-.042-.522-.169-.09-.116-1.023-.116-2.537-.438-3-.459-.538-.142-.343-.206-.037-.185-2.173-.338-.965-.232-3.144-.575l.053-.069-.76-.069c-.343-.121-.67-.285-1.007-.422l.348.2c-.7-.174-1.15-.237-1.957-.5l.359-.021c-1.989-.448-2.221-.8-4.109-1.234-.121-.058.179-.005.332.026-1.756-.39-1.24-.559-3-.986.116,0-.053-.111.026-.116l-.8-.216.111-.121-.707-.021-.417-.327-.327-.042c-.717-.554-1.925-.87-2.938-1.535l.111.258c-2.97-.786-6.15-3.138-9.389-4.784l.132-.1-1.377-.633c-.622-.528.48.142.306-.058-1.414-.77-.691-.158-2.31-1.1-.733-.628.338.095.76.269-.781-.406-1.672-1.018-2.537-1.572a19.25,19.25,0,0,1-2.115-1.514l-.063.021c-.965-.665-2.179-1.625-3.175-2.437.074-.037.316.169.58.353a10,10,0,0,0-1.155-.944l.453.211a20.494,20.494,0,0,1-2.337-2.052c.058.116-.079.2-.691-.4-.185-.5-1.767-1.514-2.685-2.537.158.074.9.749.7.554a13.884,13.884,0,0,0-1.445-1.25l.2.063-2.321-2.2c-.153-.5-2.02-2.237-1.751-2.184-.744-.865.554.786-.422-.28-.179-.353-.9-.949-.739-1l.116.105c-.222-.253-.427-.517-.638-.775l.512.4c-.564-.659-1.076-1.06-1.192-1.023a22.413,22.413,0,0,1-1.345-1.946l.216.216a19.176,19.176,0,0,1-1.641-2.516,15.721,15.721,0,0,0-1.477-2.168c-.058-.127-.016-.132.137.106l-.76-1.2.28.221c-.464-.628-.96-1.245-1.408-1.888l.079-.016c-.744-1.361-2.025-3.423-2.922-5.212l.169.248a33.014,33.014,0,0,1-1.63-3.318l.1.137-.6-1.3.2.258a11.958,11.958,0,0,1-.87-2.215,13.887,13.887,0,0,0-.913-1.588c-.58-1.451-.063-.385-.332-1.319-.364-1.071-.554-1.213-.992-2.685l.084.005c-.258-.67-.427-1.081-.723-2.036l.121.274c-.607-1.519-.38-2-1.018-3.154-.1-.681-.459-1.931-.29-1.9-.306-.971-.527-1.846-.723-2.727s-.422-1.751-.612-2.743c.206-.359-.079-.427-.116-1.656l-.121.111c-.485-2.822-.406-6.119-.617-9.241l.132-.095c-.069-.206-.116-.417-.169-.622-.047-3.381.179-7.743.443-10.423a21.71,21.71,0,0,1,.227-3.618v.148a50.542,50.542,0,0,1,1.3-7.574c.021.174.116-.074.09.227a7.411,7.411,0,0,1,.485-2.073l-.269.622a6.7,6.7,0,0,1,.659-2.131l.164-1.2.111-.2-.005-.222.364-.554a17.671,17.671,0,0,0,.469-2.347c.084-.095.485-1.139.243-.306.506-1.366,1.013-2.738,1.551-4.088-.111.2-.211.406-.306.612-.174.026.248-1.224.57-1.83-.243.865.153.142.39-.169.158-.575-.311.433-.258.111a13.784,13.784,0,0,1,1-2.542l-.142.427c.39-.939.8-1.266,1.218-2.173.28-.86.659-1.414.374-1.35.565-1.171.375-.369.6-.733a9.672,9.672,0,0,1,1.313-2.31c.047-.791,1.878-2.949,1.762-3.328.222-.28.469-.543.707-.812-.047-.069-.079-.338.375-1.081.517-.638.522-.4.723-.559l.063-.617c2.864-3.724,6.63-8.666,10.5-12.084a59.673,59.673,0,0,1,5.744-5.364l-.206.222c.7-.549,1.382-1.113,2.121-1.609-.549.343-1.081.712-1.593,1.1a10.772,10.772,0,0,1,1.192-1.071c2.395-1.693,5.628-3.866,8.661-5.807,1.851-1.456,1.445-.591,3.3-1.836-.153.116-.2.19-.332.3,2.073-1.208,3.181-1.9,5.312-3.054-.116.417,1.424-.665,1.3-.417l.127-.206c.512-.174,1.709-.575,1.572-.432l.923-.549.137.095a21.805,21.805,0,0,1,4.916-1.593,60.427,60.427,0,0,1,12.939-3.207,15.665,15.665,0,0,1,2.848-.522l1.076.032a13.488,13.488,0,0,1,3.012-.422l-.105.053c1.029-.095,2.01-.116,2.97-.285,1.134-.016,2.231.048,1.888.206.053-.137.654-.142,1.234-.111a9.592,9.592,0,0,1,1.155.121s.907.037,2.516.095c.807.011,1.788.084,2.917.2s2.416.174,3.814.39a87.036,87.036,0,0,1,20.724,5.222,81.326,81.326,0,0,1,11.109,5.233,84.206,84.206,0,0,1,9.848,6.435A115.24,115.24,0,0,1,446.292,162.4c.4.29,1.3,1.276,1.1.781.681.775.786,1.287,1.018,1.361-.8-1.15.548.132-.174-1.044l.575.67c.19.084-.833-.876-.559-.812l-.353-.042a5.416,5.416,0,0,1-.707-1.171,8.284,8.284,0,0,1-1.941-1.894l.306.322c-.87-.965-.411-.7-.559-.934l.19.216-.638-.907c.491.68,1.561,1.577,1.071,1.044-.986-1.213.222.343-.575-.512-.491-.533-.259-.469-.179-.5l-.876-.971c.116-.047.57.649.306.174-.4-.38-.781-.775-1.2-1.129-.005-.422-1.366-1.171-1.7-1.9.886.791-.005-.148.2-.079-.675-.7-1.387-1.356-2.12-1.994-.174-.216.633.448.29.163a4.907,4.907,0,0,0-.934-.749c-.137-.227-1.609-1.466-1.435-1.54-1.456-1.345-.807-.332-2.168-1.582-.116-.248,1.155.9.6.29l-1.514-1.171a2.2,2.2,0,0,1,.95.554c-.965-.87-1.878-1.567-2.69-2.263s-1.556-1.361-2.342-1.941c-.775-.6-1.545-1.176-2.379-1.767a32.079,32.079,0,0,0-2.827-1.667c-.512-.459.464.158.928.322-.775-.4-1.414-.76-1.978-1.108-.575-.332-1.087-.633-1.577-.944a22.852,22.852,0,0,0-3.249-1.841l-.1.084c-3.566-2.126-8.345-3.629-12.775-5.064l.512.227c-.649-.063-1.651-.332-2.4-.491-.1-.084.6-.095-.723-.406.264.105.8.306.622.317a60.17,60.17,0,0,0-8.324-2c-1.693-.306-3.487-.506-5.259-.749-1.778-.137-3.534-.364-5.185-.433a89.472,89.472,0,0,0-27.133,2.986c1.287-.369.812.058-.174.269-2.806.243-4.547,1.466-7.311,2.083-4.731,1.925-9.036,3.571-13.013,6.235l-.148-.074a11.814,11.814,0,0,0-1.393.886l-.005-.042c-1.567.823-3.249,2.152-4.125,2.664l.032.164a11.885,11.885,0,0,0-1.361.876l-.021-.079c-.322.269-.617.575-.923.86-.063-.29-2.374,1.757-3.117,2.163-1,.923-2.933,2.611-4.473,3.967a32.259,32.259,0,0,0-3.4,2.97,107.334,107.334,0,0,0-7.58,8.772l.185.047-.6.849c-.021-.037-.121.063-.042-.074a32.171,32.171,0,0,0-1.936,2.6c.417-.353.432-.586.781-1.065.575-.638.222.111-.506,1l-.021-.042-.353.707c-.164-.005-.607.559-.77.559-.459.723-.886,1.387-1.266,2.041-.359.665-.707,1.3-1.05,1.941-.718,1.266-1.35,2.585-2.2,4.13.016-.2-.274.369-.554.892-.258.533-.506,1.018-.475.643-.818,1.962.343-.222.1.733a5.221,5.221,0,0,1-.591,1.182c.058-.28-.354.369-.169-.079l-.58,1.292c-.074.116.016-.185.068-.332-.5,1.356-1.023,2.521-1.545,3.656a31.792,31.792,0,0,0-1.3,3.508c.026.211.374-.955.4-.749-.712,2.505-.886,2.131-1.509,4.483l.026-.517a11.948,11.948,0,0,1-.575,2.353c-.2.179.137-1.1.269-1.709-.274.844-.781,3.038-.475,2.411a10.654,10.654,0,0,1-.643,1.925c.031.026.353-.934.264-.317-.406,1.387-.912,3.566-1.218,5.306-.037-.021-.116.09-.105-.068-.047,1.44-.38,1.229-.644,3.17" transform="translate(-265.456 -103.047)" fill="#2c2e50"></path><path id="Path_93668" data-name="Path 93668" d="M290.679,347.2c1.271,1.514,3.022,3.365,4.257,4.874a5.026,5.026,0,0,1,1.3,1.071l-.158.232.411.327c.079.211-.3-.264-.132.084l.258.032c-.047.095.839,1.039.116.522.448.5.886,1.008,1.371,1.482.306.327.348.026.644.427.011.127-.163-.09-.206.011.891,1.2,1.577.854,2.447,1.92l-.105-.058c.216.116.517.443.554.417.063-.316-.28-.069-.459-.485.19-.137.453.285.559.137.169.285.406.317.617.5.248.432.823.823.96,1.2a2.511,2.511,0,0,1,.944.454c.142.38-.179.069.137.454l.148-.047c.28.29.211.274.158.311.311.3.385.111.728.533l-.311-.106a9.421,9.421,0,0,1,.86.717c-.058.053-.227-.095-.338-.222.1.343.454.269.565.39.005-.074-.274-.343-.042-.322.2.2.57.237.612.485l-.317-.095c.506.29.343.069.812.533l-.068.032c.432.137.744.607,1.208,1.018l-.111-.047c.222.126.4.121.5.211-.222-.285-.121-.253-.063-.375.216.469.7.264,1.218.818-.058.053-.258.016-.374-.174-.348.021-.5.158-.918-.063.253.148.538.332.422.364l.206-.111c.142.1.243.2.348.274.142-.063-.143-.385.232-.211.406.222.058.317.174.285.549.311.348-.021.781.4l-.206-.111c.29.327.865.612.812.891-.084.005-.142.058-.259-.058l.026-.026c-.491-.142.348.2.09.3.058-.132.522.264.723.448l.026-.179c1,.174-.222.221.533.717.517.264-.148-.169.2-.042a3.252,3.252,0,0,0,.844.707c.095.142.311.39.232.549.327.137.823.659,1.081.628-.4-.454-.591-.185-1.029-.76l.259-.032a13.326,13.326,0,0,1,1.176.786l.021-.127a7.117,7.117,0,0,1,1.366.712c-.016.179-.317-.063-.559-.206.285.338.354.269.886.665-.047.137-.374-.243-.506-.179.206.132.427.243.638.359l-.016.021c.211-.137.464.306.881.485a3.811,3.811,0,0,0,1.793.527c.1.137.111.211.026.221-.169-.221-.169-.132-.28-.126.316.169.548.6.332.575.517.237-.111-.211.221-.09l.654.422c-.021-.148-.237-.317.148-.179a8.716,8.716,0,0,1,.828.454c-.084.021.037.222-.253.058a.968.968,0,0,0,.628.269c-.375-.327.744.29.517-.037l.374.322c-.095-.053-.142.005-.274-.09.037.221.369.148.528.211.132.111.512.338.512.417.158.032.469.243.485.359.216.079.069-.095.153-.111l.67.385c-.011.106-.074.38-.2.359.306.053.227-.211.622-.011-.316.058.464.385.026.427a3.138,3.138,0,0,0,1.208.675c.29-.026-.354-.264-.259-.39,1.034.438,1.282.079,1.989.506l-.174-.132a2.02,2.02,0,0,0,.76.148c-.211.111.306.733,1.1,1.007.105-.063-.359-.353-.169-.438l.528.19-.116.032c.485.132.76.591.981.443l.359.459-.137-.19c.1-.058.628.132.749.142a1.611,1.611,0,0,1,.971.517c-.063-.111-.222-.375.2-.227-.121.3.833.453.765.6.174.058.443.258.506.148l-.095.169c.137-.237.754,0,1.245.132-.232.306.533.164.628.564.174-.2.876.232,1.029.058.369.121.258.332.322.443l.2-.032a6,6,0,0,0,1.255.564l.459-.1.116.127c.079-.037.417.021.237-.105l.211.069c.085-.206.317.021.765.047.09.058.047.1-.053.105.211.058.09.137.185.237-.132-.095.87-.153.327-.4-.016-.095.332-.058.527.037l.074.211.3-.111c.332.063.432.227.7.3-.274-.058-.7.179.01.332a4.839,4.839,0,0,0-.786-.026c.142.042.211.079-.037.095.564.079.211-.047.765.048-.074.142.069.216.538.359l-.332-.174.079-.026c-.132-.042-.164-.074-.174-.137.111.021.686-.047.749.058-.485-.338,1,.042.686-.158l.475.132c-.48-.005.3.227.206.3.179,0-.332-.174-.089-.169a2.013,2.013,0,0,1,.591.243h-.121l.406.142c.084-.042-.38-.19.016-.137l.464.142c-.206.042-.095.174-.432.132.274.047,1.15.206.828.032l.327.069c-.2-.084-.744-.3-.09-.169l-.01.021.475.016.185.09c0-.026.079-.037.248-.005l.174.116c.491.079.464.021.533.005.274.042.375.079.232.111.375.074,1.034.174,1.282.258.512.047-.1-.037.206-.037a11.891,11.891,0,0,0,2.479.432c-.211-.105.227.016.39-.032-.185.005.776.153.047.084l.443.047c.3.068-.739-.053-.29.047.5.042.833.021,1.413.105-.2.01.454.042.3.058-.121,0-.285-.021-.448-.037l.1.016a4.867,4.867,0,0,0,.891.042c.659.079.517.074.554.084.127.01.417.042.612.058-.406-.031-.744-.084-.559-.074.29.047.981.111,1.161.137-.939-.127-.654-.074-1.535-.216a3.7,3.7,0,0,1-.633-.063c.338.032-.021-.016-.111-.037a4.411,4.411,0,0,1-.533-.058c-.142-.037.327,0-.211-.09l-.111.037c-.211-.037.1-.026-.354-.079.248.005-.063-.063.538.026a9.2,9.2,0,0,0-1.672-.206h.121c-.121,0-.343-.032-.506-.053-.364-.09.3.01.206-.032-.2-.026-.4-.074-.6-.111l-.016-.01a1.309,1.309,0,0,1-.359-.074c.184.005.258-.01.38-.01l-.633-.069c.074-.016-.5-.169-.053-.095l-.918-.19-.063-.1c-.222-.037-.232-.021.026.048-.306-.095-1.424-.158-1.219-.3-.733-.095-.992-.163-1.872-.327.686.079-.728-.338-.016-.19-.4-.164-.512-.069-.839-.137-.29-.132-.126-.216.211-.164l-.4-.058.01-.021-.348-.026c-.338-.169-.042-.148-.4-.269l-.111.09-.227-.137c.079.079-.143.042-.411-.026l.011-.026-.327-.068c.338.016-.285-.111-.116-.158-.274-.084-.28-.084-.781-.211l.063.111c-.67-.111.01-.137-.512-.3l.005.111c-.7-.422-1.292-.322-1.809-.622.322.079.285-.079.269-.047a9.807,9.807,0,0,0-1.783-.438c-.121-.243-.142-.311-.617-.57-.364-.116-.427-.116-.58-.047-.322-.206-1.018-.333-.992-.475-.121.079-.306-.132-.533-.111l-.021-.069-.016.143c-.522-.506-1.113-.216-1.646-.7l.121.005-.285-.047.137-.137-1.213-.469.206.184a1.723,1.723,0,0,1-.738-.232c.554.016-.4-.174-.417-.353l.274.058c-.353-.137-.353-.137-.38,0-.475-.148-.216-.375-.691-.417l.3.132c.058.111-.2.121-.4.037-.042-.042-.158-.158,0-.105-.38-.105-.891-.4-1.071-.411-.179-.121-.074-.185.042-.174-.818-.216-.338-.169-1.155-.385l.042-.063-.3-.026-.3-.327.09.153a3.19,3.19,0,0,1-.7-.311l.164-.047c-.723-.28-.723-.564-1.451-.733l.142-.016c-.691-.132-.369-.406-1.087-.506l.047-.111-.311-.068.09-.127-.332.095-.1-.227-.142.016c-.164-.406-.67-.443-.965-.854l-.021.211c-1.192-.2-2.2-1.435-3.481-1.967l.1-.121-.58-.142c-.2-.264.227-.016.185-.137-.564-.248-.332.063-.96-.269-.253-.28.169-.031.343.01a9.217,9.217,0,0,1-1.841-1.044l-.042.042a7.886,7.886,0,0,1-1.282-.812c.047-.053.153.005.264.063-.142-.105-.311-.285-.475-.306l.227-.005c-.3-.232-.955-.543-.939-.717.005.074-.079.158-.343-.026-.011-.3-.786-.417-1.139-.818l.316.132a1.356,1.356,0,0,0-.665-.311l.111-.037c-.359-.19-.717-.385-1.06-.6-.005-.3-.928-.664-.76-.754-.338-.269.227.306-.227-.005-.058-.169-.422-.264-.311-.369l.058.021-.311-.221.285.026c-.28-.174-.564-.2-.649-.116-.2-.259-.591-.469-.617-.665l.116.042c-.744-.475-.876-1.219-1.561-1.466l.085-.005-.406-.353.174-.005-.8-.438.058-.053c-.427-.406-1.16-.965-1.756-1.44l.111.047c-.691-.469-.538-.6-1.039-.944l.069.021-.4-.369.137.026c-.406-.153-.7-.944-.612-.67-.216-.1-.564-.306-.681-.28-.443-.4-.037-.174-.264-.469-.306-.3-.464-.248-.828-.707l.063-.047c-.2-.185-.359-.269-.633-.533l.105.053c-.549-.327-.38-.712-.96-.823-.137-.232-.517-.549-.39-.638-.607-.485-1.071-.87-1.64-1.393.105-.264-.121-.111-.327-.559l-.079.116c-.738-.8-1.313-1.952-2.152-2.806l.079-.116-.274-.079c-.781-1.029-1.778-2.358-2.432-3.149a4.106,4.106,0,0,1-1.013-.96l.047.032a17.955,17.955,0,0,1-1.783-2.31c.084.016.058-.09.153-.021-.264-.105-.359-.469-.485-.649l.069.264a1.024,1.024,0,0,1-.427-.733l-.39-.28v-.1l-.105-.026.016-.306c-.09-.074-.459-.549-.707-.607.026-.069-.169-.448.037-.2l-.87-1.413.09.248c-.095.1-.443-.269-.533-.517.28.222.179-.079.185-.258-.185-.148.005.227-.121.169a2.6,2.6,0,0,1-.638-.823l.142.111c-.258-.29-.148-.575-.348-.891-.264-.237-.306-.506-.469-.322-.29-.4.042-.248-.021-.4a1.465,1.465,0,0,1-.443-.907c-.432-.058-.564-1.2-.865-1.15l-.063-.427c-.074.026-.269.042-.459-.227-.074-.311.085-.316.111-.432l-.348-.047c-.527-1.735-1.851-3.7-2.368-5.6a21.631,21.631,0,0,1-1.34-2.664l.074.089-.29-.97.142.733a3.544,3.544,0,0,1-.3-.533,21.878,21.878,0,0,0-1.282-3.74c-.586-.733.095-.654-.39-1.377l.153.121a22.392,22.392,0,0,0-1.06-2.1c.348.005-.2-.564.005-.533l-.148-.037c.026-.216-.068-.691.042-.649l-.264-.343.121-.069c-.127-.517-.533-1.6-.338-1.936a23.039,23.039,0,0,1-1.208-4.916,3.053,3.053,0,0,1-.348-1.05l.095-.427c-.111-.369-.38-.739-.332-1.113l.047.037a3.68,3.68,0,0,0-.274-1.1c-.058-.427-.042-.849.126-.744-.274-.005-.106-.9-.106-.9s-.127-1.372-.322-3.513c-.121-1.066-.174-2.337-.243-3.719a28.813,28.813,0,0,0-.375-4.426,141.856,141.856,0,0,1-1.387-15.961,4.765,4.765,0,0,0-.016-.5c.01-.353.01-.406.016-.654-.016.538.005-.169-.021.359l.021-.338c-.01.137-.01.132-.021.374v.095c-.016.227-.026.359-.037.517-.011.258.016.422-.026,1.034l.005-.169c-.021.5-.037.3-.047.406l.005-.111-.042.417c.032-.317.037-.844.021-.564-.053.591.016-.153-.005.29-.016.274-.032.2-.042.185l-.037.5c-.021-.021.026-.327-.011-.127l-.026.622c-.074.111-.016.681-.111.96.021-.448-.032.037-.047-.037-.037.364-.063.733-.079,1.1-.021.105-.011-.29-.016-.127a2.185,2.185,0,0,0-.005.454l-.121.786c-.106.744.079.322-.01,1.013-.058.09.021-.554-.053-.248l-.032.723a.7.7,0,0,1-.047-.417,44.144,44.144,0,0,0-.7,4.789c-.116.253-.053-.185-.105-.364.047,1.3-.38,1.83-.453,2.943l.095.021a32.324,32.324,0,0,0-.438,5.2l.068-.216a5.545,5.545,0,0,1,.259.907c-.053.047-.274-.2-.174.311.032-.105.053-.327.121-.264a28.569,28.569,0,0,0,.005,3.239c.089,1.3.248,2.711.311,3.961.216,1.672.533,3.4.754,5.143.269,1.73.638,3.445,1.007,5.064-.116-.49.211-.348.222.042-.211,1.123.543,1.725.5,2.843.612,1.836.786,3.6,1.688,5.2l-.121.079c.026.274.137.316.237.58l-.037.005c.142.659.6,1.356.659,1.741l.153-.032c.153.364-.037.232.19.58l-.079.016.306.39c-.269.053.38,1.05.38,1.392.216.469.707,1.319.981,2.042a7.588,7.588,0,0,0,.506,1.646c.264.533.554,1.192.907,1.862s.723,1.382,1.044,2.068l.142-.105.19.343-.074.026c-.037.364.469.781.506,1.118.047-.253-.105-.259-.206-.459-.074-.327.216-.132.338.3l-.037.01.216.222c-.105.095-.037.364-.143.464.681,1.108,1.334,1.751,1.952,2.933-.2-.037.517.807.158.717.491.638.116-.227.464-.01.111.2.29.359.227.448-.111-.058-.042.243-.158.1l.311.438-.132-.063c.733.828.923,1.709,1.593,2.442.121.005-.19-.338-.074-.332.707.712.338.823.96,1.514l-.216-.085a1.486,1.486,0,0,1,.606.691c-.074.158-.359-.253-.543-.411.179.285.728.933.686.649a1.615,1.615,0,0,1,.348.691c.037-.016-.137-.364.058-.216a18.27,18.27,0,0,0,1.145,1.714l-.105.058c.527.311.216.475.691,1.044" transform="translate(-255.183 -171.481)" fill="#2c2e50"></path><path id="Path_93669" data-name="Path 93669" d="M490.709,171.346c-.464-.222-1-.485-1.54-.744-.549-.227-1.1-.443-1.561-.68a2.073,2.073,0,0,1-.87-.2l.047-.19-.274-.058c-.079-.1.206.053.058-.095l-.142.063c.011-.074-.617-.332-.148-.269l-.965-.443c-.211-.1-.184.09-.406-.058l.105-.069c-.659-.448-.981.021-1.619-.316h.069c-.132.005-.353-.079-.364-.058.021.211.158-.053.327.127-.074.142-.29-.011-.322.105-.137-.111-.264-.058-.406-.1-.2-.179-.564-.237-.7-.422a1.114,1.114,0,0,1-.564.026c-.137-.185.079-.1-.142-.232l-.068.074c-.2-.084-.153-.1-.132-.137-.211-.079-.216.058-.464-.095l.179-.032a2.3,2.3,0,0,1-.554-.19l.206.037c-.105-.19-.274-.037-.348-.079.01.047.2.137.074.19-.127-.068-.327.021-.4-.111l.179-.042c-.311-.01-.19.069-.512-.058l.032-.042c-.248.058-.49-.127-.8-.222l.069-.005c-.137-.005-.227.058-.3.032.164.1.105.116.095.206-.19-.216-.406.074-.765-.121l.222-.005c.174-.116.227-.243.485-.248-.153-.005-.332-.032-.28-.084l-.084.132-.221-.069c-.063.079.137.2-.084.2-.243-.016-.079-.179-.137-.127-.332-.032-.174.116-.464-.016l.121.011c-.2-.116-.543-.121-.559-.311l.142-.042-.01.026c.274-.058-.211-.021-.095-.158-.011.095-.311-.011-.443-.063l.016.116c-.538.19.079-.206-.385-.29-.306-.011.1.058-.095.084-.19-.074-.243-.185-.538-.222-.069-.063-.222-.148-.211-.274-.19.01-.527-.164-.654-.063.28.158.332-.063.649.158l-.127.095a5.084,5.084,0,0,1-.728-.132l.01.084c-.359-.026-.485.074-.812-.032-.021-.116.174-.058.317-.037-.2-.132-.227-.053-.559-.153,0-.1.227.053.285-.032l-.38-.042.005-.021c-.084.148-.285-.069-.522-.069-.543-.111-.665.084-.986.153l-.047-.137c.121.095.105.037.164.005-.185-.021-.375-.237-.259-.28-.3-.011.09.105-.095.116l-.4-.09c.032.09.169.137-.047.158a3.6,3.6,0,0,1-.485-.09c.037-.032-.053-.137.116-.1a.376.376,0,0,0-.359-.005c.237.105-.422.016-.253.169l-.237-.105.153-.016c-.053-.132-.211.011-.3.011l-.327-.127-.3-.095c-.121.01-.021.079-.058.116l-.4-.063.042-.285c-.158.042-.079.2-.311.158.148-.116-.29-.137-.079-.274a1.252,1.252,0,0,0-.712-.148c-.142.09.216.09.19.2-.586-.037-.654.258-1.076.153l.106.042a.825.825,0,0,0-.406.09c.084-.121-.264-.406-.707-.417-.042.063.232.148.153.248-.095-.005-.2,0-.29,0l.053-.047c-.264.032-.469-.2-.559-.047l-.248-.211.1.09-.4.09a.64.64,0,0,1-.564-.1c.047.058.169.19-.069.2.016-.216-.485-.111-.475-.221l-.274.01.021-.137c-.032.19-.38.158-.644.179.074-.253-.29.005-.4-.237-.058.174-.475.042-.527.19-.206-.005-.179-.163-.227-.221l-.095.058a2.52,2.52,0,0,0-.712-.169l-.216.158-.079-.069c-.037.042-.211.063-.105.121l-.116-.01c-.011.169-.164.047-.39.121l.01-.09c-.116,0-.063-.09-.127-.142.079.042-.417.306-.105.38.021.069-.158.121-.269.09l-.069-.148-.137.158c-.174.021-.253-.074-.39-.09.142-.011.322-.3-.053-.285a1.443,1.443,0,0,0,.4-.137c-.079-.005-.116-.021.005-.084-.3.047-.1.095-.39.116.016-.137-.069-.179-.322-.222l.19.1-.037.037.111.09-.385.09c.3.211-.512.169-.322.29l-.259-.021c.243-.105-.185-.153-.148-.248-.09.042.2.1.074.153a.628.628,0,0,1-.338-.116l.058-.026-.227-.058c-.037.069.221.111.016.148l-.259-.047c.095-.1.021-.216.2-.243-.148.011-.612.032-.422.153l-.174-.005c.111.058.422.158.074.179v-.026l-.237.105-.111-.069-.121.063-.105-.105c-.264.026-.237.09-.269.132-.142.021-.2-.005-.137-.09a2.652,2.652,0,0,1-.691-.026c-.264.079.058.026-.095.127-.243-.222-.892-.032-1.324.026.132.2-.116.032-.185.227.089-.069-.427-.132-.047-.216l-.232.037c-.169-.106.38-.111.126-.248-.264.026-.417.264-.728.206.09-.153-.232.063-.169-.1l.232-.063-.058-.026c-.58-.005-.153.185-.443.306-.348.042-.285-.095-.311-.164l-.322.053c.206-.106.4.063.311.163-.169-.158-.522.021-.606.1.512.142.348-.016.828.142.058-.058.037-.206.322-.164-.169.084.021.084.069.106l.274-.09c.084.063-.153.211.132.227l.037-.206c.116.021-.037.153.2.09-.121.116.053.164-.269.216.4.148.575-.132.87-.227l-.058.058.264-.079c.2.032-.148.1-.1.153l.317-.026.01.016.19-.011-.185.2.322-.164c-.031.069.28.095.047.164l.491-.063.047.132c.116-.032.116-.058-.021-.069.169.021.733-.29.654-.016a4.319,4.319,0,0,1,.986-.185c-.353.127.417.158.037.216.227.058.269-.09.443-.111.169.058.095.19-.079.243l.206-.063-.005.026.179-.079c.2.074.042.137.243.153l.042-.121.137.069c-.053-.053.063-.079.211-.09l-.005.026.174-.026c-.174.074.158.026.079.111a2.231,2.231,0,0,0,.422-.021l-.047-.084c.353-.074.016.121.3.127l-.016-.095c.411.158.7-.1,1,.005-.174.021-.132.132-.127.106a4.082,4.082,0,0,0,.96-.132c.095.137.121.179.4.237.2-.005.232-.011.3-.09.2.063.564.005.57.105.047-.079.174.026.285-.037l.021.042-.01-.095c.338.232.591-.084.928.121l-.063.021.148-.026-.047.121.68.058-.132-.079c.142,0,.248-.09.406-.021-.285.127.227.021.264.132l-.148.026c.2.005.2.005.19-.095.264-.021.164.19.411.106l-.169-.016c-.047-.058.084-.127.2-.121l.016.069c.206-.026.512.042.6.011.105.037.063.1.005.121.443-.053.2.016.638-.016l-.01.053.153-.047.2.142-.068-.079a1.54,1.54,0,0,1,.4.032l-.074.074c.406.005.448.19.844.127l-.068.042c.369-.079.248.174.622.069l-.005.084.169-.032-.026.106.153-.142.084.121.069-.042c.148.227.411.106.622.285l-.021-.142c.633-.19,1.345.3,2.068.332l-.032.105.317-.069c.142.116-.111.074-.069.137.322.005.158-.132.527-.09.174.111-.079.063-.174.084a3.879,3.879,0,0,1,1.1.163l.016-.037a5.479,5.479,0,0,1,.781.148l-.142.042.29.047-.116.074c.19.058.575.047.6.164-.016-.047.011-.121.179-.084.053.179.469.021.717.163l-.185.016a.656.656,0,0,0,.39.005l-.053.053.633.079c.047.185.58.137.512.243.216.063-.163-.121.116-.063.058.084.259.037.222.137l-.032.005.2.047-.148.069c.169.026.322-.042.348-.121.142.1.38.116.422.227l-.063.011c.454.079.649.48,1.044.406l-.042.032.269.079-.09.058.485.005-.021.053c.3.09.754.222,1.134.348l-.063.005c.432.069.375.19.691.243l-.037.011.269.095-.074.026c.237-.037.512.348.427.211.127-.005.343.005.4-.047.3.1.047.09.211.2.211.079.28.005.549.158l-.026.047c.137.037.232.032.422.095l-.063.005c.343.005.316.285.643.153.111.09.364.142.311.243.39.1.691.2,1.071.327-.01.19.085.026.264.222l.021-.1c.522.227,1.013.707,1.593.928l-.026.1.158-.042c.6.306,1.356.712,1.809,1a1.721,1.721,0,0,1,.686.237l-.032-.005a6.749,6.749,0,0,1,1.345.712l-.079.063c.163-.032.274.148.369.206l-.079-.127a.406.406,0,0,1,.348.274l.259.026.016.053.063-.021.047.169c.063.005.353.132.5.079-.005.047.164.2.011.127l.7.517-.09-.111c.037-.09.285.005.375.116-.19-.032-.084.106-.063.206.127.021-.037-.127.042-.137a.985.985,0,0,1,.475.258l-.095-.016c.184.084.169.274.338.38.19.037.258.169.322.01.232.116.021.148.079.206.142.005.411.248.406.343.253-.121.522.459.686.322l.111.211a.24.24,0,0,1,.3-.037c.1.137.011.2.021.264l.211-.1c.607.744,1.641,1.408,2.326,2.184a11.089,11.089,0,0,1,1.282.891l-.063-.016a4.165,4.165,0,0,1,.359.39,3.57,3.57,0,0,0-.221-.327.892.892,0,0,1,.274.169,7.457,7.457,0,0,0,1.44,1.487c.5.153.079.359.517.543l-.116-.005a8.87,8.87,0,0,0,1.055.654c-.2.121.232.211.111.264l.1-.037c.037.116.206.3.126.322l.232.069-.058.079c.179.211.638.607.6.849a12.454,12.454,0,0,1,1.814,1.936,1.411,1.411,0,0,1,.454.369l.053.232c.158.127.422.19.48.385h-.037c.142.148.211.343.411.427.132.185.216.4.089.406.164-.1.269.4.269.4s.417.586,1.071,1.5c.332.454.723.986,1.15,1.572.39.612.818,1.271,1.255,1.952,1.862,2.643,3.587,5.8,4.763,6.789.127.042.311.243.359.106.132.164.026.322.132.311-.079-.274.259-.032.227-.327l.105.142c.079,0-.185-.174-.053-.19l-.179.037a.382.382,0,0,1-.021-.29c-.127-.084-.375-.053-.438-.375l.053.074c-.132-.221.021-.19.021-.253l.026.053-.026-.232c.026.174.285.348.206.227-.106-.3,0,.09-.132-.105-.079-.121.026-.132.074-.148l-.132-.227c.074-.032.079.153.1.021l-.232-.248c.153-.153-.258-.264-.158-.485.158.185.053-.053.127-.053l-.29-.5.079.032c-.005-.121-.132-.132-.158-.185.026-.074-.211-.374-.084-.427-.111-.39-.232-.058-.338-.417.047-.084.158.243.153.058l-.211-.316a.207.207,0,0,1,.206.132c-.411-.944-.259-1.683-.891-2.405.01-.164.106.047.216.09-.485-.506-.338-.923-.67-1.408l-.074.037a16.085,16.085,0,0,0-1.308-2.395l.011.127a1.788,1.788,0,0,1-.364-.332c.021-.042.2-.005.026-.211l-.01.169a22.948,22.948,0,0,0-2.047-3.175c-.575-.67-1.065-1.456-1.672-2.147-.591-.7-1.182-1.4-1.778-2.031.179.2-.042.243-.142.063-.116-.638-.67-.665-.876-1.24a12.976,12.976,0,0,0-2.1-1.946l.053-.079c-.074-.127-.148-.105-.259-.2l.021-.016c-.227-.269-.6-.485-.717-.659l-.084.069c-.158-.137-.021-.137-.216-.237l.042-.037-.248-.095c.142-.127-.411-.417-.475-.591a7.433,7.433,0,0,1-.971-.691c.005-.121-.385-.433-.607-.675-.5-.369-1.208-.9-1.8-1.424l-.063.106-.164-.121.037-.042c-.042-.211-.39-.269-.475-.433.021.148.105.1.2.174.095.153-.1.148-.243-.042l.021-.021-.169-.037-.005-.29a16.321,16.321,0,0,1-1.609-.918c.121-.047-.433-.258-.211-.332-.39-.179-.026.164-.258.164l-.206-.164.074-.111-.243-.148.084-.005c-.533-.232-.776-.67-1.261-.865l.09.169c-.5-.174-.317-.353-.786-.512l.137-.032a.557.557,0,0,1-.454-.174c.016-.116.237.032.369.047-.153-.09-.554-.285-.485-.132-.2-.074-.222-.2-.306-.274-.016.021.137.158,0,.143a6.574,6.574,0,0,0-.907-.586l.047-.069c-.317-.005-.174-.206-.528-.369" transform="translate(-339.675 -119.57)" fill="#2c2e50"></path><path id="Path_93670" data-name="Path 93670" d="M490.66,166.791l.111-.011Z" transform="translate(-358.558 -120.775)" fill="#2c2e50"></path></g></g></g></svg> 