<?xml version="1.0" encoding="UTF-8"?> <svg xmlns="http://www.w3.org/2000/svg" width="116.904" height="134.045" viewBox="0 0 116.904 134.045"><g id="Group_12089" data-name="Group 12089" transform="translate(-948 -1183.867)"><g id="Group_11708" data-name="Group 11708" transform="translate(984.197 1230.465)"><g id="np_interactive_5524042_FFFFFF" transform="translate(0 0)"><path id="Path_89767" data-name="Path 89767" d="M23.937,49.154a2.023,2.023,0,0,1-4.046,0,2.023,2.023,0,0,1,4.046,0" transform="translate(-9.782 -17.816)" fill="#2c2e50"></path><path id="Path_89768" data-name="Path 89768" d="M11.619,48.732c0,4.043-6.065,4.043-6.065,0s6.065-4.043,6.065,0" transform="translate(-5.554 -17.394)" fill="#2c2e50"></path><path id="Path_89769" data-name="Path 89769" d="M78.417,49.154a2.023,2.023,0,0,1-4.046,0,2.023,2.023,0,0,1,4.046,0" transform="translate(-25.849 -17.816)" fill="#2c2e50"></path><path id="Path_89770" data-name="Path 89770" d="M91.908,48.732c0,4.043-6.065,4.043-6.065,0s6.065-4.043,6.065,0" transform="translate(-29.232 -17.394)" fill="#2c2e50"></path><path id="Path_89771" data-name="Path 89771" d="M51.176,21.916a2.022,2.022,0,0,1-4.043,0,2.022,2.022,0,1,1,4.043,0" transform="translate(-17.816 -9.783)" fill="#2c2e50"></path><path id="Path_89772" data-name="Path 89772" d="M51.764,8.587c0,4.043-6.065,4.043-6.065,0s6.065-4.043,6.065,0" transform="translate(-17.394 -5.555)" fill="#2c2e50"></path><path id="Path_89773" data-name="Path 89773" d="M32.539,31.951a2.022,2.022,0,0,1-4.043,0,2.022,2.022,0,1,1,4.043,0" transform="translate(-12.32 -12.743)" fill="#2c2e50"></path><path id="Path_89774" data-name="Path 89774" d="M24.006,22.408c0,4.046-6.065,4.046-6.065,0s6.065-4.043,6.065,0" transform="translate(-9.207 -9.631)" fill="#2c2e50"></path><path id="Path_89775" data-name="Path 89775" d="M69.813,31.951a2.022,2.022,0,0,1-4.043,0,2.022,2.022,0,1,1,4.043,0" transform="translate(-23.313 -12.743)" fill="#2c2e50"></path><path id="Path_89776" data-name="Path 89776" d="M79.522,22.408c0,4.046-6.065,4.046-6.065,0s6.065-4.043,6.065,0" transform="translate(-25.58 -9.631)" fill="#2c2e50"></path><circle id="Ellipse_230" data-name="Ellipse 230" cx="8.517" cy="8.517" r="8.517" transform="translate(23.422 19.163)" fill="#2c2e50"></circle></g></g><g id="BK_New_Logo-01" data-name="BK New Logo-01" transform="translate(948 1183.867)"><path id="Path_93660" data-name="Path 93660" d="M422.948,512.325l-.028-.025Z" transform="translate(-366.336 -378.279)" fill="#2c2e50"></path><path id="Path_93661" data-name="Path 93661" d="M295.25,155.093l.158-.183c-.077.084-.124.139-.158.183" transform="translate(-278.206 -131.574)" fill="#2c2e50"></path><path id="Path_93662" data-name="Path 93662" d="M550.094,436.9l-.034.006Z" transform="translate(-454.1 -326.231)" fill="#2c2e50"></path><path id="Path_93663" data-name="Path 93663" d="M390.881,451.227c-.071-.022-.115-.028-.111,0,.1.022.121.019.111,0" transform="translate(-344.143 -336.108)" fill="#2c2e50"></path><path id="Path_93664" data-name="Path 93664" d="M395.2,476.434l.028-.034Z" transform="translate(-347.201 -353.498)" fill="#2c2e50"></path><path id="Path_93665" data-name="Path 93665" d="M374.67,466.97l.081.019Z" transform="translate(-333.029 -346.988)" fill="#2c2e50"></path><g id="Group_11729" data-name="Group 11729" transform="translate(0 0)"><path id="Path_93666" data-name="Path 93666" d="M247.994,114.5a54.834,54.834,0,0,0-2.338,4.961c-.186.44-.4.864-.564,1.31s-.325.883-.483,1.313c-.322.861-.638,1.691-.948,2.456-.118.719-.362,1.734-.644,2.747l-.263.034-.18.861c-.173.322.152-.657-.118-.081l.047.359c-.1.04-.706,2.14-.449.684a15.783,15.783,0,0,0-.424,1.654l-.375,1.666c-.17.734.1.474-.139,1.273-.105.152.019-.3-.081-.254a6.96,6.96,0,0,0-.328,2.66,9.91,9.91,0,0,1-.167,2.546l0-.2c.006.4-.111,1.143-.074,1.155.279-.269-.071-.427.173-1.112.2.087-.019.886.143.858a5.028,5.028,0,0,0-.059,1.332c-.186.79-.176,1.951-.381,2.546a10.171,10.171,0,0,1,.183,1.688c-.158.6-.152-.149-.211.678l.121.136c-.015.675-.05.57-.105.545a9.586,9.586,0,0,1,.093,1.511l-.118-.5c.046.672.028.948.022,1.883-.068-.019-.065-.393-.047-.672a2.318,2.318,0,0,0,.074,1.146c.031-.081.065-.731.18-.418-.022.465.229.976.105,1.313l-.155-.5a6.189,6.189,0,0,1,.232,1.617c-.012-.059-.04-.028-.068-.05a14.278,14.278,0,0,1,.214,2.651l-.047-.192c.065.415.217.629.242.852-.025-.592.034-.437.142-.5-.074.8.409,1.146.489,2.416-.071-.009-.2-.3-.183-.657a2.771,2.771,0,0,1-.657-1.189c.121.474.238,1.034.133.926l.208.124c.043.291.077.52.108.737.136.105.1-.613.282.043.177.743-.127.43-.025.536.235,1.025.266.4.362,1.406a1.562,1.562,0,0,1-.09-.375c.019.734.347,1.744.177,2a.536.536,0,0,1-.183-.375l.037,0c-.328-.749.186.644-.065.44.105-.081.3.926.375,1.381l.1-.173c.759,1.394-.294-.015.133,1.443.331.911-.056-.362.189.186a8.617,8.617,0,0,0,.4,1.806c.025.269.112.808-.025.9a10.92,10.92,0,0,1,.338,1.09,2.914,2.914,0,0,0,.381.88c-.2-.976-.474-.889-.619-2.06l.238.266c.211.774.629,1.716.756,2.258-.009-.115.012-.177.065-.118.418,1.062.678,1.316,1.044,2.36-.074.186-.288-.427-.474-.864a14.625,14.625,0,0,0,.626,1.75c-.09.1-.266-.7-.421-.774l.483,1.134-.022.009c.254.087.356.867.712,1.533a9.333,9.333,0,0,0,1.675,2.561c.065.263.053.356-.04.279-.108-.431-.139-.331-.254-.446.273.533.406,1.264.183,1,.5.818-.068-.353.263.133l.6,1.158c.019-.186-.177-.6.211-.043.291.489.4.743.771,1.384-.1-.068-.019.282-.294-.2a3.011,3.011,0,0,0,.623.954c-.328-.75.749,1.109.579.5.105.251.223.5.344.74-.1-.158-.167-.139-.294-.381-.012.279.393.539.557.768a8.159,8.159,0,0,1,.5.976,2.942,2.942,0,0,1,.492.876c.245.3.1-.031.208.031l.728,1.075c-.031.108-.167.334-.3.192.35.359.307,0,.731.61-.393-.245.486.864-.046.486a9.794,9.794,0,0,0,1.341,1.9c.359.248-.39-.616-.248-.672,1.2,1.456,1.576,1.3,2.4,2.4-.068-.1-.139-.192-.2-.294a5.614,5.614,0,0,0,.963.836c-.273-.081.276,1.059,1.295,2.05.142.028-.427-.684-.17-.607l.663.663c.037.059-.056,0-.155-.068.622.564.917,1.291,1.239,1.313l.437.771-.167-.313a8.917,8.917,0,0,1,1,.774,5.72,5.72,0,0,1,1.294,1.307c-.077-.164-.279-.561.3-.074-.192.2,1.112,1.137,1.013,1.214.238.192.6.6.7.542l-.149.1c.214-.146,1.041.6,1.756,1.072-.353.139.759.548.883,1.013.251-.065,1.273.833,1.508.762.542.369.372.5.468.654l.3.108a17.987,17.987,0,0,0,1.818,1.428l.678.207.167.211c.121.015.626.279.359.037l.313.2c.136-.167.477.214,1.158.511.13.115.065.136-.087.081.316.189.127.2.263.365-.2-.167,1.341.316.52-.245-.019-.105.52.111.818.313l.1.273.477.028a9.673,9.673,0,0,1,1.059.7c-.415-.208-1.093-.158-.012.4a12.346,12.346,0,0,0-1.214-.446c.22.127.322.2-.062.087.87.393.331.056,1.18.461-.124.13.09.294.805.706l-.5-.381.127.009c-.2-.118-.248-.17-.263-.251.167.084,1.075.285,1.171.446-.734-.65,1.57.533,1.093.124a1.737,1.737,0,0,1,.75.353c-.771-.2.461.412.3.471.288.071-.514-.362-.127-.263a4.188,4.188,0,0,1,.923.561l-.192-.046.635.359c.142-.031-.585-.412.04-.189.146.1.787.3.74.353-.341-.006-.183.223-.725.043.446.158,1.855.681,1.347.313l.523.207c-.307-.2-1.177-.669-.118-.288l-.022.028.774.161c.1.068.192.136.291.2.006-.043.136-.043.409.053.056.071.307.18.263.235.8.263.762.158.883.146.449.139.6.229.365.254.6.245,1.694.508,2.087.728.849.167-.161-.084.356-.053a2.8,2.8,0,0,0,.712.356c.31.1.675.2,1.062.285.777.173,1.638.353,2.335.458-.319-.331.384.046.685-.133-.313.022,1.267.461.046.288l.74.124c.477.242-1.239-.142-.517.2a6.491,6.491,0,0,0,1.146.09,4.566,4.566,0,0,1,1.245.136c-.359.13.765.059.489.22a3.464,3.464,0,0,1-.765-.059l.167.062c1.824.344.564-.13,1.536-.105,1.118.118.861.248.917.344a4.449,4.449,0,0,0,1.038.077c-.7.034-1.251-.26-.92-.341a4.378,4.378,0,0,0,1.967.161c-1.567-.4-1.106-.139-2.567-.548-.214.043-.2.238-1.087.019.573,0-.022-.112-.177-.164.155.136-.626-.053-.9-.053-.232-.127.573-.161-.319-.35l-.214.223c-.347-.1.18-.152-.576-.229.427-.053-.087-.214.935-.093a9.288,9.288,0,0,0-2.818-.328c.1,0,.118-.028.214-.025a4.078,4.078,0,0,1-.855-.1c-.6-.2.511,0,.369-.115-.334-.059-.66-.149-.991-.223l-.022-.025a1.239,1.239,0,0,1-.595-.152c.313-.006.449-.062.66-.077l-1.075-.084c.133-.053-.814-.35-.065-.229-.514-.108-1.022-.229-1.527-.372l-.081-.2c-.369-.077-.39-.046.037.1-.5-.189-2.379-.378-2-.632a31.721,31.721,0,0,1-3.054-.88c1.127.263-1.155-.663,0-.294a5.843,5.843,0,0,0-1.375-.381c-.465-.257-.18-.328.372-.183l-.65-.167.025-.028c-.192-.037-.381-.09-.57-.133-.526-.328-.053-.211-.622-.483l-.186.084-.356-.251c.121.127-.235.006-.663-.164l.025-.028c-.177-.062-.35-.133-.52-.207.536.158-.446-.254-.17-.238-.427-.214-.437-.217-1.223-.57l.09.161c-1.053-.412.025-.158-.787-.567l0,.133c-1.056-.805-2.029-.932-2.8-1.542.492.257.44.065.415.09-.734-.4-1.9-1.084-2.7-1.44-.173-.319-.207-.4-.907-.948a2.075,2.075,0,0,0-.864-.415c-.471-.415-1.487-1.007-1.437-1.127-.177,0-.449-.335-.768-.48l-.028-.087-.028.13c-.706-.9-1.6-.994-2.3-1.9l.167.1-.39-.263c-.025-.087.142.009.2-.031-.548-.477-1.121-.923-1.648-1.422l.26.353a6.386,6.386,0,0,1-1-.824c.768.449-.533-.489-.545-.684l.378.279c-.48-.418-.48-.418-.523-.294-.635-.536-.254-.557-.892-.994l.384.384c.068.161-.282-.04-.539-.294-.05-.074-.2-.291.012-.108-.5-.421-1.158-1.149-1.381-1.332-.217-.282-.074-.257.081-.139-1.034-.938-.418-.471-1.453-1.415l.065-.028-.378-.307-.344-.61.1.242a10.243,10.243,0,0,1-.861-.948l.217.1c-.886-.941-.818-1.257-1.706-2.115-.037-.077.105.053.18.118-.839-.787-.381-.787-1.226-1.579.068.034.028-.09.077-.071l-.365-.378.133-.05-.418-.22c-.028-.111-.053-.226-.074-.341l-.167-.127c-.1-.607-.709-1.137-.976-1.867l-.071.2c-1.35-1.412-2.19-3.791-3.385-5.754l.139-.028-.588-.765c-.146-.5.248.217.235.046-.536-.87-.372-.288-.926-1.335-.183-.585.183.146.35.381-.269-.486-.607-1.087-.9-1.666a15.445,15.445,0,0,1-.641-1.518l-.056,0a22.741,22.741,0,0,1-.957-2.348c.065,0,.149.18.235.365a4.15,4.15,0,0,0-.356-.876l.223.245a8.074,8.074,0,0,1-.61-1.871c-.025.087-.133.093-.3-.421.087-.341-.53-1.375-.675-2.239.077.084.273.691.223.517a4,4,0,0,0-.452-1.124l.115.09c-.223-.635-.418-1.282-.629-1.923.108-.335-.465-1.849-.285-1.75-.146-.706.037.61-.18-.276.034-.254-.217-.8-.074-.787l.037.093c-.043-.207-.105-.412-.136-.622.062.124.136.248.208.369-.142-.53-.313-.907-.424-.914a10.346,10.346,0,0,1-.1-1.5l.062.186a11.188,11.188,0,0,1-.161-1.9,8.048,8.048,0,0,0-.059-.827,4.326,4.326,0,0,0-.139-.824c.012-.087.046-.081.059.1l-.062-.9.118.2-.273-1.468.068.015c-.025-.489-.077-1.118-.139-1.778-.04-.663-.034-1.363-.056-1.994l.034.189c-.112-1.378.062-1.332-.019-2.338l.031.108-.006-.907.068.2a6.145,6.145,0,0,1,.161-1.5,6.086,6.086,0,0,0-.146-1.158c.065-.988.105-.235.207-.842a10.554,10.554,0,0,1,.108-1.809l.065.028c.056-.449.046-.734.13-1.363l0,.189c.009-1.041.384-1.239.208-2.087.118-.418.189-1.239.335-1.171.2-1.267.372-2.252.6-3.512.263-.146.04-.273.344-.991l-.133.025c.254-.867.6-1.778.954-2.7.17-.465.344-.935.514-1.406s.378-.929.536-1.4l.133-.009.019-.415c.424-.982.845-2.134,1.341-3.193.511-1.053,1-2.056,1.369-2.821.09-.266.2-.6.328-.979a7.25,7.25,0,0,1,.582-1.127l-.031.09c.35-.688.715-1.4,1.1-2.109.2-.353.4-.712.6-1.075.232-.344.474-.688.722-1.028-.015.115.108-.006.031.17a4.443,4.443,0,0,1,.746-1.124l-.31.3a3.073,3.073,0,0,1,.852-1.127l.316-.706.118-.087.022-.149c.118-.081.232-.164.359-.235a7.644,7.644,0,0,0,.743-1.319c.087-.025.554-.561.242-.111l1.734-2.156-.307.3c-.13-.037.325-.743.672-1.013-.307.483.1.146.328.025.2-.322-.3.173-.217-.015a7.769,7.769,0,0,1,1.109-1.326l-.155.242c.4-.508.753-.585,1.168-1.062.31-.489.657-.74.431-.8.548-.616.325-.127.526-.3a4.406,4.406,0,0,1,1.267-1.112c.118-.53,1.672-1.449,1.623-1.753a6.225,6.225,0,0,1,.6-.341c-.028-.065-.025-.266.381-.635.449-.273.43-.1.595-.149l.105-.415c.619-.421,1.264-.9,1.926-1.412.164-.127.331-.257.5-.39l.533-.362c.356-.245.718-.492,1.081-.743.725-.5,1.459-1,2.177-1.493s1.483-.883,2.2-1.273c.613-.39,1.3-.83,2.019-1.288.734-.43,1.5-.861,2.264-1.236l-.152.111,1.545-.669-1.152.424c.319-.186.554-.353.88-.5.849-.372,1.871-.725,2.914-1.155,1.065-.384,2.156-.839,3.215-1.254,1.3-.762,1-.084,2.283-.7-.108.062-.139.115-.232.173,1.419-.551,2.205-.793,3.639-1.338-.1.319.966-.223.867-.043l.1-.142c.347,0,1.127-.155,1.034-.046l.632-.266.08.108c.437-.074,1.121-.232,1.762-.331a4.43,4.43,0,0,1,1.483-.05,39.849,39.849,0,0,1,8.409-.669,9.162,9.162,0,0,1,1.833-.1l.672.173a9.467,9.467,0,0,1,1.933-.05l-.071.034c.657-.012,1.27.121,1.889.05.715.074,1.4.214,1.168.328.046-.115.424-.071.79,0,.183.037.362.077.5.115s.22.071.22.071.567.09,1.573.254c.5.084,1.118.164,1.824.3l2.369.5a65.677,65.677,0,0,1,12.791,4.317,68.759,68.759,0,0,1,12.989,7.876c3.741,2.849,6.708,5.553,8.455,7.024.291.146.923.715.805.384.477.452.523.811.7.824-.545-.706.415,0-.065-.737l.4.393c.139.028-.588-.5-.381-.5l-.273.031a2.639,2.639,0,0,1-.471-.737,3.2,3.2,0,0,1-1.347-1.09l.2.2c-.567-.6-.242-.471-.338-.619l.127.133-.415-.57c.335.415,1.05.941.728.613-.638-.762.146.217-.393-.3-.335-.316-.161-.307-.1-.341l-.595-.579c.093-.053.387.39.223.081l-.821-.66c.04-.322-.889-.715-1.072-1.217.588.474.012-.115.155-.09l-1.384-1.226c-.105-.142.415.266.2.087-.211-.285-.468-.334-.6-.461-.071-.161-1.028-.923-.889-1.007-.9-.883-.551-.167-1.394-.979-.053-.18.737.567.4.155l-.966-.737a1.055,1.055,0,0,1,.629.322c-2.471-2.165-3.651-3.624-6.281-5.157-.294-.341.3.1.6.2a19.32,19.32,0,0,1-2.2-1.418,12.49,12.49,0,0,0-1.976-1.326l-.077.074a23.613,23.613,0,0,0-3.732-2.044c-.681-.3-1.375-.61-2.066-.917-.706-.273-1.409-.551-2.094-.846l.307.192a13.956,13.956,0,0,1-1.508-.4c-.056-.071.409-.1-.427-.319.158.09.492.235.375.248a36.313,36.313,0,0,0-5.172-1.744c-.53-.142-1.071-.3-1.62-.43-.554-.118-1.112-.238-1.669-.356l-1.651-.359c-.545-.1-1.084-.189-1.6-.279a74.032,74.032,0,0,0-17.384-.573c.849-.1.508.192-.133.2-1.8-.248-3.013.421-4.828.434-3.181.7-6.117,1.062-8.91,2.32l-.093-.1a5.591,5.591,0,0,0-.982.384v-.034c-1.087.31-2.3.938-2.927,1.118l.012.142c-.616.254-.362.028-.963.372l-.009-.071-.681.437c-.012-.124-.446.059-.945.288a10.672,10.672,0,0,1-1.3.607c-.771.4-2.168,1.254-3.339,1.84a18.84,18.84,0,0,0-2.567,1.3l-1.375.889c-.489.328-.985.7-1.508,1.072-1.034.753-2.156,1.5-3.174,2.252l.13.093-.5.427c-.012-.034-.093.009-.025-.068-.5.189-1.146,1.01-1.626,1.264.347-.105.372-.279.666-.514.465-.288.158.158-.455.564l-.009-.034-.334.381c-.121-.056-.508.189-.632.133a15.106,15.106,0,0,0-1.134,1.022c-.331.35-.647.688-.966,1.022-.635.672-1.282,1.344-2.115,2.1.04-.121-.263.146-.511.427s-.5.523-.434.276c-.842,1.062.285-.034-.006.536-.254.276-.471.613-.582.6.077-.17-.31.13-.121-.112l-.591.681c-.071.053.037-.118.093-.2a24.242,24.242,0,0,1-1.691,1.877,17.494,17.494,0,0,0-1.471,1.877c-.009.149.421-.5.415-.353-.883,1.412-1.022,1.062-1.874,2.36l.1-.322a5.133,5.133,0,0,1-.8,1.319c-.2.04.294-.644.465-1.013-.319.468-1.084,1.679-.74,1.387a4.931,4.931,0,0,1-.811,1.01c.022.028.427-.477.26-.111a21.956,21.956,0,0,0-1.92,2.89c-.025-.025-.108.016-.074-.077-.338.883-.557.644-1.137,1.75" transform="translate(-240.217 -79.562)" fill="#2c2e50"></path><path id="Path_93667" data-name="Path 93667" d="M294.043,173.435A59.2,59.2,0,0,0,293.7,183.5c.161.654.2,1.614.347,2.571l-.149.118.133.8c-.012.331-.093-.613-.093-.028l.13.291c-.065.071.266,2.056-.053.734.149,1.038.3,2.075.523,3.1.133.684.2.372.325,1.13-.012.161-.093-.263-.133-.189a11.708,11.708,0,0,0,.681,2.372,12.356,12.356,0,0,1,.793,2.211l-.071-.167.245.622a2.634,2.634,0,0,0,.152.372c.068-.313-.217-.331-.322-.985.136.016.328.749.412.675a8.482,8.482,0,0,0,.437,1.149c.142.737.632,1.691.731,2.255.17.325.449.647.784,1.35.136.554-.149-.077.133.632l.124.077c.248.573.189.5.146.489.285.6.347.449.681,1.217l-.282-.381c.313.539.412.771.805,1.539-.053.006-.208-.3-.313-.536a2.585,2.585,0,0,0,.539.911c-.006-.081-.291-.6-.077-.39a6.366,6.366,0,0,1,.619,1.047l-.3-.365a7.535,7.535,0,0,1,.811,1.267l-.062-.022a20.2,20.2,0,0,1,1.326,2.066l-.118-.142c.226.313.421.44.533.613-.279-.471-.173-.362-.139-.443.31.66.762.808,1.381,1.806-.047.012-.257-.186-.406-.477a3.167,3.167,0,0,1-.932-.771c.285.347.607.765.5.706l.183.04.4.564c.13.046-.214-.52.192-.043.458.536.127.375.238.427.641.731.356.232.9.988a1.863,1.863,0,0,1-.235-.266,11.555,11.555,0,0,1,1.065,1.508.609.609,0,0,1-.3-.238l.025-.006c-.567-.489.427.446.173.359.028-.09.635.632.9.96l-.022-.161c1.143.87-.2.081.784,1.078.666.595-.217-.26.211.09a14.45,14.45,0,0,0,1.146,1.264c.139.208.48.573.44.678a18.252,18.252,0,0,0,1.452,1.276c-.61-.688-.743-.545-1.434-1.372l.288.133c.548.5,1.248,1.127,1.629,1.474-.065-.081-.084-.13-.022-.105.833.647,1.118.774,1.892,1.44.046.158-.412-.226-.746-.5a9.62,9.62,0,0,0,1.322,1.093c-.006.1-.545-.421-.691-.431l.92.666-.009.012c.217-.015.672.548,1.27.9A10.712,10.712,0,0,0,318,223.867c.189.158.232.226.127.2-.31-.26-.276-.183-.412-.229.477.279.963.746.672.632.771.427-.232-.226.248.019.344.207.675.434,1.028.629-.09-.13-.452-.347.118-.09.471.235.684.369,1.285.7-.1-.019.139.2-.31-.056a3.8,3.8,0,0,0,.938.474c-.641-.4,1.13.5.678.146l.644.384a3.972,3.972,0,0,1-.412-.167c.146.186.564.242.805.347.226.139.846.437.883.486a3.254,3.254,0,0,1,.833.409c.335.121.053-.053.161-.043.369.158.731.328,1.1.474.037.077.074.26-.105.217.446.108.214-.1.858.143-.409-.034.821.4.239.322a9.2,9.2,0,0,0,2.007.749c.393.031-.626-.251-.557-.325,1.672.489,1.833.313,3.054.672l-.313-.108a7.3,7.3,0,0,0,1.155.186c-.121.025.077.158.468.322a10,10,0,0,0,1.62.443c.118-.034-.691-.26-.464-.3l.849.164c.059.022-.037.022-.149.012a6.95,6.95,0,0,0,1.635.319l.753.291-.3-.121c.115-.04.976.093,1.158.09a6.329,6.329,0,0,1,1.679.254c-.149-.065-.517-.214.177-.152-.028.2,1.453.2,1.425.282.282.015.78.108.818.034l-.053.111c.037-.077.313-.1.678-.093s.818-.009,1.211-.016c-.183.214.864,0,1.214.2.149-.139,1.4-.1,1.536-.223a.918.918,0,0,1,.709.155l.279-.062c.31.053,1.449-.031,2.131-.037.2-.062.412-.112.616-.186l.238.028c.1-.046.613-.13.288-.139l.338-.037c.009-.142.471-.1,1.14-.248.158,0,.124.04-.022.077.338-.043.2.05.4.068-.242.006,1.164-.465.254-.365-.071-.046.446-.18.778-.214l.223.09.369-.2c.508-.112.746-.065,1.158-.149-.418.1-.892.452.2.2-.57.155-.842.269-1.14.347.229-.037.347-.043,0,.071.858-.2.276-.115,1.121-.322-.022.121.223.1.973-.031l-.573.046.1-.053c-.214.037-.276.034-.331,0a6.85,6.85,0,0,1,1.106-.328c-.886.034,1.443-.489.876-.468a2.183,2.183,0,0,1,.74-.192c-.672.279.557-.025.468.084.251-.105-.57.074-.232-.065a5.562,5.562,0,0,1,.979-.177l-.167.068c.22-.046.44-.084.654-.145.087-.087-.641.111-.068-.108a6.132,6.132,0,0,1,.731-.2c-.254.167-.019.2-.511.384.412-.149,1.722-.6,1.155-.527l.492-.164c-.325.059-1.214.269-.235-.077v.025c.217-.105.44-.2.654-.316l.313-.062c-.019-.025.077-.09.325-.186.077.006.316-.074.316-.025.722-.291.641-.322.722-.39.4-.167.56-.2.4-.068.558-.208,1.49-.669,1.886-.777.7-.378-.158.046.232-.217a5.869,5.869,0,0,0,1.6-.675c.65-.344,1.357-.743,1.9-1.093-.39.028.3-.2.424-.452-.214.189,1.133-.5.177.108l.591-.365c.458-.158-.957.641-.269.39.678-.39,1.007-.83,1.806-1.279-.189.273.57-.421.452-.183a4.327,4.327,0,0,1-.57.421l.149-.068c1.453-.907.335-.39,1.034-.951.836-.619.718-.4.8-.39a5.607,5.607,0,0,0,.762-.588c-.471.434-.994.629-.8.393a5.477,5.477,0,0,0,1.446-1.109c-1.285.753-.836.6-2.05,1.285-.13.149-.025.242-.756.654.4-.338-.068-.037-.2.025.173-.028-.468.341-.663.5-.226.077.325-.412-.393.022l-.043.229c-.291.158.056-.177-.517.232.276-.273-.164-.053.616-.592a13.941,13.941,0,0,0-2.171,1.468c.074-.056.071-.081.142-.133a5.223,5.223,0,0,1-.657.443c-.523.254.362-.3.207-.263-.266.164-.542.313-.821.455h-.028a1.522,1.522,0,0,1-.508.257c.223-.177.294-.276.44-.4l-.821.557c.068-.1-.765.288-.161-.071-.427.226-.849.471-1.292.669l-.161-.053c-.307.161-.307.186.077.028-.461.18-1.926,1.1-1.778.78-1.025.508-1.415.641-2.691,1.174.969-.44-1.2.263-.149-.142a7.6,7.6,0,0,0-1.214.508c-.477.108-.3-.068.18-.276l-.567.248,0-.025c-.164.074-.325.161-.489.229-.564.1-.149-.077-.718.068l-.093.133-.4.053c.158,0-.17.118-.579.242l0-.025-.492.161c.48-.192-.461.1-.254-.037-.43.1-.44.1-1.214.294l.152.037c-1,.294-.065-.09-.889.093l.068.065c-1.214.111-2.013.452-2.911.52.5-.1.362-.173.356-.146-.759.149-2.01.279-2.794.468a2.887,2.887,0,0,0-1.2-.108,2.335,2.335,0,0,0-.87.155,12.1,12.1,0,0,1-1.691,0c-.133.071-.517,0-.836.068l-.068-.034.05.077c-1.022-.189-1.734.081-2.763-.108l.18-.009-.437,0c-.068-.04.112-.05.133-.093l-2.01-.149.39.087a5.382,5.382,0,0,1-1.2-.077c.815-.025-.666-.081-.784-.189l.434.019c-.589-.062-.589-.062-.548.025-.765-.065-.5-.2-1.214-.229.167.028.331.062.5.084.142.068-.226.084-.56.022-.077-.025-.307-.1-.053-.068-.6-.068-1.49-.257-1.759-.269-.316-.084-.2-.121-.022-.108-1.276-.2-.567-.136-1.846-.338l.031-.04-.446-.04c-.2-.071-.393-.167-.592-.248l.2.115c-.412-.1-.675-.139-1.149-.291l.211-.012c-1.168-.263-1.3-.468-2.413-.725-.071-.034.105,0,.2.015-1.031-.229-.728-.328-1.759-.579.068,0-.031-.065.015-.068L328,227.41l.065-.071-.415-.012-.245-.192-.192-.025c-.421-.325-1.13-.511-1.725-.9l.065.152c-1.744-.461-3.611-1.843-5.513-2.809l.077-.059-.808-.372c-.365-.31.282.084.18-.034-.83-.452-.406-.093-1.357-.647-.43-.369.2.056.446.158-.458-.238-.982-.6-1.49-.923a11.3,11.3,0,0,1-1.242-.889l-.037.012c-.567-.39-1.279-.954-1.864-1.431.043-.022.186.1.341.208a5.872,5.872,0,0,0-.678-.554l.266.124a12.035,12.035,0,0,1-1.372-1.2c.034.068-.047.115-.406-.235-.108-.291-1.038-.889-1.576-1.49.093.043.53.44.409.325a8.158,8.158,0,0,0-.849-.734l.115.037-1.363-1.291c-.09-.294-1.186-1.313-1.028-1.282-.437-.508.325.461-.248-.164-.105-.207-.527-.557-.434-.588l.068.062c-.13-.149-.251-.3-.375-.455l.3.235c-.331-.387-.632-.622-.7-.6a13.161,13.161,0,0,1-.79-1.143l.127.127a11.268,11.268,0,0,1-.963-1.477,9.232,9.232,0,0,0-.867-1.273c-.034-.074-.009-.077.081.062l-.446-.7.164.13c-.273-.368-.564-.731-.827-1.109l.046-.009c-.437-.8-1.189-2.01-1.716-3.06l.1.146a19.4,19.4,0,0,1-.957-1.948l.059.081-.35-.765.118.152a7.024,7.024,0,0,1-.511-1.3,8.162,8.162,0,0,0-.536-.932c-.341-.852-.037-.226-.2-.774-.214-.629-.325-.712-.582-1.576l.05,0c-.152-.393-.251-.635-.424-1.2l.071.161a15.085,15.085,0,0,0-.6-1.852c-.059-.4-.269-1.134-.17-1.118-.18-.57-.31-1.084-.424-1.6s-.248-1.028-.359-1.611c.121-.211-.046-.251-.068-.972l-.071.065c-.285-1.657-.238-3.593-.362-5.426l.077-.056c-.04-.121-.068-.245-.1-.365-.028-1.985.105-4.546.26-6.12a12.739,12.739,0,0,1,.133-2.125v.087a29.664,29.664,0,0,1,.765-4.447c.012.1.068-.043.053.133a4.352,4.352,0,0,1,.285-1.217l-.158.365a3.935,3.935,0,0,1,.387-1.251l.1-.7.065-.115,0-.13.214-.325a10.371,10.371,0,0,0,.276-1.378c.05-.056.285-.669.143-.18.3-.8.595-1.607.911-2.4-.065.118-.124.238-.18.359-.1.016.146-.718.334-1.075-.143.508.09.084.229-.1.093-.338-.183.254-.152.065a8.091,8.091,0,0,1,.588-1.493l-.084.251c.229-.551.471-.743.715-1.276.164-.5.387-.83.22-.793.331-.688.22-.217.35-.431a5.678,5.678,0,0,1,.771-1.357c.028-.465,1.1-1.731,1.034-1.954.13-.164.276-.319.415-.477-.028-.04-.046-.2.22-.635.3-.375.307-.235.424-.328l.037-.362a52.47,52.47,0,0,1,6.163-7.1,35.041,35.041,0,0,1,3.373-3.15l-.121.13c.409-.322.811-.654,1.245-.945-.322.2-.635.418-.935.647a6.329,6.329,0,0,1,.7-.629c1.406-.994,3.3-2.27,5.085-3.41,1.087-.855.849-.347,1.939-1.078-.09.068-.115.112-.2.177,1.217-.709,1.867-1.118,3.119-1.793-.068.245.836-.39.762-.245l.074-.121c.3-.1,1-.338.923-.254l.542-.322.081.056a12.8,12.8,0,0,1,2.886-.935,35.478,35.478,0,0,1,7.6-1.883,9.2,9.2,0,0,1,1.672-.307l.632.019a7.92,7.92,0,0,1,1.768-.248l-.062.031c.6-.056,1.18-.068,1.744-.167.666-.009,1.31.028,1.109.121.031-.081.384-.084.725-.065a5.629,5.629,0,0,1,.678.071s.533.022,1.477.056c.474.006,1.05.05,1.713.115s1.418.1,2.239.229a51.1,51.1,0,0,1,12.168,3.066,47.751,47.751,0,0,1,6.522,3.072,49.438,49.438,0,0,1,5.782,3.778,67.66,67.66,0,0,1,7.523,6.792c.235.17.762.749.647.458.4.455.462.756.6.8-.471-.675.322.077-.1-.613l.338.393c.112.05-.489-.514-.328-.477l-.207-.025a3.179,3.179,0,0,1-.415-.688,4.864,4.864,0,0,1-1.14-1.112l.18.189c-.511-.567-.242-.412-.328-.548l.111.127-.375-.533c.288.4.917.926.629.613-.579-.712.13.2-.338-.3-.288-.313-.152-.276-.105-.291l-.514-.57c.068-.028.334.381.18.1-.235-.223-.458-.455-.706-.663,0-.248-.8-.687-1-1.118.52.465,0-.087.115-.046-.4-.409-.815-.8-1.245-1.171-.1-.127.372.263.17.1a2.878,2.878,0,0,0-.548-.44c-.081-.133-.945-.861-.842-.9-.855-.79-.474-.2-1.273-.929-.068-.146.678.53.35.17l-.889-.688a1.293,1.293,0,0,1,.557.325c-.567-.511-1.1-.92-1.579-1.329s-.914-.8-1.375-1.14-.907-.691-1.4-1.038a18.832,18.832,0,0,0-1.66-.979c-.3-.269.273.093.545.189-.455-.232-.83-.446-1.161-.65s-.638-.372-.926-.554a13.415,13.415,0,0,0-1.908-1.081l-.059.05a38.526,38.526,0,0,0-7.5-2.973l.3.133c-.381-.037-.969-.2-1.409-.288-.059-.05.35-.056-.424-.238.155.062.471.18.365.186a35.328,35.328,0,0,0-4.887-1.174c-.994-.18-2.047-.3-3.088-.44-1.044-.081-2.075-.214-3.044-.254a52.534,52.534,0,0,0-15.931,1.753c.756-.217.477.034-.1.158-1.648.142-2.67.861-4.292,1.223a41.184,41.184,0,0,0-7.64,3.661l-.087-.043a6.94,6.94,0,0,0-.818.52l0-.025c-.92.483-1.908,1.264-2.422,1.564l.019.1a6.98,6.98,0,0,0-.8.514l-.012-.046c-.189.158-.362.338-.542.5-.037-.17-1.394,1.031-1.83,1.27-.585.542-1.722,1.533-2.626,2.329a18.933,18.933,0,0,0-2,1.744,63,63,0,0,0-4.45,5.15l.108.028-.353.5c-.012-.022-.071.037-.025-.043a18.887,18.887,0,0,0-1.137,1.524c.245-.207.254-.344.458-.626.338-.375.13.065-.3.588l-.012-.025-.208.415c-.1,0-.356.328-.452.328-.269.424-.52.815-.743,1.2s-.415.765-.616,1.14c-.421.743-.793,1.518-1.291,2.425.009-.115-.161.217-.325.523s-.3.6-.279.378c-.48,1.152.2-.13.059.431a3.064,3.064,0,0,1-.347.694c.034-.164-.208.217-.1-.047l-.341.759c-.043.068.009-.108.04-.2-.294.8-.6,1.48-.907,2.146a18.678,18.678,0,0,0-.762,2.06c.016.124.22-.561.235-.44-.418,1.471-.52,1.251-.886,2.632l.016-.3a7.014,7.014,0,0,1-.338,1.381c-.118.105.081-.647.158-1-.161.5-.458,1.784-.279,1.415a6.253,6.253,0,0,1-.378,1.13c.019.015.208-.548.155-.186-.238.815-.536,2.094-.715,3.116-.022-.012-.068.053-.062-.04a17.936,17.936,0,0,1-.378,1.861" transform="translate(-277.089 -113.871)" fill="#2c2e50"></path><path id="Path_93668" data-name="Path 93668" d="M282.922,317.018c.746.889,1.775,1.976,2.5,2.862a2.952,2.952,0,0,1,.765.629l-.093.136.242.192c.047.124-.177-.155-.077.05l.152.018c-.028.056.492.61.068.307.263.294.52.592.805.87.18.192.2.015.378.251.006.074-.1-.053-.121.006.523.706.926.5,1.437,1.127l-.062-.034c.127.068.3.26.325.245.037-.186-.164-.04-.269-.285.111-.081.266.167.328.081.1.167.238.186.362.291.146.254.483.483.564.7a1.475,1.475,0,0,1,.554.266c.084.223-.105.04.081.266l.087-.028c.164.17.124.161.093.183.183.173.226.065.427.313l-.183-.062a5.534,5.534,0,0,1,.5.421c-.034.031-.133-.056-.2-.13.059.2.266.158.331.229,0-.043-.161-.2-.025-.189.115.115.334.139.359.285l-.186-.056c.3.17.2.04.477.313l-.04.018c.254.081.437.356.709.6l-.065-.028c.13.074.235.071.291.124-.13-.167-.071-.149-.037-.22.127.276.409.155.715.48-.034.031-.152.009-.22-.1-.2.012-.291.093-.539-.037.149.087.316.2.248.214l.121-.065c.084.059.142.115.2.161.084-.037-.084-.226.136-.124.238.13.034.186.1.167.322.183.2-.012.458.232l-.121-.065c.17.192.508.359.477.523-.05,0-.084.034-.152-.034l.016-.016c-.288-.084.2.118.053.173.034-.077.307.155.424.263l.016-.105c.588.1-.13.13.313.421.3.155-.087-.1.118-.025a1.91,1.91,0,0,0,.5.415c.056.084.183.229.136.322.192.08.483.387.635.369-.235-.266-.347-.108-.6-.446l.152-.019a7.832,7.832,0,0,1,.691.462l.012-.074a4.172,4.172,0,0,1,.8.418c-.009.105-.186-.037-.328-.121.167.2.208.158.52.39-.028.081-.22-.143-.3-.105.121.077.251.143.375.211l-.009.012c.124-.081.273.18.517.285a2.238,2.238,0,0,0,1.053.31c.059.081.065.124.016.13-.1-.13-.1-.077-.164-.074.186.1.322.353.2.338.3.139-.065-.124.13-.053l.384.248c-.012-.087-.139-.186.087-.105a5.11,5.11,0,0,1,.486.266c-.05.012.022.13-.149.034a.568.568,0,0,0,.369.158c-.22-.192.437.17.3-.022l.22.189c-.056-.031-.083,0-.161-.053.022.13.217.087.31.124.077.065.3.2.3.245.093.019.276.142.285.211.127.047.04-.056.09-.065l.393.226c-.006.062-.043.223-.115.211.18.031.133-.124.365-.006-.186.034.273.226.016.251a1.842,1.842,0,0,0,.709.4c.17-.015-.208-.155-.152-.229.607.257.753.047,1.168.3l-.1-.077a1.186,1.186,0,0,0,.446.087c-.124.065.18.43.647.592.062-.037-.211-.208-.1-.257l.31.112-.068.019c.285.077.446.347.576.26l.211.269-.081-.111c.059-.034.369.077.44.084a.946.946,0,0,1,.57.3c-.037-.065-.13-.22.118-.133-.071.177.489.266.449.35.1.034.26.152.3.087l-.056.1c.081-.139.443,0,.731.077-.136.18.313.1.369.331.1-.118.514.136.6.034.217.071.152.2.189.26l.118-.019a3.523,3.523,0,0,0,.737.331l.269-.059.068.074c.046-.022.245.012.139-.062l.124.04c.05-.121.186.012.449.028.053.034.028.059-.031.062.124.034.053.081.108.139-.077-.056.511-.09.192-.235-.009-.056.2-.034.31.022l.043.124.177-.065c.2.037.254.133.409.177-.161-.034-.409.105.006.2a2.846,2.846,0,0,0-.461-.016c.084.025.124.047-.022.056.331.046.124-.028.449.028-.043.084.04.127.316.211l-.2-.1.047-.015c-.077-.025-.1-.043-.1-.081.065.012.4-.028.44.034-.285-.2.588.025.4-.093l.279.077c-.282,0,.177.133.121.173.105,0-.2-.1-.053-.1a1.181,1.181,0,0,1,.347.142h-.071l.239.084c.049-.025-.223-.111.009-.081l.273.084c-.121.025-.056.1-.254.077.161.028.675.121.486.019l.192.04c-.115-.05-.437-.173-.053-.1l-.006.012.279.009.108.053c0-.015.046-.022.146,0l.1.068c.288.046.273.012.313,0,.161.025.22.046.136.065.22.043.607.1.753.152.3.028-.059-.022.121-.022a6.985,6.985,0,0,0,1.456.254c-.124-.062.133.009.229-.019-.108,0,.455.09.028.05l.26.028c.173.04-.434-.031-.17.028.294.025.489.012.83.062-.118.006.266.025.177.034-.071,0-.167-.012-.263-.022l.059.009a2.851,2.851,0,0,0,.523.025c.387.047.3.043.325.05.074.006.245.025.359.034-.238-.019-.437-.05-.328-.043.17.028.576.065.681.081-.551-.074-.384-.043-.9-.127a2.173,2.173,0,0,1-.372-.037c.2.019-.012-.009-.065-.022a2.611,2.611,0,0,1-.313-.034c-.084-.022.192,0-.124-.053l-.065.022c-.124-.022.056-.015-.208-.046.146,0-.037-.037.316.015a5.409,5.409,0,0,0-.982-.121h.071c-.071,0-.2-.019-.3-.031-.214-.053.177.006.121-.019-.118-.015-.232-.043-.35-.065l-.009-.006a.768.768,0,0,1-.211-.043c.108,0,.152-.006.223-.006l-.372-.04c.043-.009-.294-.1-.031-.056l-.539-.111-.037-.056c-.13-.022-.136-.012.015.028-.18-.056-.836-.093-.715-.173-.43-.056-.582-.1-1.1-.192.4.047-.427-.2-.009-.111-.232-.1-.3-.04-.492-.081-.17-.077-.074-.127.124-.1l-.232-.034.006-.012-.2-.016c-.2-.1-.025-.087-.235-.158l-.065.053-.133-.081c.046.046-.084.025-.242-.016l.006-.016-.192-.04c.2.009-.167-.065-.068-.093-.161-.05-.164-.05-.458-.124l.037.065c-.393-.065.006-.081-.3-.177l0,.065c-.409-.248-.759-.189-1.062-.365.189.046.167-.047.158-.028a5.753,5.753,0,0,0-1.047-.257c-.071-.142-.084-.183-.362-.334-.214-.068-.251-.068-.341-.028-.189-.121-.6-.2-.582-.279-.071.046-.18-.077-.313-.065l-.012-.04-.009.084c-.307-.3-.654-.127-.966-.409l.071,0-.167-.028.081-.081-.712-.276.121.108a1.012,1.012,0,0,1-.434-.136c.325.009-.232-.1-.245-.207l.161.034c-.208-.081-.208-.081-.223,0-.279-.087-.127-.22-.406-.245l.173.077c.034.065-.118.071-.235.022-.025-.025-.093-.093,0-.062-.223-.062-.523-.232-.629-.242-.105-.071-.043-.108.025-.1-.48-.127-.2-.1-.678-.226l.025-.037-.177-.015-.177-.192.053.09a1.871,1.871,0,0,1-.409-.183l.1-.028c-.424-.164-.424-.331-.852-.431l.084-.009c-.406-.077-.217-.238-.638-.3l.028-.065-.183-.04.053-.074-.2.056-.059-.133-.084.009c-.1-.238-.393-.26-.567-.5l-.012.124c-.7-.118-1.291-.842-2.044-1.155l.059-.071-.341-.084c-.118-.155.133-.009.108-.08-.331-.146-.2.037-.564-.158-.149-.164.1-.018.2.006a5.411,5.411,0,0,1-1.081-.613l-.025.025A4.631,4.631,0,0,1,298.7,329c.028-.031.09,0,.155.037-.084-.062-.183-.167-.279-.18l.133,0c-.173-.136-.561-.319-.551-.421,0,.043-.046.093-.2-.016-.006-.173-.461-.245-.669-.48l.186.077a.8.8,0,0,0-.39-.183l.065-.022c-.211-.112-.421-.226-.622-.353,0-.176-.545-.39-.446-.443-.2-.158.133.18-.133,0-.034-.1-.248-.155-.183-.217l.034.012-.183-.13.167.016c-.164-.1-.331-.118-.381-.068-.115-.152-.347-.276-.362-.39l.068.025c-.437-.279-.514-.715-.917-.861l.05,0-.238-.207.1,0-.468-.257.034-.031c-.251-.238-.681-.567-1.031-.846l.065.028c-.406-.276-.316-.35-.61-.554l.04.012-.235-.217.081.016c-.238-.09-.409-.554-.359-.393-.127-.059-.331-.18-.4-.164-.26-.235-.022-.1-.155-.276-.18-.177-.273-.146-.486-.415l.037-.028c-.118-.108-.211-.158-.372-.313l.062.031c-.322-.192-.223-.418-.564-.483-.081-.136-.3-.322-.229-.375-.356-.285-.629-.511-.963-.818.062-.155-.071-.065-.192-.328l-.047.068c-.434-.471-.771-1.146-1.264-1.648l.047-.068-.161-.047c-.458-.6-1.044-1.384-1.428-1.849a2.41,2.41,0,0,1-.595-.564l.028.019a10.549,10.549,0,0,1-1.047-1.356c.05.009.034-.053.09-.013-.155-.062-.211-.276-.285-.381l.04.155a.6.6,0,0,1-.251-.431l-.229-.164v-.059l-.062-.016.009-.18c-.053-.043-.269-.322-.415-.356.015-.04-.1-.263.022-.115l-.511-.83.053.146c-.056.059-.26-.158-.313-.3.164.13.105-.046.108-.152-.108-.087,0,.133-.071.1a1.523,1.523,0,0,1-.375-.483l.084.065c-.152-.17-.087-.338-.2-.523-.155-.139-.18-.3-.276-.189-.17-.235.025-.146-.012-.232a.86.86,0,0,1-.26-.533c-.254-.034-.331-.706-.508-.675l-.037-.251c-.043.016-.158.025-.269-.133-.043-.183.05-.186.065-.254l-.2-.028c-.31-1.019-1.087-2.171-1.391-3.289a12.7,12.7,0,0,1-.787-1.564l.043.053-.17-.57.084.43a2.082,2.082,0,0,1-.173-.313,12.847,12.847,0,0,0-.753-2.2c-.344-.431.056-.384-.229-.808l.09.071a13.151,13.151,0,0,0-.622-1.233c.2,0-.115-.331,0-.313l-.087-.022c.016-.127-.04-.406.025-.381l-.155-.2.071-.04c-.074-.3-.313-.938-.2-1.137a13.522,13.522,0,0,1-.709-2.886,1.793,1.793,0,0,1-.2-.616l.056-.251c-.065-.217-.223-.434-.2-.654l.028.022a2.16,2.16,0,0,0-.161-.647c-.034-.251-.025-.5.074-.437-.161,0-.062-.53-.062-.53s-.074-.805-.189-2.063c-.071-.626-.1-1.372-.143-2.183a16.912,16.912,0,0,0-.22-2.6,83.294,83.294,0,0,1-.815-9.372,2.807,2.807,0,0,0-.009-.294c.006-.208.006-.238.009-.384-.009.316,0-.1-.012.211l.012-.2c-.006.081-.006.077-.012.22v.056c-.009.133-.016.211-.022.3-.006.152.009.248-.015.607l0-.1c-.012.291-.022.177-.028.239l0-.065-.025.245c.019-.186.022-.5.012-.331-.031.347.009-.09,0,.17-.009.161-.019.115-.025.108l-.022.291c-.012-.012.016-.192-.006-.074l-.016.365c-.043.065-.009.4-.065.564.012-.263-.019.022-.028-.022-.022.214-.037.43-.047.644-.012.062-.006-.17-.009-.074a1.287,1.287,0,0,0,0,.266l-.071.461c-.062.437.046.189-.006.595-.034.053.012-.325-.031-.146l-.019.424a.409.409,0,0,1-.028-.245,25.918,25.918,0,0,0-.409,2.812c-.068.149-.031-.108-.062-.214a11.668,11.668,0,0,1-.266,1.728l.056.012a18.984,18.984,0,0,0-.257,3.051l.04-.127a3.25,3.25,0,0,1,.152.533c-.031.028-.161-.115-.1.183.018-.062.031-.192.071-.155a16.782,16.782,0,0,0,0,1.9c.053.762.145,1.592.183,2.326.127.982.313,2,.443,3.02.158,1.016.375,2.022.591,2.973-.068-.288.124-.2.13.025-.124.66.319,1.013.291,1.669a16.863,16.863,0,0,0,.991,3.054l-.071.046c.016.161.081.186.139.341l-.022,0c.084.387.35.8.387,1.022l.09-.019c.09.214-.022.136.112.341l-.047.009.18.229c-.158.031.223.616.223.818.127.276.415.774.576,1.2a4.453,4.453,0,0,0,.3.966c.155.313.325.7.533,1.093s.424.811.613,1.214l.084-.062.112.2-.043.016c-.022.214.276.458.3.657.028-.149-.062-.152-.121-.269-.043-.192.127-.077.2.173l-.022.006.127.13c-.062.056-.022.214-.084.273.4.65.784,1.028,1.146,1.722-.118-.022.3.474.093.421.288.375.068-.133.273-.006.065.115.17.211.133.263-.065-.034-.025.142-.093.059l.183.257-.077-.037c.43.486.542,1,.935,1.434.071,0-.111-.2-.043-.2.415.418.2.483.564.889l-.127-.05a.872.872,0,0,1,.356.406c-.043.093-.211-.149-.319-.242.105.167.427.548.4.381a.948.948,0,0,1,.2.406c.022-.009-.081-.214.034-.127a10.718,10.718,0,0,0,.672,1.007l-.062.034c.31.183.127.279.406.613" transform="translate(-262.081 -213.844)" fill="#2c2e50"></path><path id="Path_93669" data-name="Path 93669" d="M474.191,168.408c-.273-.13-.588-.285-.9-.437-.322-.133-.647-.26-.917-.4a1.216,1.216,0,0,1-.511-.118l.028-.112-.161-.034c-.047-.059.121.031.034-.056l-.084.037c.006-.043-.362-.2-.087-.158l-.567-.26c-.124-.059-.108.053-.238-.034l.062-.04c-.387-.263-.576.012-.951-.186h.04c-.077,0-.207-.046-.214-.034.012.124.093-.031.192.074-.043.084-.17-.006-.189.062-.081-.065-.155-.034-.238-.059-.118-.105-.331-.139-.409-.248a.654.654,0,0,1-.331.015c-.081-.108.046-.059-.084-.136l-.04.043c-.115-.05-.09-.059-.077-.081-.124-.046-.127.034-.273-.056l.105-.019a1.35,1.35,0,0,1-.325-.111l.121.022c-.062-.111-.161-.022-.2-.046.006.028.115.081.043.111-.074-.04-.192.012-.232-.065l.105-.025c-.183-.006-.111.04-.3-.034L467.6,166c-.146.034-.288-.074-.468-.13l.04,0c-.081,0-.133.034-.173.019.1.059.062.068.056.121-.112-.127-.238.043-.449-.071l.13,0c.1-.068.133-.142.285-.146-.09,0-.2-.019-.164-.05l-.05.077-.13-.04c-.037.046.081.115-.05.118s-.046-.105-.081-.074c-.2-.019-.1.068-.273-.009l.071.006c-.118-.068-.319-.071-.328-.183l.084-.025-.006.015c.161-.034-.124-.012-.056-.093-.006.056-.183-.006-.26-.037l.009.068c-.316.111.046-.121-.226-.17-.18-.006.059.034-.056.05-.111-.043-.142-.108-.316-.13-.04-.037-.13-.087-.124-.161-.111.006-.31-.1-.384-.037.164.093.2-.037.381.093l-.074.056a2.974,2.974,0,0,1-.427-.077l.006.05c-.211-.016-.285.043-.477-.019-.012-.068.1-.034.186-.022-.118-.077-.133-.031-.328-.09,0-.056.133.031.167-.019l-.223-.025,0-.012c-.049.087-.167-.04-.307-.04-.319-.065-.39.05-.579.09l-.028-.081c.071.056.062.022.1,0-.108-.012-.22-.139-.152-.164-.177-.006.053.062-.056.068l-.232-.053c.019.053.1.081-.028.093a2.109,2.109,0,0,1-.285-.053c.022-.019-.031-.081.068-.059a.221.221,0,0,0-.211,0c.139.062-.248.009-.149.1l-.139-.062.09-.009c-.031-.077-.124.006-.177.006l-.192-.074-.177-.056c-.071.006-.012.046-.034.068l-.235-.037.025-.167c-.093.025-.046.115-.183.093.087-.068-.17-.081-.047-.161a.735.735,0,0,0-.418-.087c-.084.053.127.053.112.115-.344-.022-.384.152-.632.09l.062.025a.484.484,0,0,0-.238.053c.049-.071-.155-.238-.415-.245-.025.037.136.087.09.146-.056,0-.115,0-.17,0l.031-.028c-.155.019-.276-.118-.328-.028l-.146-.124.059.053-.235.053a.376.376,0,0,1-.331-.059c.028.034.1.112-.04.118.009-.127-.285-.065-.279-.13l-.161.006.012-.081c-.019.111-.223.093-.378.105.043-.149-.17,0-.235-.139-.034.1-.279.025-.31.111-.121,0-.105-.1-.133-.13l-.056.034a1.48,1.48,0,0,0-.418-.1l-.127.093-.047-.04c-.022.025-.124.037-.062.071l-.068-.006c-.006.1-.1.028-.229.071l.006-.053c-.068,0-.037-.053-.074-.084.047.025-.245.18-.062.223.012.04-.093.071-.158.053l-.04-.087-.081.093c-.1.012-.149-.043-.229-.053.084-.006.189-.173-.031-.167a.846.846,0,0,0,.235-.08c-.046,0-.068-.012,0-.05-.173.028-.059.056-.229.068.009-.081-.04-.105-.189-.13l.112.059-.022.022.065.053-.226.053c.173.124-.3.1-.189.17l-.152-.012c.142-.062-.108-.09-.087-.146-.053.025.115.059.043.09a.369.369,0,0,1-.2-.068l.034-.016-.133-.034c-.022.04.13.065.009.087l-.152-.028c.056-.056.012-.127.115-.142-.087.006-.359.019-.248.09l-.1,0c.065.034.248.093.043.105v-.016l-.139.062-.065-.04-.071.037-.062-.062c-.155.015-.139.053-.158.077-.084.012-.118,0-.081-.053a1.557,1.557,0,0,1-.406-.016c-.155.046.034.016-.056.074-.143-.13-.523-.019-.777.016.077.118-.068.019-.108.133.053-.04-.251-.077-.028-.127l-.136.022c-.1-.062.223-.065.074-.146-.155.016-.245.155-.427.121.053-.09-.136.037-.1-.059l.136-.037-.034-.015c-.341,0-.09.108-.26.18-.2.025-.167-.056-.183-.1l-.189.031c.121-.062.235.037.183.1-.1-.093-.307.012-.356.056.3.084.2-.009.486.084.034-.034.022-.121.189-.1-.1.05.012.05.04.062l.161-.053c.05.037-.09.124.077.133l.022-.121c.068.012-.022.09.115.053-.071.068.031.1-.158.127.232.087.338-.077.511-.133l-.034.034.155-.046c.118.019-.087.059-.056.09l.186-.015.006.009.112-.006-.108.118.189-.1c-.019.04.164.056.028.1l.288-.037.028.077c.068-.019.068-.034-.012-.04.1.012.431-.17.384-.009a2.536,2.536,0,0,1,.579-.108c-.207.074.245.093.022.127.133.034.158-.053.26-.065.1.034.056.112-.046.143l.121-.037,0,.016.105-.046c.115.043.025.08.142.09l.025-.071.081.04c-.031-.031.037-.046.124-.053l0,.015.1-.015c-.1.043.093.015.046.065a1.308,1.308,0,0,0,.248-.012l-.028-.05c.207-.043.009.071.177.074l-.009-.056c.242.093.409-.056.588,0-.1.012-.077.077-.074.062a2.4,2.4,0,0,0,.564-.077c.056.081.071.105.232.139.118,0,.136-.006.177-.053.115.037.331,0,.334.062.028-.046.1.015.167-.022l.012.025-.006-.056c.2.136.347-.05.545.071l-.037.012.087-.016-.028.071.4.034-.077-.046c.084,0,.146-.053.239-.012-.167.074.133.012.155.077l-.087.015c.118,0,.118,0,.112-.056.155-.012.1.112.242.062l-.1-.009c-.028-.034.05-.074.115-.071l.009.04c.121-.016.3.025.353.006.062.022.037.059,0,.071.26-.031.115.009.375-.009l-.006.031.09-.028.118.084-.04-.046a.9.9,0,0,1,.235.019l-.043.043c.238,0,.263.111.5.074l-.04.025c.217-.046.146.1.365.04l0,.05.1-.019-.015.062.09-.084.05.071.04-.025c.087.133.242.062.365.167l-.012-.084c.372-.111.79.173,1.214.2l-.019.062.186-.04c.084.068-.065.043-.04.081.189,0,.093-.077.31-.053.1.065-.046.037-.1.05a2.277,2.277,0,0,1,.644.1l.009-.022a3.214,3.214,0,0,1,.458.087l-.084.025.17.028-.068.043c.112.034.338.028.35.1-.009-.028.006-.071.105-.05.031.105.276.012.421.1l-.108.009a.385.385,0,0,0,.229,0l-.031.031.372.046c.028.108.341.081.3.142.127.037-.1-.071.068-.037.034.05.152.022.13.08l-.019,0,.115.028-.087.04c.1.015.189-.025.2-.071.084.059.223.068.248.133l-.037.006c.266.046.381.282.613.238l-.025.019.158.046-.053.034.285,0-.012.031c.173.053.443.13.666.2l-.037,0c.254.04.22.112.406.142l-.022.006.158.056-.043.015c.139-.022.3.2.251.124.074,0,.2,0,.235-.028.173.059.028.053.124.118.124.046.164,0,.322.093l-.016.028c.081.022.136.019.248.056l-.037,0c.2,0,.186.167.378.09.065.053.214.084.183.142.229.059.406.118.629.192-.006.112.05.016.155.13l.012-.056c.307.133.595.415.935.545l-.016.056.093-.025c.35.18.8.418,1.062.585a1.01,1.01,0,0,1,.4.139l-.019,0a3.965,3.965,0,0,1,.79.418l-.046.037c.1-.019.161.087.217.121l-.046-.074a.238.238,0,0,1,.2.161l.152.016.009.031.037-.012.028.1c.037,0,.207.077.294.047,0,.028.1.118.006.074l.409.3-.053-.065c.022-.053.167,0,.22.068-.112-.019-.05.062-.037.121.074.012-.022-.074.025-.08a.578.578,0,0,1,.279.152l-.056-.009c.108.05.1.161.2.223.111.022.152.1.189.006.136.068.012.087.047.121.084,0,.242.146.238.2.149-.071.307.269.4.189l.065.124a.141.141,0,0,1,.177-.022c.059.081.006.115.012.155l.124-.059c.356.437.963.827,1.366,1.282a6.523,6.523,0,0,1,.753.523l-.037-.009a2.458,2.458,0,0,1,.211.229,2.109,2.109,0,0,0-.13-.192.525.525,0,0,1,.161.1,4.379,4.379,0,0,0,.845.873c.291.09.047.211.3.319l-.068,0a5.2,5.2,0,0,0,.619.384c-.118.071.136.124.065.155l.056-.022c.022.068.121.177.074.189l.136.04-.034.046c.105.124.375.356.35.5a7.312,7.312,0,0,1,1.065,1.137.829.829,0,0,1,.266.217l.031.136c.093.074.248.111.282.226h-.022c.084.087.124.2.242.251.077.108.127.232.053.238.1-.059.158.232.158.232s.245.344.629.88l.675.923c.229.359.48.746.737,1.146a33.961,33.961,0,0,0,2.8,3.986c.074.025.183.142.211.062.077.1.016.189.077.183-.046-.161.152-.019.133-.192l.062.084c.046,0-.108-.1-.031-.111l-.105.022a.225.225,0,0,1-.012-.17c-.074-.05-.22-.031-.257-.22l.031.043c-.077-.13.012-.111.012-.149l.016.031-.016-.136c.016.1.167.2.121.133-.062-.173,0,.053-.077-.062-.047-.071.015-.077.043-.087l-.077-.133c.043-.019.047.09.059.012l-.136-.146c.09-.09-.152-.155-.093-.285.093.108.031-.031.074-.031l-.17-.294.046.019c0-.071-.077-.077-.093-.108.016-.043-.124-.22-.049-.251-.065-.229-.136-.034-.2-.245.028-.05.093.142.09.034l-.124-.186a.122.122,0,0,1,.121.077c-.242-.554-.152-.988-.523-1.412.006-.1.062.028.127.053-.285-.3-.2-.542-.393-.827l-.043.022a9.447,9.447,0,0,0-.768-1.406l.006.074a1.051,1.051,0,0,1-.214-.2c.012-.025.118,0,.015-.124l-.006.1a13.482,13.482,0,0,0-1.2-1.864c-.338-.393-.626-.855-.982-1.26s-.694-.824-1.044-1.192c.105.115-.025.142-.084.037-.068-.375-.393-.39-.514-.728a7.616,7.616,0,0,0-1.233-1.143l.031-.046c-.043-.074-.087-.062-.152-.118l.012-.009c-.133-.158-.353-.285-.421-.387l-.05.04c-.093-.081-.012-.081-.127-.139l.025-.022-.146-.056c.084-.074-.242-.245-.279-.347a4.37,4.37,0,0,1-.57-.406c0-.071-.226-.254-.356-.4-.294-.217-.709-.53-1.059-.836l-.037.062-.1-.071.022-.025c-.025-.124-.229-.158-.279-.254.012.087.062.059.115.1.056.09-.059.087-.142-.025l.012-.012-.1-.022,0-.17a9.592,9.592,0,0,1-.945-.539c.071-.028-.254-.152-.124-.2-.229-.105-.015.1-.152.1l-.121-.1.043-.065-.142-.087.05,0c-.313-.136-.455-.393-.74-.508l.053.1c-.291-.1-.186-.207-.462-.3l.081-.019a.327.327,0,0,1-.266-.1c.009-.068.139.019.217.028-.09-.053-.325-.167-.285-.077-.118-.043-.13-.115-.18-.161-.009.012.081.093,0,.084a3.859,3.859,0,0,0-.533-.344l.028-.04c-.186,0-.1-.121-.31-.217" transform="translate(-385.512 -138.008)" fill="#2c2e50"></path><path id="Path_93670" data-name="Path 93670" d="M490.66,166.786l.065-.006Z" transform="translate(-413.097 -139.768)" fill="#2c2e50"></path></g></g></g></svg> 