<?xml version="1.0" encoding="UTF-8"?> <svg xmlns="http://www.w3.org/2000/svg" width="167.469" height="192.024" viewBox="0 0 167.469 192.024"><g id="Group_12087" data-name="Group 12087" transform="translate(-149 -1184.32)"><g id="Group_11736" data-name="Group 11736" transform="translate(149 1184.321)"><g id="BK_New_Logo-01" data-name="BK New Logo-01" transform="translate(0 0)"><path id="Path_93660" data-name="Path 93660" d="M422.96,512.335l-.04-.035Z" transform="translate(-341.862 -320.311)" fill="#2c2e50"></path><path id="Path_93661" data-name="Path 93661" d="M295.25,155.172l.226-.262c-.111.12-.178.2-.226.262" transform="translate(-270.834 -121.481)" fill="#2c2e50"></path><path id="Path_93662" data-name="Path 93662" d="M550.109,436.9l-.049.009Z" transform="translate(-412.595 -278.363)" fill="#2c2e50"></path><path id="Path_93663" data-name="Path 93663" d="M390.929,451.236c-.1-.031-.164-.04-.16,0,.137.031.173.027.16,0" transform="translate(-323.975 -286.324)" fill="#2c2e50"></path><path id="Path_93664" data-name="Path 93664" d="M395.2,476.449l.04-.049Z" transform="translate(-326.44 -300.339)" fill="#2c2e50"></path><path id="Path_93665" data-name="Path 93665" d="M374.67,466.97l.115.027Z" transform="translate(-315.018 -295.092)" fill="#2c2e50"></path><g id="Group_11729" data-name="Group 11729" transform="translate(0 0)"><path id="Path_93666" data-name="Path 93666" d="M251.358,129.606a78.554,78.554,0,0,0-3.35,7.107c-.266.63-.577,1.238-.807,1.877s-.466,1.264-.692,1.881c-.461,1.233-.914,2.422-1.358,3.518-.169,1.029-.519,2.484-.923,3.935l-.377.049-.257,1.233c-.248.461.217-.941-.169-.115l.067.515c-.146.058-1.012,3.066-.643.98a22.609,22.609,0,0,0-.608,2.369l-.537,2.387c-.244,1.051.142.679-.2,1.823-.151.217.027-.43-.115-.364a9.971,9.971,0,0,0-.47,3.811,14.2,14.2,0,0,1-.24,3.647l0-.284c.009.572-.16,1.637-.107,1.655.4-.386-.1-.612.248-1.593.28.124-.027,1.269.2,1.229a7.2,7.2,0,0,0-.084,1.908c-.266,1.131-.253,2.8-.546,3.647a14.57,14.57,0,0,1,.262,2.418c-.226.861-.217-.213-.3.972l.173.2c-.022.967-.071.816-.151.781a13.728,13.728,0,0,1,.133,2.165l-.169-.723c.066.963.04,1.358.031,2.7-.1-.027-.093-.563-.067-.963a3.32,3.32,0,0,0,.107,1.642c.044-.115.093-1.047.257-.6-.031.665.328,1.4.151,1.881l-.222-.714a8.869,8.869,0,0,1,.333,2.316c-.018-.084-.058-.04-.1-.071a20.452,20.452,0,0,1,.306,3.8l-.067-.275c.093.595.311.9.346,1.22-.036-.847.049-.626.2-.719-.107,1.14.586,1.642.7,3.461-.1-.013-.284-.43-.262-.941a3.97,3.97,0,0,1-.941-1.7c.173.679.342,1.482.191,1.327l.3.177c.062.417.111.745.155,1.056.2.151.142-.878.4.062.253,1.065-.182.617-.035.768.337,1.469.382.568.519,2.014a2.241,2.241,0,0,1-.129-.537c.027,1.051.5,2.5.253,2.862a.768.768,0,0,1-.262-.537l.053,0c-.47-1.074.266.923-.093.63.151-.115.426,1.327.537,1.979l.146-.248c1.087,2-.421-.022.191,2.067.475,1.3-.08-.519.271.266a12.349,12.349,0,0,0,.577,2.587c.036.386.16,1.158-.035,1.287a15.618,15.618,0,0,1,.484,1.562,4.175,4.175,0,0,0,.546,1.26c-.293-1.4-.679-1.273-.887-2.95l.342.382c.3,1.109.9,2.458,1.083,3.234-.013-.164.018-.253.093-.169.6,1.522.972,1.886,1.5,3.381-.107.266-.413-.612-.679-1.238a20.939,20.939,0,0,0,.9,2.507c-.129.142-.382-1-.6-1.109l.692,1.624-.031.013c.364.124.51,1.242,1.02,2.2,1.011,2.347,1.6,2.5,2.4,3.669.093.377.075.51-.058.4-.155-.617-.2-.475-.364-.639.39.763.581,1.81.262,1.437.719,1.171-.1-.506.377.191l.861,1.659c.027-.266-.253-.861.3-.062.417.7.568,1.065,1.1,1.983-.142-.1-.027.4-.421-.293a4.31,4.31,0,0,0,.892,1.366c-.47-1.074,1.074,1.588.83.719.151.359.319.71.492,1.06-.138-.226-.24-.2-.422-.546-.018.4.563.772.8,1.1a11.72,11.72,0,0,1,.714,1.4,4.216,4.216,0,0,1,.705,1.256c.35.426.146-.044.3.044l1.043,1.539c-.044.155-.24.479-.435.275.5.515.439,0,1.047.874-.563-.351.7,1.238-.067.7a14.03,14.03,0,0,0,1.921,2.72c.515.355-.559-.883-.355-.963,1.721,2.085,2.258,1.859,3.443,3.438-.1-.142-.2-.275-.293-.421a8.038,8.038,0,0,0,1.38,1.2c-.391-.115.395,1.517,1.854,2.937.2.04-.612-.98-.244-.87l.949.949c.053.084-.08,0-.222-.1.892.807,1.313,1.85,1.775,1.881l.626,1.1-.24-.448a12.779,12.779,0,0,1,1.429,1.109,8.194,8.194,0,0,1,1.854,1.872c-.111-.235-.4-.8.426-.106-.275.288,1.593,1.628,1.451,1.739.342.275.861.865,1,.776l-.213.142c.306-.208,1.491.865,2.516,1.535-.506.2,1.087.785,1.264,1.451.359-.093,1.823,1.193,2.161,1.091.776.528.532.714.67.936l.426.155a25.76,25.76,0,0,0,2.6,2.045l.972.3.24.3c.173.022.9.4.515.053l.448.284c.2-.24.683.306,1.659.732.186.164.093.2-.124.115.453.271.182.288.377.524-.293-.24,1.921.453.745-.35-.027-.151.745.16,1.171.448l.146.39.683.04a13.86,13.86,0,0,1,1.517,1c-.594-.3-1.566-.226-.018.568a17.693,17.693,0,0,0-1.739-.639c.315.182.461.288-.089.124,1.247.563.475.08,1.69.661-.177.186.129.422,1.154,1.012l-.714-.546.182.013c-.288-.169-.355-.244-.377-.359.24.12,1.539.408,1.677.639-1.051-.932,2.249.763,1.566.177a2.488,2.488,0,0,1,1.074.506c-1.1-.28.661.59.426.674.413.1-.736-.519-.182-.377a6,6,0,0,1,1.322.8l-.275-.067.909.515c.2-.044-.839-.59.058-.271.208.146,1.127.426,1.06.506-.488-.009-.262.319-1.038.062.639.226,2.657.976,1.93.448l.75.3c-.439-.28-1.686-.958-.169-.413l-.031.04,1.109.231c.138.1.275.2.417.284.009-.062.2-.062.586.075.08.1.439.257.377.337,1.145.377,1.091.226,1.264.209.643.2.865.328.523.364.856.35,2.427.728,2.99,1.043,1.216.24-.231-.12.51-.075a4.01,4.01,0,0,0,1.02.51c.444.146.967.28,1.522.408,1.114.248,2.347.506,3.345.657-.457-.475.55.066.981-.191-.448.031,1.815.661.067.413l1.06.177c.683.346-1.775-.2-.741.293a9.3,9.3,0,0,0,1.642.129,6.54,6.54,0,0,1,1.784.2c-.515.186,1.1.084.7.315a4.966,4.966,0,0,1-1.1-.084l.24.089c2.613.492.807-.186,2.2-.151,1.6.169,1.233.355,1.313.492a6.373,6.373,0,0,0,1.486.111c-1,.049-1.792-.373-1.318-.488a6.272,6.272,0,0,0,2.817.231c-2.245-.577-1.584-.2-3.678-.785-.306.062-.293.342-1.557.027.821,0-.031-.16-.253-.235.222.2-.9-.075-1.3-.075-.333-.182.821-.231-.457-.5l-.306.319c-.5-.142.257-.217-.825-.328.612-.075-.124-.306,1.34-.133a13.307,13.307,0,0,0-4.037-.47c.142,0,.169-.04.306-.035a5.841,5.841,0,0,1-1.224-.138c-.856-.284.732,0,.528-.164-.479-.084-.945-.213-1.42-.319l-.031-.035a1.774,1.774,0,0,1-.852-.217c.448-.009.643-.089.945-.111l-1.539-.12c.191-.075-1.167-.5-.093-.328-.737-.155-1.464-.328-2.187-.532l-.115-.288c-.528-.111-.559-.066.053.142-.719-.271-3.407-.541-2.866-.905a45.434,45.434,0,0,1-4.375-1.26c1.615.377-1.655-.949,0-.421a8.372,8.372,0,0,0-1.97-.546c-.665-.368-.257-.47.532-.262l-.932-.24.036-.04c-.275-.053-.546-.129-.816-.191-.754-.47-.075-.3-.892-.692l-.266.12-.51-.359c.173.182-.337.009-.949-.235l.035-.04c-.253-.089-.5-.191-.745-.3.768.226-.639-.364-.244-.342-.612-.306-.625-.311-1.752-.816l.129.231c-1.508-.59.036-.226-1.127-.812l0,.191c-1.513-1.154-2.906-1.335-4.006-2.209.705.368.63.093.595.129-1.051-.568-2.729-1.553-3.869-2.063-.248-.457-.3-.577-1.3-1.358a2.972,2.972,0,0,0-1.238-.595c-.674-.594-2.13-1.442-2.059-1.615-.253,0-.643-.479-1.1-.688l-.04-.124-.04.186c-1.012-1.282-2.289-1.424-3.3-2.729l.24.142-.559-.377c-.036-.124.2.013.293-.044-.785-.683-1.606-1.322-2.36-2.036l.373.506a9.144,9.144,0,0,1-1.429-1.18c1.1.643-.763-.7-.781-.98l.541.4c-.688-.6-.688-.6-.75-.422-.909-.768-.364-.8-1.278-1.424l.55.55c.1.231-.4-.058-.772-.421-.071-.106-.28-.417.018-.155-.719-.6-1.659-1.646-1.979-1.908-.311-.4-.107-.368.115-.2-1.482-1.344-.6-.674-2.081-2.028l.093-.04-.541-.439-.492-.874.138.346a14.668,14.668,0,0,1-1.233-1.358l.311.138c-1.269-1.349-1.171-1.8-2.445-3.03-.053-.111.151.075.257.169-1.2-1.127-.546-1.127-1.757-2.263.1.049.04-.129.111-.1l-.523-.541.191-.071-.6-.315c-.04-.16-.075-.324-.107-.488l-.24-.182c-.146-.87-1.016-1.628-1.4-2.675l-.1.288c-1.934-2.023-3.137-5.43-4.849-8.243l.2-.04-.843-1.1c-.209-.714.355.311.337.067-.768-1.247-.532-.413-1.327-1.912-.262-.839.262.209.5.546-.386-.7-.87-1.557-1.282-2.387a22.12,22.12,0,0,1-.918-2.174l-.08,0a32.561,32.561,0,0,1-1.371-3.363c.093,0,.213.257.337.524a5.945,5.945,0,0,0-.51-1.256l.319.35a11.567,11.567,0,0,1-.874-2.68c-.036.124-.191.133-.435-.6.124-.488-.759-1.97-.967-3.208.111.12.39.989.319.741a5.723,5.723,0,0,0-.648-1.611l.164.129c-.319-.91-.6-1.837-.9-2.755.155-.479-.666-2.649-.408-2.507-.209-1.012.053.874-.257-.395.049-.364-.311-1.145-.107-1.127l.053.133c-.062-.3-.151-.59-.2-.892.089.177.2.355.3.528-.2-.759-.448-1.3-.608-1.309a14.835,14.835,0,0,1-.142-2.152l.089.266a16.037,16.037,0,0,1-.231-2.715,11.523,11.523,0,0,0-.084-1.185,6.2,6.2,0,0,0-.2-1.18c.018-.124.066-.115.084.142l-.089-1.287.169.293-.39-2.1.1.022c-.035-.7-.111-1.6-.2-2.547-.058-.949-.049-1.952-.08-2.857l.049.271c-.16-1.974.089-1.908-.027-3.35l.044.155-.009-1.3.1.288a8.8,8.8,0,0,1,.231-2.147,8.72,8.72,0,0,0-.209-1.659c.093-1.415.151-.337.3-1.207a15.115,15.115,0,0,1,.155-2.591l.093.04c.08-.643.067-1.051.186-1.952l0,.271c.013-1.491.55-1.775.3-2.99.169-.6.271-1.775.479-1.677.279-1.815.532-3.225.856-5.031.377-.209.058-.39.492-1.42l-.191.035c.364-1.242.865-2.547,1.366-3.873.244-.665.492-1.34.737-2.014.226-.683.541-1.331.768-2.005l.191-.013.027-.595c.608-1.406,1.211-3.057,1.921-4.574.732-1.508,1.429-2.946,1.961-4.042.129-.382.288-.865.47-1.4a10.382,10.382,0,0,1,.834-1.615l-.044.129c.5-.985,1.025-2,1.579-3.021.284-.506.572-1.02.861-1.539.333-.492.679-.985,1.034-1.473-.022.164.155-.009.044.244a6.364,6.364,0,0,1,1.069-1.611l-.444.435a4.4,4.4,0,0,1,1.22-1.615l.453-1.012.169-.124.031-.213c.169-.115.333-.235.515-.337a10.946,10.946,0,0,0,1.065-1.89c.124-.035.794-.8.346-.16l2.484-3.088-.439.435c-.186-.053.466-1.065.963-1.451-.439.692.142.209.47.036.293-.461-.43.248-.311-.022a11.129,11.129,0,0,1,1.588-1.9l-.222.346c.572-.728,1.078-.839,1.673-1.522.444-.7.941-1.06.617-1.14.785-.883.466-.182.754-.43a6.312,6.312,0,0,1,1.815-1.593c.169-.759,2.4-2.076,2.325-2.511a8.92,8.92,0,0,1,.856-.488c-.04-.093-.036-.382.546-.91.643-.39.617-.146.852-.213l.151-.595c.887-.6,1.81-1.287,2.76-2.023.235-.182.475-.368.714-.559.253-.173.51-.346.763-.519.51-.35,1.029-.705,1.548-1.065,1.038-.714,2.09-1.433,3.119-2.138,1.042-.688,2.125-1.264,3.15-1.823.878-.559,1.868-1.189,2.893-1.846,1.051-.617,2.152-1.233,3.243-1.77l-.217.16,2.214-.958-1.651.608c.457-.266.794-.506,1.26-.723,1.216-.532,2.68-1.038,4.175-1.655,1.526-.55,3.088-1.2,4.605-1.8,1.859-1.091,1.433-.12,3.27-1-.155.089-.2.164-.333.248,2.032-.79,3.159-1.136,5.213-1.917-.146.457,1.384-.319,1.242-.062l.142-.2c.5,0,1.615-.222,1.482-.067l.905-.382.115.155c.626-.106,1.606-.333,2.524-.475a6.345,6.345,0,0,1,2.125-.071,57.083,57.083,0,0,1,12.045-.958,13.125,13.125,0,0,1,2.626-.146l.963.248a13.561,13.561,0,0,1,2.768-.071l-.1.049c.941-.018,1.819.173,2.706.071,1.025.106,2.005.306,1.672.47.067-.164.608-.1,1.131,0,.262.053.519.111.71.164s.315.1.315.1.812.129,2.254.364c.719.12,1.6.235,2.613.43,1,.213,2.143.453,3.394.719a94.08,94.08,0,0,1,18.323,6.185,98.494,98.494,0,0,1,18.607,11.282c5.359,4.082,9.61,7.955,12.112,10.062.417.208,1.322,1.025,1.153.55.683.648.75,1.162,1,1.18-.781-1.012.594,0-.093-1.056l.577.563c.2.04-.843-.714-.546-.714l-.39.044a3.781,3.781,0,0,1-.674-1.056,4.587,4.587,0,0,1-1.93-1.562l.288.284c-.812-.865-.346-.674-.484-.887l.182.191-.594-.816c.479.595,1.5,1.349,1.043.878-.914-1.091.208.311-.563-.426-.479-.453-.231-.439-.138-.488l-.852-.83c.133-.075.555.559.319.115l-1.176-.945c.058-.461-1.273-1.025-1.535-1.744.843.679.018-.164.222-.129l-1.983-1.757c-.151-.2.594.382.284.124-.3-.408-.67-.479-.865-.661-.1-.231-1.473-1.322-1.273-1.442-1.291-1.264-.79-.24-2-1.4-.075-.257,1.056.812.577.222l-1.384-1.056a1.511,1.511,0,0,1,.9.461c-3.54-3.1-5.231-5.191-9-7.387-.421-.488.43.138.861.28a27.675,27.675,0,0,1-3.146-2.032,17.888,17.888,0,0,0-2.831-1.9l-.111.106a33.826,33.826,0,0,0-5.346-2.928c-.976-.435-1.97-.874-2.959-1.313-1.012-.39-2.019-.79-3-1.211l.439.275a19.991,19.991,0,0,1-2.161-.577c-.08-.1.586-.142-.612-.457.226.129.705.337.537.355a52.02,52.02,0,0,0-7.409-2.5c-.759-.2-1.535-.426-2.32-.617-.794-.169-1.593-.342-2.391-.51L353.28,81.2c-.781-.138-1.553-.271-2.294-.4-8.057-1.091-16.9-1.69-24.9-.821,1.216-.138.728.275-.191.288-2.573-.355-4.317.6-6.917.621-4.556,1-8.762,1.522-12.764,3.323l-.133-.138a8.014,8.014,0,0,0-1.406.55v-.049c-1.557.444-3.3,1.344-4.193,1.6l.018.2c-.883.364-.519.04-1.38.532l-.013-.1-.976.626c-.018-.177-.639.084-1.353.413a15.281,15.281,0,0,1-1.868.87c-1.1.568-3.106,1.8-4.783,2.635a26.992,26.992,0,0,0-3.678,1.859c-.6.386-1.264.816-1.97,1.273s-1.411,1.007-2.161,1.535c-1.482,1.078-3.088,2.147-4.547,3.225l.186.133-.723.612c-.018-.049-.133.013-.036-.1-.723.271-1.642,1.446-2.329,1.81.5-.151.532-.4.954-.736.665-.413.226.226-.652.807l-.013-.049-.479.546c-.173-.08-.728.271-.905.191a21.648,21.648,0,0,0-1.624,1.464c-.475.5-.927.985-1.384,1.464-.909.963-1.837,1.926-3.03,3.008.058-.173-.377.209-.732.612s-.719.75-.621.395c-1.207,1.522.408-.049-.009.768-.364.395-.674.878-.834.865.111-.244-.444.186-.173-.16l-.847.976c-.1.075.053-.169.133-.288a34.7,34.7,0,0,1-2.422,2.689,25.041,25.041,0,0,0-2.107,2.689c-.013.213.6-.719.594-.506-1.264,2.023-1.464,1.522-2.684,3.381l.146-.461a7.353,7.353,0,0,1-1.149,1.89c-.279.058.422-.923.666-1.451-.457.67-1.553,2.4-1.06,1.988a7.064,7.064,0,0,1-1.162,1.446c.031.04.612-.683.373-.16a31.463,31.463,0,0,0-2.751,4.139c-.035-.035-.155.022-.106-.111-.483,1.264-.8.923-1.628,2.507" transform="translate(-240.217 -79.562)" fill="#2c2e50"></path><path id="Path_93667" data-name="Path 93667" d="M294.221,192.541a84.813,84.813,0,0,0-.488,14.419c.231.936.288,2.311.5,3.682l-.213.169.191,1.145c-.018.475-.133-.878-.133-.04l.186.417c-.093.1.382,2.946-.075,1.051.213,1.486.435,2.972.75,4.441.191.98.293.532.466,1.619-.018.231-.133-.377-.191-.271a16.767,16.767,0,0,0,.976,3.4,17.712,17.712,0,0,1,1.136,3.168l-.1-.24.35.892a3.771,3.771,0,0,0,.217.532c.1-.448-.311-.475-.461-1.411.2.022.47,1.074.59.967a12.154,12.154,0,0,0,.626,1.646c.2,1.056.9,2.422,1.047,3.23.244.466.643.927,1.122,1.934.2.794-.213-.111.191.905l.178.111c.355.821.271.71.208.7.408.865.5.643.976,1.744l-.4-.546c.448.772.59,1.1,1.153,2.2-.075.009-.3-.435-.448-.767a3.7,3.7,0,0,0,.772,1.3c-.009-.115-.417-.865-.111-.559a9.12,9.12,0,0,1,.887,1.5l-.43-.524a10.794,10.794,0,0,1,1.162,1.815l-.089-.031a28.948,28.948,0,0,1,1.9,2.959l-.169-.2c.324.448.6.63.763.879-.4-.674-.248-.519-.2-.634.444.945,1.091,1.158,1.979,2.587-.067.018-.368-.266-.581-.683a4.538,4.538,0,0,1-1.335-1.1c.408.5.87,1.1.71,1.012l.262.058.568.807c.186.067-.306-.745.275-.062.656.768.182.537.342.612.918,1.047.51.333,1.291,1.415a2.662,2.662,0,0,1-.337-.381,16.554,16.554,0,0,1,1.526,2.161.872.872,0,0,1-.426-.342l.035-.009c-.812-.7.612.639.248.515.04-.129.909.905,1.3,1.375l-.031-.231c1.637,1.247-.288.115,1.122,1.544.954.852-.311-.373.3.129a20.7,20.7,0,0,0,1.642,1.81c.2.3.688.821.63.972a26.17,26.17,0,0,0,2.081,1.828c-.874-.985-1.065-.781-2.054-1.965l.413.191c.785.71,1.788,1.615,2.334,2.112-.093-.115-.12-.186-.031-.151,1.193.927,1.6,1.109,2.711,2.063.067.226-.59-.324-1.069-.723a13.779,13.779,0,0,0,1.894,1.566c-.009.138-.781-.6-.989-.617l1.318.954-.013.018c.311-.022.963.785,1.819,1.3a15.35,15.35,0,0,0,3.563,1.886c.271.226.333.324.182.284-.444-.373-.395-.262-.59-.328.683.4,1.38,1.069.963.905,1.1.612-.333-.324.355.027.492.3.967.621,1.473.9-.129-.186-.648-.5.169-.129.674.337.98.528,1.841,1.007-.146-.027.2.28-.444-.08a5.449,5.449,0,0,0,1.344.679c-.918-.568,1.619.71.972.208l.923.55a5.665,5.665,0,0,1-.59-.24c.209.266.807.346,1.154.5.324.2,1.211.626,1.264.7a4.663,4.663,0,0,1,1.193.586c.479.173.075-.075.231-.062.528.226,1.047.47,1.579.679.053.111.107.373-.151.311.639.155.306-.146,1.229.2-.586-.049,1.176.568.342.461a13.187,13.187,0,0,0,2.875,1.074c.563.044-.9-.359-.8-.466,2.4.7,2.627.448,4.375.963l-.448-.155a10.468,10.468,0,0,0,1.655.266c-.173.035.111.226.67.461a14.336,14.336,0,0,0,2.32.634c.169-.049-.989-.373-.665-.435l1.216.235c.084.031-.053.031-.213.018a9.957,9.957,0,0,0,2.342.457l1.078.417-.426-.173c.164-.058,1.4.133,1.659.129a9.067,9.067,0,0,1,2.4.364c-.213-.093-.741-.306.253-.217-.04.288,2.081.279,2.041.4.4.022,1.118.155,1.171.049l-.075.16c.053-.111.448-.138.971-.133s1.171-.013,1.735-.022c-.262.306,1.238,0,1.739.288.213-.2,2.005-.138,2.2-.319a1.315,1.315,0,0,1,1.016.222l.4-.089c.444.076,2.076-.044,3.052-.053.293-.089.59-.16.883-.266l.342.04c.138-.067.879-.186.413-.2l.484-.053c.013-.2.674-.142,1.633-.355.226,0,.177.058-.031.111.484-.062.293.071.568.1-.346.009,1.668-.665.364-.523-.1-.067.639-.257,1.114-.306l.319.129.528-.288c.728-.16,1.069-.093,1.659-.213-.6.146-1.278.648.288.288-.816.222-1.207.386-1.633.5.328-.053.5-.062,0,.1,1.229-.284.395-.164,1.606-.461-.031.173.319.146,1.393-.044l-.821.066.142-.075c-.306.053-.395.049-.475,0a9.811,9.811,0,0,1,1.584-.47c-1.269.049,2.067-.7,1.256-.67a3.127,3.127,0,0,1,1.06-.275c-.963.4.8-.035.67.12.359-.151-.816.106-.333-.093a7.982,7.982,0,0,1,1.4-.253l-.24.1c.315-.066.63-.12.936-.208.124-.124-.918.16-.1-.155a8.794,8.794,0,0,1,1.047-.293c-.364.24-.027.284-.732.55.59-.213,2.467-.865,1.655-.754l.705-.235c-.466.084-1.739.386-.337-.111v.035c.311-.151.63-.293.936-.453l.448-.089c-.027-.036.111-.129.466-.266.111.009.453-.107.453-.035,1.034-.417.918-.461,1.034-.559.572-.24.8-.293.572-.1.8-.3,2.134-.958,2.7-1.114,1.007-.541-.226.067.333-.311a8.409,8.409,0,0,0,2.294-.967c.932-.492,1.943-1.065,2.724-1.566-.559.04.426-.279.608-.648-.306.271,1.624-.723.253.155l.847-.523c.657-.226-1.371.918-.386.559.972-.559,1.442-1.189,2.586-1.832-.271.39.816-.6.648-.262a6.2,6.2,0,0,1-.816.6l.213-.1c2.081-1.3.479-.559,1.482-1.362,1.2-.887,1.029-.577,1.149-.559a8.026,8.026,0,0,0,1.091-.843c-.674.621-1.424.9-1.149.563a7.845,7.845,0,0,0,2.072-1.588c-1.841,1.078-1.2.856-2.937,1.841-.186.213-.035.346-1.082.936.577-.484-.1-.053-.293.035.248-.04-.67.488-.949.723-.324.111.466-.59-.563.031l-.062.328c-.417.226.08-.253-.741.333.395-.39-.235-.075.883-.847a19.967,19.967,0,0,0-3.11,2.1c.106-.08.1-.115.2-.191a7.493,7.493,0,0,1-.941.634c-.75.364.519-.426.3-.377-.382.235-.776.448-1.176.652h-.04a2.179,2.179,0,0,1-.728.368c.319-.253.422-.395.63-.577l-1.176.8c.1-.142-1.1.413-.231-.1-.612.324-1.216.674-1.85.958l-.231-.075c-.439.231-.439.266.111.04-.661.257-2.76,1.571-2.547,1.118-1.469.728-2.027.918-3.855,1.681,1.389-.63-1.717.377-.213-.2a10.883,10.883,0,0,0-1.739.728c-.683.155-.435-.1.257-.395l-.812.355,0-.035c-.235.107-.466.231-.7.328-.807.138-.213-.111-1.029.1l-.133.191-.572.076c.226,0-.244.169-.83.346l0-.035-.706.231c.688-.275-.661.142-.364-.053-.617.138-.63.142-1.739.422l.217.053c-1.437.422-.093-.129-1.273.133l.1.093c-1.739.16-2.884.648-4.17.745.723-.138.519-.248.51-.208-1.087.213-2.879.4-4,.67a4.136,4.136,0,0,0-1.713-.155,3.345,3.345,0,0,0-1.247.222,17.322,17.322,0,0,1-2.422,0c-.191.1-.741,0-1.2.1l-.1-.049.071.111c-1.464-.271-2.484.115-3.957-.155l.257-.013-.626,0c-.1-.058.16-.071.191-.133l-2.879-.213.559.124a7.708,7.708,0,0,1-1.713-.111c1.167-.036-.954-.115-1.122-.271l.621.027c-.843-.089-.843-.089-.785.035-1.1-.093-.723-.279-1.739-.328.24.04.475.089.71.12.2.1-.324.12-.8.031-.111-.035-.439-.142-.076-.1-.861-.1-2.134-.368-2.52-.386-.453-.12-.288-.173-.031-.155-1.828-.284-.812-.2-2.644-.484l.044-.058-.639-.058c-.288-.1-.563-.24-.847-.355l.293.164c-.59-.146-.967-.2-1.646-.417l.3-.018c-1.673-.377-1.868-.67-3.456-1.038-.1-.049.151,0,.279.022-1.477-.328-1.043-.47-2.52-.83.1,0-.044-.093.022-.1l-.67-.182.093-.1-.594-.018-.35-.275-.275-.036c-.6-.466-1.619-.732-2.471-1.291l.093.217c-2.5-.661-5.173-2.64-7.9-4.024l.111-.084-1.158-.532c-.523-.444.4.12.257-.049-1.189-.648-.581-.133-1.943-.927-.617-.528.284.08.639.226-.657-.342-1.406-.856-2.134-1.322a16.188,16.188,0,0,1-1.779-1.273l-.053.018c-.812-.559-1.832-1.366-2.671-2.05.062-.031.266.142.488.3a8.4,8.4,0,0,0-.972-.794l.381.177a17.24,17.24,0,0,1-1.965-1.726c.049.1-.067.164-.581-.337-.155-.417-1.486-1.273-2.258-2.134.133.062.759.63.586.466a11.677,11.677,0,0,0-1.216-1.052l.164.053-1.952-1.85c-.129-.422-1.7-1.881-1.473-1.837-.626-.728.466.661-.355-.235-.151-.3-.754-.8-.621-.843l.1.089c-.186-.213-.359-.435-.537-.652l.43.337c-.475-.555-.905-.892-1-.861a18.84,18.84,0,0,1-1.131-1.637l.182.182a16.143,16.143,0,0,1-1.38-2.116,13.241,13.241,0,0,0-1.242-1.823c-.049-.106-.013-.111.115.089l-.639-1.007.235.186c-.391-.528-.807-1.047-1.185-1.588l.067-.013c-.626-1.145-1.7-2.879-2.458-4.383l.142.209a27.772,27.772,0,0,1-1.371-2.791l.084.115-.5-1.1.169.217a10.058,10.058,0,0,1-.732-1.863,11.671,11.671,0,0,0-.768-1.335c-.488-1.22-.053-.324-.279-1.109-.306-.9-.466-1.02-.834-2.258l.071,0c-.217-.563-.359-.91-.608-1.713l.1.231a21.6,21.6,0,0,0-.856-2.653c-.084-.572-.386-1.624-.244-1.6-.257-.816-.444-1.553-.608-2.294s-.355-1.473-.515-2.307c.173-.3-.067-.359-.1-1.393l-.1.093c-.408-2.374-.342-5.146-.519-7.773l.111-.08c-.058-.173-.1-.35-.142-.524-.04-2.844.151-6.513.373-8.767a18.252,18.252,0,0,1,.191-3.043v.124a42.506,42.506,0,0,1,1.1-6.371c.018.146.1-.062.075.191a6.231,6.231,0,0,1,.408-1.744l-.226.524a5.638,5.638,0,0,1,.555-1.792l.138-1.007.093-.164,0-.186.306-.466a14.859,14.859,0,0,0,.395-1.974c.071-.08.408-.958.2-.257.426-1.149.852-2.3,1.3-3.438-.093.169-.177.342-.257.515-.146.022.208-1.029.479-1.539-.2.728.129.12.328-.142.133-.484-.262.364-.217.093a11.6,11.6,0,0,1,.843-2.138l-.12.359c.328-.79.674-1.065,1.025-1.828.235-.723.555-1.189.315-1.136.475-.985.315-.311.5-.617a8.131,8.131,0,0,1,1.1-1.943c.04-.665,1.579-2.48,1.482-2.8.186-.235.395-.457.595-.683-.04-.058-.067-.284.315-.909.435-.537.439-.337.608-.47l.053-.519a75.169,75.169,0,0,1,8.829-10.164,50.2,50.2,0,0,1,4.831-4.512l-.173.186c.586-.461,1.162-.936,1.784-1.353-.462.288-.91.6-1.34.927a9.062,9.062,0,0,1,1-.9c2.014-1.424,4.734-3.252,7.285-4.885,1.557-1.224,1.216-.5,2.777-1.544-.129.1-.164.16-.279.253,1.744-1.016,2.675-1.6,4.468-2.569-.1.35,1.2-.559,1.091-.35l.107-.173c.43-.146,1.438-.484,1.322-.364l.776-.461.115.08a18.342,18.342,0,0,1,4.135-1.34,50.826,50.826,0,0,1,10.883-2.7,13.178,13.178,0,0,1,2.4-.439l.9.027a11.345,11.345,0,0,1,2.533-.355l-.089.044c.865-.08,1.69-.1,2.5-.24.954-.013,1.877.04,1.588.173.044-.115.55-.12,1.038-.093a8.067,8.067,0,0,1,.972.1s.763.031,2.116.08c.679.009,1.5.071,2.453.164s2.032.146,3.208.328a73.207,73.207,0,0,1,17.432,4.392,68.413,68.413,0,0,1,9.343,4.4,70.83,70.83,0,0,1,8.283,5.413,96.933,96.933,0,0,1,10.776,9.729c.337.244,1.091,1.074.927.657.572.652.661,1.083.856,1.145-.674-.967.461.111-.146-.878l.484.563c.16.071-.7-.736-.47-.683l-.3-.036a4.555,4.555,0,0,1-.594-.985,6.969,6.969,0,0,1-1.633-1.593l.257.271c-.732-.812-.346-.59-.47-.785l.16.182-.537-.763c.413.572,1.313,1.327.9.878-.83-1.02.186.288-.484-.43-.413-.448-.217-.395-.151-.417l-.737-.816c.1-.04.479.546.257.146-.337-.319-.657-.652-1.012-.949,0-.355-1.149-.985-1.428-1.6.745.666,0-.124.164-.067-.568-.586-1.167-1.14-1.784-1.677-.146-.182.532.377.244.137a4.123,4.123,0,0,0-.785-.63c-.115-.191-1.353-1.233-1.207-1.3-1.225-1.131-.679-.279-1.823-1.331-.1-.209.972.759.5.244l-1.273-.985a1.852,1.852,0,0,1,.8.466c-.812-.732-1.579-1.318-2.263-1.9s-1.309-1.145-1.97-1.633-1.3-.989-2-1.486a27,27,0,0,0-2.378-1.4c-.43-.386.39.133.781.271-.652-.333-1.189-.639-1.664-.932s-.914-.532-1.327-.794a19.215,19.215,0,0,0-2.733-1.548l-.084.071c-3-1.788-7.019-3.052-10.745-4.259l.43.191c-.546-.053-1.389-.28-2.019-.413-.084-.071.5-.08-.608-.342.222.089.674.257.523.266a50.609,50.609,0,0,0-7-1.681c-1.424-.257-2.933-.426-4.423-.63-1.5-.115-2.973-.306-4.361-.364a75.256,75.256,0,0,0-22.822,2.511c1.083-.311.683.049-.146.226-2.36.2-3.824,1.233-6.149,1.752-3.98,1.619-7.6,3-10.945,5.244l-.124-.062a9.935,9.935,0,0,0-1.171.745l0-.035c-1.318.692-2.733,1.81-3.469,2.24l.027.138a10,10,0,0,0-1.145.736l-.018-.067c-.271.226-.519.484-.776.723-.053-.244-2,1.477-2.622,1.819-.839.776-2.467,2.2-3.762,3.336a27.122,27.122,0,0,0-2.862,2.5,90.255,90.255,0,0,0-6.375,7.378l.155.04-.506.714c-.018-.031-.1.053-.035-.062a27.047,27.047,0,0,0-1.628,2.183c.351-.3.364-.492.657-.9.484-.537.186.093-.426.843l-.018-.035-.3.595c-.138,0-.51.47-.648.47-.386.608-.745,1.167-1.065,1.717-.3.559-.595,1.1-.883,1.633-.6,1.065-1.136,2.174-1.85,3.474.013-.164-.231.311-.466.75-.217.448-.426.856-.4.541-.688,1.65.288-.186.084.617a4.387,4.387,0,0,1-.5.994c.049-.235-.3.311-.142-.067l-.488,1.087c-.062.1.013-.155.058-.28-.422,1.14-.861,2.121-1.3,3.075a26.74,26.74,0,0,0-1.091,2.95c.022.177.315-.8.337-.63-.6,2.107-.745,1.792-1.269,3.771l.022-.435a10.055,10.055,0,0,1-.484,1.979c-.169.151.115-.927.226-1.437-.231.71-.657,2.556-.4,2.028a8.966,8.966,0,0,1-.541,1.619c.026.022.3-.785.222-.266-.342,1.167-.767,3-1.025,4.463-.031-.018-.1.075-.089-.058-.04,1.211-.319,1.034-.541,2.666" transform="translate(-269.933 -107.213)" fill="#2c2e50"></path><path id="Path_93668" data-name="Path 93668" d="M287.693,335.586c1.069,1.273,2.542,2.831,3.58,4.1a4.228,4.228,0,0,1,1.1.9l-.133.2.346.275c.067.177-.253-.222-.111.071l.217.027c-.04.08.705.874.1.439.377.422.745.847,1.153,1.247.257.275.293.022.541.359.009.106-.138-.075-.173.009.75,1.012,1.326.719,2.059,1.615l-.089-.049c.182.1.435.373.466.35.053-.266-.235-.058-.386-.408.16-.115.381.24.47.115.142.24.342.266.519.417.208.364.692.692.807,1.007a2.112,2.112,0,0,1,.794.382c.12.32-.151.058.115.382l.124-.04c.235.244.177.231.133.262.262.248.324.093.612.448l-.262-.089a7.933,7.933,0,0,1,.723.6c-.049.044-.191-.08-.284-.186.084.288.382.226.475.328,0-.062-.231-.288-.035-.271.164.164.479.2.515.408l-.266-.08c.426.244.288.058.683.448l-.058.026c.364.115.626.51,1.016.856l-.093-.04c.186.106.337.1.417.177-.186-.24-.1-.213-.053-.315.182.395.586.222,1.025.688-.049.044-.217.013-.315-.146-.293.018-.417.133-.772-.053.213.124.452.28.355.306l.173-.093c.12.084.2.164.293.231.12-.053-.12-.324.2-.177.342.186.049.266.146.24.461.262.293-.018.657.333l-.173-.093c.244.275.728.515.683.75-.071,0-.12.049-.217-.049l.022-.022c-.413-.12.293.169.075.248.049-.111.439.222.608.377l.022-.151c.843.146-.186.186.448.6.435.222-.124-.142.169-.035a2.734,2.734,0,0,0,.71.595c.08.12.262.328.2.461.275.115.692.555.91.528-.337-.382-.5-.155-.865-.639l.217-.027a11.246,11.246,0,0,1,.989.661l.018-.107a5.985,5.985,0,0,1,1.149.6c-.013.151-.266-.053-.47-.173.24.284.3.226.745.559-.04.115-.315-.2-.426-.151.173.111.359.2.537.3l-.013.018c.177-.115.39.257.741.408a3.206,3.206,0,0,0,1.508.444c.084.115.093.177.022.186-.142-.186-.142-.111-.235-.106.266.142.461.506.28.484.435.2-.093-.178.186-.076l.55.355c-.018-.124-.2-.266.124-.151a7.318,7.318,0,0,1,.7.381c-.071.018.031.186-.213.049a.814.814,0,0,0,.528.226c-.315-.275.626.244.435-.031l.315.271c-.08-.044-.12,0-.231-.075.031.186.311.124.444.177.111.093.43.284.43.351.133.027.395.2.408.3.182.067.058-.08.129-.093l.564.324c-.009.089-.062.32-.164.3.257.044.191-.177.523-.009-.266.049.391.324.022.359a2.64,2.64,0,0,0,1.016.568c.244-.022-.3-.222-.217-.328.87.368,1.078.067,1.673.426l-.146-.111a1.7,1.7,0,0,0,.639.124c-.177.093.257.617.927.847.089-.053-.3-.3-.142-.368l.444.16-.1.027c.408.111.639.5.825.373l.3.386-.115-.16c.084-.049.528.111.63.12a1.355,1.355,0,0,1,.816.435c-.053-.093-.186-.315.169-.191-.1.253.7.381.643.5.146.049.373.217.426.124l-.08.142c.115-.2.634,0,1.047.111-.2.257.448.138.528.475.146-.169.736.2.865.049.311.1.217.28.271.373l.169-.027a5.052,5.052,0,0,0,1.056.475l.386-.084.1.106c.067-.031.35.018.2-.089l.177.058c.071-.173.266.018.643.04.075.049.04.084-.044.089.177.049.076.115.155.2-.111-.08.732-.129.275-.337-.013-.08.279-.049.444.031l.062.178.253-.093c.279.053.364.191.586.253-.231-.049-.586.151.009.28a4.067,4.067,0,0,0-.661-.022c.12.036.177.067-.031.08.475.067.177-.04.643.04-.062.12.058.182.452.3l-.279-.146.067-.022c-.111-.035-.138-.062-.146-.115.093.018.577-.04.63.049-.408-.284.843.035.577-.133l.4.111c-.4,0,.253.191.173.248.151,0-.279-.146-.075-.142a1.69,1.69,0,0,1,.5.2h-.1l.342.12c.071-.035-.32-.16.013-.115l.39.12c-.173.035-.08.146-.364.111.231.04.967.173.7.027l.275.058c-.164-.071-.625-.248-.075-.142l-.009.018.4.013.155.075c0-.022.067-.031.208,0l.146.1c.413.067.39.018.448,0,.231.035.315.066.2.093.315.062.87.146,1.078.217.43.04-.084-.031.173-.031a10.01,10.01,0,0,0,2.085.364c-.177-.089.191.013.328-.027-.155,0,.652.129.04.071l.373.04c.248.058-.621-.044-.244.04.421.035.7.018,1.189.089-.168.009.382.035.253.049-.1,0-.24-.018-.377-.031l.084.013a4.09,4.09,0,0,0,.75.035c.555.067.435.062.466.071.107.009.35.035.515.049-.342-.027-.626-.071-.47-.062.244.04.825.093.976.115-.79-.106-.55-.062-1.291-.182a3.125,3.125,0,0,1-.532-.053c.284.027-.018-.013-.093-.031a3.716,3.716,0,0,1-.448-.049c-.12-.031.275,0-.178-.075l-.093.031c-.177-.031.08-.022-.3-.067.209,0-.053-.053.453.022a7.743,7.743,0,0,0-1.406-.173h.1c-.1,0-.288-.027-.426-.044-.306-.076.253.009.173-.027-.169-.022-.333-.062-.5-.093l-.013-.009a1.1,1.1,0,0,1-.3-.062c.155,0,.217-.009.319-.009l-.532-.058c.062-.013-.421-.142-.044-.08l-.772-.16-.053-.08c-.186-.031-.2-.018.022.04-.257-.08-1.2-.133-1.025-.248-.617-.08-.834-.137-1.575-.275.577.067-.612-.284-.013-.16-.333-.138-.43-.058-.706-.115-.244-.111-.106-.182.178-.137l-.333-.049.009-.018-.293-.022c-.284-.142-.035-.124-.337-.226l-.093.075-.191-.115c.066.067-.12.035-.346-.022l.009-.022-.275-.058c.284.013-.24-.093-.1-.133-.231-.071-.235-.071-.656-.177l.053.093c-.564-.093.009-.115-.43-.253l0,.093c-.586-.355-1.087-.27-1.522-.523.271.066.24-.067.226-.04a8.241,8.241,0,0,0-1.5-.368c-.1-.2-.12-.262-.519-.479-.306-.1-.359-.1-.488-.04-.271-.173-.856-.28-.834-.4-.1.067-.257-.111-.448-.093l-.018-.058-.013.12c-.439-.426-.936-.182-1.384-.586l.1,0-.24-.04.115-.115-1.02-.395.173.155a1.448,1.448,0,0,1-.621-.2c.466.013-.333-.146-.351-.3l.231.049c-.3-.115-.3-.115-.319,0-.4-.124-.182-.315-.581-.35l.248.111c.049.093-.169.1-.337.031-.035-.036-.133-.133,0-.089-.319-.089-.75-.333-.9-.346-.151-.1-.062-.155.035-.146-.688-.182-.284-.142-.972-.324l.035-.053-.253-.022-.253-.275.076.129a2.674,2.674,0,0,1-.586-.262l.138-.04c-.608-.235-.608-.475-1.22-.617l.12-.013c-.581-.111-.311-.342-.914-.426l.04-.093-.262-.058.075-.106-.28.08-.084-.191-.12.013c-.138-.342-.563-.373-.812-.719l-.018.177c-1-.169-1.85-1.207-2.928-1.655l.084-.1-.488-.12c-.169-.222.191-.013.155-.115-.475-.209-.279.053-.808-.226-.213-.235.142-.027.288.009a7.751,7.751,0,0,1-1.548-.878l-.035.035a6.628,6.628,0,0,1-1.078-.683c.04-.044.129,0,.222.053-.12-.089-.262-.24-.4-.257l.191,0c-.249-.2-.8-.457-.79-.6,0,.062-.067.133-.288-.022-.009-.248-.661-.351-.958-.688l.266.111a1.14,1.14,0,0,0-.559-.262l.093-.031c-.3-.16-.6-.324-.892-.506,0-.253-.781-.559-.639-.634-.284-.226.191.257-.191,0-.049-.142-.355-.222-.262-.31l.049.018-.262-.186.24.022c-.235-.146-.475-.169-.546-.1-.164-.217-.5-.395-.519-.559l.1.035c-.625-.4-.736-1.025-1.313-1.233l.071,0-.342-.3.146,0-.67-.368.049-.044c-.359-.342-.976-.812-1.477-1.211l.093.04c-.581-.395-.453-.5-.874-.794l.058.018-.337-.311.115.022c-.342-.129-.586-.794-.515-.564-.182-.084-.475-.257-.572-.235-.373-.337-.031-.146-.222-.395-.257-.253-.39-.208-.7-.595l.053-.04c-.169-.155-.3-.226-.532-.448l.089.044c-.461-.275-.319-.6-.807-.692-.115-.2-.435-.461-.328-.537-.51-.408-.9-.732-1.38-1.171.089-.222-.1-.093-.275-.47l-.067.1c-.621-.674-1.1-1.641-1.81-2.36l.067-.1-.231-.067c-.657-.865-1.5-1.983-2.045-2.649a3.453,3.453,0,0,1-.852-.807l.04.027a15.1,15.1,0,0,1-1.5-1.943c.071.013.049-.076.129-.018-.222-.089-.3-.395-.408-.546l.058.222a.861.861,0,0,1-.359-.617l-.328-.235v-.084l-.089-.022.013-.257c-.076-.062-.386-.461-.595-.51.022-.058-.142-.377.031-.164l-.732-1.189.076.208c-.08.084-.373-.226-.448-.435.235.186.151-.066.155-.217-.155-.124,0,.191-.1.142a2.183,2.183,0,0,1-.537-.692l.12.093c-.217-.244-.124-.484-.293-.75-.222-.2-.257-.426-.395-.271-.244-.337.036-.209-.018-.333a1.232,1.232,0,0,1-.373-.763c-.364-.049-.475-1.012-.728-.967l-.053-.359c-.062.022-.226.035-.386-.191-.062-.262.071-.266.093-.364l-.293-.04c-.444-1.46-1.557-3.11-1.992-4.712a18.193,18.193,0,0,1-1.127-2.24l.062.075-.244-.816.12.617a2.983,2.983,0,0,1-.248-.448,18.4,18.4,0,0,0-1.078-3.146c-.492-.617.08-.55-.328-1.158l.129.1a18.848,18.848,0,0,0-.892-1.766c.293,0-.164-.475,0-.448l-.124-.031c.022-.182-.058-.581.036-.546l-.222-.288.1-.058c-.107-.435-.448-1.344-.284-1.628a19.371,19.371,0,0,1-1.016-4.135,2.569,2.569,0,0,1-.293-.883l.08-.359c-.093-.311-.319-.621-.279-.936l.04.031a3.1,3.1,0,0,0-.231-.927c-.049-.359-.036-.714.106-.626-.231,0-.089-.759-.089-.759s-.106-1.154-.271-2.955c-.1-.9-.146-1.965-.2-3.128a24.231,24.231,0,0,0-.315-3.722,119.318,119.318,0,0,1-1.167-13.425,4.033,4.033,0,0,0-.013-.422c.009-.3.009-.342.013-.55-.013.453,0-.142-.018.3l.018-.284c-.009.115-.009.111-.018.315v.08c-.013.191-.022.3-.031.435-.009.217.013.355-.022.87l0-.142c-.018.417-.031.253-.04.342l0-.093-.036.35c.027-.266.031-.71.018-.475-.044.5.013-.129,0,.244-.013.231-.027.164-.035.155l-.031.417c-.018-.018.022-.275-.009-.106l-.022.523c-.062.093-.013.572-.093.807.018-.377-.027.031-.04-.031-.031.306-.053.617-.067.923-.018.089-.009-.244-.013-.106a1.838,1.838,0,0,0,0,.382l-.1.661c-.089.626.067.271-.009.852-.049.075.018-.466-.044-.209l-.027.608a.585.585,0,0,1-.04-.35,37.112,37.112,0,0,0-.586,4.028c-.1.213-.044-.155-.089-.306a16.716,16.716,0,0,1-.381,2.476l.08.018a27.2,27.2,0,0,0-.368,4.37l.058-.182a4.661,4.661,0,0,1,.217.763c-.044.04-.231-.164-.146.262.026-.089.044-.275.1-.222a24.041,24.041,0,0,0,0,2.724c.075,1.091.208,2.28.262,3.332.182,1.406.448,2.862.634,4.326.226,1.455.537,2.9.847,4.259-.1-.413.177-.293.186.036-.177.945.457,1.451.417,2.391a24.154,24.154,0,0,0,1.42,4.375l-.1.067c.022.231.115.266.2.488l-.031,0c.12.555.5,1.14.555,1.464l.129-.027c.129.306-.031.2.16.488l-.067.013.257.328c-.226.044.32.883.32,1.171.182.395.594,1.109.825,1.717a6.383,6.383,0,0,0,.426,1.384c.222.448.466,1,.763,1.566s.608,1.162.878,1.739l.12-.089.16.288-.062.022c-.031.306.395.657.426.941.04-.213-.089-.217-.173-.386-.062-.275.182-.111.284.248l-.031.009.182.186c-.089.08-.031.306-.12.39.573.932,1.122,1.473,1.642,2.467-.169-.031.435.679.133.6.413.537.1-.191.391-.009.093.164.244.3.191.377-.093-.049-.035.2-.133.084l.262.368-.111-.053c.617.7.776,1.438,1.34,2.054.1,0-.16-.284-.062-.279.594.6.284.692.807,1.273l-.182-.071a1.249,1.249,0,0,1,.51.581c-.062.133-.3-.213-.457-.346.151.24.612.785.577.546a1.359,1.359,0,0,1,.293.581c.031-.013-.115-.306.049-.182a15.365,15.365,0,0,0,.963,1.442l-.089.049c.444.262.182.4.581.878" transform="translate(-257.838 -187.786)" fill="#2c2e50"></path><path id="Path_93669" data-name="Path 93669" d="M484.352,170.215c-.391-.186-.843-.408-1.3-.626-.461-.191-.927-.373-1.313-.572a1.744,1.744,0,0,1-.732-.169l.04-.16-.231-.049c-.067-.084.173.044.049-.08l-.12.053c.009-.062-.519-.28-.124-.226l-.812-.373c-.177-.084-.155.075-.342-.049l.089-.058c-.555-.377-.825.018-1.362-.266h.058c-.111,0-.3-.066-.306-.049.018.177.133-.044.275.106-.062.12-.244-.009-.271.089-.115-.093-.222-.049-.342-.084-.169-.151-.475-.2-.586-.355a.937.937,0,0,1-.475.022c-.115-.155.067-.084-.12-.2l-.058.062c-.164-.071-.129-.084-.111-.115-.177-.067-.182.049-.391-.08l.151-.027a1.935,1.935,0,0,1-.466-.16l.173.031c-.089-.16-.231-.031-.293-.066.009.04.164.115.062.16-.107-.058-.275.018-.333-.093l.151-.035c-.262-.009-.16.058-.43-.049l.027-.035c-.208.049-.413-.106-.67-.186l.058,0c-.115,0-.191.049-.249.027.138.084.089.1.08.173-.16-.182-.342.062-.643-.1l.186,0c.146-.1.191-.2.408-.209-.129,0-.28-.027-.235-.071l-.071.111-.186-.058c-.053.067.115.164-.071.169-.2-.013-.067-.151-.115-.106-.279-.027-.146.1-.39-.013l.1.009c-.169-.1-.457-.1-.47-.262l.12-.036-.009.022c.231-.049-.177-.018-.08-.133-.009.08-.262-.009-.373-.053l.013.1c-.452.16.067-.173-.324-.244-.257-.009.084.049-.08.071-.16-.062-.2-.155-.452-.186-.058-.053-.186-.124-.178-.231-.16.009-.444-.138-.55-.053.235.133.279-.053.546.133l-.107.08a4.271,4.271,0,0,1-.612-.111l.009.071c-.3-.022-.408.062-.683-.027-.018-.1.146-.049.266-.031-.169-.111-.191-.044-.47-.129,0-.08.191.044.24-.027l-.319-.036,0-.018c-.071.124-.24-.058-.439-.058-.457-.093-.559.071-.83.129l-.04-.115c.1.08.089.031.138,0-.155-.018-.315-.2-.217-.235-.253-.009.075.089-.08.1l-.333-.075c.027.075.142.115-.04.133a3.029,3.029,0,0,1-.408-.075c.031-.027-.044-.115.1-.084a.316.316,0,0,0-.3,0c.2.089-.355.013-.213.142l-.2-.089.129-.013c-.044-.111-.177.009-.253.009l-.275-.107-.253-.08c-.1.009-.018.067-.049.1l-.337-.053.035-.24c-.133.035-.067.164-.262.133.124-.1-.244-.115-.067-.231a1.054,1.054,0,0,0-.6-.124c-.12.075.182.075.16.164-.493-.031-.55.217-.905.129l.089.035a.694.694,0,0,0-.342.075c.071-.1-.222-.342-.594-.35-.036.053.2.124.129.209-.08,0-.164,0-.244,0l.044-.04c-.222.027-.395-.169-.47-.04l-.209-.177.084.075-.337.075a.538.538,0,0,1-.475-.084c.04.049.142.16-.058.169.013-.182-.408-.093-.4-.186l-.231.009.018-.115c-.027.16-.319.133-.541.151.062-.213-.244,0-.337-.2-.049.146-.4.035-.444.16-.173,0-.151-.137-.191-.186l-.08.049a2.116,2.116,0,0,0-.6-.142l-.182.133-.067-.058c-.031.035-.177.053-.089.1l-.1-.009c-.009.142-.138.04-.328.1l.009-.075c-.1,0-.053-.075-.107-.12.067.035-.35.257-.089.319.018.058-.133.1-.226.075l-.058-.124-.115.133c-.146.018-.213-.062-.328-.075.12-.009.271-.249-.045-.24a1.213,1.213,0,0,0,.337-.115c-.067,0-.1-.018,0-.071-.248.04-.084.08-.328.1.013-.115-.058-.151-.271-.186l.16.084-.031.031.093.075-.324.075c.248.177-.43.142-.271.244l-.217-.018c.2-.089-.155-.129-.124-.208-.075.035.164.084.062.129a.528.528,0,0,1-.284-.1l.049-.022-.191-.049c-.031.058.186.093.013.124l-.217-.04c.08-.08.018-.182.164-.2-.124.009-.515.027-.355.129l-.146,0c.093.049.355.133.062.151v-.022l-.2.089-.093-.058-.1.053-.089-.089c-.222.022-.2.075-.226.111-.12.018-.169,0-.115-.075a2.231,2.231,0,0,1-.581-.022c-.222.067.049.022-.08.106-.2-.186-.75-.027-1.114.022.111.169-.1.027-.155.191.075-.058-.359-.111-.04-.182l-.2.031c-.142-.089.319-.093.106-.209-.222.022-.35.222-.612.173.075-.129-.2.053-.142-.084l.2-.053-.049-.022c-.488,0-.129.155-.373.257-.293.035-.24-.08-.262-.138l-.271.044c.173-.089.337.053.262.137-.142-.133-.439.018-.51.08.43.12.293-.013.7.12.049-.049.031-.173.271-.138-.142.071.018.071.058.089l.231-.075c.071.053-.129.177.111.191l.031-.173c.1.018-.031.129.164.075-.1.1.044.138-.226.182.333.124.484-.111.732-.191l-.049.049.222-.067c.168.027-.124.084-.08.129l.266-.022.009.013.16-.009-.155.169.271-.138c-.026.058.235.08.04.138l.413-.053.04.111c.1-.027.1-.049-.018-.058.142.018.617-.244.55-.013a3.633,3.633,0,0,1,.83-.155c-.3.107.35.133.031.182.191.049.226-.075.373-.093.142.049.08.16-.067.2l.173-.053,0,.022.151-.067c.164.062.035.115.2.129l.036-.1.115.058c-.044-.044.053-.067.177-.075l0,.022.146-.022c-.146.062.133.022.067.093a1.873,1.873,0,0,0,.355-.018l-.04-.071c.3-.062.013.1.253.106l-.013-.08c.346.133.586-.08.843,0-.146.018-.111.111-.107.089a3.432,3.432,0,0,0,.807-.111c.08.115.1.151.333.2.169,0,.2-.009.253-.075.164.053.475,0,.479.089.04-.066.146.022.24-.031l.018.036-.009-.08c.284.2.5-.071.781.1l-.053.018.124-.022-.04.1.572.049-.111-.067c.12,0,.208-.075.342-.018-.24.106.191.018.222.111l-.124.022c.169,0,.169,0,.16-.08.222-.018.138.16.346.089l-.142-.013c-.04-.049.071-.107.164-.1l.013.058c.173-.022.43.035.506.009.089.031.053.084,0,.1.373-.044.164.013.537-.013l-.009.044.129-.04.169.12-.058-.066a1.294,1.294,0,0,1,.337.027l-.062.062c.342,0,.377.16.71.106l-.058.036c.311-.067.208.146.524.058l0,.071.142-.027-.022.089.129-.12.071.1.058-.035c.124.191.346.089.524.24l-.018-.12c.532-.16,1.131.248,1.739.28l-.027.089.266-.058c.12.1-.093.062-.058.115.271,0,.133-.111.444-.075.146.093-.067.053-.146.071a3.261,3.261,0,0,1,.923.138l.013-.031a4.608,4.608,0,0,1,.657.124l-.12.036.244.04-.1.062c.16.049.484.04.5.138-.013-.04.009-.1.151-.071.044.151.395.018.6.138l-.155.013a.552.552,0,0,0,.328,0l-.044.044.532.066c.04.155.488.115.43.2.182.053-.138-.1.1-.053.049.071.217.031.186.115l-.027,0,.164.04-.124.058c.142.022.271-.036.293-.1.12.084.319.1.355.191l-.053.009c.382.067.546.4.878.342l-.036.027.226.067-.075.049.408,0-.018.044c.249.075.634.186.954.293l-.053,0c.364.058.315.16.581.2l-.031.009.226.08-.062.022c.2-.031.43.293.359.177.106,0,.288,0,.337-.04.249.084.04.075.177.169.177.067.235,0,.461.133l-.022.04c.115.031.2.027.355.08l-.053,0c.288,0,.266.24.541.129.093.075.306.12.262.2.328.084.581.169.9.275-.009.16.071.022.222.186l.018-.08c.439.191.852.595,1.34.781l-.022.08.133-.036c.5.257,1.14.6,1.522.839a1.447,1.447,0,0,1,.577.2l-.027,0a5.679,5.679,0,0,1,1.131.6l-.067.053c.138-.027.231.124.311.173l-.066-.106a.341.341,0,0,1,.293.231l.218.022.013.044.053-.018.04.142c.053,0,.3.111.421.067,0,.04.138.169.009.106l.586.435-.075-.093c.031-.075.24,0,.315.1-.16-.027-.071.089-.053.173.106.018-.031-.106.036-.115a.827.827,0,0,1,.4.217l-.08-.013c.155.071.142.231.284.319.16.031.217.142.271.009.2.1.018.124.067.173.12,0,.346.209.342.288.213-.1.439.386.577.271l.093.177a.2.2,0,0,1,.253-.031c.084.115.009.164.018.222l.177-.084c.51.626,1.38,1.185,1.957,1.837a9.33,9.33,0,0,1,1.078.75l-.053-.013a3.511,3.511,0,0,1,.3.328,2.991,2.991,0,0,0-.186-.275.752.752,0,0,1,.231.142,6.273,6.273,0,0,0,1.211,1.251c.417.129.067.3.435.457l-.1,0a7.455,7.455,0,0,0,.887.55c-.168.1.2.177.093.222l.08-.031c.031.1.173.253.106.271l.2.058-.049.067c.151.177.537.51.5.714a10.476,10.476,0,0,1,1.526,1.628,1.188,1.188,0,0,1,.381.311l.044.2c.133.106.355.16.4.324h-.031c.12.124.177.288.346.359.111.155.182.333.075.342.138-.084.226.333.226.333s.35.492.9,1.26c.28.382.608.83.967,1.322.328.515.688,1.069,1.056,1.641,1.566,2.223,3.017,4.876,4.006,5.71.106.036.262.2.3.089.111.138.022.271.111.262-.066-.231.218-.027.191-.275l.089.12c.066,0-.155-.146-.044-.16l-.151.031a.322.322,0,0,1-.018-.244c-.107-.071-.315-.044-.368-.315l.044.062c-.111-.186.018-.16.018-.213l.022.044-.022-.2c.022.146.24.293.173.191-.089-.248,0,.075-.111-.089-.067-.1.022-.111.062-.124l-.111-.191c.062-.027.067.129.084.018l-.2-.209c.129-.129-.217-.222-.133-.408.133.155.044-.044.107-.044l-.244-.422.066.027c0-.1-.111-.111-.133-.155.022-.062-.177-.315-.071-.359-.093-.328-.2-.049-.284-.351.04-.071.133.2.129.049l-.177-.266a.174.174,0,0,1,.173.111c-.346-.794-.217-1.415-.75-2.023.009-.138.089.04.182.075-.408-.426-.284-.776-.563-1.185l-.062.031a13.529,13.529,0,0,0-1.1-2.014l.009.106a1.5,1.5,0,0,1-.306-.279c.018-.036.168,0,.022-.177l-.009.142a19.307,19.307,0,0,0-1.721-2.671c-.484-.563-.9-1.224-1.406-1.806s-.994-1.18-1.5-1.708c.151.164-.035.2-.12.053-.1-.537-.563-.559-.736-1.043a10.909,10.909,0,0,0-1.766-1.637l.044-.067c-.062-.107-.124-.089-.217-.169l.018-.013c-.191-.226-.506-.408-.6-.555l-.071.058c-.133-.115-.018-.115-.182-.2l.036-.031-.208-.08c.12-.107-.346-.351-.4-.5a6.256,6.256,0,0,1-.816-.581c0-.1-.324-.364-.51-.568-.421-.311-1.016-.759-1.517-1.2l-.053.089-.138-.1.031-.035c-.036-.178-.328-.226-.4-.364.018.124.089.084.164.146.08.129-.084.124-.2-.036l.018-.018-.142-.031,0-.244a13.745,13.745,0,0,1-1.353-.772c.1-.04-.364-.217-.177-.28-.328-.151-.022.138-.217.138l-.173-.138.062-.093-.2-.124.071,0c-.448-.2-.652-.563-1.06-.728l.076.142c-.417-.146-.266-.3-.661-.43l.115-.027a.468.468,0,0,1-.382-.146c.013-.1.2.027.311.04-.129-.075-.466-.24-.408-.111-.169-.062-.186-.164-.257-.231-.013.018.115.133,0,.12a5.531,5.531,0,0,0-.763-.492l.04-.058c-.266,0-.146-.173-.444-.311" transform="translate(-357.317 -126.666)" fill="#2c2e50"></path><path id="Path_93670" data-name="Path 93670" d="M490.66,166.789l.093-.009Z" transform="translate(-379.548 -128.085)" fill="#2c2e50"></path></g></g></g><g id="Group_11709" data-name="Group 11709" transform="translate(200.853 1261.889)"><g id="Group_11706" data-name="Group 11706"><g id="np_partnership_6026719_FFFFFF" transform="translate(0 0)"><path id="Path_89777" data-name="Path 89777" d="M59.779,34.22c-2.619-.437-9.365-.405-13.845,1.223S33.312,42.161,30.87,42.975s-2.647,4.071,2.848,4.681S44.1,44.8,45.321,44.195s13.03,1.223,13.03,1.223l3.715.916,8.565,11.579c1.5-1.3,4.476-4.078,5.227-6.182a8.618,8.618,0,0,1,1.131-2.1L64.858,32.894a8.223,8.223,0,0,1-5.079,1.325Z" transform="translate(-5.109 -21.725)" fill="#2c2e50"></path><path id="Path_89778" data-name="Path 89778" d="M60.01,49.489l-1.8-.183c-2.362-.367-9.041-1.318-11.547-1.318-.109,0-.2,0-.264,0-.1.056-.219.123-.331.19-1.78,1.036-5.946,3.461-10.8,3.461a14.675,14.675,0,0,1-1.583-.088,13,13,0,0,1-2.09-.395A5,5,0,0,1,34.5,54.822a5,5,0,0,1,6.3,4.889c0,.014,0,.028,0,.039a5.006,5.006,0,0,1,4.994,5.061,4.895,4.895,0,0,1-.2,1.343,4.956,4.956,0,0,1,2.541,1.4,5.012,5.012,0,0,1-.078,7.081l-.987.966h.014a3.709,3.709,0,0,0,3.451-2.686A3.968,3.968,0,0,0,56.957,69.8a3.858,3.858,0,0,0-.063-.673,3.967,3.967,0,0,0,6.577-2.989,3.966,3.966,0,0,0,5.495-3.662c0-1.664-.814-2.749-2.749-4.987Z" transform="translate(-5.34 -23.2)" fill="#2c2e50"></path><path id="Path_89779" data-name="Path 89779" d="M30.523,54.522a2.566,2.566,0,0,0-3.627-.039l-3.662,3.585a2.563,2.563,0,1,0,3.588,3.662l3.666-3.585A2.565,2.565,0,0,0,30.523,54.522Z" transform="translate(-4.448 -23.763)" fill="#2c2e50"></path><path id="Path_89780" data-name="Path 89780" d="M37.277,58.851a2.561,2.561,0,0,0-3.623-.039l-4.885,4.78a2.563,2.563,0,1,0,3.588,3.662l4.885-4.78A2.565,2.565,0,0,0,37.277,58.851Z" transform="translate(-4.989 -24.185)" fill="#2c2e50"></path><path id="Path_89781" data-name="Path 89781" d="M42.808,64.507a2.561,2.561,0,0,0-3.623-.039L34.3,69.247a2.565,2.565,0,0,0,3.588,3.666l4.885-4.78A2.569,2.569,0,0,0,42.808,64.507Z" transform="translate(-5.529 -24.738)" fill="#2c2e50"></path><path id="Path_89782" data-name="Path 89782" d="M47.2,71.483a2.561,2.561,0,0,0-3.623-.039l-2.848,2.788a2.564,2.564,0,1,0,3.588,3.662l2.848-2.788A2.565,2.565,0,0,0,47.2,71.483Z" transform="translate(-6.157 -25.419)" fill="#2c2e50"></path><path id="Path_89783" data-name="Path 89783" d="M94.445,43.6,78.073,21.024a1.219,1.219,0,0,0-1.706-.271l-7.25,5.259a1.219,1.219,0,0,0-.271,1.706L85.218,50.3a1.219,1.219,0,0,0,1.706.271l7.254-5.259A1.225,1.225,0,0,0,94.445,43.6Zm-5.573,2.03a2.037,2.037,0,1,1,.455-2.848,2.036,2.036,0,0,1-.455,2.848Z" transform="translate(-8.956 -20.517)" fill="#2c2e50"></path><path id="Path_89784" data-name="Path 89784" d="M28.214,49.288a5.221,5.221,0,0,1,1.128.13c-3.077-1.181-3.588-3.338-3.669-4.1a4.466,4.466,0,0,1,3.285-4.646,57,57,0,0,0,5.4-2.76c2.386-1.3,5.009-2.732,7.286-3.782a32.76,32.76,0,0,0-7.039.106,7.885,7.885,0,0,1-4.78-1.163L17.6,49.943a8.3,8.3,0,0,1,.927,1.8,10.585,10.585,0,0,0,2.058,3.084,5.985,5.985,0,0,1,.465-.532l3.662-3.585a5,5,0,0,1,3.5-1.427Z" transform="translate(-3.973 -21.743)" fill="#2c2e50"></path><path id="Path_89785" data-name="Path 89785" d="M28.065,26.008l-7.254-5.259a1.223,1.223,0,0,0-1.706.271L2.732,43.6A1.219,1.219,0,0,0,3,45.309l7.254,5.259a1.219,1.219,0,0,0,1.706-.271L28.336,27.717a1.227,1.227,0,0,0-.271-1.709Zm-4.846,2.524a2.038,2.038,0,1,1-.455-2.848,2.035,2.035,0,0,1,.455,2.848Z" transform="translate(-2.498 -20.516)" fill="#2c2e50"></path></g></g></g></g></svg> 