<?xml version="1.0" encoding="UTF-8"?> <svg xmlns="http://www.w3.org/2000/svg" width="271.404" height="311.199" viewBox="0 0 271.404 311.199"><g id="Group_12085" data-name="Group 12085" transform="translate(-554 -898.256)"><g id="Group_11704" data-name="Group 11704" transform="translate(672.863 988.548)"><path id="np_energy_2039810_000000" d="M75.582,17.409,64.5,65.95H93.868a1.557,1.557,0,0,1,1.23,2.459l-42.728,65.6c-.35.7-1.408.179-1.23-.529L61.691,82.657H33.554a1.557,1.557,0,0,1-1.23-2.459L74.53,16.71c.172-.529,1.223-.179,1.051.7Z" transform="translate(-32.043 -3.723)" fill="#2c2e50"></path><path id="Polygon_1" data-name="Polygon 1" d="M14.83,0l14.83,24.716H0Z" transform="translate(29.432 0) rotate(22)" fill="#2c2e50"></path></g><g id="BK_New_Logo-01" data-name="BK New Logo-01" transform="translate(554 898.256)"><path id="Path_93660" data-name="Path 93660" d="M422.985,512.357l-.065-.057Z" transform="translate(-291.555 -201.158)" fill="#2c2e50"></path><path id="Path_93661" data-name="Path 93661" d="M295.25,155.334l.367-.424c-.18.194-.288.324-.367.424" transform="translate(-255.681 -100.734)" fill="#2c2e50"></path><path id="Path_93662" data-name="Path 93662" d="M550.139,436.9l-.079.014Z" transform="translate(-327.28 -179.971)" fill="#2c2e50"></path><path id="Path_93663" data-name="Path 93663" d="M391.028,451.252c-.165-.05-.266-.065-.259-.007.223.05.28.043.259.007" transform="translate(-282.521 -183.992)" fill="#2c2e50"></path><path id="Path_93664" data-name="Path 93664" d="M395.2,476.479l.064-.079Z" transform="translate(-283.766 -191.071)" fill="#2c2e50"></path><path id="Path_93665" data-name="Path 93665" d="M374.67,466.97l.187.043Z" transform="translate(-277.997 -188.421)" fill="#2c2e50"></path><g id="Group_11729" data-name="Group 11729" transform="translate(0 0)"><path id="Path_93666" data-name="Path 93666" d="M258.273,160.664a127.314,127.314,0,0,0-5.429,11.519c-.431,1.021-.935,2.006-1.309,3.041s-.755,2.049-1.122,3.049c-.748,2-1.481,3.926-2.2,5.7-.273,1.668-.841,4.026-1.5,6.378l-.611.079-.417,2c-.4.748.352-1.524-.273-.187l.108.834c-.237.093-1.639,4.968-1.043,1.589a36.64,36.64,0,0,0-.985,3.84l-.87,3.868c-.4,1.7.23,1.1-.324,2.955-.244.352.043-.7-.187-.59a16.159,16.159,0,0,0-.762,6.176,23,23,0,0,1-.388,5.91l-.007-.46c.014.927-.259,2.653-.173,2.682.647-.626-.165-.992.4-2.581.453.2-.043,2.056.331,1.992a11.672,11.672,0,0,0-.137,3.092c-.431,1.833-.41,4.53-.884,5.91a23.6,23.6,0,0,1,.424,3.919c-.367,1.395-.352-.345-.489,1.575l.28.316c-.036,1.567-.115,1.323-.244,1.266-.007,1.682.381,1.4.216,3.509l-.273-1.172c.108,1.56.065,2.2.05,4.372-.158-.043-.151-.913-.108-1.56-.388,1.194.158,2.02.173,2.66.072-.187.151-1.7.417-.971-.05,1.078.532,2.265.244,3.049l-.359-1.158a14.371,14.371,0,0,1,.539,3.753c-.029-.137-.093-.065-.158-.115.482,1.6.331,3.746.5,6.155l-.108-.446c.151.963.5,1.46.561,1.977-.058-1.373.079-1.014.331-1.165-.173,1.848.949,2.66,1.136,5.608-.165-.022-.46-.7-.424-1.524a6.435,6.435,0,0,1-1.524-2.761c.28,1.1.554,2.4.309,2.15l.482.288c.1.676.18,1.208.252,1.711.316.244.23-1.424.654.1.41,1.726-.295,1-.057,1.244.546,2.38.618.92.841,3.264a3.632,3.632,0,0,1-.208-.87c.043,1.7.805,4.048.41,4.638a1.244,1.244,0,0,1-.424-.87l.086.007c-.762-1.74.431,1.5-.151,1.021.245-.187.69,2.15.87,3.207l.237-.4c1.762,3.236-.683-.036.309,3.351.769,2.114-.129-.841.439.431a20.006,20.006,0,0,0,.935,4.192c.057.626.259,1.877-.057,2.085a25.285,25.285,0,0,1,.784,2.531,6.769,6.769,0,0,0,.885,2.042c-.474-2.265-1.1-2.064-1.438-4.781l.554.618c.489,1.8,1.46,3.983,1.755,5.242-.022-.266.029-.41.151-.273.971,2.466,1.575,3.056,2.423,5.479-.173.431-.669-.992-1.1-2.006a33.945,33.945,0,0,0,1.452,4.062c-.208.23-.618-1.625-.978-1.8l1.121,2.632-.05.021c.589.2.827,2.013,1.654,3.559,1.639,3.8,2.6,4.048,3.89,5.946.151.611.122.827-.094.647-.252-1-.324-.769-.59-1.035.633,1.237.942,2.934.424,2.33,1.165,1.9-.158-.82.611.309l1.395,2.689c.043-.431-.41-1.395.489-.1.676,1.136.92,1.726,1.79,3.214-.23-.158-.043.654-.683-.474a6.987,6.987,0,0,0,1.445,2.214c-.762-1.74,1.74,2.574,1.344,1.165.245.582.518,1.15.8,1.718-.223-.367-.388-.324-.683-.884-.029.647.913,1.251,1.294,1.783a18.977,18.977,0,0,1,1.158,2.265,6.831,6.831,0,0,1,1.143,2.035c.568.69.237-.072.482.072l1.69,2.495c-.072.252-.388.776-.7.446.813.834.712,0,1.7,1.416-.913-.568,1.129,2.006-.108,1.129a22.736,22.736,0,0,0,3.113,4.408c.834.575-.906-1.431-.575-1.56,2.79,3.379,3.66,3.013,5.58,5.572-.158-.23-.324-.446-.475-.683a13.026,13.026,0,0,0,2.236,1.941c-.633-.187.64,2.459,3.005,4.76.331.065-.992-1.589-.4-1.409l1.539,1.539c.086.137-.13.007-.359-.158,1.445,1.309,2.128,3,2.876,3.049l1.014,1.79-.388-.726a20.7,20.7,0,0,1,2.315,1.8,13.281,13.281,0,0,1,3.005,3.034c-.18-.381-.647-1.3.69-.172-.446.467,2.581,2.639,2.351,2.818.554.446,1.4,1.4,1.625,1.258l-.345.23c.5-.338,2.416,1.4,4.077,2.488-.82.324,1.762,1.273,2.049,2.351.582-.151,2.955,1.934,3.5,1.769,1.258.856.863,1.158,1.086,1.517l.69.252a41.767,41.767,0,0,0,4.221,3.315l1.575.482.388.489c.281.036,1.453.647.834.086l.726.46c.317-.388,1.107.5,2.689,1.186.3.266.151.316-.2.187.734.439.295.467.611.848-.474-.388,3.113.733,1.208-.568-.043-.244,1.208.259,1.9.726l.237.633,1.107.065a22.457,22.457,0,0,1,2.459,1.618c-.963-.482-2.538-.367-.029.92a28.671,28.671,0,0,0-2.819-1.035c.511.295.748.467-.144.2,2.02.913.769.129,2.739,1.071-.287.3.209.683,1.87,1.639l-1.158-.884.295.021c-.467-.273-.575-.4-.611-.582.388.194,2.495.661,2.718,1.035-1.7-1.51,3.645,1.237,2.538.288a4.032,4.032,0,0,1,1.74.82c-1.79-.453,1.071.956.69,1.093.669.165-1.194-.841-.295-.611a9.731,9.731,0,0,1,2.143,1.3l-.446-.108,1.474.834c.331-.072-1.359-.956.094-.439.338.237,1.826.69,1.718.82-.791-.014-.424.518-1.682.1,1.035.367,4.307,1.582,3.128.726l1.215.482c-.712-.453-2.732-1.553-.273-.669l-.05.065,1.8.374c.223.158.446.316.676.46.014-.1.316-.1.949.122.129.165.712.417.611.546,1.855.611,1.769.367,2.049.338,1.043.323,1.4.532.848.59,1.388.568,3.933,1.179,4.846,1.69,1.97.388-.374-.194.827-.122a6.5,6.5,0,0,0,1.654.827c.719.237,1.567.453,2.466.661,1.8.4,3.8.82,5.421,1.064-.74-.769.892.108,1.589-.309-.726.05,2.941,1.071.108.669l1.718.288c1.107.561-2.876-.331-1.2.474a15.06,15.06,0,0,0,2.66.209,10.6,10.6,0,0,1,2.89.316c-.834.3,1.776.137,1.136.51a8.047,8.047,0,0,1-1.776-.137l.388.144c4.235.8,1.308-.3,3.566-.245,2.6.273,2,.575,2.128.8a10.327,10.327,0,0,0,2.409.18c-1.618.079-2.9-.6-2.136-.791,1.086.618,3.847.482,4.566.374-3.638-.935-2.567-.324-5.961-1.273-.5.1-.474.554-2.524.043,1.33-.007-.05-.259-.41-.381.359.316-1.452-.122-2.1-.122-.539-.295,1.33-.374-.741-.812l-.5.518c-.805-.23.417-.352-1.337-.532.992-.122-.2-.5,2.171-.216-2.711-.935-4.321-.561-6.543-.762.23.007.273-.065.5-.057a9.463,9.463,0,0,1-1.984-.223c-1.388-.46,1.186-.007.856-.266-.776-.137-1.532-.345-2.3-.518l-.05-.057a2.874,2.874,0,0,1-1.38-.352c.726-.014,1.042-.144,1.531-.18l-2.495-.194c.309-.122-1.891-.812-.151-.532-1.193-.252-2.373-.532-3.544-.863l-.187-.467c-.856-.18-.906-.108.086.23-1.165-.439-5.522-.877-4.645-1.467a73.637,73.637,0,0,1-7.089-2.042c2.617.611-2.682-1.539.007-.683-1.474-.755-1.956-.475-3.192-.884-1.078-.6-.417-.762.863-.424l-1.51-.388.058-.065c-.446-.086-.884-.208-1.323-.309-1.222-.762-.122-.489-1.445-1.122l-.431.194-.827-.582c.28.295-.547.014-1.539-.381l.057-.065c-.41-.144-.812-.309-1.208-.482,1.244.367-1.036-.59-.4-.554-.992-.5-1.014-.5-2.84-1.323l.208.374c-2.444-.956.058-.367-1.826-1.316l-.007.309c-2.452-1.869-4.709-2.164-6.493-3.581,1.143.6,1.021.151.964.208-1.7-.92-4.422-2.516-6.27-3.343-.4-.741-.482-.935-2.107-2.2a4.817,4.817,0,0,0-2.006-.964c-1.093-.963-3.451-2.337-3.336-2.617-.41-.007-1.042-.777-1.783-1.114l-.065-.2-.065.3c-1.639-2.078-3.71-2.308-5.342-4.422l.388.23-.906-.611c-.058-.2.331.022.474-.072-1.273-1.107-2.6-2.143-3.825-3.3l.6.82a14.831,14.831,0,0,1-2.315-1.913c1.783,1.043-1.237-1.136-1.265-1.589l.877.647c-1.114-.971-1.114-.971-1.215-.683-1.474-1.244-.59-1.294-2.071-2.308l.891.892c.158.374-.654-.094-1.251-.683-.115-.173-.453-.676.029-.252-1.165-.978-2.689-2.668-3.207-3.092-.5-.654-.173-.6.187-.323-2.4-2.179-.971-1.093-3.372-3.286l.151-.065-.877-.712-.8-1.416.223.561a23.754,23.754,0,0,1-2-2.2l.5.223c-2.056-2.186-1.9-2.919-3.962-4.911-.086-.18.244.122.417.273-1.948-1.826-.884-1.826-2.847-3.667.158.079.065-.209.18-.165l-.848-.877.309-.115-.971-.51c-.065-.259-.122-.525-.173-.791l-.388-.295c-.237-1.409-1.646-2.639-2.265-4.336l-.165.467c-3.135-3.279-5.083-8.8-7.859-13.359l.323-.065-1.366-1.776c-.338-1.158.575.5.546.108-1.244-2.02-.863-.669-2.15-3.1-.424-1.359.424.338.813.884-.626-1.129-1.409-2.524-2.078-3.868a35.836,35.836,0,0,1-1.488-3.523l-.129-.007a52.773,52.773,0,0,1-2.222-5.45c.151-.007.345.417.546.848a9.63,9.63,0,0,0-.827-2.035l.518.568c-.51-1.359-1.6-3.94-1.416-4.343-.058.2-.309.216-.7-.978.2-.791-1.229-3.192-1.567-5.2.18.194.633,1.6.518,1.2a9.275,9.275,0,0,0-1.05-2.61l.266.209c-.518-1.474-.971-2.977-1.459-4.465.251-.777-1.079-4.292-.662-4.062-.338-1.639.086,1.417-.417-.64.079-.59-.5-1.855-.173-1.826l.086.216c-.1-.482-.245-.956-.316-1.445.144.288.316.575.482.856-.331-1.23-.726-2.107-.985-2.121-.014-1.222-.424-2.9-.23-3.487l.144.431a25.992,25.992,0,0,1-.374-4.4,18.7,18.7,0,0,0-.136-1.92,10.051,10.051,0,0,0-.324-1.913c.029-.2.108-.187.137.23l-.144-2.085.273.475-.633-3.408.158.036c-.057-1.136-.18-2.6-.323-4.127-.093-1.539-.079-3.164-.129-4.63l.079.439c-.259-3.2.144-3.092-.043-5.428l.072.252-.014-2.107.158.467c-.3-1.575.741-4.422.374-3.48a14.14,14.14,0,0,0-.338-2.689c.151-2.294.245-.546.482-1.956.165-1.647-.187-1.984.252-4.2l.151.065c.129-1.043.108-1.7.3-3.164l.007.439c.021-2.416.892-2.876.482-4.846.273-.971.439-2.876.777-2.718.453-2.941.863-5.227,1.388-8.154.611-.338.094-.633.8-2.3l-.309.058c.59-2.013,1.4-4.127,2.215-6.277.4-1.078.8-2.171,1.194-3.264.367-1.107.877-2.157,1.244-3.25l.309-.022.043-.963c.985-2.279,1.963-4.954,3.113-7.413,1.186-2.445,2.315-4.774,3.178-6.55.208-.618.467-1.4.762-2.272a16.817,16.817,0,0,1,1.352-2.617l-.072.208c.813-1.6,1.661-3.243,2.56-4.9.46-.82.927-1.654,1.395-2.495.539-.8,1.1-1.6,1.675-2.387-.036.266.252-.014.072.4a10.312,10.312,0,0,1,1.733-2.61l-.719.7a7.137,7.137,0,0,1,1.977-2.617l.733-1.639.273-.2.05-.345c.273-.187.539-.381.834-.546a17.736,17.736,0,0,0,1.726-3.063c.2-.057,1.287-1.3.561-.259l4.026-5-.712.7c-.3-.086.755-1.726,1.56-2.351-.712,1.122.23.338.762.058.475-.748-.7.4-.5-.036a18.034,18.034,0,0,1,2.574-3.077l-.36.561c.928-1.179,1.747-1.359,2.711-2.466.719-1.136,1.524-1.718,1-1.848,1.273-1.431.755-.295,1.222-.7a10.229,10.229,0,0,1,2.941-2.581c.273-1.23,3.883-3.365,3.768-4.07a14.453,14.453,0,0,1,1.388-.791c-.065-.151-.057-.618.884-1.474,1.043-.633,1-.237,1.381-.345l.244-.963c1.438-.978,2.934-2.085,4.472-3.279.381-.295.769-.6,1.158-.906.41-.28.827-.561,1.237-.841.827-.568,1.668-1.143,2.509-1.726,1.682-1.158,3.387-2.322,5.055-3.466,1.689-1.114,3.444-2.049,5.1-2.955,1.424-.906,3.027-1.927,4.688-2.991,1.7-1,3.487-2,5.256-2.869l-.352.259,3.588-1.553-2.675.985c.741-.431,1.287-.82,2.042-1.172,1.97-.863,4.343-1.682,6.766-2.682,2.473-.892,5-1.948,7.463-2.912,3.013-1.769,2.322-.194,5.3-1.625-.252.144-.323.266-.539.4,3.293-1.28,5.12-1.841,8.448-3.106-.237.741,2.243-.518,2.013-.1l.23-.331c.805-.007,2.617-.359,2.4-.108l1.467-.618.187.252c1.014-.173,2.6-.539,4.091-.769a10.284,10.284,0,0,1,3.444-.115c5-1.15,13.093-1.675,19.521-1.553a21.269,21.269,0,0,1,4.256-.237l1.56.4a21.977,21.977,0,0,1,4.487-.115l-.165.079c1.524-.029,2.948.28,4.386.115,1.661.173,3.25.5,2.711.762.108-.266.985-.165,1.833,0,.424.086.842.18,1.151.266s.51.165.51.165,1.316.209,3.653.59c1.165.194,2.6.381,4.235.7,1.625.345,3.473.733,5.5,1.165a152.473,152.473,0,0,1,29.7,10.023,159.629,159.629,0,0,1,30.155,18.284c8.686,6.615,15.574,12.892,19.629,16.307.676.338,2.143,1.661,1.869.892,1.107,1.05,1.215,1.884,1.618,1.913-1.265-1.639.963.007-.151-1.711l.935.913c.324.065-1.366-1.158-.884-1.158l-.633.072a6.125,6.125,0,0,1-1.093-1.711c-.82-.6-1.747-.582-3.128-2.531l.467.46c-1.316-1.4-.561-1.093-.784-1.438l.295.309-.964-1.323c.777.964,2.438,2.186,1.69,1.424-1.481-1.769.338.5-.913-.69-.777-.733-.374-.712-.223-.791l-1.38-1.345c.216-.122.9.906.518.187l-1.905-1.531c.094-.748-2.063-1.661-2.488-2.826,1.366,1.1.029-.266.36-.209l-3.214-2.847c-.245-.331.963.618.46.2-.489-.661-1.086-.777-1.4-1.071-.165-.374-2.387-2.143-2.063-2.337-2.092-2.049-1.28-.388-3.236-2.272-.122-.417,1.711,1.316.935.36l-2.243-1.711a2.449,2.449,0,0,1,1.46.748c-5.738-5.026-8.477-8.412-14.582-11.971-.683-.791.7.223,1.4.453a44.859,44.859,0,0,1-5.1-3.293,28.992,28.992,0,0,0-4.587-3.077l-.18.173a54.818,54.818,0,0,0-8.664-4.745c-1.582-.7-3.192-1.416-4.8-2.128-1.639-.633-3.272-1.28-4.861-1.963l.712.446a32.394,32.394,0,0,1-3.5-.935c-.129-.165.949-.23-.992-.741.367.209,1.143.546.87.575a84.3,84.3,0,0,0-12.007-4.048c-1.229-.331-2.488-.69-3.76-1-1.287-.273-2.581-.554-3.875-.827l-3.832-.834c-1.265-.223-2.516-.439-3.717-.647-13.057-1.769-27.394-2.739-40.358-1.33,1.97-.223,1.179.446-.309.467-4.17-.575-7,.978-11.209,1.007-7.384,1.618-14.2,2.466-20.686,5.385l-.216-.223a12.984,12.984,0,0,0-2.279.892v-.079c-2.524.719-5.349,2.179-6.795,2.6l.029.331c-1.431.59-.841.065-2.236.863l-.022-.165-1.582,1.014c-.029-.288-1.035.137-2.193.669a24.777,24.777,0,0,1-3.027,1.409c-1.791.92-5.033,2.912-7.751,4.271a43.751,43.751,0,0,0-5.96,3.013c-.971.626-2.049,1.323-3.192,2.064-1.136.762-2.286,1.632-3.5,2.488-2.4,1.747-5,3.48-7.37,5.227l.3.216-1.172.992c-.029-.079-.216.022-.057-.158-1.172.439-2.66,2.344-3.775,2.934.805-.244.863-.647,1.546-1.194,1.078-.669.367.367-1.057,1.309l-.022-.079-.776.884c-.28-.129-1.179.439-1.467.309a35.1,35.1,0,0,0-2.632,2.373c-.769.813-1.5,1.6-2.243,2.373-1.474,1.56-2.977,3.121-4.911,4.875.094-.28-.611.338-1.186.992s-1.165,1.215-1.007.64c-1.956,2.466.661-.079-.014,1.244-.59.64-1.093,1.424-1.352,1.4.18-.4-.719.3-.28-.259L279.6,131.9c-.165.122.086-.273.216-.467a56.245,56.245,0,0,1-3.926,4.357,40.583,40.583,0,0,0-3.415,4.357c-.022.345.978-1.165.964-.82-2.049,3.279-2.373,2.466-4.35,5.479l.237-.748a11.912,11.912,0,0,1-1.862,3.063c-.453.094.683-1.5,1.078-2.351-.741,1.086-2.516,3.9-1.718,3.221a11.45,11.45,0,0,1-1.884,2.344c.05.065.992-1.107.6-.259a50.974,50.974,0,0,0-4.458,6.708c-.057-.057-.252.036-.173-.18-.783,2.049-1.294,1.5-2.638,4.062" transform="translate(-240.217 -79.562)" fill="#2c2e50"></path><path id="Path_93667" data-name="Path 93667" d="M294.586,231.813a137.454,137.454,0,0,0-.791,23.368c.374,1.517.467,3.746.805,5.968l-.345.273.309,1.855c-.029.769-.216-1.424-.216-.065l.3.676c-.151.165.619,4.774-.122,1.7.345,2.409.7,4.817,1.215,7.2.309,1.589.474.863.755,2.624-.029.374-.216-.611-.309-.439a27.18,27.18,0,0,0,1.582,5.508,28.7,28.7,0,0,1,1.841,5.134l-.165-.388c.158.4.381.971.568,1.445a6.132,6.132,0,0,0,.352.863c.158-.726-.5-.769-.748-2.286.316.036.762,1.74.956,1.567a19.687,19.687,0,0,0,1.014,2.668c.331,1.711,1.467,3.926,1.7,5.234.4.755,1.043,1.5,1.819,3.135.317,1.287-.345-.18.309,1.467l.288.18c.575,1.33.438,1.15.338,1.136.662,1.4.805,1.043,1.582,2.826l-.654-.884c.726,1.251.956,1.79,1.869,3.573-.122.014-.482-.7-.726-1.244a6,6,0,0,0,1.251,2.114c-.014-.187-.676-1.4-.18-.906a14.774,14.774,0,0,1,1.438,2.43l-.7-.848a17.487,17.487,0,0,1,1.884,2.941l-.144-.05a46.879,46.879,0,0,1,3.078,4.8l-.273-.331c.525.726.978,1.021,1.237,1.424-.647-1.093-.4-.841-.324-1.028.719,1.531,1.769,1.876,3.207,4.192-.108.029-.6-.431-.942-1.107a7.354,7.354,0,0,1-2.164-1.79c.661.805,1.409,1.776,1.151,1.639l.424.094.92,1.309c.3.108-.5-1.208.446-.1,1.064,1.244.295.87.554.992,1.488,1.7.827.539,2.092,2.294a4.317,4.317,0,0,1-.547-.618c.863,1.294,2.409,2.955,2.473,3.5a1.413,1.413,0,0,1-.69-.554l.057-.014c-1.316-1.136.992,1.035.4.834.065-.209,1.474,1.467,2.1,2.229l-.05-.374c2.653,2.02-.467.187,1.819,2.5,1.546,1.38-.5-.6.489.208a33.55,33.55,0,0,0,2.66,2.934c.323.482,1.115,1.33,1.021,1.575a42.383,42.383,0,0,0,3.372,2.962c-1.416-1.6-1.726-1.266-3.329-3.185l.669.309c1.273,1.15,2.9,2.617,3.782,3.422-.151-.187-.194-.3-.05-.244,1.934,1.5,2.6,1.8,4.393,3.343.108.367-.956-.525-1.733-1.172a22.323,22.323,0,0,0,3.07,2.538c-.015.223-1.266-.978-1.6-1l2.135,1.546-.022.029c.5-.036,1.56,1.273,2.948,2.1a24.873,24.873,0,0,0,5.774,3.056c.438.367.539.525.295.46-.719-.6-.64-.424-.956-.532,1.107.647,2.236,1.733,1.56,1.467,1.79.992-.539-.525.575.043.8.482,1.568,1.006,2.387,1.46-.208-.3-1.05-.805.273-.209,1.093.547,1.589.856,2.984,1.632-.237-.043.324.453-.719-.129a8.829,8.829,0,0,0,2.179,1.1c-1.489-.92,2.624,1.15,1.575.338l1.5.892a9.185,9.185,0,0,1-.956-.388c.338.432,1.309.561,1.869.805.525.324,1.963,1.014,2.049,1.129a7.561,7.561,0,0,1,1.934.949c.776.28.122-.122.374-.1.856.367,1.7.762,2.56,1.1.086.18.173.6-.245.5,1.035.252.5-.237,1.992.331-.949-.079,1.905.92.554.748a21.374,21.374,0,0,0,4.659,1.74c.913.072-1.452-.582-1.294-.755,3.883,1.136,4.257.726,7.089,1.56l-.726-.251a16.953,16.953,0,0,0,2.682.431c-.28.057.18.367,1.086.748a23.232,23.232,0,0,0,3.76,1.028c.273-.079-1.6-.6-1.078-.7l1.97.381c.137.05-.086.05-.345.029,1.769.324,3.236.949,3.8.741l1.747.676-.69-.28c.266-.094,2.265.216,2.689.208a14.693,14.693,0,0,1,3.9.59c-.345-.151-1.2-.5.41-.352-.065.467,3.372.453,3.307.654.654.036,1.812.252,1.9.079l-.122.259c.086-.18.726-.223,1.574-.216s1.9-.022,2.812-.036c-.424.5,2.006,0,2.818.467.345-.324,3.25-.223,3.566-.518a2.131,2.131,0,0,1,1.646.36l.647-.144c.719.122,3.365-.072,4.947-.086.474-.144.956-.259,1.431-.431l.554.065c.223-.108,1.424-.3.669-.324l.784-.086c.021-.331,1.093-.23,2.646-.575.367.007.287.094-.051.18.784-.1.475.115.921.158-.561.014,2.7-1.078.589-.848-.165-.108,1.036-.417,1.8-.5l.518.208.856-.467c1.179-.259,1.733-.151,2.689-.345-.971.237-2.071,1.05.467.467-1.323.359-1.956.625-2.646.805.532-.086.805-.1,0,.166,1.992-.46.64-.266,2.6-.748-.05.28.518.237,2.258-.072l-1.33.108.23-.122c-.5.086-.64.079-.769,0a15.91,15.91,0,0,1,2.567-.762c-2.056.079,3.35-1.136,2.035-1.086a5.067,5.067,0,0,1,1.718-.446c-1.56.647,1.294-.057,1.086.194.582-.245-1.323.172-.539-.151a12.923,12.923,0,0,1,2.272-.41l-.388.158c.51-.108,1.021-.194,1.517-.338.2-.2-1.488.259-.158-.252a14.255,14.255,0,0,1,1.7-.474c-.59.388-.043.46-1.186.892.956-.345,4-1.4,2.682-1.222l1.143-.381c-.755.137-2.818.626-.546-.18v.057c.5-.245,1.021-.475,1.517-.733l.726-.144c-.043-.057.18-.209.755-.431.18.014.733-.173.733-.057,1.675-.676,1.488-.748,1.675-.906.927-.388,1.3-.474.927-.158,1.294-.482,3.458-1.553,4.379-1.8,1.632-.877-.367.108.539-.5a13.627,13.627,0,0,0,3.717-1.567c1.51-.8,3.149-1.726,4.415-2.538-.906.065.69-.453.985-1.05-.5.439,2.632-1.172.41.252l1.373-.848c1.064-.367-2.222,1.488-.625.906,1.575-.906,2.337-1.927,4.192-2.969-.439.633,1.323-.978,1.05-.424a10.048,10.048,0,0,1-1.323.978l.345-.158c3.372-2.107.777-.906,2.4-2.207,1.941-1.438,1.668-.935,1.862-.906a13.019,13.019,0,0,0,1.769-1.366c-1.093,1.007-2.308,1.46-1.862.913a12.716,12.716,0,0,0,3.358-2.574c-2.984,1.747-1.941,1.388-4.76,2.984-.3.345-.057.561-1.754,1.517.935-.784-.158-.086-.475.057.4-.065-1.086.791-1.539,1.172-.525.18.755-.956-.913.05l-.1.532c-.676.367.129-.41-1.2.539.64-.633-.381-.122,1.431-1.373a32.358,32.358,0,0,0-5.04,3.408c.172-.129.165-.187.331-.309a12.13,12.13,0,0,1-1.524,1.028c-1.215.59.841-.69.482-.611-.618.381-1.258.726-1.905,1.057h-.065a3.532,3.532,0,0,1-1.179.6c.518-.41.683-.64,1.021-.935l-1.905,1.294c.158-.23-1.776.669-.374-.165-.992.525-1.97,1.093-3,1.553l-.374-.122c-.712.374-.712.431.18.065-1.071.417-4.472,2.545-4.127,1.812-2.38,1.179-3.286,1.488-6.248,2.725,2.251-1.021-2.782.611-.345-.331a17.64,17.64,0,0,0-2.819,1.179c-1.107.252-.7-.158.417-.64l-1.316.575.007-.057c-.381.173-.755.374-1.136.532-1.309.223-.345-.18-1.668.158l-.216.309-.927.122c.367.007-.4.273-1.345.561l.007-.057-1.143.374c1.115-.446-1.071.23-.59-.086-1,.223-1.021.23-2.818.683l.352.086c-2.33.683-.151-.208-2.063.216l.158.151c-2.819.259-4.674,1.05-6.759,1.208,1.172-.223.841-.4.827-.338-1.762.345-4.666.647-6.485,1.086a6.7,6.7,0,0,0-2.776-.252,5.42,5.42,0,0,0-2.021.359,28.085,28.085,0,0,1-3.926,0c-.309.165-1.2.007-1.942.158l-.158-.079.115.18c-2.373-.439-4.026.187-6.414-.252l.417-.022-1.014.007c-.158-.094.259-.115.309-.216l-4.666-.345.906.2a12.49,12.49,0,0,1-2.775-.18c1.891-.058-1.546-.187-1.819-.439l1.007.043c-1.366-.144-1.366-.144-1.273.057-1.776-.151-1.172-.453-2.818-.532.388.065.769.144,1.15.194.331.158-.525.194-1.3.05-.18-.057-.712-.23-.122-.158-1.395-.158-3.458-.6-4.084-.625-.734-.194-.467-.28-.05-.252-2.962-.46-1.316-.316-4.285-.784l.072-.093-1.035-.094c-.467-.165-.913-.388-1.373-.575l.474.266c-.956-.237-1.567-.324-2.667-.676l.489-.029c-2.711-.611-3.027-1.086-5.6-1.682-.165-.079.244-.007.453.036-2.394-.532-1.69-.762-4.084-1.345.158,0-.072-.151.036-.158l-1.086-.295.151-.165-.964-.029-.568-.446-.446-.058c-.978-.755-2.624-1.186-4-2.092l.151.352c-4.048-1.071-8.384-4.278-12.8-6.521l.18-.137-1.877-.863c-.848-.719.654.194.417-.079-1.927-1.05-.942-.216-3.149-1.5-1-.856.46.129,1.036.367-1.064-.554-2.279-1.388-3.458-2.143a26.236,26.236,0,0,1-2.883-2.064l-.086.029c-1.316-.906-2.97-2.215-4.328-3.322.1-.05.431.23.791.482A13.641,13.641,0,0,0,340,337.643l.618.288c-1.007-.892-3.1-2.437-3.185-2.8.079.158-.108.266-.942-.546-.252-.676-2.409-2.064-3.66-3.458.216.1,1.229,1.021.949.755a18.936,18.936,0,0,0-1.97-1.7l.266.086-3.164-3c-.208-.683-2.754-3.049-2.387-2.977-1.014-1.179.755,1.071-.575-.381-.245-.482-1.223-1.294-1.007-1.366l.158.144c-.3-.345-.582-.7-.87-1.057l.7.546c-.769-.9-1.467-1.445-1.625-1.395a30.537,30.537,0,0,1-1.833-2.653l.295.295a26.167,26.167,0,0,1-2.236-3.43,21.453,21.453,0,0,0-2.013-2.955c-.079-.172-.021-.18.187.144l-1.035-1.632.381.3c-.633-.856-1.308-1.7-1.92-2.574l.108-.021c-1.014-1.855-2.761-4.666-3.983-7.1l.23.338a44.988,44.988,0,0,1-2.222-4.523l.137.187-.812-1.776.273.352a16.306,16.306,0,0,1-1.186-3.02,18.907,18.907,0,0,0-1.244-2.164c-.791-1.977-.086-.525-.453-1.8-.5-1.46-.755-1.654-1.352-3.66l.115.007c-.352-.913-.582-1.474-.985-2.775l.165.374c-.827-2.071-.518-2.725-1.388-4.3-.137-.928-.626-2.632-.4-2.6-.417-1.323-.719-2.517-.985-3.717s-.575-2.387-.834-3.739c.28-.489-.108-.582-.158-2.258l-.165.151c-.661-3.847-.553-8.34-.841-12.6l.18-.129c-.094-.28-.158-.568-.23-.848-.065-4.609.245-10.555.6-14.208a29.567,29.567,0,0,1,.309-4.932v.2a68.869,68.869,0,0,1,1.776-10.325c.029.237.158-.1.122.309a10.1,10.1,0,0,1,.662-2.826l-.367.848a9.139,9.139,0,0,1,.9-2.9l.223-1.632.151-.266-.007-.3.5-.755a24.085,24.085,0,0,0,.64-3.2c.115-.129.662-1.553.331-.417.69-1.862,1.381-3.732,2.114-5.572-.151.273-.288.554-.417.834-.237.036.338-1.668.776-2.495-.331,1.179.208.194.532-.23.216-.784-.424.59-.352.151a18.8,18.8,0,0,1,1.366-3.466l-.194.582c.532-1.28,1.093-1.725,1.661-2.962.381-1.172.9-1.927.51-1.841.77-1.6.51-.5.813-1a13.181,13.181,0,0,1,1.79-3.149c.065-1.078,2.56-4.019,2.4-4.537.3-.381.64-.741.964-1.107-.065-.093-.108-.46.51-1.474.7-.87.712-.546.985-.762l.086-.841c3.9-5.076,9.038-11.813,14.308-16.472a81.357,81.357,0,0,1,7.83-7.312l-.28.3c.949-.748,1.884-1.517,2.891-2.193-.748.467-1.474.971-2.172,1.5a14.684,14.684,0,0,1,1.625-1.46c3.264-2.308,7.672-5.27,11.806-7.916,2.524-1.984,1.97-.805,4.5-2.5-.208.158-.266.259-.453.41,2.826-1.647,4.336-2.6,7.24-4.163-.158.568,1.941-.906,1.769-.568l.173-.28c.7-.237,2.33-.784,2.143-.59l1.258-.748.187.129c1.762-.762,5.63-2.215,6.7-2.171a82.363,82.363,0,0,1,17.637-4.372,21.349,21.349,0,0,1,3.883-.712l1.467.043a18.382,18.382,0,0,1,4.105-.575l-.144.072c1.4-.129,2.739-.158,4.048-.388,1.546-.021,3.042.065,2.574.28.072-.187.891-.194,1.682-.151a13.085,13.085,0,0,1,1.575.165s1.237.05,3.43.129c1.1.014,2.437.115,3.976.266s3.293.237,5.2.532a118.641,118.641,0,0,1,28.25,7.118,110.873,110.873,0,0,1,15.142,7.133,114.78,114.78,0,0,1,13.424,8.772,157.088,157.088,0,0,1,17.465,15.768c.547.4,1.769,1.74,1.5,1.064.928,1.057,1.072,1.754,1.388,1.855-1.093-1.567.747.18-.237-1.424l.784.913c.259.115-1.136-1.194-.762-1.107l-.481-.057a7.39,7.39,0,0,1-.964-1.6,11.294,11.294,0,0,1-2.646-2.581l.417.439c-1.186-1.316-.561-.956-.762-1.273l.259.295-.87-1.237c.669.928,2.128,2.15,1.46,1.424-1.344-1.654.3.467-.784-.7-.669-.726-.352-.64-.244-.676l-1.194-1.323c.158-.065.776.884.417.237-.547-.518-1.064-1.057-1.64-1.539-.007-.575-1.862-1.6-2.315-2.6,1.208,1.079-.007-.2.266-.108-.92-.949-1.891-1.848-2.89-2.718-.237-.295.863.611.4.223a6.681,6.681,0,0,0-1.273-1.021c-.187-.309-2.193-2-1.956-2.1-1.984-1.833-1.1-.453-2.955-2.157-.158-.338,1.575,1.229.812.4l-2.064-1.6a3,3,0,0,1,1.294.755c-1.316-1.186-2.56-2.135-3.667-3.085s-2.121-1.855-3.193-2.646c-1.057-.813-2.107-1.6-3.243-2.409a43.741,43.741,0,0,0-3.854-2.272c-.7-.626.633.216,1.265.439-1.057-.539-1.927-1.035-2.7-1.51-.784-.453-1.481-.863-2.15-1.287a31.144,31.144,0,0,0-4.429-2.509l-.136.115c-4.86-2.9-11.375-4.947-17.414-6.9l.7.309c-.884-.086-2.25-.453-3.271-.669-.137-.115.812-.129-.985-.554.359.144,1.093.417.848.431a82.019,82.019,0,0,0-11.346-2.725c-2.308-.417-4.753-.69-7.168-1.021-2.423-.187-4.818-.5-7.068-.59-12.151-.424-25.46.733-36.986,4.07,1.755-.5,1.107.079-.237.367-3.825.331-6.2,2-9.965,2.84-6.449,2.624-12.317,4.868-17.738,8.5l-.2-.1a16.108,16.108,0,0,0-1.9,1.208l-.007-.057c-2.135,1.122-4.429,2.934-5.623,3.631l.043.223a16.2,16.2,0,0,0-1.855,1.194l-.029-.108c-.439.367-.841.784-1.258,1.172-.086-.4-3.235,2.394-4.249,2.948-1.359,1.258-4,3.559-6.1,5.407a43.962,43.962,0,0,0-4.638,4.048A146.269,146.269,0,0,0,317.8,176.643l.252.065-.82,1.158c-.029-.05-.165.086-.057-.1-.856.733-1.877,2.682-2.639,3.538.568-.482.59-.8,1.064-1.452.784-.87.3.151-.69,1.366l-.028-.058-.482.964c-.223-.007-.827.762-1.05.762-.625.985-1.208,1.891-1.726,2.783-.489.906-.964,1.776-1.431,2.646-.978,1.726-1.841,3.523-3,5.63.021-.266-.374.5-.755,1.215-.352.726-.69,1.388-.647.877-1.114,2.675.467-.3.137,1a7.112,7.112,0,0,1-.805,1.611c.079-.381-.482.5-.23-.108l-.791,1.762c-.1.158.021-.252.093-.453-.683,1.848-1.395,3.437-2.107,4.983a43.335,43.335,0,0,0-1.769,4.781c.036.288.51-1.3.547-1.021-.971,3.415-1.208,2.9-2.057,6.111l.036-.7a16.3,16.3,0,0,1-.784,3.207c-.273.244.187-1.5.367-2.33-.374,1.15-1.064,4.142-.647,3.286a14.516,14.516,0,0,1-.877,2.624c.043.036.482-1.273.359-.431-.554,1.891-1.244,4.861-1.661,7.233-.05-.029-.158.122-.144-.093-.065,1.963-.518,1.675-.877,4.321" transform="translate(-255.226 -93.528)" fill="#2c2e50"></path><path id="Path_93668" data-name="Path 93668" d="M297.5,373.751c1.733,2.064,4.12,4.587,5.8,6.644a6.856,6.856,0,0,1,1.776,1.46l-.216.317.561.446c.108.288-.41-.359-.18.115l.352.043c-.065.13,1.143,1.417.158.712.611.683,1.208,1.373,1.869,2.021.417.446.475.036.877.582.015.173-.223-.122-.28.014,1.215,1.64,2.15,1.165,3.336,2.617l-.144-.079c.295.158.7.6.755.568.086-.431-.381-.094-.625-.661.259-.187.618.388.762.187.23.388.554.431.841.676.338.589,1.122,1.121,1.308,1.632a3.422,3.422,0,0,1,1.287.618c.194.518-.244.094.187.618l.2-.065c.381.4.288.374.216.424.424.4.525.151.992.726l-.424-.144a12.857,12.857,0,0,1,1.172.978c-.079.072-.309-.13-.46-.3.137.467.618.367.769.532.007-.1-.374-.467-.057-.438.266.266.776.324.834.661l-.432-.129c.69.4.467.094,1.107.726l-.093.043c.589.187,1.014.827,1.646,1.388l-.151-.065c.3.172.547.165.676.288-.3-.388-.166-.345-.086-.511.295.64.949.36,1.661,1.115-.079.072-.352.022-.51-.237-.475.029-.676.216-1.251-.086.345.2.733.453.575.5l.281-.151c.194.137.331.266.475.374.194-.086-.194-.525.316-.288.554.3.079.432.237.388.748.424.474-.029,1.064.539l-.281-.151c.4.446,1.179.834,1.107,1.215-.115.007-.194.079-.352-.079l.036-.036c-.669-.194.474.273.122.4.079-.18.712.36.985.611l.036-.244c1.366.237-.3.3.726.978.7.36-.2-.23.273-.057a4.432,4.432,0,0,0,1.15.964c.129.194.424.532.316.748.446.187,1.122.9,1.474.856-.547-.618-.805-.252-1.4-1.035l.352-.043a18.206,18.206,0,0,1,1.6,1.072l.029-.173a9.691,9.691,0,0,1,1.862.971c-.022.244-.432-.087-.762-.281.388.46.482.367,1.208.906-.065.187-.51-.331-.69-.245.28.18.582.331.87.489l-.021.029c.287-.187.633.417,1.2.661a5.2,5.2,0,0,0,2.445.719c.137.187.151.288.036.3-.23-.3-.23-.18-.381-.172.431.23.748.82.453.784.7.323-.151-.288.3-.122l.892.575c-.029-.2-.324-.432.2-.244a11.845,11.845,0,0,1,1.129.618c-.115.029.05.3-.345.079a1.32,1.32,0,0,0,.856.367c-.51-.446,1.014.4.7-.05l.51.439c-.129-.072-.194.007-.374-.122.05.3.5.2.719.287.18.151.7.46.7.568.216.043.64.331.661.489.295.108.094-.129.208-.151l.913.525c-.015.144-.1.518-.266.489.417.072.309-.288.848-.015-.431.079.633.525.036.583a4.276,4.276,0,0,0,1.647.92c.4-.036-.482-.359-.352-.532,1.409.6,1.747.108,2.711.69l-.237-.18a2.753,2.753,0,0,0,1.035.2c-.288.151.417,1,1.5,1.373.144-.086-.489-.482-.23-.6l.719.259-.158.043c.662.18,1.035.805,1.337.6l.489.625-.187-.259c.137-.079.856.18,1.021.194a2.2,2.2,0,0,1,1.323.7c-.086-.151-.3-.51.273-.309-.165.41,1.136.618,1.043.813.237.079.6.352.69.2l-.129.23c.187-.324,1.028,0,1.7.18-.316.417.726.223.856.769.237-.273,1.194.316,1.4.079.5.165.352.453.438.6l.273-.043a8.175,8.175,0,0,0,1.711.769l.626-.137.158.173c.108-.05.568.029.324-.144l.287.094c.115-.281.432.029,1.043.064.122.079.065.137-.072.144.288.079.122.187.252.324-.18-.129,1.186-.208.446-.546-.021-.129.453-.079.719.05l.1.288.41-.151c.453.086.59.309.949.41-.374-.079-.949.245.014.453a6.592,6.592,0,0,0-1.071-.036c.194.058.287.108-.05.129.769.108.288-.065,1.043.065-.1.194.093.295.733.489l-.453-.237.108-.036c-.18-.057-.223-.1-.237-.187.151.029.935-.065,1.021.079-.662-.46,1.366.057.935-.216l.647.18c-.654-.007.41.309.28.4.245,0-.453-.237-.122-.23a2.742,2.742,0,0,1,.805.331h-.165l.554.194c.115-.057-.518-.259.021-.187l.633.194c-.28.057-.13.237-.59.18.374.065,1.567.28,1.129.043l.446.094c-.266-.115-1.014-.4-.122-.23l-.014.029.647.021.252.122c0-.036.108-.05.338-.007l.237.158c.669.108.633.029.726.007.374.057.51.108.316.151.51.1,1.409.237,1.747.352.7.065-.137-.05.28-.05a16.218,16.218,0,0,0,3.379.589c-.288-.144.309.022.532-.043-.252.007,1.057.208.065.115l.6.065c.4.093-1.007-.072-.4.065.683.057,1.136.029,1.927.144-.273.014.618.057.41.079-.165,0-.388-.029-.611-.05l.137.021a6.633,6.633,0,0,0,1.215.057c.9.108.7.1.755.115.172.014.568.057.834.079-.554-.043-1.014-.115-.762-.1.4.065,1.337.151,1.582.187-1.28-.173-.891-.1-2.092-.295a5.066,5.066,0,0,1-.863-.086c.46.043-.029-.022-.151-.05a6.032,6.032,0,0,1-.726-.079c-.194-.05.446,0-.288-.122l-.151.05c-.288-.05.13-.036-.482-.108.338.007-.086-.086.734.036a12.545,12.545,0,0,0-2.279-.28h.165c-.165,0-.467-.043-.69-.072-.5-.122.41.014.28-.043-.273-.036-.539-.1-.812-.151l-.022-.014a1.786,1.786,0,0,1-.489-.1c.251.007.352-.014.518-.014l-.863-.094c.1-.021-.683-.23-.072-.129l-1.251-.259-.086-.13c-.3-.05-.316-.029.036.065-.417-.129-1.941-.216-1.661-.4-1-.129-1.352-.223-2.552-.446.935.108-.992-.46-.022-.259-.539-.223-.7-.094-1.143-.187-.4-.18-.172-.295.288-.223l-.539-.079.014-.029-.474-.036c-.46-.23-.057-.2-.547-.367l-.151.122-.309-.187c.108.108-.194.057-.561-.036l.015-.036-.446-.093c.46.022-.388-.151-.158-.216-.374-.115-.381-.115-1.064-.287l.086.151c-.913-.151.014-.187-.7-.41l.007.151c-.949-.575-1.761-.438-2.466-.848.438.108.388-.108.367-.065a13.36,13.36,0,0,0-2.43-.6c-.166-.331-.194-.424-.841-.776-.5-.158-.582-.158-.791-.065-.438-.28-1.388-.453-1.352-.647-.166.108-.417-.18-.726-.151l-.029-.094-.021.194c-.712-.69-1.517-.295-2.244-.949l.166.007-.388-.065.187-.187-1.654-.64.28.251a2.349,2.349,0,0,1-1.006-.316c.755.022-.539-.237-.568-.482l.374.079c-.482-.187-.482-.187-.518,0-.647-.2-.295-.51-.942-.568l.4.18c.079.151-.273.166-.547.05-.057-.058-.216-.216,0-.144-.518-.144-1.215-.539-1.459-.561-.245-.165-.1-.252.057-.237-1.115-.295-.46-.23-1.575-.525l.057-.086-.41-.036-.41-.446.122.209a4.346,4.346,0,0,1-.949-.424l.223-.065c-.985-.381-.985-.769-1.977-1l.194-.021c-.942-.18-.5-.554-1.481-.69l.065-.151-.424-.093.122-.173-.453.129-.137-.309-.194.022c-.223-.554-.913-.6-1.316-1.165l-.029.288c-1.625-.273-3-1.956-4.745-2.682l.136-.166-.791-.194c-.273-.359.309-.022.252-.187-.769-.338-.453.086-1.309-.367-.345-.381.23-.043.467.014a12.567,12.567,0,0,1-2.509-1.424l-.057.057a10.742,10.742,0,0,1-1.747-1.107c.065-.072.209.007.359.086-.194-.144-.424-.388-.647-.417l.309-.007c-.4-.316-1.3-.74-1.28-.978.007.1-.108.216-.467-.036-.015-.4-1.071-.568-1.553-1.115l.431.18a1.849,1.849,0,0,0-.906-.424l.151-.05c-.489-.259-.978-.525-1.445-.82-.007-.41-1.265-.906-1.035-1.028-.46-.367.309.417-.309-.007-.079-.23-.575-.359-.424-.5l.079.028-.424-.3.388.036c-.381-.237-.77-.273-.884-.158-.266-.352-.805-.64-.841-.906l.158.057c-1.014-.647-1.193-1.661-2.128-2l.115-.007-.554-.482.237-.007-1.086-.6.079-.072c-.582-.554-1.582-1.316-2.394-1.963l.151.065c-.942-.64-.734-.812-1.417-1.287l.094.029-.547-.5.187.036c-.554-.209-.949-1.287-.834-.913-.295-.137-.769-.417-.928-.381-.6-.546-.05-.237-.359-.64-.417-.41-.633-.338-1.129-.964l.086-.065c-.273-.252-.489-.367-.863-.726l.144.072c-.748-.446-.518-.971-1.309-1.121-.187-.316-.7-.748-.532-.87-.827-.662-1.46-1.186-2.236-1.9.144-.36-.165-.151-.446-.762l-.108.158c-1.007-1.093-1.79-2.66-2.934-3.825l.108-.158-.374-.108c-1.064-1.4-2.423-3.214-3.315-4.292a5.593,5.593,0,0,1-1.38-1.309l.065.043a24.466,24.466,0,0,1-2.43-3.149c.115.021.079-.123.208-.029-.359-.144-.489-.64-.661-.884l.093.36a1.4,1.4,0,0,1-.582-1l-.532-.381v-.136l-.144-.036.022-.417c-.122-.1-.625-.748-.964-.827.036-.094-.23-.611.05-.266l-1.186-1.927.122.338c-.129.137-.6-.367-.726-.7.381.3.245-.108.252-.352-.252-.2.007.309-.165.23a3.538,3.538,0,0,1-.87-1.122l.194.151c-.352-.4-.2-.784-.475-1.215-.359-.323-.417-.69-.64-.438-.4-.547.058-.338-.029-.539a2,2,0,0,1-.6-1.237c-.589-.079-.769-1.639-1.179-1.567l-.086-.583c-.1.036-.367.057-.626-.309-.1-.424.115-.431.151-.589l-.475-.065c-.719-2.366-2.524-5.04-3.228-7.636a29.485,29.485,0,0,1-1.826-3.631l.1.122-.4-1.323.194,1a4.837,4.837,0,0,1-.4-.726,29.827,29.827,0,0,0-1.747-5.1c-.8-1,.129-.892-.532-1.877l.209.165a30.565,30.565,0,0,0-1.445-2.862c.474.007-.266-.769.007-.726l-.2-.05c.036-.295-.093-.942.058-.885l-.36-.467.166-.094c-.173-.7-.726-2.179-.46-2.639a31.4,31.4,0,0,1-1.646-6.7,4.164,4.164,0,0,1-.475-1.431l.129-.582c-.151-.5-.518-1.007-.453-1.517l.065.05a5.019,5.019,0,0,0-.374-1.5c-.079-.582-.058-1.158.172-1.014-.374-.007-.144-1.229-.144-1.229s-.172-1.87-.438-4.789c-.166-1.452-.237-3.185-.331-5.069a39.282,39.282,0,0,0-.51-6.033,193.333,193.333,0,0,1-1.891-21.757,6.539,6.539,0,0,0-.021-.683c.014-.482.014-.554.021-.891-.021.733.007-.23-.029.489l.029-.46c-.014.187-.014.18-.029.51v.13c-.022.309-.036.489-.051.7-.014.352.022.575-.036,1.409l.007-.23c-.029.676-.05.41-.065.554l.007-.151-.058.568c.043-.432.051-1.151.029-.769-.072.805.022-.209-.007.4-.022.374-.043.266-.057.252l-.051.676c-.029-.029.036-.446-.014-.173l-.036.848c-.1.151-.022.928-.151,1.309.029-.611-.043.05-.065-.05-.051.5-.086,1-.108,1.5-.029.144-.015-.4-.022-.173a2.979,2.979,0,0,0-.007.618l-.165,1.071c-.144,1.014.108.439-.014,1.381-.079.122.029-.755-.072-.338l-.043.985a.949.949,0,0,1-.065-.568c-.295,2.653-.927,4.077-.949,6.529-.158.345-.072-.252-.144-.5.065,1.776-.518,2.495-.618,4.012l.129.029a44.057,44.057,0,0,0-.6,7.082l.093-.295a7.553,7.553,0,0,1,.352,1.237c-.072.065-.374-.266-.237.424.043-.144.072-.446.165-.359a38.953,38.953,0,0,0,.007,4.415c.122,1.769.338,3.7.424,5.4.295,2.279.726,4.638,1.028,7.01.367,2.358.87,4.7,1.373,6.9-.158-.669.288-.475.3.058-.287,1.531.741,2.351.676,3.875.834,2.5,1.071,4.9,2.3,7.089l-.166.108c.036.374.187.431.324.791l-.05.007c.194.9.813,1.848.9,2.373l.208-.043c.209.5-.05.316.259.791l-.108.021.417.532c-.367.072.518,1.431.518,1.9.295.64.963,1.8,1.337,2.783a10.345,10.345,0,0,0,.69,2.243c.359.726.755,1.625,1.237,2.538s.985,1.884,1.424,2.818l.194-.144.259.467-.1.036c-.05.5.64,1.064.69,1.524.065-.345-.144-.352-.28-.626-.1-.446.295-.18.46.4l-.05.014.295.3c-.144.13-.05.5-.194.633.928,1.51,1.819,2.387,2.66,4-.273-.05.7,1.1.216.978.669.87.158-.309.633-.014.151.266.4.489.309.611-.151-.079-.057.331-.216.137l.424.6-.18-.086c1,1.129,1.258,2.33,2.171,3.329.165.007-.259-.46-.1-.453.963.971.46,1.122,1.308,2.064l-.295-.115a2.024,2.024,0,0,1,.827.942c-.1.216-.489-.345-.74-.561.245.388.992,1.272.935.884a2.2,2.2,0,0,1,.475.942c.05-.022-.187-.5.079-.295a24.885,24.885,0,0,0,1.56,2.337l-.144.079c.719.424.295.647.942,1.424" transform="translate(-249.117 -134.223)" fill="#2c2e50"></path><path id="Path_93669" data-name="Path 93669" d="M505.237,173.929c-.633-.3-1.366-.661-2.1-1.014-.748-.309-1.5-.6-2.128-.927a2.825,2.825,0,0,1-1.186-.273l.065-.259-.374-.079c-.108-.137.28.072.079-.129l-.194.086c.015-.1-.841-.453-.2-.367l-1.316-.6c-.287-.137-.251.122-.553-.079l.144-.093c-.9-.611-1.337.029-2.207-.431h.094c-.18.007-.482-.108-.5-.079.029.288.216-.072.446.173-.1.194-.4-.014-.438.144-.187-.151-.36-.079-.554-.137-.273-.244-.769-.323-.949-.575a1.519,1.519,0,0,1-.77.036c-.187-.252.108-.137-.194-.316l-.093.1c-.266-.115-.209-.137-.18-.187-.288-.108-.295.079-.633-.129l.245-.043a3.132,3.132,0,0,1-.755-.259l.281.05c-.144-.259-.374-.05-.474-.108.014.065.266.187.1.259-.173-.093-.446.029-.539-.151l.244-.057c-.424-.014-.259.093-.7-.079l.043-.057c-.338.079-.668-.173-1.086-.3l.094-.007c-.187-.007-.309.079-.4.043.223.137.144.158.129.28-.259-.295-.553.1-1.042-.165l.3-.007c.237-.158.309-.331.661-.338-.208-.007-.453-.043-.381-.115l-.115.18-.3-.094c-.086.108.187.266-.115.273-.331-.022-.108-.244-.187-.173-.453-.043-.237.158-.633-.022l.166.014c-.273-.158-.74-.165-.762-.424l.194-.058-.014.036c.374-.079-.288-.029-.129-.216-.014.129-.424-.014-.6-.086l.021.158c-.733.259.108-.28-.525-.4-.417-.015.136.079-.129.115-.259-.1-.331-.252-.733-.3-.094-.086-.3-.2-.288-.374-.259.014-.719-.223-.892-.086.381.216.453-.086.885.216l-.173.129a6.914,6.914,0,0,1-.992-.18l.014.115c-.489-.036-.661.1-1.107-.043-.029-.158.237-.079.432-.05-.273-.18-.309-.072-.762-.208,0-.13.309.072.388-.043l-.518-.058.007-.029c-.115.2-.388-.093-.712-.093-.74-.151-.906.115-1.344.208l-.065-.187c.166.129.144.05.223.007-.252-.029-.51-.323-.352-.381-.41-.014.122.144-.13.158l-.539-.122c.043.122.23.187-.065.216a4.921,4.921,0,0,1-.662-.122c.051-.043-.072-.187.158-.137a.513.513,0,0,0-.489-.007c.324.144-.575.021-.345.23l-.324-.144.209-.022c-.072-.18-.288.014-.41.014l-.446-.173-.41-.129c-.165.014-.029.108-.079.158l-.546-.086.058-.388c-.216.057-.108.266-.424.216.2-.158-.4-.187-.108-.374a1.706,1.706,0,0,0-.971-.2c-.194.122.295.122.259.266-.8-.05-.892.352-1.467.208l.144.057a1.124,1.124,0,0,0-.553.122c.115-.165-.36-.554-.963-.568-.058.086.316.2.208.338-.129-.007-.266,0-.4,0l.072-.065c-.359.043-.64-.273-.762-.065l-.338-.288.137.122-.547.122a.873.873,0,0,1-.769-.137c.065.079.23.259-.094.273.022-.295-.661-.151-.647-.3l-.374.014.029-.187c-.043.259-.518.216-.877.245.1-.345-.4.007-.547-.324-.079.237-.647.057-.719.259-.281-.007-.244-.223-.309-.3l-.129.079a3.428,3.428,0,0,0-.97-.23l-.295.216-.108-.094c-.05.057-.288.086-.144.165l-.158-.014c-.014.23-.223.065-.532.165l.014-.122c-.158,0-.086-.122-.173-.194.108.057-.568.417-.144.518.029.093-.216.165-.367.122l-.094-.2-.187.216c-.237.029-.345-.1-.532-.122.194-.014.438-.4-.072-.388a1.968,1.968,0,0,0,.547-.187c-.108-.007-.158-.029.007-.115-.4.065-.137.129-.532.158.022-.187-.094-.244-.439-.3l.259.137-.05.05.151.122-.525.122c.4.288-.7.23-.438.4l-.353-.029c.331-.144-.251-.208-.2-.338-.122.057.266.137.1.208a.855.855,0,0,1-.46-.158l.079-.036-.309-.079c-.05.094.3.151.022.2l-.353-.065c.129-.13.029-.295.266-.331-.2.014-.834.043-.575.209l-.237-.007c.151.079.575.216.1.245v-.036l-.323.144-.151-.093-.166.086-.144-.144c-.36.036-.323.122-.367.18-.194.029-.273-.007-.187-.122a3.616,3.616,0,0,1-.942-.036c-.359.108.079.036-.129.173-.331-.3-1.215-.043-1.8.036.18.273-.158.043-.251.309.122-.093-.583-.18-.065-.295l-.316.05c-.23-.144.518-.151.172-.338-.359.036-.568.36-.992.28.122-.209-.316.086-.23-.137l.316-.086-.079-.036c-.791-.007-.208.252-.6.417-.475.058-.388-.129-.424-.223l-.438.072c.28-.144.547.086.424.223-.23-.216-.712.029-.827.13.7.194.475-.022,1.129.194.079-.079.051-.28.439-.223-.23.115.029.115.094.144l.374-.122c.115.086-.208.288.18.309l.05-.28c.158.029-.05.209.266.122-.165.158.072.223-.367.295.539.2.784-.18,1.186-.309l-.079.079.36-.108c.273.043-.2.137-.13.208l.432-.036.014.022.259-.014-.251.273.438-.223c-.043.093.381.129.064.223l.669-.086.064.18c.158-.043.158-.079-.029-.093.23.029,1-.4.892-.022a5.885,5.885,0,0,1,1.344-.252c-.482.173.568.216.05.295.309.079.367-.122.6-.151.23.079.129.259-.108.331l.281-.086-.007.036.245-.108c.266.1.057.187.331.208l.058-.165.187.093c-.072-.072.086-.108.288-.122l-.007.036.237-.036c-.237.1.216.036.108.151a3.04,3.04,0,0,0,.575-.029l-.065-.115c.482-.1.021.165.41.173l-.022-.129c.561.216.949-.13,1.366.007-.237.029-.18.18-.173.144a5.558,5.558,0,0,0,1.309-.18c.129.187.165.244.539.324.273-.007.316-.014.41-.122.266.086.769.007.776.144.065-.108.237.036.388-.05l.029.058-.014-.129c.46.316.805-.115,1.265.165l-.086.029.2-.036-.065.165.927.079-.18-.108c.194,0,.338-.122.554-.029-.388.172.309.029.359.18l-.2.036c.273.007.273.007.259-.129.359-.029.223.259.561.144l-.23-.022c-.065-.079.115-.173.266-.165l.021.093c.281-.036.7.058.82.014.144.05.086.137.007.165.6-.072.266.021.87-.022l-.014.072.208-.065.273.194-.094-.108a2.1,2.1,0,0,1,.546.043l-.1.1c.553.007.611.259,1.15.173l-.094.057c.5-.108.338.237.848.094l-.007.115.23-.043-.036.144.208-.194.115.165.094-.057c.2.309.561.144.848.388l-.029-.194c.863-.259,1.833.4,2.818.453l-.043.144.431-.093c.194.158-.151.1-.093.187.438.007.216-.18.719-.122.237.151-.108.086-.237.115a5.287,5.287,0,0,1,1.5.223l.021-.05a7.468,7.468,0,0,1,1.064.2l-.194.058.4.065-.158.1c.259.079.784.065.813.223-.021-.065.014-.165.245-.115.072.245.64.029.978.223l-.252.022a.9.9,0,0,0,.532.007l-.072.072.863.108c.065.252.791.187.7.331.295.086-.223-.165.158-.086.079.115.353.05.3.187l-.043.007.266.065-.2.094c.23.036.438-.058.475-.165.194.137.518.158.575.309l-.086.014c.618.108.884.654,1.424.554l-.057.043.367.108-.122.079.662.007-.029.072c.4.122,1.028.3,1.546.475l-.086.007c.59.093.51.259.942.331l-.05.014.367.129-.1.036c.324-.05.7.475.583.288.173-.007.468.007.547-.065.4.137.064.122.287.273.288.108.381.007.748.216l-.036.065c.187.05.316.043.575.129l-.086.007c.468.007.432.388.877.209.151.122.5.194.424.331.532.137.942.273,1.459.446-.014.259.115.036.36.3l.029-.13c.712.309,1.381.964,2.171,1.265l-.036.13.216-.058c.813.417,1.848.971,2.466,1.359a2.344,2.344,0,0,1,.935.324l-.043-.007a9.208,9.208,0,0,1,1.833.971l-.108.086c.223-.043.374.2.5.28l-.108-.172a.553.553,0,0,1,.474.374l.353.036.021.072.086-.029.065.23c.086.007.481.18.683.108-.007.065.223.273.014.172l.949.7-.122-.151c.05-.122.388.007.51.158-.259-.043-.115.144-.086.28.173.029-.05-.173.058-.187a1.341,1.341,0,0,1,.647.352l-.129-.021c.251.115.23.374.46.518.259.05.352.23.438.014.316.158.029.2.108.28.194.007.561.338.554.467.345-.165.712.626.935.439l.151.288a.327.327,0,0,1,.41-.05c.136.187.015.266.029.359l.288-.137c.827,1.014,2.236,1.92,3.171,2.977a15.126,15.126,0,0,1,1.747,1.215l-.086-.022a5.656,5.656,0,0,1,.489.532,4.842,4.842,0,0,0-.3-.446,1.216,1.216,0,0,1,.374.23,10.163,10.163,0,0,0,1.963,2.028c.676.209.108.489.7.741l-.158-.007a12.078,12.078,0,0,0,1.438.891c-.273.165.316.288.151.359l.13-.05c.05.158.28.41.172.439l.316.093-.079.108c.244.288.87.827.812,1.158a16.966,16.966,0,0,1,2.473,2.639,1.924,1.924,0,0,1,.618.5l.072.316c.216.172.575.259.655.525h-.05c.194.2.288.467.561.582.18.252.295.539.122.554.223-.137.367.539.367.539s.568.8,1.46,2.042c.453.618.985,1.344,1.567,2.143.532.834,1.115,1.733,1.711,2.66,2.538,3.6,4.889,7.9,6.493,9.254.172.058.424.331.489.144.179.223.036.439.179.424-.107-.374.353-.043.309-.446l.144.194c.108,0-.252-.237-.072-.259l-.245.05a.521.521,0,0,1-.029-.4c-.173-.115-.511-.072-.6-.51l.072.1c-.18-.3.029-.259.029-.345l.036.072-.036-.316c.036.237.388.474.281.309-.144-.4,0,.122-.18-.144-.108-.165.036-.18.1-.2l-.18-.309c.1-.043.108.209.136.029l-.316-.338c.209-.208-.352-.36-.216-.661.216.252.072-.072.173-.072l-.4-.683.108.043c-.007-.165-.18-.18-.216-.252.036-.1-.287-.51-.115-.582-.151-.532-.316-.079-.46-.568.065-.115.216.331.208.079l-.288-.431a.283.283,0,0,1,.28.18c-.561-1.287-.352-2.294-1.215-3.279.014-.223.144.065.295.122-.661-.69-.46-1.258-.913-1.92l-.1.05a21.89,21.89,0,0,0-1.783-3.264l.015.172a2.438,2.438,0,0,1-.5-.453c.029-.058.273-.007.036-.288l-.014.23c-.345-1.079-1.833-2.819-2.79-4.328-.784-.913-1.452-1.984-2.279-2.926-.805-.956-1.611-1.912-2.423-2.768.244.266-.057.331-.194.086-.158-.87-.913-.906-1.194-1.69-1.028-.913-1.7-2.006-2.862-2.653l.072-.108c-.1-.173-.2-.144-.352-.273l.029-.021c-.309-.367-.82-.662-.978-.9l-.115.094c-.216-.187-.029-.187-.295-.324l.058-.05-.338-.129c.194-.173-.561-.568-.647-.805a10.138,10.138,0,0,1-1.323-.942c.007-.165-.525-.59-.827-.92-.683-.5-1.646-1.23-2.459-1.941l-.086.144-.223-.165.051-.058c-.058-.288-.532-.367-.647-.59.029.2.144.137.266.237.129.209-.136.2-.331-.058l.029-.029-.23-.05-.007-.4a22.252,22.252,0,0,1-2.193-1.251c.166-.065-.59-.352-.288-.453-.532-.244-.036.223-.352.223l-.281-.223.1-.151-.331-.2.115-.007c-.726-.316-1.057-.913-1.719-1.179l.123.23c-.676-.237-.432-.482-1.072-.7l.187-.043a.758.758,0,0,1-.618-.237c.021-.158.323.043.5.065-.208-.122-.755-.388-.662-.18-.273-.1-.3-.266-.417-.374-.022.029.187.216,0,.194a8.973,8.973,0,0,0-1.237-.8l.065-.093c-.431-.007-.237-.281-.719-.5" transform="translate(-299.361 -103.353)" fill="#2c2e50"></path><path id="Path_93670" data-name="Path 93670" d="M490.66,166.794l.151-.014Z" transform="translate(-310.589 -104.07)" fill="#2c2e50"></path></g></g></g></svg> 