<?xml version="1.0" encoding="UTF-8"?> <svg xmlns="http://www.w3.org/2000/svg" width="102.146" height="117.124" viewBox="0 0 102.146 117.124"><g id="Group_11703" data-name="Group 11703" transform="translate(-108 -3208.958)"><g id="np_business_842362_FFFFFF" transform="translate(134.046 3253.085)"><path id="Path_89765" data-name="Path 89765" d="M48.281,49.95,38.106,52.835v.053a4.111,4.111,0,0,1-.42,3.042,4.164,4.164,0,0,1-2.518,1.994,4.245,4.245,0,0,1-3.2-.367l-5.874-3.251.578-1,5.874,3.251a3.087,3.087,0,0,0,4.2-1.207,3.217,3.217,0,0,0,.367-1.207A2.51,2.51,0,0,0,35.9,51.579L21.583,43.656a4.526,4.526,0,0,0-3.514-.42h-.053c-.367.053-15.735,4.458-16.364,4.667H1.6L4.692,58.864,14.973,55.98c1.049.629,8.863,5.454,9.861,6.032a5.909,5.909,0,0,0,4.354.316c.053,0,20.926-5.927,20.926-5.927a3.574,3.574,0,0,0,2.1-4.3,3.179,3.179,0,0,0-3.932-2.149Z" transform="translate(-1.599 -30.702)" fill="#2c2e50"></path><path id="Path_89766" data-name="Path 89766" d="M52.5,33.033l2.989,1.573,5.14-5.874,4.563,3.04,5.874-6.136L73.9,27.368,73.375,19.5l-7.816,2.676,2.622,1.678-3.46,3.618-4.669-3.147Z" transform="translate(-25.802 -19.501)" fill="#2c2e50"></path></g><g id="BK_New_Logo-01" data-name="BK New Logo-01" transform="translate(108 3208.958)"><path id="Path_93660" data-name="Path 93660" d="M422.944,512.322l-.024-.022Z" transform="translate(-373.479 -395.198)" fill="#2c2e50"></path><path id="Path_93661" data-name="Path 93661" d="M295.25,155.07l.138-.16c-.068.073-.108.122-.138.16" transform="translate(-280.358 -134.52)" fill="#2c2e50"></path><path id="Path_93662" data-name="Path 93662" d="M550.09,436.9l-.03.005Z" transform="translate(-466.214 -340.202)" fill="#2c2e50"></path><path id="Path_93663" data-name="Path 93663" d="M390.867,451.225c-.062-.019-.1-.024-.1,0,.084.019.106.016.1,0" transform="translate(-350.029 -350.638)" fill="#2c2e50"></path><path id="Path_93664" data-name="Path 93664" d="M395.2,476.43l.024-.03Z" transform="translate(-353.26 -369.013)" fill="#2c2e50"></path><path id="Path_93665" data-name="Path 93665" d="M374.67,466.97l.07.016Z" transform="translate(-338.286 -362.134)" fill="#2c2e50"></path><g id="Group_11729" data-name="Group 11729" transform="translate(0 0)"><path id="Path_93666" data-name="Path 93666" d="M247.012,110.086a47.923,47.923,0,0,0-2.043,4.335c-.162.384-.352.755-.492,1.145s-.284.771-.422,1.147c-.281.752-.557,1.478-.828,2.146-.1.628-.317,1.515-.563,2.4l-.23.03-.157.752c-.152.281.133-.574-.1-.07l.041.314c-.089.035-.617,1.87-.392.6a13.794,13.794,0,0,0-.371,1.445l-.327,1.456c-.149.641.087.414-.122,1.112-.092.133.016-.262-.07-.222a6.082,6.082,0,0,0-.287,2.325,8.657,8.657,0,0,1-.146,2.224l0-.173c.006.349-.1,1-.065,1.009.244-.235-.062-.373.152-.971.171.076-.016.774.124.75a4.4,4.4,0,0,0-.051,1.164c-.162.69-.154,1.7-.333,2.224a8.88,8.88,0,0,1,.16,1.475c-.138.525-.133-.13-.184.593l.106.119c-.013.59-.043.5-.092.476a8.376,8.376,0,0,1,.081,1.321l-.1-.441c.041.587.024.828.019,1.645-.06-.016-.057-.344-.041-.587a2.026,2.026,0,0,0,.065,1c.027-.07.057-.639.157-.365-.019.406.2.852.092,1.147l-.135-.436a5.41,5.41,0,0,1,.2,1.413c-.011-.051-.035-.024-.06-.043a12.476,12.476,0,0,1,.187,2.316l-.041-.168c.057.363.189.549.211.744-.022-.517.03-.382.124-.438-.065.7.357,1,.428,2.111-.062-.008-.173-.262-.16-.574a2.422,2.422,0,0,1-.574-1.039c.106.414.208.9.116.809l.181.108c.038.254.068.455.095.644.119.092.087-.536.246.038.154.649-.111.376-.022.468.206.9.233.346.317,1.229a1.369,1.369,0,0,1-.078-.327c.016.641.3,1.524.154,1.745a.468.468,0,0,1-.16-.327l.033,0c-.287-.655.162.563-.057.384.092-.07.26.809.327,1.207l.089-.152c.663,1.218-.257-.014.116,1.261.29.8-.049-.317.165.162a7.534,7.534,0,0,0,.352,1.578c.022.235.1.706-.022.785a9.519,9.519,0,0,1,.295.953,2.546,2.546,0,0,0,.333.769c-.179-.852-.414-.777-.541-1.8l.208.233c.184.677.549,1.5.66,1.973-.008-.1.011-.154.057-.1.365.928.593,1.15.912,2.062-.065.162-.252-.373-.414-.755a12.769,12.769,0,0,0,.547,1.529c-.078.087-.233-.612-.368-.677l.422.99-.019.008c.222.076.311.758.622,1.34a8.155,8.155,0,0,0,1.464,2.238c.057.23.046.311-.035.244-.095-.376-.122-.29-.222-.39.238.465.354,1.1.16.877.438.714-.06-.308.23.116l.525,1.012c.016-.162-.154-.525.184-.038.254.428.346.649.674,1.21-.087-.06-.016.246-.257-.179a2.63,2.63,0,0,0,.544.833c-.287-.655.655.969.506.438.092.219.195.433.3.647-.084-.138-.146-.122-.257-.333-.011.244.344.471.487.671a7.14,7.14,0,0,1,.436.852,2.573,2.573,0,0,1,.43.766c.214.26.089-.027.181.027l.636.939c-.027.095-.146.292-.265.168.306.314.268,0,.639.533-.344-.214.425.755-.041.425a8.561,8.561,0,0,0,1.172,1.659c.314.216-.341-.539-.216-.587,1.05,1.272,1.377,1.134,2.1,2.1-.06-.087-.122-.168-.179-.257a4.9,4.9,0,0,0,.842.731c-.238-.07.241.925,1.131,1.791.124.024-.373-.6-.149-.53l.579.579c.032.051-.049,0-.135-.06.544.493.8,1.128,1.082,1.147l.382.674-.146-.273a7.8,7.8,0,0,1,.871.676,5,5,0,0,1,1.131,1.142c-.068-.143-.244-.49.26-.065-.168.176.971.993.885,1.061.208.168.525.528.612.474l-.13.087c.187-.127.909.528,1.534.936-.308.122.663.479.771.885.219-.057,1.112.728,1.318.666.474.322.325.436.409.571l.26.095a15.716,15.716,0,0,0,1.588,1.247l.593.181.146.184c.106.014.547.244.314.032l.273.173c.119-.146.417.187,1.012.446.114.1.057.119-.076.07.276.165.111.176.23.319-.179-.146,1.172.276.455-.214-.016-.092.455.1.714.273l.089.238.417.024a8.456,8.456,0,0,1,.926.609c-.363-.181-.955-.138-.011.346a10.791,10.791,0,0,0-1.061-.39c.192.111.282.176-.054.076.76.344.289.049,1.031.4-.108.114.079.257.7.617l-.436-.333.111.008c-.176-.1-.216-.149-.23-.219.146.073.939.249,1.023.39-.641-.568,1.372.465.955.108a1.517,1.517,0,0,1,.655.309c-.674-.171.4.36.26.411.252.062-.449-.317-.111-.23a3.662,3.662,0,0,1,.806.49l-.168-.041.555.314c.125-.027-.511-.36.035-.165.127.089.687.26.647.308-.3-.005-.16.195-.633.038.39.138,1.621.6,1.177.273l.457.181c-.268-.171-1.028-.584-.1-.252l-.019.024.676.141c.084.06.168.119.254.173.005-.038.119-.038.357.046.049.062.268.157.23.206.7.23.666.138.771.127.392.122.528.2.319.222.522.214,1.48.444,1.824.636.741.146-.141-.073.311-.046a2.447,2.447,0,0,0,.622.311c.271.089.59.171.928.249.679.152,1.432.308,2.04.4-.279-.29.335.041.6-.116-.273.019,1.107.4.041.252l.647.108c.417.211-1.082-.124-.452.179a5.668,5.668,0,0,0,1,.078,3.988,3.988,0,0,1,1.088.119c-.314.114.668.051.428.192a3.028,3.028,0,0,1-.668-.051l.146.054c1.594.3.492-.114,1.342-.092.977.1.752.217.8.3a3.888,3.888,0,0,0,.907.068c-.609.03-1.093-.227-.8-.3a3.826,3.826,0,0,0,1.718.141c-1.369-.352-.966-.122-2.243-.479-.187.038-.179.208-.95.016.5,0-.019-.1-.154-.143.135.119-.547-.046-.79-.046-.2-.111.5-.141-.279-.306l-.187.195c-.3-.087.157-.133-.5-.2.373-.046-.076-.187.817-.081a8.115,8.115,0,0,0-2.463-.287c.087,0,.1-.024.187-.022a3.561,3.561,0,0,1-.747-.084c-.522-.173.447,0,.322-.1-.292-.051-.576-.13-.866-.195l-.019-.022a1.082,1.082,0,0,1-.52-.133c.273-.005.392-.054.576-.068l-.939-.073c.116-.046-.712-.306-.057-.2-.449-.095-.893-.2-1.334-.325l-.07-.176c-.322-.068-.341-.041.032.087-.438-.165-2.078-.33-1.748-.552a27.7,27.7,0,0,1-2.668-.769c.985.23-1.009-.579,0-.257a5.108,5.108,0,0,0-1.2-.333c-.406-.225-.157-.287.325-.16l-.568-.146.022-.024c-.168-.032-.333-.078-.5-.116-.46-.287-.046-.184-.544-.422l-.162.073-.311-.219c.106.111-.206.005-.579-.143l.022-.024c-.154-.054-.306-.116-.455-.181.468.138-.39-.222-.149-.208-.373-.187-.382-.189-1.069-.5l.078.141c-.92-.36.022-.138-.687-.5l0,.116c-.923-.7-1.772-.815-2.444-1.348.43.225.384.057.363.078-.641-.346-1.664-.947-2.36-1.258-.152-.279-.181-.352-.793-.828a1.812,1.812,0,0,0-.755-.363c-.411-.363-1.3-.879-1.256-.985-.154,0-.392-.292-.671-.419l-.024-.076-.024.114c-.617-.782-1.4-.869-2.011-1.664l.146.087-.341-.23c-.022-.076.124.008.179-.027-.479-.417-.98-.806-1.44-1.242l.227.309a5.575,5.575,0,0,1-.871-.72c.671.392-.466-.428-.476-.6l.33.244c-.419-.365-.419-.365-.457-.257-.555-.468-.222-.487-.779-.869l.336.336c.06.141-.246-.035-.471-.257-.043-.065-.17-.254.011-.095-.438-.368-1.012-1-1.207-1.164-.189-.246-.065-.225.07-.122-.9-.82-.365-.411-1.269-1.237l.057-.024-.33-.268-.3-.533.084.211a8.94,8.94,0,0,1-.752-.828l.189.084c-.774-.823-.714-1.1-1.491-1.848-.032-.068.092.046.157.1-.733-.687-.333-.687-1.072-1.38.06.03.024-.079.068-.062l-.319-.33.116-.043-.365-.192c-.024-.1-.046-.2-.065-.3l-.146-.111c-.089-.53-.62-.993-.852-1.632l-.062.176c-1.18-1.234-1.913-3.312-2.958-5.028l.122-.024-.514-.668c-.127-.436.216.189.206.041-.468-.76-.325-.252-.809-1.166-.16-.511.16.127.306.333-.235-.425-.53-.95-.782-1.456a13.488,13.488,0,0,1-.56-1.326l-.049,0a19.862,19.862,0,0,1-.836-2.051c.057,0,.13.157.206.319a3.626,3.626,0,0,0-.311-.766l.195.214a7.055,7.055,0,0,1-.533-1.634c-.022.076-.116.081-.265-.368.076-.3-.463-1.2-.59-1.957.068.073.238.6.195.452a3.49,3.49,0,0,0-.4-.982l.1.078c-.195-.555-.365-1.12-.549-1.68.095-.292-.406-1.616-.249-1.529-.127-.617.032.533-.157-.241.03-.222-.189-.7-.065-.687l.032.081c-.038-.181-.092-.36-.119-.544.054.108.119.216.181.322-.125-.463-.273-.793-.371-.8a9.042,9.042,0,0,1-.087-1.312l.054.162a9.782,9.782,0,0,1-.141-1.656,7.02,7.02,0,0,0-.051-.723,3.783,3.783,0,0,0-.122-.72c.011-.076.041-.07.051.087l-.054-.785.1.179-.238-1.283.06.014c-.022-.428-.068-.977-.122-1.553-.035-.579-.03-1.191-.049-1.743l.03.165c-.1-1.2.054-1.164-.016-2.043l.027.095-.005-.793.06.176a5.375,5.375,0,0,1,.141-1.31,5.324,5.324,0,0,0-.127-1.012c.057-.863.092-.206.181-.736a9.216,9.216,0,0,1,.095-1.58l.057.024c.049-.392.041-.641.114-1.191l0,.165c.008-.909.336-1.082.181-1.824.1-.365.165-1.082.292-1.023.17-1.107.325-1.967.522-3.069.23-.127.035-.238.3-.866l-.116.022c.222-.758.528-1.553.833-2.362.149-.406.3-.817.449-1.229s.33-.812.468-1.223l.116-.008.016-.363c.371-.858.739-1.865,1.172-2.79l1.2-2.465c.078-.233.176-.528.287-.855a6.33,6.33,0,0,1,.509-.985l-.027.078c.306-.6.625-1.22.963-1.843.173-.308.349-.622.525-.939.2-.3.414-.6.63-.9-.013.1.095-.005.027.149a3.881,3.881,0,0,1,.652-.982l-.271.265a2.687,2.687,0,0,1,.744-.985l.276-.617.1-.076.019-.13c.1-.07.2-.143.314-.206a6.676,6.676,0,0,0,.649-1.153c.076-.022.484-.49.211-.1l1.515-1.883-.268.265c-.114-.032.284-.649.587-.885-.268.422.087.127.287.022.179-.281-.262.152-.189-.014a6.789,6.789,0,0,1,.969-1.158l-.135.211c.349-.444.658-.511,1.02-.928.271-.428.574-.647.376-.7.479-.538.284-.111.46-.262a3.851,3.851,0,0,1,1.107-.971c.1-.463,1.461-1.266,1.418-1.532a5.44,5.44,0,0,1,.522-.3c-.024-.057-.022-.233.333-.555.392-.238.376-.089.52-.13l.092-.363c.541-.368,1.1-.785,1.683-1.234.143-.111.29-.225.436-.341l.465-.317c.311-.214.628-.43.944-.649.633-.436,1.275-.874,1.9-1.3s1.3-.771,1.921-1.112c.536-.341,1.139-.725,1.764-1.126.641-.376,1.312-.752,1.978-1.08l-.133.1,1.35-.585-1.007.371c.279-.162.484-.308.769-.441.741-.325,1.634-.633,2.546-1.009.931-.336,1.883-.733,2.809-1.1,1.134-.666.874-.073,1.994-.612-.095.054-.122.1-.2.152,1.239-.482,1.927-.693,3.18-1.169-.089.279.844-.195.758-.038l.087-.124c.3,0,.985-.135.9-.041l.552-.233.07.095c.382-.065.98-.2,1.54-.29a3.87,3.87,0,0,1,1.3-.043,34.818,34.818,0,0,1,7.347-.585,8.005,8.005,0,0,1,1.6-.089l.587.152a8.273,8.273,0,0,1,1.689-.043l-.062.03c.574-.011,1.109.106,1.651.043.625.065,1.223.187,1.02.287.041-.1.371-.062.69,0,.16.032.317.068.433.1s.192.062.192.062.5.078,1.375.222c.438.073.977.143,1.594.262l2.07.438A57.385,57.385,0,0,1,322,87.842a60.079,60.079,0,0,1,11.349,6.882c3.269,2.49,5.861,4.852,7.388,6.137.254.127.806.625.7.336.417.4.457.709.609.72-.476-.617.363,0-.057-.644l.352.344c.122.024-.514-.436-.333-.436l-.238.027a2.309,2.309,0,0,1-.411-.644,2.8,2.8,0,0,1-1.177-.953l.176.173c-.5-.528-.211-.411-.295-.541l.111.116-.363-.5c.292.363.917.823.636.536-.557-.666.127.189-.344-.26-.292-.276-.141-.268-.084-.3l-.52-.506c.081-.046.338.341.195.07l-.717-.576c.035-.281-.777-.625-.936-1.063.514.414.011-.1.135-.078l-1.21-1.072c-.092-.124.363.233.173.076-.184-.249-.409-.292-.528-.4-.062-.141-.9-.806-.777-.879-.787-.771-.482-.146-1.218-.855-.046-.157.644.5.352.135l-.844-.644a.922.922,0,0,1,.549.281c-2.159-1.892-3.19-3.166-5.488-4.506-.257-.3.263.084.525.17A16.879,16.879,0,0,1,327.8,87.75a10.908,10.908,0,0,0-1.726-1.158l-.068.065a20.632,20.632,0,0,0-3.261-1.786l-1.805-.8c-.617-.238-1.231-.482-1.829-.739l.268.168a12.191,12.191,0,0,1-1.318-.352c-.049-.062.357-.087-.373-.279.138.078.43.206.328.216a31.732,31.732,0,0,0-4.519-1.524c-.463-.124-.936-.26-1.415-.376s-.971-.208-1.459-.311l-1.442-.314-1.4-.244a64.686,64.686,0,0,0-15.189-.5c.741-.084.444.168-.116.176-1.569-.216-2.633.368-4.219.379-2.779.609-5.344.928-7.785,2.027l-.081-.084a4.888,4.888,0,0,0-.858.336v-.03c-.95.271-2.013.82-2.557.977l.011.124c-.538.222-.317.024-.842.325l-.008-.062-.6.382c-.011-.108-.39.051-.825.252a9.324,9.324,0,0,1-1.139.53c-.674.346-1.894,1.1-2.917,1.607a16.455,16.455,0,0,0-2.243,1.134l-1.2.777c-.428.287-.861.614-1.318.936-.9.658-1.883,1.31-2.774,1.967l.114.081-.441.373c-.011-.03-.081.008-.022-.06-.441.165-1,.882-1.421,1.1.3-.092.325-.244.582-.449.406-.252.138.138-.4.493l-.008-.03-.292.333c-.106-.049-.444.165-.552.116a13.2,13.2,0,0,0-.99.893c-.29.306-.566.6-.844.893-.555.587-1.12,1.174-1.848,1.835.035-.106-.23.127-.447.373s-.438.457-.379.241c-.736.928.249-.03-.005.468-.222.241-.411.536-.509.528.068-.149-.271.114-.106-.1l-.517.6c-.062.046.032-.1.081-.176a21.161,21.161,0,0,1-1.478,1.64,15.289,15.289,0,0,0-1.285,1.64c-.008.13.368-.438.363-.308-.771,1.234-.893.928-1.637,2.062l.089-.281a4.484,4.484,0,0,1-.7,1.153c-.171.035.257-.563.406-.885-.279.409-.947,1.467-.647,1.212a4.308,4.308,0,0,1-.709.882c.019.024.373-.417.227-.1a19.183,19.183,0,0,0-1.678,2.525c-.022-.022-.095.014-.065-.068-.295.771-.487.563-.993,1.529" transform="translate(-240.217 -79.562)" fill="#2c2e50"></path><path id="Path_93667" data-name="Path 93667" d="M293.991,167.859a51.743,51.743,0,0,0-.3,8.795c.141.571.176,1.41.3,2.246l-.13.1.116.7c-.011.29-.081-.536-.081-.024l.114.254c-.057.062.233,1.8-.046.641.13.907.265,1.813.457,2.709.116.6.179.325.284.988-.011.141-.081-.23-.116-.165a10.226,10.226,0,0,0,.6,2.073,10.8,10.8,0,0,1,.693,1.932l-.062-.146.214.544a2.325,2.325,0,0,0,.133.325c.06-.273-.189-.29-.281-.861.119.014.287.655.36.59a7.417,7.417,0,0,0,.382,1c.125.644.552,1.478.639,1.97.149.284.392.566.685,1.18.119.484-.13-.068.116.552l.108.068c.216.5.165.433.127.428.249.528.3.392.6,1.063l-.246-.333c.273.471.36.674.7,1.345-.046.005-.181-.265-.273-.468a2.258,2.258,0,0,0,.471.8c-.005-.07-.254-.528-.068-.341a5.563,5.563,0,0,1,.541.915l-.263-.319a6.583,6.583,0,0,1,.709,1.107l-.054-.019a17.647,17.647,0,0,1,1.158,1.8l-.1-.125c.2.273.368.384.465.536-.244-.411-.152-.317-.122-.387.271.576.666.706,1.207,1.578-.041.011-.225-.162-.354-.417a2.768,2.768,0,0,1-.815-.674c.249.3.53.668.433.617l.16.035.346.492c.114.041-.187-.455.168-.038.4.468.111.327.208.373.56.639.311.2.787.863a1.626,1.626,0,0,1-.206-.233,10.1,10.1,0,0,1,.931,1.318.532.532,0,0,1-.26-.208l.022-.005c-.5-.428.373.39.152.314.024-.079.555.552.79.839l-.019-.141c1,.76-.176.07.685.942.582.52-.189-.227.184.078a12.633,12.633,0,0,0,1,1.1c.122.181.419.5.384.593a15.947,15.947,0,0,0,1.269,1.115c-.533-.6-.649-.476-1.253-1.2l.252.116c.479.433,1.091.985,1.423,1.288-.057-.07-.073-.114-.019-.092.728.566.977.676,1.654,1.258.041.138-.36-.2-.652-.441a8.41,8.41,0,0,0,1.156.955c-.005.084-.476-.368-.6-.376l.8.582-.008.011c.189-.013.587.479,1.11.79a9.36,9.36,0,0,0,2.173,1.15c.165.138.2.2.111.173-.271-.227-.241-.16-.36-.2.417.244.842.652.587.552.674.373-.2-.2.216.016.3.181.59.379.9.549-.078-.114-.4-.3.1-.079.411.206.6.322,1.123.614-.089-.016.122.171-.271-.049a3.322,3.322,0,0,0,.82.414c-.56-.346.988.433.593.127l.563.336a3.481,3.481,0,0,1-.36-.146c.127.162.493.211.7.3.2.122.739.382.771.425a2.843,2.843,0,0,1,.728.357c.292.106.046-.046.141-.038.322.138.639.287.963.414.032.068.065.227-.092.189.39.095.187-.089.75.124-.357-.03.717.346.208.281a8.044,8.044,0,0,0,1.753.655c.344.027-.547-.219-.487-.284,1.461.428,1.6.273,2.668.587l-.273-.095a6.382,6.382,0,0,0,1.009.162c-.105.022.068.138.409.281a8.744,8.744,0,0,0,1.415.387c.1-.03-.6-.227-.406-.265l.741.143c.052.019-.032.019-.13.011a6.072,6.072,0,0,0,1.429.279l.658.254-.26-.106c.1-.035.852.081,1.012.078a5.528,5.528,0,0,1,1.467.222c-.13-.057-.452-.187.154-.133-.024.176,1.269.171,1.245.246.246.014.682.095.714.03l-.046.1c.032-.068.273-.084.593-.081s.714-.008,1.058-.014c-.16.187.755,0,1.061.176.13-.122,1.223-.084,1.342-.195a.8.8,0,0,1,.62.135l.244-.054c.271.046,1.266-.027,1.862-.032.179-.054.36-.1.538-.162l.208.024c.084-.041.536-.114.252-.122l.295-.032c.008-.124.411-.087,1-.216.138,0,.108.035-.019.068.3-.038.179.043.346.06-.211.005,1.018-.406.222-.319-.062-.041.39-.157.679-.187l.195.078.322-.176c.444-.1.652-.057,1.012-.13-.365.089-.779.4.176.176-.5.135-.736.235-1,.3.2-.032.3-.038,0,.062.75-.173.241-.1.979-.281-.019.106.195.089.85-.027l-.5.041.087-.046c-.187.032-.241.03-.29,0a5.986,5.986,0,0,1,.966-.287c-.774.03,1.261-.428.766-.409a1.907,1.907,0,0,1,.647-.168c-.587.244.487-.022.409.073.219-.092-.5.065-.2-.057a4.861,4.861,0,0,1,.855-.154l-.146.06c.192-.041.384-.073.571-.127.076-.076-.56.1-.06-.095a5.359,5.359,0,0,1,.639-.179c-.222.146-.016.173-.446.336.36-.13,1.5-.528,1.009-.46l.43-.143c-.284.051-1.061.235-.206-.068v.022c.19-.092.384-.179.571-.276l.273-.054c-.016-.022.068-.078.284-.162.068.005.276-.065.276-.022.631-.254.56-.281.631-.341.349-.146.49-.179.349-.06.487-.181,1.3-.585,1.648-.679.614-.33-.138.041.2-.189a5.129,5.129,0,0,0,1.4-.59c.568-.3,1.185-.649,1.661-.955-.341.024.26-.17.371-.4-.187.165.99-.441.154.095l.517-.319c.4-.138-.836.56-.235.341.593-.341.879-.725,1.578-1.118-.165.238.5-.368.4-.16a3.782,3.782,0,0,1-.5.368l.13-.06c1.269-.793.292-.341.9-.831.731-.541.628-.352.7-.341a4.9,4.9,0,0,0,.666-.514c-.411.379-.869.549-.7.344a4.786,4.786,0,0,0,1.264-.969c-1.123.658-.731.522-1.791,1.123-.114.13-.022.211-.66.571.352-.295-.06-.033-.179.022.151-.024-.409.3-.579.441-.2.068.284-.36-.344.019l-.038.2c-.254.138.049-.154-.452.2.241-.238-.143-.046.538-.517a12.174,12.174,0,0,0-1.9,1.283c.065-.049.062-.07.124-.116a4.562,4.562,0,0,1-.574.387c-.457.222.317-.26.181-.23-.233.143-.474.273-.717.4h-.024a1.329,1.329,0,0,1-.444.225c.195-.154.257-.241.384-.352l-.717.487c.06-.087-.668.252-.141-.062-.373.2-.741.411-1.128.585l-.141-.046c-.268.141-.268.162.068.024-.4.157-1.683.958-1.553.682-.9.444-1.237.56-2.352,1.026.847-.384-1.047.23-.13-.124a6.635,6.635,0,0,0-1.061.444c-.417.095-.265-.06.157-.241l-.5.216,0-.022c-.143.065-.284.141-.428.2-.493.084-.13-.068-.628.06l-.081.116-.349.046c.138,0-.149.1-.506.211l0-.022-.43.141c.419-.168-.4.087-.222-.032-.376.084-.384.087-1.061.257l.133.032c-.877.257-.057-.078-.777.081l.06.057c-1.061.1-1.759.4-2.544.455.441-.084.317-.151.311-.127-.663.13-1.756.243-2.441.409a2.523,2.523,0,0,0-1.045-.095,2.04,2.04,0,0,0-.76.135,10.567,10.567,0,0,1-1.477,0c-.116.062-.452,0-.731.059l-.06-.03.043.068c-.893-.165-1.516.07-2.414-.095l.157-.008-.382,0c-.06-.035.1-.043.116-.081l-1.756-.13.341.076a4.7,4.7,0,0,1-1.045-.068c.712-.022-.582-.07-.685-.165l.379.016c-.514-.054-.514-.054-.479.022-.668-.057-.441-.17-1.061-.2.146.024.289.054.433.073.124.06-.2.073-.49.019-.068-.022-.268-.087-.046-.06-.525-.06-1.3-.225-1.537-.235-.276-.073-.176-.106-.019-.095-1.115-.173-.5-.119-1.613-.3l.027-.035-.39-.035c-.176-.062-.344-.146-.517-.216l.179.1c-.36-.089-.59-.122-1-.254l.184-.011c-1.02-.23-1.139-.409-2.108-.633-.062-.03.092,0,.17.013-.9-.2-.636-.287-1.537-.506.06,0-.027-.057.013-.06l-.409-.111.057-.062-.363-.011-.214-.168-.168-.022c-.368-.284-.988-.446-1.507-.787l.057.133c-1.524-.4-3.155-1.61-4.817-2.454l.068-.051-.706-.325c-.319-.271.246.073.157-.03-.725-.4-.354-.081-1.185-.566-.376-.322.173.049.39.138-.4-.208-.858-.522-1.3-.806a9.875,9.875,0,0,1-1.085-.777l-.032.011c-.5-.341-1.118-.833-1.629-1.25.038-.019.162.087.3.181a5.118,5.118,0,0,0-.593-.484l.233.108a10.508,10.508,0,0,1-1.2-1.053c.03.06-.041.1-.355-.206-.095-.254-.907-.777-1.377-1.3.081.038.463.384.357.284a7.125,7.125,0,0,0-.741-.641l.1.033-1.191-1.128c-.078-.257-1.036-1.147-.9-1.12-.382-.444.284.4-.216-.143-.092-.181-.46-.487-.379-.514l.06.054c-.114-.13-.219-.265-.327-.4l.263.206c-.29-.338-.552-.544-.612-.525a11.473,11.473,0,0,1-.69-1l.111.111a9.846,9.846,0,0,1-.842-1.291,8.075,8.075,0,0,0-.758-1.112c-.03-.065-.008-.068.07.054l-.39-.614.143.114c-.238-.322-.492-.639-.723-.969l.041-.008c-.382-.7-1.039-1.756-1.5-2.674l.087.127a16.951,16.951,0,0,1-.836-1.7l.051.07-.306-.668.1.133a6.14,6.14,0,0,1-.446-1.137,7.119,7.119,0,0,0-.468-.815c-.3-.744-.032-.2-.17-.677-.187-.549-.284-.622-.509-1.377l.043,0c-.133-.344-.219-.555-.371-1.045l.062.141a13.144,13.144,0,0,0-.522-1.618c-.051-.349-.235-.99-.149-.977-.157-.5-.271-.947-.371-1.4s-.217-.9-.314-1.407c.106-.184-.041-.219-.06-.85l-.062.057c-.249-1.448-.208-3.139-.317-4.741l.068-.049c-.035-.106-.06-.214-.087-.319-.024-1.735.092-3.973.227-5.347a11.139,11.139,0,0,1,.116-1.856v.076a25.931,25.931,0,0,1,.669-3.886c.011.089.06-.038.046.116a3.8,3.8,0,0,1,.249-1.064l-.138.319a3.438,3.438,0,0,1,.338-1.093l.084-.614.057-.1,0-.114.187-.284a9.058,9.058,0,0,0,.241-1.2c.043-.049.249-.585.124-.157.26-.7.52-1.4.8-2.1-.057.1-.108.208-.157.314-.089.014.127-.628.292-.939-.124.444.079.073.2-.087.081-.295-.16.222-.133.057a7.067,7.067,0,0,1,.514-1.3l-.073.219c.2-.482.411-.649.625-1.115.143-.441.338-.725.192-.693.29-.6.192-.189.306-.376a4.961,4.961,0,0,1,.674-1.185c.024-.406.963-1.513.9-1.707.114-.143.241-.279.363-.417-.024-.035-.041-.173.192-.555.265-.327.268-.206.371-.287l.032-.317a45.85,45.85,0,0,1,5.385-6.2,30.636,30.636,0,0,1,2.947-2.752l-.106.114c.357-.281.709-.571,1.088-.825-.281.176-.555.365-.817.566a5.511,5.511,0,0,1,.612-.549c1.229-.869,2.887-1.984,4.443-2.979.95-.747.741-.3,1.694-.942-.078.06-.1.1-.171.154,1.064-.62,1.632-.977,2.725-1.567-.06.214.731-.341.666-.214l.065-.106c.263-.089.877-.295.806-.222l.474-.281.07.049a11.187,11.187,0,0,1,2.522-.817,31,31,0,0,1,6.638-1.645,8.033,8.033,0,0,1,1.461-.268l.552.016a6.917,6.917,0,0,1,1.545-.216l-.054.027c.528-.049,1.031-.06,1.524-.146.582-.008,1.145.024.969.106.027-.07.336-.073.633-.057a4.919,4.919,0,0,1,.593.062s.465.019,1.291.049c.414.005.917.043,1.5.1s1.239.089,1.956.2a44.652,44.652,0,0,1,10.632,2.679,41.732,41.732,0,0,1,5.7,2.684,43.191,43.191,0,0,1,5.052,3.3,59.125,59.125,0,0,1,6.573,5.934c.206.149.666.655.566.4.349.4.4.66.522.7-.411-.59.281.068-.089-.536l.295.344c.1.043-.428-.449-.287-.417l-.181-.022a2.778,2.778,0,0,1-.363-.6,4.25,4.25,0,0,1-1-.972l.157.165c-.446-.5-.211-.36-.287-.479l.1.111-.327-.465c.252.349.8.809.549.536-.506-.622.114.176-.295-.263-.252-.273-.133-.241-.092-.254l-.449-.5c.06-.024.292.333.157.089-.206-.195-.4-.4-.617-.579,0-.216-.7-.6-.871-.977.455.406,0-.076.1-.041-.346-.357-.712-.7-1.088-1.023-.089-.111.325.23.149.084a2.517,2.517,0,0,0-.479-.384c-.07-.116-.825-.752-.736-.79-.747-.69-.414-.17-1.112-.812-.06-.127.593.463.306.149l-.777-.6a1.129,1.129,0,0,1,.487.284c-.5-.446-.963-.8-1.38-1.161s-.8-.7-1.2-1-.793-.6-1.22-.907a16.453,16.453,0,0,0-1.451-.855c-.262-.235.238.081.476.165-.4-.2-.725-.39-1.015-.568s-.557-.325-.809-.484a11.719,11.719,0,0,0-1.667-.944l-.051.043a33.662,33.662,0,0,0-6.554-2.6l.262.116c-.333-.032-.847-.171-1.231-.252-.052-.043.306-.049-.371-.208.135.054.411.157.319.162a30.872,30.872,0,0,0-4.27-1.026c-.869-.157-1.789-.26-2.7-.384-.912-.07-1.813-.187-2.66-.222a45.9,45.9,0,0,0-13.92,1.532c.66-.189.417.03-.089.138-1.44.125-2.333.752-3.751,1.069a35.979,35.979,0,0,0-6.676,3.2l-.076-.038a6.054,6.054,0,0,0-.714.455l0-.022c-.8.422-1.667,1.1-2.116,1.367l.016.084a6.093,6.093,0,0,0-.7.449l-.011-.041c-.165.138-.317.295-.474.441-.032-.149-1.218.9-1.6,1.11-.511.474-1.5,1.339-2.295,2.035a16.539,16.539,0,0,0-1.745,1.523,55.045,55.045,0,0,0-3.888,4.5l.095.024-.309.436c-.011-.019-.062.033-.022-.038a16.509,16.509,0,0,0-.993,1.331c.214-.181.222-.3.4-.547.295-.327.114.057-.26.514l-.011-.022-.181.363c-.084,0-.311.287-.4.287-.235.371-.455.712-.649,1.047s-.363.668-.538,1c-.368.65-.693,1.326-1.128,2.119.008-.1-.141.189-.284.457s-.26.522-.244.33c-.419,1.007.176-.114.051.376a2.675,2.675,0,0,1-.3.606c.03-.143-.181.189-.087-.041l-.3.663c-.038.06.008-.095.035-.171-.257.7-.525,1.294-.793,1.875a16.334,16.334,0,0,0-.666,1.8c.014.108.192-.49.206-.384-.365,1.285-.455,1.093-.774,2.3l.014-.265a6.132,6.132,0,0,1-.295,1.207c-.1.092.07-.566.138-.877-.141.433-.4,1.559-.243,1.237a5.47,5.47,0,0,1-.33.988c.016.014.181-.479.135-.162-.208.712-.468,1.829-.625,2.722-.019-.011-.06.046-.054-.035a15.674,15.674,0,0,1-.33,1.626" transform="translate(-279.177 -115.814)" fill="#2c2e50"></path><path id="Path_93668" data-name="Path 93668" d="M281.529,311.6c.652.777,1.551,1.726,2.184,2.5a2.578,2.578,0,0,1,.668.549l-.081.119.211.168c.041.108-.154-.135-.068.043l.133.016c-.024.049.43.533.06.268.23.257.455.517.7.76.157.168.179.013.33.219.005.065-.084-.046-.106.005.457.617.809.438,1.256.985l-.054-.03c.111.059.265.227.284.214.032-.162-.143-.035-.235-.249.1-.07.233.146.287.07.087.146.208.162.317.255.127.222.422.422.492.614a1.287,1.287,0,0,1,.484.233c.073.195-.092.035.07.233l.076-.024c.143.149.108.141.081.16.16.152.2.057.373.273l-.16-.054a4.833,4.833,0,0,1,.441.368c-.03.027-.116-.049-.173-.114.051.176.233.138.29.2,0-.038-.141-.176-.022-.165.1.1.292.122.314.249l-.162-.049c.26.149.176.035.417.273l-.035.016c.222.07.382.311.62.522l-.057-.024c.114.065.206.062.254.108-.114-.146-.062-.13-.033-.192.111.241.357.135.625.419-.03.027-.133.008-.192-.089-.179.011-.254.081-.471-.032.13.076.276.171.216.187l.106-.057c.073.051.124.1.179.141.073-.032-.073-.2.119-.108.208.114.03.162.089.146.281.16.179-.011.4.2l-.106-.057c.149.168.444.314.417.457-.043,0-.073.03-.133-.03l.013-.014c-.252-.073.179.1.046.152.03-.068.268.135.371.23l.013-.092c.514.089-.114.114.273.368.265.135-.076-.087.1-.022a1.666,1.666,0,0,0,.433.363c.049.073.16.2.119.282.168.07.422.338.555.322-.206-.233-.3-.095-.528-.39l.133-.016a6.817,6.817,0,0,1,.6.4l.011-.065a3.649,3.649,0,0,1,.7.365c-.008.092-.162-.032-.287-.106.146.173.181.138.455.341-.024.07-.192-.124-.26-.092.106.068.219.125.327.184l-.008.011c.108-.07.238.157.452.249a1.956,1.956,0,0,0,.92.271c.051.07.057.108.013.114-.087-.114-.087-.068-.143-.065.162.087.281.309.17.295.265.122-.057-.108.114-.046l.336.216c-.011-.076-.122-.162.076-.092a4.462,4.462,0,0,1,.425.233c-.043.011.019.114-.13.03a.5.5,0,0,0,.322.138c-.192-.168.382.149.265-.019l.192.165c-.049-.027-.073,0-.141-.046.019.114.19.076.271.108.068.057.262.173.262.214.081.016.241.125.249.184.111.041.035-.049.078-.057l.344.2c-.005.054-.038.195-.1.184.157.027.116-.108.319-.005-.162.03.238.2.014.219a1.61,1.61,0,0,0,.62.346c.149-.013-.181-.135-.133-.2.531.225.658.041,1.02.26l-.089-.068a1.037,1.037,0,0,0,.39.076c-.108.057.157.376.566.517.054-.033-.184-.181-.087-.225l.271.1-.06.016c.249.068.39.3.5.227l.184.235-.07-.1c.051-.03.322.068.384.073a.827.827,0,0,1,.5.265c-.033-.057-.114-.192.1-.116-.062.154.428.233.392.306.089.03.227.133.26.076l-.049.087c.07-.122.387,0,.639.068-.119.157.273.084.322.29.089-.1.449.119.528.03.189.062.133.17.165.227l.1-.016a3.084,3.084,0,0,0,.644.289l.235-.051.06.065c.041-.019.214.011.122-.054l.108.035c.043-.106.162.011.392.024.046.03.024.051-.027.054.108.03.046.07.095.122-.068-.049.446-.078.168-.206-.008-.049.171-.03.271.019l.038.108.154-.057c.17.033.222.116.357.154-.141-.03-.357.092.005.171a2.477,2.477,0,0,0-.4-.014c.073.022.108.041-.019.049.29.041.108-.024.392.024-.038.073.035.111.276.184l-.17-.089.041-.013c-.068-.022-.084-.038-.089-.07.057.011.352-.024.384.03-.249-.173.514.022.352-.081l.244.068c-.246,0,.154.116.106.152.092,0-.17-.089-.046-.087a1.034,1.034,0,0,1,.3.124h-.062l.208.073c.043-.022-.195-.1.008-.07l.238.073c-.105.022-.049.089-.222.068.141.024.59.106.425.016l.168.035c-.1-.043-.382-.152-.046-.087l-.005.011.243.008.095.046c0-.014.041-.019.127,0l.089.06c.252.041.238.011.273,0,.141.022.192.041.119.057.192.038.53.089.658.133.263.024-.051-.019.106-.019a6.106,6.106,0,0,0,1.272.222c-.108-.054.116.008.2-.016-.095,0,.4.078.024.043l.227.024c.152.035-.379-.027-.149.024.257.021.427.011.725.054-.1.005.233.022.154.03-.062,0-.146-.011-.23-.019l.051.008a2.508,2.508,0,0,0,.457.022c.338.041.265.038.284.043.065.005.214.022.314.03-.208-.016-.382-.043-.287-.038.149.024.5.057.6.07-.482-.065-.335-.038-.787-.111a1.919,1.919,0,0,1-.325-.032c.173.016-.011-.008-.057-.019a2.269,2.269,0,0,1-.273-.03c-.073-.019.168,0-.108-.046l-.057.019c-.108-.019.049-.013-.181-.041.127,0-.032-.032.276.013a4.724,4.724,0,0,0-.858-.106h.062c-.062,0-.176-.016-.26-.027-.187-.046.154.005.105-.016-.1-.013-.2-.038-.306-.057l-.008-.005a.667.667,0,0,1-.184-.038c.095,0,.132-.005.195-.005l-.325-.035c.038-.008-.257-.087-.027-.049l-.471-.1-.033-.049c-.114-.019-.119-.011.013.024-.157-.049-.731-.081-.625-.152-.376-.049-.509-.084-.961-.168.352.041-.373-.173-.008-.1-.2-.084-.262-.035-.43-.07-.149-.068-.065-.111.108-.084l-.2-.03.005-.011-.179-.014c-.173-.086-.022-.076-.206-.138l-.057.046-.116-.07c.04.041-.073.022-.211-.014l.005-.014-.168-.035c.173.008-.146-.057-.06-.081-.141-.043-.143-.043-.4-.108l.032.057c-.344-.057.005-.07-.263-.154l0,.057c-.357-.216-.663-.165-.928-.319.165.041.146-.041.138-.024a5.031,5.031,0,0,0-.915-.225c-.062-.124-.073-.16-.317-.292-.187-.06-.219-.06-.3-.024-.165-.106-.522-.171-.509-.244-.062.041-.157-.068-.273-.057l-.011-.035-.008.073c-.268-.26-.571-.111-.844-.357l.062,0-.146-.024.07-.07-.622-.241.106.095a.884.884,0,0,1-.379-.119c.284.008-.2-.089-.214-.181l.141.03c-.181-.07-.181-.07-.195,0-.244-.076-.111-.192-.354-.214l.152.068c.03.057-.1.062-.206.019-.022-.022-.081-.081,0-.054-.195-.054-.457-.2-.549-.211-.092-.062-.038-.095.022-.089-.419-.111-.173-.087-.593-.2l.022-.032-.154-.013-.154-.168.046.079a1.63,1.63,0,0,1-.357-.16l.084-.024c-.371-.143-.371-.289-.744-.376l.073-.008c-.354-.068-.189-.208-.557-.26l.024-.057-.16-.035.046-.065-.171.049-.051-.116-.073.008c-.084-.208-.344-.227-.5-.438l-.011.108c-.612-.1-1.128-.736-1.786-1.009l.051-.062-.3-.073c-.1-.135.116-.008.095-.07-.29-.127-.17.032-.492-.138-.13-.143.086-.016.176.005a4.729,4.729,0,0,1-.945-.536l-.022.022a4.051,4.051,0,0,1-.658-.417c.024-.027.079,0,.135.032-.073-.054-.16-.146-.243-.157l.116,0c-.152-.119-.49-.279-.482-.368,0,.038-.041.081-.176-.014-.005-.151-.4-.214-.584-.419l.162.068a.7.7,0,0,0-.341-.16l.057-.019c-.184-.1-.368-.2-.544-.309,0-.154-.476-.341-.39-.387-.173-.138.116.157-.116,0-.03-.087-.216-.135-.16-.189l.03.011-.16-.114.146.014c-.143-.089-.29-.1-.333-.06-.1-.133-.3-.241-.317-.341l.06.022c-.382-.244-.449-.625-.8-.752l.043,0-.208-.181.089,0-.409-.225.03-.027c-.219-.208-.6-.5-.9-.739l.057.024c-.354-.241-.276-.306-.533-.484l.035.011-.206-.189.07.014c-.208-.079-.357-.484-.314-.344-.111-.051-.29-.157-.349-.143-.227-.206-.019-.089-.135-.241-.157-.154-.238-.127-.425-.363l.032-.024c-.1-.095-.184-.138-.325-.273l.054.027c-.281-.168-.195-.365-.492-.422-.07-.119-.265-.281-.2-.327-.311-.249-.549-.447-.842-.714.054-.135-.062-.057-.168-.287l-.041.06c-.379-.411-.674-1-1.1-1.44l.041-.06-.141-.041c-.4-.528-.912-1.21-1.248-1.616a2.108,2.108,0,0,1-.52-.492l.024.016a9.207,9.207,0,0,1-.915-1.185c.043.008.03-.046.078-.011-.135-.054-.184-.241-.249-.333l.035.135a.525.525,0,0,1-.219-.376l-.2-.143v-.051l-.054-.014.008-.157c-.046-.038-.235-.281-.363-.311.013-.035-.087-.23.019-.1l-.446-.725.046.127c-.049.052-.227-.138-.273-.265.143.114.092-.041.095-.133-.095-.076,0,.116-.062.087a1.331,1.331,0,0,1-.327-.422l.073.057c-.133-.149-.076-.295-.179-.457-.135-.122-.157-.26-.241-.165-.149-.206.022-.127-.011-.2a.752.752,0,0,1-.227-.465c-.222-.03-.29-.617-.444-.59l-.032-.219c-.038.014-.138.022-.236-.116-.038-.16.043-.162.057-.222l-.179-.024c-.271-.89-.95-1.9-1.215-2.874a11.087,11.087,0,0,1-.687-1.367l.038.046-.149-.5.073.376a1.807,1.807,0,0,1-.152-.273,11.225,11.225,0,0,0-.658-1.919c-.3-.376.049-.336-.2-.706l.079.062a11.49,11.49,0,0,0-.544-1.077c.178,0-.1-.29,0-.273l-.076-.019c.013-.111-.035-.354.022-.333l-.135-.176.062-.035c-.065-.265-.273-.82-.173-.993a11.82,11.82,0,0,1-.62-2.522,1.567,1.567,0,0,1-.179-.539l.049-.219c-.057-.189-.195-.379-.17-.571l.024.019a1.887,1.887,0,0,0-.141-.566c-.03-.219-.022-.436.065-.382-.141,0-.054-.463-.054-.463s-.065-.7-.165-1.8c-.062-.547-.089-1.2-.125-1.908a14.774,14.774,0,0,0-.192-2.27,72.781,72.781,0,0,1-.712-8.189,2.45,2.45,0,0,0-.008-.257c.005-.181.005-.208.008-.336-.008.276,0-.087-.011.184l.011-.173c-.005.07-.005.068-.011.192v.049c-.008.116-.014.184-.019.265-.005.133.008.217-.013.53l0-.087c-.011.255-.019.154-.024.208l0-.057-.022.214c.016-.162.019-.433.011-.289-.027.3.008-.078,0,.149-.008.141-.016.1-.022.095l-.019.254c-.011-.011.014-.168-.005-.065l-.014.319c-.038.057-.008.349-.057.493.011-.23-.016.019-.024-.019-.019.187-.032.376-.041.563-.011.054-.005-.149-.008-.065a1.122,1.122,0,0,0,0,.233l-.062.4c-.054.382.041.165-.005.52-.03.046.011-.284-.027-.127l-.016.371a.357.357,0,0,1-.024-.214,22.65,22.65,0,0,0-.357,2.457c-.059.13-.027-.095-.054-.187a10.2,10.2,0,0,1-.233,1.51l.049.011a16.587,16.587,0,0,0-.225,2.665l.035-.111a2.838,2.838,0,0,1,.133.466c-.027.024-.141-.1-.089.16.016-.054.027-.168.062-.135a14.651,14.651,0,0,0,0,1.662c.046.666.127,1.391.16,2.032.111.858.273,1.745.387,2.638.138.888.327,1.767.517,2.6-.06-.252.108-.179.114.022-.108.576.279.885.254,1.458a14.731,14.731,0,0,0,.866,2.668l-.062.041c.014.141.07.162.122.3l-.019,0c.073.338.306.7.338.893l.078-.016c.079.187-.019.119.1.3l-.041.008.157.2c-.138.027.195.538.195.714.111.241.363.677.5,1.047a3.894,3.894,0,0,0,.26.844c.135.273.284.612.465.955s.371.709.536,1.061l.073-.054.1.176-.038.014c-.019.187.241.4.26.574.024-.13-.054-.133-.105-.235-.038-.168.111-.068.173.152l-.019.005.111.114c-.054.049-.019.187-.073.238.349.568.685.9,1,1.5-.1-.019.265.414.081.368.252.327.06-.116.238-.005.057.1.149.184.116.23-.057-.03-.022.125-.081.052l.16.225-.068-.032c.376.425.474.877.817,1.253.062,0-.1-.173-.038-.17.363.365.173.422.492.777l-.111-.043a.762.762,0,0,1,.311.355c-.038.081-.184-.13-.279-.211.092.146.373.479.352.333a.829.829,0,0,1,.179.354c.019-.008-.07-.187.03-.111a9.4,9.4,0,0,0,.587.88l-.054.03c.271.16.111.244.354.536" transform="translate(-263.319 -221.449)" fill="#2c2e50"></path><path id="Path_93669" data-name="Path 93669" d="M471.225,167.881c-.238-.114-.514-.249-.79-.382-.281-.116-.565-.227-.8-.349a1.063,1.063,0,0,1-.446-.1l.024-.1-.141-.03c-.041-.051.105.027.03-.049l-.073.032c.005-.038-.317-.171-.076-.138l-.5-.227c-.108-.051-.095.046-.208-.03l.054-.035c-.338-.23-.5.011-.831-.162h.035c-.068,0-.181-.041-.187-.03.011.108.081-.027.168.065-.038.073-.149-.005-.165.054-.07-.057-.135-.03-.208-.051-.1-.092-.29-.122-.357-.216a.571.571,0,0,1-.29.014c-.07-.095.041-.051-.073-.119l-.035.038c-.1-.043-.078-.051-.068-.07-.108-.041-.111.03-.238-.049l.092-.016a1.182,1.182,0,0,1-.284-.1l.106.019c-.054-.1-.141-.019-.179-.041.005.024.1.07.038.1-.065-.035-.168.011-.2-.057l.092-.022c-.16-.005-.1.035-.263-.03l.016-.022c-.127.03-.252-.065-.409-.114l.035,0c-.07,0-.116.03-.152.016.084.051.054.06.049.106-.1-.111-.208.038-.392-.062l.114,0c.089-.059.116-.124.249-.127-.078,0-.17-.016-.143-.043l-.043.068-.114-.035c-.033.041.07.1-.043.1s-.041-.092-.07-.065c-.17-.016-.089.06-.238-.008l.062.005c-.1-.06-.279-.062-.287-.16l.073-.022-.005.014c.141-.03-.108-.011-.049-.081-.005.049-.16-.005-.227-.032l.008.06c-.276.1.041-.106-.2-.149-.157-.005.051.03-.049.043-.1-.038-.124-.095-.276-.114-.035-.032-.114-.076-.108-.141-.1.005-.271-.084-.336-.033.143.081.171-.032.333.081l-.065.049a2.607,2.607,0,0,1-.373-.068l.005.043c-.184-.014-.249.038-.417-.016-.011-.06.089-.03.162-.019-.1-.068-.116-.027-.287-.078,0-.049.116.027.146-.016l-.195-.022,0-.011c-.043.076-.146-.035-.268-.035-.279-.057-.341.043-.506.078l-.024-.07c.062.049.054.019.084,0-.095-.011-.192-.122-.133-.143-.154-.005.046.054-.049.06l-.2-.046c.016.046.087.07-.024.081a1.848,1.848,0,0,1-.249-.046c.019-.016-.027-.07.06-.051a.193.193,0,0,0-.184,0c.122.054-.217.008-.13.087l-.122-.054.078-.008c-.027-.068-.108.005-.154.005l-.168-.065-.154-.049c-.062.005-.011.041-.03.06l-.206-.033.022-.146c-.081.022-.041.1-.16.081.076-.06-.149-.07-.041-.141a.642.642,0,0,0-.365-.076c-.073.046.111.046.1.1-.3-.019-.336.133-.552.078l.054.022a.423.423,0,0,0-.208.046c.043-.062-.135-.208-.363-.214-.022.033.119.076.078.127-.049,0-.1,0-.149,0l.027-.024c-.135.016-.241-.1-.287-.024l-.127-.108.051.046-.206.046a.328.328,0,0,1-.289-.051c.024.03.087.1-.035.1.008-.111-.249-.057-.244-.114l-.141.005.011-.07c-.016.1-.195.081-.33.092.038-.13-.149,0-.206-.122-.03.089-.243.022-.271.1-.106,0-.092-.084-.116-.114l-.049.03a1.292,1.292,0,0,0-.365-.087l-.111.081-.041-.035c-.019.022-.108.032-.054.062l-.06-.005c-.005.087-.084.024-.2.062l.005-.046c-.06,0-.032-.046-.065-.073.041.022-.214.157-.054.195.011.035-.081.062-.138.046l-.035-.076-.07.081c-.089.011-.13-.038-.2-.046.073-.005.165-.152-.027-.146a.74.74,0,0,0,.206-.07c-.041,0-.06-.011,0-.043-.151.024-.051.049-.2.06.008-.07-.035-.092-.165-.114l.1.051-.019.019.057.046-.2.046c.151.108-.262.087-.165.149l-.133-.011c.125-.054-.095-.078-.076-.127-.046.022.1.051.038.078a.322.322,0,0,1-.173-.06l.03-.014-.116-.03c-.019.035.114.057.008.076l-.133-.024c.049-.049.011-.111.1-.125-.076.005-.314.016-.217.078l-.089,0c.057.03.216.081.038.092v-.014l-.122.054-.057-.035-.062.032-.054-.054c-.135.014-.122.046-.138.068-.073.011-.1,0-.07-.046a1.36,1.36,0,0,1-.355-.014c-.135.041.03.014-.049.065-.125-.114-.457-.016-.679.014.068.1-.06.016-.095.116.046-.035-.219-.068-.024-.111l-.119.019c-.087-.054.195-.057.065-.127-.135.014-.214.135-.373.106.046-.079-.119.032-.087-.051l.119-.032-.03-.014c-.3,0-.079.095-.227.157-.179.022-.146-.049-.16-.084l-.165.027c.105-.054.206.032.16.084-.087-.081-.268.011-.311.049.263.073.179-.008.425.073.03-.03.019-.106.165-.084-.087.043.011.043.035.054l.141-.046c.043.032-.078.108.068.116l.019-.106c.06.011-.019.078.1.046-.062.06.027.084-.138.111.2.076.295-.068.446-.116l-.03.03.135-.041c.1.016-.076.051-.049.078l.162-.014.005.008.1-.005-.095.1.165-.084c-.016.035.143.049.024.084l.252-.033.024.068c.06-.016.06-.03-.011-.035.087.011.376-.149.336-.008a2.21,2.21,0,0,1,.506-.095c-.181.065.214.081.019.111.116.03.138-.046.227-.057.087.03.049.1-.041.124l.106-.033,0,.014.092-.041c.1.038.022.07.124.078l.022-.062.07.035c-.027-.027.032-.041.108-.046l0,.014.089-.014c-.089.038.081.014.041.057a1.145,1.145,0,0,0,.216-.011l-.024-.043c.181-.038.008.062.154.065l-.008-.049c.211.081.357-.049.514,0-.089.011-.068.068-.065.054a2.1,2.1,0,0,0,.492-.068c.049.07.062.092.2.122.1,0,.119-.005.154-.046.1.032.29,0,.292.054.024-.041.089.014.146-.019l.011.022-.005-.049c.173.119.3-.043.476.062l-.033.011.076-.014-.024.062.349.03-.068-.041c.073,0,.127-.046.208-.011-.146.065.116.011.135.068l-.076.014c.1,0,.1,0,.1-.049.135-.011.084.1.211.054l-.087-.008c-.024-.03.043-.065.1-.062l.008.035c.105-.014.263.022.308.005.054.019.033.051,0,.062.227-.027.1.008.327-.008l-.005.027.078-.024.1.073-.035-.041a.79.79,0,0,1,.206.016l-.038.038c.208,0,.23.1.433.065l-.035.022c.189-.041.127.089.319.035l0,.043.087-.016-.014.054.078-.073.043.062.035-.022c.076.116.211.054.319.146l-.011-.073c.325-.1.69.152,1.061.171l-.016.054.162-.035c.073.06-.057.038-.035.07.165,0,.081-.068.271-.046.089.057-.041.032-.089.043a1.989,1.989,0,0,1,.563.084l.008-.019a2.8,2.8,0,0,1,.4.076l-.073.022.149.024-.06.038c.1.03.3.024.306.084-.008-.024.005-.062.092-.043.027.092.241.011.368.084l-.095.008a.337.337,0,0,0,.2,0l-.027.027.325.041c.024.095.3.07.263.125.111.033-.084-.062.06-.032.03.043.133.019.114.07l-.016,0,.1.024-.076.035c.087.014.165-.022.179-.062.073.051.195.06.216.116l-.032.005c.233.041.333.246.536.208l-.022.016.138.041-.046.03.249,0-.011.027c.152.046.387.114.582.179l-.033,0c.222.035.192.1.355.124l-.019.005.138.049-.038.014c.122-.019.262.179.219.108.065,0,.176,0,.206-.024.152.051.024.046.108.1.108.041.143,0,.281.081l-.014.024c.07.019.119.016.217.049l-.033,0c.176,0,.163.146.33.078.057.046.187.073.16.124.2.051.355.1.549.168-.005.1.043.014.135.114l.011-.049c.268.116.52.363.817.476l-.014.049.081-.022c.306.157.7.365.928.511a.882.882,0,0,1,.352.122l-.016,0a3.469,3.469,0,0,1,.69.365l-.041.032c.084-.016.141.076.189.106l-.041-.065a.208.208,0,0,1,.179.141l.133.014.008.027.032-.011.024.087c.032,0,.181.068.257.041,0,.024.084.1.006.065l.357.265-.046-.057c.019-.046.146,0,.192.06-.1-.016-.043.054-.032.106.065.011-.019-.065.022-.07a.5.5,0,0,1,.244.133l-.049-.008c.095.043.087.141.173.195.1.019.133.087.165.005.119.059.011.076.041.106.073,0,.211.127.208.176.13-.062.268.235.352.165l.057.108a.123.123,0,0,1,.154-.019c.051.07.005.1.011.135l.108-.051c.311.382.842.723,1.193,1.12a5.686,5.686,0,0,1,.658.457l-.032-.008a2.149,2.149,0,0,1,.184.2,1.833,1.833,0,0,0-.114-.168.458.458,0,0,1,.141.087,3.828,3.828,0,0,0,.739.763c.254.078.041.184.265.279l-.06,0a4.54,4.54,0,0,0,.541.336c-.1.062.119.108.057.135l.049-.019c.019.06.105.154.065.165l.119.035-.03.041c.092.108.327.311.306.436a6.386,6.386,0,0,1,.931.993.724.724,0,0,1,.233.189l.027.119c.081.065.217.1.246.2h-.019c.073.076.108.176.211.219.068.095.111.2.046.208.084-.051.138.2.138.2s.214.3.549.769l.59.806c.2.314.419.652.644,1a29.682,29.682,0,0,0,2.444,3.483c.065.022.16.124.184.054.068.084.013.165.068.16-.041-.141.133-.016.116-.168l.054.073c.041,0-.095-.089-.027-.1l-.092.019a.2.2,0,0,1-.011-.149c-.065-.043-.192-.027-.225-.192l.027.038c-.068-.114.011-.1.011-.13l.014.027-.014-.119c.014.089.146.179.106.116-.054-.152,0,.046-.068-.054-.041-.062.013-.068.038-.076l-.068-.116c.038-.016.041.079.051.011l-.119-.127c.079-.078-.133-.135-.081-.249.081.095.027-.027.065-.027l-.149-.257.041.016c0-.062-.068-.068-.081-.095.014-.038-.108-.192-.043-.219-.057-.2-.119-.03-.173-.214.024-.043.081.125.078.03l-.108-.162a.106.106,0,0,1,.105.068c-.211-.484-.133-.863-.457-1.234.005-.084.054.024.111.046-.249-.26-.173-.474-.344-.723l-.038.019a8.241,8.241,0,0,0-.671-1.229l.005.065a.919.919,0,0,1-.187-.17c.011-.022.1,0,.013-.108l-.005.087a11.778,11.778,0,0,0-1.05-1.629c-.3-.344-.547-.747-.858-1.1s-.606-.72-.912-1.042c.092.1-.022.124-.073.032-.06-.327-.344-.341-.449-.636a6.655,6.655,0,0,0-1.077-1l.027-.041c-.038-.065-.076-.054-.133-.1l.011-.008c-.116-.138-.309-.249-.368-.338l-.043.035c-.081-.07-.011-.07-.111-.122l.022-.019-.127-.049c.073-.065-.211-.214-.244-.3a3.82,3.82,0,0,1-.5-.354c0-.062-.2-.222-.311-.346-.257-.189-.62-.463-.926-.731l-.032.054-.084-.062.019-.022c-.022-.108-.2-.138-.244-.222.011.076.054.051.1.089.049.079-.052.076-.125-.022l.011-.011-.087-.019,0-.149a8.385,8.385,0,0,1-.825-.471c.062-.024-.222-.133-.108-.171-.2-.092-.013.084-.132.084l-.106-.084.038-.057-.124-.076.043,0c-.273-.119-.4-.344-.647-.444l.046.087c-.254-.089-.162-.181-.4-.262l.07-.016a.285.285,0,0,1-.233-.089c.008-.059.122.016.189.024-.078-.046-.284-.146-.249-.068-.1-.038-.114-.1-.157-.141-.008.011.07.081,0,.073a3.37,3.37,0,0,0-.465-.3l.024-.035c-.162,0-.089-.106-.271-.189" transform="translate(-393.742 -141.318)" fill="#2c2e50"></path><path id="Path_93670" data-name="Path 93670" d="M490.66,166.785l.057-.005Z" transform="translate(-422.888 -143.178)" fill="#2c2e50"></path></g></g></g></svg> 