<?xml version="1.0" encoding="UTF-8"?> <svg xmlns="http://www.w3.org/2000/svg" width="69.889" height="69.879" viewBox="0 0 69.889 69.879"><path id="np_call_1975558_000000" d="M69.881,55.19a16.43,16.43,0,0,1-.5,3.5,19.5,19.5,0,0,1-1.043,3.4q-1.044,2.481-6.055,5.26a19.248,19.248,0,0,1-9.232,2.53,18.95,18.95,0,0,1-2.607-.175,21.213,21.213,0,0,1-2.853-.62q-1.589-.446-2.359-.721t-2.754-1.018q-1.986-.745-2.432-.893a44.938,44.938,0,0,1-8.686-4.119,73.633,73.633,0,0,1-13.127-10.7A73.422,73.422,0,0,1,7.545,38.514a44.848,44.848,0,0,1-4.119-8.686q-.147-.446-.893-2.432T1.515,24.642q-.274-.77-.721-2.358a21.307,21.307,0,0,1-.62-2.853A18.879,18.879,0,0,1,0,16.826,19.256,19.256,0,0,1,2.53,7.594Q5.31,2.582,7.79,1.54A19.621,19.621,0,0,1,11.192.5a16.43,16.43,0,0,1,3.5-.5,2.742,2.742,0,0,1,1.043.15q.893.3,2.631,3.772.545.942,1.488,2.681t1.736,3.153q.794,1.413,1.54,2.656.147.2.868,1.242a14.069,14.069,0,0,1,1.067,1.761,3.228,3.228,0,0,1,.347,1.414A4.13,4.13,0,0,1,24,19.31a24.028,24.028,0,0,1-3.076,2.73,29.563,29.563,0,0,0-3.076,2.631,3.782,3.782,0,0,0-1.414,2.282,3.333,3.333,0,0,0,.248,1.116,10.608,10.608,0,0,0,.423,1.018q.172.348.7,1.19c.347.562.538.876.571.942A52.056,52.056,0,0,0,27,42.884a52.137,52.137,0,0,0,11.664,8.637c.066.033.379.224.942.571s.961.579,1.19.7.571.257,1.018.423a3.333,3.333,0,0,0,1.116.248,3.782,3.782,0,0,0,2.282-1.414,29.9,29.9,0,0,0,2.631-3.076,24.034,24.034,0,0,1,2.73-3.076,4.13,4.13,0,0,1,2.481-1.414,3.228,3.228,0,0,1,1.414.347,13.693,13.693,0,0,1,1.761,1.067c.7.48,1.108.77,1.242.868q1.241.745,2.656,1.54t3.153,1.736q1.736.942,2.681,1.488,3.472,1.736,3.772,2.631a2.8,2.8,0,0,1,.15,1.043Z" transform="translate(0 0)" fill="#fff"></path></svg> 