<?xml version="1.0" encoding="UTF-8"?> <svg xmlns="http://www.w3.org/2000/svg" width="300.621" height="152.943" viewBox="0 0 300.621 152.943"><g id="Group_12061" data-name="Group 12061" transform="translate(-16339 -2360.931)"><path id="Path_103632" data-name="Path 103632" d="M291.241,449.3v.916a7.445,7.445,0,0,0-3.718-1.056A4.688,4.688,0,0,0,284.2,457.1a4.78,4.78,0,0,0,3.547,1.32,6.21,6.21,0,0,0,2.872-.644v-2.833h-2.212v-.675h3.035v4.013a8.567,8.567,0,0,1-3.726.885,5.676,5.676,0,0,1-4.067-1.545,5.37,5.37,0,0,1-.031-7.677,5.611,5.611,0,0,1,4.029-1.529,8.6,8.6,0,0,1,3.594.893" transform="translate(16099.462 2005.995)" fill="#211f1f"></path><path id="Path_103633" data-name="Path 103633" d="M299.635,448.58v9.8h5.185v.675h-6V448.58Z" transform="translate(16095.702 2005.957)" fill="#211f1f"></path><path id="Path_103634" data-name="Path 103634" d="M315.074,448.41a5.44,5.44,0,0,1,3.943,1.568,5.314,5.314,0,0,1,0,7.63,5.743,5.743,0,0,1-7.871,0,5.332,5.332,0,0,1,0-7.63,5.4,5.4,0,0,1,3.927-1.568m.031,10a4.514,4.514,0,0,0,3.307-1.335,4.676,4.676,0,0,0,0-6.574,4.52,4.52,0,0,0-3.307-1.343,4.573,4.573,0,0,0-3.33,1.343,4.638,4.638,0,0,0,0,6.574,4.568,4.568,0,0,0,3.33,1.335" transform="translate(16093.303 2005.995)" fill="#211f1f"></path><path id="Path_103635" data-name="Path 103635" d="M328.39,448.58h2.181a4.026,4.026,0,0,1,2.6.722,2.422,2.422,0,0,1,.885,1.987,2.565,2.565,0,0,1-1.506,2.336q2.422.524,2.422,2.654a2.448,2.448,0,0,1-.947,2.026,4.017,4.017,0,0,1-2.569.753H328.39Zm.815.675v4.184h1.125c1.91,0,2.856-.7,2.856-2.088s-.963-2.1-2.888-2.1Zm0,4.859v4.269h2.166a3.167,3.167,0,0,0,2.041-.574,1.906,1.906,0,0,0,.7-1.545q0-2.142-3.089-2.142h-1.816Z" transform="translate(16089.084 2005.957)" fill="#211f1f"></path><path id="Path_103636" data-name="Path 103636" d="M345.061,448.48l4.844,10.556h-.854l-1.661-3.625h-5.123l-1.653,3.625h-.854L344.6,448.48Zm2.026,6.264-2.259-4.937-2.251,4.937Z" transform="translate(16086.54 2005.979)" fill="#211f1f"></path><path id="Path_103637" data-name="Path 103637" d="M357.255,448.58v9.8h5.185v.675h-6V448.58Z" transform="translate(16082.809 2005.957)" fill="#211f1f"></path><g id="Group_12047" data-name="Group 12047" transform="translate(16372.53 2425.624)"><path id="Path_103638" data-name="Path 103638" d="M285.153,412.789a4.775,4.775,0,0,1,1.925,4.028A4.891,4.891,0,0,1,286.014,420a5.174,5.174,0,0,1-2.919,1.739,5.683,5.683,0,0,1,3.586,1.832,5.421,5.421,0,0,1,1.3,3.71,5.2,5.2,0,0,1-2.111,4.4,9.575,9.575,0,0,1-5.845,1.583H270.49V411.33h9.369a8.628,8.628,0,0,1,5.294,1.459m-2.29,6.994a2.92,2.92,0,0,0,1.11-2.461,2.861,2.861,0,0,0-1.11-2.414,4.96,4.96,0,0,0-3.151-.815h-6.2v6.551h6.2a5.027,5.027,0,0,0,3.151-.862m.675,9.8a3.082,3.082,0,0,0,1.382-2.678,2.97,2.97,0,0,0-1.382-2.6,6.724,6.724,0,0,0-3.827-.939h-6.2v7.149h6.2a6.456,6.456,0,0,0,3.827-.931" transform="translate(-270.49 -411.33)" fill="#211f1f"></path></g><g id="Group_12048" data-name="Group 12048" transform="translate(16394.855 2425.632)"><path id="Path_103639" data-name="Path 103639" d="M313.416,433.276l-4.354-6.893c-.5.047-.908.062-1.219.062h-5.581v6.831H299.25V411.34h8.585a9.716,9.716,0,0,1,6.443,1.925,6.785,6.785,0,0,1,2.274,5.472,7.724,7.724,0,0,1-1.242,4.479,6.925,6.925,0,0,1-3.555,2.631l5.107,7.428Zm-5.573-9.563a6.658,6.658,0,0,0,4.323-1.234,4.453,4.453,0,0,0,1.506-3.648,4.282,4.282,0,0,0-1.506-3.555,6.748,6.748,0,0,0-4.323-1.211h-5.581v9.648Z" transform="translate(-299.25 -411.34)" fill="#211f1f"></path></g><g id="Group_12049" data-name="Group 12049" transform="translate(16417.52 2425.632)"><path id="Path_103640" data-name="Path 103640" d="M328.45,411.34h15.229v2.725H331.454v6.768h10.937v2.725H331.454v6.994h12.6v2.724h-15.6Z" transform="translate(-328.45 -411.34)" fill="#211f1f"></path></g><g id="Group_12050" data-name="Group 12050" transform="translate(16434.936 2425.632)"><path id="Path_103641" data-name="Path 103641" d="M370.233,433.276l-2.321-5.325H356.347l-2.29,5.325H350.89l9.749-21.935h3.136l9.718,21.935Zm-12.691-8.057h9.213l-4.642-10.657Z" transform="translate(-350.89 -411.34)" fill="#211f1f"></path></g><g id="Group_12051" data-name="Group 12051" transform="translate(16460.732 2425.632)"><path id="Path_103642" data-name="Path 103642" d="M402.524,433.276h-3.64l-7.708-10.122-4.044,4.386v5.736H384.12V411.34h3.012v12.311l11.224-12.311h3.6l-8.686,9.462Z" transform="translate(-384.12 -411.34)" fill="#211f1f"></path></g><g id="Group_12052" data-name="Group 12052" transform="translate(16480.072 2425.632)"><path id="Path_103643" data-name="Path 103643" d="M409.04,411.34h17.139V414.1H419.1v19.18h-3.012V414.1H409.04Z" transform="translate(-409.04 -411.34)" fill="#211f1f"></path></g><g id="Group_12053" data-name="Group 12053" transform="translate(16500.658 2425.632)"><path id="Path_103644" data-name="Path 103644" d="M435.56,411.34h3.012v9.772h12.536V411.34h3.043v21.935h-3.043v-9.431H438.572v9.431H435.56Z" transform="translate(-435.56 -411.34)" fill="#211f1f"></path></g><g id="Group_12054" data-name="Group 12054" transform="translate(16525.516 2425.632)"><path id="Path_103645" data-name="Path 103645" d="M481.746,433.276l-4.355-6.893c-.5.047-.908.062-1.219.062h-5.581v6.831H467.58V411.34h8.585a9.715,9.715,0,0,1,6.442,1.925,6.785,6.785,0,0,1,2.274,5.472,7.779,7.779,0,0,1-1.234,4.479,6.958,6.958,0,0,1-3.555,2.631l5.107,7.428Zm-5.573-9.563a6.657,6.657,0,0,0,4.323-1.234A4.453,4.453,0,0,0,482,418.83a4.282,4.282,0,0,0-1.506-3.555,6.748,6.748,0,0,0-4.323-1.211h-5.581v9.648Z" transform="translate(-467.58 -411.34)" fill="#211f1f"></path></g><g id="Group_12055" data-name="Group 12055" transform="translate(16546.229 2425.438)"><path id="Path_103646" data-name="Path 103646" d="M511.618,412.565a11.094,11.094,0,0,1,4.184,4.029,10.7,10.7,0,0,1,1.537,5.627,10.87,10.87,0,0,1-1.537,5.659,11.157,11.157,0,0,1-4.184,4.075,12.085,12.085,0,0,1-11.628,0,11.155,11.155,0,0,1-4.184-4.075,10.868,10.868,0,0,1-1.537-5.659,10.719,10.719,0,0,1,1.537-5.627,11.165,11.165,0,0,1,4.168-4.029,12.227,12.227,0,0,1,11.643,0m-10.029,2.352a8.6,8.6,0,0,0-3.12,3.058,8.06,8.06,0,0,0-1.157,4.246,8.206,8.206,0,0,0,1.157,4.261,8.566,8.566,0,0,0,3.12,3.089,8.294,8.294,0,0,0,4.246,1.141,8.1,8.1,0,0,0,4.215-1.141,8.684,8.684,0,0,0,3.074-3.089,8.5,8.5,0,0,0,0-8.507,8.537,8.537,0,0,0-3.074-3.058,8.206,8.206,0,0,0-4.215-1.125,8.358,8.358,0,0,0-4.246,1.125" transform="translate(-494.27 -411.09)" fill="#211f1f"></path></g><g id="Group_12056" data-name="Group 12056" transform="translate(16573.16 2425.624)"><path id="Path_103647" data-name="Path 103647" d="M533.641,429.059a6.181,6.181,0,0,0,4.626,1.708,6.066,6.066,0,0,0,4.572-1.708,6.511,6.511,0,0,0,1.661-4.75V411.33h3.012v12.978a9.079,9.079,0,0,1-2.461,6.737,10.7,10.7,0,0,1-13.615,0,9.026,9.026,0,0,1-2.476-6.737V411.33h3.012v12.978a6.462,6.462,0,0,0,1.669,4.75" transform="translate(-528.96 -411.33)" fill="#211f1f"></path></g><g id="Group_12057" data-name="Group 12057" transform="translate(16595.557 2425.438)"><path id="Path_103648" data-name="Path 103648" d="M574.935,422.5H577.6v8.057a13.97,13.97,0,0,1-8.305,2.888,11.561,11.561,0,0,1-5.8-1.49,11.1,11.1,0,0,1-5.674-9.734,10.72,10.72,0,0,1,1.537-5.627,11.081,11.081,0,0,1,4.2-4.029,12.021,12.021,0,0,1,5.891-1.475,12.649,12.649,0,0,1,4.463.815,11.837,11.837,0,0,1,3.772,2.228l-1.723,2.2a9.548,9.548,0,0,0-3.027-1.894,9.444,9.444,0,0,0-3.493-.675,8.614,8.614,0,0,0-4.324,1.125,8.407,8.407,0,0,0-3.12,3.074,8.507,8.507,0,0,0,.015,8.538,8.593,8.593,0,0,0,3.136,3.1,8.492,8.492,0,0,0,4.323,1.141,9.2,9.2,0,0,0,2.8-.458,10.159,10.159,0,0,0,2.647-1.273V422.5Z" transform="translate(-557.82 -411.09)" fill="#211f1f"></path></g><g id="Group_12058" data-name="Group 12058" transform="translate(16621.039 2425.632)"><path id="Path_103649" data-name="Path 103649" d="M590.65,411.34h3.011v9.772H606.2V411.34h3.035v21.935H606.2v-9.431H593.662v9.431H590.65Z" transform="translate(-590.65 -411.34)" fill="#211f1f"></path></g><path id="Path_103650" data-name="Path 103650" d="M236.224,368.056a61.267,61.267,0,0,0-2.686,5.7c-.21.5-.466.994-.644,1.506s-.372,1.017-.559,1.506c-.373.986-.73,1.941-1.087,2.818-.132.823-.419,1.995-.737,3.151l-.3.039-.21.986c-.2.365.171-.753-.132-.093l.054.411c-.117.047-.807,2.461-.512.784a17.846,17.846,0,0,0-.489,1.894l-.427,1.91c-.194.846.116.543-.163,1.459-.124.171.023-.349-.093-.287a7.892,7.892,0,0,0-.373,3.05,11.429,11.429,0,0,1-.194,2.919l-.008-.225c.008.458-.132,1.312-.085,1.327.318-.31-.085-.489.194-1.281.225.1-.023,1.017.163.986a6.07,6.07,0,0,0-.07,1.529c-.21.908-.2,2.235-.435,2.926a12.084,12.084,0,0,1,.21,1.94c-.178.691-.178-.171-.241.776l.14.155c-.016.776-.054.652-.124.629a11.05,11.05,0,0,1,.109,1.739l-.132-.582c.054.776.031,1.087.023,2.166-.078-.023-.078-.45-.054-.768a2.6,2.6,0,0,0,.085,1.312c.039-.093.07-.838.2-.481-.023.536.264,1.118.124,1.506l-.179-.575a6.9,6.9,0,0,1,.264,1.855c-.016-.07-.047-.031-.078-.054a16.494,16.494,0,0,1,.248,3.043l-.054-.225c.078.474.248.722.279.978-.023-.683.039-.5.163-.574-.085.916.466,1.312.559,2.771-.078-.008-.225-.341-.21-.753a3.174,3.174,0,0,1-.753-1.366c.14.543.272,1.188.155,1.063l.241.14c.047.334.085.6.124.846.155.124.116-.706.326.054.2.854-.147.5-.031.613.272,1.18.3.458.411,1.615a1.485,1.485,0,0,1-.1-.427c.023.838.4,2,.2,2.29a.6.6,0,0,1-.21-.427l.039.008c-.38-.862.21.737-.078.5.124-.093.342,1.063.427,1.583l.116-.2c.869,1.6-.334-.016.155,1.661.38,1.048-.062-.419.217.217a9.987,9.987,0,0,0,.458,2.073c.031.31.124.931-.023,1.032.132.31.256.8.388,1.25a3.354,3.354,0,0,0,.435,1.009c-.233-1.118-.543-1.017-.714-2.367l.272.3c.241.893.722,1.972.869,2.593-.008-.132.016-.2.078-.14.481,1.219.776,1.506,1.2,2.709-.085.209-.334-.489-.543-.994a16.448,16.448,0,0,0,.722,2.01c-.1.116-.3-.8-.481-.893l.559,1.3-.023.008c.287.1.411.994.815,1.762a10.6,10.6,0,0,0,1.925,2.942c.078.3.062.4-.047.318-.124-.5-.163-.38-.287-.512.31.613.466,1.451.21,1.149.574.939-.078-.4.3.155l.691,1.327c.023-.21-.2-.691.241-.047.334.559.458.854.885,1.591-.116-.078-.023.326-.334-.233a3.383,3.383,0,0,0,.714,1.095c-.38-.862.862,1.273.668.574.124.287.256.567.4.846-.109-.179-.194-.155-.341-.435-.016.318.45.621.644.885a9.777,9.777,0,0,1,.574,1.118,3.379,3.379,0,0,1,.567,1.009c.279.341.116-.039.241.039l.838,1.234c-.039.124-.194.388-.349.217.4.411.349,0,.838.7-.45-.279.559.994-.054.559a11.376,11.376,0,0,0,1.537,2.181c.411.287-.45-.706-.287-.768,1.382,1.669,1.809,1.49,2.756,2.756-.078-.116-.163-.225-.233-.341a6.916,6.916,0,0,0,1.1.962c-.311-.093.318,1.211,1.482,2.352.163.031-.489-.784-.194-.7l.761.761c.039.07-.062,0-.179-.078.714.652,1.048,1.483,1.42,1.506l.5.885-.194-.357a10.68,10.68,0,0,1,1.149.885,6.509,6.509,0,0,1,1.482,1.5c-.085-.186-.318-.644.342-.085-.217.233,1.273,1.3,1.164,1.4.272.225.691.7.807.621l-.171.117c.248-.171,1.2.691,2.018,1.234-.4.155.869.629,1.009,1.164.287-.078,1.459.955,1.731.869.621.427.427.574.536.753l.342.124a19.965,19.965,0,0,0,2.088,1.638l.776.241.194.241c.14.015.714.318.411.047l.357.225c.155-.194.543.248,1.327.59.147.132.078.155-.1.093.365.217.148.233.3.419-.233-.194,1.537.365.6-.279-.023-.124.6.124.939.357l.116.311.543.031a12.814,12.814,0,0,1,1.219.8c-.481-.241-1.257-.178-.016.458a12.756,12.756,0,0,0-1.4-.512c.248.148.373.233-.07.1,1,.45.38.062,1.351.528-.14.148.1.334.924.807l-.574-.435.147.016c-.233-.132-.287-.194-.3-.287.194.093,1.234.326,1.343.512-.838-.745,1.8.613,1.257.14a2.06,2.06,0,0,1,.862.4c-.885-.225.528.474.342.543.326.085-.59-.411-.147-.3a4.852,4.852,0,0,1,1.063.644l-.217-.054.73.411c.163-.039-.675-.473.047-.217.171.116.9.341.854.4-.388-.008-.21.256-.83.047.512.186,2.127.784,1.545.357l.6.241c-.349-.225-1.351-.768-.14-.326l-.023.031.885.186c.109.078.217.155.334.225.008-.054.155-.046.466.062.062.085.349.21.3.272.916.3.877.178,1.009.171.512.163.691.264.419.295.683.279,1.94.582,2.4.838.978.194-.186-.093.411-.062a3.281,3.281,0,0,0,.815.411c.357.116.776.225,1.219.326.893.2,1.878.4,2.678.528-.365-.38.443.054.784-.155-.357.023,1.451.528.054.334l.854.14c.551.279-1.42-.163-.59.233a7.056,7.056,0,0,0,1.312.1,5.477,5.477,0,0,1,1.428.155c-.411.148.877.07.559.256a3.591,3.591,0,0,1-.877-.07l.194.07c2.1.4.644-.148,1.762-.116,1.281.132.994.287,1.056.4a5.336,5.336,0,0,0,1.2.093c-.8.039-1.436-.3-1.055-.388a5.058,5.058,0,0,0,2.259.186c-1.8-.466-1.265-.155-2.95-.629-.248.047-.233.272-1.25.023.66-.008-.023-.124-.2-.186.178.155-.714-.062-1.04-.062-.264-.148.66-.186-.365-.4l-.248.256c-.4-.116.21-.171-.66-.264.489-.062-.1-.248,1.071-.109a10.859,10.859,0,0,0-3.237-.38c.116.008.132-.031.248-.031a4.648,4.648,0,0,1-.978-.109c-.691-.233.582,0,.419-.132-.38-.07-.761-.171-1.141-.256l-.023-.031a1.3,1.3,0,0,1-.683-.178c.357-.008.512-.07.761-.085l-1.234-.093c.155-.062-.939-.4-.078-.264-.59-.124-1.172-.264-1.754-.427l-.093-.233c-.427-.085-.45-.055.039.116-.574-.217-2.732-.435-2.3-.722a35.235,35.235,0,0,1-3.5-1.009c1.3.3-1.327-.761.008-.334a6.651,6.651,0,0,0-1.576-.435c-.536-.3-.21-.38.427-.21l-.745-.194.031-.031c-.225-.039-.435-.1-.652-.155-.605-.38-.062-.241-.714-.559l-.217.1-.411-.287c.14.147-.272.008-.761-.186l.023-.031c-.2-.07-.4-.155-.6-.241.613.179-.512-.287-.194-.279-.489-.248-.5-.248-1.4-.652l.1.186c-1.211-.473.031-.178-.9-.652l-.008.155c-1.211-.924-2.329-1.071-3.214-1.77.567.295.5.078.473.1-.846-.45-2.189-1.242-3.1-1.653-.194-.365-.241-.458-1.04-1.087a2.422,2.422,0,0,0-.994-.474c-.543-.473-1.708-1.156-1.653-1.3-.2-.008-.52-.38-.885-.551l-.031-.1-.031.147c-.815-1.032-1.832-1.141-2.639-2.189l.194.116-.45-.3c-.031-.1.163.008.233-.031-.629-.543-1.289-1.063-1.894-1.63l.295.4a7.347,7.347,0,0,1-1.149-.947c.885.52-.613-.559-.629-.784l.435.318c-.551-.481-.551-.481-.605-.341-.73-.613-.287-.644-1.025-1.141l.443.443c.078.186-.326-.047-.621-.342-.054-.085-.225-.334.016-.124-.574-.481-1.335-1.32-1.591-1.529-.248-.326-.085-.295.093-.163-1.188-1.079-.481-.536-1.669-1.622l.078-.031-.435-.349-.4-.7.109.279a12.721,12.721,0,0,1-.986-1.087l.248.109c-1.017-1.079-.939-1.444-1.964-2.429-.047-.085.124.062.21.132-.962-.9-.435-.908-1.413-1.816.078.039.031-.1.093-.078l-.419-.435.155-.054-.481-.256c-.031-.132-.062-.256-.085-.388l-.194-.148c-.116-.7-.815-1.3-1.118-2.142L242.7,446c-1.552-1.622-2.515-4.354-3.889-6.606l.163-.031-.675-.877c-.163-.574.287.248.272.054-.613-1-.427-.326-1.063-1.529-.21-.675.21.171.4.435-.31-.559-.7-1.25-1.032-1.91a16.7,16.7,0,0,1-.737-1.746l-.062-.008a25.975,25.975,0,0,1-1.1-2.693c.078-.008.171.21.272.419a4.508,4.508,0,0,0-.411-1l.256.279a8.783,8.783,0,0,1-.7-2.15c-.031.1-.155.109-.349-.481.1-.4-.613-1.576-.776-2.569.085.1.31.792.256.6A4.439,4.439,0,0,0,233,424.9l.132.1c-.256-.73-.481-1.475-.722-2.212.124-.38-.536-2.119-.326-2.01-.171-.807.047.7-.2-.318.039-.3-.248-.916-.085-.9l.039.109c-.054-.241-.124-.474-.155-.714.07.14.155.279.241.419-.163-.605-.357-1.04-.489-1.048a12.3,12.3,0,0,1-.117-1.723l.07.209a12.7,12.7,0,0,1-.186-2.173,7.536,7.536,0,0,0-.07-.947,4.649,4.649,0,0,0-.163-.947c.016-.1.054-.093.07.109l-.07-1.032.132.233-.31-1.684.078.016c-.031-.559-.085-1.281-.155-2.041-.047-.761-.039-1.568-.062-2.29l.039.217c-.124-1.583.07-1.529-.023-2.686l.031.124-.008-1.04.078.233a6.988,6.988,0,0,1,.186-1.723,7,7,0,0,0-.163-1.327c.07-1.133.124-.272.233-.963a11.6,11.6,0,0,1,.124-2.072l.078.031c.062-.52.054-.846.147-1.56l.008.217c.008-1.2.442-1.42.241-2.4.132-.481.217-1.42.388-1.343.225-1.459.427-2.585.683-4.029.3-.163.047-.311.4-1.141l-.155.031c.295-.994.691-2.041,1.094-3.1.194-.536.4-1.079.59-1.614.178-.543.435-1.063.613-1.607l.155-.015.023-.481c.489-1.126.97-2.445,1.537-3.664.59-1.211,1.149-2.36,1.568-3.237.1-.3.233-.7.373-1.125a8.571,8.571,0,0,1,.667-1.3l-.039.1c.4-.792.823-1.6,1.265-2.422.225-.4.458-.815.691-1.234.264-.4.543-.792.831-1.18-.016.132.124-.008.031.194a5.032,5.032,0,0,1,.854-1.288l-.357.349a3.552,3.552,0,0,1,.978-1.3l.365-.807.132-.1.023-.171c.132-.093.264-.186.411-.272a9.213,9.213,0,0,0,.854-1.514c.1-.031.637-.644.279-.124l1.995-2.476-.357.349c-.148-.047.373-.854.768-1.164-.349.551.116.163.373.031.233-.373-.342.2-.248-.016a8.822,8.822,0,0,1,1.273-1.521l-.179.279c.458-.582.862-.675,1.343-1.219.357-.559.753-.846.5-.916.629-.706.373-.147.605-.341a4.991,4.991,0,0,1,1.451-1.273c.132-.605,1.925-1.661,1.863-2.01a6.478,6.478,0,0,1,.683-.388c-.031-.078-.031-.3.435-.73.512-.31.489-.116.683-.171l.124-.474c.714-.481,1.452-1.032,2.212-1.622.186-.147.38-.295.574-.443s.4-.279.613-.411c.411-.279.823-.567,1.242-.854.831-.574,1.677-1.149,2.5-1.715.838-.551,1.708-1.017,2.523-1.459.7-.45,1.5-.955,2.321-1.483.838-.5,1.723-.986,2.6-1.421l-.178.132,1.77-.769-1.32.489c.365-.21.637-.4,1.009-.582.978-.427,2.15-.831,3.346-1.327,1.219-.443,2.476-.962,3.695-1.444,1.49-.877,1.149-.1,2.624-.8-.124.07-.155.132-.264.2,1.63-.629,2.53-.908,4.176-1.537-.116.365,1.11-.256.994-.054l.109-.163c.4-.008,1.3-.179,1.188-.054l.722-.31.093.124c.5-.085,1.289-.264,2.018-.38a4.979,4.979,0,0,1,1.7-.054,45.763,45.763,0,0,1,9.656-.768,10.524,10.524,0,0,1,2.1-.116l.768.2a10.7,10.7,0,0,1,2.22-.054l-.085.039c.753-.016,1.459.14,2.173.054.823.085,1.607.248,1.343.373.054-.132.489-.085.908,0,.21.039.411.093.567.132s.248.085.248.085.652.1,1.808.287c.574.1,1.289.194,2.1.341.807.171,1.715.365,2.725.574a74.98,74.98,0,0,1,14.686,4.96,79.064,79.064,0,0,1,14.911,9.043c4.3,3.268,7.7,6.373,9.71,8.065.334.163,1.056.823.924.443.543.52.6.931.8.947-.621-.807.481,0-.078-.846l.458.45c.163.031-.675-.574-.435-.574l-.31.039a3.056,3.056,0,0,1-.543-.846,3.64,3.64,0,0,1-1.544-1.25l.233.225c-.652-.691-.279-.543-.388-.714l.147.155-.473-.652c.38.474,1.2,1.079.838.706-.73-.877.163.248-.45-.341-.388-.365-.186-.349-.109-.388l-.683-.66c.109-.062.442.45.256.093l-.939-.761c.047-.365-1.025-.823-1.226-1.4.675.543.016-.132.179-.1l-1.591-1.4c-.124-.163.473.3.225.1-.241-.326-.536-.388-.7-.528-.085-.186-1.18-1.056-1.017-1.156-1.032-1.009-.629-.194-1.6-1.126-.062-.2.846.652.458.179l-1.11-.846a1.21,1.21,0,0,1,.722.372c-2.841-2.484-4.192-4.16-7.211-5.922-.334-.388.349.109.691.225a21.86,21.86,0,0,1-2.523-1.63,14.724,14.724,0,0,0-2.267-1.521l-.093.085a26.312,26.312,0,0,0-4.285-2.344c-.784-.349-1.576-.7-2.375-1.056-.807-.31-1.615-.636-2.406-.97l.357.217a15.667,15.667,0,0,1-1.731-.466c-.062-.078.466-.116-.489-.365.186.1.567.272.427.287a41.228,41.228,0,0,0-5.938-2c-.605-.163-1.226-.342-1.863-.5-.637-.14-1.281-.272-1.917-.411s-1.273-.279-1.894-.411c-.629-.109-1.242-.217-1.84-.318a85.181,85.181,0,0,0-19.956-.66c.97-.109.582.217-.155.233-2.065-.287-3.462.481-5.542.5-3.648.8-7.025,1.219-10.23,2.662l-.109-.109a6.151,6.151,0,0,0-1.125.442V332c-1.25.357-2.647,1.079-3.361,1.281l.016.163c-.706.3-.419.031-1.1.427l-.008-.078-.784.5c-.016-.14-.512.07-1.087.334a12.491,12.491,0,0,1-1.5.7c-.885.458-2.492,1.444-3.834,2.111a21.021,21.021,0,0,0-2.95,1.49c-.481.31-1.017.652-1.583,1.017s-1.133.807-1.731,1.226c-1.188.862-2.476,1.723-3.648,2.585l.148.109-.582.489c-.015-.039-.109.008-.031-.078-.582.217-1.32,1.164-1.863,1.451.4-.116.427-.318.768-.59.536-.334.186.179-.52.644l-.015-.039-.38.435c-.14-.062-.582.217-.722.155-.473.411-.924.768-1.3,1.172s-.745.784-1.11,1.172c-.73.776-1.475,1.545-2.429,2.406.047-.14-.3.163-.59.489s-.574.605-.5.318c-.97,1.219.326-.039-.008.613-.295.318-.543.706-.668.691.085-.194-.357.147-.14-.124l-.675.784c-.085.062.047-.132.109-.233a28.924,28.924,0,0,1-1.941,2.158,21.285,21.285,0,0,0-1.692,2.15c-.008.171.481-.575.473-.4-1.009,1.622-1.172,1.219-2.15,2.709l.116-.372a5.864,5.864,0,0,1-.924,1.513c-.225.047.341-.737.536-1.164-.365.536-1.242,1.925-.846,1.591a5.573,5.573,0,0,1-.932,1.156c.023.031.489-.543.3-.124a25.058,25.058,0,0,0-2.2,3.314c-.031-.031-.124.016-.086-.085-.287.993-.543.722-1.2,1.987" transform="translate(16111.71 2032.947)" fill="#211f1f"></path><path id="Path_103651" data-name="Path 103651" d="M252.235,401.414a68.586,68.586,0,0,0-.388,11.558c.186.753.233,1.855.4,2.949l-.171.132.155.916c-.016.38-.109-.706-.109-.031l.148.334c-.078.085.3,2.36-.062.838.171,1.2.349,2.383.605,3.563.155.784.233.427.372,1.3-.016.186-.109-.3-.155-.217a13.309,13.309,0,0,0,.784,2.724,14.029,14.029,0,0,1,.908,2.538l-.085-.194c.078.2.186.481.279.714a3.286,3.286,0,0,0,.179.427c.078-.357-.248-.38-.373-1.133.155.023.373.862.474.776a8.991,8.991,0,0,0,.5,1.32c.163.846.73,1.941.838,2.593.194.372.512.745.9,1.552.155.637-.171-.093.155.722l.14.093c.287.66.217.567.163.559.326.7.4.512.784,1.4l-.326-.435c.357.621.474.885.924,1.77-.062.008-.241-.349-.357-.613a3.057,3.057,0,0,0,.621,1.048c-.008-.093-.334-.7-.085-.45a7.474,7.474,0,0,1,.714,1.2l-.342-.419a9.045,9.045,0,0,1,.931,1.452l-.07-.023a24.409,24.409,0,0,1,1.521,2.375l-.132-.163c.264.357.481.5.613.706-.318-.535-.2-.411-.163-.512.357.761.877.924,1.583,2.073-.054.015-.295-.21-.466-.551a3.615,3.615,0,0,1-1.071-.885c.326.4.7.877.567.807l.209.047c.179.256.318.45.458.644.147.054-.248-.6.217-.047.528.613.148.427.272.489.737.838.4.264,1.032,1.133a2.386,2.386,0,0,1-.272-.3,13.451,13.451,0,0,1,1.226,1.731.755.755,0,0,1-.341-.272l.031-.008c-.652-.559.489.512.2.411.031-.1.73.722,1.04,1.1l-.023-.186c1.312,1-.233.093.9,1.234.761.683-.248-.295.241.1a17.8,17.8,0,0,0,1.312,1.451c.163.241.551.66.5.784A21.088,21.088,0,0,0,271.819,454c-.7-.792-.854-.621-1.646-1.576l.334.155c.629.567,1.428,1.3,1.871,1.692-.078-.093-.093-.148-.023-.117.955.745,1.281.893,2.173,1.653.054.179-.474-.256-.862-.582a10.418,10.418,0,0,0,1.514,1.25c-.008.109-.629-.481-.792-.5l1.056.768-.008.016c.248-.016.768.629,1.459,1.04a12.546,12.546,0,0,0,2.856,1.514c.217.179.264.256.148.233-.357-.3-.318-.21-.473-.264.551.318,1.1.854.768.722.885.489-.272-.256.287.023.4.241.776.5,1.18.722-.1-.148-.52-.4.132-.1.536.272.784.427,1.475.807-.116-.023.163.225-.357-.062a4.388,4.388,0,0,0,1.079.543c-.737-.458,1.3.567.776.171l.745.442a3.052,3.052,0,0,1-.474-.194c.171.217.652.279.924.4.256.163.97.5,1.017.559a3.9,3.9,0,0,1,.955.466c.38.14.062-.062.186-.047.419.178.838.373,1.265.543.047.085.085.295-.116.248.512.124.248-.117.986.163-.474-.039.947.458.272.373a10.281,10.281,0,0,0,2.305.861c.45.039-.714-.287-.636-.372,1.917.559,2.1.357,3.508.768l-.357-.124a8.868,8.868,0,0,0,1.327.217c-.14.031.093.179.536.373a11.74,11.74,0,0,0,1.855.512c.14-.039-.792-.295-.536-.349l.978.186c.07.023-.039.023-.171.016a8.353,8.353,0,0,0,1.878.365l.862.334-.342-.14c.132-.047,1.118.109,1.327.1a7.528,7.528,0,0,1,1.925.287c-.171-.07-.6-.248.2-.171-.031.233,1.669.225,1.638.326.326.016.893.124.939.039l-.062.124c.047-.085.357-.109.776-.109s.939-.008,1.389-.015c-.21.241.994,0,1.4.233.171-.155,1.607-.109,1.762-.256a1.065,1.065,0,0,1,.815.179l.318-.07c.357.062,1.661-.039,2.445-.039.233-.07.474-.132.706-.217l.272.031c.109-.054.706-.147.326-.155l.388-.039c.016-.163.536-.116,1.3-.279.186,0,.14.047-.023.093.388-.047.233.054.45.078-.279.008,1.335-.536.287-.419-.078-.054.512-.209.893-.248l.256.1.427-.233c.582-.124.854-.07,1.327-.171-.481.116-1.025.52.233.233-.652.179-.97.31-1.3.4.264-.039.4-.054,0,.085.986-.225.318-.132,1.288-.373-.023.14.256.116,1.118-.031l-.66.054.116-.062c-.241.039-.318.039-.38,0a7.4,7.4,0,0,1,1.273-.38c-1.017.039,1.661-.559,1-.535a2.351,2.351,0,0,1,.846-.217c-.776.318.644-.031.536.093.287-.116-.652.085-.264-.078a5.892,5.892,0,0,1,1.126-.2l-.194.078c.248-.054.5-.1.753-.163.1-.1-.737.124-.078-.124a6.445,6.445,0,0,1,.838-.233c-.287.194-.023.225-.59.442.473-.171,1.979-.691,1.327-.605l.567-.186c-.373.07-1.4.31-.272-.093v.031c.248-.124.5-.233.753-.365l.357-.07c-.023-.023.085-.1.373-.217.085.008.365-.085.357-.031.831-.334.737-.373.831-.45.458-.194.644-.233.458-.078.644-.241,1.708-.768,2.166-.893.807-.435-.186.054.264-.248a6.519,6.519,0,0,0,1.84-.776c.745-.4,1.56-.854,2.181-1.258-.45.031.342-.225.489-.52-.248.217,1.3-.582.2.124l.675-.419c.528-.179-1.095.737-.311.45.776-.45,1.156-.955,2.073-1.467-.217.311.652-.481.52-.21a4.9,4.9,0,0,1-.652.481l.171-.078c1.669-1.04.38-.45,1.188-1.094.955-.706.823-.458.924-.442a6.07,6.07,0,0,0,.869-.675c-.536.5-1.141.722-.924.45a6.391,6.391,0,0,0,1.661-1.273c-1.475.862-.955.691-2.352,1.475-.147.171-.031.279-.869.745.466-.388-.078-.047-.233.031.2-.031-.536.388-.761.582-.256.085.373-.473-.45.023l-.047.264c-.334.179.062-.2-.6.264.318-.31-.186-.062.706-.675a16.1,16.1,0,0,0-2.492,1.684c.085-.062.078-.093.163-.155a6.608,6.608,0,0,1-.753.512c-.6.3.411-.341.241-.3-.3.186-.621.357-.947.52h-.031a1.732,1.732,0,0,1-.582.3c.256-.2.334-.318.5-.466l-.939.636c.078-.116-.877.326-.186-.085-.489.264-.978.543-1.483.768l-.186-.062c-.357.186-.349.217.085.031-.528.21-2.212,1.257-2.041.893-1.172.582-1.622.737-3.089,1.351,1.118-.5-1.374.3-.171-.163a8.457,8.457,0,0,0-1.4.582c-.543.124-.349-.078.2-.318l-.652.287.008-.031c-.186.085-.373.186-.559.264-.644.109-.171-.085-.823.078l-.109.155-.458.062c.179.008-.194.132-.668.279v-.031l-.567.186c.551-.217-.528.109-.295-.039-.5.109-.5.109-1.4.342l.171.039c-1.149.334-.078-.1-1.017.109l.078.078c-1.389.132-2.313.52-3.346.6.582-.109.419-.2.411-.171-.869.171-2.305.318-3.206.536a3.251,3.251,0,0,0-1.374-.124,2.749,2.749,0,0,0-1,.178,13.881,13.881,0,0,1-1.94,0c-.155.078-.6,0-.962.078l-.078-.039.054.093c-1.172-.217-1.987.093-3.175-.124l.2-.008h-.5c-.078-.047.124-.054.155-.109l-2.305-.171.45.1a6.082,6.082,0,0,1-1.374-.093c.939-.031-.768-.093-.9-.217l.5.023c-.675-.07-.675-.07-.629.031-.877-.078-.582-.225-1.4-.264.194.031.38.07.567.093.163.078-.264.093-.644.023-.085-.031-.349-.116-.062-.078-.691-.078-1.708-.295-2.018-.31-.365-.1-.233-.14-.023-.124-1.467-.225-.652-.155-2.119-.388l.039-.047-.512-.047c-.233-.078-.45-.194-.675-.287l.233.132c-.473-.116-.776-.155-1.32-.334l.241-.016c-1.343-.3-1.5-.536-2.771-.831-.078-.039.116,0,.225.016-1.188-.264-.838-.38-2.018-.668.078,0-.031-.078.016-.078l-.536-.147.078-.085-.474-.015-.279-.217-.217-.031c-.481-.373-1.3-.59-1.979-1.032l.078.178c-2-.528-4.145-2.119-6.326-3.229l.093-.07-.924-.427c-.419-.357.326.093.21-.039-.955-.52-.466-.109-1.56-.745-.5-.419.225.062.512.179-.528-.272-1.126-.691-1.708-1.056a12.065,12.065,0,0,1-1.428-1.025l-.047.015c-.652-.45-1.467-1.094-2.142-1.638.047-.023.21.117.388.233a7.8,7.8,0,0,0-.776-.636l.31.14a14.4,14.4,0,0,1-1.576-1.382c.039.078-.054.132-.466-.272-.124-.334-1.2-1.017-1.809-1.708.109.047.605.5.466.372a10.373,10.373,0,0,0-.97-.846l.132.047-1.568-1.482c-.1-.334-1.358-1.506-1.18-1.475-.5-.582.373.528-.279-.186-.116-.241-.605-.637-.5-.675l.078.07c-.147-.171-.287-.349-.435-.52l.342.272c-.38-.442-.722-.714-.807-.691a15.16,15.16,0,0,1-.908-1.312l.148.147a11.979,11.979,0,0,1-1.1-1.7,10.987,10.987,0,0,0-.994-1.459c-.039-.085-.008-.085.093.07l-.512-.807.186.148c-.31-.427-.644-.838-.947-1.273l.054-.008c-.5-.916-1.366-2.305-1.972-3.516l.116.171a22.145,22.145,0,0,1-1.1-2.235l.07.093-.4-.877.132.171a7.437,7.437,0,0,1-.582-1.49,9.825,9.825,0,0,0-.613-1.071c-.4-.978-.047-.256-.225-.893-.241-.722-.373-.823-.668-1.809l.054.008c-.171-.45-.287-.73-.489-1.374l.078.186a18.231,18.231,0,0,0-.683-2.127c-.07-.458-.31-1.3-.194-1.281-.21-.652-.357-1.242-.489-1.84s-.287-1.18-.411-1.847c.14-.241-.054-.287-.078-1.118l-.085.07c-.326-1.9-.272-4.122-.419-6.233l.085-.062c-.047-.14-.078-.279-.116-.419-.031-2.282.124-5.224.3-7.025a14.725,14.725,0,0,1,.155-2.437v.1a33.678,33.678,0,0,1,.877-5.107c.015.116.078-.047.062.155a4.977,4.977,0,0,1,.326-1.4l-.179.419a4.556,4.556,0,0,1,.442-1.436l.109-.807.078-.132-.008-.147.248-.373a11.362,11.362,0,0,0,.318-1.584c.054-.062.326-.768.163-.209.342-.924.683-1.847,1.048-2.756-.078.132-.14.272-.21.411-.116.016.171-.823.388-1.234-.163.582.1.093.264-.116.109-.388-.21.287-.171.077a8.756,8.756,0,0,1,.675-1.715l-.093.287c.264-.637.543-.854.823-1.467.186-.582.443-.955.248-.908.38-.792.256-.248.4-.5a6.7,6.7,0,0,1,.885-1.56c.031-.536,1.265-1.987,1.188-2.243.148-.186.318-.365.481-.551-.031-.047-.054-.225.248-.73.349-.427.349-.272.489-.38l.039-.419a60.08,60.08,0,0,1,7.079-8.142,39.349,39.349,0,0,1,3.873-3.617l-.14.148c.473-.373.931-.753,1.428-1.087-.373.233-.73.481-1.079.745a7.8,7.8,0,0,1,.807-.722c1.615-1.141,3.8-2.608,5.837-3.912,1.25-.978.97-.4,2.228-1.234-.1.078-.132.124-.225.2,1.4-.815,2.142-1.288,3.578-2.057-.078.279.955-.443.877-.279l.085-.14c.341-.116,1.149-.388,1.056-.287l.621-.365.093.062a14.29,14.29,0,0,1,3.314-1.071,41.316,41.316,0,0,1,8.725-2.166,10.639,10.639,0,0,1,1.917-.357l.722.023a9.44,9.44,0,0,1,2.034-.287l-.07.031c.691-.062,1.358-.078,2-.194.761-.008,1.506.031,1.273.14.039-.093.443-.093.831-.07a6.242,6.242,0,0,1,.776.085l1.7.062c.544.008,1.2.055,1.964.132s1.63.117,2.569.264a58.538,58.538,0,0,1,13.972,3.516,54.86,54.86,0,0,1,7.49,3.524,56.974,56.974,0,0,1,6.637,4.339,79.306,79.306,0,0,1,8.639,7.793c.272.194.877.862.745.528.458.52.528.869.683.916-.536-.776.373.093-.116-.706l.388.45c.124.054-.559-.59-.38-.543l-.241-.031a3.442,3.442,0,0,1-.473-.792,5.708,5.708,0,0,1-1.312-1.273l.2.217c-.59-.652-.279-.473-.38-.629l.132.148-.427-.613c.334.458,1.056,1.063.722.706-.667-.815.148.233-.388-.341-.334-.357-.171-.318-.116-.334l-.59-.652c.078-.031.388.442.21.116-.272-.256-.528-.52-.815-.761,0-.287-.916-.792-1.141-1.281.6.536,0-.1.132-.054-.458-.473-.939-.916-1.428-1.343-.116-.148.427.3.194.109a3.379,3.379,0,0,0-.629-.5c-.093-.155-1.087-.986-.97-1.04-.978-.908-.543-.225-1.459-1.063-.078-.163.776.605.4.194l-1.025-.792a1.526,1.526,0,0,1,.644.373c-.652-.582-1.265-1.056-1.816-1.529s-1.048-.916-1.576-1.3c-.52-.4-1.04-.792-1.6-1.188s-1.2-.737-1.9-1.125c-.349-.311.311.109.629.217-.52-.264-.955-.512-1.335-.745s-.73-.427-1.063-.636a15.044,15.044,0,0,0-2.189-1.242l-.062.055a44.3,44.3,0,0,0-8.616-3.415l.349.155c-.435-.047-1.11-.225-1.614-.334-.07-.054.4-.062-.489-.272.178.07.536.209.419.209a39.951,39.951,0,0,0-5.612-1.351c-1.141-.2-2.352-.342-3.547-.5-1.2-.093-2.383-.241-3.493-.3a60.432,60.432,0,0,0-18.287,2.01c.869-.248.543.039-.116.179-1.886.163-3.066.986-4.929,1.4a47.212,47.212,0,0,0-8.771,4.2l-.1-.047a8.258,8.258,0,0,0-.939.6v-.031c-1.056.559-2.189,1.451-2.779,1.793l.023.109a8.3,8.3,0,0,0-.916.59l-.016-.054c-.217.179-.411.388-.621.582-.047-.194-1.6,1.188-2.1,1.459-.675.621-1.979,1.762-3.012,2.678a20.657,20.657,0,0,0-2.29,2,71.894,71.894,0,0,0-5.108,5.915l.124.031-.4.574c-.016-.023-.078.047-.031-.047-.419.365-.931,1.327-1.3,1.746a3.051,3.051,0,0,0,.528-.722c.388-.427.147.07-.342.675l-.016-.031-.241.473c-.109,0-.411.373-.52.38-.31.489-.6.931-.854,1.374-.241.45-.473.877-.706,1.312-.481.854-.908,1.746-1.482,2.786.015-.132-.186.248-.373.6-.171.357-.342.691-.318.435-.551,1.327.233-.148.07.5-.171.357-.3.761-.4.792.039-.186-.241.249-.116-.054l-.388.869c-.047.078.008-.124.047-.225-.342.916-.691,1.7-1.04,2.461a21.934,21.934,0,0,0-.877,2.368c.016.14.256-.644.272-.5-.481,1.692-.6,1.436-1.017,3.019l.016-.349a7.961,7.961,0,0,1-.388,1.583c-.132.124.093-.745.179-1.157-.186.567-.528,2.049-.318,1.622a6.616,6.616,0,0,1-.435,1.3c.023.016.241-.629.179-.209-.272.931-.613,2.406-.823,3.578-.023-.015-.078.062-.07-.047-.062,1.009-.279.869-.458,2.174" transform="translate(16106.234 2027.865)" fill="#211f1f"></path><path id="Path_103652" data-name="Path 103652" d="M254.468,466.346c.854,1.017,2.034,2.267,2.872,3.283a3.393,3.393,0,0,1,.877.722l-.109.155.279.217c.054.14-.2-.179-.085.054l.171.023c-.031.062.567.7.078.349.3.341.6.683.924,1,.21.217.233.023.435.287.008.085-.109-.062-.14.008.605.807,1.063.574,1.653,1.3l-.07-.039c.147.078.349.295.373.279.047-.217-.186-.047-.311-.326.124-.093.3.194.373.093.116.194.272.21.419.334.171.287.551.551.652.807a1.735,1.735,0,0,1,.636.3c.093.256-.124.047.093.3l.1-.031c.186.194.14.186.109.21.21.2.256.07.489.357l-.21-.07a5.85,5.85,0,0,1,.582.481c-.039.031-.155-.062-.225-.147.07.233.3.178.38.264,0-.047-.186-.233-.031-.217.132.132.38.163.411.326l-.21-.062c.341.194.233.047.551.357l-.047.023c.287.093.5.411.815.683l-.078-.031c.147.085.272.078.334.147-.148-.194-.085-.171-.047-.256.147.318.466.179.823.551-.039.039-.179.008-.256-.116-.233.016-.334.109-.621-.039.171.1.357.225.287.248l.14-.078c.093.07.163.132.233.186.093-.039-.093-.256.155-.14.272.148.039.217.116.194.373.21.233-.016.528.264l-.14-.078c.194.225.582.411.543.605-.054.008-.093.039-.171-.039l.023-.016c-.334-.093.233.132.062.2.039-.085.349.179.489.3l.016-.124c.675.116-.148.147.357.481.349.178-.1-.109.132-.031a2.04,2.04,0,0,0,.567.473c.062.093.209.264.155.373.217.093.551.443.73.427-.272-.3-.4-.124-.691-.512l.171-.023a8.714,8.714,0,0,1,.792.528l.016-.085a4.652,4.652,0,0,1,.916.481c-.008.124-.217-.039-.373-.14.194.225.241.179.6.45-.031.093-.248-.163-.342-.116.14.085.287.163.435.241l-.008.015c.147-.093.31.21.6.326A2.584,2.584,0,0,0,274,482.7c.07.093.078.14.015.147-.116-.147-.116-.085-.186-.085.21.109.373.4.225.388.349.163-.078-.14.148-.062l.442.279c-.016-.1-.163-.209.1-.124a6.106,6.106,0,0,1,.559.3c-.054.016.023.148-.171.039.109.093.311.21.419.178-.248-.217.5.194.349-.023l.248.217c-.062-.039-.093.008-.186-.062.023.147.248.1.357.14.093.078.349.225.349.279.109.023.318.163.326.241.148.054.047-.062.1-.078l.45.256c-.008.07-.054.256-.132.241.2.039.155-.14.419-.008-.21.039.31.256.015.287a2.2,2.2,0,0,0,.815.458c.194-.016-.241-.179-.179-.264.7.3.862.054,1.335.342l-.116-.085a1.443,1.443,0,0,0,.512.1c-.14.078.2.5.745.683.07-.039-.241-.241-.116-.3l.357.132-.078.023c.326.085.512.4.66.295l.241.31-.093-.124c.07-.039.427.085.5.093a1.113,1.113,0,0,1,.652.349c-.039-.078-.147-.256.132-.155-.085.2.559.31.512.4.116.039.295.178.341.1l-.062.116c.093-.163.512,0,.838.085-.155.2.357.109.427.38.116-.14.59.155.7.039.248.085.171.225.217.3l.14-.023a4.044,4.044,0,0,0,.846.38l.311-.07.078.085c.054-.023.279.016.155-.07l.14.047c.054-.14.21.015.52.031.062.039.031.07-.039.07.14.039.062.093.124.163-.085-.062.582-.1.217-.272-.008-.062.225-.039.357.023l.047.14.2-.078c.225.047.295.155.466.2-.186-.039-.466.117.008.225a2.571,2.571,0,0,0-.528-.015c.093.031.14.054-.023.062.38.054.14-.031.512.031-.047.093.047.147.365.241l-.225-.116.054-.016c-.085-.031-.109-.047-.116-.093.07.015.458-.031.5.039-.326-.225.675.031.458-.109l.318.085c-.326,0,.2.148.14.2.124,0-.225-.116-.062-.116a1.211,1.211,0,0,1,.4.163h-.078l.272.093c.054-.031-.256-.124.008-.093l.31.1c-.14.031-.062.116-.3.085.186.031.776.14.559.023l.217.047c-.132-.054-.5-.2-.062-.116l-.008.015.318.016.124.062c0-.016.054-.023.163-.008l.116.078c.334.055.311.016.357.008.186.031.256.054.155.078.256.054.7.117.862.178.342.031-.07-.023.14-.023a8.749,8.749,0,0,0,1.669.3c-.14-.07.155.008.264-.023-.124,0,.52.1.031.054l.3.031c.2.047-.5-.039-.194.031.334.031.559.016.955.07-.132.008.3.023.2.039-.085,0-.194-.016-.3-.023l.07.008a3.379,3.379,0,0,0,.6.031c.442.055.349.047.372.062.085.008.279.023.411.039-.272-.023-.5-.054-.373-.054.194.031.66.078.784.093-.637-.085-.442-.054-1.032-.147a2.818,2.818,0,0,1-.427-.047c.225.023-.015-.016-.078-.023a3.152,3.152,0,0,1-.357-.039c-.1-.023.217,0-.14-.062l-.078.023c-.14-.023.062-.015-.241-.054a.919.919,0,0,1,.365.016,5.908,5.908,0,0,0-1.126-.14h.085c-.085,0-.233-.023-.341-.031-.248-.062.2.008.14-.023a4.1,4.1,0,0,1-.4-.078l-.008-.008a.787.787,0,0,1-.241-.054c.124,0,.171-.008.256-.008l-.427-.047c.047-.016-.334-.117-.039-.062l-.621-.124-.039-.062c-.147-.023-.155-.015.015.031-.21-.062-.962-.109-.823-.2-.5-.062-.668-.109-1.257-.217.466.054-.489-.225-.008-.132a2.038,2.038,0,0,0-.567-.093c-.194-.093-.085-.148.14-.109l-.264-.039L292,489.2l-.233-.016c-.225-.116-.031-.1-.272-.179l-.07.062-.155-.093c.054.054-.093.031-.279-.016l.008-.015-.217-.047c.225.015-.194-.078-.078-.109a3.836,3.836,0,0,0-.528-.14l.039.078c-.45-.07.008-.093-.342-.2v.078c-.466-.287-.869-.217-1.219-.419.217.054.194-.054.179-.031a6.064,6.064,0,0,0-1.2-.295c-.078-.163-.1-.21-.419-.388-.248-.078-.287-.078-.4-.031-.217-.14-.691-.225-.667-.318-.078.054-.21-.085-.357-.07l-.016-.047-.008.093c-.349-.341-.753-.147-1.11-.466h.078l-.194-.031.093-.093-.815-.318.14.124c-.179-.054-.326-.023-.5-.155.372.008-.264-.116-.28-.241l.186.039c-.241-.093-.241-.093-.256,0-.318-.1-.147-.248-.466-.279l.2.086c.039.077-.132.085-.272.023-.023-.023-.109-.109,0-.07-.256-.07-.6-.264-.722-.279-.116-.085-.054-.124.031-.116-.551-.148-.225-.117-.776-.264l.031-.047-.2-.016-.2-.217.062.1a2.057,2.057,0,0,1-.473-.209l.109-.031c-.489-.186-.489-.38-.978-.5l.093-.008c-.466-.093-.248-.272-.73-.342l.031-.07-.209-.047.062-.085-.225.062-.07-.155-.093.008c-.109-.272-.45-.3-.652-.574l-.015.14c-.807-.132-1.483-.97-2.344-1.327l.07-.078-.388-.093c-.132-.178.147-.015.124-.093-.38-.163-.225.039-.644-.179-.171-.186.109-.023.233.008a6.31,6.31,0,0,1-1.242-.706l-.031.023a5.476,5.476,0,0,1-.862-.543c.031-.039.1.008.178.039-.093-.07-.21-.194-.318-.21l.155-.008c-.194-.155-.644-.365-.629-.481,0,.054-.054.109-.233-.016-.008-.2-.528-.279-.768-.551l.217.086a.926.926,0,0,0-.45-.21l.078-.023c-.241-.132-.481-.256-.714-.4,0-.2-.629-.45-.512-.5-.225-.179.155.2-.155-.008-.039-.117-.287-.179-.21-.249l.039.016-.209-.148.194.016c-.186-.117-.38-.132-.435-.078-.132-.171-.4-.318-.419-.45l.078.031c-.5-.318-.59-.823-1.056-.986h.054l-.272-.241h.116l-.536-.295.039-.031c-.287-.272-.784-.652-1.18-.97l.078.031c-.466-.318-.365-.4-.7-.636l.047.016-.272-.248.093.015c-.279-.1-.466-.637-.411-.45a1.525,1.525,0,0,0-.458-.186c-.3-.272-.023-.116-.179-.318-.21-.2-.31-.163-.559-.474l.039-.031c-.132-.124-.241-.179-.427-.357l.07.039c-.373-.217-.256-.481-.644-.551-.093-.155-.349-.373-.264-.435-.411-.326-.722-.59-1.1-.939.07-.178-.085-.078-.217-.372l-.054.078c-.5-.536-.885-1.312-1.451-1.894l.054-.078-.186-.054c-.528-.691-1.2-1.591-1.638-2.127a2.866,2.866,0,0,1-.683-.644l.031.023a12.533,12.533,0,0,1-1.2-1.56c.054.008.039-.062.1-.016-.179-.07-.241-.318-.326-.435l.047.178a.674.674,0,0,1-.287-.5l-.264-.186v-.07l-.07-.016.008-.2c-.062-.047-.31-.372-.473-.411.016-.047-.116-.3.023-.132l-.59-.955.062.171c-.062.07-.3-.179-.357-.349.186.147.117-.054.124-.171-.124-.1.008.155-.085.117a1.682,1.682,0,0,1-.427-.551l.093.078c-.179-.194-.1-.388-.233-.605-.179-.163-.21-.342-.318-.217-.194-.272.023-.163-.016-.264a.944.944,0,0,1-.295-.613c-.295-.039-.38-.815-.582-.776l-.039-.287c-.047.015-.178.031-.31-.155-.047-.209.054-.209.07-.295l-.233-.031c-.357-1.172-1.25-2.492-1.6-3.78a14.828,14.828,0,0,1-.908-1.793l.047.062-.194-.652.093.5a2.775,2.775,0,0,1-.2-.357,15.209,15.209,0,0,0-.861-2.523c-.4-.5.062-.442-.264-.931l.1.085a14.178,14.178,0,0,0-.714-1.413c.233.008-.132-.38,0-.357l-.1-.023c.016-.147-.047-.466.031-.435l-.179-.233.085-.047c-.085-.349-.357-1.079-.225-1.3a15.232,15.232,0,0,1-.815-3.314,2.153,2.153,0,0,1-.233-.706l.062-.287c-.078-.248-.256-.5-.225-.753l.031.023a2.445,2.445,0,0,0-.186-.745c-.039-.287-.031-.574.085-.5-.186,0-.07-.605-.07-.605s-.085-.924-.217-2.368c-.085-.722-.116-1.576-.163-2.507a20.4,20.4,0,0,0-.248-2.981,95.607,95.607,0,0,1-.939-10.758c-.008-.124,0-.474-.008-.342.008-.241.008-.279.016-.442-.008.365.008-.109-.016.241l.016-.225c-.008.093-.008.093-.016.256v.062c-.008.155-.016.241-.023.349-.008.171.008.287-.016.7v-.116c-.015.334-.023.2-.031.272l.008-.078-.031.279c.023-.21.023-.567.015-.38-.031.4.016-.1-.008.194-.008.186-.023.132-.031.124l-.023.334c-.016-.016.016-.217-.008-.085l-.016.419c-.054.078-.008.458-.07.644.016-.3-.023.023-.031-.023-.023.248-.047.5-.054.737-.016.07-.008-.194-.016-.085a1.279,1.279,0,0,0,0,.3l-.078.528c-.07.5.054.217-.008.683-.039.062.016-.373-.031-.163l-.023.489a.451.451,0,0,1-.031-.279,30.629,30.629,0,0,0-.474,3.229c-.078.171-.039-.124-.07-.248a14.1,14.1,0,0,1-.3,1.987l.062.015a21.709,21.709,0,0,0-.295,3.5l.047-.147a3.352,3.352,0,0,1,.171.613c-.039.031-.186-.132-.116.209.023-.07.039-.217.078-.178a20.12,20.12,0,0,0,0,2.181c.062.877.163,1.832.21,2.67.147,1.125.357,2.3.512,3.47.178,1.164.427,2.321.675,3.415-.078-.334.14-.233.147.023-.14.761.365,1.164.334,1.917a18.867,18.867,0,0,0,1.141,3.5l-.078.054c.016.186.093.21.163.388l-.023.008c.093.442.4.916.443,1.172l.1-.023c.1.248-.023.155.124.4l-.054.008.21.264c-.178.039.256.706.256.939.147.318.474.885.66,1.374a5.2,5.2,0,0,0,.341,1.11c.179.357.373.8.613,1.257s.489.932.706,1.389l.093-.07.132.233-.047.016c-.023.248.318.528.341.753.031-.171-.07-.171-.14-.31-.047-.217.148-.085.225.2l-.023.008.147.147c-.07.062-.023.248-.093.31.458.745.9,1.18,1.312,1.979-.132-.023.349.543.109.481.334.435.078-.155.31-.008.078.132.194.241.155.3-.07-.039-.031.163-.109.07l.21.295-.093-.047c.489.559.621,1.157,1.071,1.646.078.008-.132-.225-.047-.225.474.481.225.551.644,1.017l-.148-.054a.994.994,0,0,1,.411.466c-.047.109-.241-.171-.365-.279.124.194.489.629.466.435a1.074,1.074,0,0,1,.233.466c.023-.008-.093-.241.039-.147a12.928,12.928,0,0,0,.768,1.156l-.07.039c.365.217.147.326.473.714" transform="translate(16108.462 2013.007)" fill="#211f1f"></path><path id="Path_103653" data-name="Path 103653" d="M350.676,371.523c-.31-.147-.675-.326-1.04-.5-.373-.155-.745-.3-1.048-.458a1.457,1.457,0,0,1-.59-.132l.031-.124-.186-.039c-.054-.07.14.039.039-.062l-.093.047c.008-.047-.419-.225-.1-.179l-.652-.3c-.14-.07-.124.062-.272-.039l.07-.047c-.442-.3-.66.016-1.094-.21h.047c-.093,0-.241-.054-.248-.039.016.14.109-.039.217.085-.054.1-.194-.008-.217.07-.093-.078-.178-.039-.272-.07-.132-.124-.38-.155-.474-.279a.657.657,0,0,1-.38.015c-.093-.124.054-.07-.1-.155l-.047.054c-.132-.054-.1-.07-.085-.093-.14-.054-.147.039-.31-.062l.116-.023a1.594,1.594,0,0,1-.372-.124l.14.023c-.07-.124-.186-.023-.233-.054.008.031.132.093.047.124-.085-.046-.217.016-.264-.078l.124-.031c-.21-.008-.132.047-.349-.039l.023-.031c-.163.039-.334-.085-.536-.148l.047-.008c-.093,0-.155.039-.2.023.109.07.07.078.062.14-.132-.147-.272.047-.512-.078h.148c.116-.078.155-.163.326-.171-.109,0-.225-.023-.186-.054l-.054.085-.147-.047c-.039.054.093.132-.054.132-.163-.008-.054-.124-.093-.085-.225-.023-.117.078-.31-.008l.085.008c-.132-.078-.365-.085-.38-.21l.093-.031-.008.015c.186-.039-.14-.015-.062-.109-.008.062-.21-.008-.295-.047l.008.078c-.365.124.054-.14-.264-.194-.209-.008.07.039-.062.054-.132-.047-.163-.124-.365-.148-.047-.047-.147-.1-.14-.186-.124.008-.357-.109-.442-.047.186.109.225-.047.435.109l-.085.062a3.24,3.24,0,0,1-.489-.093l.008.054a1.851,1.851,0,0,1-.551-.023c-.016-.078.116-.039.217-.023-.132-.085-.155-.031-.373-.1,0-.062.155.031.194-.023l-.256-.031v-.016c-.054.1-.194-.047-.349-.047-.365-.07-.45.054-.667.1l-.031-.093c.078.062.07.023.109,0-.124-.016-.248-.155-.178-.186-.2-.008.062.07-.062.078l-.264-.062c.023.062.116.093-.031.109a2.312,2.312,0,0,1-.326-.062c.023-.023-.039-.093.078-.07a.241.241,0,0,0-.241,0c.163.07-.287.015-.171.116l-.163-.07.1-.016c-.039-.085-.14.008-.2.008l-.217-.085-.2-.062c-.085.008-.016.054-.039.078l-.272-.039.031-.194c-.109.031-.054.132-.21.109.1-.078-.194-.093-.054-.186a.837.837,0,0,0-.481-.1c-.093.062.148.062.132.132-.4-.023-.442.171-.722.1l.07.031a.535.535,0,0,0-.272.062c.062-.078-.179-.272-.473-.279-.031.039.155.1.1.171a1.632,1.632,0,0,0-.194,0l.039-.031c-.179.023-.318-.14-.38-.031l-.171-.14.07.062-.272.062a.443.443,0,0,1-.38-.07c.031.039.116.132-.047.132.008-.147-.326-.07-.318-.147l-.186.008.016-.093c-.023.124-.256.109-.435.116.047-.171-.194,0-.272-.163-.039.117-.318.031-.357.124-.14,0-.124-.109-.155-.147l-.062.039a1.609,1.609,0,0,0-.481-.117l-.148.109-.054-.047c-.023.023-.14.039-.07.078l-.078-.008c-.008.116-.109.031-.264.078l.008-.062c-.078,0-.047-.062-.085-.093.054.031-.279.2-.07.256.015.047-.109.078-.186.062l-.047-.1-.093.109c-.116.016-.171-.047-.264-.062.1-.008.217-.194-.039-.194a.985.985,0,0,0,.272-.093c-.054-.008-.078-.016,0-.054-.2.031-.07.062-.264.078.008-.093-.047-.116-.217-.148l.132.07-.023.023.07.062-.264.062c.2.14-.341.109-.217.194l-.171-.016c.163-.07-.124-.1-.1-.171-.062.023.132.07.046.1a.371.371,0,0,1-.225-.078l.039-.015-.155-.039c-.023.047.147.078.008.1l-.171-.031c.062-.062.015-.147.132-.163-.1.008-.411.023-.287.1h-.116c.078.039.287.109.047.116v-.015l-.163.07-.07-.047-.085.047-.07-.07c-.179.015-.163.062-.179.093-.1.016-.132,0-.093-.062a1.8,1.8,0,0,1-.466-.016c-.178.054.039.016-.062.085-.163-.147-.6-.023-.893.016.085.132-.078.023-.124.155.062-.047-.287-.085-.031-.148l-.155.023c-.116-.07.256-.078.085-.171-.179.015-.28.178-.489.14.062-.1-.155.047-.116-.07l.155-.047-.039-.016c-.388,0-.1.124-.3.2-.233.031-.194-.062-.21-.109l-.217.039c.14-.07.272.047.21.109-.116-.109-.349.016-.411.062.349.093.233-.008.559.093.039-.039.023-.14.217-.109-.116.054.016.054.047.07l.186-.062c.054.047-.1.14.093.155l.023-.14c.078.015-.023.1.132.062-.078.078.031.109-.179.147.264.1.388-.085.582-.155l-.039.039.178-.054c.132.023-.1.07-.062.1l.21-.016.008.008.132-.008-.124.132.217-.109c-.023.047.186.062.031.109l.326-.039.031.093c.078-.023.078-.039-.015-.047.116.016.5-.194.442-.008a3.108,3.108,0,0,1,.668-.124c-.241.085.279.109.023.148.155.039.179-.062.295-.078.109.039.062.132-.054.163l.14-.047v.016l.124-.054c.132.047.031.093.163.1l.031-.085.093.047c-.031-.039.047-.054.14-.062v.016l.117-.016c-.117.054.109.016.054.078a2.419,2.419,0,0,0,.287-.015l-.031-.054c.241-.047.008.085.2.085l-.016-.062c.279.109.474-.062.675.008-.117.016-.085.093-.085.07a2.625,2.625,0,0,0,.644-.085c.062.093.078.124.264.163.132,0,.155-.008.2-.062.132.047.38.008.38.07.031-.054.116.015.194-.023l.016.031-.008-.062c.225.155.4-.062.629.078l-.039.016.1-.016-.031.078.458.039-.085-.054c.1,0,.163-.062.272-.015-.194.085.155.015.179.085l-.1.023c.132,0,.132,0,.132-.062.179-.016.109.132.279.07l-.117-.008c-.031-.039.055-.085.132-.078l.008.047c.14-.016.342.031.4.008.07.023.047.07,0,.085a2.631,2.631,0,0,1,.427-.008l-.008.039.1-.031.132.093-.047-.054a.851.851,0,0,1,.272.023l-.054.047c.272.008.3.132.567.085l-.047.031c.248-.054.171.116.419.047l-.008.054.116-.023-.015.07.1-.093.054.085.047-.031c.1.155.279.07.419.194l-.016-.093c.427-.132.908.2,1.389.225l-.023.07.21-.047c.093.078-.078.047-.047.093.217,0,.109-.085.357-.062.116.07-.054.047-.116.054a2.547,2.547,0,0,1,.737.109l.008-.023a3.318,3.318,0,0,1,.528.1l-.1.031.194.031-.078.047c.124.039.388.031.4.109-.008-.031.008-.085.116-.054.039.124.318.016.481.109l-.124.008a.386.386,0,0,0,.264,0l-.031.039.427.054c.031.124.4.093.342.163.147.047-.109-.085.078-.039.039.062.171.023.148.093h-.023l.132.031-.1.047c.116.016.217-.031.233-.078.093.07.256.078.287.155l-.047.008c.3.054.435.326.706.272l-.031.023.179.054-.062.039.326.008-.016.031c.2.062.512.148.761.233h-.047c.295.047.256.132.466.163l-.023.008.179.062-.054.016c.163-.023.349.233.287.14a.868.868,0,0,0,.272-.031c.2.07.031.062.14.132.14.054.186.008.373.109l-.016.031c.093.023.155.023.287.062H345.2c.233,0,.217.194.435.1.078.062.248.093.209.163.264.07.466.14.722.225-.008.132.054.016.179.148l.016-.062c.349.147.683.474,1.071.629l-.016.062.109-.031c.4.21.916.481,1.219.675a1.311,1.311,0,0,1,.466.155h-.023a4.469,4.469,0,0,1,.908.481l-.054.039c.109-.023.186.1.248.14l-.054-.085a.272.272,0,0,1,.233.186l.179.016.008.039.039-.016.031.116a.849.849,0,0,0,.341.054c0,.031.109.132.008.085l.473.349-.062-.078c.023-.062.194,0,.248.078-.124-.023-.054.07-.039.14.085.016-.023-.085.031-.093a.645.645,0,0,1,.318.171l-.062-.016c.124.054.116.186.225.256.132.023.178.116.217.008.155.078.015.1.054.14.1,0,.279.163.272.233.171-.078.349.311.458.217l.07.14a.165.165,0,0,1,.2-.023c.07.093.008.132.016.179l.14-.07c.411.5,1.11.947,1.568,1.475a7.021,7.021,0,0,1,.862.605l-.039-.008a2.668,2.668,0,0,1,.241.264,2.131,2.131,0,0,0-.147-.217.583.583,0,0,1,.186.116,5.1,5.1,0,0,0,.97,1c.334.1.055.241.349.365h-.078a5.509,5.509,0,0,0,.714.442c-.14.085.155.14.078.179l.062-.023c.023.078.14.2.085.217l.155.047-.039.054c.124.147.427.411.4.574a8.312,8.312,0,0,1,1.219,1.3c.093.023.21.155.3.249l.039.155c.109.085.279.132.326.264h-.023c.093.1.148.233.279.287.085.124.147.264.062.272.109-.07.179.264.179.264s.279.4.722,1.009c.225.3.489.668.776,1.056.264.411.551.854.846,1.312,1.258,1.785,2.414,3.912,3.214,4.572.085.031.21.163.241.07.085.109.016.217.085.21-.054-.186.171-.023.155-.217l.07.093c.054,0-.124-.117-.039-.132l-.124.023a.3.3,0,0,1-.016-.194c-.085-.054-.256-.031-.295-.256l.031.047c-.085-.148.015-.132.015-.171l.016.031-.016-.155c.016.116.194.233.14.155-.07-.2,0,.062-.085-.07-.054-.085.016-.085.054-.1l-.085-.147c.054-.023.054.1.07.016l-.155-.163c.1-.1-.171-.179-.109-.326.109.124.031-.031.086-.031l-.194-.334.054.023c0-.085-.085-.085-.109-.124.015-.047-.14-.256-.054-.287-.078-.264-.155-.039-.225-.279.031-.054.109.163.1.039l-.14-.217a.15.15,0,0,1,.14.085c-.279-.637-.178-1.133-.6-1.622.008-.109.07.031.148.062-.326-.342-.233-.621-.45-.947l-.047.023a10.761,10.761,0,0,0-.885-1.615l.008.086c-.093-.039-.171-.155-.248-.225.016-.031.14-.008.023-.14l-.008.117a15.737,15.737,0,0,0-1.382-2.142c-.388-.45-.714-.986-1.126-1.444-.4-.473-.8-.947-1.2-1.374.124.132-.031.163-.093.047-.078-.427-.45-.45-.59-.838a8.943,8.943,0,0,0-1.413-1.312l.039-.054c-.047-.085-.1-.07-.179-.14l.016-.016c-.155-.178-.4-.326-.481-.442l-.054.047c-.109-.093-.016-.093-.148-.163l.031-.023-.171-.062c.1-.085-.279-.279-.318-.4a5.023,5.023,0,0,1-.652-.466c0-.085-.264-.295-.4-.45-.334-.248-.815-.606-1.219-.963l-.039.07-.109-.085.023-.023c-.031-.14-.264-.179-.318-.295.016.1.07.07.132.116.062.1-.07.1-.163-.031l.016-.016-.116-.023-.008-.194a10.832,10.832,0,0,1-1.087-.621c.078-.031-.295-.179-.14-.225-.264-.116-.015.109-.171.109l-.14-.109.047-.07-.163-.1.054-.008c-.357-.155-.52-.45-.854-.582l.062.109c-.334-.116-.217-.241-.528-.342l.093-.023c-.116-.015-.179.008-.3-.116.008-.078.155.023.248.031-.1-.062-.373-.194-.326-.085-.14-.047-.148-.132-.2-.186-.008.016.093.109,0,.093a4.928,4.928,0,0,0-.613-.4l.031-.047c-.171.015-.078-.117-.311-.225" transform="translate(16090.14 2024.28)" fill="#211f1f"></path><path id="Path_103654" data-name="Path 103654" d="M349.42,372.16Z" transform="translate(16084.38 2023.06)" fill="#211f1f"></path></g></svg> 