<?xml version="1.0" encoding="UTF-8"?> <svg xmlns="http://www.w3.org/2000/svg" id="Group_12092" data-name="Group 12092" width="81.159" height="93.059" viewBox="0 0 81.159 93.059"><g id="Group_12091" data-name="Group 12091" transform="translate(0 0)"><g id="Group_11784" data-name="Group 11784" transform="translate(0)"><g id="BK_New_Logo-01" data-name="BK New Logo-01" transform="translate(0)"><path id="Path_93660" data-name="Path 93660" d="M422.939,512.317l-.019-.017Z" transform="translate(-383.637 -419.258)" fill="#d10d16"></path><path id="Path_93661" data-name="Path 93661" d="M295.25,155.037l.11-.127c-.054.058-.086.1-.11.127" transform="translate(-283.417 -138.71)" fill="#d10d16"></path><path id="Path_93662" data-name="Path 93662" d="M550.084,436.9l-.024,0Z" transform="translate(-483.441 -360.07)" fill="#d10d16"></path><path id="Path_93663" data-name="Path 93663" d="M390.847,451.221c-.049-.015-.079-.019-.077,0,.067.015.084.013.077,0" transform="translate(-358.4 -371.302)" fill="#d10d16"></path><path id="Path_93664" data-name="Path 93664" d="M395.2,476.424l.019-.024Z" transform="translate(-361.877 -391.077)" fill="#d10d16"></path><path id="Path_93665" data-name="Path 93665" d="M374.67,466.97l.056.013Z" transform="translate(-345.762 -383.675)" fill="#d10d16"></path><g id="Group_11729" data-name="Group 11729" transform="translate(0 0)"><path id="Path_93666" data-name="Path 93666" d="M245.616,103.814a38.061,38.061,0,0,0-1.623,3.444c-.129.305-.28.6-.391.909s-.226.613-.335.912c-.224.6-.443,1.174-.658,1.7-.082.5-.252,1.2-.447,1.907l-.183.024-.125.6c-.12.224.105-.456-.082-.056l.032.249c-.071.028-.49,1.486-.312.475a10.977,10.977,0,0,0-.295,1.148l-.26,1.157c-.118.51.069.329-.1.884-.073.105.013-.209-.056-.176a4.831,4.831,0,0,0-.228,1.847,6.882,6.882,0,0,1-.116,1.767l0-.138c0,.277-.077.793-.052.8.194-.187-.049-.3.12-.772.135.06-.013.615.1.6a3.492,3.492,0,0,0-.041.925c-.129.548-.122,1.355-.264,1.767a7.059,7.059,0,0,1,.127,1.172c-.11.417-.105-.1-.146.471l.084.095c-.011.469-.034.4-.073.378a6.655,6.655,0,0,1,.065,1.049l-.082-.35c.032.467.019.658.015,1.307-.047-.013-.045-.273-.032-.467a1.61,1.61,0,0,0,.052.8c.022-.056.045-.507.125-.29-.015.322.159.677.073.912l-.107-.346a4.3,4.3,0,0,1,.161,1.122c-.009-.041-.028-.019-.047-.034a9.916,9.916,0,0,1,.148,1.84l-.032-.133c.045.288.151.436.168.591-.017-.411.024-.3.1-.348-.052.553.284.8.34,1.677-.049-.006-.138-.209-.127-.456a1.924,1.924,0,0,1-.456-.826c.084.329.166.718.092.643l.144.086c.03.2.054.361.075.512.095.073.069-.426.2.03.123.516-.088.3-.017.372.163.712.185.275.252.976a1.087,1.087,0,0,1-.062-.26c.013.51.241,1.21.123,1.387a.372.372,0,0,1-.127-.26l.026,0c-.228-.52.129.447-.045.305.073-.056.206.643.26.959l.071-.12c.527.968-.2-.011.092,1,.23.632-.039-.252.131.129a5.984,5.984,0,0,0,.28,1.253c.017.187.077.561-.017.624a7.558,7.558,0,0,1,.234.757,2.024,2.024,0,0,0,.264.611c-.142-.677-.329-.617-.43-1.43l.166.185c.146.538.436,1.191.525,1.567-.006-.08.009-.123.045-.082.29.737.471.914.725,1.638-.052.129-.2-.3-.329-.6a10.144,10.144,0,0,0,.434,1.215c-.062.069-.185-.486-.292-.538l.335.787-.015.006c.176.06.247.6.495,1.064a6.48,6.48,0,0,0,1.163,1.778c.045.183.037.247-.028.193-.075-.3-.1-.23-.176-.31.189.37.282.877.127.7.348.568-.047-.245.183.092l.417.8c.013-.129-.123-.417.146-.03.2.34.275.516.535.961-.069-.047-.013.2-.2-.142a2.09,2.09,0,0,0,.432.662c-.228-.52.52.77.4.348.073.174.155.344.239.514-.067-.11-.116-.1-.2-.264-.009.194.273.374.387.533a5.675,5.675,0,0,1,.346.677,2.042,2.042,0,0,1,.342.608c.17.206.071-.021.144.021l.505.746c-.021.075-.116.232-.211.133.243.249.213,0,.507.424-.273-.17.338.6-.032.338a6.8,6.8,0,0,0,.931,1.318c.249.172-.271-.428-.172-.467.834,1.011,1.094.9,1.668,1.666-.047-.069-.1-.133-.142-.2a3.9,3.9,0,0,0,.669.581c-.189-.056.191.735.9,1.423.1.019-.3-.475-.118-.421l.46.46c.026.041-.039,0-.108-.047.432.391.636.9.86.912l.3.535-.116-.217a6.19,6.19,0,0,1,.692.538,3.971,3.971,0,0,1,.9.907c-.054-.114-.194-.389.206-.052-.133.14.772.789.7.843.166.133.417.419.486.376l-.1.069c.148-.1.722.419,1.219.744-.245.1.527.381.613.7.174-.045.884.578,1.047.529.376.256.258.346.325.454l.206.075a12.479,12.479,0,0,0,1.262.991l.471.144.116.146c.084.011.434.194.249.026l.217.138c.095-.116.331.148.8.355.09.08.045.095-.06.056.219.131.088.14.183.254-.142-.116.931.219.361-.17-.013-.073.361.077.568.217l.071.189.331.019a6.715,6.715,0,0,1,.735.484c-.288-.144-.759-.11-.009.275a8.571,8.571,0,0,0-.843-.31c.153.088.224.14-.043.06.6.273.23.039.819.32-.086.09.062.2.559.49l-.346-.264.088.006c-.14-.082-.172-.118-.183-.174.116.058.746.2.813.31-.51-.452,1.09.37.759.086a1.206,1.206,0,0,1,.52.245c-.535-.135.32.286.206.327.2.049-.357-.252-.088-.183a2.908,2.908,0,0,1,.641.389l-.133-.032.441.249c.1-.022-.406-.286.028-.131.1.071.546.206.514.245-.236,0-.127.155-.5.03.31.11,1.288.473.935.217l.363.144c-.213-.135-.817-.464-.082-.2l-.015.019.537.112c.067.047.133.095.2.138,0-.03.095-.03.284.037.039.049.213.125.183.163.555.183.529.11.613.1.312.1.419.159.254.176.415.17,1.176.353,1.449.505.589.116-.112-.058.247-.037a1.944,1.944,0,0,0,.495.247c.215.071.469.135.737.2.54.12,1.137.245,1.621.318-.221-.23.267.032.475-.092-.217.015.879.32.032.2l.514.086c.331.168-.86-.1-.359.142a4.5,4.5,0,0,0,.8.062,3.17,3.17,0,0,1,.864.095c-.249.09.531.041.34.153a2.4,2.4,0,0,1-.531-.041l.116.043c1.266.239.391-.09,1.066-.073.776.082.6.172.637.239a3.087,3.087,0,0,0,.72.054c-.484.024-.869-.181-.639-.237a3.04,3.04,0,0,0,1.365.112c-1.088-.28-.768-.1-1.782-.381-.148.03-.142.166-.755.013.4,0-.015-.077-.123-.114.107.095-.434-.037-.628-.037-.161-.088.4-.112-.221-.243l-.148.155c-.241-.069.125-.105-.4-.159.3-.037-.06-.148.649-.065a6.449,6.449,0,0,0-1.957-.228c.069,0,.082-.019.148-.017a2.831,2.831,0,0,1-.593-.067c-.415-.138.355,0,.256-.08-.232-.041-.458-.1-.688-.155l-.015-.017a.86.86,0,0,1-.413-.105c.217,0,.312-.043.458-.054l-.746-.058c.092-.037-.565-.243-.045-.159-.357-.075-.71-.159-1.06-.258l-.056-.14c-.256-.054-.271-.032.026.069-.348-.131-1.651-.262-1.389-.439a22.019,22.019,0,0,1-2.12-.611c.783.183-.8-.46,0-.2a4.057,4.057,0,0,0-.955-.264c-.322-.178-.125-.228.258-.127l-.452-.116.017-.019c-.133-.026-.264-.062-.4-.092-.365-.228-.036-.146-.432-.335l-.129.058-.247-.174c.084.088-.163,0-.46-.114l.017-.019c-.123-.043-.243-.092-.361-.144.372.11-.31-.176-.118-.166-.3-.148-.3-.151-.849-.4l.062.112c-.731-.286.017-.11-.546-.393l0,.092c-.733-.559-1.408-.647-1.942-1.071.342.178.305.045.288.062-.51-.275-1.322-.753-1.875-1-.12-.221-.144-.28-.63-.658a1.441,1.441,0,0,0-.6-.288c-.327-.288-1.032-.7-1-.783-.123,0-.312-.232-.533-.333l-.019-.06-.019.09c-.49-.621-1.109-.69-1.6-1.322l.116.069-.271-.183c-.017-.06.1.006.142-.022-.381-.331-.778-.641-1.144-.987l.181.245a4.431,4.431,0,0,1-.692-.572c.533.312-.37-.34-.378-.475l.262.194c-.333-.29-.333-.29-.363-.2-.441-.372-.176-.387-.619-.69l.267.267c.047.112-.2-.028-.374-.2-.034-.052-.135-.2.009-.075-.348-.292-.8-.8-.959-.925-.151-.2-.052-.178.056-.1-.718-.651-.29-.327-1.008-.983l.045-.019-.262-.213-.239-.424.067.168a7.108,7.108,0,0,1-.6-.658l.151.067c-.615-.654-.568-.873-1.185-1.468-.026-.054.073.037.125.082-.583-.546-.264-.546-.851-1.1.047.024.019-.062.054-.049l-.254-.262.092-.034-.29-.153c-.019-.077-.037-.157-.052-.236l-.116-.088c-.071-.421-.492-.789-.677-1.3l-.049.14c-.937-.98-1.52-2.632-2.35-3.995l.1-.019-.409-.531c-.1-.346.172.15.163.032-.372-.6-.258-.2-.643-.927-.127-.406.127.1.243.264-.187-.338-.421-.755-.621-1.157a10.724,10.724,0,0,1-.445-1.054l-.039,0a15.788,15.788,0,0,1-.664-1.63c.045,0,.1.125.163.254a2.879,2.879,0,0,0-.247-.608l.155.17a5.6,5.6,0,0,1-.424-1.3c-.017.06-.092.064-.211-.292.06-.236-.368-.955-.469-1.555.054.058.189.479.155.359a2.774,2.774,0,0,0-.314-.78l.08.062c-.155-.441-.29-.89-.436-1.335.075-.232-.323-1.284-.2-1.215-.1-.49.026.424-.125-.191.024-.176-.151-.555-.052-.546l.026.064c-.03-.144-.073-.286-.095-.432.043.086.095.172.144.256-.1-.368-.217-.63-.295-.634a7.191,7.191,0,0,1-.069-1.043l.043.129a7.771,7.771,0,0,1-.112-1.316,5.592,5.592,0,0,0-.041-.574,3,3,0,0,0-.1-.572c.009-.06.032-.056.041.069l-.043-.624.082.142-.189-1.019.047.011c-.017-.34-.054-.776-.1-1.234-.028-.46-.024-.946-.039-1.385l.024.131c-.077-.957.043-.925-.013-1.623l.021.075,0-.63.047.14a4.268,4.268,0,0,1,.112-1.041,4.228,4.228,0,0,0-.1-.8c.045-.686.073-.163.144-.585a7.325,7.325,0,0,1,.075-1.256l.045.019c.039-.312.032-.51.09-.946l0,.131c.006-.722.267-.86.144-1.449.082-.29.131-.86.232-.813.135-.879.258-1.563.415-2.438.183-.1.028-.189.239-.688l-.092.017c.176-.6.419-1.234.662-1.877.118-.323.239-.649.357-.976s.262-.645.372-.972l.092-.006.013-.288c.295-.682.587-1.481.931-2.217l.95-1.959c.062-.185.14-.419.228-.679a5.03,5.03,0,0,1,.4-.783l-.022.062c.243-.477.5-.97.765-1.464.138-.245.277-.495.417-.746.161-.239.329-.477.5-.714-.011.08.075,0,.022.118a3.083,3.083,0,0,1,.518-.78l-.215.211a2.134,2.134,0,0,1,.591-.783l.219-.49.082-.06.015-.1c.082-.056.161-.114.249-.163a5.309,5.309,0,0,0,.516-.916c.06-.017.385-.389.168-.077l1.2-1.5-.213.211c-.09-.026.226-.516.467-.7-.213.335.069.1.228.017.142-.224-.209.12-.151-.011a5.393,5.393,0,0,1,.77-.92l-.108.168c.277-.353.522-.406.811-.737.215-.34.456-.514.3-.553.381-.428.226-.088.366-.209a3.059,3.059,0,0,1,.879-.772c.082-.368,1.161-1.006,1.127-1.217a4.322,4.322,0,0,1,.415-.237c-.019-.045-.017-.185.264-.441.312-.189.3-.071.413-.1l.073-.288c.43-.292.877-.624,1.337-.98.114-.088.23-.178.346-.271l.37-.252c.247-.17.5-.342.75-.516.5-.346,1.013-.694,1.512-1.036s1.03-.613,1.526-.884c.426-.271.905-.576,1.4-.894.51-.3,1.043-.6,1.572-.858l-.105.077L268.127,86l-.8.295c.221-.129.385-.245.611-.35.589-.258,1.3-.5,2.023-.8.74-.267,1.5-.583,2.232-.871.9-.529.694-.058,1.585-.486-.075.043-.1.08-.161.12.985-.383,1.531-.55,2.526-.929-.071.221.671-.155.6-.03l.069-.1c.241,0,.783-.107.718-.032l.439-.185.056.075c.3-.052.778-.161,1.223-.23a3.075,3.075,0,0,1,1.03-.034,27.663,27.663,0,0,1,5.837-.464,6.36,6.36,0,0,1,1.273-.071l.467.12A6.572,6.572,0,0,1,289.2,82l-.049.024c.456-.009.882.084,1.312.034.5.052.972.148.811.228.032-.08.295-.049.548,0,.127.026.252.054.344.08l.153.049s.394.062,1.092.176c.348.058.776.114,1.266.209l1.645.348a45.594,45.594,0,0,1,8.88,3,47.734,47.734,0,0,1,9.017,5.468c2.6,1.978,4.657,3.855,5.87,4.876.2.1.641.5.559.267.331.314.363.563.484.572-.378-.49.288,0-.045-.512l.28.273c.1.019-.409-.346-.264-.346l-.189.022a1.834,1.834,0,0,1-.327-.512,2.223,2.223,0,0,1-.935-.757l.14.138c-.393-.419-.168-.327-.234-.43l.088.092-.288-.4c.232.288.729.654.505.426-.443-.529.1.15-.273-.206-.232-.219-.112-.213-.067-.237l-.413-.4c.065-.037.269.271.155.056l-.57-.458c.028-.224-.617-.5-.744-.845.409.329.009-.08.108-.062l-.961-.851c-.073-.1.288.185.138.06-.146-.2-.325-.232-.419-.32-.049-.112-.714-.641-.617-.7-.626-.613-.383-.116-.968-.679-.037-.125.512.393.28.108l-.671-.512a.732.732,0,0,1,.436.224,26.022,26.022,0,0,0-4.36-3.58c-.2-.237.209.067.417.135a13.415,13.415,0,0,1-1.524-.985,8.67,8.67,0,0,0-1.372-.92l-.054.052a16.391,16.391,0,0,0-2.591-1.419l-1.434-.636c-.49-.189-.978-.383-1.453-.587l.213.133a9.687,9.687,0,0,1-1.047-.28c-.039-.049.284-.069-.3-.221.11.062.342.163.26.172a25.209,25.209,0,0,0-3.591-1.21c-.368-.1-.744-.206-1.124-.3l-1.159-.247-1.146-.249-1.112-.193a51.4,51.4,0,0,0-12.068-.4c.589-.067.353.133-.092.14-1.247-.172-2.092.292-3.352.3a30.725,30.725,0,0,0-6.186,1.61l-.065-.067a3.884,3.884,0,0,0-.682.267v-.024c-.755.215-1.6.651-2.032.776l.009.1c-.428.176-.251.019-.669.258l-.006-.049-.473.3c-.009-.086-.31.041-.656.2a7.4,7.4,0,0,1-.905.421c-.535.275-1.505.871-2.318,1.277a13.08,13.08,0,0,0-1.782.9l-.955.617c-.34.228-.684.488-1.047.744-.718.522-1.5,1.041-2.2,1.563l.09.064-.35.3c-.009-.024-.065.006-.017-.047-.35.131-.8.7-1.129.877.241-.073.258-.194.462-.357.323-.2.11.11-.316.391l-.006-.024-.232.264c-.084-.039-.353.131-.439.092a10.488,10.488,0,0,0-.787.71c-.23.243-.449.477-.671.71-.441.467-.89.933-1.469,1.458.028-.084-.183.1-.355.3s-.348.363-.3.191c-.585.737.2-.024,0,.372-.176.191-.327.426-.4.419.054-.118-.215.09-.084-.077l-.411.473c-.049.037.026-.082.065-.14a16.832,16.832,0,0,1-1.174,1.3,12.13,12.13,0,0,0-1.021,1.3c-.006.1.292-.348.288-.245-.613.98-.71.737-1.3,1.638l.071-.224a3.564,3.564,0,0,1-.557.916c-.135.028.2-.447.323-.7-.221.325-.753,1.165-.514.963a3.422,3.422,0,0,1-.563.7c.015.019.3-.331.181-.077a15.244,15.244,0,0,0-1.333,2.006c-.017-.017-.075.011-.052-.054-.234.613-.387.447-.789,1.215" transform="translate(-240.217 -79.562)" fill="#39668e"></path><path id="Path_93667" data-name="Path 93667" d="M293.917,159.929a41.1,41.1,0,0,0-.236,6.988c.112.454.14,1.12.241,1.785l-.1.082.092.555c-.009.23-.064-.426-.064-.019l.09.2c-.045.049.185,1.428-.036.51.1.72.211,1.441.363,2.152.092.475.142.258.226.785-.009.112-.065-.183-.092-.131a8.122,8.122,0,0,0,.473,1.647,8.587,8.587,0,0,1,.55,1.535l-.049-.116.17.432a1.838,1.838,0,0,0,.105.258c.047-.217-.151-.23-.224-.684.095.011.228.52.286.469a5.884,5.884,0,0,0,.3.8c.1.512.439,1.174.507,1.565.118.226.312.449.544.937.095.385-.1-.054.092.439l.086.054c.172.4.131.344.1.34.2.419.241.312.473.845l-.2-.264c.217.374.286.535.559,1.069-.036,0-.144-.211-.217-.372a1.8,1.8,0,0,0,.374.632c0-.056-.2-.419-.054-.271a4.417,4.417,0,0,1,.43.727l-.209-.254a5.237,5.237,0,0,1,.563.879l-.043-.015a14.021,14.021,0,0,1,.92,1.434l-.082-.1c.157.217.292.305.37.426-.194-.327-.12-.252-.1-.307.215.458.529.561.959,1.253-.032.009-.178-.129-.282-.331a2.2,2.2,0,0,1-.647-.535c.2.241.421.531.344.49l.127.028.275.391c.09.032-.148-.361.133-.03.318.372.088.26.166.3.445.507.247.161.626.686a1.286,1.286,0,0,1-.163-.185,8.022,8.022,0,0,1,.74,1.047.423.423,0,0,1-.206-.166l.017,0c-.393-.34.3.31.12.249.019-.062.441.439.628.667l-.015-.112c.793.6-.14.056.544.748.462.413-.15-.181.146.062a10.027,10.027,0,0,0,.8.877c.1.144.333.4.305.471a12.687,12.687,0,0,0,1.008.886c-.424-.477-.516-.378-1-.952l.2.092c.381.344.866.783,1.131,1.023-.045-.056-.058-.09-.015-.073.578.449.776.537,1.314,1,.032.11-.286-.157-.518-.35a6.678,6.678,0,0,0,.918.759c0,.067-.378-.292-.48-.3l.639.462-.007.009c.15-.011.467.381.882.628a7.438,7.438,0,0,0,1.727.914c.131.11.161.157.088.138-.215-.181-.191-.127-.286-.159.331.194.669.518.467.439.535.3-.161-.157.172.013.239.144.469.3.714.436-.062-.09-.314-.241.082-.062.327.163.475.256.892.488-.071-.013.1.135-.215-.039a2.64,2.64,0,0,0,.651.329c-.445-.275.785.344.471.1l.447.267a2.751,2.751,0,0,1-.286-.116c.1.129.391.168.559.241.157.1.587.3.613.338a2.258,2.258,0,0,1,.578.284c.232.084.037-.037.112-.03.256.11.507.228.765.329.026.054.052.181-.073.15.31.075.148-.071.6.1-.284-.024.57.275.166.224a6.393,6.393,0,0,0,1.393.52c.273.022-.434-.174-.387-.226,1.161.34,1.273.217,2.12.467l-.217-.075a5.068,5.068,0,0,0,.8.129c-.084.017.054.11.325.224a6.95,6.95,0,0,0,1.124.307c.082-.024-.479-.181-.322-.211l.589.114c.041.015-.026.015-.1.009a4.823,4.823,0,0,0,1.135.221l.523.2-.206-.084c.08-.028.677.065.8.062a4.4,4.4,0,0,1,1.165.176c-.1-.045-.359-.148.123-.105-.019.14,1.008.135.989.2.2.011.542.075.568.024l-.037.077c.026-.054.217-.067.471-.064s.568-.006.841-.011c-.127.148.6,0,.843.14.1-.1.972-.067,1.066-.155a.637.637,0,0,1,.492.108l.194-.043c.215.037,1.006-.022,1.479-.026.142-.043.286-.077.428-.129l.166.019c.067-.032.426-.09.2-.1l.234-.026c.006-.1.327-.069.791-.172.11,0,.086.028-.015.054.234-.03.142.034.275.047-.168,0,.808-.323.176-.254-.049-.032.31-.125.54-.148l.155.062.256-.14c.353-.077.518-.045.8-.1-.29.071-.619.314.14.14-.4.107-.585.187-.791.241.159-.026.241-.03,0,.049.6-.138.191-.08.778-.224-.015.084.155.071.675-.021l-.4.032.069-.037c-.148.026-.191.024-.23,0a4.758,4.758,0,0,1,.768-.228c-.615.024,1-.34.608-.325a1.517,1.517,0,0,1,.514-.133c-.467.193.387-.017.325.058.174-.073-.4.052-.161-.045a3.864,3.864,0,0,1,.679-.123l-.116.047c.153-.032.305-.058.454-.1.06-.06-.445.077-.047-.075a4.258,4.258,0,0,1,.507-.142c-.176.116-.013.138-.355.267.286-.1,1.2-.419.8-.366l.342-.114c-.226.041-.843.187-.163-.054v.017c.151-.073.305-.142.454-.219l.217-.043c-.013-.017.054-.062.226-.129.054,0,.219-.052.219-.017.5-.2.445-.224.5-.271.277-.116.389-.142.277-.047.387-.144,1.034-.464,1.309-.54.488-.262-.11.032.161-.151a4.074,4.074,0,0,0,1.112-.469c.452-.239.942-.516,1.32-.759-.271.019.206-.135.295-.314-.148.131.787-.35.123.075l.411-.254c.318-.11-.664.445-.187.271.471-.271.7-.576,1.254-.888-.131.189.4-.292.314-.127a3,3,0,0,1-.4.292l.1-.047c1.008-.63.232-.271.718-.66.581-.43.5-.28.557-.271a3.891,3.891,0,0,0,.529-.408c-.327.3-.69.436-.557.273a3.8,3.8,0,0,0,1-.77c-.892.522-.581.415-1.423.892-.09.1-.017.168-.525.454.28-.234-.047-.026-.142.017.12-.019-.325.237-.46.35-.157.054.226-.286-.273.015l-.03.159c-.2.11.039-.123-.359.161.191-.189-.114-.037.428-.411a9.674,9.674,0,0,0-1.507,1.019c.052-.039.049-.056.1-.092a3.623,3.623,0,0,1-.456.307c-.363.176.252-.206.144-.183-.185.114-.376.217-.57.316h-.019a1.056,1.056,0,0,1-.353.178c.155-.123.2-.191.305-.28l-.57.387c.047-.069-.531.2-.112-.049-.3.157-.589.327-.9.464l-.112-.037c-.213.112-.213.129.054.019-.32.125-1.337.761-1.234.542-.712.353-.983.445-1.868.815.673-.305-.832.183-.1-.1a5.272,5.272,0,0,0-.843.353c-.331.075-.211-.047.125-.191l-.393.172,0-.017c-.114.052-.226.112-.34.159-.391.067-.1-.054-.5.047l-.065.092-.277.037c.11,0-.118.082-.4.168l0-.017-.342.112c.333-.133-.32.069-.176-.026-.3.067-.305.069-.843.2l.105.026c-.7.2-.045-.062-.617.064l.047.045c-.843.077-1.4.314-2.021.361.35-.067.252-.12.247-.1-.527.1-1.4.193-1.939.325a2,2,0,0,0-.83-.075,1.62,1.62,0,0,0-.6.108,8.4,8.4,0,0,1-1.174,0c-.092.049-.359,0-.581.047l-.047-.024.034.054c-.71-.131-1.2.056-1.918-.075l.125-.006-.3,0c-.047-.028.077-.034.092-.064l-1.4-.1.271.06a3.735,3.735,0,0,1-.83-.054c.565-.017-.462-.056-.544-.131l.3.013c-.409-.043-.409-.043-.381.017-.531-.045-.35-.135-.843-.159.116.019.23.043.344.058.1.047-.157.058-.389.015-.054-.017-.213-.069-.037-.047-.417-.047-1.034-.178-1.221-.187-.219-.058-.14-.084-.015-.075-.886-.138-.393-.095-1.281-.234l.022-.028-.31-.028c-.14-.049-.273-.116-.411-.172l.142.08c-.286-.071-.469-.1-.8-.2l.146-.009c-.811-.183-.905-.325-1.675-.5-.049-.024.073,0,.135.011-.716-.159-.505-.228-1.221-.4.047,0-.022-.045.011-.047l-.325-.088.045-.049-.288-.009-.17-.133-.133-.017c-.292-.226-.785-.355-1.2-.626l.045.105a23.436,23.436,0,0,1-3.827-1.95l.054-.041-.561-.258c-.254-.215.2.058.125-.024-.576-.314-.282-.064-.942-.449-.3-.256.138.039.31.11-.318-.166-.682-.415-1.034-.641a7.844,7.844,0,0,1-.862-.617l-.026.009c-.393-.271-.888-.662-1.294-.993.03-.015.129.069.237.144a4.082,4.082,0,0,0-.471-.385l.185.086a8.358,8.358,0,0,1-.952-.836c.024.047-.032.08-.282-.163-.075-.2-.72-.617-1.094-1.034.064.03.368.305.284.226a5.657,5.657,0,0,0-.589-.51l.08.026-.946-.9c-.062-.2-.823-.912-.714-.89-.3-.353.226.32-.172-.114-.073-.144-.366-.387-.3-.408l.047.043c-.09-.1-.174-.211-.26-.316l.209.163c-.23-.269-.439-.432-.486-.417a9.121,9.121,0,0,1-.548-.793l.088.088a7.829,7.829,0,0,1-.669-1.026,6.419,6.419,0,0,0-.6-.884c-.024-.052-.006-.054.056.043l-.31-.488.114.09c-.189-.256-.391-.507-.574-.77l.032-.006c-.3-.555-.826-1.4-1.191-2.124l.069.1a13.473,13.473,0,0,1-.664-1.352l.041.056-.243-.531.082.105a4.874,4.874,0,0,1-.355-.9,5.659,5.659,0,0,0-.372-.647c-.237-.591-.026-.157-.135-.538-.148-.436-.226-.495-.4-1.094l.034,0c-.105-.273-.174-.441-.295-.83l.049.112a10.468,10.468,0,0,0-.415-1.286c-.041-.277-.187-.787-.118-.776-.125-.4-.215-.753-.294-1.112s-.172-.714-.249-1.118c.084-.146-.032-.174-.047-.675l-.049.045c-.2-1.15-.166-2.494-.252-3.767l.054-.039c-.028-.084-.047-.17-.069-.254-.019-1.378.073-3.156.181-4.249a8.841,8.841,0,0,1,.092-1.475v.06a20.592,20.592,0,0,1,.531-3.087c.009.071.047-.03.036.092a3.02,3.02,0,0,1,.2-.845l-.11.254a2.734,2.734,0,0,1,.269-.869l.067-.488.045-.08,0-.09.148-.226a7.187,7.187,0,0,0,.191-.957c.034-.039.2-.464.1-.125.206-.557.413-1.116.632-1.666-.045.082-.086.166-.125.249-.071.011.1-.5.232-.746-.1.353.062.058.159-.069.064-.234-.127.176-.105.045a5.621,5.621,0,0,1,.408-1.036l-.058.174c.159-.383.327-.516.5-.886.114-.35.269-.576.153-.55.23-.477.153-.151.243-.3a3.94,3.94,0,0,1,.535-.942c.019-.322.765-1.2.718-1.357.09-.114.191-.221.288-.331-.019-.028-.032-.138.153-.441.211-.26.213-.163.295-.228l.026-.252a36.422,36.422,0,0,1,4.279-4.926,24.326,24.326,0,0,1,2.341-2.187l-.084.09c.284-.224.563-.454.864-.656-.224.14-.441.29-.649.449a4.389,4.389,0,0,1,.486-.436c.976-.69,2.294-1.576,3.53-2.367.755-.593.589-.241,1.346-.748-.062.047-.08.077-.135.123.845-.492,1.3-.776,2.165-1.245-.047.17.581-.271.529-.17l.052-.084c.208-.071.7-.234.641-.176l.376-.224.056.039a8.889,8.889,0,0,1,2-.649,24.629,24.629,0,0,1,5.274-1.307,6.385,6.385,0,0,1,1.161-.213l.439.013a5.5,5.5,0,0,1,1.228-.172l-.043.021c.419-.039.819-.047,1.211-.116.462-.006.909.019.77.084.022-.056.267-.058.5-.045a3.913,3.913,0,0,1,.471.049s.37.015,1.026.039c.329,0,.729.034,1.189.08s.985.071,1.555.159a35.479,35.479,0,0,1,8.448,2.129,33.158,33.158,0,0,1,4.528,2.133,34.328,34.328,0,0,1,4.014,2.623,46.98,46.98,0,0,1,5.223,4.715c.163.118.529.52.449.318.277.316.32.525.415.555-.327-.469.224.054-.071-.426l.234.273c.077.034-.34-.357-.228-.331l-.144-.017a2.21,2.21,0,0,1-.288-.477,3.377,3.377,0,0,1-.791-.772l.125.131c-.355-.393-.168-.286-.228-.381l.077.088-.26-.37c.2.277.636.643.437.426-.4-.495.09.14-.234-.209-.2-.217-.105-.191-.073-.2l-.357-.4c.047-.019.232.264.125.071-.163-.155-.318-.316-.49-.46,0-.172-.557-.477-.692-.776.361.323,0-.06.08-.032-.275-.284-.565-.553-.864-.813-.071-.088.258.183.118.067a2,2,0,0,0-.381-.305c-.056-.092-.656-.6-.585-.628-.593-.548-.329-.135-.884-.645-.047-.1.471.368.243.118l-.617-.477a.9.9,0,0,1,.387.226c-.393-.355-.765-.639-1.1-.922s-.634-.555-.955-.791-.63-.479-.97-.72a13.07,13.07,0,0,0-1.152-.679c-.209-.187.189.064.378.131-.316-.161-.576-.31-.806-.452s-.443-.258-.643-.385a9.313,9.313,0,0,0-1.325-.75l-.041.034a26.745,26.745,0,0,0-5.207-2.064l.209.092c-.264-.026-.673-.135-.978-.2-.041-.034.243-.039-.295-.166.108.043.327.125.254.129a24.526,24.526,0,0,0-3.393-.815c-.69-.125-1.421-.206-2.144-.305-.725-.056-1.441-.148-2.114-.176a36.471,36.471,0,0,0-11.06,1.217c.525-.15.331.024-.071.11a21.154,21.154,0,0,0-2.98.849,28.589,28.589,0,0,0-5.3,2.541l-.06-.03a4.817,4.817,0,0,0-.568.361l0-.017c-.639.335-1.324.877-1.681,1.086l.013.067a4.852,4.852,0,0,0-.555.357l-.008-.032c-.131.11-.252.234-.376.35-.026-.118-.968.716-1.271.882-.406.376-1.2,1.064-1.823,1.617a13.15,13.15,0,0,0-1.387,1.21,43.744,43.744,0,0,0-3.09,3.576l.075.019-.245.346c-.009-.015-.049.026-.017-.03a13.087,13.087,0,0,0-.789,1.058c.17-.144.176-.239.318-.434.234-.26.09.045-.206.408l-.008-.017-.144.288c-.067,0-.247.228-.314.228-.187.295-.361.565-.516.832s-.288.531-.428.791c-.292.516-.55,1.054-.9,1.684.006-.08-.112.151-.226.363s-.206.415-.193.262c-.333.8.14-.09.041.3a2.127,2.127,0,0,1-.241.482c.024-.114-.144.15-.069-.032l-.236.527c-.03.047.006-.075.028-.136-.2.553-.417,1.028-.63,1.49a12.962,12.962,0,0,0-.529,1.43c.011.086.153-.389.163-.305-.29,1.021-.361.869-.615,1.827l.011-.211a4.872,4.872,0,0,1-.234.959c-.082.073.056-.449.11-.7-.112.344-.318,1.238-.194.983a4.342,4.342,0,0,1-.262.785c.013.011.144-.381.107-.129-.166.565-.372,1.453-.5,2.163-.015-.009-.047.037-.043-.028a12.465,12.465,0,0,1-.262,1.292" transform="translate(-282.147 -118.577)" fill="#1b2340"></path><path id="Path_93668" data-name="Path 93668" d="M279.549,303.892c.518.617,1.232,1.372,1.735,1.987a2.049,2.049,0,0,1,.531.436l-.064.095.168.133c.032.086-.123-.107-.054.034l.105.013c-.019.039.342.424.047.213.183.2.361.411.559.6.125.133.142.011.262.174,0,.052-.067-.037-.084,0,.363.49.643.348,1,.783l-.043-.024c.088.047.211.181.226.17.026-.129-.114-.028-.187-.2.077-.056.185.116.228.056.069.116.166.129.252.2.1.176.335.335.391.488a1.023,1.023,0,0,1,.385.185c.058.155-.073.028.056.185l.06-.019c.114.118.086.112.064.127.127.12.157.045.3.217l-.127-.043a3.85,3.85,0,0,1,.35.292c-.024.021-.092-.039-.138-.09.041.14.185.11.23.159,0-.03-.112-.14-.017-.131.08.079.232.1.249.2l-.129-.039c.206.118.14.028.331.217l-.028.013c.176.056.3.247.492.415l-.045-.019c.09.052.163.049.2.086-.09-.116-.049-.1-.026-.153.088.191.284.108.5.333-.024.021-.105.006-.153-.071-.142.009-.2.065-.374-.026.1.06.219.135.172.148l.084-.045c.058.041.1.08.142.112.058-.026-.058-.157.095-.086.166.09.024.129.071.116.224.127.142-.009.318.161l-.084-.045c.118.133.353.249.331.363-.034,0-.058.024-.105-.024l.011-.011c-.2-.058.142.082.037.12.024-.054.213.108.294.183l.011-.073c.408.071-.09.09.217.292.211.108-.06-.069.082-.017a1.326,1.326,0,0,0,.344.288c.039.058.127.159.095.224.133.056.335.269.441.256-.163-.185-.241-.075-.419-.31l.105-.013a5.449,5.449,0,0,1,.479.32l.009-.052a2.9,2.9,0,0,1,.557.29c-.006.073-.129-.026-.228-.084.116.138.144.11.361.271-.019.056-.153-.1-.206-.073.084.054.174.1.26.146l-.006.009c.086-.056.189.125.359.2a1.554,1.554,0,0,0,.731.215c.041.056.045.086.011.09-.069-.09-.069-.054-.114-.052.129.069.224.245.135.234.211.1-.045-.086.09-.037l.267.172c-.009-.06-.1-.129.06-.073a3.546,3.546,0,0,1,.338.185c-.034.009.015.09-.1.024a.4.4,0,0,0,.256.11c-.153-.133.3.118.211-.015l.153.131c-.039-.022-.058,0-.112-.037.015.09.151.06.215.086.054.045.209.138.209.17.064.013.191.1.2.146.088.032.028-.039.062-.045l.273.157c0,.043-.03.155-.08.146.125.021.092-.086.254,0-.129.024.189.157.011.174a1.278,1.278,0,0,0,.492.275c.118-.011-.144-.107-.105-.159.422.179.523.032.811.206l-.071-.054a.824.824,0,0,0,.31.06c-.086.045.125.3.449.411.043-.026-.146-.144-.069-.178l.215.077-.047.013c.2.054.31.241.4.181l.146.187-.056-.077c.041-.024.256.054.305.058a.657.657,0,0,1,.4.211c-.026-.045-.09-.153.082-.092-.049.123.34.185.312.243.071.024.181.105.206.06l-.039.069c.056-.1.307,0,.507.054-.095.125.217.067.256.23.071-.082.357.095.419.024.151.049.105.135.131.181l.082-.013a2.446,2.446,0,0,0,.512.23l.187-.041.047.052c.032-.015.17.009.1-.043l.086.028c.034-.084.129.009.312.019.037.024.019.041-.022.043.086.024.037.056.075.1-.054-.039.355-.062.133-.163-.006-.039.135-.024.215.015l.03.086.123-.045c.135.026.176.092.284.123-.112-.024-.284.073,0,.135a1.975,1.975,0,0,0-.32-.011c.058.017.086.032-.015.039.23.032.086-.019.312.019-.03.058.028.088.219.146l-.135-.071.032-.011c-.054-.017-.067-.03-.071-.056.045.009.279-.019.305.024-.2-.138.409.017.28-.064l.194.054c-.2,0,.123.092.084.12.073,0-.135-.071-.036-.069a.819.819,0,0,1,.241.1h-.049l.166.058c.034-.017-.155-.077.006-.056l.189.058c-.084.017-.039.071-.176.054.112.019.469.084.338.013l.133.028c-.08-.034-.3-.12-.037-.069l0,.009.193.006.075.037c0-.011.032-.015.1,0l.071.047c.2.032.189.009.217,0,.112.017.153.032.095.045.153.03.421.071.522.105.209.019-.041-.015.084-.015a4.85,4.85,0,0,0,1.011.176c-.086-.043.092.006.159-.013-.075,0,.316.062.019.034l.181.019c.12.028-.3-.022-.118.019.2.017.34.009.576.043-.082,0,.185.017.123.024s-.116-.009-.183-.015l.041.006a1.986,1.986,0,0,0,.363.017c.269.032.211.03.226.034.052,0,.17.017.249.024-.166-.013-.3-.034-.228-.03.118.019.4.045.473.056-.383-.052-.267-.03-.626-.088a1.514,1.514,0,0,1-.258-.026c.138.013-.009-.006-.045-.015a1.807,1.807,0,0,1-.217-.024c-.058-.015.133,0-.086-.036l-.045.015c-.086-.015.039-.011-.144-.032.1,0-.026-.026.219.011a3.754,3.754,0,0,0-.682-.084h.049c-.049,0-.14-.013-.206-.021-.148-.037.122,0,.084-.013-.082-.011-.161-.03-.243-.045l-.006,0a.535.535,0,0,1-.146-.03c.075,0,.105,0,.155,0l-.258-.028c.03-.007-.2-.069-.021-.039l-.374-.077-.026-.039c-.09-.015-.095-.009.011.019-.125-.039-.581-.065-.5-.12-.3-.039-.4-.067-.763-.133.28.032-.3-.138-.006-.077-.161-.067-.209-.028-.342-.056-.118-.054-.052-.088.086-.067l-.161-.024,0-.009-.142-.011c-.138-.069-.017-.06-.163-.11l-.045.037-.092-.056c.032.032-.058.017-.168-.011l0-.011-.133-.028c.138.006-.116-.045-.047-.065-.112-.034-.114-.034-.318-.086l.026.045c-.273-.045,0-.056-.209-.123l0,.045c-.284-.172-.527-.131-.737-.254.131.032.116-.032.11-.019a4,4,0,0,0-.727-.178c-.05-.1-.058-.127-.252-.232-.148-.047-.174-.047-.237-.019-.131-.084-.415-.135-.4-.194-.05.032-.125-.054-.217-.045l-.009-.028-.006.058c-.213-.206-.454-.088-.671-.284l.05,0-.116-.019.056-.056-.494-.191.084.075a.7.7,0,0,1-.3-.095c.226.007-.161-.071-.17-.144l.112.024c-.144-.056-.144-.056-.155,0-.194-.06-.088-.153-.282-.17l.12.054c.024.045-.082.049-.163.015-.017-.017-.064-.064,0-.043-.155-.043-.363-.161-.436-.168-.073-.049-.03-.075.017-.071-.333-.088-.138-.069-.471-.157l.017-.026-.123-.011-.123-.133.037.062a1.3,1.3,0,0,1-.284-.127l.067-.019c-.295-.114-.295-.23-.591-.3l.058-.006c-.282-.054-.15-.166-.443-.206l.019-.045-.127-.028.037-.052-.135.039-.041-.092-.058.006c-.067-.166-.273-.181-.393-.348l-.009.086c-.486-.082-.9-.585-1.419-.8l.041-.049-.236-.058c-.082-.108.092-.006.075-.056-.23-.1-.135.026-.391-.11-.1-.114.069-.013.14,0a3.759,3.759,0,0,1-.75-.426l-.017.017a3.214,3.214,0,0,1-.522-.331c.019-.021.062,0,.108.026-.058-.043-.127-.116-.194-.125l.092,0c-.12-.095-.389-.221-.383-.292,0,.03-.032.064-.14-.011,0-.12-.32-.17-.464-.333l.129.054a.553.553,0,0,0-.271-.127l.045-.015c-.146-.077-.292-.157-.432-.245,0-.122-.378-.271-.31-.307-.138-.11.092.125-.092,0-.024-.069-.172-.107-.127-.15l.024.009-.127-.09.116.011c-.114-.071-.23-.082-.264-.047-.08-.105-.241-.191-.252-.271l.047.017c-.3-.193-.357-.5-.636-.6l.034,0-.166-.144.071,0-.325-.179.024-.021c-.174-.166-.473-.393-.716-.587l.045.019c-.282-.191-.219-.243-.424-.385l.028.009-.163-.151.056.011c-.166-.062-.284-.385-.249-.273-.088-.041-.23-.125-.277-.114-.181-.163-.015-.071-.107-.191-.125-.123-.189-.1-.338-.288l.026-.019c-.082-.075-.146-.11-.258-.217l.043.022c-.224-.133-.155-.29-.391-.335-.056-.095-.211-.224-.159-.26-.247-.2-.437-.355-.669-.568.043-.108-.049-.045-.133-.228l-.032.047c-.3-.327-.535-.8-.877-1.144l.032-.047-.112-.032c-.318-.419-.725-.961-.991-1.284a1.674,1.674,0,0,1-.413-.391l.019.013a7.316,7.316,0,0,1-.727-.942c.034.006.024-.037.062-.009-.107-.043-.146-.191-.2-.264l.028.108a.417.417,0,0,1-.174-.3l-.159-.114v-.041l-.043-.011.007-.125c-.037-.03-.187-.224-.288-.247.011-.028-.069-.183.015-.08l-.355-.576.037.1c-.039.041-.181-.11-.217-.211.114.09.073-.032.075-.105-.075-.06,0,.092-.049.069a1.058,1.058,0,0,1-.26-.335l.058.045c-.105-.118-.06-.234-.142-.363-.108-.1-.125-.206-.191-.131-.118-.163.017-.1-.009-.161a.6.6,0,0,1-.181-.37c-.176-.024-.23-.49-.353-.469l-.026-.174c-.03.011-.11.017-.187-.092-.03-.127.034-.129.045-.176l-.142-.019c-.215-.707-.755-1.507-.965-2.283a8.815,8.815,0,0,1-.546-1.086l.03.036-.118-.4.058.3a1.445,1.445,0,0,1-.12-.217,8.915,8.915,0,0,0-.522-1.524c-.239-.3.039-.267-.159-.561l.062.049a9.139,9.139,0,0,0-.432-.856c.142,0-.079-.23,0-.217l-.06-.015c.011-.088-.028-.282.017-.265l-.108-.14.049-.028c-.052-.211-.217-.651-.138-.789a9.392,9.392,0,0,1-.492-2,1.246,1.246,0,0,1-.142-.428l.039-.174c-.045-.151-.155-.3-.135-.454l.019.015a1.5,1.5,0,0,0-.112-.449c-.024-.174-.017-.346.052-.3-.112,0-.043-.368-.043-.368s-.052-.559-.131-1.432c-.049-.434-.071-.952-.1-1.516a11.744,11.744,0,0,0-.153-1.8,57.82,57.82,0,0,1-.565-6.506,1.945,1.945,0,0,0-.006-.2c0-.144,0-.166.006-.267-.006.219,0-.069-.008.146l.008-.138c0,.056,0,.054-.008.153v.039c-.007.092-.011.146-.015.211,0,.105.006.172-.011.421l0-.069c-.009.2-.015.123-.019.166l0-.045-.017.17c.013-.129.015-.344.009-.23-.021.241.006-.062,0,.118-.007.112-.013.08-.017.075l-.015.2c-.009-.009.011-.133,0-.052l-.011.254c-.03.045-.006.277-.045.391.009-.183-.013.015-.019-.015-.015.148-.026.3-.032.447-.009.043,0-.118-.006-.052a.891.891,0,0,0,0,.185l-.049.32c-.043.3.032.131,0,.413-.024.037.009-.226-.022-.1l-.013.295a.284.284,0,0,1-.019-.17,18.009,18.009,0,0,0-.284,1.952c-.047.1-.021-.075-.043-.148a8.09,8.09,0,0,1-.185,1.2l.039.009a13.182,13.182,0,0,0-.178,2.118l.028-.088a2.255,2.255,0,0,1,.105.37c-.021.019-.112-.08-.071.127.013-.043.022-.133.049-.107a11.647,11.647,0,0,0,0,1.32c.036.529.1,1.105.127,1.615.088.682.217,1.387.307,2.1.11.705.26,1.4.411,2.064-.047-.2.086-.142.09.017-.086.458.222.7.2,1.159a11.712,11.712,0,0,0,.688,2.12l-.05.032c.011.112.056.129.1.237l-.015,0c.058.269.243.553.269.71l.062-.013c.062.148-.015.095.077.237l-.032.006.125.159c-.11.022.155.428.155.568.088.191.288.538.4.832a3.091,3.091,0,0,0,.206.671c.108.217.226.486.37.759s.295.563.426.843l.058-.043.077.14-.03.011c-.015.148.191.318.206.456.019-.1-.043-.105-.084-.187-.03-.133.088-.054.138.12l-.015,0,.088.09c-.043.039-.015.148-.058.189.277.452.544.714.8,1.2-.082-.015.211.329.064.292.2.26.047-.092.189,0,.045.08.118.146.092.183-.045-.024-.017.1-.064.041l.127.178-.054-.026c.3.338.376.7.649,1,.049,0-.077-.138-.03-.135.288.29.138.335.391.617l-.088-.034a.605.605,0,0,1,.247.282c-.03.065-.146-.1-.221-.168.073.116.3.38.28.264a.657.657,0,0,1,.142.282c.015-.007-.056-.148.024-.088a7.451,7.451,0,0,0,.467.7l-.043.024c.215.127.088.194.282.426" transform="translate(-265.08 -232.265)" fill="#d10d16"></path><path id="Path_93669" data-name="Path 93669" d="M467.008,167.131c-.189-.09-.409-.2-.628-.3s-.449-.181-.636-.277a.844.844,0,0,1-.355-.082l.019-.077-.112-.024c-.032-.041.084.022.024-.039l-.058.026c0-.03-.251-.135-.06-.11l-.393-.181c-.086-.041-.075.037-.166-.024l.043-.028c-.269-.183-.4.009-.66-.129h.028c-.054,0-.144-.032-.148-.024.009.086.065-.021.133.052-.03.058-.118,0-.131.043-.056-.045-.108-.024-.166-.041-.082-.073-.23-.1-.284-.172a.455.455,0,0,1-.23.011c-.056-.075.032-.041-.058-.095l-.028.03c-.08-.034-.062-.041-.054-.056-.086-.032-.088.024-.189-.039l.073-.013a.937.937,0,0,1-.226-.077l.084.015c-.043-.077-.112-.015-.142-.032,0,.019.08.056.03.077-.052-.028-.133.009-.161-.045l.073-.017c-.127,0-.077.028-.209-.024l.013-.017c-.1.024-.2-.052-.325-.09l.028,0c-.056,0-.093.024-.12.013.067.041.043.047.039.084-.077-.088-.166.03-.312-.049l.09,0c.071-.047.092-.1.2-.1-.062,0-.135-.013-.114-.034l-.034.054-.09-.028c-.026.032.056.08-.034.082s-.032-.073-.056-.052c-.135-.013-.071.047-.189-.006l.049,0c-.082-.047-.221-.049-.228-.127l.058-.017,0,.011c.112-.024-.086-.009-.039-.064,0,.039-.127,0-.181-.026l.006.047c-.219.077.032-.084-.157-.118-.125,0,.041.024-.039.034-.077-.03-.1-.075-.219-.09-.028-.026-.09-.06-.086-.112-.077,0-.215-.067-.267-.026.114.065.135-.026.264.065l-.052.039a2.072,2.072,0,0,1-.3-.054l0,.034c-.146-.011-.2.03-.331-.013-.009-.047.071-.024.129-.015-.082-.054-.092-.022-.228-.062,0-.039.092.021.116-.013l-.155-.017,0-.009c-.034.06-.116-.028-.213-.028-.222-.045-.271.034-.4.062l-.019-.056c.049.039.043.015.067,0-.075-.009-.153-.1-.105-.114-.123,0,.037.043-.039.047l-.161-.037c.013.037.069.056-.019.065a1.468,1.468,0,0,1-.2-.037c.015-.013-.022-.056.047-.041a.153.153,0,0,0-.146,0c.1.043-.172.006-.1.069l-.1-.043.062-.006c-.022-.054-.086,0-.123,0l-.133-.052-.123-.039c-.049,0-.009.032-.024.047l-.163-.026.017-.116c-.065.017-.032.08-.127.064.06-.047-.118-.056-.032-.112a.51.51,0,0,0-.29-.06c-.058.037.088.037.077.08-.239-.015-.267.105-.439.062l.043.017a.336.336,0,0,0-.166.037c.034-.049-.108-.166-.288-.17-.017.026.095.06.062.1-.039,0-.08,0-.118,0l.021-.019c-.107.013-.191-.082-.228-.019l-.1-.086.041.037-.163.037a.261.261,0,0,1-.23-.041c.019.024.069.077-.028.082.006-.088-.2-.045-.194-.09l-.112,0,.009-.056c-.013.077-.155.065-.262.073.03-.1-.118,0-.163-.1-.024.071-.193.017-.215.077-.084,0-.073-.067-.092-.09l-.039.024a1.027,1.027,0,0,0-.29-.069l-.088.064-.032-.028c-.015.017-.086.026-.043.049l-.047,0c0,.069-.067.019-.159.049l0-.037c-.047,0-.026-.037-.052-.058.032.017-.17.125-.043.155.009.028-.065.049-.11.037l-.028-.06-.056.064c-.071.009-.1-.03-.159-.037.058,0,.131-.12-.021-.116a.587.587,0,0,0,.163-.056c-.032,0-.047-.009,0-.034-.12.019-.041.039-.159.047.006-.056-.028-.073-.131-.09l.078.041-.015.015.045.037-.157.037c.12.086-.209.069-.131.118l-.105-.009c.1-.043-.075-.062-.06-.1-.037.017.08.041.03.062a.255.255,0,0,1-.138-.047l.024-.011-.092-.024c-.015.028.09.045.006.06l-.105-.019c.039-.039.009-.088.08-.1-.06,0-.249.013-.172.062l-.071,0c.045.024.172.064.03.073v-.011l-.1.043-.045-.028-.049.026-.043-.043c-.107.011-.1.037-.11.054-.058.009-.082,0-.056-.037a1.082,1.082,0,0,1-.282-.011c-.107.032.024.011-.039.052-.1-.09-.363-.013-.54.011.054.082-.047.013-.075.092.037-.028-.174-.054-.019-.088l-.095.015c-.069-.043.155-.045.052-.1-.107.011-.17.108-.3.084.036-.062-.095.026-.069-.041l.095-.026-.024-.011c-.237,0-.062.075-.181.125-.142.017-.116-.039-.127-.067l-.131.022c.084-.043.163.026.127.067-.069-.064-.213.009-.247.039.209.058.142-.006.338.058.024-.024.015-.084.131-.067-.069.034.009.034.028.043l.112-.037c.034.026-.062.086.054.092l.015-.084c.047.009-.015.062.08.037-.049.047.022.067-.11.088.161.06.234-.054.355-.092l-.024.024.108-.032c.082.013-.06.041-.039.062l.129-.011,0,.006.077,0-.075.082.131-.067c-.013.028.114.039.019.067l.2-.026.019.054c.047-.013.047-.024-.009-.028.069.009.3-.118.267-.006a1.76,1.76,0,0,1,.4-.075c-.144.052.17.064.015.088.092.024.11-.037.181-.045.069.024.039.077-.032.1l.084-.026,0,.011.073-.032c.08.03.017.056.1.062l.017-.049.056.028c-.022-.022.026-.032.086-.037l0,.011.071-.011c-.071.03.065.011.032.045a.9.9,0,0,0,.172-.009l-.019-.034c.144-.03.006.049.123.052l-.006-.039c.168.064.284-.039.409,0-.071.009-.054.054-.052.043a1.663,1.663,0,0,0,.391-.054c.039.056.049.073.161.1.082,0,.095,0,.123-.037.08.026.23,0,.232.043.019-.032.071.011.116-.015l.009.017,0-.039c.138.095.241-.034.378.049l-.026.009.06-.011-.019.049.277.024-.054-.032c.058,0,.1-.037.166-.009-.116.052.092.009.107.054l-.06.011c.082,0,.082,0,.077-.039.108-.009.067.077.168.043l-.069-.006c-.019-.024.034-.052.08-.049l.007.028c.084-.011.209.017.245,0,.043.015.026.041,0,.049.181-.022.08.006.26-.006l0,.022.062-.019.082.058-.028-.032a.628.628,0,0,1,.163.013l-.03.03c.166,0,.183.077.344.052l-.028.017c.151-.032.1.071.254.028l0,.034.069-.013-.011.043.062-.058.034.049.028-.017c.06.092.168.043.254.116l-.009-.058c.258-.077.548.12.843.135l-.013.043.129-.028c.058.047-.045.03-.028.056.131,0,.064-.054.215-.037.071.045-.032.026-.071.034a1.58,1.58,0,0,1,.447.067l.006-.015a2.233,2.233,0,0,1,.318.06l-.058.017.118.019-.047.03c.077.024.234.019.243.067-.006-.019,0-.049.073-.034.021.073.191.009.292.067l-.075.006a.268.268,0,0,0,.159,0l-.022.022.258.032c.019.075.237.056.208.1.088.026-.067-.049.047-.026.024.034.105.015.09.056l-.013,0,.08.019-.06.028c.069.011.131-.017.142-.049.058.041.155.047.172.092l-.026,0c.185.032.264.2.426.166l-.017.013.11.032-.037.024.2,0-.009.021c.12.037.307.09.462.142l-.026,0c.176.028.153.077.282.1l-.015,0,.11.039-.03.011c.1-.015.209.142.174.086.052,0,.14,0,.163-.019.12.041.019.037.086.082.086.032.114,0,.224.065l-.011.019c.056.015.095.013.172.039l-.026,0c.14,0,.129.116.262.062.045.036.148.058.127.1.159.041.282.082.436.133,0,.077.034.011.108.09l.009-.039c.213.092.413.288.649.378l-.011.039.065-.017c.243.125.553.29.737.406a.7.7,0,0,1,.279.1l-.013,0a2.75,2.75,0,0,1,.548.29l-.032.026c.067-.013.112.06.151.084l-.032-.052a.165.165,0,0,1,.142.112l.105.011.006.021.026-.009.019.069c.026,0,.144.054.2.032,0,.019.067.082,0,.052l.284.211-.037-.045c.015-.037.116,0,.153.047-.077-.013-.034.043-.026.084.052.009-.015-.052.017-.056a.4.4,0,0,1,.193.105l-.039-.006c.075.034.069.112.138.155.077.015.105.069.131,0,.095.047.009.06.032.084.058,0,.168.1.166.14.1-.049.213.187.279.131l.045.086a.1.1,0,0,1,.123-.015c.041.056,0,.08.009.108l.086-.041c.247.3.669.574.948.89a4.523,4.523,0,0,1,.522.363l-.026-.006a1.7,1.7,0,0,1,.146.159,1.455,1.455,0,0,0-.09-.133.364.364,0,0,1,.112.069,3.041,3.041,0,0,0,.587.606c.2.062.032.146.211.221l-.047,0a3.626,3.626,0,0,0,.43.267c-.082.049.095.086.045.107l.039-.015c.015.047.084.123.052.131l.095.028-.024.032c.073.086.26.247.243.346a5.074,5.074,0,0,1,.74.789.577.577,0,0,1,.185.151l.021.095c.065.052.172.077.2.157h-.015c.058.06.086.14.168.174.054.075.088.161.036.166.067-.041.11.161.11.161s.17.239.436.611l.469.641c.159.249.333.518.512.8a23.576,23.576,0,0,0,1.942,2.767c.052.017.127.1.146.043.054.067.011.131.054.127-.032-.112.105-.013.092-.133l.043.058c.032,0-.075-.071-.021-.077l-.073.015a.156.156,0,0,1-.009-.118c-.052-.034-.153-.021-.178-.153l.021.03c-.054-.09.009-.077.009-.1l.011.021-.011-.095c.011.071.116.142.084.092-.043-.12,0,.037-.054-.043-.032-.049.011-.054.03-.06l-.054-.092c.03-.013.032.062.041.009l-.095-.1c.062-.062-.105-.108-.065-.2.065.075.022-.021.052-.021l-.118-.2.032.013c0-.049-.054-.054-.065-.075.011-.03-.086-.153-.034-.174-.045-.159-.095-.024-.138-.17.019-.034.065.1.062.024l-.086-.129a.085.085,0,0,1,.084.054c-.168-.385-.105-.686-.363-.98,0-.067.043.019.088.037-.2-.206-.138-.376-.273-.574l-.03.015a6.56,6.56,0,0,0-.533-.976l0,.052a.726.726,0,0,1-.148-.135c.008-.017.082,0,.011-.086l0,.069a9.36,9.36,0,0,0-.834-1.294c-.234-.273-.434-.593-.682-.875s-.482-.572-.725-.828c.073.08-.017.1-.058.026-.047-.26-.273-.271-.357-.505a5.286,5.286,0,0,0-.856-.793l.021-.032c-.03-.052-.06-.043-.105-.082l.009-.006c-.092-.11-.245-.2-.292-.269l-.034.028c-.065-.056-.009-.056-.088-.1l.017-.015-.1-.039c.058-.052-.168-.17-.193-.241a3.03,3.03,0,0,1-.4-.282c0-.049-.157-.176-.247-.275-.2-.15-.492-.368-.735-.581l-.026.043-.067-.049.015-.017c-.017-.086-.159-.11-.194-.176.009.06.043.041.08.071.039.062-.041.06-.1-.017l.009-.009-.069-.015,0-.118a6.668,6.668,0,0,1-.656-.374c.049-.019-.176-.105-.086-.135-.159-.073-.011.067-.105.067l-.084-.067.03-.045-.1-.06.034,0c-.217-.095-.316-.273-.514-.353l.037.069c-.2-.071-.129-.144-.32-.209l.056-.013a.227.227,0,0,1-.185-.071c.006-.047.1.013.15.019-.062-.037-.226-.116-.2-.054-.082-.03-.09-.08-.125-.112-.006.009.056.065,0,.058a2.691,2.691,0,0,0-.37-.239l.019-.028c-.129,0-.071-.084-.215-.151" transform="translate(-405.444 -146.026)" fill="#e49800"></path><path id="Path_93670" data-name="Path 93670" d="M490.66,166.784l.045,0Z" transform="translate(-436.813 -148.027)" fill="#d10d16"></path></g></g></g></g><g id="Group_11730" data-name="Group 11730" transform="translate(15.131 20.583)"><path id="Path_93671" data-name="Path 93671" d="M286.688,182.91l-.008.052C286.7,182.92,286.7,182.91,286.688,182.91Z" transform="translate(-286.68 -181.607)" fill="#d10d16"></path><path id="Path_93672" data-name="Path 93672" d="M305.82,256.529l0,.046C305.828,256.535,305.826,256.527,305.82,256.529Z" transform="translate(-302.163 -241.16)" fill="#d10d16"></path><path id="Path_93673" data-name="Path 93673" d="M506.83,176.09l0,0Z" transform="translate(-464.769 -176.09)" fill="#d10d16"></path><path id="Path_93674" data-name="Path 93674" d="M513.443,214.311h.023l.055.008.044.038a.473.473,0,0,1,.052.094l.054.117h.216l-.067-.145a.527.527,0,0,0-.057-.1l-.053-.044.048-.031.04-.05.019-.086-.023-.092a.2.2,0,0,0-.076-.082.242.242,0,0,0-.136-.034h-.34v.663h.2v-.252Zm0-.277h.042a.2.2,0,0,1,.1.017l.031.065-.027.061a.236.236,0,0,1-.1.015h-.044v-.159Z" transform="translate(-469.954 -206.676)" fill="#d10d16"></path><path id="Path_93675" data-name="Path 93675" d="M511.818,213.526a.688.688,0,1,0-.688-.688A.687.687,0,0,0,511.818,213.526Zm0-1.215a.527.527,0,1,1-.529.527A.528.528,0,0,1,511.818,212.31Z" transform="translate(-468.247 -205.26)" fill="#d10d16"></path><path id="Path_93676" data-name="Path 93676" d="M536.988,333.48c-.115.233-.2.439-.248.554A2.767,2.767,0,0,0,536.988,333.48Z" transform="translate(-488.964 -303.41)" fill="#d10d16"></path><path id="Path_93677" data-name="Path 93677" d="M358.861,268.615a.905.905,0,0,0,.044-.235A.632.632,0,0,0,358.861,268.615Z" transform="translate(-345.067 -250.747)" fill="#d10d16"></path><path id="Path_93678" data-name="Path 93678" d="M388.782,360.02l-.042.046C388.75,360.1,388.763,360.094,388.782,360.02Z" transform="translate(-369.241 -324.879)" fill="#d10d16"></path><path id="Path_93679" data-name="Path 93679" d="M473.716,324l-.3.266C473.533,324.178,473.577,324.124,473.716,324Z" transform="translate(-437.742 -295.741)" fill="#d10d16"></path><path id="Path_93680" data-name="Path 93680" d="M544.91,204.272l-.01,0,.012,0Z" transform="translate(-495.565 -198.886)" fill="#d10d16"></path><path id="Path_93681" data-name="Path 93681" d="M538.509,403.833l0-.01a.211.211,0,0,1-.033,0A.078.078,0,0,0,538.509,403.833Z" transform="translate(-490.372 -360.311)" fill="#d10d16"></path><path id="Path_93682" data-name="Path 93682" d="M528.582,399.088a.248.248,0,0,1,.008-.038C528.58,399.05,528.578,399.065,528.582,399.088Z" transform="translate(-482.364 -356.452)" fill="#d10d16"></path><path id="Path_93683" data-name="Path 93683" d="M487.944,376.215c.086,0,.193.036.189-.042l-.283-.113C487.788,376.1,487.835,376.177,487.944,376.215Z" transform="translate(-449.393 -337.854)" fill="#d10d16"></path><path id="Path_93684" data-name="Path 93684" d="M418.745,286.3c-.052-.141-.233.033-.245-.094a1.024,1.024,0,0,0-.023.48A.577.577,0,0,1,418.745,286.3Z" transform="translate(-393.282 -265.171)" fill="#d10d16"></path><path id="Path_93685" data-name="Path 93685" d="M409.783,295.966l.036.006-.017-.023.365-.361-.008.042.057-.09a.919.919,0,0,1-.4.122c-.063.178-.046.243-.015.287Z" transform="translate(-386.258 -272.718)" fill="#d10d16"></path><path id="Path_93686" data-name="Path 93686" d="M416.4,290.2a.234.234,0,0,0,.118-.216,1.328,1.328,0,0,1-.159.212Z" transform="translate(-391.584 -268.221)" fill="#d10d16"></path><path id="Path_93687" data-name="Path 93687" d="M412.364,293.4a1.271,1.271,0,0,0,.2-.078C412.484,293.326,412.347,293.354,412.364,293.4Z" transform="translate(-388.35 -270.922)" fill="#d10d16"></path><path id="Path_93688" data-name="Path 93688" d="M408.926,297.252l-.09-.109.063-.162-.092-.16.019.321-.027.159Z" transform="translate(-385.468 -273.754)" fill="#d10d16"></path><path id="Path_93689" data-name="Path 93689" d="M402.917,303.151c-.031-.023-.092-.032-.078-.071l-.118.191A.339.339,0,0,1,402.917,303.151Z" transform="translate(-380.55 -278.818)" fill="#d10d16"></path><path id="Path_93690" data-name="Path 93690" d="M398.156,308.815c.086-.032-.113-.174-.034-.164C398.038,308.446,397.929,309.212,398.156,308.815Z" transform="translate(-376.748 -283.295)" fill="#d10d16"></path><path id="Path_93691" data-name="Path 93691" d="M345.095,316.483l.212.143a3.5,3.5,0,0,1-.025-1.028l-.008,0c.055-.2.017-.248-.048-.25l-.031-.172c-.057.073-.128.218-.216.208.053.027.17-.036.246-.036l.044.252c-.267.134.01.569-.111.837Z" transform="translate(-333.841 -288.606)" fill="#d10d16"></path><path id="Path_93692" data-name="Path 93692" d="M353.148,352.068c.015-.09-.208.01-.16-.053C352.769,351.986,353.379,352.466,353.148,352.068Z" transform="translate(-340.28 -318.402)" fill="#d10d16"></path><path id="Path_93693" data-name="Path 93693" d="M348.924,304.446l-.052-.516-.023.073Z" transform="translate(-336.972 -279.505)" fill="#d10d16"></path><path id="Path_93694" data-name="Path 93694" d="M350.54,292.743c.057.061.166.218.2-.015l-.029-.031a1.042,1.042,0,0,1,.168-.447,1.138,1.138,0,0,0-.317.3c.031.031.1.046.107.164-.029.111-.078.017-.132.032Z" transform="translate(-338.339 -270.057)" fill="#d10d16"></path><path id="Path_93695" data-name="Path 93695" d="M351.7,290.457l.055-.417-.2.151.086.017C351.527,290.42,351.646,290.407,351.7,290.457Z" transform="translate(-339.156 -268.269)" fill="#d10d16"></path><path id="Path_93696" data-name="Path 93696" d="M352.522,283.189l.086.019c.044-.147.011-.269-.075-.132C352.545,283.116,352.513,283.147,352.522,283.189Z" transform="translate(-339.941 -262.587)" fill="#d10d16"></path><path id="Path_93697" data-name="Path 93697" d="M355.66,274.028l.2,0-.117-.141Z" transform="translate(-342.481 -255.205)" fill="#d10d16"></path><path id="Path_93698" data-name="Path 93698" d="M358.069,268.12l-.139.243c.033.006.04.046.038.092C358.029,268.3,358.127,268.132,358.069,268.12Z" transform="translate(-344.317 -250.537)" fill="#d10d16"></path><path id="Path_93699" data-name="Path 93699" d="M357.9,270.09a.905.905,0,0,0,.04-.22A.431.431,0,0,0,357.9,270.09Z" transform="translate(-344.293 -251.953)" fill="#d10d16"></path><path id="Path_93700" data-name="Path 93700" d="M355.969,270.16l-.359.619.164-.162Z" transform="translate(-342.44 -252.187)" fill="#d10d16"></path><path id="Path_93701" data-name="Path 93701" d="M462.178,228.631c-.13-.092-.193.057-.289.2l.021-.023C462.039,229,462.11,228.816,462.178,228.631Z" transform="translate(-428.415 -218.57)" fill="#d10d16"></path><path id="Path_93702" data-name="Path 93702" d="M461.325,230a.528.528,0,0,1-.105.12C461.274,230.195,461.279,230.084,461.325,230Z" transform="translate(-427.873 -219.7)" fill="#d10d16"></path><path id="Path_93703" data-name="Path 93703" d="M542.566,287.651c-.008,0-.008-.008,0,0Z" transform="translate(-493.672 -266.333)" fill="#d10d16"></path><path id="Path_93704" data-name="Path 93704" d="M540.93,283.749v0c-.191-.187-.212-.1-.21.078l.222.162C540.966,283.909,540.857,283.716,540.93,283.749Z" transform="translate(-492.183 -263.092)" fill="#d10d16"></path><path id="Path_93705" data-name="Path 93705" d="M539.12,284.19l.111.082C539.238,284.238,539.225,284.2,539.12,284.19Z" transform="translate(-490.89 -263.537)" fill="#d10d16"></path><path id="Path_93706" data-name="Path 93706" d="M539.82,284.8c-.076-.061-.147-.124-.227-.182-.015.055-.084.109.1.088C539.612,284.735,539.706,284.735,539.82,284.8Z" transform="translate(-491.252 -263.885)" fill="#d10d16"></path><path id="Path_93707" data-name="Path 93707" d="M533.975,277.826c.063.029.13.054.189.086-.04-.1-.164-.256-.117-.332-.05.033-.036.178-.073.246l-.285-.118C533.875,277.888,533.942,277.886,533.975,277.826Z" transform="translate(-486.497 -258.19)" fill="#d10d16"></path><path id="Path_93708" data-name="Path 93708" d="M526.9,273.992a.781.781,0,0,1,.552.256c.168-.054-.1-.246.061-.256a1.072,1.072,0,0,0-.554-.01l-.019-.059a.567.567,0,0,0-.206.017c.078.017.149.034.216.044C526.931,273.986,526.913,273.988,526.9,273.992Z" transform="translate(-480.867 -255.228)" fill="#d10d16"></path><path id="Path_93709" data-name="Path 93709" d="M531.275,275.408a.31.31,0,0,0-.105-.267l.008.2Z" transform="translate(-484.458 -256.216)" fill="#d10d16"></path><path id="Path_93710" data-name="Path 93710" d="M530.14,275.45l.208.149v-.006Z" transform="translate(-483.625 -256.467)" fill="#d10d16"></path><path id="Path_93711" data-name="Path 93711" d="M514.211,271.422l-.031,0,.025.031Z" transform="translate(-470.715 -253.207)" fill="#d10d16"></path><path id="Path_93712" data-name="Path 93712" d="M523.017,272.64c-.019.017-.025.032.017.04a.324.324,0,0,0,.291.054,2.338,2.338,0,0,1-.308-.094c.04-.04.147-.1-.036-.164a1.165,1.165,0,0,1-.46-.046A5.019,5.019,0,0,0,523.017,272.64Z" transform="translate(-477.461 -254.024)" fill="#d10d16"></path><path id="Path_93713" data-name="Path 93713" d="M519.91,270.939a1.96,1.96,0,0,0,.214.136C520.067,271.012,519.941,270.9,519.91,270.939Z" transform="translate(-475.35 -252.812)" fill="#d10d16"></path><path id="Path_93714" data-name="Path 93714" d="M527.79,273.8l.021,0C527.788,273.753,527.784,273.772,527.79,273.8Z" transform="translate(-481.722 -255.109)" fill="#d10d16"></path><path id="Path_93715" data-name="Path 93715" d="M515.034,270.739a1.69,1.69,0,0,1-.417-.239c-.212.071-.254.126-.267.178a5.844,5.844,0,0,1,.6.048l-.044.019Z" transform="translate(-470.852 -252.462)" fill="#d10d16"></path><path id="Path_93716" data-name="Path 93716" d="M512.982,270.236l.065-.176a3.573,3.573,0,0,0-.277.258C512.841,270.291,512.909,270.259,512.982,270.236Z" transform="translate(-469.574 -252.106)" fill="#d10d16"></path><path id="Path_93717" data-name="Path 93717" d="M510.011,270.47a1.491,1.491,0,0,0-.151.115l.141.04Z" transform="translate(-467.22 -252.438)" fill="#d10d16"></path><path id="Path_93718" data-name="Path 93718" d="M498.8,273.523a.651.651,0,0,0-.164-.01A.92.92,0,0,0,498.8,273.523Z" transform="translate(-458.144 -254.899)" fill="#d10d16"></path><path id="Path_93719" data-name="Path 93719" d="M499.26,273.043l.107-.01C499.375,273,499.357,272.988,499.26,273.043Z" transform="translate(-458.645 -254.49)" fill="#d10d16"></path><path id="Path_93720" data-name="Path 93720" d="M497.831,273.439l-.034-.019-.157.057A.679.679,0,0,1,497.831,273.439Z" transform="translate(-457.335 -254.824)" fill="#d10d16"></path><path id="Path_93721" data-name="Path 93721" d="M503.48,271.541a.371.371,0,0,1,.245,0c-.013-.034-.059-.076-.023-.1Z" transform="translate(-462.059 -253.223)" fill="#d10d16"></path><path id="Path_93722" data-name="Path 93722" d="M496.053,273.617c.034-.22-.476.4-.059.161C496.087,273.792,495.99,273.569,496.053,273.617Z" transform="translate(-455.87 -254.945)" fill="#d10d16"></path><path id="Path_93723" data-name="Path 93723" d="M347.905,341.247a1.6,1.6,0,0,1-.076-.254c-.025,0-.04,0-.025.031a.234.234,0,0,0,.1.224Z" transform="translate(-336.121 -309.486)" fill="#d10d16"></path><path id="Path_93724" data-name="Path 93724" d="M348.36,342.33h0a.791.791,0,0,0,.088.17l.038-.044A.658.658,0,0,0,348.36,342.33Z" transform="translate(-336.576 -310.569)" fill="#d10d16"></path><path id="Path_93725" data-name="Path 93725" d="M347.127,335.638a1.918,1.918,0,0,1,.029-.264l-.008.013,0,0h0l-.021.008-.006-.01-.067-.01c.008-.147.038-.031.067.01l.025,0,0,0-.18-.468a1.651,1.651,0,0,0,.086.459l-.017.008A1.343,1.343,0,0,1,347.127,335.638Z" transform="translate(-335.45 -304.574)" fill="#d10d16"></path><path id="Path_93726" data-name="Path 93726" d="M384.837,238.7l-.692-.741a13.039,13.039,0,0,0-1.274-.89c-.4-.214.7.443,1.479,1.393a16.8,16.8,0,0,0-1.458-1.24,1.262,1.262,0,0,0-.311-.218,4.173,4.173,0,0,0-.558-.315c-.973-.606-1.693-1.444-1.431-1.1a8.87,8.87,0,0,0,.768.8c-.476-.3-1.19-.64-1.047-.665a3.281,3.281,0,0,1-.6-.195c-.222-.086-.483-.189-.749-.294-.088-.04-.122-.115-.181-.149a.155.155,0,0,0,.09-.151c-.071.071-.139.038-.168-.088a.741.741,0,0,0,.12-.076c.168-.18.352-.39.527-.594a4.575,4.575,0,0,1,.822-.843c.508-.822.195-.615.225-.854a10.06,10.06,0,0,0,.9-1.186c.308-.438.529-.8.531-.592-.134.241-.376.608-.548.9s-.3.5-.182.443a1.875,1.875,0,0,0,.38-.606,1.869,1.869,0,0,1,.235-.539c0,.074.38-.462.352-.29.224-.464.531-1.121.808-1.826-.235.543-.206.348-.151.109s.115-.541-.032-.22c-.067.371-.178.724-.275,1.087-.566,1.215-.21.212-.476.642a8.391,8.391,0,0,0,.491-1.217,4.948,4.948,0,0,0,.18-.762c.046-.222.067-.449.113-.749.027-.149.052-.319.071-.522s.065-.43.078-.707a9.165,9.165,0,0,0,.18-1.37c-.011.737.164.609.214.18-.029-.315-.065-.611-.071-.9q-.014-.232-.034-.47l.233.054a4.991,4.991,0,0,0-.285-.52,5.045,5.045,0,0,0-.405-1.456c.141.105.172-.053-.042-.352.021.115.055.243-.019.225-.021-.042-.042-.084-.065-.124.025.046.044.084.063.124a.316.316,0,0,1-.105-.063.822.822,0,0,0,.162.183c.124.279.113.365.071.334a2.524,2.524,0,0,1-.306-.382,5.361,5.361,0,0,0-.363-.516c.111.059.222.12.329.187-.118-.086-.245-.164-.371-.241-.149-.182-.271-.308-.353-.4a1.156,1.156,0,0,1-.218-.25.25.25,0,0,1,.17.008c-.055-.017-.118-.044-.18-.063.008-.046.017-.1-.313-.4l-.069-.046c.015-.04.029-.092.1-.076-.107-.042-.22-.075-.329-.109l.111.111c-.08-.053-.162-.105-.245-.153l.134.042-.08-.078-.063.031a5.854,5.854,0,0,0-1.949-.709.392.392,0,0,1,.2-.092c-.571-.076.185-.057-.206-.235a1.425,1.425,0,0,1,.323.027c-.1-.05-.195-.09-.287-.141l.011.013a4.245,4.245,0,0,0-.6,0c.122.038.275.04.554.084-.115.124-.352.155-.311.3-.254-.031-.495-.053-.724-.071a1.132,1.132,0,0,0-.206-.346c-.008.073-.013.117-.292.229.04.025.143.059.241.1-.287-.015-.562-.021-.833-.017-.224,0-.451.015-.678.034a.974.974,0,0,1,.592-.222c-.191-.206-.073.038-.365-.191.136.151-.088.183-.294.218s-.376.086-.182.218c-.306-.252-.439-.031-.82-.216.029.073.149.117-.138.149l-.042.082-.021,0,.017.006.006,0a.337.337,0,0,1,.17.08.2.2,0,0,1-.023.032c-.05.012-.1.017-.151.031a7.332,7.332,0,0,0-.911.279c-.09-.046-.132-.1.053-.21l-.336.1a.852.852,0,0,0-.65.143.211.211,0,0,0-.065.019c.08-.191.149-.359.218-.523l.017-.044c.029-.036.063-.08.1-.134l-.094.113c.185-.453.363-.917.732-1.909l-.216.315c.415-1.634.564-1.1,1.269-3.242.239-.749.43-1.339.493-1.658.174-.342.392-.78.56-1.164a12.233,12.233,0,0,1,.953-1.656,17.852,17.852,0,0,0-1.557,2.553,3.476,3.476,0,0,1,.52-1.12c.012-.05.023-.105.036-.164l.021-.092c0-.023.031-.105.046-.157.071-.233.149-.493.233-.768a2.179,2.179,0,0,0,.082-.749,1.5,1.5,0,0,0-.227-.726,1.739,1.739,0,0,0-.239-.279l-.126-.134-.166-.122c-.2-.176-.478-.29-.676-.455.227.149.5.245.7.394a2.413,2.413,0,0,1,.51.441,1.467,1.467,0,0,1,.285.59,1.886,1.886,0,0,1,.023.659,1.1,1.1,0,0,0,.073-.642,1.551,1.551,0,0,0-.2-.564,1.389,1.389,0,0,0-.195-.254,1.2,1.2,0,0,0-.256-.254,2.952,2.952,0,0,0-.344-.239c-.128-.073-.264-.141-.386-.222l-.187-.118-.094-.063c.6.22.974.449.715.262a10.044,10.044,0,0,0-1.4-.728,2.794,2.794,0,0,0-.892-.357,3.838,3.838,0,0,0-.629-.015l-.042.011-1.253-.117h0l-.3.084a.834.834,0,0,1,.151.779l0,0-.069.05c-.038.029-.088.069-.109.088-.055.05-.105.1-.141.136-.16.164-.277.308-.4.457-.214.275-.437.56-.65.831-.053-.08-.088-.168-.16-.2.168-.3.445-.29.592-.464l-.262.139a.561.561,0,0,1,.26-.376c-.283.031-.908.94-1.437,1.265-.019.126-.09.309.031.3l.105-.159c.241-.015-.067.418.151.3a1.252,1.252,0,0,1-.449.8l-.18-.017a.468.468,0,0,0,.235-.292c-.023.182-.606.187-.485.518l.29-.073c-.025.189-.361.426-.361.426a4.644,4.644,0,0,0-.441.367c-.222.157-.384.277-.439.317a.722.722,0,0,1,.031-.078.312.312,0,0,0-.08.023c.436-.617.239-.466-.027-.229-.191-.055.094-.5-.155-.632l-.124.285c-.036-.025-.015-.151-.1-.118.1.118.01.428-.281.5-.036.118.046.229.18.319v0l.036.023c-.034.019-.05.015-.036-.023-.308.434-.98,1.259-.6.915-.052.04-.1.088-.155.136a1.082,1.082,0,0,0-.306.136l-.023.006c.26-.638.541-1.045.332-.785a10.459,10.459,0,0,0-.816,1.4l-.055.231a1.115,1.115,0,0,0-.243.128.261.261,0,0,1,.052.124l-.05.038c-.015.011-.031.025-.046.038l-.025.021a1.076,1.076,0,0,0-.132.124c-.059.067-.042.183-.105.275a.047.047,0,0,1-.04.025c.011-.084.111-.841-.336.2l-.023.05c-.147.172-.269.325-.334.405.287-.535.539-.848.325-.623a10.408,10.408,0,0,0-.927,1.33l-.107.329c-.015-.015-.029-.032-.044-.048-.044-.04-.073-.078-.109-.117l-.078-.09-.053-.082a.864.864,0,0,1-.074-.153c-.08-.094-.143-.174-.266-.334a3.281,3.281,0,0,0-.22-.266c-.032-.034-.069-.065-.1-.1s-.044-.063-.069-.1a.247.247,0,0,0-.017.023l0,0,.017-.023a2.824,2.824,0,0,0-.478-.489,3.125,3.125,0,0,0-.7-.424c-.015-.006.008.013-.038-.011l-.18-.1-.134-.073-.12-.057-.113-.048-.1-.034,0,0-.287-.139c-.023-.01-.084-.038-.145-.059l-.094-.031c-.04-.011-.082-.023-.122-.033l-.031-.006-.1-.017a1.544,1.544,0,0,0-.352,0,.966.966,0,0,0-.107.019c-.031-.015-.059-.032-.094-.048-.08-.038-.164-.076-.25-.109-.011-.027-.011-.025,0,0a2.3,2.3,0,0,0-.26-.084,1.793,1.793,0,0,0-.6-.067,1.038,1.038,0,0,0-.321.061l-.294.182-.63.394a2.251,2.251,0,0,0-.625.512c.069-.046.109-.063.09-.019a1.25,1.25,0,0,1-.094.17c-.092.143-.25.357-.394.567-.292.424-.529.789-.29.588a1.963,1.963,0,0,1,.671-.736c-.783,1,.01.233-.405.778a6.948,6.948,0,0,1-.575.676c-.082.075-.09.061-.1.044s-.008-.036-.08.021c-.036.025-.09.075-.17.138a1.944,1.944,0,0,1-.264.193l-.025.013.017-.027.031-.067c.032-.042.069-.09.107-.141.082-.113.172-.246.277-.417.208-.332.5-.843.871-1.347a2.633,2.633,0,0,0-.483.556,5.112,5.112,0,0,1-.537.642c.308-.235-.182.439.132.13-.09.117-.176.225-.266.321l-.2.21a.433.433,0,0,1-.642.01,6.179,6.179,0,0,1-.392-.48,4.16,4.16,0,0,0-.606-.636q-.6-.567-1.194-1.154a3.234,3.234,0,0,1,.688.518l.571.5c.1.09.206.18.308.271a1.782,1.782,0,0,1,.157.145l.155.193c.527.669.43.5.522.541.061,0,.088-.052.113-.128l-.078-.027-.145-.155c-.076-.09-.149-.172-.218-.254a9.477,9.477,0,0,0-.95-.927,9.685,9.685,0,0,0-.738-.772l-.5-.468a.355.355,0,0,0-.092-.036.089.089,0,0,0,.023-.019,1.772,1.772,0,0,0-2.26.457l-.254.317a1.231,1.231,0,0,1,.495.85l-.027.038a.993.993,0,0,0-.151.31c-.036-.021-.063-.05-.053-.017a.938.938,0,0,0-.084.367c-.029.069-.055.139-.084.208l.084-.172a.824.824,0,0,0,.027.176q-.138.341-.287.705c-.011.029-.025.057-.036.084-.105-.05-.185-.149-.279-.147.032-.344.292-.445.357-.663l-.183.233a.558.558,0,0,1,.088-.449c-.246.141-.455,1.225-.812,1.735.032.122.042.319.149.264l.033-.187c.164-.084.139.2.185.248l-.1.321c-.042.086-.057.105-.067.1-.038.141-.1.327-.182.539a.265.265,0,0,0-.044.118c-.115.306-.258.665-.405,1.043-.04-.136-.088-.281-.233-.292l0,.31c-.044-.01-.074-.132-.139-.067.139.067.18.388-.055.571a.232.232,0,0,0,.16.183c-.071.189-.14.38-.2.569a.267.267,0,0,1-.073-.023.118.118,0,0,0,.044.1c-.055.16-.107.321-.153.476.046.015.126-.178.218-.451.036,0,.063-.008.046-.01a.053.053,0,0,0-.019-.067c.059-.176.122-.378.187-.579a.83.83,0,0,0,.191.032c-.292.911-.529,1.807-.867,3.011l.2-.566c-.046.327-.143.707-.246,1.131-.033-.168-.052-.407-.256-.2.071.124.187.023.254.212-.084.346-.174.718-.243,1.118l-.006.023c-.012-.141-.073-.164-.13-.073.023-.334.038-.623-.067-.2a7.036,7.036,0,0,1,.2-1.141,1.9,1.9,0,0,0,.126-.787c-.143.319-.306.632-.432.965-.048.443-.168.888-.254,1.316-.048.212-.094.418-.138.608s-.053.373-.065.531c.052-.222.09-.445.153-.661.1.145-.052.755-.105,1.07l.239-.43c.038-.271.063-.52.086-.751h0v0a5.265,5.265,0,0,1,.288-1.536,7.23,7.23,0,0,0-.164,1.46l-.017-.046.013.115v.015c0,.05-.006.1-.008.155v.008c-.006.141-.011.3-.017.5-.006.233-.04.522-.055.911a.435.435,0,0,1-.05,0c0-.13,0-.279-.008-.374a2.809,2.809,0,0,0-.034.363.076.076,0,0,1-.033-.042l.029.162c0,.061,0,.126,0,.189l-.011.032.013.01c0,.136.008.273.01.418,0,.208.034.432.046.673s.011.5.034.787c-.1-.646-.2-1.72-.277-.867l.09.317-.027-.021c.017.033.034.069.05.105l.038.138c-.057-.008-.145-.025-.1.113a.5.5,0,0,1,.124.166c0,.266-.05.149-.034.331.01.1.017.17.027.22a.143.143,0,0,0-.067-.019l.073.508-.029-.031.038.1a.815.815,0,0,1,.118-.348,3.737,3.737,0,0,1,.1.566c0,.053.006.124.01.195v.011c.01.164.015.315-.029.2.027.155.052.279.076.386a.931.931,0,0,1-.113-.29,2,2,0,0,0,.031.443c.036.008.094.029.118,0a3.5,3.5,0,0,0,.143.432c.031.071.059.139.111.264.011.031.025.067.038.105l.015.107s.031.067.078.155c.01.029.019.057.031.088.042.088.086.185.147.289-.052-.094-.088-.187-.126-.271a.127.127,0,0,1,0-.013,2.294,2.294,0,0,0,.18.285c-.006.013-.01.027-.015.042a.323.323,0,0,0,.034-.021c.042.05.078.078.107.071,0,.019.008.042.013.069h0l.082.036v.019l0-.017,0-.006a.379.379,0,0,1,.044-.117c.025.048.052.1.074.143-.029.061-.053.124,0,.172.01.162.143.109.088.216l.176.245c-.16.071.027.485-.178.159l.09.323a.838.838,0,0,0,.124.625c.01.162.3.325.13.233l.256.47-.04.017c.128.5.585.936.455,1.593.092.153.47-.053.508.239l.52.059a3.028,3.028,0,0,0,1.689-.283l.021,0,.825-.239c-.627.4-1.16.588-.82.5a10.493,10.493,0,0,0,1.484-.653l.346-.3c-.386.445-.783.711-.55.577a7.53,7.53,0,0,0,.908-.726l.4-.575a1.078,1.078,0,0,0,0-.134.858.858,0,0,0,.038-.195,3.2,3.2,0,0,0,0-.615c.09.183.155.384.243.313-.01-.061-.052-.476-.14-.911-.023-.191-.046-.386-.065-.55l-.021-.235c0,.08-.046.006-.069.01s-.017.023-.011.094.019.147.08.491a5.135,5.135,0,0,1-.212-1.1,2.721,2.721,0,0,0-.134-.812,3.046,3.046,0,0,0,.008-.988c-.017-.277-.034-.581-.052-.869-.023-.3-.046-.592-.065-.825-.153.063-.069.481,0,.946.063.439.128.892,0,1.036-.044-.283-.073-.661-.109-1.133s-.115-1.018-.2-1.542c0-.006,0-.011,0-.015a13.815,13.815,0,0,1-.17-1.473,6.223,6.223,0,0,1,.01-.682c.017-.25.034-.493.05-.722.134-.812.162-.789.182-.617,0,.011-.006.019-.006.019l-.025.94s.011.111.031.271c0,.01,0,.019,0,.029-.029.22-.048.407-.055.59a5.185,5.185,0,0,0,.113,1.322c-.033-.338-.073-.7-.078-1.068,0-.181,0-.365.015-.548,0-.076.013-.153.021-.229a9.892,9.892,0,0,0,.168,1.028,19.4,19.4,0,0,1-.038-2.019,3.488,3.488,0,0,0,.031-.548c.036-.416.063-.778.078-1.041.011-.073.023-.139.034-.206.011-.05.013-.057.023-.09a.228.228,0,0,1,.078-.122l.061-.061c.033-.036.065-.073.1-.109l.193-.21c.126-.132.248-.26.38-.4.264-.281.545-.619.955-1.152-.224.109-.224.057-.587.462a7.553,7.553,0,0,1,.973-1.127c.162-.268-.585.5-.153-.04.2-.183.627-.56.592-.43l-.078.082a4.172,4.172,0,0,1,.676-.583l.122-.078.057-.021a.731.731,0,0,0,.117-.021,3.688,3.688,0,0,0,1.16-.539c-.147.011-.438.21-.78.325-.132.019-.036-.075.18-.214.109-.069.246-.151.4-.239l.248-.141a3.183,3.183,0,0,0,.313-.2l.078-.059c-.012.034.027.021.078,0a.378.378,0,0,1,.078.05.913.913,0,0,0-.168.109c-.141.1-.266.172-.3.2a2.606,2.606,0,0,0,.315-.178,1.108,1.108,0,0,1,.191-.1l.011.01c.067.057.143.132.231.22l.145.145.117.115c-.353-.38-.386-.478-.319-.466a.5.5,0,0,1,.174.105c.069.055.195.176.245.227.145.181.294.384.422.569.065.094.124.185.18.271l.076.124.04.076c.09.185.1.294.013.281a.261.261,0,0,1,.153.145c.074.1-.021.206-.088.325l-.094.153c-.05.074-.1.151-.151.227l-.353.531c.608-.781.166-.036.034.222l-.453.525c.036-.105-.033-.153.021-.287-.3.384.017-.149-.271.023.059-.082.12-.168.183-.254a2.067,2.067,0,0,0,.29-.254.345.345,0,0,0-.042-.078c.073-.1.147-.195.22-.29a.734.734,0,0,0-.021.157.791.791,0,0,0,.084-.172l-.05,0c.055-.075.111-.147.164-.22a.64.64,0,0,0-.052.241,1.129,1.129,0,0,0,.052-.241l0,0s0,0,0,0v0c-.067.071-.132.139-.191.206-.009,0-.009,0-.006.008-.1.107-.181.21-.262.311a.19.19,0,0,0-.052.044.141.141,0,0,1-.01.031c-.092.12-.174.235-.252.348a1.536,1.536,0,0,1-.153.086l.015,0-.269.424a1.138,1.138,0,0,0,.22-.222c-.145.235-.275.462-.415.692a1.345,1.345,0,0,0-.2-.038c.044.052.09.094-.017.34a.213.213,0,0,0,.031-.006,6.338,6.338,0,0,1-.5.655c-.029,0-.053.025-.076.061-.031-.053.015-.206.355-.64-.118.113-.365.545-.705,1.022.071-.264.117-.609.363-.774-.269-.053-.031.073-.384.05.384.09-.56.583-.084.6-.39-.048-.371.2-.774.235.063.046.182.025-.027.191-.011-.029-.032-.032-.078.061l.078-.061.011.09-.017.01.017,0,.006,0a.306.306,0,0,1,.18-.017c.042.22-.248.523-.277.692-.134.09-.021-.109-.141-.1l-.042.25c-.141-.1-.5.109-.319-.231l-.233.239a.835.835,0,0,0-.478.42c-.134.09-.13.422-.136.229l-.277.457-.034-.027-.993,1.293a2.283,2.283,0,0,1-.5.495l.955.1a.186.186,0,0,0,0,.032.6.6,0,0,0,.031.141.763.763,0,0,0,.1.172l.063.088c.084.107.149.185.2.254l-.065.472a.111.111,0,0,1-.01-.021.864.864,0,0,1-.078-.357l0-.088,0-.021,0-.008-.306-.052,0,.027a1.193,1.193,0,0,0-.006.235c0,.006,0,.011,0,.015l-.126-.092a1.687,1.687,0,0,1-.264-.22c-.09-.1-.128-.105-.09.04a1.718,1.718,0,0,0,.2.275l.13.141.218.225.046.048.011.025c.033.057.052.088.08.13l.042.059.023.031.046.055c.061.073.1.117.151.17.084.088.168.172.25.254-.143-.136-.159-.139-.006.057a18.448,18.448,0,0,0,1.42,1.511,3.491,3.491,0,0,1,.361.724,4.084,4.084,0,0,0,.51.8,1.168,1.168,0,0,0,.344.3c.145.063.136-.061.109-.195.224.254.392.42.535.569.076.078.147.153.22.225.092.09.182.178.277.273l.01.008.283.2,0,0,.006,0,.01,0,.021.008.042.013.082.023.168.04c.117.006.233.013.348.015l.294,0c.4,0,.78,0,1.169-.008h.021c-1.039.306-2.193.162-1.733.248a10.544,10.544,0,0,0,1.62.053l.942-.25a1.076,1.076,0,0,0,.166-.22h0c.015.019.011.011,0,0,.023-.046.031-.086.01-.111l.023-.04c.034-.071.073-.136.105-.218a2.049,2.049,0,0,0,.063-.3l.023-.178.011-.1c.038-.019-.155-.019-.138-.031l.021-.031c.059-.078.118-.16.18-.243.6-.906.22-.627,0-.47.206-.325.411-.65.588-.988l-.113.138a18.1,18.1,0,0,1,.808-1.859c.061.021-.1.457-.055.43a8.079,8.079,0,0,0,.726-2.109c.055.013.073.5-.241,1.25-.042.076-.048.029-.094.1l-.212.65-.245.642c.592-1.469.963-2.329,1.1-2.247.378-1.532-.51,1.183-.033-.627.923-2.314.837-4.532,1.437-5.791.032-.6.067-1.255.107-2.008a2.573,2.573,0,0,0-.027-.544c-.021-.13-.042-.266-.063-.4a.819.819,0,0,1,.025-.382,1.479,1.479,0,0,1,.267-.434c-.1-.073.646-.951.424-.909a9.376,9.376,0,0,0-.739.942.975.975,0,0,0-.182.793,3.425,3.425,0,0,1,.09.915,6.248,6.248,0,0,1-.227,1.24c-.044.745.092.51.113.85a4.613,4.613,0,0,1-.279,1.347c.149-1.534-.225-.453.032-2.382-.134.231-.311,1.8-.453,2.488-.023-.212-.122-.015-.243.426,0-.046,0-.1,0-.153.189-1.165.367-2.453.546-3.9a5.228,5.228,0,0,0-.053-.852,1.4,1.4,0,0,1,.264-.93c.269-.371.651-.892.936-1.265.059-.078.126-.159.193-.241.1-.117.2-.237.283-.363.21-.3.554-.78.9-1.227l-.052.111c.088-.132.18-.262.269-.392s.191-.239.279-.344a9.039,9.039,0,0,1-.562,1.33c.22-.294.472-.615.737-.929.134-.157.269-.311.405-.447.166-.168.308-.329.447-.489.552-.64,1.03-1.23,1.313-1.611.308-.225.482-.289.449-.105.031-.048.063-.094.094-.139l.042-.063c.084-.118.166-.229.248-.332a19.172,19.172,0,0,1-.965,2.744c-.233.487.076-.451.128-.739-.178.2-.289,1.032-.478,1.185a4.826,4.826,0,0,1,.3-.986l-.705,1.916a.319.319,0,0,0-.015-.164c0-.011.01-.023.013-.034a.228.228,0,0,0-.013.032c-.09-.147-.48.587-.48.587l-.388,2.04s-.008.153-.017.4c-.166.4-.334.791-.466,1.064a1.147,1.147,0,0,1-.224.086l.061.187-.031.013.027.025c-.057.088-.088.1-.078,0-.128.476.034.185.094.2-.516,1.343-.373,1.567-.674,2.375l.338-.571c-.609,1.261.065.374-.472,1.49-.034-.231-.193-.206-.388-.063a1.585,1.585,0,0,1-.193.619c-.063.136-.128.281-.193.424a.8.8,0,0,0-.04.113.99.99,0,0,0-.034.3l0,.036h-.006V226.6l0,.011-.011.057c.036-.04.055-.023.065.031a1.733,1.733,0,0,1-.031.277c-.038.2-.057.355.124-.017a18.269,18.269,0,0,0-.787,2.638c.1-.3.036-.025.042.306a1.492,1.492,0,0,0,.073.382c.027.074.048.082.061-.044.01.149.019.294.029.43,0,.069.006.136.01.2l0,.1a.525.525,0,0,0,.019.12.54.54,0,0,0,.288.34.564.564,0,0,0,.195.055l.105-.019.05-.021.067-.031c.3-.147.436-.17.342-.019-.092.063-.18.124-.325.208l-.029.015a.554.554,0,0,1-.138.046l-.065.008-.021,0-.031,0a.839.839,0,0,1-.162-.036.774.774,0,0,1-.271-.16.813.813,0,0,1-.241-.434.258.258,0,0,0-.029-.094l-.031-.011a1.191,1.191,0,0,0,.034.216.8.8,0,0,0,.728.567l.036,0,.105-.015a.589.589,0,0,0,.115-.042l.027-.015c.067-.038.1-.067.147-.1l.231-.17c.3-.225.581-.455.867-.684.476-.3,1.02-.726,1.181-.676.426-.573,1.651-1.179,1.974-1.63a6.163,6.163,0,0,1-1.3.906l.246-.227c-.038.031-.082.061-.141.1.2-.252.4-.506.6-.755-.778.47-.042.212-1.041,1-.5.264-.073-.2.376-.64.122-.12.243-.235.348-.338.078-.05.172-.115.29-.2a17.328,17.328,0,0,1,1.937-1.015,8.7,8.7,0,0,0-1.059.34c.52-.357,1.057-.709,1.618-1.055-.1.115-.235.252-.141.29.275-.181.579-.386.8-.546.044.021.2-.046.6-.3a17.864,17.864,0,0,1,1.987-.911,7.65,7.65,0,0,0-.881.224l.122-.063c.241-.122.474-.224.646-.3a5.223,5.223,0,0,1,1.293-.2h.046a1.375,1.375,0,0,1,.621.153,2.535,2.535,0,0,0,.069.613,17.478,17.478,0,0,1,.073,2.186,12.842,12.842,0,0,0,.189-1.542l-.057-.648.132.422.078.434-.182,1.055a3.815,3.815,0,0,0-.073.417l-.013.082,0,.076c0,.029-.006.057-.01.088a7.539,7.539,0,0,1-.359,1.582c-.034.063-.071.128-.109.191-.149.241-.3.495-.464.757a5.725,5.725,0,0,0-.447.862c.225-.682-.879,1.3-.434.227a4.194,4.194,0,0,0-.445.69,1.893,1.893,0,0,1-.269.432.494.494,0,0,1-.512.052,3.756,3.756,0,0,1-.474-.225c-.063-.036-.2-.109-.3-.157s-.22-.1-.315-.147a1.374,1.374,0,0,1,.455.076,2.8,2.8,0,0,0-1.011-.224,1.988,1.988,0,0,0-.619.092l-.118.036-.059.019-.1.059a1.137,1.137,0,0,0-.313.315,2.244,2.244,0,0,0-.289.715l.168-.006c-.053.445-.178.541-.231.89.078-.256.283-.871.279-.527-.034.252-.055.476-.09.694-.019.109-.04.216-.069.319a1.456,1.456,0,0,1-.052.153c-.021.052-.065.136-.1.2-.036,0,.011-.128.042-.243.025-.1.055-.231.075-.348,0,0-.017.067-.05.155a1.664,1.664,0,0,1-.174.363.96.96,0,0,0-.122.252,1.818,1.818,0,0,0-.025.254,1.467,1.467,0,0,1-.025.3,1.211,1.211,0,0,1,.063-.879.991.991,0,0,0,.105-.31,1.33,1.33,0,0,0,.019-.26,1.85,1.85,0,0,1-.124.336l-.025.048-.042.073c-.029.048-.052.084-.069.115-.065.117-.067.1-.059.057s.034-.126.017-.138-.09.044-.206.294c.067-.065.061.023.071.208s.038.474.084.8c.025.164.046.344.09.518a1.311,1.311,0,0,0,.088.252.8.8,0,0,0,.067.092l.01.111-.033-.027c.01.015.023.029.034.044l.021.252a7.274,7.274,0,0,0-.562-1.009c-.277-.367.464.743.522,1.792.033.609.136.608.216.5.015.055.013.105-.053.124a.482.482,0,0,1,.321.034c.128.352-.308-.153-.264.2.1-.12.447.032.682.067.071-.237-.4-.308-.636-.342a1.1,1.1,0,0,1,1.2-.216c.392.151.038.273.122.273a.815.815,0,0,0,.564.189c.212.149.441.306.7.474-.069.107-.2.161-.224.262-.325-.113-.365-.388-.562-.5l.183.233a.558.558,0,0,1-.415-.189c.08.273,1.085.728,1.5,1.194.126,0,.321.034.292-.082l-.176-.076c-.057-.235.424-.006.266-.2l.078.01c.183.107.353.206.516.3a.159.159,0,0,0-.042-.006c.181-.01.29.564.594.388l-.055-.122c.08.038.159.073.237.1-.038.124.109.16.26.224l-.027-.017c.048-.046.061-.082.055-.111.034.01.067.021.1.029.42.189.43.252.506.336a.782.782,0,0,0,.231.168c.084.132.159.267,0,.269-.325-.113-.2-.193-.3-.348.015.235-.508.008-.6.285l.3.073c-.019.04-.145.042-.1.118.1-.118.418-.084.543.187.185.023.308-.214.355-.48.1.048.216.105.361.174-.1-.136.1-.055.367.092-.115.025-.214.046-.193.2.264.153.256,0,.449.033-.266-.139-.147-.111-.069-.126.008.006.017.01.025.015.367.212.755.491.829.413l.342.315a7.235,7.235,0,0,0-1.131-.348c-.455-.073.848.214,1.618.932a2.165,2.165,0,0,0,.327.266.326.326,0,0,0,.046.115.139.139,0,0,0,.088-.069c.031-.006.042-.032.042-.069a.127.127,0,0,1,.029-.027.618.618,0,0,0,.139.055c.195.05.126-.075.245-.078a1.548,1.548,0,0,1,.348.08c.094.029.2.057.34.092a.7.7,0,0,0,.243.011h0a.853.853,0,0,0,.183-.044c-.462.818.352.168.352.168l.415-.795c.023.017.023.084.01.162a1.187,1.187,0,0,0-.046.294c.008.025.033.027.082-.008a.786.786,0,0,0,.231-.26,5.629,5.629,0,0,0,.18-.7c.092-.195.18-.4.264-.608l.222-.6c-.006.027-.012.055-.019.1.029-.122.061-.256.1-.4.055-.2.113-.407.166-.594a4.228,4.228,0,0,1,.3-.852c.015.118-.243,1.051-.222,1.165.065-.355.241-.955.453-1.641l-.006-.006A1.884,1.884,0,0,0,384.837,238.7Zm-1.645-14.883-.025.038c-.008-.078-.017-.157-.025-.233A.474.474,0,0,1,383.192,223.821Zm-37.529,4.033c-.025.029-.034,0-.04-.067l.044-.113C345.664,227.732,345.662,227.793,345.662,227.854Zm.21-2.157c.046-.059.088-.09.118,0-.008.034-.015.063-.023.092-.019-.011-.034-.046-.042-.126-.038.157-.031.252,0,.29C345.844,226.234,345.853,226,345.872,225.7Zm5.149,11.446.348-.082.325-.071c.078.021-.1.08-.411.164l-.029.008c-.134.006-.258.011-.365.013C350.934,237.164,350.978,237.153,351.021,237.143Zm-1.974-21.712.044-.05a.093.093,0,0,1,0,.023l-.006.032-.019.031-.036.1-.017.048a.07.07,0,0,1-.063.011A2.026,2.026,0,0,1,349.048,215.432Zm-1.838,5.351c-.036.006-.065-.013-.08-.076.029-.294.111-.262.216-.329C347.3,220.514,347.254,220.649,347.21,220.783Zm.149-.441c-.069,0-.1-.082-.128-.18a.35.35,0,0,0,.015-.04c.082-.151.552-1.2.449-.716-.082.029-.086.16-.109.3l.009-.029a0,0,0,0,1,0,0C347.512,219.906,347.431,220.126,347.359,220.342Zm1.739,16.7a.493.493,0,0,1-.243.008c-.246-.134-.388-.256-.428-.216l.017.017a1.767,1.767,0,0,1-.394-.432c-.2-.371.151-.233.086-.287-.153-.684-.544-.68-.592-1.173,0,.008.01.015.013.023.046.078.09.157.134.233l.071.122c.031.052.063.1.1.153a5.345,5.345,0,0,1,.367.577c.055.1.13.233.222.378a2.531,2.531,0,0,0,.3.4,1.6,1.6,0,0,0,.371.185Zm2.7.279.034-.013c-.021.015-.042.031-.063.048A.4.4,0,0,0,351.8,237.321Zm6.46-17.936v-.011l0,.015Zm1.46-5.8-.04,0h-.01v.139c-.031-.011-.076-.029-.16-.055l-.088-.023-.046-.01a1.347,1.347,0,0,0-.191-.019c.006-.017.01-.032.011-.036l0,0-.031-.036c0-.006-.1-.053-.157-.088a.149.149,0,0,1,.031,0,1.406,1.406,0,0,1,.285.008l.09.015.025.006.1.027.1.032.036.015.061.031A.029.029,0,0,1,359.718,213.582Zm-5.873,17.006,0,0,0,0Zm4.639-7.155-.4.459c.189-.275.283-.422.317-.489A.156.156,0,0,0,358.484,223.433Zm-.543.3a3.185,3.185,0,0,1,.394-.684c.031.117,0,.248.05.323C358.259,223.481,357.856,223.953,357.942,223.737Zm-1.4,1.7.008,0c-.105.139-.218.279-.338.413A.85.85,0,0,1,356.539,225.437Zm-.346.457c.2-.161.451-.321-.019.334l-.008.008c0-.027-.025-.033-.082,0C356.119,226.127,356.149,226.01,356.193,225.894Zm-2.069,2.258c.22-.357.277.013.29-.071.567-.527.029-.871.64-1.181a.273.273,0,0,1,.289.117l-.071.067c-.474.543-.523.665-.543.77l-.015.082-.006.073a.257.257,0,0,1-.05.109,1.1,1.1,0,0,1-.2.157,1.946,1.946,0,0,1,.273-.1l.1-.071.05-.04.073-.067a.194.194,0,0,1-.038.105.752.752,0,0,1-.071.115c-.067.09-.17.122-.359.245l-.105.063c.015-.084.071-.182-.008-.191l-.162.258a.049.049,0,0,0,.023.025,3.218,3.218,0,0,0-.289.195A1.752,1.752,0,0,1,354.124,228.152Zm.516.25c.1-.078.181-.111.241-.212l.052-.065.08-.1c.059-.065.118-.134.185-.206.153-.071,0,.145-.2.394a.878.878,0,0,1-.13.151l-.182.117a3.678,3.678,0,0,0-.374.266c-.14.076-.258.141-.369.2,0-.027-.006-.052-.006-.078C354.21,228.708,354.424,228.555,354.64,228.4Zm-.674,2.344-.073-.1-.017-.025a.313.313,0,0,1-.027-.046l.256-.174c.008.019.011.038.019.055l.017.031.059.1c.122.181.245.342.443.587-.032.046-.149-.006-.31-.117a2.849,2.849,0,0,1-.279-.222Zm8.758-14.455s-.008-.006-.01-.01l.011-.008-.023,0c-.084-.08-.136-.13-.172-.168l-.048-.048-.059-.061-.187-.2-.18-.189-.111-.115-.115-.117-.118-.153a2.481,2.481,0,0,0-.323-.405,2.581,2.581,0,0,0-.373-.31,3.284,3.284,0,0,0-.374-.225l-.113-.082-.132-.092-.1-.061a1.393,1.393,0,0,0-.162-.08l0,0c.126.048.139.061.187.08l.109.05c.059.027.107.046.149.061.1.04.088.008.122,0a1.286,1.286,0,0,1,.287.08,2.121,2.121,0,0,1,.373.182,2.1,2.1,0,0,1,.441.361c.042.046.086.1.13.151l.18.208.036.042.04.05a1.93,1.93,0,0,1,.143.2c.04.065.074.118.1.16a.515.515,0,0,1,.067.134c.006.038-.05,0-.115-.053s-.139-.122-.149-.1a1.115,1.115,0,0,0,.212.373c.053,0,.109-.006.16-.01l.054.09c.057.063.109.126.17.187.038.036.073.073.107.111l-.05.151A1.888,1.888,0,0,0,362.724,216.291Zm1.572-1.626.08-.147a.1.1,0,0,1,.012-.015.085.085,0,0,1,.015.021Zm.493-.663-.044.057s-.008,0-.011,0c.021-.027.04-.05.055-.067C364.789,213.995,364.791,214,364.789,214Zm4.347-4.068.008-.017c.046-.1.111-.2.159-.289a.732.732,0,0,0,.052.075,4.793,4.793,0,0,1-.266.426A.478.478,0,0,1,369.136,209.935Zm-2.426,1.611c.153-.275.216-.187.355-.22-.12.107-.252.227-.344.3A.114.114,0,0,1,366.709,211.545Zm.1.222.031.011c-.01.038.015.031.046.015l.078.021-.522.611a.387.387,0,0,0-.015-.111C366.526,212.159,366.658,211.966,366.81,211.767Zm-.5.755a.184.184,0,0,1,0,.057l-.042.046A.4.4,0,0,1,366.31,212.522Zm-.12,14.089h-.017c.164-.015.434-.042.227-.023h0l-.01,0-.04.006A1.143,1.143,0,0,1,366.189,226.61Zm-.325,2.556c-.113.086-.222.038-.017-.644a9.873,9.873,0,0,1,.575-1.324,3.614,3.614,0,0,1-.334,1.146l.057.006C366.044,228.632,365.945,228.911,365.865,229.167Zm3.128.055-1.311,1.206c-.111-.006.266-.4.266-.4-.411.348-.757.6-1.055.816-.151.109-.29.206-.43.3-.069.046-.138.09-.208.132a.344.344,0,0,1-.117.052.368.368,0,0,1-.12-.027.343.343,0,0,1-.057-.033.4.4,0,0,0,.183.046c.088,0,1.4-1.041,1.469-1.1.317-.26.632-.52.875-.726.225-.189.457-.374.688-.56a2.5,2.5,0,0,1-.348.416Zm5.246-9.614c.086-.061.17-.124.258-.183a2.618,2.618,0,0,1,.271-.021,4.057,4.057,0,0,0-.491.306C374.158,219.719,374.225,219.661,374.239,219.608Zm-.168.1-.036.04a.233.233,0,0,0-.017-.029Zm-1.255.745c-.118.069-.212.13-.344.21l-.1.069c.021-.052.044-.1.063-.153.34-.168.361-.43.548-.573.1-.034.195-.065.294-.1.031,0,.061,0,.1,0a.273.273,0,0,1,.2.271c-.155.059-.338.136-.493.21C372.77,220.537,372.55,220.647,372.815,220.452Zm3.147,20.244c.017-.036-.027-.113-.092-.17l.122.067Z" transform="translate(-334.052 -200.544)" fill="#d10d16"></path><path id="Path_93727" data-name="Path 93727" d="M494.031,241.32a12.413,12.413,0,0,1-.575,1.823c-.189.432-.388.955-.525,1.33-.107.29-.178.493-.178.493a10.754,10.754,0,0,1-.543,1.376,6.429,6.429,0,0,0-.371.8,11.95,11.95,0,0,0,1.139-2.331A19.44,19.44,0,0,0,494.031,241.32Z" transform="translate(-452.643 -228.857)" fill="#d10d16"></path><path id="Path_93728" data-name="Path 93728" d="M491.466,271.76c-.031.046-.059.086-.086.122l.073-.088S491.458,271.781,491.466,271.76Z" transform="translate(-452.271 -253.482)" fill="#d10d16"></path></g></svg> 