<?xml version="1.0" encoding="UTF-8"?> <svg xmlns="http://www.w3.org/2000/svg" width="54.904" height="62.955" viewBox="0 0 54.904 62.955"><g id="Group_11854" data-name="Group 11854" transform="translate(-724.749 -1890.76)"><g id="Group_11754" data-name="Group 11754" transform="translate(-393.25 19.309)"><path id="np_tick_801900_FFFFFF" d="M15,2A13,13,0,1,0,28,15,13,13,0,0,0,15,2Zm6.689,9.858-7.637,7.665a1.38,1.38,0,0,1-.948.406,1.269,1.269,0,0,1-.948-.406L8.311,15.677a1.36,1.36,0,0,1,1.923-1.923l2.871,2.871,6.689-6.689a1.341,1.341,0,0,1,1.923,0,1.366,1.366,0,0,1-.029,1.922Z" transform="translate(1134 1889)" fill="#fff"></path></g><g id="BK_New_Logo-01" data-name="BK New Logo-01" transform="translate(484.533 1811.198)"><path id="Path_93660" data-name="Path 93660" d="M422.933,512.312l-.013-.012Z" transform="translate(-156.129 -369.795)" fill="#fff"></path><path id="Path_93661" data-name="Path 93661" d="M295.25,155l.074-.086c-.036.039-.058.065-.074.086" transform="translate(-47.029 -64.388)" fill="#fff"></path><path id="Path_93662" data-name="Path 93662" d="M550.076,436.9l-.016,0Z" transform="translate(-264.776 -305.362)" fill="#fff"></path><path id="Path_93663" data-name="Path 93663" d="M390.822,451.217c-.033-.01-.054-.013-.052,0,.045.01.057.009.052,0" transform="translate(-128.655 -317.589)" fill="#fff"></path><path id="Path_93664" data-name="Path 93664" d="M395.2,476.416l.013-.016Z" transform="translate(-132.441 -339.117)" fill="#fff"></path><path id="Path_93665" data-name="Path 93665" d="M374.67,466.97l.038.009Z" transform="translate(-114.897 -331.058)" fill="#fff"></path><g id="Group_11729" data-name="Group 11729" transform="translate(240.217 79.562)"><path id="Path_93666" data-name="Path 93666" d="M243.869,95.969a25.752,25.752,0,0,0-1.1,2.33c-.087.207-.189.406-.265.615s-.153.415-.227.617c-.151.4-.3.794-.445,1.153-.055.337-.17.815-.3,1.29l-.124.016-.084.4c-.081.151.071-.308-.055-.038l.022.169c-.048.019-.332,1.005-.211.321a7.412,7.412,0,0,0-.2.777l-.176.783c-.08.345.047.223-.065.6-.049.071.009-.141-.038-.119a3.269,3.269,0,0,0-.154,1.249,4.654,4.654,0,0,1-.079,1.2v-.093c0,.188-.052.537-.035.543.131-.127-.033-.2.081-.522.092.041-.009.416.067.4a2.362,2.362,0,0,0-.028.625c-.087.371-.083.916-.179,1.2a4.776,4.776,0,0,1,.086.793c-.074.282-.071-.07-.1.319l.057.064c-.007.317-.023.268-.049.256a4.5,4.5,0,0,1,.044.71l-.055-.237c.022.316.013.445.01.884-.032-.009-.031-.185-.022-.316a1.089,1.089,0,0,0,.035.538c.015-.038.031-.343.084-.2-.01.218.108.458.049.617l-.073-.234a2.907,2.907,0,0,1,.109.759c-.006-.028-.019-.013-.032-.023a6.707,6.707,0,0,1,.1,1.245l-.022-.09c.031.195.1.3.113.4-.012-.278.016-.205.067-.236-.035.374.192.538.23,1.135-.033,0-.093-.141-.086-.308a1.3,1.3,0,0,1-.308-.559c.057.223.112.486.063.435l.1.058c.02.137.036.244.051.346.064.049.047-.288.132.02.083.349-.06.2-.012.252.111.481.125.186.17.66a.735.735,0,0,1-.042-.176c.009.345.163.819.083.938a.252.252,0,0,1-.086-.176h.017c-.154-.352.087.3-.031.207.049-.038.14.435.176.649l.048-.081c.356.655-.138-.007.063.678.156.428-.026-.17.089.087a4.048,4.048,0,0,0,.189.848c.012.127.052.38-.012.422a5.119,5.119,0,0,1,.159.512,1.369,1.369,0,0,0,.179.413c-.1-.458-.223-.417-.291-.967l.112.125c.1.364.3.806.355,1.06,0-.054.006-.083.031-.055.2.5.319.618.49,1.108-.035.087-.135-.2-.223-.406a6.867,6.867,0,0,0,.294.822c-.042.047-.125-.329-.2-.364l.227.532-.01,0c.119.041.167.407.335.72a4.383,4.383,0,0,0,.787,1.2c.031.124.025.167-.019.131-.051-.2-.065-.156-.119-.209.128.25.191.593.086.471.236.384-.032-.166.124.063l.282.544c.009-.087-.083-.282.1-.02.137.23.186.349.362.65-.047-.032-.009.132-.138-.1a1.413,1.413,0,0,0,.292.448c-.154-.352.352.521.272.236.049.118.1.233.161.348-.045-.074-.079-.065-.138-.179-.006.131.185.253.262.361a3.839,3.839,0,0,1,.234.458,1.382,1.382,0,0,1,.231.412c.115.14.048-.015.1.015l.342.5c-.015.051-.079.157-.143.09.164.169.144,0,.343.287-.185-.115.228.406-.022.228a4.6,4.6,0,0,0,.63.892c.169.116-.183-.289-.116-.316.564.684.74.609,1.129,1.127-.032-.047-.065-.09-.1-.138a2.635,2.635,0,0,0,.452.393c-.128-.038.129.5.608.963.067.013-.2-.321-.08-.285l.311.311c.017.028-.026,0-.073-.032.292.265.431.607.582.617l.205.362-.079-.147a4.19,4.19,0,0,1,.468.364,2.687,2.687,0,0,1,.608.614c-.036-.077-.131-.263.14-.035-.09.095.522.534.476.57.112.09.282.284.329.255l-.07.047c.1-.068.489.284.825.5-.166.065.356.257.415.476.118-.031.6.391.708.358.255.173.175.234.22.307l.14.051a8.445,8.445,0,0,0,.854.671l.319.1.079.1c.057.007.294.131.169.017l.147.093c.064-.079.224.1.544.24.061.054.031.064-.041.038.148.089.06.095.124.172-.1-.079.63.148.244-.115-.009-.049.244.052.384.147l.048.128.224.013a4.544,4.544,0,0,1,.5.327c-.195-.1-.513-.074-.006.186a5.8,5.8,0,0,0-.57-.209c.1.06.151.095-.029.041.409.185.156.026.554.217-.058.061.042.138.378.332l-.234-.179.06,0c-.095-.055-.116-.08-.124-.118.079.039.5.134.55.209-.345-.305.737.25.513.058a.816.816,0,0,1,.352.166c-.362-.092.217.193.14.221.135.033-.241-.17-.06-.124a1.968,1.968,0,0,1,.433.263l-.09-.022.3.169c.067-.015-.275-.193.019-.089.068.048.369.14.348.166-.16,0-.086.1-.34.02.209.074.871.32.633.147l.246.1c-.144-.092-.553-.314-.055-.135l-.01.013.364.076c.045.032.09.064.137.093,0-.02.064-.02.192.025.026.033.144.084.124.111.375.124.358.074.415.068.211.065.284.108.172.119.281.115.8.239.98.342.4.079-.076-.039.167-.025a1.315,1.315,0,0,0,.335.167c.145.048.317.092.5.134.365.081.769.166,1.1.215-.15-.156.18.022.321-.063-.147.01.595.217.022.135l.348.058c.224.113-.582-.067-.243.1a3.047,3.047,0,0,0,.538.042,2.144,2.144,0,0,1,.585.064c-.169.061.359.028.23.1a1.627,1.627,0,0,1-.359-.028l.079.029c.857.161.265-.061.721-.049.525.055.4.116.431.161a2.089,2.089,0,0,0,.487.036c-.327.016-.588-.122-.432-.16a2.056,2.056,0,0,0,.924.076c-.736-.189-.519-.065-1.206-.257-.1.02-.1.112-.511.009.269,0-.01-.052-.083-.077.073.064-.294-.025-.425-.025-.109-.06.269-.076-.15-.164l-.1.1c-.163-.047.084-.071-.271-.108.2-.025-.041-.1.439-.044a4.363,4.363,0,0,0-1.324-.154c.047,0,.055-.013.1-.012a1.915,1.915,0,0,1-.4-.045c-.281-.093.24,0,.173-.054-.157-.028-.31-.07-.465-.1l-.01-.012a.582.582,0,0,1-.279-.071c.147,0,.211-.029.31-.036l-.5-.039c.063-.025-.383-.164-.031-.108-.241-.051-.48-.108-.717-.175l-.038-.095c-.173-.036-.183-.022.017.047-.236-.089-1.117-.177-.94-.3a14.9,14.9,0,0,1-1.434-.413c.529.124-.543-.311,0-.138a2.745,2.745,0,0,0-.646-.179c-.218-.121-.084-.154.175-.086l-.305-.079.012-.013c-.09-.017-.179-.042-.268-.063-.247-.154-.025-.1-.292-.227l-.087.039-.167-.118c.057.06-.111,0-.311-.077l.012-.013c-.083-.029-.164-.063-.244-.1.252.074-.209-.119-.08-.112-.2-.1-.205-.1-.575-.268l.042.076c-.495-.193.012-.074-.369-.266v.063c-.5-.378-.953-.438-1.313-.724.231.121.207.031.195.042-.345-.186-.895-.509-1.268-.676-.081-.15-.1-.189-.426-.445a.975.975,0,0,0-.406-.195c-.221-.195-.7-.473-.675-.529-.083,0-.211-.157-.361-.225l-.013-.041-.013.061c-.332-.42-.751-.467-1.081-.895l.079.047-.183-.124c-.012-.041.067,0,.1-.015-.257-.224-.527-.433-.774-.668l.122.166a3,3,0,0,1-.468-.387c.361.211-.25-.23-.256-.321l.177.131c-.225-.2-.225-.2-.246-.138-.3-.252-.119-.262-.419-.467l.18.18c.032.076-.132-.019-.253-.138-.023-.035-.092-.137.006-.051-.236-.2-.544-.54-.649-.625-.1-.132-.035-.121.038-.065-.486-.441-.2-.221-.682-.665l.031-.013-.177-.144-.161-.287.045.113a4.81,4.81,0,0,1-.4-.445l.1.045c-.416-.442-.384-.591-.8-.993-.017-.036.049.025.084.055-.394-.369-.179-.369-.576-.742.032.016.013-.042.036-.033l-.172-.177.063-.023-.2-.1c-.013-.052-.025-.106-.035-.16l-.079-.06c-.048-.285-.333-.534-.458-.877l-.033.095a16.9,16.9,0,0,1-1.59-2.7l.065-.013-.276-.359c-.068-.234.116.1.111.022-.252-.409-.175-.135-.435-.627-.086-.275.086.068.164.179-.127-.228-.285-.511-.42-.783a7.253,7.253,0,0,1-.3-.713h-.026a10.677,10.677,0,0,1-.449-1.1c.031,0,.07.084.111.172a1.949,1.949,0,0,0-.167-.412l.1.115a3.792,3.792,0,0,1-.287-.879c-.012.041-.063.044-.143-.2.041-.16-.249-.646-.317-1.052.036.039.128.324.1.243a1.876,1.876,0,0,0-.212-.528l.054.042c-.1-.3-.2-.6-.3-.9.051-.157-.218-.868-.134-.822-.068-.332.017.287-.084-.129.016-.119-.1-.375-.035-.369l.017.044c-.02-.1-.049-.193-.064-.292.029.058.064.116.1.173-.067-.249-.147-.426-.2-.429a4.862,4.862,0,0,1-.047-.705l.029.087a5.257,5.257,0,0,1-.076-.89,3.782,3.782,0,0,0-.028-.388,2.032,2.032,0,0,0-.065-.387c.006-.041.022-.038.028.047l-.029-.422.055.1-.128-.689.032.007c-.012-.23-.036-.525-.065-.835s-.016-.64-.026-.937l.016.089c-.052-.647.029-.625-.009-1.1l.015.051,0-.426.032.095a2.886,2.886,0,0,1,.076-.7,2.859,2.859,0,0,0-.068-.544c.031-.464.049-.111.1-.4a4.955,4.955,0,0,1,.051-.849l.031.013c.026-.211.022-.345.061-.64v.089c0-.489.18-.582.1-.98.055-.2.089-.582.157-.55.092-.595.175-1.057.281-1.649.124-.068.019-.128.161-.465l-.063.012c.119-.407.284-.835.448-1.27.08-.218.161-.439.241-.66s.177-.436.252-.657l.063,0,.009-.195c.2-.461.4-1,.63-1.5l.643-1.325c.042-.125.095-.284.154-.46a3.4,3.4,0,0,1,.273-.529l-.015.042c.164-.323.336-.656.518-.991.093-.166.188-.335.282-.5s.223-.323.339-.483c-.007.054.051,0,.015.08a2.086,2.086,0,0,1,.351-.528l-.145.143a1.444,1.444,0,0,1,.4-.529l.148-.332.055-.041.01-.07c.055-.038.109-.077.169-.111a3.589,3.589,0,0,0,.349-.62c.041-.012.26-.263.113-.052l.815-1.012-.144.143c-.061-.017.153-.349.316-.476-.144.227.047.068.154.012.1-.151-.141.081-.1-.007A3.649,3.649,0,0,1,249.41,91l-.073.113c.188-.239.353-.275.548-.5.145-.23.308-.348.2-.374.257-.289.153-.06.247-.141a2.069,2.069,0,0,1,.595-.522c.055-.249.785-.681.762-.823a2.924,2.924,0,0,1,.281-.16c-.013-.031-.012-.125.179-.3.211-.128.2-.048.279-.07l.049-.195c.291-.2.593-.422.9-.663.077-.06.156-.121.234-.183l.25-.17.508-.349,1.023-.7c.342-.225.7-.415,1.033-.6l.948-.605c.345-.2.705-.4,1.063-.58l-.071.052.726-.314-.541.2c.15-.087.26-.166.413-.237.4-.175.879-.34,1.369-.543.5-.18,1.012-.394,1.51-.589.609-.358.47-.039,1.072-.329-.051.029-.065.054-.109.081.666-.259,1.036-.372,1.709-.628-.048.15.454-.1.407-.02l.047-.067c.163,0,.529-.073.486-.022l.3-.125.038.051c.205-.035.527-.109.828-.156a2.08,2.08,0,0,1,.7-.023,18.715,18.715,0,0,1,3.949-.314,4.3,4.3,0,0,1,.861-.048l.316.081a4.446,4.446,0,0,1,.908-.023l-.033.016c.308-.006.6.057.887.023.336.035.657.1.548.154.022-.054.2-.033.371,0,.086.017.17.036.233.054l.1.033.739.119c.236.039.525.077.857.141l1.113.236a30.845,30.845,0,0,1,6.007,2.028,32.292,32.292,0,0,1,6.1,3.7c1.757,1.338,3.151,2.608,3.971,3.3.137.068.433.336.378.18.224.212.246.381.327.387-.256-.332.195,0-.031-.346l.189.185c.065.013-.276-.234-.179-.234l-.128.015a1.24,1.24,0,0,1-.221-.346,1.5,1.5,0,0,1-.633-.512l.095.093c-.266-.284-.113-.221-.159-.291l.06.063-.195-.268c.157.195.493.442.342.288-.3-.358.068.1-.185-.14-.157-.148-.076-.144-.045-.16l-.279-.272c.044-.025.182.183.1.038l-.385-.31c.019-.151-.417-.336-.5-.572.276.223.006-.054.073-.042l-.65-.576c-.049-.067.195.125.093.041-.1-.134-.22-.157-.284-.217-.033-.076-.483-.433-.417-.473-.423-.415-.259-.079-.655-.46-.025-.084.346.266.189.073l-.454-.346a.5.5,0,0,1,.3.151,17.6,17.6,0,0,0-2.95-2.422c-.138-.16.141.045.282.092a9.074,9.074,0,0,1-1.031-.666,5.865,5.865,0,0,0-.928-.623l-.036.035a11.09,11.09,0,0,0-1.753-.96l-.97-.431c-.332-.128-.662-.259-.983-.4l.144.09a6.553,6.553,0,0,1-.708-.189c-.026-.033.192-.047-.2-.15.074.042.231.111.176.116a17.055,17.055,0,0,0-2.429-.819c-.249-.067-.5-.14-.761-.2l-.784-.167-.775-.169-.752-.131a34.769,34.769,0,0,0-8.164-.269c.4-.045.239.09-.063.095a14.313,14.313,0,0,0-2.268.2,20.786,20.786,0,0,0-4.185,1.089l-.044-.045a2.627,2.627,0,0,0-.461.18v-.016c-.511.145-1.082.441-1.375.525l.006.067c-.289.119-.17.013-.452.175l0-.033-.32.205c-.006-.058-.209.028-.444.135a5.011,5.011,0,0,1-.612.285c-.362.186-1.018.589-1.568.864a8.849,8.849,0,0,0-1.206.609l-.646.417c-.23.154-.463.33-.708.5-.486.353-1.012.7-1.491,1.057l.061.044-.237.2c-.006-.016-.044,0-.012-.032-.237.089-.538.474-.764.593.163-.049.175-.131.313-.241.218-.135.074.074-.214.265l0-.016-.157.179c-.057-.026-.239.089-.3.063a7.1,7.1,0,0,0-.532.48c-.156.164-.3.323-.454.48-.3.316-.6.631-.993.986.019-.057-.124.068-.24.2s-.236.246-.2.129c-.4.5.134-.016,0,.252-.119.129-.221.288-.273.284.036-.08-.145.061-.057-.052l-.278.32c-.033.025.017-.055.044-.095a11.379,11.379,0,0,1-.794.881,8.211,8.211,0,0,0-.691.881c0,.07.2-.236.195-.166-.415.663-.48.5-.88,1.108l.048-.151a2.41,2.41,0,0,1-.377.62c-.092.019.138-.3.218-.476-.15.22-.509.788-.348.652a2.316,2.316,0,0,1-.381.474c.01.013.2-.224.122-.052a10.313,10.313,0,0,0-.9,1.357c-.012-.012-.051.007-.035-.036-.159.415-.262.3-.534.822" transform="translate(-240.217 -79.562)" fill="#fff"></path><path id="Path_93667" data-name="Path 93667" d="M293.824,150.009a27.806,27.806,0,0,0-.16,4.727c.076.307.095.758.163,1.207l-.07.055.063.375c-.006.156-.044-.288-.044-.013l.061.137c-.031.033.125.966-.025.345.07.487.143.975.246,1.456.063.321.1.175.153.531-.006.076-.044-.124-.063-.089a5.5,5.5,0,0,0,.32,1.114,5.806,5.806,0,0,1,.372,1.039l-.033-.079.115.292a1.24,1.24,0,0,0,.071.175c.032-.147-.1-.156-.151-.463.064.007.154.352.193.317a3.984,3.984,0,0,0,.205.54c.067.346.3.794.343,1.059.08.153.211.3.368.634.064.26-.07-.036.063.3l.058.036c.116.269.089.233.068.23.134.284.163.211.32.572l-.132-.179c.147.253.193.362.378.723-.025,0-.1-.143-.147-.252a1.214,1.214,0,0,0,.253.428c0-.038-.137-.284-.036-.183a2.989,2.989,0,0,1,.291.492l-.141-.172a3.538,3.538,0,0,1,.381.595l-.029-.01a9.488,9.488,0,0,1,.623.97l-.055-.067c.106.147.2.207.25.288-.131-.221-.081-.17-.065-.208.145.31.358.38.649.848-.022.006-.121-.087-.191-.224a1.487,1.487,0,0,1-.438-.362c.134.163.285.359.233.332l.086.019.186.265c.061.022-.1-.244.09-.02.215.252.06.176.112.2.3.343.167.109.423.464a.873.873,0,0,1-.111-.125,5.427,5.427,0,0,1,.5.708.286.286,0,0,1-.14-.112l.012,0c-.266-.23.2.209.081.169.013-.042.3.3.425.451l-.01-.076c.537.409-.095.038.368.506.313.279-.1-.122.1.042a6.787,6.787,0,0,0,.538.593c.065.1.225.269.207.319a8.577,8.577,0,0,0,.682.6c-.287-.323-.349-.256-.673-.644l.135.063c.257.233.586.529.765.692-.031-.038-.039-.061-.01-.049.391.3.525.364.889.676.022.074-.193-.106-.351-.237a4.517,4.517,0,0,0,.621.513c0,.045-.256-.2-.324-.2l.432.313,0,.006c.1-.007.316.257.6.425a5.031,5.031,0,0,0,1.168.618c.089.074.109.106.06.093-.145-.122-.129-.086-.193-.108.224.131.452.351.316.3.362.2-.109-.106.116.009.161.1.317.2.483.3-.042-.061-.212-.163.055-.042.221.111.321.173.6.33-.048-.009.065.092-.145-.026a1.786,1.786,0,0,0,.441.223c-.3-.186.531.233.319.068l.3.18a1.863,1.863,0,0,1-.193-.079c.068.087.265.113.378.163.106.065.4.205.415.228a1.529,1.529,0,0,1,.391.192c.157.057.025-.025.076-.02.173.074.343.154.518.223.017.036.035.122-.049.1.209.051.1-.048.4.067-.192-.016.385.186.112.151a4.324,4.324,0,0,0,.943.352c.185.015-.294-.118-.262-.153.785.23.861.147,1.434.316l-.147-.051a3.429,3.429,0,0,0,.543.087c-.057.012.036.074.22.151a4.7,4.7,0,0,0,.761.208c.055-.016-.324-.122-.218-.143l.4.077c.028.01-.017.01-.07.006a3.264,3.264,0,0,0,.768.15l.353.137-.14-.057c.054-.019.458.044.544.042a2.973,2.973,0,0,1,.788.119c-.07-.031-.243-.1.083-.071-.013.095.682.092.669.132.132.007.367.051.384.016l-.025.052c.017-.036.147-.045.319-.044l.569-.007c-.086.1.406,0,.57.095.07-.065.657-.045.721-.1a.431.431,0,0,1,.333.073l.131-.029c.145.025.681-.015,1-.017.1-.029.193-.052.289-.087l.112.013c.045-.022.288-.061.135-.065l.159-.017c0-.067.221-.047.535-.116.074,0,.058.019-.01.036.159-.02.1.023.186.032-.113,0,.547-.218.119-.172-.033-.022.209-.084.365-.1l.1.042.173-.095c.239-.052.351-.031.544-.07-.2.048-.419.212.095.095-.268.073-.4.127-.535.163.108-.017.163-.02,0,.033.4-.093.129-.054.527-.151-.01.057.1.048.457-.015l-.269.022.047-.025c-.1.017-.129.016-.156,0a3.218,3.218,0,0,1,.519-.154c-.416.016.678-.23.412-.22a1.025,1.025,0,0,1,.348-.09c-.316.131.262-.012.22.039.118-.049-.268.035-.109-.031a2.614,2.614,0,0,1,.46-.083l-.079.032c.1-.022.207-.039.307-.068.041-.041-.3.052-.032-.051a2.881,2.881,0,0,1,.343-.1c-.119.079-.009.093-.24.18.193-.07.809-.284.543-.247l.231-.077c-.153.028-.57.127-.111-.036v.012c.1-.049.207-.1.307-.148l.147-.029c-.009-.012.036-.042.153-.087.036,0,.148-.035.148-.012.339-.137.3-.151.339-.183.188-.079.263-.1.188-.032.262-.1.7-.314.886-.365.33-.177-.074.022.109-.1a2.756,2.756,0,0,0,.752-.317c.305-.161.637-.349.893-.513-.183.013.14-.092.2-.212-.1.089.532-.237.083.051l.278-.172c.215-.074-.449.3-.127.183.319-.183.473-.39.848-.6-.089.128.268-.2.212-.086a2.031,2.031,0,0,1-.268.2l.07-.032c.682-.426.157-.183.486-.447.393-.291.337-.189.377-.183a2.633,2.633,0,0,0,.358-.276c-.221.2-.467.3-.377.185a2.572,2.572,0,0,0,.679-.521c-.6.353-.393.281-.963.6-.061.07-.012.113-.355.307.189-.159-.032-.017-.1.012.081-.013-.22.16-.311.237-.106.036.153-.193-.185.01l-.02.108c-.137.074.026-.083-.243.109.129-.128-.077-.025.289-.278a6.546,6.546,0,0,0-1.02.689c.035-.026.033-.038.067-.063a2.453,2.453,0,0,1-.308.208c-.246.119.17-.14.1-.124-.125.077-.255.147-.385.214h-.013a.714.714,0,0,1-.239.121c.1-.083.138-.129.207-.189l-.385.262c.032-.047-.359.135-.076-.033-.2.106-.4.221-.607.314l-.076-.025c-.144.076-.144.087.036.013-.217.084-.9.515-.835.367-.481.239-.665.3-1.264.551.455-.207-.563.124-.07-.067a3.568,3.568,0,0,0-.57.239c-.224.051-.143-.032.084-.129l-.266.116v-.012c-.077.035-.153.076-.23.108-.265.045-.07-.036-.337.032l-.044.063-.188.025c.074,0-.08.055-.272.113V176.2l-.231.076c.225-.09-.217.047-.119-.017-.2.045-.207.047-.57.138l.071.017c-.471.138-.031-.042-.417.044l.032.031c-.57.052-.945.212-1.367.244.237-.045.17-.081.167-.068-.356.07-.944.131-1.312.22a1.356,1.356,0,0,0-.561-.051,1.1,1.1,0,0,0-.409.073,5.682,5.682,0,0,1-.794,0c-.063.033-.243,0-.393.032l-.032-.016.023.036c-.48-.089-.815.038-1.3-.051l.084,0h-.205c-.032-.019.052-.023.063-.044l-.944-.07.183.041a2.527,2.527,0,0,1-.561-.036c.383-.012-.313-.038-.368-.089l.2.009c-.276-.029-.276-.029-.257.012-.359-.031-.237-.092-.57-.108.079.013.156.029.233.039.067.032-.106.039-.263.01-.036-.012-.144-.047-.025-.032-.282-.032-.7-.121-.826-.127-.148-.039-.095-.057-.01-.051-.6-.093-.266-.064-.867-.159l.015-.019-.209-.019c-.095-.033-.185-.079-.278-.116l.1.054c-.193-.048-.317-.065-.54-.137l.1-.006c-.548-.124-.612-.22-1.133-.34-.033-.016.049,0,.092.007-.484-.108-.342-.154-.826-.272.032,0-.015-.031.007-.032l-.22-.06.031-.033-.195-.006-.115-.09-.09-.012c-.2-.153-.531-.24-.81-.423l.031.071a15.856,15.856,0,0,1-2.589-1.319l.036-.028-.38-.175c-.172-.145.132.039.084-.016-.39-.212-.191-.044-.637-.3-.2-.173.093.026.209.074-.215-.112-.461-.281-.7-.433a5.306,5.306,0,0,1-.583-.417l-.017.006c-.266-.183-.6-.448-.876-.672.02-.01.087.047.16.1a2.758,2.758,0,0,0-.319-.26l.125.058a5.652,5.652,0,0,1-.644-.566c.016.032-.022.054-.191-.111-.051-.137-.487-.417-.74-.7.044.02.249.207.192.153a3.831,3.831,0,0,0-.4-.345l.054.017-.64-.607c-.042-.138-.557-.617-.483-.6-.205-.239.153.217-.116-.077-.049-.1-.247-.262-.2-.276l.032.029c-.061-.07-.118-.143-.176-.214l.141.111c-.156-.182-.3-.292-.329-.282a6.176,6.176,0,0,1-.371-.537l.06.06a5.292,5.292,0,0,1-.452-.694,4.339,4.339,0,0,0-.407-.6c-.016-.035,0-.036.038.029l-.209-.33.077.061c-.128-.173-.265-.343-.388-.521l.022,0c-.205-.375-.559-.944-.806-1.437l.047.068a9.107,9.107,0,0,1-.449-.915l.028.038-.164-.359.055.071a3.3,3.3,0,0,1-.24-.611,3.829,3.829,0,0,0-.252-.438c-.16-.4-.017-.106-.092-.364-.1-.3-.153-.335-.273-.74h.023c-.071-.185-.118-.3-.2-.561l.033.076a7.082,7.082,0,0,0-.281-.87c-.028-.188-.127-.532-.08-.525-.084-.268-.145-.509-.2-.752s-.116-.483-.169-.756c.057-.1-.022-.118-.032-.457l-.033.031c-.134-.778-.112-1.687-.17-2.548l.036-.026c-.019-.057-.032-.115-.047-.172-.013-.932.049-2.135.122-2.874a5.982,5.982,0,0,1,.063-1v.041a13.934,13.934,0,0,1,.359-2.089c.006.048.032-.02.025.063a2.043,2.043,0,0,1,.134-.572l-.074.172a1.848,1.848,0,0,1,.182-.588l.045-.33.031-.054v-.061l.1-.153a4.87,4.87,0,0,0,.129-.647c.023-.026.134-.314.067-.084.14-.377.279-.755.428-1.127-.031.055-.058.112-.084.169-.048.007.068-.337.157-.5-.067.239.042.039.108-.047.044-.159-.086.119-.071.031a3.8,3.8,0,0,1,.276-.7l-.039.118c.108-.259.221-.349.336-.6.077-.237.182-.39.1-.372.156-.323.1-.1.164-.2a2.666,2.666,0,0,1,.362-.637c.013-.218.518-.813.486-.918.061-.077.129-.15.195-.224-.013-.019-.022-.093.1-.3.143-.176.144-.111.2-.154l.017-.17a24.644,24.644,0,0,1,2.895-3.332,16.458,16.458,0,0,1,1.584-1.479l-.057.061c.192-.151.381-.307.585-.444-.151.095-.3.2-.439.3a2.971,2.971,0,0,1,.329-.3c.66-.467,1.552-1.066,2.388-1.6.511-.4.4-.163.911-.506-.042.032-.054.052-.092.083.572-.333.877-.525,1.465-.842-.032.115.393-.183.358-.115l.035-.057c.141-.048.471-.159.433-.119l.255-.151.038.026a6.013,6.013,0,0,1,1.356-.439,16.663,16.663,0,0,1,3.568-.884,4.32,4.32,0,0,1,.785-.144l.3.009a3.719,3.719,0,0,1,.831-.116l-.029.015c.284-.026.554-.032.819-.079.313,0,.615.013.521.057.015-.038.18-.039.34-.031a2.646,2.646,0,0,1,.319.033l.694.026c.223,0,.493.023.8.054s.666.048,1.052.108a24,24,0,0,1,5.715,1.44,22.428,22.428,0,0,1,3.063,1.443,23.219,23.219,0,0,1,2.716,1.775,31.779,31.779,0,0,1,3.533,3.19c.111.08.358.352.3.215.188.214.217.355.281.375-.221-.317.151.036-.048-.288l.159.185c.052.023-.23-.241-.154-.224l-.1-.012a1.494,1.494,0,0,1-.195-.323,2.285,2.285,0,0,1-.535-.522l.084.089c-.24-.266-.113-.193-.154-.257l.052.06-.176-.25c.135.188.431.435.3.288-.272-.335.061.095-.159-.141-.135-.147-.071-.129-.049-.137l-.241-.268c.032-.013.157.179.084.048-.111-.1-.215-.214-.332-.311,0-.116-.377-.323-.468-.525.244.218,0-.041.054-.022-.186-.192-.383-.374-.585-.55-.048-.06.175.124.08.045a1.352,1.352,0,0,0-.257-.207c-.038-.063-.444-.4-.4-.425-.4-.371-.223-.092-.6-.436-.032-.068.319.249.164.08l-.417-.323a.607.607,0,0,1,.262.153c-.266-.24-.518-.432-.742-.624s-.429-.375-.646-.535-.426-.324-.656-.487a8.847,8.847,0,0,0-.78-.46c-.141-.127.128.044.256.089-.214-.109-.39-.209-.545-.305s-.3-.175-.435-.26a6.3,6.3,0,0,0-.9-.508l-.028.023a18.093,18.093,0,0,0-3.523-1.4l.141.063c-.179-.017-.455-.092-.662-.135-.028-.023.164-.026-.2-.112.073.029.221.084.172.087a16.592,16.592,0,0,0-2.3-.551c-.467-.084-.961-.14-1.45-.207-.49-.038-.975-.1-1.43-.119a24.673,24.673,0,0,0-7.482.823c.355-.1.224.016-.048.074a14.311,14.311,0,0,0-2.016.575,19.341,19.341,0,0,0-3.588,1.719l-.041-.02a3.258,3.258,0,0,0-.384.244v-.012c-.432.227-.9.593-1.137.735l.009.045a3.279,3.279,0,0,0-.375.241l-.006-.022c-.089.074-.17.159-.255.237-.017-.08-.655.484-.86.6-.275.255-.809.72-1.233,1.094a8.893,8.893,0,0,0-.938.819,29.594,29.594,0,0,0-2.09,2.419l.051.013-.166.234c-.006-.01-.033.017-.012-.02a8.871,8.871,0,0,0-.534.716c.115-.1.119-.161.215-.294.159-.176.061.031-.14.276l-.006-.012-.1.195c-.045,0-.167.154-.212.154-.127.2-.244.383-.349.563s-.195.359-.289.535c-.2.349-.372.713-.607,1.139,0-.054-.076.1-.153.246s-.14.281-.131.177c-.225.541.095-.061.028.2a1.439,1.439,0,0,1-.163.326c.016-.077-.1.1-.047-.022l-.16.356c-.02.032,0-.051.019-.092-.138.374-.282.7-.426,1.008a8.768,8.768,0,0,0-.358.967c.007.058.1-.263.111-.207-.2.691-.244.588-.416,1.236l.007-.143a3.3,3.3,0,0,1-.159.649c-.055.049.038-.3.074-.471-.076.233-.215.838-.131.665a2.938,2.938,0,0,1-.177.531c.009.007.1-.257.073-.087-.112.383-.252.983-.336,1.463-.01-.006-.032.025-.029-.019a8.43,8.43,0,0,1-.177.874" transform="translate(-285.862 -122.034)" fill="#fff"></path><path id="Path_93668" data-name="Path 93668" d="M277.071,294.251c.351.417.833.928,1.174,1.344a1.386,1.386,0,0,1,.359.3l-.044.064.113.09c.022.058-.083-.073-.036.023l.071.009c-.013.026.231.287.032.144.124.138.244.278.378.409.084.09.1.007.177.118,0,.035-.045-.025-.057,0,.246.332.435.236.675.529l-.029-.016c.06.032.143.122.153.115.017-.087-.077-.019-.127-.134.052-.038.125.079.154.038.047.079.112.087.17.137.068.119.227.227.265.33a.692.692,0,0,1,.26.125c.039.1-.049.019.038.125l.041-.013c.077.08.058.076.044.086.086.081.106.031.2.147L281,298.19a2.6,2.6,0,0,1,.237.2c-.016.015-.063-.026-.093-.061.028.095.125.074.156.108,0-.02-.076-.095-.012-.089.054.054.157.065.169.134l-.087-.026c.14.08.095.019.224.147l-.019.009c.119.038.205.167.333.281l-.031-.013c.061.035.111.033.137.058-.061-.079-.033-.07-.017-.1.06.129.192.073.336.225-.016.015-.071,0-.1-.048-.1.006-.137.044-.253-.017.07.041.148.092.116.1l.057-.031c.039.028.067.054.1.076.039-.017-.039-.106.064-.058s.016.087.048.079c.151.086.1-.006.215.109l-.057-.031c.08.09.239.169.224.246-.023,0-.039.016-.071-.016l.007-.007c-.135-.039.1.055.025.081.016-.036.144.073.2.124l.007-.049c.276.048-.061.061.147.2.143.073-.041-.047.055-.012a.9.9,0,0,0,.233.195c.026.039.086.108.064.151.09.038.227.182.3.173-.111-.125-.163-.051-.284-.209l.071-.009a3.683,3.683,0,0,1,.324.217l.006-.035a1.961,1.961,0,0,1,.377.2c0,.049-.087-.017-.154-.057.079.093.1.074.244.183-.013.038-.1-.067-.14-.049.057.036.118.067.176.1l0,.006c.058-.038.128.084.243.134a1.051,1.051,0,0,0,.495.145c.028.038.031.058.007.061-.047-.061-.047-.036-.077-.035.087.047.151.166.092.159.143.065-.031-.058.061-.025l.18.116c-.006-.041-.065-.087.041-.049a2.4,2.4,0,0,1,.228.125c-.023.006.01.061-.07.016a.267.267,0,0,0,.173.074c-.1-.09.205.08.143-.01l.1.089c-.026-.015-.039,0-.076-.025.01.061.1.041.145.058s.141.093.141.115c.044.009.129.067.134.1.06.022.019-.026.042-.031l.185.106c0,.029-.02.1-.054.1.084.015.063-.058.172,0-.087.016.128.106.007.118a.865.865,0,0,0,.333.186c.08-.007-.1-.073-.071-.108.285.121.353.022.548.14l-.048-.036a.557.557,0,0,0,.209.041c-.058.031.084.2.3.278.029-.017-.1-.1-.047-.121l.145.052-.032.009c.134.036.209.163.271.122l.1.127-.038-.052c.028-.016.173.036.207.039a.444.444,0,0,1,.268.143c-.017-.031-.061-.1.055-.063-.033.083.23.125.211.164.048.016.122.071.14.041l-.026.047c.038-.065.208,0,.343.036-.064.084.147.045.173.156.048-.055.241.064.284.016.1.033.071.092.089.122l.055-.009a1.656,1.656,0,0,0,.346.156l.127-.028.032.035c.022-.01.115.006.065-.029l.058.019c.023-.057.087.006.211.013.025.016.013.028-.015.029.058.016.025.038.051.065-.036-.026.24-.042.09-.111,0-.026.092-.016.145.01l.02.058.083-.031c.092.017.119.063.192.083-.076-.016-.192.049,0,.092a1.334,1.334,0,0,0-.217-.007c.039.012.058.022-.01.026.156.022.058-.013.211.013-.02.039.019.06.148.1l-.092-.048.022-.007c-.036-.012-.045-.02-.048-.038.031.006.189-.013.207.016-.134-.093.276.012.189-.044l.131.036c-.132,0,.083.063.057.081.049,0-.092-.048-.025-.047a.554.554,0,0,1,.163.067h-.033l.112.039c.023-.012-.1-.052,0-.038l.128.039c-.057.012-.026.048-.119.036.076.013.317.057.228.009l.09.019c-.054-.023-.205-.081-.025-.047l0,.006.131,0,.051.025c0-.007.022-.01.068,0l.048.032c.135.022.128.006.147,0,.076.012.1.022.064.031.1.02.285.048.353.071.141.013-.028-.01.057-.01a3.281,3.281,0,0,0,.684.119c-.058-.029.063,0,.108-.009-.051,0,.214.042.013.023l.122.013c.081.019-.2-.015-.08.013.138.012.23.006.39.029-.055,0,.125.012.083.016s-.079-.006-.124-.01l.028,0a1.343,1.343,0,0,0,.246.012c.182.022.143.02.153.023l.169.016c-.112-.009-.205-.023-.154-.02.08.013.271.031.32.038-.259-.035-.18-.02-.423-.06a1.024,1.024,0,0,1-.175-.017c.093.009-.006,0-.031-.01a1.221,1.221,0,0,1-.147-.016c-.039-.01.09,0-.058-.025l-.031.01c-.058-.01.026-.007-.1-.022.068,0-.017-.017.148.007a2.539,2.539,0,0,0-.461-.057h.033c-.033,0-.095-.009-.14-.015-.1-.025.083,0,.057-.009-.055-.007-.109-.02-.164-.031l0,0a.361.361,0,0,1-.1-.02c.051,0,.071,0,.1,0l-.175-.019c.02,0-.138-.047-.015-.026l-.253-.052-.017-.026c-.061-.01-.064-.006.007.013-.084-.026-.393-.044-.336-.081-.2-.026-.273-.045-.516-.09.189.022-.2-.093,0-.052-.109-.045-.141-.019-.231-.038-.08-.036-.035-.06.058-.045l-.109-.016,0-.006-.1-.007c-.093-.047-.012-.041-.111-.074l-.031.025-.063-.038c.022.022-.039.012-.113-.007l0-.007-.09-.019c.093,0-.079-.031-.032-.044-.076-.023-.077-.023-.215-.058l.017.031c-.185-.031,0-.038-.141-.083v.031c-.192-.116-.356-.089-.5-.172.089.022.079-.022.074-.013a2.7,2.7,0,0,0-.492-.121c-.034-.067-.039-.086-.17-.157-.1-.032-.118-.032-.16-.013-.089-.057-.281-.092-.273-.131-.033.022-.084-.036-.147-.031l-.006-.019,0,.039c-.144-.14-.307-.06-.454-.192h.033l-.079-.013.038-.038-.335-.129.057.051a.475.475,0,0,1-.2-.064c.153,0-.109-.048-.115-.1l.076.016c-.1-.038-.1-.038-.1,0-.131-.041-.06-.1-.191-.115l.081.036c.016.031-.055.033-.111.01-.012-.012-.044-.044,0-.029-.1-.029-.246-.109-.3-.113-.049-.033-.02-.051.012-.048-.225-.06-.093-.047-.319-.106l.012-.017-.083-.007-.083-.09.025.042a.879.879,0,0,1-.192-.086l.045-.013c-.2-.077-.2-.156-.4-.2l.039,0c-.191-.036-.1-.112-.3-.14l.013-.031-.086-.019.025-.035-.092.026-.028-.063-.039,0c-.045-.112-.185-.122-.266-.236l-.006.058c-.329-.055-.607-.4-.96-.543l.028-.033-.16-.039c-.055-.073.063,0,.051-.038-.156-.068-.092.017-.265-.074-.07-.077.047-.009.095,0a2.542,2.542,0,0,1-.508-.288l-.012.012a2.174,2.174,0,0,1-.353-.224c.013-.015.042,0,.073.017-.039-.029-.086-.079-.131-.084h.063c-.081-.064-.263-.15-.259-.2,0,.02-.022.044-.095-.007,0-.081-.217-.115-.314-.225l.087.036a.374.374,0,0,0-.183-.086l.031-.01c-.1-.052-.2-.106-.292-.166,0-.083-.256-.183-.209-.208-.093-.074.063.084-.063,0-.016-.047-.116-.073-.086-.1l.016.006-.086-.061.079.007c-.077-.048-.156-.055-.179-.032-.054-.071-.163-.129-.17-.183l.032.012c-.205-.131-.241-.336-.431-.4h.023l-.112-.1h.048l-.22-.121.016-.015c-.118-.112-.32-.266-.484-.4l.031.013c-.191-.129-.148-.164-.287-.26l.019.006-.111-.1.038.007c-.112-.042-.192-.26-.169-.185-.06-.028-.156-.084-.188-.077-.122-.111-.01-.048-.073-.129-.084-.083-.128-.068-.228-.195l.017-.013c-.055-.051-.1-.074-.175-.147l.029.015c-.151-.09-.1-.2-.265-.227-.038-.064-.143-.151-.108-.176-.167-.134-.3-.24-.452-.384.029-.073-.033-.031-.09-.154l-.022.032c-.2-.221-.362-.538-.593-.774l.022-.032-.076-.022c-.215-.284-.49-.65-.671-.868a1.132,1.132,0,0,1-.279-.265l.013.009a4.951,4.951,0,0,1-.492-.637c.023,0,.016-.025.042-.006-.073-.029-.1-.129-.134-.179l.019.073a.282.282,0,0,1-.118-.2l-.108-.077v-.028l-.029-.007,0-.084c-.025-.02-.127-.151-.195-.167.007-.019-.047-.124.01-.054l-.24-.39.025.068c-.026.028-.122-.074-.147-.143.077.061.049-.022.051-.071-.051-.041,0,.063-.033.047a.716.716,0,0,1-.176-.227l.039.031c-.071-.08-.041-.159-.1-.246-.073-.065-.084-.14-.129-.089-.08-.111.012-.068-.006-.109a.4.4,0,0,1-.122-.25c-.119-.016-.156-.332-.239-.317l-.017-.118c-.02.007-.074.012-.127-.063-.02-.086.023-.087.031-.119l-.1-.013c-.145-.479-.511-1.02-.653-1.545a5.962,5.962,0,0,1-.369-.735l.02.025-.08-.268.039.2a.979.979,0,0,1-.081-.147,6.032,6.032,0,0,0-.353-1.031c-.161-.2.026-.18-.108-.38l.042.033a6.177,6.177,0,0,0-.292-.579c.1,0-.054-.156,0-.147l-.041-.01c.007-.06-.019-.191.012-.179l-.073-.095.033-.019c-.035-.143-.147-.441-.093-.534a6.352,6.352,0,0,1-.333-1.356.842.842,0,0,1-.1-.289l.026-.118c-.031-.1-.1-.2-.092-.307l.013.01a1.015,1.015,0,0,0-.076-.3c-.016-.118-.012-.234.035-.205-.076,0-.029-.249-.029-.249s-.035-.378-.089-.969c-.033-.294-.048-.644-.067-1.025a7.944,7.944,0,0,0-.1-1.22,39.116,39.116,0,0,1-.383-4.4,1.316,1.316,0,0,0,0-.138c0-.1,0-.112,0-.18,0,.148,0-.047-.006.1l.006-.093c0,.038,0,.036-.006.1v.026c0,.063-.007.1-.01.143,0,.071,0,.116-.007.285v-.047c-.006.137-.01.083-.013.112v-.031l-.012.115c.009-.087.01-.233.006-.156-.015.163,0-.042,0,.08,0,.076-.009.054-.012.051l-.01.137c-.006-.006.007-.09,0-.035l-.007.172c-.02.031,0,.188-.031.265.006-.124-.009.01-.013-.01-.01.1-.017.2-.022.3-.006.029,0-.08,0-.035a.6.6,0,0,0,0,.125l-.033.217c-.029.205.022.089,0,.279-.016.025.006-.153-.015-.068l-.009.2a.192.192,0,0,1-.013-.115,12.172,12.172,0,0,0-.192,1.321c-.032.07-.015-.051-.029-.1a5.481,5.481,0,0,1-.125.812l.026.006a8.916,8.916,0,0,0-.121,1.433l.019-.06a1.528,1.528,0,0,1,.071.25c-.015.013-.076-.054-.048.086.009-.029.015-.09.033-.073a7.882,7.882,0,0,0,0,.893c.025.358.068.748.086,1.092.06.461.147.938.208,1.418s.176.95.278,1.4c-.032-.135.058-.1.061.012-.058.31.15.476.137.784a7.918,7.918,0,0,0,.465,1.434l-.033.022c.007.076.038.087.065.16h-.01c.039.182.164.374.182.48l.042-.009c.042.1-.01.064.052.16l-.022,0,.084.108c-.074.015.1.289.1.384.06.129.195.364.271.563a2.092,2.092,0,0,0,.14.454c.073.147.153.329.25.513s.2.381.288.57l.039-.029.052.095-.02.007c-.01.1.129.215.14.308.013-.07-.029-.071-.057-.127-.02-.09.06-.036.093.081l-.01,0,.06.061c-.029.026-.01.1-.039.128.188.305.368.483.538.809-.055-.01.143.223.044.2.135.176.032-.063.128,0,.031.054.08.1.063.124-.031-.016-.012.067-.044.028l.086.121-.036-.017c.2.228.255.471.439.673.033,0-.052-.093-.02-.092.195.2.093.227.265.417l-.06-.023a.41.41,0,0,1,.167.191c-.02.044-.1-.07-.15-.113.049.079.2.257.189.179a.445.445,0,0,1,.1.191c.01,0-.038-.1.016-.06a5.037,5.037,0,0,0,.316.473l-.029.016c.145.086.06.131.191.288" transform="translate(-267.283 -245.795)" fill="#fff"></path><path id="Path_93669" data-name="Path 93669" d="M461.733,166.192l-.425-.205c-.151-.063-.3-.122-.431-.188a.571.571,0,0,1-.24-.055l.013-.052-.076-.016c-.022-.028.057.015.016-.026l-.039.017c0-.02-.17-.092-.041-.074l-.266-.122c-.058-.028-.051.025-.112-.016l.029-.019c-.182-.124-.271.006-.447-.087h.019c-.036,0-.1-.022-.1-.016.006.058.044-.015.09.035-.02.039-.08,0-.089.029-.038-.031-.073-.016-.112-.028-.055-.049-.156-.065-.192-.116a.307.307,0,0,1-.156.007c-.038-.051.022-.028-.039-.064l-.019.02c-.054-.023-.042-.028-.036-.038-.058-.022-.06.016-.128-.026l.049-.009a.634.634,0,0,1-.153-.052l.057.01c-.029-.052-.076-.01-.1-.022,0,.013.054.038.02.052-.035-.019-.09.006-.109-.031l.049-.012c-.086,0-.052.019-.141-.016l.009-.012c-.068.016-.135-.035-.22-.061h.019c-.038,0-.063.016-.081.009.045.028.029.032.026.057-.052-.06-.112.02-.211-.033h.061c.048-.032.063-.067.134-.068-.042,0-.092-.009-.077-.023l-.023.036-.061-.019c-.017.022.038.054-.023.055s-.022-.049-.038-.035c-.092-.009-.048.032-.128,0l.033,0c-.055-.032-.15-.033-.154-.086l.039-.012,0,.007c.076-.016-.058-.006-.026-.044,0,.026-.086,0-.122-.017l0,.032c-.148.052.022-.057-.106-.08-.084,0,.028.016-.026.023-.052-.02-.067-.051-.148-.061-.019-.017-.061-.041-.058-.076-.052,0-.145-.045-.18-.017.077.044.092-.017.179.044l-.035.026a1.4,1.4,0,0,1-.2-.036l0,.023c-.1-.007-.134.02-.224-.009-.006-.032.048-.016.087-.01-.055-.036-.063-.015-.154-.042,0-.026.063.015.079-.009l-.1-.012v-.006c-.023.041-.079-.019-.144-.019-.15-.031-.183.023-.272.042l-.013-.038c.033.026.029.01.045,0-.051-.006-.1-.065-.071-.077-.083,0,.025.029-.026.032l-.109-.025c.009.025.047.038-.013.044a.992.992,0,0,1-.134-.025c.01-.009-.015-.038.032-.028a.1.1,0,0,0-.1,0c.065.029-.116,0-.07.047l-.065-.029.042,0c-.015-.036-.058,0-.083,0l-.09-.035-.083-.026c-.033,0-.006.022-.016.032l-.111-.017.012-.079c-.044.012-.022.054-.086.044.041-.032-.08-.038-.022-.076a.345.345,0,0,0-.2-.041c-.039.025.06.025.052.054-.161-.01-.18.071-.3.042l.029.012a.227.227,0,0,0-.112.025c.023-.033-.073-.112-.195-.115-.012.017.064.041.042.068-.026,0-.054,0-.08,0l.015-.013c-.073.009-.129-.055-.154-.013l-.068-.058.028.025-.111.025a.176.176,0,0,1-.156-.028c.013.016.047.052-.019.055,0-.06-.134-.031-.131-.061l-.076,0,.006-.038c-.009.052-.1.044-.177.049.02-.07-.08,0-.111-.065-.016.048-.131.012-.145.052-.057,0-.049-.045-.063-.061l-.026.016a.694.694,0,0,0-.2-.047l-.06.044-.022-.019c-.01.012-.058.017-.029.033l-.032,0c0,.047-.045.013-.108.033l0-.025c-.032,0-.017-.025-.035-.039.022.012-.115.084-.029.1.006.019-.044.033-.074.025l-.019-.041-.038.044c-.048.006-.07-.02-.108-.025.039,0,.089-.081-.015-.079a.4.4,0,0,0,.111-.038c-.022,0-.032-.006,0-.023-.081.013-.028.026-.108.032,0-.038-.019-.049-.089-.061l.052.028-.01.01.031.025-.106.025c.081.058-.141.047-.089.08l-.071-.006c.067-.029-.051-.042-.041-.068-.025.012.054.028.02.042a.173.173,0,0,1-.093-.032l.016-.007-.063-.016c-.01.019.061.031,0,.041l-.071-.013c.026-.026.006-.06.054-.067-.041,0-.169.009-.116.042H452.2c.031.016.116.044.02.049v-.007l-.065.029-.031-.019-.033.017-.029-.029c-.073.007-.065.025-.074.036-.039.006-.055,0-.038-.025a.731.731,0,0,1-.191-.007c-.073.022.016.007-.026.035-.067-.061-.246-.009-.365.007.036.055-.032.009-.051.063.025-.019-.118-.036-.013-.06l-.064.01c-.047-.029.1-.031.035-.068-.073.007-.115.073-.2.057.025-.042-.064.017-.047-.028l.064-.017-.016-.007c-.16,0-.042.051-.122.084-.1.012-.079-.026-.086-.045l-.089.015c.057-.029.111.017.086.045-.047-.044-.144.006-.167.026.141.039.1,0,.228.039.016-.016.01-.057.089-.045-.047.023.006.023.019.029l.076-.025c.023.017-.042.058.036.063l.01-.057c.032.006-.01.042.054.025-.033.032.015.045-.074.06.109.041.159-.036.24-.063l-.016.016.073-.022c.055.009-.041.028-.026.042l.087-.007,0,0,.052,0-.051.055.089-.045c-.009.019.077.026.013.045l.135-.017.013.036c.032-.009.032-.016-.006-.019.047.006.2-.08.18,0a1.191,1.191,0,0,1,.272-.051c-.1.035.115.044.01.06.063.016.074-.025.122-.031.047.016.026.052-.022.067l.057-.017v.007l.049-.022c.054.02.012.038.067.042l.012-.033.038.019c-.015-.015.017-.022.058-.025v.007l.048-.007c-.048.02.044.007.022.031a.614.614,0,0,0,.116-.006l-.013-.023c.1-.02,0,.033.083.035l0-.026c.113.044.192-.026.276,0-.048.006-.036.036-.035.029a1.125,1.125,0,0,0,.265-.036c.026.038.033.049.109.065.055,0,.064,0,.083-.025.054.017.156,0,.157.029.013-.022.048.007.079-.01l.006.012,0-.026c.093.064.163-.023.256.033l-.017.006.041-.007-.013.033.188.016-.036-.022c.039,0,.068-.025.112-.006-.079.035.063.006.073.036l-.041.007c.055,0,.055,0,.052-.026.073-.006.045.052.113.029l-.047,0c-.013-.016.023-.035.054-.033l0,.019c.057-.007.141.012.166,0,.029.01.017.028,0,.033.122-.015.054,0,.176,0l0,.015.042-.013.055.039-.019-.022a.424.424,0,0,1,.111.009l-.02.02c.112,0,.124.052.233.035l-.019.012c.1-.022.068.048.172.019v.023l.047-.009-.007.029.042-.039.023.033.019-.012c.041.063.113.029.172.079l-.006-.039c.175-.052.371.081.57.092l-.009.029.087-.019c.039.032-.031.02-.019.038.089,0,.044-.036.145-.025.048.031-.022.017-.048.023a1.069,1.069,0,0,1,.3.045l0-.01a1.51,1.51,0,0,1,.215.041l-.039.012.08.013-.032.02c.052.016.159.013.164.045,0-.013,0-.033.049-.023.015.049.129.006.2.045l-.051,0a.181.181,0,0,0,.108,0l-.015.015.175.022c.013.051.16.038.141.067.06.017-.045-.033.032-.017.016.023.071.01.061.038h-.009l.054.013-.041.019c.047.007.089-.012.1-.033.039.028.1.032.116.063l-.017,0c.125.022.179.132.288.112l-.012.009.074.022-.025.016h.134l-.006.015c.081.025.208.061.313.1h-.017c.119.019.1.052.191.067l-.01,0,.074.026-.02.007c.065-.01.141.1.118.058.035,0,.095,0,.111-.013.081.028.013.025.058.055s.077,0,.151.044l-.007.013c.038.01.064.009.116.026h-.017c.095,0,.087.079.177.042.031.025.1.039.086.067.108.028.191.055.3.09,0,.052.023.007.073.061l.006-.026c.144.063.279.195.439.256l-.007.026.044-.012c.164.084.374.2.5.275a.474.474,0,0,1,.189.065h-.009a1.862,1.862,0,0,1,.371.2l-.022.017c.045-.009.076.041.1.057l-.022-.035a.112.112,0,0,1,.1.076l.071.007,0,.015.017-.006.013.047c.017,0,.1.036.138.022,0,.013.045.055,0,.035l.192.143-.025-.031c.01-.025.079,0,.1.032-.052-.009-.023.029-.017.057.035.006-.01-.035.012-.038a.271.271,0,0,1,.131.071l-.026,0c.051.023.047.076.093.1.052.01.071.047.089,0,.064.032.006.041.022.057.039,0,.113.068.112.095.07-.033.144.127.189.089l.031.058a.066.066,0,0,1,.083-.01c.028.038,0,.054.006.073l.058-.028c.167.205.452.388.641.6a3.062,3.062,0,0,1,.353.246l-.017,0a1.152,1.152,0,0,1,.1.108.983.983,0,0,0-.061-.09.246.246,0,0,1,.076.047,2.057,2.057,0,0,0,.4.41c.137.042.022.1.143.15h-.032a2.445,2.445,0,0,0,.291.18c-.055.033.064.058.031.073l.026-.01c.01.032.057.083.035.089l.064.019-.016.022c.049.058.176.167.164.234a3.434,3.434,0,0,1,.5.534.389.389,0,0,1,.125.1l.015.064c.044.035.116.052.132.106h-.01c.039.041.058.095.113.118.036.051.06.109.025.112.045-.028.074.109.074.109l.3.413.317.433c.108.169.225.351.346.538a15.951,15.951,0,0,0,1.313,1.872c.035.012.086.067.1.029.036.045.007.089.036.086-.022-.076.071-.009.063-.09l.029.039c.022,0-.051-.048-.015-.052l-.049.01a.105.105,0,0,1-.006-.08c-.035-.023-.1-.015-.121-.1l.015.02c-.036-.061.006-.052.006-.07l.007.015-.007-.064c.007.048.079.1.057.063-.029-.081,0,.025-.036-.029-.022-.033.007-.036.02-.041l-.036-.063c.02-.009.022.042.028.006l-.064-.068c.042-.042-.071-.073-.044-.134.044.051.015-.015.035-.015l-.08-.138.022.009c0-.033-.036-.036-.044-.051s-.058-.1-.023-.118c-.031-.108-.064-.016-.093-.115.013-.023.044.067.042.016l-.058-.087a.057.057,0,0,1,.057.036c-.113-.26-.071-.464-.246-.663,0-.045.029.013.06.025-.134-.14-.093-.255-.185-.388l-.02.01a4.435,4.435,0,0,0-.361-.66l0,.035a.493.493,0,0,1-.1-.092c.006-.012.055,0,.007-.058l0,.047a6.329,6.329,0,0,0-.564-.876c-.159-.185-.294-.4-.461-.592s-.326-.387-.49-.56c.049.054-.012.067-.039.017-.032-.176-.185-.183-.241-.342a3.577,3.577,0,0,0-.579-.537l.015-.022c-.02-.035-.041-.029-.071-.055l.006,0c-.063-.074-.166-.134-.2-.182l-.023.019c-.044-.038-.006-.038-.06-.065l.012-.01-.068-.026c.039-.035-.113-.115-.131-.163a2.051,2.051,0,0,1-.268-.191c0-.033-.106-.119-.167-.186-.138-.1-.333-.249-.5-.393l-.017.029-.045-.033.01-.012c-.012-.058-.108-.074-.131-.119.006.041.029.028.054.048.026.042-.028.041-.067-.012l.006-.006-.047-.01v-.08a4.5,4.5,0,0,1-.444-.253c.033-.013-.119-.071-.058-.092-.108-.049-.007.045-.071.045l-.057-.045.02-.031-.067-.041h.023c-.147-.064-.214-.185-.348-.239l.025.047c-.137-.048-.087-.1-.217-.141l.038-.009a.153.153,0,0,1-.125-.048c0-.032.065.009.1.013-.042-.025-.153-.079-.134-.036-.055-.02-.061-.054-.084-.076,0,.006.038.044,0,.039a1.814,1.814,0,0,0-.25-.161l.013-.019c-.087,0-.048-.057-.145-.1" transform="translate(-420.085 -151.915)" fill="#fff"></path><path id="Path_93670" data-name="Path 93670" d="M490.66,166.783l.031,0Z" transform="translate(-454.232 -154.094)" fill="#fff"></path></g></g></g></svg> 