<?xml version="1.0" encoding="UTF-8"?> <svg xmlns="http://www.w3.org/2000/svg" width="312.411" height="343.281" viewBox="0 0 312.411 343.281"><g id="Group_11860" data-name="Group 11860" transform="translate(-904.537 -5644.334)"><g id="Group_11761" data-name="Group 11761" transform="translate(2 1885.615)" opacity="0.312"><g id="Rectangle_3302" data-name="Rectangle 3302" transform="translate(902.948 3759)" fill="none" stroke="#fff" stroke-width="1" stroke-dasharray="7"><rect width="312" height="343" stroke="none"></rect><rect x="0.5" y="0.5" width="311" height="342" fill="none"></rect></g><path id="Path_30657" data-name="Path 30657" d="M593.643,580.391v.279a63.631,63.631,0,0,1-3.616,10.012s-3.176-2.114-4.728-3.2a71.778,71.778,0,0,0-15.435-8.344s8.752-10.539,10.847-14.183c1.5-2.614,3.165-5.186,2.224-8.9-3.235-.359-5.219.957-7.369,2.225a61.121,61.121,0,0,0-8.344,5.841c-1.336,1.12-3.893,3.2-3.893,3.2-.033-1.616-.174-3.132-.278-4.589-.109-1.536-.417-4.588-.417-4.588.053-.306.622-1.623.973-2.5,2.466-6.184,4.356-12.477,6.536-18.634,0,0-4.118,4.614-6.118,7.231-.772,1.01-1.947,2.642-1.947,2.642s.121,1.422.139,2.086c.322,11.56-2.332,20.472-9.038,25.03a64.056,64.056,0,0,1-11.82-12.793s1.111-.754,1.668-1.112c4.889-3.139,8.85-8.223,8.621-15.991a9.949,9.949,0,0,0-3.754,2.224,34.065,34.065,0,0,0-5.7,6.4,14.717,14.717,0,0,0-2.225,4.45,55.166,55.166,0,0,0,0,9.735c.142,3.123.793,6.1,1.113,8.9a67.936,67.936,0,0,1-7.509-5.145c-3.627-11.267-1.566-26.952,3.337-35.32,1.925,2.33,3.424,4.549,5.145,6.813a68.84,68.84,0,0,1,7.648-4.727,13.728,13.728,0,0,1,2.92-1.252,25.09,25.09,0,0,1,3.337,1.808c.244.187,1.137.935,2.781,2.364,4.6-5.553,8.047-7.3,11.263-19.189a31.52,31.52,0,0,0,9.178,6.535c-2.872,7.975-6.1,15.593-8.622,23.917,3.854-2.074,6.953-5.091,13.211-4.449a7.611,7.611,0,0,1,7.091,7.369c.663,8.6-5.337,15-9.317,19.468a25.959,25.959,0,0,1,12.1,6.4" transform="translate(621.217 3237.564)" fill="#fff" fill-rule="evenodd"></path><path id="Path_30662" data-name="Path 30662" d="M593.643,580.391v.279a63.631,63.631,0,0,1-3.616,10.012s-3.176-2.114-4.728-3.2a71.778,71.778,0,0,0-15.435-8.344s8.752-10.539,10.847-14.183c1.5-2.614,3.165-5.186,2.224-8.9-3.235-.359-5.219.957-7.369,2.225a61.121,61.121,0,0,0-8.344,5.841c-1.336,1.12-3.893,3.2-3.893,3.2-.033-1.616-.174-3.132-.278-4.589-.109-1.536-.417-4.588-.417-4.588.053-.306.622-1.623.973-2.5,2.466-6.184,4.356-12.477,6.536-18.634,0,0-4.118,4.614-6.118,7.231-.772,1.01-1.947,2.642-1.947,2.642s.121,1.422.139,2.086c.322,11.56-2.332,20.472-9.038,25.03a64.056,64.056,0,0,1-11.82-12.793s1.111-.754,1.668-1.112c4.889-3.139,8.85-8.223,8.621-15.991a9.949,9.949,0,0,0-3.754,2.224,34.065,34.065,0,0,0-5.7,6.4,14.717,14.717,0,0,0-2.225,4.45,55.166,55.166,0,0,0,0,9.735c.142,3.123.793,6.1,1.113,8.9a67.936,67.936,0,0,1-7.509-5.145c-3.627-11.267-1.566-26.952,3.337-35.32,1.925,2.33,3.424,4.549,5.145,6.813a68.84,68.84,0,0,1,7.648-4.727,13.728,13.728,0,0,1,2.92-1.252,25.09,25.09,0,0,1,3.337,1.808c.244.187,1.137.935,2.781,2.364,4.6-5.553,8.047-7.3,11.263-19.189a31.52,31.52,0,0,0,9.178,6.535c-2.872,7.975-6.1,15.593-8.622,23.917,3.854-2.074,6.953-5.091,13.211-4.449a7.611,7.611,0,0,1,7.091,7.369c.663,8.6-5.337,15-9.317,19.468a25.959,25.959,0,0,1,12.1,6.4" transform="translate(621.217 3510.846)" fill="#fff" fill-rule="evenodd"></path><path id="Path_30663" data-name="Path 30663" d="M593.643,580.391v.279a63.631,63.631,0,0,1-3.616,10.012s-3.176-2.114-4.728-3.2a71.778,71.778,0,0,0-15.435-8.344s8.752-10.539,10.847-14.183c1.5-2.614,3.165-5.186,2.224-8.9-3.235-.359-5.219.957-7.369,2.225a61.121,61.121,0,0,0-8.344,5.841c-1.336,1.12-3.893,3.2-3.893,3.2-.033-1.616-.174-3.132-.278-4.589-.109-1.536-.417-4.588-.417-4.588.053-.306.622-1.623.973-2.5,2.466-6.184,4.356-12.477,6.536-18.634,0,0-4.118,4.614-6.118,7.231-.772,1.01-1.947,2.642-1.947,2.642s.121,1.422.139,2.086c.322,11.56-2.332,20.472-9.038,25.03a64.056,64.056,0,0,1-11.82-12.793s1.111-.754,1.668-1.112c4.889-3.139,8.85-8.223,8.621-15.991a9.949,9.949,0,0,0-3.754,2.224,34.065,34.065,0,0,0-5.7,6.4,14.717,14.717,0,0,0-2.225,4.45,55.166,55.166,0,0,0,0,9.735c.142,3.123.793,6.1,1.113,8.9a67.936,67.936,0,0,1-7.509-5.145c-3.627-11.267-1.566-26.952,3.337-35.32,1.925,2.33,3.424,4.549,5.145,6.813a68.84,68.84,0,0,1,7.648-4.727,13.728,13.728,0,0,1,2.92-1.252,25.09,25.09,0,0,1,3.337,1.808c.244.187,1.137.935,2.781,2.364,4.6-5.553,8.047-7.3,11.263-19.189a31.52,31.52,0,0,0,9.178,6.535c-2.872,7.975-6.1,15.593-8.622,23.917,3.854-2.074,6.953-5.091,13.211-4.449a7.611,7.611,0,0,1,7.091,7.369c.663,8.6-5.337,15-9.317,19.468a25.959,25.959,0,0,1,12.1,6.4" transform="translate(371.306 3510.846)" fill="#fff" fill-rule="evenodd"></path><path id="Path_30658" data-name="Path 30658" d="M593.643,580.391v.279a63.631,63.631,0,0,1-3.616,10.012s-3.176-2.114-4.728-3.2a71.778,71.778,0,0,0-15.435-8.344s8.752-10.539,10.847-14.183c1.5-2.614,3.165-5.186,2.224-8.9-3.235-.359-5.219.957-7.369,2.225a61.121,61.121,0,0,0-8.344,5.841c-1.336,1.12-3.893,3.2-3.893,3.2-.033-1.616-.174-3.132-.278-4.589-.109-1.536-.417-4.588-.417-4.588.053-.306.622-1.623.973-2.5,2.466-6.184,4.356-12.477,6.536-18.634,0,0-4.118,4.614-6.118,7.231-.772,1.01-1.947,2.642-1.947,2.642s.121,1.422.139,2.086c.322,11.56-2.332,20.472-9.038,25.03a64.056,64.056,0,0,1-11.82-12.793s1.111-.754,1.668-1.112c4.889-3.139,8.85-8.223,8.621-15.991a9.949,9.949,0,0,0-3.754,2.224,34.065,34.065,0,0,0-5.7,6.4,14.717,14.717,0,0,0-2.225,4.45,55.166,55.166,0,0,0,0,9.735c.142,3.123.793,6.1,1.113,8.9a67.936,67.936,0,0,1-7.509-5.145c-3.627-11.267-1.566-26.952,3.337-35.32,1.925,2.33,3.424,4.549,5.145,6.813a68.84,68.84,0,0,1,7.648-4.727,13.728,13.728,0,0,1,2.92-1.252,25.09,25.09,0,0,1,3.337,1.808c.244.187,1.137.935,2.781,2.364,4.6-5.553,8.047-7.3,11.263-19.189a31.52,31.52,0,0,0,9.178,6.535c-2.872,7.975-6.1,15.593-8.622,23.917,3.854-2.074,6.953-5.091,13.211-4.449a7.611,7.611,0,0,1,7.091,7.369c.663,8.6-5.337,15-9.317,19.468a25.959,25.959,0,0,1,12.1,6.4" transform="translate(370.806 3237.564)" fill="#fff" fill-rule="evenodd"></path><line id="Line_148" data-name="Line 148" x2="301" transform="translate(908.448 3828.5)" fill="none" stroke="#fff" stroke-width="1" stroke-dasharray="8"></line><line id="Line_149" data-name="Line 149" x2="312" transform="translate(902.948 4035)" fill="none" stroke="#fff" stroke-width="1" stroke-dasharray="8"></line><line id="Line_150" data-name="Line 150" y1="339" transform="translate(964.948 3763)" fill="none" stroke="#fff" stroke-width="1" stroke-dasharray="8"></line><line id="Line_151" data-name="Line 151" y1="342" transform="translate(1152.948 3760)" fill="none" stroke="#fff" stroke-width="1" stroke-dasharray="8"></line></g><g id="BK_New_Logo-01" data-name="BK New Logo-01" transform="translate(726.231 5634.648)"><path id="Path_93660" data-name="Path 93660" d="M422.964,512.339l-.044-.039Z" transform="translate(-94.128 -222.944)" fill="#fff"></path><path id="Path_93661" data-name="Path 93661" d="M295.25,155.2l.247-.286c-.121.131-.194.218-.247.286" transform="translate(-28.353 -38.819)" fill="#fff"></path><path id="Path_93662" data-name="Path 93662" d="M550.113,436.9l-.053.01Z" transform="translate(-159.629 -184.098)" fill="#fff"></path><path id="Path_93663" data-name="Path 93663" d="M390.944,451.238c-.112-.034-.179-.044-.175,0,.15.034.189.029.175,0" transform="translate(-77.564 -191.47)" fill="#fff"></path><path id="Path_93664" data-name="Path 93664" d="M395.2,476.453l.044-.053Z" transform="translate(-79.846 -204.449)" fill="#fff"></path><path id="Path_93665" data-name="Path 93665" d="M374.67,466.97l.126.029Z" transform="translate(-69.27 -199.59)" fill="#fff"></path><g id="Group_11729" data-name="Group 11729" transform="translate(240.217 79.562)"><path id="Path_93666" data-name="Path 93666" d="M252.392,134.247a85.843,85.843,0,0,0-3.66,7.767c-.291.688-.63,1.353-.882,2.051s-.509,1.382-.756,2.056c-.5,1.348-1,2.647-1.484,3.845-.184,1.125-.567,2.715-1.008,4.3l-.412.053-.281,1.348c-.271.5.238-1.028-.184-.126l.073.562c-.16.063-1.105,3.35-.7,1.071a24.69,24.69,0,0,0-.664,2.589l-.587,2.608c-.267,1.149.155.742-.218,1.993-.165.238.029-.47-.126-.4a10.9,10.9,0,0,0-.514,4.164,15.513,15.513,0,0,1-.262,3.985l0-.31c.01.625-.175,1.789-.116,1.808.436-.422-.111-.669.271-1.74.305.136-.029,1.387.223,1.343A7.868,7.868,0,0,0,241,175.3c-.291,1.236-.276,3.054-.6,3.985a15.923,15.923,0,0,1,.286,2.642c-.247.941-.238-.233-.33,1.062l.189.213c-.024,1.057-.078.892-.165.853a15.016,15.016,0,0,1,.145,2.366l-.184-.79c.073,1.052.044,1.484.034,2.948-.107-.029-.1-.616-.073-1.052a3.627,3.627,0,0,0,.116,1.794c.048-.126.1-1.144.281-.654-.034.727.359,1.527.165,2.056l-.242-.781a9.692,9.692,0,0,1,.364,2.531c-.019-.092-.063-.044-.107-.078a22.361,22.361,0,0,1,.335,4.15l-.073-.3c.1.65.339.984.378,1.333-.039-.926.053-.684.223-.785-.116,1.246.64,1.794.766,3.781-.112-.015-.31-.47-.286-1.028a4.339,4.339,0,0,1-1.028-1.862c.189.742.373,1.619.208,1.45l.325.194c.068.456.121.814.17,1.154.213.165.155-.96.441.068.276,1.164-.2.674-.039.839.368,1.6.417.621.567,2.2a2.454,2.454,0,0,1-.141-.587c.029,1.149.543,2.729.276,3.127a.839.839,0,0,1-.286-.587l.058,0c-.514-1.173.291,1.008-.1.688.165-.126.465,1.45.587,2.162l.16-.271c1.188,2.182-.461-.024.208,2.259.519,1.425-.087-.567.3.291a13.491,13.491,0,0,0,.63,2.826c.039.422.174,1.265-.039,1.406a17.084,17.084,0,0,1,.528,1.707,4.563,4.563,0,0,0,.6,1.377c-.32-1.527-.742-1.391-.97-3.224l.373.417c.33,1.212.984,2.686,1.183,3.534-.015-.179.019-.276.1-.184.654,1.663,1.062,2.06,1.634,3.694-.116.291-.451-.669-.742-1.353a22.915,22.915,0,0,0,.979,2.739c-.141.155-.417-1.1-.659-1.212l.756,1.774-.034.015c.4.136.558,1.357,1.115,2.4,1.105,2.565,1.75,2.729,2.623,4.009.1.412.082.558-.063.436-.17-.674-.218-.519-.4-.7.427.834.635,1.978.286,1.571.785,1.28-.107-.553.412.208l.941,1.813c.029-.291-.276-.941.33-.068.456.766.621,1.164,1.207,2.167-.155-.107-.029.441-.461-.32a4.711,4.711,0,0,0,.974,1.493c-.514-1.173,1.173,1.736.907.785.165.393.349.776.538,1.159-.15-.247-.262-.218-.461-.6-.019.436.616.844.873,1.2a12.8,12.8,0,0,1,.781,1.527,4.6,4.6,0,0,1,.771,1.372c.383.465.16-.049.325.048l1.139,1.682c-.048.17-.262.524-.475.3.548.562.48,0,1.144.955-.616-.383.761,1.353-.073.761a15.332,15.332,0,0,0,2.1,2.972c.562.388-.611-.965-.388-1.052,1.881,2.279,2.468,2.031,3.762,3.757-.107-.155-.218-.3-.32-.461a8.785,8.785,0,0,0,1.508,1.309c-.427-.126.431,1.658,2.027,3.209.223.044-.669-1.071-.267-.95l1.038,1.037c.058.092-.087,0-.242-.107.974.882,1.435,2.022,1.939,2.056l.684,1.207-.262-.49a13.958,13.958,0,0,1,1.561,1.212,8.953,8.953,0,0,1,2.027,2.046c-.121-.257-.436-.877.465-.116-.3.315,1.74,1.779,1.585,1.9.373.3.941.945,1.1.848l-.233.155c.335-.228,1.629.945,2.749,1.677-.553.218,1.188.858,1.382,1.585.393-.1,1.993,1.3,2.361,1.193.848.577.582.781.732,1.023l.465.17a28.145,28.145,0,0,0,2.846,2.235l1.062.325.262.33c.189.024.979.436.562.058l.49.31c.213-.262.747.335,1.813.8.2.179.1.213-.136.126.494.3.2.315.412.572-.32-.262,2.1.495.814-.383-.029-.165.814.175,1.28.49l.16.427.747.044a15.151,15.151,0,0,1,1.658,1.091c-.65-.325-1.711-.247-.019.621a19.369,19.369,0,0,0-1.9-.7c.344.2.5.315-.1.136,1.362.616.519.087,1.847.722-.194.2.141.461,1.261,1.105l-.781-.6.2.015c-.315-.184-.388-.267-.412-.393.262.131,1.682.446,1.833.7-1.149-1.018,2.458.834,1.711.194a2.718,2.718,0,0,1,1.173.553c-1.207-.305.722.645.465.737.451.112-.8-.567-.2-.412a6.559,6.559,0,0,1,1.445.877l-.3-.073.994.562c.223-.048-.916-.645.063-.3.228.16,1.231.465,1.159.553-.533-.01-.286.349-1.134.068.7.247,2.9,1.067,2.109.49l.819.325c-.48-.305-1.842-1.047-.184-.451l-.034.044,1.212.252c.15.107.3.213.456.31.01-.068.213-.068.64.082.087.112.48.281.412.368,1.251.412,1.193.247,1.382.228.7.218.945.359.572.4.936.383,2.652.8,3.268,1.139,1.328.262-.252-.131.557-.082a4.383,4.383,0,0,0,1.115.558c.485.16,1.057.305,1.663.446,1.217.272,2.565.553,3.655.717-.5-.519.6.073,1.071-.208-.49.034,1.983.722.073.451l1.159.194c.747.378-1.939-.223-.81.32a10.165,10.165,0,0,0,1.794.141,7.149,7.149,0,0,1,1.949.213c-.562.2,1.2.092.766.344a5.421,5.421,0,0,1-1.2-.092l.262.1c2.855.538.882-.2,2.4-.165,1.75.184,1.348.388,1.435.538a6.965,6.965,0,0,0,1.624.121c-1.091.053-1.959-.407-1.44-.533a6.853,6.853,0,0,0,3.078.252c-2.453-.63-1.731-.218-4.019-.858-.335.068-.32.373-1.7.029.9,0-.034-.175-.276-.257.242.213-.979-.082-1.416-.082-.364-.2.9-.252-.5-.548l-.335.349c-.543-.155.281-.238-.9-.359.669-.082-.136-.335,1.464-.145-1.828-.63-2.914-.378-4.412-.514.155,0,.184-.044.335-.039a6.381,6.381,0,0,1-1.338-.15c-.936-.31.8,0,.577-.179-.524-.092-1.033-.233-1.551-.349l-.034-.039a1.937,1.937,0,0,1-.931-.238c.49-.01.7-.1,1.033-.121l-1.682-.131c.208-.082-1.275-.548-.1-.359-.8-.17-1.6-.359-2.39-.582l-.126-.315c-.577-.121-.611-.073.058.155-.785-.3-3.723-.591-3.132-.989a49.649,49.649,0,0,1-4.78-1.377c1.765.412-1.808-1.038,0-.461a9.148,9.148,0,0,0-2.152-.6c-.727-.4-.281-.514.582-.286l-1.018-.262.039-.044c-.3-.058-.6-.141-.892-.208-.824-.514-.082-.33-.974-.756l-.291.131-.558-.393c.189.2-.368.01-1.038-.257l.039-.044c-.276-.1-.548-.208-.814-.325.839.247-.7-.4-.267-.373-.669-.335-.684-.339-1.915-.892l.141.252c-1.648-.645.039-.247-1.231-.887l0,.208c-1.653-1.26-3.175-1.459-4.378-2.414.771.4.688.1.65.141-1.149-.621-2.982-1.7-4.228-2.254-.271-.5-.325-.63-1.421-1.483a3.249,3.249,0,0,0-1.353-.65c-.737-.65-2.327-1.576-2.25-1.765-.276,0-.7-.524-1.2-.751l-.044-.136-.044.2c-1.105-1.4-2.5-1.556-3.6-2.982l.262.155-.611-.412c-.039-.136.223.015.32-.048-.858-.747-1.755-1.445-2.579-2.225l.407.553a9.988,9.988,0,0,1-1.561-1.29c1.2.7-.834-.766-.853-1.071l.591.436c-.751-.655-.751-.655-.819-.461-.994-.839-.4-.873-1.4-1.556l.6.6c.107.252-.441-.063-.844-.461-.078-.116-.305-.456.019-.17-.785-.659-1.813-1.8-2.162-2.085-.339-.441-.116-.4.126-.218-1.619-1.469-.654-.737-2.274-2.216l.1-.044-.591-.48-.538-.955.15.378a16.028,16.028,0,0,1-1.348-1.484l.339.15c-1.387-1.474-1.28-1.968-2.671-3.311-.058-.121.165.082.281.184-1.314-1.231-.6-1.231-1.92-2.473.107.053.044-.141.121-.112l-.572-.591.208-.078-.654-.344c-.044-.174-.082-.354-.116-.533l-.262-.2c-.16-.95-1.11-1.779-1.527-2.923l-.112.315c-2.114-2.211-3.428-5.934-5.3-9.008l.218-.044-.921-1.2c-.228-.781.388.339.368.073-.839-1.362-.582-.451-1.45-2.09-.286-.916.286.228.548.6-.422-.761-.95-1.7-1.4-2.608a24.177,24.177,0,0,1-1-2.376l-.087,0a35.607,35.607,0,0,1-1.5-3.675c.1,0,.233.281.368.572a6.494,6.494,0,0,0-.558-1.372l.349.383a12.646,12.646,0,0,1-.955-2.928c-.039.136-.208.145-.475-.659.136-.533-.829-2.153-1.057-3.505.121.131.427,1.081.349.81a6.252,6.252,0,0,0-.708-1.76l.179.141c-.349-.994-.655-2.007-.984-3.011.17-.524-.727-2.894-.446-2.739-.228-1.105.058.955-.281-.431.053-.4-.339-1.251-.116-1.231l.058.145c-.068-.325-.165-.645-.213-.974.1.194.213.388.325.577-.223-.829-.49-1.42-.664-1.43a16.2,16.2,0,0,1-.155-2.351l.1.291a17.523,17.523,0,0,1-.252-2.967,12.6,12.6,0,0,0-.092-1.294,6.767,6.767,0,0,0-.218-1.29c.019-.136.073-.126.092.155l-.1-1.406.184.32-.427-2.3.107.024c-.039-.766-.121-1.75-.218-2.783-.063-1.037-.053-2.133-.087-3.122l.053.3c-.175-2.157.1-2.085-.029-3.66l.048.17-.01-1.42.107.315a9.616,9.616,0,0,1,.252-2.346,9.533,9.533,0,0,0-.228-1.813c.1-1.547.165-.368.325-1.319a16.5,16.5,0,0,1,.17-2.831l.1.044c.087-.7.073-1.149.2-2.133l0,.3c.015-1.629.6-1.939.325-3.268.184-.654.3-1.939.524-1.833.305-1.983.582-3.525.936-5.5.412-.228.063-.427.538-1.551l-.208.039c.4-1.357.945-2.783,1.493-4.232.267-.727.538-1.464.8-2.2.247-.747.591-1.454.839-2.191l.208-.015.029-.65c.664-1.537,1.324-3.34,2.1-5,.8-1.648,1.561-3.219,2.143-4.417.141-.417.315-.945.514-1.532a11.349,11.349,0,0,1,.911-1.765l-.048.141c.548-1.076,1.12-2.186,1.726-3.3.31-.553.625-1.115.941-1.682.364-.538.742-1.076,1.13-1.61-.024.179.17-.01.048.267A6.955,6.955,0,0,1,262,129.6l-.485.475a4.811,4.811,0,0,1,1.333-1.765l.494-1.105.184-.136.034-.233c.184-.126.364-.257.562-.368a11.962,11.962,0,0,0,1.164-2.065c.136-.039.868-.877.378-.174l2.715-3.374-.48.475c-.2-.058.509-1.164,1.052-1.585-.48.756.155.228.514.039.32-.5-.47.272-.339-.024a12.161,12.161,0,0,1,1.736-2.075l-.242.378c.625-.8,1.178-.916,1.828-1.663.485-.766,1.028-1.159.674-1.246.858-.965.509-.2.824-.47a6.9,6.9,0,0,1,1.983-1.74c.184-.829,2.618-2.269,2.54-2.744a9.75,9.75,0,0,1,.936-.533c-.044-.1-.039-.417.6-.994.7-.427.674-.16.931-.233l.165-.65c.97-.659,1.978-1.406,3.015-2.211.257-.2.519-.4.781-.611.276-.189.558-.378.834-.567.558-.383,1.125-.771,1.692-1.164,1.134-.781,2.283-1.566,3.408-2.337,1.139-.751,2.322-1.382,3.442-1.993.96-.611,2.041-1.3,3.161-2.017,1.149-.674,2.351-1.348,3.544-1.934l-.238.175,2.419-1.047-1.8.664c.5-.291.868-.553,1.377-.79,1.328-.582,2.928-1.134,4.562-1.808,1.668-.6,3.374-1.314,5.032-1.963,2.031-1.193,1.566-.131,3.573-1.1-.17.1-.218.179-.364.271,2.22-.863,3.452-1.241,5.7-2.094-.16.5,1.513-.349,1.357-.068l.155-.223c.543,0,1.765-.242,1.619-.073l.989-.417.126.17c.684-.116,1.755-.364,2.759-.519a6.935,6.935,0,0,1,2.322-.078,62.376,62.376,0,0,1,13.162-1.047,14.34,14.34,0,0,1,2.87-.16l1.052.271a14.822,14.822,0,0,1,3.025-.078l-.112.053c1.028-.019,1.988.189,2.957.078,1.12.116,2.191.335,1.828.514.073-.179.664-.112,1.236,0,.286.058.567.121.776.179s.344.112.344.112.887.141,2.463.4c.785.131,1.75.257,2.856.47,1.1.233,2.342.495,3.709.785A102.8,102.8,0,0,1,386.741,94.4a107.636,107.636,0,0,1,20.333,12.329c5.856,4.46,10.5,8.693,13.235,11,.456.228,1.445,1.12,1.26.6.747.708.819,1.27,1.091,1.29-.853-1.105.65,0-.1-1.154l.63.616c.218.044-.921-.781-.6-.781l-.427.048a4.137,4.137,0,0,1-.737-1.154,5.011,5.011,0,0,1-2.109-1.707l.315.31c-.887-.945-.378-.737-.528-.97l.2.208-.65-.892c.524.65,1.643,1.474,1.139.96-1-1.193.228.339-.616-.465-.524-.494-.252-.48-.15-.533l-.931-.907c.145-.082.606.611.349.126l-1.285-1.033c.063-.5-1.391-1.12-1.677-1.905.921.742.019-.179.242-.141l-2.167-1.92c-.165-.223.65.417.31.136-.33-.446-.732-.524-.945-.722-.111-.252-1.61-1.445-1.391-1.576-1.411-1.382-.863-.262-2.182-1.532-.082-.281,1.154.887.63.242l-1.513-1.154a1.651,1.651,0,0,1,.984.5c-3.869-3.389-5.716-5.672-9.832-8.072-.461-.533.47.15.941.305a30.251,30.251,0,0,1-3.437-2.22,19.546,19.546,0,0,0-3.093-2.075l-.121.116a36.96,36.96,0,0,0-5.842-3.2c-1.067-.475-2.153-.955-3.234-1.435-1.105-.427-2.206-.863-3.277-1.324l.48.3a21.825,21.825,0,0,1-2.361-.63c-.087-.112.64-.155-.669-.5.247.141.771.368.587.388a56.842,56.842,0,0,0-8.1-2.729c-.829-.223-1.677-.465-2.536-.674-.868-.184-1.74-.373-2.613-.558l-2.584-.562c-.853-.15-1.7-.3-2.506-.436-8.8-1.193-18.471-1.847-27.212-.9,1.328-.15.8.3-.208.315-2.812-.388-4.717.659-7.558.679-4.979,1.091-9.575,1.663-13.948,3.631l-.145-.15a8.756,8.756,0,0,0-1.537.6v-.053c-1.7.485-3.607,1.469-4.581,1.75l.019.223c-.965.4-.567.044-1.508.582l-.015-.112-1.067.684c-.019-.194-.7.092-1.479.451a16.7,16.7,0,0,1-2.041.95c-1.207.621-3.394,1.963-5.226,2.88a29.49,29.49,0,0,0-4.019,2.031c-.654.422-1.382.892-2.152,1.391s-1.542,1.1-2.361,1.677c-1.619,1.178-3.374,2.346-4.969,3.525l.2.145-.79.669c-.019-.053-.145.015-.039-.107-.79.3-1.794,1.58-2.545,1.978.543-.165.582-.436,1.042-.8.727-.451.247.247-.713.882l-.015-.053-.524.6c-.189-.087-.8.3-.989.208a23.645,23.645,0,0,0-1.774,1.6c-.519.548-1.013,1.076-1.513,1.6-.994,1.052-2.007,2.1-3.311,3.287.063-.189-.412.228-.8.669s-.785.819-.679.431c-1.319,1.663.446-.053-.01.839-.4.431-.737.96-.911.945.121-.267-.485.2-.189-.175l-.926,1.067c-.112.082.058-.184.145-.315a37.9,37.9,0,0,1-2.647,2.938,27.377,27.377,0,0,0-2.3,2.938c-.015.233.659-.785.65-.553-1.382,2.211-1.6,1.663-2.933,3.694l.16-.5a8.032,8.032,0,0,1-1.256,2.065c-.305.063.461-1.008.727-1.585-.5.732-1.7,2.628-1.159,2.172a7.719,7.719,0,0,1-1.27,1.58c.034.044.669-.747.407-.175a34.366,34.366,0,0,0-3.006,4.523c-.039-.039-.17.024-.116-.121-.528,1.382-.872,1.008-1.779,2.739" transform="translate(-240.217 -79.562)" fill="#fff"></path><path id="Path_93667" data-name="Path 93667" d="M294.275,198.41a92.678,92.678,0,0,0-.533,15.756c.252,1.023.315,2.526.543,4.024l-.233.184.208,1.251c-.019.519-.145-.96-.145-.044l.2.456c-.1.112.417,3.219-.082,1.149.233,1.624.475,3.248.819,4.853.208,1.071.32.582.509,1.77-.019.252-.145-.412-.208-.3a18.315,18.315,0,0,0,1.067,3.714,19.342,19.342,0,0,1,1.241,3.462l-.112-.262.383.974a4.144,4.144,0,0,0,.238.582c.107-.49-.339-.519-.5-1.542.213.024.514,1.173.645,1.057a13.287,13.287,0,0,0,.684,1.8c.223,1.154.989,2.647,1.144,3.529.267.509.7,1.013,1.227,2.114.213.868-.233-.121.208.989l.194.121c.388.9.3.776.228.766.446.945.543.7,1.067,1.905l-.441-.6c.49.844.645,1.207,1.261,2.409-.082.01-.325-.475-.49-.839a4.047,4.047,0,0,0,.844,1.425c-.01-.126-.456-.945-.121-.611a9.961,9.961,0,0,1,.97,1.639l-.47-.572a11.8,11.8,0,0,1,1.27,1.983l-.1-.034a31.646,31.646,0,0,1,2.075,3.234l-.184-.223c.354.49.659.688.834.96-.436-.737-.271-.567-.218-.693.485,1.033,1.193,1.265,2.162,2.826-.073.019-.4-.291-.635-.747a4.958,4.958,0,0,1-1.459-1.207c.446.543.95,1.2.776,1.105l.286.063.621.882c.2.073-.334-.814.3-.068.718.839.2.587.373.669,1,1.144.558.364,1.411,1.547a2.915,2.915,0,0,1-.368-.417,18.114,18.114,0,0,1,1.668,2.361.952.952,0,0,1-.465-.373l.039-.01c-.887-.766.669.7.272.562.044-.141.994.989,1.416,1.5l-.034-.252c1.789,1.362-.315.126,1.227,1.687,1.042.931-.339-.407.33.141a22.627,22.627,0,0,0,1.794,1.978c.218.325.751.9.688,1.062a28.585,28.585,0,0,0,2.274,2c-.955-1.076-1.164-.853-2.245-2.148l.451.208c.858.776,1.954,1.765,2.55,2.308-.1-.126-.131-.2-.034-.165,1.3,1.013,1.75,1.212,2.962,2.254.073.247-.645-.354-1.168-.79a15.049,15.049,0,0,0,2.07,1.711c-.01.15-.853-.659-1.081-.674l1.44,1.042-.015.019c.339-.024,1.052.858,1.988,1.416a16.776,16.776,0,0,0,3.893,2.06c.3.247.364.354.2.31-.485-.407-.431-.286-.645-.359.747.436,1.508,1.168,1.052.989,1.207.669-.364-.354.388.029.538.325,1.057.679,1.61.984-.141-.2-.708-.543.184-.141.737.368,1.071.577,2.012,1.1-.16-.029.218.305-.485-.087a5.955,5.955,0,0,0,1.469.742c-1-.621,1.77.776,1.062.228l1.008.6a6.234,6.234,0,0,1-.645-.262c.228.291.882.378,1.26.543.354.218,1.324.684,1.382.761a5.1,5.1,0,0,1,1.3.64c.524.189.082-.082.252-.068.577.247,1.144.514,1.726.742.058.121.116.407-.165.339.7.17.335-.16,1.343.223-.64-.053,1.285.621.373.5a14.414,14.414,0,0,0,3.142,1.173c.616.048-.979-.393-.873-.509,2.618.766,2.87.49,4.78,1.052l-.49-.17a11.416,11.416,0,0,0,1.808.291c-.189.039.121.247.732.5a15.662,15.662,0,0,0,2.536.693c.184-.053-1.081-.407-.727-.475l1.328.257c.092.034-.058.034-.233.019a10.878,10.878,0,0,0,2.56.5l1.178.456-.465-.189c.179-.063,1.527.145,1.813.141a9.907,9.907,0,0,1,2.628.4c-.233-.1-.81-.335.276-.238-.044.315,2.274.305,2.23.441.441.024,1.222.17,1.28.053l-.082.174c.058-.121.49-.15,1.062-.145s1.28-.015,1.9-.024c-.286.334,1.353,0,1.9.315.233-.218,2.191-.15,2.4-.349a1.437,1.437,0,0,1,1.11.242l.436-.1c.485.082,2.269-.048,3.335-.058.32-.1.645-.174.965-.291l.373.044c.15-.073.96-.2.451-.218l.528-.058c.015-.223.737-.155,1.784-.388.247,0,.194.063-.034.121.528-.068.32.078.621.107-.378.01,1.823-.727.4-.572-.112-.073.7-.281,1.217-.335l.349.141.577-.315c.8-.175,1.168-.1,1.813-.233-.654.16-1.4.708.315.315-.892.242-1.319.422-1.784.543.359-.058.543-.068,0,.112,1.343-.31.431-.179,1.755-.5-.034.189.349.16,1.522-.048l-.9.073.155-.082c-.335.058-.431.053-.519,0a10.732,10.732,0,0,1,1.731-.514c-1.387.053,2.259-.766,1.372-.732a3.42,3.42,0,0,1,1.159-.3c-1.052.436.873-.039.732.131.393-.165-.892.116-.364-.1a8.727,8.727,0,0,1,1.532-.276l-.262.107c.344-.073.688-.131,1.023-.228.136-.136-1,.175-.107-.17a9.617,9.617,0,0,1,1.144-.32c-.4.262-.029.31-.8.6.645-.233,2.7-.945,1.808-.824l.771-.257c-.509.092-1.9.422-.368-.121v.039c.339-.165.688-.32,1.023-.495l.49-.1c-.029-.039.121-.141.509-.291.121.01.495-.116.495-.039,1.13-.456,1-.5,1.13-.611.625-.262.878-.32.625-.107.873-.325,2.332-1.047,2.952-1.217,1.1-.591-.247.073.364-.339a9.188,9.188,0,0,0,2.506-1.057c1.018-.538,2.123-1.164,2.977-1.711-.611.044.465-.305.664-.708-.335.3,1.774-.79.276.17l.926-.572c.718-.247-1.5,1-.422.611,1.062-.611,1.576-1.3,2.826-2-.3.427.892-.659.708-.286a6.782,6.782,0,0,1-.892.659l.233-.107c2.274-1.42.524-.611,1.619-1.488,1.309-.97,1.125-.63,1.256-.611a8.783,8.783,0,0,0,1.193-.921c-.737.679-1.556.984-1.256.616a8.573,8.573,0,0,0,2.264-1.736c-2.012,1.178-1.309.936-3.209,2.012-.2.233-.039.378-1.183,1.023.63-.528-.107-.058-.32.039.271-.044-.732.533-1.038.79-.354.121.509-.645-.616.034l-.068.359c-.456.247.087-.276-.81.364.432-.427-.257-.082.965-.926a21.811,21.811,0,0,0-3.4,2.3c.116-.087.111-.126.223-.208a8.175,8.175,0,0,1-1.028.693c-.819.4.567-.465.325-.412-.417.257-.848.49-1.285.713h-.044a2.383,2.383,0,0,1-.8.4c.349-.276.461-.431.688-.63l-1.285.873c.107-.155-1.2.451-.252-.112-.669.354-1.328.737-2.022,1.047l-.252-.082c-.48.252-.48.291.121.044-.722.281-3.016,1.716-2.783,1.222-1.6.8-2.216,1-4.213,1.837,1.517-.688-1.876.412-.233-.223a11.888,11.888,0,0,0-1.9.8c-.747.17-.475-.107.281-.432l-.887.388,0-.039c-.257.116-.509.252-.766.359-.882.15-.233-.121-1.125.107l-.145.208-.625.082c.247,0-.267.184-.907.378l0-.039-.771.252c.751-.3-.722.155-.4-.058-.674.15-.688.155-1.9.461l.238.058c-1.571.461-.1-.141-1.391.145l.107.1c-1.9.174-3.151.708-4.557.814.79-.15.567-.271.558-.228-1.188.233-3.146.436-4.373.732a4.519,4.519,0,0,0-1.871-.17,3.653,3.653,0,0,0-1.362.242,18.933,18.933,0,0,1-2.647,0c-.208.111-.81,0-1.309.107l-.107-.053.078.121c-1.6-.3-2.715.126-4.324-.17l.281-.015-.684,0c-.107-.063.174-.078.208-.145l-3.146-.233.611.136a8.415,8.415,0,0,1-1.871-.121c1.275-.039-1.042-.126-1.227-.3l.679.029c-.921-.1-.921-.1-.858.039-1.2-.1-.79-.305-1.9-.359.262.044.519.1.776.131.223.107-.354.131-.878.034-.121-.039-.48-.155-.082-.107-.94-.107-2.332-.4-2.754-.422-.494-.131-.315-.189-.034-.17-2-.31-.887-.213-2.889-.528l.048-.063-.7-.063c-.315-.112-.616-.262-.926-.388l.32.179c-.645-.16-1.057-.218-1.8-.456l.33-.019c-1.828-.412-2.041-.732-3.777-1.134-.111-.053.165,0,.305.024-1.614-.359-1.139-.514-2.754-.907.107,0-.048-.1.024-.107l-.732-.2.1-.112-.65-.019-.383-.3-.3-.039c-.659-.509-1.77-.8-2.7-1.411l.1.238c-2.729-.722-5.653-2.885-8.63-4.4l.121-.092-1.265-.582c-.572-.485.441.131.281-.053-1.3-.708-.635-.145-2.123-1.013-.674-.577.31.087.7.247-.718-.373-1.537-.936-2.332-1.445a17.714,17.714,0,0,1-1.944-1.391l-.058.019c-.887-.611-2-1.493-2.919-2.24.068-.034.291.155.533.325a9.184,9.184,0,0,0-1.062-.868l.417.194a18.833,18.833,0,0,1-2.148-1.886c.053.107-.073.179-.635-.368-.17-.456-1.624-1.391-2.468-2.332.145.068.829.688.64.509a12.749,12.749,0,0,0-1.328-1.149l.179.058-2.133-2.022c-.141-.461-1.857-2.056-1.61-2.007-.684-.8.509.722-.388-.257-.165-.325-.824-.873-.679-.921l.107.1c-.2-.233-.393-.475-.587-.713l.47.368c-.519-.606-.989-.974-1.1-.941a20.577,20.577,0,0,1-1.236-1.789l.2.2a17.653,17.653,0,0,1-1.508-2.312,14.44,14.44,0,0,0-1.357-1.993c-.053-.116-.015-.121.126.1l-.7-1.1.257.2c-.427-.577-.882-1.144-1.294-1.736l.073-.015c-.684-1.251-1.862-3.146-2.686-4.79l.155.228a30.331,30.331,0,0,1-1.5-3.049l.092.126-.548-1.2.184.238a11.023,11.023,0,0,1-.8-2.036,12.771,12.771,0,0,0-.839-1.459c-.533-1.333-.058-.354-.305-1.212-.334-.984-.509-1.115-.911-2.468l.078,0c-.238-.616-.393-.994-.664-1.871l.111.252c-.557-1.4-.349-1.837-.936-2.9-.092-.625-.422-1.774-.267-1.75-.281-.892-.485-1.7-.664-2.506s-.388-1.61-.562-2.521c.189-.33-.073-.393-.107-1.522l-.112.1c-.446-2.594-.373-5.624-.567-8.494l.121-.087c-.063-.189-.107-.383-.155-.572-.044-3.108.165-7.117.407-9.58a19.915,19.915,0,0,1,.208-3.326v.136a46.452,46.452,0,0,1,1.2-6.962c.019.16.107-.068.082.208a6.806,6.806,0,0,1,.446-1.905l-.247.572a6.156,6.156,0,0,1,.606-1.959l.15-1.1.1-.179,0-.2.335-.509a16.264,16.264,0,0,0,.431-2.157c.078-.087.446-1.047.223-.281.465-1.256.931-2.516,1.425-3.757-.1.184-.194.373-.281.562-.16.024.228-1.125.524-1.682-.223.8.141.131.359-.155.145-.528-.286.4-.238.1a12.666,12.666,0,0,1,.921-2.337l-.131.393c.359-.863.737-1.164,1.12-2,.257-.79.606-1.3.344-1.241.519-1.076.344-.339.548-.674a8.887,8.887,0,0,1,1.207-2.123c.044-.727,1.726-2.71,1.619-3.059.2-.257.431-.5.65-.747-.044-.063-.073-.31.344-.994.475-.587.48-.368.664-.514l.058-.567c2.632-3.423,6.094-7.965,9.648-11.107a54.866,54.866,0,0,1,5.28-4.93l-.189.2c.64-.5,1.27-1.023,1.949-1.479-.5.315-.994.655-1.464,1.013a9.9,9.9,0,0,1,1.1-.984c2.2-1.556,5.173-3.554,7.961-5.338,1.7-1.338,1.328-.543,3.035-1.687-.141.107-.179.175-.305.276,1.905-1.11,2.923-1.75,4.882-2.807-.107.383,1.309-.611,1.193-.383l.116-.189c.47-.16,1.571-.528,1.445-.4l.848-.5.126.087a20.037,20.037,0,0,1,4.518-1.464,55.543,55.543,0,0,1,11.892-2.948,14.406,14.406,0,0,1,2.618-.48l.989.029a12.4,12.4,0,0,1,2.768-.388l-.1.048c.945-.087,1.847-.107,2.729-.262,1.042-.015,2.051.044,1.736.189.048-.126.6-.131,1.134-.1a8.838,8.838,0,0,1,1.062.111s.834.034,2.313.087c.742.01,1.644.078,2.681.179s2.22.16,3.505.359a80,80,0,0,1,19.048,4.8,74.765,74.765,0,0,1,10.21,4.809,77.4,77.4,0,0,1,9.051,5.915,105.932,105.932,0,0,1,11.776,10.632c.368.267,1.193,1.173,1.013.717.625.713.722,1.183.936,1.251-.737-1.057.5.121-.16-.96l.528.616c.175.078-.766-.8-.514-.747l-.325-.039a4.992,4.992,0,0,1-.65-1.076,7.613,7.613,0,0,1-1.784-1.74l.281.3c-.8-.887-.378-.645-.514-.858l.174.2-.587-.834c.451.625,1.435,1.45.984.96-.907-1.115.2.315-.529-.47-.451-.49-.238-.431-.165-.456l-.8-.892c.107-.044.524.6.281.16-.368-.349-.717-.713-1.105-1.038,0-.388-1.256-1.076-1.561-1.75.814.727,0-.136.179-.073-.621-.64-1.275-1.246-1.949-1.833-.16-.2.582.412.267.15a4.512,4.512,0,0,0-.858-.688c-.126-.208-1.479-1.348-1.319-1.416-1.338-1.236-.742-.305-1.993-1.454-.107-.228,1.062.829.548.267l-1.391-1.076a2.023,2.023,0,0,1,.873.509c-.887-.8-1.726-1.44-2.473-2.08s-1.43-1.251-2.153-1.784-1.421-1.081-2.187-1.624a29.514,29.514,0,0,0-2.6-1.532c-.47-.422.427.145.853.3-.713-.364-1.3-.7-1.818-1.018s-1-.582-1.45-.868a21.009,21.009,0,0,0-2.986-1.692l-.092.078c-3.277-1.954-7.67-3.335-11.742-4.654l.47.208c-.6-.058-1.517-.305-2.206-.451-.092-.078.548-.087-.664-.373.242.1.737.281.572.291a55.318,55.318,0,0,0-7.65-1.837c-1.556-.281-3.2-.465-4.833-.688-1.634-.126-3.248-.335-4.766-.4a82.234,82.234,0,0,0-24.938,2.744c1.183-.339.747.053-.16.247-2.579.223-4.179,1.348-6.719,1.915-4.349,1.77-8.3,3.282-11.96,5.73l-.136-.068a10.864,10.864,0,0,0-1.28.814l0-.039c-1.44.756-2.986,1.978-3.791,2.448l.029.15a10.926,10.926,0,0,0-1.251.8l-.019-.073c-.3.247-.567.528-.848.79-.058-.267-2.182,1.614-2.865,1.988-.916.848-2.7,2.4-4.111,3.646a29.628,29.628,0,0,0-3.127,2.729,98.623,98.623,0,0,0-6.967,8.062l.17.044-.553.781c-.019-.034-.112.058-.039-.068a29.589,29.589,0,0,0-1.779,2.385c.383-.325.4-.538.717-.979.528-.587.2.1-.465.921l-.019-.039-.325.65c-.15,0-.557.514-.708.514-.422.664-.814,1.275-1.164,1.876-.33.611-.65,1.2-.965,1.784-.659,1.164-1.241,2.376-2.022,3.8.015-.179-.252.339-.509.819-.238.49-.465.936-.436.591-.751,1.8.315-.2.092.674a4.792,4.792,0,0,1-.543,1.086c.053-.257-.325.339-.155-.073l-.533,1.188c-.068.107.015-.17.063-.305-.461,1.246-.941,2.317-1.421,3.36a29.231,29.231,0,0,0-1.193,3.224c.024.194.344-.878.368-.688-.655,2.3-.814,1.959-1.387,4.121l.024-.475a10.988,10.988,0,0,1-.528,2.162c-.184.165.126-1.013.247-1.571-.252.776-.718,2.792-.436,2.216a9.773,9.773,0,0,1-.591,1.77c.029.024.325-.858.242-.291-.373,1.275-.839,3.277-1.12,4.877-.034-.019-.107.082-.1-.063-.044,1.324-.349,1.13-.591,2.914" transform="translate(-267.736 -105.168)" fill="#fff"></path><path id="Path_93668" data-name="Path 93668" d="M289.159,341.289c1.168,1.391,2.778,3.093,3.912,4.48a4.619,4.619,0,0,1,1.2.984l-.145.213.378.3c.073.194-.276-.242-.121.078l.238.029c-.044.087.771.955.107.48.412.461.814.926,1.26,1.362.281.3.32.024.591.393.01.116-.15-.082-.189.01.819,1.105,1.45.785,2.25,1.765l-.1-.053c.2.107.475.407.509.383.058-.291-.257-.063-.422-.446.175-.126.417.262.514.126.155.262.373.291.567.456.228.4.756.756.882,1.1a2.31,2.31,0,0,1,.868.417c.131.349-.165.063.126.417l.136-.044c.257.267.194.252.145.286.286.272.354.1.669.49l-.286-.1a8.7,8.7,0,0,1,.79.659c-.053.048-.208-.087-.31-.2.092.315.417.247.519.359,0-.068-.252-.315-.039-.3.179.179.524.218.562.446l-.291-.087c.465.267.315.063.747.49l-.063.029c.4.126.684.558,1.11.936l-.1-.044c.2.116.368.112.456.194-.2-.262-.112-.233-.058-.344.2.431.64.242,1.12.751-.053.048-.238.015-.344-.16-.32.019-.456.145-.844-.058.233.136.495.305.388.335l.189-.1c.131.092.223.179.32.252.131-.058-.131-.354.213-.194.373.2.053.291.16.262.5.286.32-.019.718.364l-.189-.1c.267.3.8.562.747.819-.078,0-.131.053-.238-.053l.024-.024c-.451-.131.32.184.082.271.053-.121.48.242.664.412l.024-.165c.921.16-.2.2.49.659.475.242-.136-.155.184-.039a2.99,2.99,0,0,0,.776.65c.087.131.286.359.213.5.3.126.756.606.994.577-.368-.417-.543-.17-.945-.7l.238-.029a12.206,12.206,0,0,1,1.081.722l.019-.116a6.546,6.546,0,0,1,1.256.655c-.015.165-.291-.058-.514-.189.262.31.325.247.814.611-.044.126-.344-.223-.465-.165.189.121.393.223.587.33l-.014.019c.194-.126.427.281.81.446a3.5,3.5,0,0,0,1.648.485c.092.126.1.194.024.2-.155-.2-.155-.121-.257-.116.291.155.5.553.305.528.475.218-.1-.194.2-.082l.6.388c-.019-.136-.218-.291.136-.165a8.012,8.012,0,0,1,.761.417c-.078.019.034.2-.233.053a.891.891,0,0,0,.577.247c-.344-.3.684.267.475-.034l.344.3c-.087-.049-.131,0-.252-.082.034.2.339.136.485.194.121.1.47.31.47.383.145.029.431.223.446.33.2.073.063-.087.141-.1l.616.354c-.01.1-.068.349-.179.33.281.049.208-.194.572-.01-.291.053.427.354.024.393a2.884,2.884,0,0,0,1.11.621c.267-.024-.325-.242-.238-.359.95.4,1.178.073,1.828.465l-.16-.121a1.856,1.856,0,0,0,.7.136c-.194.1.281.674,1.013.926.1-.058-.33-.325-.155-.4l.485.175-.107.029c.446.121.7.543.9.407l.33.422-.126-.175c.092-.053.577.121.688.131a1.48,1.48,0,0,1,.892.475c-.058-.1-.2-.344.184-.208-.111.276.766.417.7.548.16.053.407.238.465.136l-.087.155c.126-.218.693,0,1.144.121-.213.281.49.15.577.519.16-.184.8.213.945.053.339.111.238.305.3.407l.184-.029a5.52,5.52,0,0,0,1.154.519l.422-.092.107.116c.073-.034.383.019.218-.1l.194.063c.078-.189.291.019.7.044.082.053.044.092-.048.1.194.053.082.126.17.218-.121-.087.8-.141.3-.368-.015-.087.305-.053.485.034l.068.194.276-.1c.305.058.4.208.64.276-.252-.053-.64.165.01.305a4.432,4.432,0,0,0-.722-.024c.131.039.194.073-.034.087.519.073.194-.044.7.044-.068.131.063.2.495.33l-.305-.16.073-.024c-.121-.039-.15-.068-.16-.126.1.019.63-.044.688.053-.446-.31.921.039.63-.145l.436.121c-.441,0,.276.208.189.272.165,0-.305-.16-.082-.155a1.846,1.846,0,0,1,.543.223h-.112l.373.131c.078-.039-.349-.175.015-.126l.427.131c-.189.039-.087.16-.4.121.252.044,1.057.189.761.029l.3.063c-.179-.078-.684-.272-.082-.155l-.01.019.436.015.17.082c0-.024.073-.034.228,0l.16.107c.451.073.427.019.49,0,.252.039.344.073.213.1.344.068.95.16,1.178.238.47.044-.092-.034.189-.034a10.937,10.937,0,0,0,2.279.4c-.194-.1.208.014.359-.029-.17,0,.713.141.044.078l.407.044c.272.063-.679-.049-.267.044.461.039.766.019,1.3.1-.184.01.417.039.276.053-.112,0-.262-.019-.412-.034l.092.014a4.49,4.49,0,0,0,.819.039c.606.073.475.068.509.078.116.01.383.039.562.053-.373-.029-.684-.078-.514-.068.267.044.9.1,1.067.126-.863-.116-.6-.068-1.411-.2a3.416,3.416,0,0,1-.582-.058c.31.029-.019-.015-.1-.034a4.077,4.077,0,0,1-.49-.053c-.131-.034.3,0-.194-.082l-.1.034c-.194-.034.087-.024-.325-.073.228,0-.058-.058.494.024a8.473,8.473,0,0,0-1.537-.189h.112c-.112,0-.315-.029-.465-.048-.335-.082.276.01.189-.029-.184-.024-.364-.068-.548-.1l-.015-.01a1.2,1.2,0,0,1-.33-.068c.17,0,.238-.01.349-.01l-.582-.063c.068-.015-.461-.155-.048-.087l-.844-.175-.058-.087c-.2-.034-.213-.019.024.044-.281-.087-1.309-.145-1.12-.272-.674-.087-.911-.15-1.721-.3.63.073-.669-.31-.015-.175-.364-.15-.47-.063-.771-.126-.267-.121-.116-.2.194-.15l-.364-.053.01-.019-.32-.024c-.31-.155-.039-.136-.368-.247l-.1.082-.208-.126c.073.073-.131.039-.378-.024l.01-.024-.3-.063c.31.015-.262-.1-.107-.145-.252-.078-.257-.078-.718-.194l.058.1c-.616-.1.01-.126-.47-.276l0,.1c-.64-.388-1.188-.3-1.663-.572.3.073.262-.073.247-.044a9,9,0,0,0-1.639-.4c-.112-.223-.131-.286-.567-.524-.335-.107-.393-.107-.533-.044-.3-.189-.936-.305-.911-.436-.112.073-.281-.121-.49-.1l-.019-.063-.015.131c-.48-.465-1.023-.2-1.513-.64l.111,0-.262-.044.126-.126-1.115-.431.189.17a1.584,1.584,0,0,1-.679-.213c.509.014-.364-.16-.383-.325l.252.053c-.325-.126-.325-.126-.349,0-.436-.136-.2-.344-.635-.383l.271.121c.053.1-.184.112-.368.034-.039-.039-.145-.145,0-.1-.349-.1-.819-.364-.984-.378-.165-.112-.068-.17.039-.16-.751-.2-.31-.155-1.062-.354l.039-.058-.276-.024-.276-.3.082.141a2.93,2.93,0,0,1-.64-.286l.15-.044c-.664-.257-.664-.519-1.333-.674l.131-.015c-.635-.121-.339-.373-1-.465l.044-.1-.286-.063.082-.116-.305.087-.092-.208-.131.014c-.15-.373-.616-.407-.887-.785l-.019.194c-1.1-.184-2.022-1.319-3.2-1.808l.092-.112-.533-.131c-.184-.242.208-.015.17-.126-.519-.228-.305.058-.882-.247-.233-.257.155-.029.315.01a8.477,8.477,0,0,1-1.692-.96l-.039.039a7.241,7.241,0,0,1-1.178-.747c.044-.048.141,0,.242.058-.131-.1-.286-.262-.436-.281l.208,0c-.271-.213-.878-.5-.863-.659,0,.068-.073.145-.315-.024-.01-.272-.722-.383-1.047-.751l.291.121a1.247,1.247,0,0,0-.611-.286l.1-.034c-.33-.175-.659-.354-.974-.553,0-.276-.853-.611-.7-.693-.31-.247.208.281-.208,0-.053-.155-.388-.242-.286-.339l.053.019-.286-.2.262.024c-.257-.16-.519-.184-.6-.107-.179-.238-.543-.431-.567-.611l.107.039c-.684-.436-.8-1.12-1.435-1.348l.078,0-.373-.325.16,0-.732-.4.053-.048c-.393-.373-1.067-.887-1.614-1.324l.1.044c-.635-.431-.494-.548-.955-.868l.063.019-.368-.339.126.024c-.373-.141-.64-.868-.562-.616-.2-.092-.519-.281-.625-.257-.407-.368-.034-.16-.242-.431-.281-.276-.427-.228-.761-.65l.058-.044c-.184-.17-.33-.247-.582-.49l.1.048c-.5-.3-.349-.654-.882-.756-.126-.213-.475-.5-.359-.587-.558-.446-.984-.8-1.508-1.28.1-.242-.112-.1-.3-.514l-.073.107c-.679-.737-1.207-1.794-1.978-2.579l.073-.107-.252-.073c-.718-.945-1.634-2.167-2.235-2.894a3.774,3.774,0,0,1-.931-.882l.044.029a16.5,16.5,0,0,1-1.639-2.123c.078.014.053-.082.141-.019-.242-.1-.33-.431-.446-.6l.063.242a.941.941,0,0,1-.393-.674l-.359-.257v-.092l-.1-.024.015-.281c-.082-.068-.422-.5-.65-.558.024-.063-.155-.412.034-.179l-.8-1.3.082.228c-.087.092-.407-.247-.49-.475.257.2.165-.073.17-.238-.17-.136,0,.208-.112.155a2.387,2.387,0,0,1-.587-.756l.131.1c-.238-.267-.136-.528-.32-.819-.242-.218-.281-.465-.431-.3-.267-.368.039-.228-.019-.364a1.347,1.347,0,0,1-.407-.834c-.4-.053-.519-1.105-.8-1.057l-.058-.393c-.068.024-.247.039-.422-.208-.068-.286.078-.291.1-.4l-.32-.044c-.485-1.6-1.7-3.4-2.177-5.149a19.865,19.865,0,0,1-1.231-2.448l.068.082-.267-.892.131.674a3.261,3.261,0,0,1-.271-.49,20.109,20.109,0,0,0-1.178-3.437c-.538-.674.087-.6-.359-1.265l.141.112a20.556,20.556,0,0,0-.974-1.93c.32,0-.179-.519,0-.49l-.136-.034c.024-.2-.063-.635.039-.6l-.242-.315.111-.063c-.116-.475-.49-1.469-.31-1.779a21.18,21.18,0,0,1-1.11-4.518,2.811,2.811,0,0,1-.32-.965l.087-.393c-.1-.339-.349-.679-.305-1.023l.044.034a3.38,3.38,0,0,0-.252-1.013c-.053-.393-.039-.781.116-.684-.252,0-.1-.829-.1-.829s-.116-1.261-.3-3.229c-.112-.979-.16-2.148-.223-3.418a26.467,26.467,0,0,0-.344-4.068,130.365,130.365,0,0,1-1.275-14.67,4.33,4.33,0,0,0-.015-.461c.01-.325.01-.373.015-.6-.015.495,0-.155-.019.33l.019-.31c-.01.126-.01.121-.019.344v.087c-.015.208-.024.33-.034.475-.01.238.015.388-.024.95l0-.155c-.019.456-.034.276-.044.373l0-.1-.039.383c.029-.291.034-.776.019-.519-.049.543.015-.141,0,.267-.015.252-.029.179-.039.17l-.034.456c-.019-.019.024-.3-.01-.116l-.024.572c-.068.1-.015.625-.1.882.019-.412-.029.034-.044-.034-.034.335-.058.674-.073,1.008-.019.1-.01-.267-.015-.116a2.019,2.019,0,0,0,0,.417l-.111.722c-.1.684.073.3-.01.931-.053.082.019-.509-.049-.228l-.029.664a.638.638,0,0,1-.044-.383,40.527,40.527,0,0,0-.64,4.4c-.107.233-.048-.17-.1-.335a18.256,18.256,0,0,1-.417,2.705l.087.019a29.711,29.711,0,0,0-.4,4.775l.063-.2a5.088,5.088,0,0,1,.238.834c-.048.044-.252-.179-.16.286.029-.1.049-.3.112-.242a26.293,26.293,0,0,0,0,2.977c.082,1.193.228,2.492.286,3.641.2,1.537.49,3.127.693,4.727.247,1.59.587,3.166.926,4.654-.107-.451.194-.32.2.039-.194,1.033.5,1.585.456,2.613.562,1.687.722,3.306,1.551,4.78l-.111.073c.024.252.126.291.218.533l-.034,0c.131.606.548,1.246.606,1.6l.141-.029c.141.335-.034.213.175.533l-.073.015.281.359c-.247.048.349.965.349,1.28.2.431.65,1.212.9,1.876a6.973,6.973,0,0,0,.465,1.513c.242.49.509,1.1.834,1.711s.664,1.27.96,1.9l.131-.1.174.315-.068.024c-.034.335.432.717.465,1.028.044-.233-.1-.238-.189-.422-.068-.3.2-.121.31.271l-.034.01.2.2c-.1.087-.034.335-.131.427.625,1.018,1.227,1.61,1.794,2.7-.184-.034.475.742.145.659.451.587.107-.208.427-.01.1.179.267.33.208.412-.1-.053-.039.223-.145.092l.286.4-.121-.058c.674.761.848,1.571,1.464,2.245.111,0-.175-.31-.068-.305.65.654.31.756.882,1.391l-.2-.078a1.365,1.365,0,0,1,.557.635c-.068.145-.33-.233-.5-.378.165.262.669.858.63.6a1.484,1.484,0,0,1,.32.635c.034-.015-.126-.335.053-.2a16.791,16.791,0,0,0,1.052,1.576l-.1.053c.485.286.2.436.635.96" transform="translate(-256.535 -179.781)" fill="#fff"></path><path id="Path_93669" data-name="Path 93669" d="M487.473,170.77c-.427-.2-.921-.446-1.416-.684-.5-.208-1.013-.407-1.435-.625a1.9,1.9,0,0,1-.8-.184l.044-.175-.252-.053c-.073-.092.189.048.053-.087l-.131.058c.01-.068-.567-.305-.136-.247l-.887-.407c-.194-.092-.17.082-.373-.053l.1-.063c-.606-.412-.9.019-1.488-.291h.063c-.121,0-.325-.073-.335-.053.019.194.145-.048.3.116-.068.131-.267-.01-.3.1-.126-.1-.242-.053-.373-.092-.184-.165-.519-.218-.64-.388a1.024,1.024,0,0,1-.519.024c-.126-.17.073-.092-.131-.213l-.063.068c-.179-.078-.141-.092-.121-.126-.194-.073-.2.053-.427-.087l.165-.029a2.113,2.113,0,0,1-.509-.175l.189.034c-.1-.175-.252-.034-.32-.073.01.044.179.126.068.175-.116-.063-.3.019-.364-.1l.165-.039c-.286-.01-.174.063-.47-.053l.029-.039c-.228.053-.451-.116-.732-.2l.063,0c-.126,0-.208.053-.272.029.15.092.1.107.087.189-.175-.2-.373.068-.7-.111l.2,0c.16-.107.208-.223.446-.228-.141,0-.305-.029-.257-.078l-.078.121-.2-.063c-.058.073.126.179-.078.184-.223-.015-.073-.165-.126-.116-.305-.029-.16.107-.427-.015l.112.01c-.184-.107-.5-.112-.514-.286l.131-.039-.01.024c.252-.053-.194-.019-.087-.145-.01.087-.286-.01-.407-.058l.015.107c-.494.175.073-.189-.354-.267-.281-.01.092.053-.087.078-.175-.068-.223-.17-.495-.2-.063-.058-.2-.136-.194-.252-.175.01-.485-.15-.6-.058.257.145.305-.058.6.145l-.116.087a4.655,4.655,0,0,1-.669-.121l.01.078c-.33-.024-.446.068-.747-.029-.019-.107.16-.053.291-.034-.184-.121-.208-.048-.514-.141,0-.087.208.048.262-.029l-.349-.039,0-.019c-.078.136-.262-.063-.48-.063-.5-.1-.611.078-.907.141l-.044-.126c.112.087.1.034.15,0-.17-.019-.344-.218-.238-.257-.276-.01.082.1-.087.107l-.364-.082c.029.082.155.126-.044.145a3.3,3.3,0,0,1-.446-.082c.034-.029-.049-.126.107-.092a.346.346,0,0,0-.33,0c.218.1-.388.015-.233.155l-.218-.1.141-.015c-.049-.121-.194.01-.276.01l-.3-.116-.276-.087c-.112.01-.019.073-.053.107l-.368-.058.039-.262c-.145.039-.073.179-.286.145.136-.107-.267-.126-.073-.252a1.15,1.15,0,0,0-.654-.136c-.131.082.2.082.175.179-.538-.034-.6.238-.989.141l.1.039a.758.758,0,0,0-.373.082c.078-.111-.242-.373-.65-.383-.039.058.213.136.141.228-.087,0-.179,0-.267,0l.048-.044c-.242.029-.431-.184-.514-.044l-.228-.194.092.082-.368.082a.589.589,0,0,1-.519-.092c.044.053.155.175-.063.184.015-.2-.446-.1-.436-.2l-.252.01.019-.126c-.029.175-.349.145-.592.165.068-.233-.267,0-.368-.218-.053.16-.436.039-.485.175-.189,0-.165-.15-.208-.2l-.087.053a2.317,2.317,0,0,0-.655-.155l-.2.145-.073-.063c-.034.039-.194.058-.1.111l-.107-.01c-.01.155-.15.044-.359.111l.01-.082c-.107,0-.058-.082-.116-.131.073.039-.383.281-.1.349.019.063-.145.111-.247.082l-.063-.136-.126.145c-.16.019-.233-.068-.359-.082.131-.01.3-.271-.048-.262a1.327,1.327,0,0,0,.368-.126c-.073,0-.107-.019,0-.078-.271.044-.092.087-.359.107.015-.126-.063-.165-.3-.2l.175.092-.034.034.1.082-.354.082c.271.194-.47.155-.3.267l-.237-.019c.223-.1-.17-.141-.136-.228-.082.039.179.092.068.141a.576.576,0,0,1-.31-.107l.053-.024-.208-.053c-.034.063.2.1.015.136l-.238-.044c.087-.087.019-.2.179-.223-.136.01-.562.029-.388.141l-.16,0c.1.053.388.145.068.165v-.024l-.218.1-.1-.063-.112.058-.1-.1c-.242.024-.218.082-.247.121-.131.019-.184,0-.126-.082a2.435,2.435,0,0,1-.635-.024c-.242.073.053.024-.087.116-.223-.2-.819-.029-1.217.024.121.184-.107.029-.17.208.082-.063-.393-.121-.044-.2l-.213.034c-.155-.1.349-.1.116-.228-.242.024-.383.242-.669.189.082-.141-.213.058-.155-.092l.213-.058-.053-.024c-.533,0-.141.17-.407.281-.32.039-.262-.087-.286-.15l-.3.048c.189-.1.368.058.286.15-.155-.145-.48.019-.558.087.47.131.32-.015.761.131.053-.053.034-.189.3-.15-.155.078.019.078.063.1l.252-.082c.078.058-.141.194.121.208l.034-.189c.107.019-.034.141.179.082-.111.107.049.15-.247.2.364.136.528-.121.8-.208l-.053.053.242-.073c.184.029-.136.092-.087.141l.291-.024.01.015.174-.01-.17.184.3-.15c-.029.063.257.087.044.15l.451-.058.044.121c.107-.029.107-.053-.019-.063.155.019.674-.267.6-.015a3.972,3.972,0,0,1,.907-.17c-.325.116.383.145.034.2.208.053.247-.082.407-.1.155.053.087.174-.073.223l.189-.058,0,.024.165-.073c.179.068.039.126.223.141l.039-.111.126.063c-.048-.048.058-.073.194-.082l0,.024.16-.024c-.16.068.145.024.073.1a2.044,2.044,0,0,0,.388-.019l-.044-.078c.325-.068.014.112.276.116l-.015-.087c.378.145.64-.087.921,0-.16.019-.121.121-.116.1a3.752,3.752,0,0,0,.882-.121c.087.126.111.165.364.218.184,0,.213-.01.276-.082.179.058.519,0,.524.1.044-.073.16.024.262-.034l.019.039-.01-.087c.31.213.543-.078.853.112l-.058.019.136-.024-.044.112.625.053-.121-.073c.131,0,.228-.082.373-.019-.262.116.208.019.242.121l-.136.024c.184,0,.184,0,.175-.087.242-.019.15.175.378.1l-.155-.015c-.044-.053.078-.116.179-.111l.015.063c.189-.024.47.039.553.01.1.034.058.092,0,.112.407-.049.179.015.587-.015l-.01.048.141-.044.184.131-.063-.073a1.413,1.413,0,0,1,.368.029l-.068.068c.373,0,.412.175.776.116l-.063.039c.339-.073.228.16.572.063l0,.078.155-.029-.024.1.141-.131.078.112.063-.039c.136.208.378.1.572.262l-.019-.131c.582-.175,1.236.271,1.9.305l-.029.1.291-.063c.131.107-.1.068-.063.126.3,0,.145-.121.485-.082.16.1-.073.058-.16.078a3.566,3.566,0,0,1,1.008.15l.015-.034a5.023,5.023,0,0,1,.718.136l-.131.039.267.044-.107.068c.175.053.528.044.548.15-.015-.044.01-.111.165-.078.049.165.431.019.659.15l-.17.015a.6.6,0,0,0,.359,0l-.048.048.582.073c.044.17.533.126.47.223.2.058-.15-.112.107-.058.053.078.238.034.2.126l-.029,0,.179.044-.136.063c.155.024.3-.039.32-.111.131.092.349.107.388.208l-.058.01c.417.073.6.441.96.373l-.039.029.247.073-.082.053.446,0-.019.048c.272.082.693.2,1.042.32l-.058,0c.4.063.344.175.635.223l-.034.01.247.087-.068.024c.218-.034.47.32.393.194.116,0,.315,0,.368-.044.271.092.044.082.194.184.194.073.257,0,.5.145l-.024.044c.126.034.213.029.388.087l-.058,0c.315,0,.291.262.591.141.1.082.335.131.286.223.359.092.635.184.984.3-.01.175.078.024.242.2l.019-.087c.48.208.931.65,1.464.853l-.024.087.145-.039c.548.281,1.246.654,1.663.916a1.58,1.58,0,0,1,.63.218l-.029,0a6.207,6.207,0,0,1,1.236.654l-.073.058c.15-.029.252.136.339.189l-.073-.116a.373.373,0,0,1,.32.252l.238.024.015.049.058-.019.044.155c.058,0,.325.121.461.073,0,.044.15.184.01.116l.64.475-.082-.1c.034-.082.262,0,.344.107-.175-.029-.078.1-.058.189.116.019-.034-.116.039-.126a.9.9,0,0,1,.436.238l-.087-.015c.17.078.155.252.31.349.175.034.238.155.3.01.213.107.019.136.073.189.131,0,.378.228.373.315.233-.111.48.422.63.3l.1.194a.22.22,0,0,1,.276-.034c.092.126.01.179.019.242l.194-.092c.558.684,1.508,1.294,2.138,2.007a10.2,10.2,0,0,1,1.178.819l-.058-.015a3.86,3.86,0,0,1,.33.359,3.279,3.279,0,0,0-.2-.3.82.82,0,0,1,.252.155,6.854,6.854,0,0,0,1.323,1.367c.456.141.073.33.475.5l-.107,0a8.134,8.134,0,0,0,.97.6c-.184.111.213.194.1.242l.087-.034c.034.107.189.276.116.3l.213.063-.053.073c.165.194.587.558.548.781a11.458,11.458,0,0,1,1.668,1.779,1.3,1.3,0,0,1,.417.339l.048.213c.145.116.388.175.441.354h-.034c.131.136.194.315.378.393.121.17.2.364.082.373.15-.092.247.364.247.364s.383.538.984,1.377c.305.417.664.907,1.057,1.445.359.562.751,1.168,1.154,1.794,1.711,2.429,3.3,5.328,4.378,6.239.116.039.286.223.33.1.121.15.024.3.121.286-.073-.252.238-.029.208-.3l.1.131c.073,0-.17-.16-.049-.175l-.165.034a.351.351,0,0,1-.019-.267c-.116-.078-.344-.048-.4-.344l.048.068c-.121-.2.019-.175.019-.233l.024.048-.024-.213c.024.16.262.32.189.208-.1-.272,0,.082-.121-.1-.073-.112.024-.121.068-.136l-.121-.208c.068-.029.073.141.092.019l-.213-.228c.141-.141-.238-.242-.145-.446.145.17.049-.048.116-.048l-.267-.461.073.029c0-.111-.121-.121-.146-.17.024-.068-.194-.344-.078-.393-.1-.359-.213-.053-.31-.383.044-.078.145.223.141.053l-.194-.291a.191.191,0,0,1,.189.121c-.378-.868-.238-1.547-.819-2.211.01-.15.1.044.2.082-.446-.465-.31-.848-.616-1.294l-.068.034a14.78,14.78,0,0,0-1.2-2.2l.01.116a1.643,1.643,0,0,1-.335-.305c.019-.039.184,0,.024-.194l-.01.155a21.115,21.115,0,0,0-1.881-2.919c-.528-.616-.979-1.338-1.537-1.973s-1.086-1.29-1.634-1.867c.165.179-.039.223-.131.058-.107-.587-.616-.611-.8-1.139a11.918,11.918,0,0,0-1.93-1.789l.048-.073c-.068-.116-.136-.1-.238-.184l.019-.015c-.208-.247-.553-.446-.659-.606l-.078.063c-.145-.126-.019-.126-.2-.218l.039-.034-.228-.087c.131-.116-.378-.383-.436-.543a6.831,6.831,0,0,1-.892-.635c0-.112-.354-.4-.558-.621-.461-.339-1.11-.829-1.658-1.309l-.058.1-.15-.112.034-.039c-.039-.194-.359-.247-.436-.4.019.136.1.092.179.16.087.141-.092.136-.223-.039l.019-.019-.155-.034,0-.267a15.027,15.027,0,0,1-1.479-.844c.112-.044-.4-.238-.194-.305-.359-.165-.024.15-.238.15l-.189-.15.068-.1-.223-.136.078,0c-.49-.213-.713-.616-1.159-.8l.082.155c-.456-.16-.291-.325-.722-.47l.126-.029a.512.512,0,0,1-.417-.16c.015-.107.218.029.339.044-.141-.082-.509-.262-.446-.121-.184-.068-.2-.179-.281-.252-.015.019.126.145,0,.131a6.042,6.042,0,0,0-.834-.538l.044-.063c-.291,0-.16-.189-.485-.339" transform="translate(-348.656 -123.182)" fill="#fff"></path><path id="Path_93670" data-name="Path 93670" d="M490.66,166.79l.1-.01Z" transform="translate(-369.243 -124.496)" fill="#fff"></path></g><g id="Group_11730" data-name="Group 11730" transform="translate(262.742 126.359)"><path id="Path_93671" data-name="Path 93671" d="M286.7,182.91l-.019.131C286.724,182.934,286.719,182.91,286.7,182.91Z" transform="translate(-286.68 -179.604)" fill="#fff"></path><path id="Path_93672" data-name="Path 93672" d="M305.82,256.529l0,.116C305.839,256.544,305.835,256.524,305.82,256.529Z" transform="translate(-296.541 -217.531)" fill="#fff"></path><path id="Path_93673" data-name="Path 93673" d="M506.83,176.09l0,0Z" transform="translate(-400.1 -176.09)" fill="#fff"></path><path id="Path_93674" data-name="Path 93674" d="M513.754,214.942h.058l.141.019.111.1a1.225,1.225,0,0,1,.131.238l.136.3h.548l-.17-.368a1.342,1.342,0,0,0-.145-.262l-.136-.112.121-.078.1-.126.048-.218-.058-.233a.5.5,0,0,0-.194-.208.614.614,0,0,0-.344-.087h-.863v1.682h.509v-.64Zm0-.7h.107a.51.51,0,0,1,.247.044l.078.165-.068.155a.6.6,0,0,1-.257.039h-.111v-.4Z" transform="translate(-403.402 -195.569)" fill="#fff"></path><path id="Path_93675" data-name="Path 93675" d="M512.875,215.641a1.745,1.745,0,1,0-1.745-1.745A1.743,1.743,0,0,0,512.875,215.641Zm0-3.083a1.338,1.338,0,1,1-1.343,1.338A1.341,1.341,0,0,1,512.875,212.557Z" transform="translate(-402.315 -194.668)" fill="#fff"></path><path id="Path_93676" data-name="Path 93676" d="M537.37,333.48c-.291.591-.519,1.115-.63,1.406A7.006,7.006,0,0,0,537.37,333.48Z" transform="translate(-415.509 -257.176)" fill="#fff"></path><path id="Path_93677" data-name="Path 93677" d="M358.868,268.976a2.29,2.29,0,0,0,.112-.6A1.607,1.607,0,0,0,358.868,268.976Z" transform="translate(-323.865 -223.637)" fill="#fff"></path><path id="Path_93678" data-name="Path 93678" d="M388.847,360.02l-.107.116C388.764,360.214,388.8,360.209,388.847,360.02Z" transform="translate(-339.261 -270.849)" fill="#fff"></path><path id="Path_93679" data-name="Path 93679" d="M474.171,324l-.751.674C473.706,324.451,473.817,324.315,474.171,324Z" transform="translate(-382.887 -252.292)" fill="#fff"></path><path id="Path_93680" data-name="Path 93680" d="M544.924,204.275l-.024,0,.029.01Z" transform="translate(-419.713 -190.608)" fill="#fff"></path><path id="Path_93681" data-name="Path 93681" d="M538.553,403.854l.01-.024a.541.541,0,0,1-.082-.01A.2.2,0,0,0,538.553,403.854Z" transform="translate(-416.406 -293.415)" fill="#fff"></path><path id="Path_93682" data-name="Path 93682" d="M528.585,399.147a.681.681,0,0,1,.019-.1C528.58,399.05,528.575,399.089,528.585,399.147Z" transform="translate(-411.306 -290.958)" fill="#fff"></path><path id="Path_93683" data-name="Path 93683" d="M488.132,376.453c.218,0,.49.092.48-.107l-.717-.286C487.734,376.157,487.855,376.356,488.132,376.453Z" transform="translate(-390.307 -279.113)" fill="#fff"></path><path id="Path_93684" data-name="Path 93684" d="M419.182,286.448c-.131-.359-.591.082-.621-.238a2.6,2.6,0,0,0-.058,1.217A1.463,1.463,0,0,1,419.182,286.448Z" transform="translate(-354.572 -232.823)" fill="#fff"></path><path id="Path_93685" data-name="Path 93685" d="M409.793,296.621l.092.015-.044-.058.926-.916-.019.107.145-.228a2.333,2.333,0,0,1-1.008.31c-.16.451-.116.616-.039.727Z" transform="translate(-350.098 -237.63)" fill="#fff"></path><path id="Path_93686" data-name="Path 93686" d="M416.462,290.528a.593.593,0,0,0,.3-.548,3.376,3.376,0,0,1-.4.538Z" transform="translate(-353.49 -234.765)" fill="#fff"></path><path id="Path_93687" data-name="Path 93687" d="M412.366,293.519a3.242,3.242,0,0,0,.5-.2C412.671,293.335,412.322,293.407,412.366,293.519Z" transform="translate(-351.431 -236.486)" fill="#fff"></path><path id="Path_93688" data-name="Path 93688" d="M409.12,297.916l-.228-.276.16-.412-.233-.407.048.814-.068.4Z" transform="translate(-349.595 -238.289)" fill="#fff"></path><path id="Path_93689" data-name="Path 93689" d="M403.219,303.259c-.078-.058-.233-.082-.2-.179l-.3.485A.862.862,0,0,1,403.219,303.259Z" transform="translate(-346.463 -241.514)" fill="#fff"></path><path id="Path_93690" data-name="Path 93690" d="M398.364,309.122c.218-.082-.286-.441-.087-.417C398.064,308.186,397.787,310.13,398.364,309.122Z" transform="translate(-344.042 -244.366)" fill="#fff"></path><path id="Path_93691" data-name="Path 93691" d="M345.271,318.486l.538.364a8.885,8.885,0,0,1-.063-2.608c-.01,0-.015.01-.019.01.141-.509.044-.63-.121-.635l-.078-.436c-.145.184-.325.553-.548.529.136.068.431-.092.625-.092l.112.64c-.679.339.024,1.445-.281,2.123Z" transform="translate(-316.716 -247.748)" fill="#fff"></path><path id="Path_93692" data-name="Path 93692" d="M353.468,352.152c.039-.228-.528.024-.407-.136C352.508,351.944,354.055,353.161,353.468,352.152Z" transform="translate(-320.816 -266.725)" fill="#fff"></path><path id="Path_93693" data-name="Path 93693" d="M349.039,305.239l-.131-1.309-.058.184Z" transform="translate(-318.71 -241.952)" fill="#fff"></path><path id="Path_93694" data-name="Path 93694" d="M350.54,293.5c.145.155.422.553.514-.039l-.073-.078a2.643,2.643,0,0,1,.427-1.134,2.89,2.89,0,0,0-.8.751c.078.078.257.116.271.417-.073.281-.2.044-.335.082Z" transform="translate(-319.58 -235.935)" fill="#fff"></path><path id="Path_93695" data-name="Path 93695" d="M351.928,291.1l.141-1.057-.519.383.218.044C351.492,291,351.792,290.971,351.928,291.1Z" transform="translate(-320.101 -234.796)" fill="#fff"></path><path id="Path_93696" data-name="Path 93696" d="M352.525,283.454l.218.049c.112-.373.029-.684-.189-.335C352.583,283.27,352.5,283.348,352.525,283.454Z" transform="translate(-320.601 -231.177)" fill="#fff"></path><path id="Path_93697" data-name="Path 93697" d="M355.66,274.239l.519.01-.3-.359Z" transform="translate(-322.218 -226.476)" fill="#fff"></path><path id="Path_93698" data-name="Path 93698" d="M358.284,268.12l-.354.616c.082.015.1.116.1.233C358.182,268.566,358.429,268.149,358.284,268.12Z" transform="translate(-323.388 -223.503)" fill="#fff"></path><path id="Path_93699" data-name="Path 93699" d="M357.909,270.428a2.3,2.3,0,0,0,.1-.558A1.1,1.1,0,0,0,357.909,270.428Z" transform="translate(-323.372 -224.405)" fill="#fff"></path><path id="Path_93700" data-name="Path 93700" d="M356.521,270.16l-.911,1.571.417-.412Z" transform="translate(-322.192 -224.554)" fill="#fff"></path><path id="Path_93701" data-name="Path 93701" d="M462.622,228.674c-.33-.233-.49.145-.732.519l.053-.058C462.268,229.61,462.448,229.144,462.622,228.674Z" transform="translate(-376.947 -203.144)" fill="#fff"></path><path id="Path_93702" data-name="Path 93702" d="M461.487,230a1.342,1.342,0,0,1-.267.305C461.356,230.494,461.37,230.213,461.487,230Z" transform="translate(-376.602 -203.864)" fill="#fff"></path><path id="Path_93703" data-name="Path 93703" d="M542.575,287.658c-.02-.01-.02-.019,0,0Z" transform="translate(-418.508 -233.563)" fill="#fff"></path><path id="Path_93704" data-name="Path 93704" d="M541.253,283.916v-.01c-.485-.475-.538-.257-.533.2l.562.412C541.345,284.324,541.069,283.834,541.253,283.916Z" transform="translate(-417.559 -231.499)" fill="#fff"></path><path id="Path_93705" data-name="Path 93705" d="M539.12,284.19l.281.208C539.421,284.311,539.387,284.224,539.12,284.19Z" transform="translate(-416.736 -231.782)" fill="#fff"></path><path id="Path_93706" data-name="Path 93706" d="M540.209,285.081c-.194-.155-.373-.315-.577-.461-.039.141-.213.276.252.223C539.68,284.911,539.918,284.911,540.209,285.081Z" transform="translate(-416.966 -232.004)" fill="#fff"></path><path id="Path_93707" data-name="Path 93707" d="M534.412,278.205c.16.073.33.136.48.218-.1-.257-.417-.65-.3-.844-.126.082-.092.451-.184.625l-.722-.3C534.16,278.361,534.33,278.356,534.412,278.205Z" transform="translate(-413.938 -228.377)" fill="#fff"></path><path id="Path_93708" data-name="Path 93708" d="M527.152,274.1a1.982,1.982,0,0,1,1.4.65c.427-.136-.247-.625.155-.65a2.72,2.72,0,0,0-1.406-.024l-.048-.15a1.441,1.441,0,0,0-.524.044c.2.044.378.087.548.112C527.239,274.089,527.2,274.094,527.152,274.1Z" transform="translate(-410.352 -226.491)" fill="#fff"></path><path id="Path_93709" data-name="Path 93709" d="M531.437,275.819a.787.787,0,0,0-.267-.679l.019.514Z" transform="translate(-412.64 -227.12)" fill="#fff"></path><path id="Path_93710" data-name="Path 93710" d="M530.14,275.45l.528.378v-.014Z" transform="translate(-412.109 -227.28)" fill="#fff"></path><path id="Path_93711" data-name="Path 93711" d="M514.258,271.425l-.078,0,.063.078Z" transform="translate(-403.887 -225.203)" fill="#fff"></path><path id="Path_93712" data-name="Path 93712" d="M523.78,272.963c-.048.044-.063.082.044.1a.821.821,0,0,0,.737.136,5.927,5.927,0,0,1-.781-.238c.1-.1.373-.252-.092-.417a2.958,2.958,0,0,1-1.168-.116A12.724,12.724,0,0,0,523.78,272.963Z" transform="translate(-408.183 -225.724)" fill="#fff"></path><path id="Path_93713" data-name="Path 93713" d="M519.91,270.95a4.944,4.944,0,0,0,.543.344C520.307,271.135,519.988,270.858,519.91,270.95Z" transform="translate(-406.839 -224.952)" fill="#fff"></path><path id="Path_93714" data-name="Path 93714" d="M527.794,273.849l.053,0C527.789,273.723,527.779,273.771,527.794,273.849Z" transform="translate(-410.897 -226.415)" fill="#fff"></path><path id="Path_93715" data-name="Path 93715" d="M516.086,271.106a4.28,4.28,0,0,1-1.057-.606c-.538.179-.645.32-.679.451a14.816,14.816,0,0,1,1.532.121l-.112.048Z" transform="translate(-403.974 -224.729)" fill="#fff"></path><path id="Path_93716" data-name="Path 93716" d="M513.308,270.506l.165-.446a8.992,8.992,0,0,0-.7.655C512.949,270.647,513.124,270.564,513.308,270.506Z" transform="translate(-403.16 -224.503)" fill="#fff"></path><path id="Path_93717" data-name="Path 93717" d="M510.243,270.47a3.777,3.777,0,0,0-.383.291l.359.1Z" transform="translate(-401.661 -224.714)" fill="#fff"></path><path id="Path_93718" data-name="Path 93718" d="M499.057,273.54a1.65,1.65,0,0,0-.417-.024A2.331,2.331,0,0,0,499.057,273.54Z" transform="translate(-395.88 -226.281)" fill="#fff"></path><path id="Path_93719" data-name="Path 93719" d="M499.26,273.1c.107-.01.194-.019.271-.024C499.551,273,499.507,272.96,499.26,273.1Z" transform="translate(-396.2 -226.021)" fill="#fff"></path><path id="Path_93720" data-name="Path 93720" d="M498.125,273.468l-.087-.048c-.082.029-.2.073-.4.145A1.723,1.723,0,0,1,498.125,273.468Z" transform="translate(-395.365 -226.234)" fill="#fff"></path><path id="Path_93721" data-name="Path 93721" d="M503.48,271.7a.94.94,0,0,1,.62,0c-.034-.087-.15-.194-.058-.262Z" transform="translate(-398.374 -225.214)" fill="#fff"></path><path id="Path_93722" data-name="Path 93722" d="M496.4,273.69c.087-.558-1.207,1.013-.15.407C496.484,274.137,496.237,273.569,496.4,273.69Z" transform="translate(-394.432 -226.31)" fill="#fff"></path><path id="Path_93723" data-name="Path 93723" d="M348.07,341.64a4.031,4.031,0,0,1-.194-.645c-.063-.01-.1-.01-.063.078a.593.593,0,0,0,.257.567Z" transform="translate(-318.168 -261.046)" fill="#fff"></path><path id="Path_93724" data-name="Path 93724" d="M348.36,342.33h0a2.005,2.005,0,0,0,.223.431l.1-.112A1.666,1.666,0,0,0,348.36,342.33Z" transform="translate(-318.457 -261.736)" fill="#fff"></path><path id="Path_93725" data-name="Path 93725" d="M347.372,336.743a4.853,4.853,0,0,1,.073-.669l-.019.034,0,0h0l-.053.019-.015-.024-.17-.024c.019-.373.1-.078.17.024l.063,0,0,0-.456-1.188a4.189,4.189,0,0,0,.218,1.164l-.044.019A3.415,3.415,0,0,1,347.372,336.743Z" transform="translate(-317.74 -257.918)" fill="#fff"></path><path id="Path_93726" data-name="Path 93726" d="M445.716,288.495l-1.755-1.881a33.1,33.1,0,0,0-3.234-2.259c-1.028-.543,1.774,1.125,3.752,3.534a42.6,42.6,0,0,0-3.7-3.146,3.207,3.207,0,0,0-.79-.553,10.6,10.6,0,0,0-1.416-.8c-2.468-1.537-4.3-3.665-3.631-2.8a22.526,22.526,0,0,0,1.949,2.031c-1.207-.761-3.02-1.624-2.657-1.687a8.332,8.332,0,0,1-1.518-.495c-.562-.218-1.227-.48-1.9-.747-.223-.1-.31-.291-.461-.378a.393.393,0,0,0,.228-.383c-.179.179-.354.1-.427-.223a1.888,1.888,0,0,0,.305-.194c.427-.456.892-.989,1.338-1.508a11.611,11.611,0,0,1,2.085-2.138c1.29-2.085.495-1.561.572-2.167a25.543,25.543,0,0,0,2.293-3.011c.781-1.11,1.343-2.026,1.348-1.5-.339.611-.955,1.542-1.391,2.293-.461.727-.751,1.275-.461,1.125a4.756,4.756,0,0,0,.965-1.537,4.748,4.748,0,0,1,.6-1.367c0,.189.965-1.173.892-.737.567-1.178,1.348-2.846,2.051-4.635-.6,1.377-.524.882-.383.276s.291-1.372-.082-.557c-.17.94-.451,1.837-.7,2.759-1.435,3.083-.533.538-1.207,1.629a21.3,21.3,0,0,0,1.246-3.088,12.556,12.556,0,0,0,.456-1.934c.116-.562.17-1.139.286-1.9.068-.378.131-.81.179-1.324s.165-1.091.2-1.794a23.265,23.265,0,0,0,.456-3.476c-.029,1.871.417,1.547.543.456-.073-.8-.165-1.551-.179-2.279q-.036-.589-.087-1.193l.591.136a12.667,12.667,0,0,0-.722-1.319,12.8,12.8,0,0,0-1.028-3.694c.359.267.436-.136-.107-.892.053.291.141.616-.048.572-.053-.107-.107-.213-.165-.315.063.116.112.213.16.315a.8.8,0,0,1-.267-.16,2.084,2.084,0,0,0,.412.465c.315.708.286.926.179.848a6.408,6.408,0,0,1-.776-.97,13.593,13.593,0,0,0-.921-1.309c.281.15.562.305.834.475-.3-.218-.621-.417-.941-.611-.378-.461-.688-.781-.9-1.023a2.934,2.934,0,0,1-.553-.635.633.633,0,0,1,.431.019c-.141-.044-.3-.111-.456-.16.019-.116.044-.262-.8-1.013l-.175-.116c.039-.1.073-.233.262-.194-.271-.107-.558-.189-.834-.276l.281.281c-.2-.136-.412-.267-.621-.388l.339.107-.2-.2-.16.078a14.855,14.855,0,0,0-4.945-1.8,1,1,0,0,1,.519-.233c-1.45-.194.47-.145-.524-.6a3.616,3.616,0,0,1,.819.068c-.252-.126-.495-.228-.727-.359l.029.034a10.774,10.774,0,0,0-1.532,0c.31.1.7.1,1.406.213-.291.315-.892.393-.79.766-.645-.078-1.256-.136-1.837-.179a2.872,2.872,0,0,0-.524-.878c-.019.184-.034.3-.742.582.1.063.364.15.611.257-.727-.039-1.425-.053-2.114-.044-.567.01-1.144.039-1.721.087a2.472,2.472,0,0,1,1.5-.562c-.485-.524-.184.1-.926-.485.344.383-.223.465-.747.553s-.955.218-.461.553c-.776-.64-1.115-.078-2.08-.548.073.184.378.3-.349.378l-.107.208-.053,0,.044.015.015,0a.854.854,0,0,1,.431.2.507.507,0,0,1-.058.082c-.126.029-.252.044-.383.078a18.618,18.618,0,0,0-2.313.708c-.228-.116-.334-.242.136-.533l-.853.242a2.161,2.161,0,0,0-1.648.364.532.532,0,0,0-.165.048c.2-.485.378-.911.553-1.328.014-.039.029-.073.044-.111.073-.092.16-.2.257-.339l-.238.286c.47-1.149.921-2.327,1.857-4.843l-.548.8c1.052-4.145,1.43-2.8,3.219-8.227.606-1.9,1.091-3.4,1.251-4.208.441-.868.994-1.978,1.421-2.952a31.033,31.033,0,0,1,2.419-4.2,45.305,45.305,0,0,0-3.951,6.477,8.82,8.82,0,0,1,1.319-2.841c.029-.126.058-.267.092-.417l.053-.233c.01-.058.078-.267.116-.4.179-.591.378-1.251.591-1.949a5.53,5.53,0,0,0,.208-1.9,3.81,3.81,0,0,0-.577-1.842,4.418,4.418,0,0,0-.606-.708l-.32-.339-.422-.31c-.509-.446-1.212-.737-1.716-1.154.577.378,1.28.621,1.774,1a6.123,6.123,0,0,1,1.294,1.12,3.722,3.722,0,0,1,.722,1.5,4.782,4.782,0,0,1,.058,1.673,2.8,2.8,0,0,0,.184-1.629,3.937,3.937,0,0,0-.5-1.43,3.522,3.522,0,0,0-.495-.645,3.037,3.037,0,0,0-.65-.645,7.49,7.49,0,0,0-.873-.606c-.325-.184-.669-.359-.979-.562l-.475-.3-.237-.16c1.522.558,2.472,1.139,1.813.664a25.488,25.488,0,0,0-3.544-1.847,7.09,7.09,0,0,0-2.264-.907,9.745,9.745,0,0,0-1.595-.039l-.107.029-3.18-.3h-.01l-.756.213a2.115,2.115,0,0,1,.383,1.978.015.015,0,0,1-.01,0l-.175.126c-.1.073-.223.175-.276.223-.141.126-.267.242-.359.344-.407.417-.7.781-1.013,1.159-.543.7-1.11,1.42-1.648,2.109-.136-.2-.223-.427-.407-.5.427-.766,1.13-.737,1.5-1.178l-.664.354a1.424,1.424,0,0,1,.659-.955c-.717.078-2.3,2.385-3.646,3.209-.048.32-.228.785.078.766l.267-.4c.611-.039-.17,1.062.383.751a3.177,3.177,0,0,1-1.139,2.031l-.456-.044a1.188,1.188,0,0,0,.6-.742c-.058.461-1.537.475-1.231,1.314l.737-.184c-.063.48-.916,1.081-.916,1.081a11.769,11.769,0,0,0-1.12.931c-.562.4-.974.7-1.115.8a1.852,1.852,0,0,1,.078-.2.789.789,0,0,0-.2.058c1.105-1.566.606-1.183-.068-.582-.485-.141.238-1.275-.393-1.6l-.315.722c-.092-.063-.039-.383-.252-.3.252.3.024,1.086-.713,1.27-.092.3.116.582.456.81v0c.029.019.058.039.092.058-.087.049-.126.039-.092-.058-.781,1.1-2.487,3.195-1.522,2.322-.131.1-.262.223-.393.344a2.746,2.746,0,0,0-.776.344l-.058.015c.659-1.619,1.372-2.652.844-1.993a26.541,26.541,0,0,0-2.07,3.559l-.141.587a2.827,2.827,0,0,0-.616.325.662.662,0,0,1,.131.315c-.034.024-.073.053-.126.1s-.078.063-.116.1l-.063.053a2.718,2.718,0,0,0-.335.315c-.15.17-.107.465-.267.7a.12.12,0,0,1-.1.063c.029-.213.281-2.133-.853.509-.019.044-.039.082-.058.126-.373.436-.684.824-.848,1.028.727-1.357,1.367-2.153.824-1.58a26.407,26.407,0,0,0-2.351,3.374l-.271.834c-.039-.039-.073-.082-.112-.121-.111-.1-.184-.2-.276-.3l-.2-.228-.136-.208a2.183,2.183,0,0,1-.189-.388c-.2-.238-.364-.441-.674-.848a8.329,8.329,0,0,0-.558-.674c-.082-.087-.174-.165-.262-.247-.058-.082-.112-.16-.174-.242a.6.6,0,0,0-.044.058l-.01,0,.044-.058a7.164,7.164,0,0,0-1.212-1.241,7.924,7.924,0,0,0-1.77-1.076c-.039-.015.019.034-.1-.029l-.456-.257-.339-.184-.305-.145-.286-.121-.252-.087-.01,0-.727-.354c-.058-.024-.213-.1-.368-.15l-.238-.078c-.1-.029-.208-.058-.31-.082l-.078-.015-.262-.044a3.917,3.917,0,0,0-.892,0,2.447,2.447,0,0,0-.271.049c-.078-.039-.15-.082-.238-.121-.2-.1-.417-.194-.635-.276-.029-.068-.029-.063,0,0a5.818,5.818,0,0,0-.659-.213,4.549,4.549,0,0,0-1.517-.17,2.634,2.634,0,0,0-.814.155l-.747.461-1.6,1a5.709,5.709,0,0,0-1.585,1.3c.175-.116.276-.16.228-.048a3.17,3.17,0,0,1-.237.431c-.233.364-.635.907-1,1.44-.742,1.076-1.343,2-.737,1.493a4.98,4.98,0,0,1,1.7-1.867c-1.988,2.526.024.591-1.028,1.973a17.608,17.608,0,0,1-1.459,1.716c-.208.189-.228.155-.242.111s-.019-.092-.2.053c-.092.063-.228.189-.431.349a4.934,4.934,0,0,1-.669.49l-.063.034.044-.068.078-.17c.082-.107.175-.228.271-.359.208-.286.436-.625.7-1.057.528-.844,1.265-2.138,2.211-3.418a6.684,6.684,0,0,0-1.227,1.411,12.976,12.976,0,0,1-1.362,1.629c.781-.6-.461,1.115.334.33-.228.3-.446.572-.674.814l-.5.533a1.1,1.1,0,0,1-1.629.024,15.662,15.662,0,0,1-.994-1.217,10.55,10.55,0,0,0-1.537-1.614q-1.527-1.44-3.03-2.928a8.205,8.205,0,0,1,1.745,1.314c.446.388.941.819,1.45,1.26.257.228.524.456.781.688a4.529,4.529,0,0,1,.4.368l.393.49c1.338,1.7,1.091,1.27,1.324,1.372.155,0,.223-.131.286-.325l-.2-.068c-.136-.145-.257-.271-.368-.393-.194-.228-.378-.436-.553-.645a24.054,24.054,0,0,0-2.41-2.351,24.59,24.59,0,0,0-1.871-1.959c-.393-.368-.819-.771-1.265-1.188a.9.9,0,0,0-.233-.092.225.225,0,0,0,.058-.048,4.5,4.5,0,0,0-5.735,1.159l-.645.8A3.125,3.125,0,0,1,354.96,229l-.068.1a2.519,2.519,0,0,0-.383.785c-.092-.053-.16-.126-.136-.044a2.381,2.381,0,0,0-.213.931c-.073.175-.141.354-.213.528l.213-.436a2.1,2.1,0,0,0,.068.446q-.349.865-.727,1.789c-.029.073-.063.145-.092.213-.267-.126-.47-.378-.708-.373.082-.873.742-1.13.907-1.682l-.465.591a1.416,1.416,0,0,1,.223-1.139c-.625.359-1.154,3.108-2.06,4.4.082.31.107.81.378.669l.082-.475c.417-.213.354.509.47.63l-.257.814c-.107.218-.145.267-.17.252-.1.359-.262.829-.461,1.367a.673.673,0,0,0-.112.3c-.291.776-.654,1.687-1.028,2.647-.1-.344-.223-.713-.591-.742l0,.785c-.112-.024-.189-.335-.354-.17.354.17.456.984-.141,1.45a.589.589,0,0,0,.407.465c-.179.48-.354.965-.519,1.445a.681.681,0,0,1-.184-.058.3.3,0,0,0,.112.262c-.141.407-.272.814-.388,1.207.116.039.32-.451.553-1.144.092,0,.16-.019.116-.024a.134.134,0,0,0-.049-.17c.15-.446.31-.96.475-1.469a2.107,2.107,0,0,0,.485.082c-.742,2.313-1.343,4.586-2.2,7.641l.5-1.435c-.116.829-.364,1.794-.625,2.87-.082-.427-.131-1.033-.65-.514.179.315.475.058.645.538-.213.877-.441,1.823-.616,2.836l-.015.058c-.029-.359-.184-.417-.33-.184.058-.848.1-1.58-.17-.519a17.853,17.853,0,0,1,.509-2.894,4.81,4.81,0,0,0,.32-2c-.364.81-.776,1.6-1.1,2.448-.121,1.125-.427,2.254-.645,3.34-.121.538-.237,1.062-.349,1.542-.078.49-.136.945-.165,1.348.131-.562.228-1.13.388-1.677.257.368-.131,1.915-.267,2.715l.606-1.091c.1-.688.16-1.319.218-1.905h0v-.01a13.362,13.362,0,0,1,.732-3.9,18.34,18.34,0,0,0-.417,3.7l-.044-.116.034.291v.039c-.01.126-.015.257-.019.393v.019c-.015.359-.029.761-.044,1.275-.015.591-.1,1.324-.141,2.313a1.106,1.106,0,0,1-.126,0c0-.33.01-.708-.019-.95a7.122,7.122,0,0,0-.087.921.192.192,0,0,1-.082-.107l.073.412c0,.155,0,.32,0,.48l-.029.082.034.024c.01.344.019.693.024,1.062,0,.528.087,1.1.116,1.707.053.611.029,1.275.087,2-.262-1.639-.509-4.363-.7-2.2l.228.8-.068-.053c.044.082.087.175.126.267l.1.349c-.145-.019-.368-.063-.247.286a1.267,1.267,0,0,1,.315.422c0,.674-.126.378-.087.839.024.252.044.431.068.558a.364.364,0,0,0-.17-.048l.184,1.29-.073-.078.1.252a2.067,2.067,0,0,1,.3-.882,9.464,9.464,0,0,1,.247,1.435c0,.136.015.315.024.494v.029c.024.417.039.8-.073.514.068.393.131.708.194.979a2.358,2.358,0,0,1-.286-.737,5.065,5.065,0,0,0,.078,1.125c.092.019.238.073.3,0a8.9,8.9,0,0,0,.364,1.1c.078.179.15.354.281.669.029.078.063.17.1.267l.039.271s.078.17.2.393c.024.073.048.145.078.223.107.223.218.47.373.732-.131-.238-.223-.475-.32-.688a.336.336,0,0,1-.01-.034,5.825,5.825,0,0,0,.456.722c-.014.034-.024.068-.039.107a.832.832,0,0,0,.087-.053c.107.126.2.2.272.179.01.048.019.107.034.174h0l.208.092v.048l.01-.044,0-.015a.962.962,0,0,1,.112-.3c.063.121.131.247.189.364-.073.155-.136.315.01.436.024.412.364.276.223.548l.446.621c-.407.179.068,1.231-.451.4l.228.819a2.128,2.128,0,0,0,.315,1.585c.024.412.761.824.33.592l.65,1.193-.1.044c.325,1.27,1.484,2.376,1.154,4.043.233.388,1.193-.136,1.29.606l1.319.15a7.683,7.683,0,0,0,4.286-.718.421.421,0,0,1,.053,0l2.094-.606c-1.59,1.023-2.943,1.493-2.08,1.26a26.627,26.627,0,0,0,3.767-1.658l.877-.751c-.979,1.13-1.988,1.8-1.4,1.464a19.113,19.113,0,0,0,2.3-1.842l1.008-1.459a2.741,2.741,0,0,0,0-.339,2.176,2.176,0,0,0,.1-.494,8.1,8.1,0,0,0,.01-1.561c.228.465.393.974.616.8-.024-.155-.131-1.207-.354-2.312-.058-.485-.116-.979-.165-1.4-.024-.271-.044-.49-.053-.6-.01.2-.116.015-.175.024-.029,0-.044.058-.029.238.019.2.048.373.2,1.246a13.04,13.04,0,0,1-.538-2.8,6.9,6.9,0,0,0-.339-2.06,7.727,7.727,0,0,0,.019-2.506c-.044-.7-.087-1.474-.131-2.206-.058-.771-.116-1.5-.165-2.094-.388.16-.174,1.222-.01,2.4.16,1.115.325,2.264.01,2.628-.111-.718-.184-1.677-.276-2.875-.1-1.222-.291-2.584-.5-3.912,0-.015,0-.029,0-.039a34.993,34.993,0,0,1-.431-3.738,15.772,15.772,0,0,1,.024-1.731c.044-.635.087-1.251.126-1.833.339-2.06.412-2,.461-1.566-.01.029-.015.048-.015.048l-.063,2.385s.029.281.078.688c0,.024,0,.048-.01.073-.073.557-.121,1.033-.141,1.5a13.158,13.158,0,0,0,.286,3.355c-.082-.858-.184-1.784-.2-2.71,0-.461,0-.926.039-1.391.01-.194.034-.388.053-.582a25.1,25.1,0,0,0,.427,2.608c.276,1.042-.412-2.114-.1-5.124a8.856,8.856,0,0,0,.078-1.391c.092-1.057.16-1.973.2-2.642.029-.184.058-.354.087-.524.029-.126.034-.145.058-.228a.577.577,0,0,1,.2-.31l.155-.155c.082-.092.165-.184.242-.276l.49-.533c.32-.335.63-.659.965-1.018.669-.713,1.382-1.571,2.424-2.923-.567.276-.567.145-1.488,1.173a19.184,19.184,0,0,1,2.468-2.86c.412-.679-1.484,1.265-.388-.1.5-.465,1.59-1.421,1.5-1.091l-.2.208a10.584,10.584,0,0,1,1.716-1.479c.112-.073.213-.136.31-.2l.145-.053a1.843,1.843,0,0,0,.3-.053,9.359,9.359,0,0,0,2.943-1.367c-.373.029-1.11.533-1.978.824-.335.048-.092-.189.456-.543.276-.175.625-.383,1.013-.606l.63-.359a8.07,8.07,0,0,0,.8-.5l.2-.15c-.029.087.068.053.2,0a.968.968,0,0,1,.2.126,2.315,2.315,0,0,0-.427.276c-.359.257-.674.436-.751.519a6.612,6.612,0,0,0,.8-.451,2.82,2.82,0,0,1,.485-.262c.01.01.019.015.029.024.17.145.364.334.587.558l.368.368.3.291c-.9-.965-.979-1.212-.81-1.183a1.26,1.26,0,0,1,.441.267c.175.141.495.446.621.577.368.461.747.974,1.071,1.445.165.238.315.47.456.688.068.112.131.213.194.315l.1.194c.228.47.242.747.034.713a.661.661,0,0,1,.388.368c.189.252-.053.524-.223.824-.078.126-.155.252-.237.388-.126.189-.252.383-.383.577l-.9,1.348c1.542-1.983.422-.092.087.562l-1.149,1.333c.092-.267-.082-.388.053-.727-.761.974.044-.378-.688.058.15-.208.305-.427.465-.645a5.243,5.243,0,0,0,.737-.645.879.879,0,0,0-.107-.2c.184-.247.373-.494.558-.737a1.866,1.866,0,0,0-.053.4,2.008,2.008,0,0,0,.213-.436l-.126-.01c.141-.189.281-.373.417-.558a1.623,1.623,0,0,0-.131.611,2.864,2.864,0,0,0,.131-.611l.01-.01s0,0,0,.01v0c-.17.179-.335.354-.485.524-.024,0-.024.01-.014.019-.242.271-.461.533-.664.79a.482.482,0,0,0-.131.111.362.362,0,0,1-.024.078c-.233.305-.441.6-.64.882a3.913,3.913,0,0,1-.388.218l.039,0-.684,1.076a2.884,2.884,0,0,0,.557-.562c-.368.6-.7,1.173-1.052,1.755a3.406,3.406,0,0,0-.514-.1c.112.131.228.238-.044.863a.537.537,0,0,0,.078-.015,16.1,16.1,0,0,1-1.265,1.663c-.073,0-.136.063-.194.155-.078-.136.039-.524.9-1.624-.3.286-.926,1.382-1.789,2.594.179-.669.3-1.547.921-1.963-.684-.136-.078.184-.974.126.974.228-1.42,1.479-.213,1.517-.989-.121-.94.509-1.963.6.16.116.461.063-.068.485-.029-.073-.082-.082-.2.155l.2-.155.029.228-.044.024.044-.01.015,0a.776.776,0,0,1,.456-.044c.107.557-.63,1.328-.7,1.755-.339.228-.053-.276-.359-.262l-.107.635c-.359-.262-1.26.276-.81-.587l-.592.606a2.118,2.118,0,0,0-1.212,1.067c-.339.228-.33,1.071-.344.582l-.7,1.159-.087-.068-2.521,3.282a5.79,5.79,0,0,1-1.26,1.256l2.424.247a.464.464,0,0,0,0,.082,1.527,1.527,0,0,0,.078.359,1.941,1.941,0,0,0,.242.436l.16.223c.213.271.378.47.519.645l-.165,1.2a.281.281,0,0,1-.024-.053,2.192,2.192,0,0,1-.2-.907l.01-.223,0-.053,0-.019c-.238-.039-.49-.082-.776-.131l-.01.068a3.03,3.03,0,0,0-.015.6c0,.015,0,.029,0,.039q-.175-.124-.32-.233a4.279,4.279,0,0,1-.669-.558c-.228-.252-.325-.267-.228.1a4.354,4.354,0,0,0,.519.7l.33.359c.179.184.364.378.553.572l.116.121c.01.019.019.044.029.063.082.145.131.223.2.33l.107.15.058.078.116.141c.155.184.262.3.383.431.213.223.427.436.635.645-.364-.344-.4-.354-.015.145a46.8,46.8,0,0,0,3.6,3.835,8.853,8.853,0,0,1,.916,1.837,10.354,10.354,0,0,0,1.294,2.036,2.962,2.962,0,0,0,.873.761c.368.16.344-.155.276-.495.567.645.994,1.067,1.357,1.445.194.2.373.388.558.572.233.228.461.451.7.693l.024.019.717.514,0,0,.014,0,.024.01.053.019.107.034.208.058.427.1c.3.015.592.034.882.039.252,0,.5,0,.747,0,1,0,1.978-.01,2.967-.019h.053c-2.637.776-5.566.412-4.4.63a26.752,26.752,0,0,0,4.111.136l2.39-.635a2.732,2.732,0,0,0,.422-.557h0c.039.048.029.029,0,0,.058-.116.078-.218.024-.281l.058-.1c.087-.179.184-.344.267-.553a5.189,5.189,0,0,0,.16-.751l.058-.451.029-.252c.1-.049-.393-.049-.349-.078l.053-.078c.15-.2.3-.407.456-.616,1.513-2.3.558-1.59,0-1.193.524-.824,1.042-1.648,1.493-2.506l-.286.349c.053-.722,1.333-2.933,2.051-4.717.155.053-.262,1.159-.141,1.091a20.5,20.5,0,0,0,1.842-5.352c.141.034.184,1.27-.611,3.171-.107.194-.121.073-.238.257l-.538,1.648-.621,1.629c1.5-3.728,2.443-5.91,2.792-5.7.96-3.888-1.294,3-.082-1.59,2.342-5.871,2.123-11.5,3.646-14.694.082-1.517.17-3.185.271-5.1a6.544,6.544,0,0,0-.068-1.382c-.053-.33-.107-.674-.16-1.023a2.077,2.077,0,0,1,.063-.97,3.753,3.753,0,0,1,.679-1.1c-.252-.184,1.639-2.414,1.076-2.308a23.8,23.8,0,0,0-1.876,2.39,2.475,2.475,0,0,0-.461,2.012,8.692,8.692,0,0,1,.228,2.322,15.851,15.851,0,0,1-.577,3.146c-.112,1.891.233,1.294.286,2.157a11.708,11.708,0,0,1-.708,3.418c.378-3.893-.572-1.149.082-6.046-.339.587-.79,4.562-1.149,6.312-.058-.538-.31-.039-.616,1.081,0-.116,0-.252,0-.388.48-2.957.931-6.225,1.387-9.885a13.264,13.264,0,0,0-.136-2.162,3.55,3.55,0,0,1,.669-2.361c.684-.941,1.653-2.264,2.376-3.209.15-.2.32-.4.49-.611.242-.3.5-.6.718-.921.533-.766,1.406-1.978,2.279-3.112-.044.092-.087.189-.131.281.223-.335.456-.664.684-.994.247-.31.485-.606.708-.873a22.929,22.929,0,0,1-1.425,3.374c.558-.747,1.2-1.561,1.871-2.356.339-.4.684-.79,1.028-1.134.422-.427.78-.834,1.134-1.241,1.4-1.624,2.613-3.122,3.331-4.087.781-.572,1.222-.732,1.139-.267.078-.121.16-.238.238-.354l.107-.16c.213-.3.422-.582.63-.844a48.635,48.635,0,0,1-2.448,6.962c-.591,1.236.194-1.144.325-1.876-.451.509-.732,2.618-1.212,3.006a12.26,12.26,0,0,1,.761-2.5l-1.789,4.863a.81.81,0,0,0-.039-.417c.01-.029.024-.058.034-.087a.588.588,0,0,0-.034.082c-.228-.373-1.217,1.488-1.217,1.488l-.984,5.178s-.019.388-.044,1c-.422,1.018-.848,2.007-1.183,2.7a2.919,2.919,0,0,1-.567.218l.155.475-.078.034.068.063c-.145.223-.223.257-.2,0-.325,1.207.087.47.238.514-1.309,3.408-.945,3.975-1.711,6.026l.858-1.45c-1.547,3.2.165.95-1.2,3.781-.087-.587-.49-.524-.984-.16a4.021,4.021,0,0,1-.49,1.571c-.16.344-.325.713-.49,1.076a2.04,2.04,0,0,0-.1.286,2.485,2.485,0,0,0-.073.378,2.516,2.516,0,0,0-.014.378l0,.092h-.014v-.015l-.01.029-.029.145c.092-.1.141-.058.165.078a4.4,4.4,0,0,1-.078.7c-.1.519-.145.9.315-.044-.708,2.972-1.794,4.189-2,6.7.242-.751.092-.063.107.776a3.787,3.787,0,0,0,.184.97c.068.189.121.208.155-.112.024.378.048.747.073,1.091.01.174.015.344.024.5l.01.247a1.34,1.34,0,0,0,.048.305,1.372,1.372,0,0,0,.732.863,1.433,1.433,0,0,0,.495.141l.267-.048.126-.053.17-.078c.766-.373,1.105-.431.868-.048-.233.16-.456.315-.824.528l-.073.039a1.409,1.409,0,0,1-.349.116l-.165.019-.053,0-.078-.01a2.133,2.133,0,0,1-.412-.092,1.964,1.964,0,0,1-.688-.407,2.066,2.066,0,0,1-.611-1.1.652.652,0,0,0-.073-.238l-.078-.029a3.018,3.018,0,0,0,.087.548,2.042,2.042,0,0,0,1.847,1.44l.092,0,.267-.039a1.493,1.493,0,0,0,.291-.107l.068-.039c.17-.1.262-.17.373-.242l.587-.431c.751-.572,1.474-1.154,2.2-1.736,1.207-.756,2.589-1.842,3-1.716,1.081-1.454,4.189-2.991,5.008-4.135a15.635,15.635,0,0,1-3.306,2.3l.625-.577c-.1.078-.208.155-.359.257.5-.64,1-1.285,1.527-1.915-1.973,1.193-.107.538-2.642,2.531-1.26.669-.184-.509.955-1.624.31-.305.616-.6.882-.858.2-.126.436-.291.737-.514,2.618-1.92,6.1-2.817,4.916-2.574a22.038,22.038,0,0,0-2.686.863c1.319-.907,2.681-1.8,4.106-2.676-.257.291-.6.64-.359.737.7-.461,1.469-.979,2.027-1.387.112.053.509-.116,1.513-.771,2.72-1.779,6.24-2.492,5.042-2.313a19.407,19.407,0,0,0-2.235.567l.31-.16c.611-.31,1.2-.567,1.639-.756a13.252,13.252,0,0,1,3.282-.519h.116a3.488,3.488,0,0,1,1.576.388,6.437,6.437,0,0,0,.174,1.556c.591,3.195-.111,6.719.184,5.546a32.6,32.6,0,0,0,.48-3.912l-.145-1.643.335,1.071.2,1.1-.461,2.676a9.69,9.69,0,0,0-.184,1.057l-.034.208-.01.194c-.01.073-.015.145-.024.223a19.126,19.126,0,0,1-.911,4.014c-.087.16-.179.325-.276.485-.378.611-.771,1.256-1.178,1.92A14.521,14.521,0,0,0,424.748,270c.572-1.731-2.23,3.306-1.1.577a10.636,10.636,0,0,0-1.13,1.75,4.8,4.8,0,0,1-.684,1.1,1.252,1.252,0,0,1-1.3.131,9.527,9.527,0,0,1-1.2-.572c-.16-.092-.514-.276-.766-.4-.257-.141-.558-.252-.8-.373a3.49,3.49,0,0,1,1.154.194,7.113,7.113,0,0,0-2.565-.567,5.043,5.043,0,0,0-1.571.233l-.3.092-.15.048-.252.15a2.884,2.884,0,0,0-.8.8,5.694,5.694,0,0,0-.732,1.813l.427-.015c-.136,1.13-.451,1.372-.587,2.259.2-.65.717-2.211.708-1.338-.087.64-.141,1.207-.228,1.76-.049.276-.1.548-.175.81a3.657,3.657,0,0,1-.131.388c-.053.131-.165.344-.257.514-.092,0,.029-.325.107-.616.063-.252.141-.587.189-.882,0,0-.044.17-.126.393a4.222,4.222,0,0,1-.441.921,2.436,2.436,0,0,0-.31.64,4.6,4.6,0,0,0-.063.645,3.735,3.735,0,0,1-.063.756,3.074,3.074,0,0,1,.16-2.23,2.512,2.512,0,0,0,.267-.785,3.381,3.381,0,0,0,.049-.659,4.685,4.685,0,0,1-.315.853l-.063.121-.107.184c-.073.121-.131.213-.175.291-.165.3-.17.257-.15.145s.087-.32.044-.349-.228.112-.524.747c.17-.165.155.058.179.528s.1,1.2.213,2.041c.063.417.116.873.228,1.314a3.336,3.336,0,0,0,.223.64,2.053,2.053,0,0,0,.17.233l.024.281-.082-.068c.024.039.058.073.087.112l.053.64a18.451,18.451,0,0,0-1.425-2.56c-.7-.931,1.178,1.886,1.324,4.547.082,1.547.344,1.542.548,1.265.039.141.034.267-.136.315a1.225,1.225,0,0,1,.814.087c.325.892-.781-.388-.669.509.252-.305,1.134.082,1.731.17.179-.6-1.018-.781-1.614-.868.441-.7,1.721-.926,3.04-.548.994.383.1.693.31.693a2.067,2.067,0,0,0,1.43.48c.538.378,1.12.776,1.765,1.2-.174.271-.519.407-.567.664-.824-.286-.926-.984-1.425-1.27l.465.591a1.415,1.415,0,0,1-1.052-.48c.2.693,2.754,1.847,3.8,3.03.32,0,.815.087.742-.208l-.446-.194c-.145-.6,1.076-.014.674-.509.063.01.131.014.2.024.465.272.9.524,1.309.756a.4.4,0,0,0-.107-.015c.461-.024.737,1.43,1.508.984l-.141-.31c.2.1.4.184.6.262-.1.315.276.407.659.567l-.068-.044c.121-.116.155-.208.141-.281.087.024.17.053.257.073,1.067.48,1.091.64,1.285.853a1.984,1.984,0,0,0,.587.427c.213.335.4.679,0,.684-.824-.286-.514-.49-.756-.882.039.6-1.29.019-1.517.722l.766.184c-.048.1-.368.107-.247.3.247-.3,1.062-.213,1.377.475.47.058.781-.543.9-1.217.247.121.548.267.916.441-.262-.344.242-.141.931.233-.291.063-.543.116-.49.5.669.388.65-.01,1.139.082-.674-.354-.373-.281-.175-.32.019.015.044.024.063.039.931.538,1.915,1.246,2.1,1.047l.868.8a18.36,18.36,0,0,0-2.87-.882c-1.154-.184,2.153.543,4.106,2.366a5.493,5.493,0,0,0,.829.674.828.828,0,0,0,.116.291.353.353,0,0,0,.223-.175c.078-.014.107-.082.107-.174a.323.323,0,0,1,.073-.068,1.566,1.566,0,0,0,.354.141c.495.126.32-.189.621-.2a3.937,3.937,0,0,1,.882.2c.238.073.519.145.863.233a1.765,1.765,0,0,0,.616.029h.01a2.159,2.159,0,0,0,.465-.112c-1.173,2.075.892.427.892.427l1.052-2.017c.058.044.058.213.024.412a3.008,3.008,0,0,0-.116.747c.019.063.082.068.208-.019a2,2,0,0,0,.587-.659,14.271,14.271,0,0,0,.456-1.765c.233-.495.456-1.013.669-1.542l.562-1.532c-.015.068-.029.141-.049.242.073-.31.155-.65.242-1.013.141-.509.286-1.033.422-1.508a10.73,10.73,0,0,1,.771-2.162c.039.3-.616,2.666-.562,2.957.165-.9.611-2.424,1.149-4.164l-.014-.015A4.786,4.786,0,0,0,445.716,288.495Zm-4.174-37.766-.063.1c-.019-.2-.044-.4-.063-.591A1.205,1.205,0,0,1,441.542,250.728Zm-95.23,10.234c-.063.073-.087-.01-.1-.17l.111-.286C346.316,260.652,346.311,260.807,346.311,260.963Zm.533-5.473c.116-.15.223-.228.3,0-.019.087-.039.16-.058.233-.049-.029-.087-.116-.107-.32-.1.4-.078.64,0,.737C346.772,256.851,346.8,256.245,346.845,255.489Zm13.066,29.045c.31-.073.611-.145.882-.208.315-.068.6-.131.824-.179.2.053-.247.2-1.042.417-.024,0-.048.015-.073.019-.339.015-.655.029-.926.034C359.687,284.587,359.8,284.558,359.91,284.534ZM354.9,229.44l.112-.126a.235.235,0,0,1,0,.058c0,.029-.01.053-.015.082l-.048.078-.092.247c-.015.039-.029.082-.044.121a.177.177,0,0,1-.16.029A5.116,5.116,0,0,1,354.9,229.44Zm-4.664,13.579c-.092.014-.165-.034-.2-.194.073-.747.281-.664.548-.834C350.466,242.336,350.35,242.68,350.238,243.02Zm.378-1.12c-.175-.01-.252-.208-.325-.456a.879.879,0,0,0,.039-.1c.208-.383,1.4-3.045,1.139-1.818-.208.073-.218.407-.276.761l.024-.073a0,0,0,0,1,0,0C351,240.795,350.8,241.352,350.617,241.9Zm4.412,42.377a1.25,1.25,0,0,1-.616.019c-.625-.339-.984-.65-1.086-.548l.044.044a4.479,4.479,0,0,1-1-1.1c-.5-.941.383-.591.218-.727-.388-1.736-1.382-1.726-1.5-2.977.01.019.024.039.034.058.116.2.228.4.339.591l.179.31c.078.131.16.262.247.388a13.556,13.556,0,0,1,.931,1.464c.141.252.33.591.562.96a6.42,6.42,0,0,0,.771,1,4.062,4.062,0,0,0,.941.47Zm6.855.708.087-.034c-.053.039-.107.078-.16.121A.986.986,0,0,0,361.883,284.985Zm16.391-45.514v-.029l0,.039Zm3.7-14.724-.1,0h-.024v.354c-.078-.029-.194-.073-.407-.141l-.223-.058-.116-.024a3.419,3.419,0,0,0-.485-.048c.015-.044.024-.082.029-.092l.01-.01-.078-.092c0-.015-.247-.136-.4-.223a.378.378,0,0,1,.078-.01,3.572,3.572,0,0,1,.722.019l.228.039.063.015.252.068.242.082.092.039.155.078A.073.073,0,0,1,381.979,224.748Zm-14.9,43.153,0,0,0,0Zm11.771-18.156-1,1.164c.48-.7.717-1.071.8-1.241A.4.4,0,0,0,378.847,249.744Zm-1.377.771a8.078,8.078,0,0,1,1-1.736c.078.3,0,.63.126.819C378.275,249.865,377.252,251.063,377.47,250.515Zm-3.558,4.315.019.01c-.267.354-.553.708-.858,1.047A2.157,2.157,0,0,1,373.911,254.83Zm-.878,1.159c.5-.407,1.144-.814-.048.848l-.019.019c-.01-.068-.063-.082-.208,0C372.845,256.58,372.922,256.284,373.034,255.988Zm-5.25,5.73c.557-.907.7.034.737-.179,1.44-1.338.073-2.211,1.624-3a.693.693,0,0,1,.732.3l-.179.17c-1.2,1.377-1.328,1.687-1.377,1.954l-.039.208-.014.184a.65.65,0,0,1-.126.276,2.8,2.8,0,0,1-.509.4,4.942,4.942,0,0,1,.693-.257l.242-.179.126-.1.184-.17a.494.494,0,0,1-.1.267,1.9,1.9,0,0,1-.179.291c-.17.228-.432.31-.911.621-.087.053-.179.107-.267.16.039-.213.179-.461-.019-.485l-.412.655a.124.124,0,0,0,.058.063,8.179,8.179,0,0,0-.732.495A4.446,4.446,0,0,1,367.784,261.719Zm1.309.635c.247-.2.461-.281.611-.538l.131-.165.2-.242c.15-.165.3-.339.47-.524.388-.179-.01.368-.5,1a2.227,2.227,0,0,1-.33.383c-.155.1-.31.2-.461.3a9.355,9.355,0,0,0-.95.674c-.354.194-.654.359-.936.509,0-.068-.015-.131-.015-.2C368,263.13,368.545,262.742,369.092,262.354Zm-1.711,5.949-.184-.242-.044-.063a.824.824,0,0,1-.068-.116l.65-.441c.019.048.029.1.048.141l.044.078.15.252c.31.461.621.868,1.125,1.488-.082.116-.378-.015-.785-.3a7.21,7.21,0,0,1-.708-.562Zm22.223-36.68c-.01-.01-.019-.014-.024-.024s.019-.015.029-.019c-.019,0-.039,0-.058-.01-.213-.2-.344-.33-.436-.427l-.121-.121c-.048-.049-.092-.1-.15-.155-.175-.184-.335-.354-.475-.5-.175-.184-.325-.344-.456-.48-.1-.107-.2-.2-.281-.291-.1-.1-.2-.2-.291-.3l-.3-.388a6.3,6.3,0,0,0-.819-1.028,6.548,6.548,0,0,0-.945-.785,8.344,8.344,0,0,0-.95-.572c-.092-.068-.189-.136-.286-.208s-.218-.15-.335-.233l-.242-.155a3.53,3.53,0,0,0-.412-.2l0,0c.32.121.354.155.475.2.1.044.189.087.276.126.15.068.271.116.378.155.252.1.223.019.31,0a3.264,3.264,0,0,1,.727.2,5.382,5.382,0,0,1,.945.461,5.323,5.323,0,0,1,1.12.916c.107.116.218.247.33.383l.456.528c.039.044.073.082.092.107l.1.126a4.878,4.878,0,0,1,.364.5c.1.165.189.3.257.407a1.309,1.309,0,0,1,.17.339c.015.1-.126,0-.291-.136s-.354-.31-.378-.257a2.828,2.828,0,0,0,.538.945c.136,0,.276-.015.407-.024l.136.228c.145.16.276.32.431.475.1.092.184.184.272.281l-.126.383A4.789,4.789,0,0,0,389.6,231.622Zm3.99-4.126.2-.373a.264.264,0,0,1,.029-.039.213.213,0,0,1,.039.053Zm1.251-1.682c-.039.049-.073.1-.112.145-.01,0-.019,0-.029,0,.053-.068.1-.126.141-.17C394.845,225.795,394.85,225.8,394.845,225.814Zm11.029-10.322.019-.044c.116-.252.281-.509.4-.732a1.861,1.861,0,0,0,.131.189,12.156,12.156,0,0,1-.674,1.081A1.213,1.213,0,0,1,405.875,215.493Zm-6.157,4.087c.388-.7.548-.475.9-.558-.305.272-.64.577-.873.766A.289.289,0,0,1,399.718,219.579Zm.257.562c.024.01.049.019.078.029-.024.1.039.078.116.039.063.019.131.034.2.053l-1.324,1.551a.984.984,0,0,0-.039-.281C399.252,221.136,399.587,220.646,399.975,220.142Zm-1.27,1.915a.467.467,0,0,1,0,.145c-.034.039-.073.078-.107.116A1.025,1.025,0,0,1,398.7,222.057Zm-.305,35.75h-.044c.417-.039,1.1-.107.577-.058h0l-.024,0-.1.015A2.9,2.9,0,0,1,398.4,257.806Zm-.824,6.487c-.286.218-.562.1-.044-1.634.5-1.828.926-1.9,1.459-3.36a9.172,9.172,0,0,1-.848,2.909l.145.015C398.031,262.936,397.778,263.643,397.575,264.293Zm7.936.141-3.326,3.059c-.281-.015.674-1.008.674-1.008-1.042.882-1.92,1.517-2.676,2.07-.383.276-.737.524-1.091.756-.175.116-.349.228-.528.335a.871.871,0,0,1-.3.131.933.933,0,0,1-.305-.068.866.866,0,0,1-.145-.082,1,1,0,0,0,.465.116c.223,0,3.549-2.642,3.728-2.788.8-.659,1.6-1.319,2.22-1.842.572-.48,1.159-.95,1.745-1.42a6.333,6.333,0,0,1-.882,1.057Zm13.313-24.4c.218-.155.431-.315.654-.465a6.651,6.651,0,0,1,.688-.053,10.3,10.3,0,0,0-1.246.776C418.62,240.319,418.79,240.174,418.824,240.038Zm-.427.252-.092.1a.578.578,0,0,0-.044-.073Zm-3.185,1.891c-.3.174-.538.33-.873.533l-.257.174c.053-.131.112-.262.16-.388.863-.427.916-1.091,1.391-1.454.247-.087.494-.165.747-.242.078,0,.155-.01.242-.01a.693.693,0,0,1,.509.688c-.393.15-.858.344-1.251.533C415.1,242.394,414.538,242.676,415.212,242.181Zm7.985,51.37c.044-.092-.068-.286-.233-.431.107.058.208.112.31.17Z" transform="translate(-316.85 -191.664)" fill="#fff"></path><path id="Path_93727" data-name="Path 93727" d="M497.4,241.32a31.5,31.5,0,0,1-1.459,4.625c-.48,1.1-.984,2.424-1.333,3.374-.272.737-.451,1.251-.451,1.251a27.27,27.27,0,0,1-1.377,3.491,16.3,16.3,0,0,0-.941,2.022,30.337,30.337,0,0,0,2.89-5.915A49.331,49.331,0,0,0,497.4,241.32Z" transform="translate(-392.377 -209.696)" fill="#fff"></path><path id="Path_93728" data-name="Path 93728" d="M491.6,271.76c-.078.116-.15.218-.218.31l.184-.223S491.579,271.813,491.6,271.76Z" transform="translate(-392.14 -225.379)" fill="#fff"></path></g><path id="Path_93729" data-name="Path 93729" d="M415.543,310.257a58.726,58.726,0,0,1,4.984-6.613c1.857-1.852-3.282,3.864-4.984,10.128s-1.963,1.285-1.963,1.285Z" transform="translate(-89.316 -115.263)" fill="#fff"></path></g></g></svg> 