<?xml version="1.0" encoding="UTF-8"?> <svg xmlns="http://www.w3.org/2000/svg" width="977.723" height="497.425" viewBox="0 0 977.723 497.425"><g id="Group_12083" data-name="Group 12083" transform="translate(-16339.001 -2360.931)"><path id="Path_103632" data-name="Path 103632" d="M312.011,451.313v2.979a24.213,24.213,0,0,0-12.093-3.433,15.248,15.248,0,0,0-10.8,25.8c2.827,2.853,6.69,4.292,11.537,4.292a20.2,20.2,0,0,0,9.34-2.1v-9.214H302.8v-2.2h9.871V480.5a27.862,27.862,0,0,1-12.117,2.878,18.458,18.458,0,0,1-13.228-5.024,17.465,17.465,0,0,1-.1-24.967,18.248,18.248,0,0,1,13.1-4.973,27.978,27.978,0,0,1,11.688,2.9" transform="translate(16195.146 2216.534)" fill="#fff"></path><path id="Path_103633" data-name="Path 103633" d="M301.471,448.58v31.884h16.863v2.2H298.82V448.58Z" transform="translate(16220.757 2216.793)" fill="#fff"></path><path id="Path_103634" data-name="Path 103634" d="M327.539,448.41a17.692,17.692,0,0,1,12.824,5.1,17.284,17.284,0,0,1,0,24.816,18.679,18.679,0,0,1-25.6,0,17.343,17.343,0,0,1,0-24.816,17.576,17.576,0,0,1,12.774-5.1m.1,32.516a14.679,14.679,0,0,0,10.755-4.342,15.207,15.207,0,0,0,0-21.382,14.7,14.7,0,0,0-10.755-4.368,14.875,14.875,0,0,0-10.83,4.368,15.085,15.085,0,0,0,0,21.382,14.854,14.854,0,0,0,10.83,4.342" transform="translate(16237.1 2216.534)" fill="#fff"></path><path id="Path_103635" data-name="Path 103635" d="M328.39,448.58h7.094c3.736,0,6.538.783,8.457,2.347a7.876,7.876,0,0,1,2.878,6.463c0,3.281-1.641,5.806-4.9,7.6q7.876,1.7,7.876,8.633a7.961,7.961,0,0,1-3.08,6.589c-2.07,1.641-4.847,2.449-8.355,2.449H328.39Zm2.651,2.2v13.607H334.7c6.21,0,9.29-2.272,9.29-6.791q0-6.816-9.391-6.816Zm0,15.8v13.885h7.043c2.9,0,5.125-.631,6.639-1.868A6.2,6.2,0,0,0,347,473.572q0-6.967-10.047-6.968h-5.907Z" transform="translate(16265.836 2216.793)" fill="#fff"></path><path id="Path_103636" data-name="Path 103636" d="M357,448.48l15.753,34.333h-2.777l-5.4-11.79H347.914l-5.377,11.79H339.76l15.752-34.333Zm6.589,20.373L356.245,452.8l-7.321,16.056Z" transform="translate(16283.17 2216.64)" fill="#fff"></path><path id="Path_103637" data-name="Path 103637" d="M359.091,448.58v31.884h16.864v2.2H356.44V448.58Z" transform="translate(16308.604 2216.793)" fill="#fff"></path><g id="Group_12047" data-name="Group 12047" transform="translate(16448.053 2571.336)"><path id="Path_103638" data-name="Path 103638" d="M318.178,416.076a15.529,15.529,0,0,1,6.261,13.1,15.909,15.909,0,0,1-3.459,10.35,16.829,16.829,0,0,1-9.492,5.655c4.973.758,8.861,2.727,11.664,5.958a17.633,17.633,0,0,1,4.216,12.067q0,9.164-6.866,14.314-6.892,5.15-19.01,5.15h-31V411.33h30.471c7.321.025,13.051,1.59,17.217,4.746m-7.448,22.746a9.5,9.5,0,0,0,3.61-8,9.306,9.306,0,0,0-3.61-7.851c-2.423-1.843-5.831-2.727-10.249-2.651H280.31v21.307h20.171c4.443,0,7.851-.935,10.249-2.8m2.2,31.884A10.025,10.025,0,0,0,317.42,462a9.661,9.661,0,0,0-4.493-8.457c-3-2.045-7.144-3.055-12.446-3.055H280.31v23.25h20.171c5.326.051,9.467-.934,12.446-3.029" transform="translate(-270.49 -411.33)" fill="#fff"></path></g><g id="Group_12048" data-name="Group 12048" transform="translate(16520.66 2571.362)"><path id="Path_103639" data-name="Path 103639" d="M345.322,482.682,331.16,460.265c-1.641.151-2.954.2-3.963.2H309.045v22.215H299.25V411.34h27.921c9.038,0,16.005,2.1,20.953,6.26,4.923,4.166,7.4,10.123,7.4,17.8q0,8.672-4.039,14.566a22.523,22.523,0,0,1-11.562,8.558l16.611,24.159ZM327.2,451.58q9.163,0,14.061-4.014t4.9-11.865q0-7.649-4.9-11.562Q336.373,420.2,327.2,420.2H309.045V451.58Z" transform="translate(-299.25 -411.34)" fill="#fff"></path></g><g id="Group_12049" data-name="Group 12049" transform="translate(16594.375 2571.362)"><path id="Path_103640" data-name="Path 103640" d="M328.45,411.34H377.98V420.2H338.219v22.013h35.57v8.861h-35.57v22.746h40.973v8.861H328.45Z" transform="translate(-328.45 -411.34)" fill="#fff"></path></g><g id="Group_12050" data-name="Group 12050" transform="translate(16651.018 2571.362)"><path id="Path_103641" data-name="Path 103641" d="M413.8,482.682l-7.549-17.318H368.637l-7.447,17.318h-10.3L382.6,411.34h10.2L424.4,482.682Zm-41.275-26.2H402.49l-15.1-34.661Z" transform="translate(-350.89 -411.34)" fill="#fff"></path></g><g id="Group_12051" data-name="Group 12051" transform="translate(16734.916 2571.362)"><path id="Path_103642" data-name="Path 103642" d="M443.976,482.682h-11.84l-25.068-32.92-13.152,14.264v18.656h-9.8V411.34h9.8v40.038l36.5-40.038h11.714l-28.249,30.773Z" transform="translate(-384.12 -411.34)" fill="#fff"></path></g><g id="Group_12052" data-name="Group 12052" transform="translate(16797.818 2571.362)"><path id="Path_103643" data-name="Path 103643" d="M409.04,411.34h55.741V420.3H441.757v62.38h-9.8V420.3H409.04Z" transform="translate(-409.04 -411.34)" fill="#fff"></path></g><g id="Group_12053" data-name="Group 12053" transform="translate(16864.766 2571.362)"><path id="Path_103644" data-name="Path 103644" d="M435.56,411.34h9.795v31.783h40.77V411.34h9.9v71.342h-9.9V452.009h-40.77v30.673H435.56Z" transform="translate(-435.56 -411.34)" fill="#fff"></path></g><g id="Group_12054" data-name="Group 12054" transform="translate(16945.613 2571.362)"><path id="Path_103645" data-name="Path 103645" d="M513.652,482.682l-14.163-22.417c-1.64.151-2.954.2-3.963.2H477.375v22.215h-9.8V411.34H495.5c9.037,0,16.005,2.1,20.953,6.26,4.923,4.166,7.4,10.123,7.4,17.8q0,8.672-4.014,14.566a22.629,22.629,0,0,1-11.562,8.558l16.611,24.159Zm-18.126-31.1q9.164,0,14.061-4.014t4.9-11.865q0-7.649-4.9-11.562Q504.7,420.2,495.526,420.2H477.375V451.58Z" transform="translate(-467.58 -411.34)" fill="#fff"></path></g><g id="Group_12055" data-name="Group 12055" transform="translate(17012.98 2570.731)"><path id="Path_103646" data-name="Path 103646" d="M550.693,415.886a36.086,36.086,0,0,1,13.606,13.1,34.8,34.8,0,0,1,5,18.3,35.352,35.352,0,0,1-5,18.4,36.287,36.287,0,0,1-13.606,13.254,39.3,39.3,0,0,1-37.817,0,36.282,36.282,0,0,1-13.607-13.254,35.349,35.349,0,0,1-5-18.4,34.865,34.865,0,0,1,5-18.3,36.317,36.317,0,0,1,13.556-13.1,39.769,39.769,0,0,1,37.868,0m-32.617,7.649a27.985,27.985,0,0,0-10.148,9.947,26.214,26.214,0,0,0-3.762,13.809,26.687,26.687,0,0,0,3.762,13.859A27.861,27.861,0,0,0,518.076,471.2a26.974,26.974,0,0,0,13.809,3.71,26.355,26.355,0,0,0,13.709-3.71,28.247,28.247,0,0,0,10-10.048,27.638,27.638,0,0,0,0-27.668,27.763,27.763,0,0,0-10-9.947,26.69,26.69,0,0,0-13.709-3.66,27.183,27.183,0,0,0-13.809,3.66" transform="translate(-494.27 -411.09)" fill="#fff"></path></g><g id="Group_12056" data-name="Group 12056" transform="translate(17100.568 2571.336)"><path id="Path_103647" data-name="Path 103647" d="M544.183,468.989q5.452,5.566,15.046,5.554c6.311,0,11.284-1.843,14.869-5.554,3.61-3.711,5.4-8.836,5.4-15.45V411.33h9.8v42.209q0,13.973-8,21.913c-5.326,5.3-12.7,7.952-22.064,7.952-9.441,0-16.864-2.651-22.216-7.952q-8.066-7.953-8.053-21.913V411.33h9.8v42.209q-.039,9.883,5.427,15.45" transform="translate(-528.96 -411.33)" fill="#fff"></path></g><g id="Group_12057" data-name="Group 12057" transform="translate(17173.414 2570.731)"><path id="Path_103648" data-name="Path 103648" d="M613.486,448.2h8.659v26.2a43.668,43.668,0,0,1-12.648,6.842,43.233,43.233,0,0,1-14.364,2.55,37.6,37.6,0,0,1-18.858-4.847,36.109,36.109,0,0,1-18.455-31.657,34.866,34.866,0,0,1,5-18.3,36.041,36.041,0,0,1,13.657-13.1,39.1,39.1,0,0,1,19.161-4.8,41.134,41.134,0,0,1,14.516,2.65,38.5,38.5,0,0,1,12.268,7.245l-5.6,7.145a31.048,31.048,0,0,0-9.845-6.16,30.719,30.719,0,0,0-11.361-2.2,28.014,28.014,0,0,0-14.062,3.66,27.341,27.341,0,0,0-10.148,10,27.666,27.666,0,0,0,.05,27.77,27.944,27.944,0,0,0,10.2,10.1,27.618,27.618,0,0,0,14.061,3.711,29.938,29.938,0,0,0,9.114-1.489,33.051,33.051,0,0,0,8.608-4.141V448.2Z" transform="translate(-557.82 -411.09)" fill="#fff"></path></g><g id="Group_12058" data-name="Group 12058" transform="translate(17256.289 2571.362)"><path id="Path_103649" data-name="Path 103649" d="M590.65,411.34h9.794v31.783h40.771V411.34h9.87v71.342h-9.87V452.009H600.444v30.673H590.65Z" transform="translate(-590.65 -411.34)" fill="#fff"></path></g><path id="Path_103650" data-name="Path 103650" d="M256.347,458.313c-3.181,5.377-5.806,12.042-8.735,18.53-.682,1.641-1.515,3.232-2.1,4.9-.606,1.667-1.212,3.307-1.818,4.9-1.212,3.206-2.373,6.311-3.534,9.164-.429,2.676-1.363,6.488-2.4,10.249l-.984.126-.682,3.206c-.656,1.187.555-2.448-.429-.3l.177,1.338c-.379.152-2.626,8-1.666,2.55a58.085,58.085,0,0,0-1.59,6.159l-1.388,6.211c-.631,2.752.378,1.767-.53,4.746-.4.556.076-1.136-.3-.934a25.669,25.669,0,0,0-1.212,9.921,37.169,37.169,0,0,1-.631,9.492l-.025-.732c.025,1.489-.429,4.266-.278,4.317,1.035-1.01-.278-1.591.631-4.166.732.328-.076,3.307.53,3.206-.556,1.969-.1,3.206-.227,4.973-.681,2.953-.656,7.271-1.414,9.517a39.3,39.3,0,0,1,.682,6.311c-.58,2.247-.58-.555-.782,2.525l.454.5c-.051,2.524-.177,2.12-.4,2.045,0,2.7.606,2.247.354,5.655l-.429-1.893c.177,2.524.1,3.534.076,7.043-.252-.076-.252-1.464-.177-2.5-.631,1.919.252,3.257.278,4.266.126-.3.227-2.726.656-1.565-.076,1.742.859,3.635.4,4.9l-.581-1.869c.631,3.585.707,1.894.858,6.034-.051-.227-.152-.1-.253-.177.783,2.575.531,6.033.808,9.9l-.177-.732c.253,1.54.808,2.347.909,3.181-.076-2.222.126-1.641.53-1.868-.278,2.979,1.515,4.267,1.818,9.013-.253-.025-.732-1.111-.682-2.449-.984-1.489-1.666-1.616-2.448-4.443.454,1.767.884,3.863.5,3.458l.783.454c.151,1.085.278,1.944.4,2.752.5.4.379-2.3,1.06.177.656,2.777-.479,1.616-.1,1.994.884,3.837.984,1.49,1.338,5.251a4.822,4.822,0,0,1-.328-1.388c.076,2.727,1.288,6.513.656,7.447a1.935,1.935,0,0,1-.682-1.388l.126.025c-1.237-2.8.682,2.4-.252,1.641.4-.3,1.111,3.458,1.389,5.15l.378-.656c2.827,5.2-1.085-.051.505,5.4,1.237,3.408-.2-1.363.707.707.555,2.373.227,3.408,1.489,6.74.1,1.01.4,3.03-.076,3.358.429,1.01.833,2.6,1.262,4.064a10.912,10.912,0,0,0,1.414,3.282c-.757-3.635-1.767-3.307-2.323-7.7l.884.984c.782,2.9,2.348,6.412,2.827,8.432-.025-.429.051-.657.252-.455,1.565,3.964,2.525,4.9,3.888,8.811-.278.681-1.085-1.591-1.767-3.232.581,2.626.984,2.6,2.348,6.538-.328.379-.984-2.6-1.565-2.9l1.817,4.216-.076.025c.934.328,1.338,3.231,2.651,5.73,2.626,6.109,4.166,6.513,6.261,9.568.252.984.2,1.313-.152,1.035-.4-1.615-.53-1.237-.934-1.666,1.01,1.994,1.515,4.721.681,3.736,1.868,3.055-.252-1.312.984.505l2.247,4.317c.076-.681-.656-2.247.782-.152,1.085,1.818,1.489,2.777,2.878,5.175-.379-.252-.076,1.06-1.085-.758a11,11,0,0,0,2.322,3.56c-1.237-2.8,2.8,4.14,2.171,1.868.4.934.833,1.843,1.287,2.752-.353-.581-.631-.505-1.111-1.414-.05,1.035,1.464,2.02,2.1,2.878a31.8,31.8,0,0,1,1.868,3.635,10.985,10.985,0,0,1,1.843,3.282c.909,1.11.379-.127.782.126l2.726,4.014c-.126.4-.631,1.262-1.136.707,1.313,1.338,1.136,0,2.726,2.272-1.464-.908,1.818,3.231-.177,1.818a37,37,0,0,0,5,7.094c1.338.934-1.464-2.3-.934-2.5,4.494,5.428,5.882,4.847,8.962,8.962-.252-.379-.53-.732-.757-1.111a22.5,22.5,0,0,0,3.585,3.13c-1.01-.3,1.035,3.938,4.822,7.649.53.1-1.591-2.55-.631-2.272l2.474,2.474c.126.227-.2,0-.581-.253,2.323,2.121,3.408,4.822,4.62,4.9l1.641,2.878-.631-1.162c.53.076,3.13,2.474,3.737,2.878a21.166,21.166,0,0,1,4.822,4.872c-.278-.606-1.035-2.1,1.111-.278-.707.757,4.14,4.241,3.787,4.544.883.732,2.247,2.272,2.625,2.02l-.555.379c.808-.556,3.888,2.247,6.564,4.014-1.313.5,2.827,2.045,3.282,3.787.934-.252,4.746,3.1,5.63,2.828,2.02,1.388,1.388,1.868,1.742,2.449l1.111.4c.757,1.086,4.62,3.61,6.791,5.327l2.524.782.631.783c.454.05,2.322,1.035,1.338.151l1.161.732c.505-.631,1.767.808,4.317,1.919.48.429.252.5-.328.3,1.187.707.48.757.985,1.363-.757-.631,5,1.186,1.944-.909-.076-.4,1.944.4,3.055,1.161l.379,1.01,1.767.1c1.893.909,2.474,1.742,3.963,2.6-1.565-.782-4.09-.58-.051,1.49a41.461,41.461,0,0,0-4.544-1.666c.808.479,1.212.757-.227.328,3.257,1.464,1.237.2,4.392,1.717-.454.479.328,1.085,3,2.625l-1.868-1.414.48.051c-.757-.429-.934-.631-.985-.934.631.3,4.014,1.06,4.368,1.666-2.726-2.424,5.857,1.994,4.09.454.429,0,2.7.934,2.8,1.313-2.878-.732,1.717,1.54,1.111,1.768,1.06.277-1.919-1.338-.479-.985a15.794,15.794,0,0,1,3.458,2.1l-.707-.177,2.373,1.338c.53-.126-2.2-1.54.151-.707.556.379,2.928,1.111,2.777,1.313-1.262-.025-.682.833-2.7.152,1.666.606,6.917,2.55,5.023,1.162l1.944.782c-1.136-.732-4.393-2.5-.454-1.06l-.076.1,2.878.605c.353.252.707.505,1.085.732.025-.177.505-.151,1.515.2.2.278,1.136.681.984.884,2.979.985,2.853.58,3.282.555,1.666.53,2.247.858,1.363.959,2.222.909,6.311,1.894,7.8,2.727,3.181.631-.606-.3,1.338-.2a10.67,10.67,0,0,0,2.651,1.338c1.161.379,2.524.732,3.963,1.06,2.9.656,6.109,1.313,8.709,1.717-1.186-1.237,1.439.177,2.55-.5-1.161.076,4.72,1.717.177,1.085l2.777.455c1.792.908-4.62-.53-1.919.757a22.963,22.963,0,0,0,4.266.328,17.819,17.819,0,0,1,4.645.5c-1.338.48,2.853.228,1.818.833a11.694,11.694,0,0,1-2.853-.227l.631.227c6.816,1.287,2.1-.48,5.731-.379,4.166.429,3.231.934,3.433,1.287a17.339,17.339,0,0,0,3.888.3c-2.6.126-4.67-.985-3.433-1.263,1.742.985,6.185.783,7.346.606-5.857-1.514-4.115-.5-9.593-2.045-.808.152-.757.884-4.064.076,2.146-.025-.076-.4-.656-.606.58.5-2.322-.2-3.383-.2-.859-.48,2.146-.606-1.186-1.313l-.808.833c-1.287-.379.682-.555-2.146-.858,1.591-.2-.328-.808,3.484-.353-4.367-1.49-6.943-.909-10.527-1.237.379.025.429-.1.808-.1a15.11,15.11,0,0,1-3.181-.354c-2.247-.757,1.893,0,1.363-.429-1.237-.228-2.474-.556-3.711-.833l-.076-.1a4.224,4.224,0,0,1-2.221-.58c1.161-.025,1.666-.228,2.474-.278l-4.014-.3c.505-.2-3.054-1.312-.252-.858-1.918-.4-3.812-.859-5.705-1.389l-.3-.757c-1.389-.278-1.464-.177.126.378-1.868-.707-8.886-1.414-7.473-2.348A114.574,114.574,0,0,1,392.24,807.8c4.216.985-4.317-2.474.025-1.085-2.373-1.212-3.13-.758-5.125-1.414-1.742-.959-.682-1.237,1.388-.682l-2.423-.631.1-.1c-.732-.126-1.414-.328-2.12-.505-1.969-1.237-.2-.782-2.323-1.817l-.707.328-1.338-.934c.454.479-.883.025-2.474-.606l.076-.1c-.656-.228-1.313-.505-1.944-.783,1.995.581-1.666-.934-.631-.909-1.59-.808-1.616-.808-4.569-2.121l.328.606c-3.938-1.54.1-.58-2.928-2.12l-.025.5c-3.938-3-7.573-3.483-10.451-5.756,1.843.959,1.641.252,1.54.328-2.752-1.464-7.119-4.04-10.1-5.377-.631-1.187-.782-1.489-3.383-3.534-2.045-1.262-2.373-1.389-3.231-1.54-1.767-1.54-5.554-3.761-5.377-4.216-.656-.025-1.692-1.237-2.878-1.792l-.1-.328-.1.48c-2.651-3.357-5.958-3.711-8.583-7.119l.631.379-1.464-.985c-.1-.328.53.025.757-.1-2.045-1.767-4.191-3.458-6.16-5.3l.959,1.313c-1.313-1.111-2.449-1.565-3.736-3.08,2.878,1.691-1.994-1.818-2.045-2.55l1.413,1.035c-1.792-1.565-1.792-1.565-1.969-1.111-2.373-1.994-.934-2.1-3.332-3.711l1.439,1.439c.252.606-1.06-.151-2.02-1.111-.177-.278-.732-1.085.051-.4-1.868-1.565-4.342-4.292-5.175-4.974-.808-1.06-.278-.959.3-.53-3.862-3.509-1.565-1.742-5.427-5.276l.252-.1-1.414-1.136-1.287-2.272.354.909a41.392,41.392,0,0,1-3.206-3.535l.808.354c-3.307-3.509-3.055-4.7-6.387-7.9-.152-.278.4.2.681.429-3.13-2.928-1.414-2.954-4.594-5.907.252.126.1-.328.3-.252l-1.363-1.414.5-.177-1.565-.833c-.1-.429-.2-.833-.278-1.262l-.631-.48c-.379-2.272-2.651-4.241-3.635-6.968l-.253.757c-5.049-5.276-8.179-14.162-12.648-21.483l.53-.1-2.2-2.852c-.53-1.868.934.807.883.176-1.994-3.256-1.389-1.06-3.458-4.973-.682-2.2.682.555,1.313,1.414-1.01-1.818-2.272-4.064-3.357-6.21a54.37,54.37,0,0,1-2.4-5.68l-.2-.025c-1.388-2.423-2.423-5.958-3.584-8.76.252-.025.556.682.883,1.363a14.659,14.659,0,0,0-1.338-3.257l.833.909c-.833-2.171-2.575-6.337-2.272-6.993-.1.328-.505.354-1.136-1.565.328-1.288-1.994-5.125-2.524-8.356.278.328,1.01,2.575.833,1.944a14.437,14.437,0,0,0-1.692-4.19l.429.328c-.833-2.374-1.565-4.8-2.348-7.2.4-1.237-1.742-6.892-1.06-6.538-.555-2.625.151,2.272-.656-1.035.126-.959-.808-2.979-.278-2.929l.126.354c-.177-.783-.4-1.54-.5-2.323.227.454.5.909.782,1.363-.53-1.969-1.161-3.383-1.59-3.408-.026-1.969-.682-4.67-.379-5.6l.227.681a41.306,41.306,0,0,1-.606-7.068,24.525,24.525,0,0,0-.227-3.08,15.134,15.134,0,0,0-.53-3.08c.051-.328.177-.3.227.354l-.227-3.357.429.757-1.01-5.478.252.051c-.1-1.818-.278-4.166-.5-6.639-.151-2.474-.126-5.1-.2-7.448l.126.707c-.4-5.15.227-4.973-.076-8.735l.1.4-.025-3.383.252.757c-.48-2.524,1.186-7.119.606-5.6a22.752,22.752,0,0,0-.53-4.317c.227-3.686.4-.884.757-3.131.252-2.65-.3-3.181.4-6.74l.253.1c.2-1.691.177-2.751.48-5.074l.025.707c.025-3.888,1.439-4.62.783-7.8.429-1.565.707-4.62,1.262-4.367.732-4.746,1.388-8.406,2.222-13.1.984-.53.151-1.01,1.287-3.711l-.5.1c.959-3.232,2.247-6.639,3.56-10.1.631-1.742,1.287-3.509,1.919-5.251.58-1.767,1.414-3.458,1.994-5.226l.5-.05.076-1.565c1.59-3.661,3.156-7.952,5-11.916,1.918-3.938,3.736-7.675,5.1-10.528.328-.984.757-2.271,1.212-3.66a27.9,27.9,0,0,1,2.171-4.216l-.126.328c1.313-2.575,2.676-5.2,4.115-7.876.732-1.313,1.489-2.651,2.247-4.014.859-1.288,1.767-2.575,2.7-3.837-.05.429.4-.025.1.631.4-1.515,2.02-3.08,2.777-4.191l-1.161,1.136a11.55,11.55,0,0,1,3.181-4.216l1.186-2.625.429-.329.076-.555c.429-.3.858-.606,1.338-.884.328-.631,2.5-3.66,2.777-4.923.328-.1,2.07-2.095.909-.4l6.488-8.053-1.161,1.136c-.48-.151,1.212-2.777,2.5-3.787-1.136,1.792.379.53,1.212.1.757-1.212-1.111.656-.808-.051a28.7,28.7,0,0,1,4.14-4.948l-.581.908c1.49-1.893,2.8-2.2,4.367-3.963,1.161-1.818,2.449-2.752,1.616-2.979,2.045-2.3,1.212-.479,1.969-1.111.783-1.262,4.064-4.064,4.721-4.14.429-1.969,6.261-5.4,6.059-6.539a21.094,21.094,0,0,1,2.222-1.262c-.1-.253-.1-.985,1.414-2.373,1.666-1.01,1.59-.378,2.222-.555l.4-1.54c2.323-1.565,4.721-3.357,7.195-5.276.606-.479,1.237-.959,1.868-1.439.656-.454,1.313-.909,1.995-1.338,1.338-.909,2.676-1.843,4.039-2.777,2.7-1.868,5.453-3.736,8.129-5.579,2.726-1.792,5.554-3.307,8.2-4.746,2.272-1.464,4.872-3.105,7.548-4.822,2.727-1.616,5.6-3.206,8.457-4.62l-.58.429,5.756-2.5-4.292,1.591c1.187-.682,2.07-1.313,3.282-1.893,3.181-1.388,6.993-2.7,10.881-4.317,3.963-1.439,8.053-3.13,12.016-4.7,4.847-2.853,3.736-.328,8.533-2.6-.4.227-.505.429-.859.656,5.3-2.045,8.23-2.954,13.582-5-.379,1.187,3.61-.833,3.231-.177l.354-.53c1.287-.025,4.215-.581,3.862-.177l2.348-1.01.3.4c1.641-.277,4.191-.858,6.564-1.237,2.4-.328,4.62-.5,5.529-.177,8.028-1.843,21.054-2.7,31.4-2.5a34.216,34.216,0,0,1,6.841-.379l2.5.656c2.4-.051,5-.631,7.22-.177l-.277.126c2.449-.05,4.746.454,7.068.177,2.676.278,5.225.808,4.368,1.212.177-.429,1.59-.278,2.954,0,.682.126,1.338.3,1.843.429.479.151.808.278.808.278s2.12.328,5.881.934c1.868.328,4.191.631,6.816,1.11,2.626.555,5.579,1.187,8.861,1.868A243.875,243.875,0,0,1,576.5,363.317c17.444,7.826,34.535,18.808,48.5,29.41,13.986,10.628,25.043,20.726,31.582,26.229,1.085.531,3.433,2.676,3,1.439,1.767,1.692,1.944,3.03,2.6,3.08-2.02-2.626,1.565,0-.253-2.752l1.49,1.464c.53.1-2.2-1.868-1.414-1.868l-1.01.126a9.934,9.934,0,0,1-1.767-2.751c-1.313-.96-2.828-.935-5.023-4.064l.757.732c-2.121-2.246-.909-1.767-1.262-2.322l.479.5-1.539-2.121c1.237,1.54,3.913,3.509,2.726,2.3-2.373-2.853.531.808-1.464-1.111-1.262-1.187-.606-1.136-.354-1.262l-2.221-2.146c.353-.2,1.439,1.464.833.3l-3.055-2.474c.152-1.187-3.332-2.676-3.989-4.544,2.2,1.767.051-.429.581-.328l-5.175-4.569c-.4-.53,1.54.984.732.328-.782-1.061-1.742-1.263-2.272-1.717-.278-.606-3.837-3.433-3.307-3.761-3.357-3.282-2.045-.631-5.2-3.661-.2-.656,2.751,2.12,1.489.581l-3.61-2.752a3.938,3.938,0,0,1,2.347,1.212c-9.239-8.078-13.632-13.531-23.452-19.262-1.086-1.262,1.136.353,2.247.732a71.084,71.084,0,0,1-8.2-5.3,47.9,47.9,0,0,0-7.372-4.948l-.3.278a85.581,85.581,0,0,0-13.935-7.624c-2.549-1.136-5.125-2.272-7.725-3.433-2.625-1.01-5.251-2.07-7.826-3.156l1.161.707a50.993,50.993,0,0,1-5.63-1.515c-.2-.252,1.515-.378-1.591-1.186.606.328,1.843.883,1.389.934a134.092,134.092,0,0,0-19.312-6.513c-1.969-.53-3.989-1.111-6.059-1.616-2.07-.454-4.166-.884-6.236-1.338s-4.14-.908-6.16-1.338c-2.045-.353-4.039-.707-5.983-1.035-21-2.853-44.052-4.392-64.9-2.146,3.155-.353,1.894.707-.5.758-6.715-.934-11.26,1.565-18.025,1.615-11.865,2.6-22.847,3.963-33.273,8.659l-.354-.354c-1.666.354-1.995.808-3.661,1.439v-.126c-4.064,1.161-8.608,3.509-10.931,4.165l.051.53c-2.3.96-1.363.1-3.585,1.389l-.025-.252-2.55,1.641c-.05-.455-1.666.227-3.535,1.085a40.594,40.594,0,0,1-4.872,2.272c-2.878,1.49-8.1,4.7-12.471,6.866-.985.076-6.261,2.979-9.593,4.847-1.565,1.01-3.307,2.12-5.15,3.307-1.818,1.212-3.686,2.625-5.63,3.989-3.862,2.8-8.053,5.6-11.865,8.406l.48.354-1.894,1.591c-.05-.126-.354.025-.1-.252-1.893.707-4.292,3.786-6.059,4.721,1.287-.379,1.389-1.035,2.5-1.919,1.742-1.086.606.581-1.691,2.1l-.05-.126-1.237,1.414c-.454-.2-1.893.707-2.348.5-1.54,1.338-3,2.5-4.241,3.812s-2.424,2.55-3.61,3.812c-2.373,2.525-4.8,5.024-7.9,7.826.151-.455-.984.53-1.919,1.59-.959,1.035-1.868,1.969-1.616,1.035-3.156,3.964,1.06-.126-.025,1.995-.959,1.035-1.767,2.3-2.171,2.247.278-.631-1.161.479-.454-.4l-2.2,2.55c-.278.2.151-.429.354-.757a94.113,94.113,0,0,1-6.312,7.018,69.211,69.211,0,0,0-5.5,6.993c-.025.555,1.565-1.868,1.54-1.313-3.282,5.276-3.812,3.963-6.993,8.81l.378-1.211c-.934,1.641-.984,2.6-3,4.922-.732.151,1.111-2.4,1.742-3.787-1.187,1.742-4.039,6.261-2.752,5.176a18.129,18.129,0,0,1-3.03,3.761c.076.1,1.59-1.767.985-.4a81.517,81.517,0,0,0-7.169,10.78c-.1-.1-.4.051-.278-.278-.934,3.231-1.767,2.347-3.913,6.462" transform="translate(16111.711 2032.947)" fill="#fff"></path><path id="Path_103651" data-name="Path 103651" d="M253.291,515.67c-1.59,11.385-1.792,26.254-1.262,37.59.606,2.448.758,6.033,1.287,9.593l-.555.429.505,2.979c-.051,1.237-.354-2.3-.354-.1l.48,1.085c-.253.278.984,7.675-.2,2.727.555,3.888,1.136,7.75,1.969,11.588.5,2.55.757,1.388,1.212,4.216-.051.606-.354-.984-.5-.707a43.278,43.278,0,0,0,2.55,8.861,45.655,45.655,0,0,1,2.954,8.255l-.278-.631c.252.656.606,1.565.909,2.322a10.732,10.732,0,0,0,.581,1.389c.252-1.162-.808-1.237-1.212-3.686.5.076,1.212,2.8,1.54,2.524a29.253,29.253,0,0,0,1.641,4.292c.53,2.752,2.373,6.312,2.726,8.432.631,1.211,1.666,2.423,2.928,5.049.505,2.07-.555-.3.505,2.348l.454.3c.934,2.146.707,1.843.53,1.817,1.06,2.272,1.288,1.666,2.55,4.544l-1.06-1.414c1.161,2.019,1.54,2.878,3,5.756-.2.025-.783-1.136-1.161-1.994.4,1.767,1.565,2.575,2.02,3.408-.025-.3-1.086-2.272-.278-1.464.757,1.414,2.045,2.752,2.323,3.913l-1.111-1.364c1.868,2.777,1.212,1.364,3.029,4.721l-.227-.075c1.591,1.868,3.03,4.7,4.948,7.725l-.429-.53c.859,1.161,1.565,1.641,1.994,2.3-1.035-1.741-.656-1.338-.53-1.666,1.161,2.474,2.853,3,5.15,6.74-.177.05-.959-.681-1.515-1.792a11.752,11.752,0,0,1-3.484-2.878c1.061,1.288,2.272,2.853,1.843,2.626l.681.151c.581.833,1.035,1.464,1.49,2.1.48.176-.808-1.944.707-.152,1.717,1.995.48,1.389.883,1.591,2.4,2.726,1.313.858,3.358,3.686a7.776,7.776,0,0,1-.884-.985c1.389,2.1,3.888,4.746,3.989,5.63a2.457,2.457,0,0,1-1.111-.884l.1-.025c-2.121-1.817,1.59,1.666.656,1.338.1-.328,2.373,2.348,3.383,3.585l-.076-.606c4.266,3.257-.757.3,2.928,4.014,2.474,2.221-.808-.959.782.328a57.779,57.779,0,0,0,4.266,4.72c.53.783,1.792,2.146,1.641,2.55,1.565,1.262,4.342,4.266,5.428,4.771-2.272-2.575-2.777-2.02-5.352-5.125l1.086.505c2.044,1.843,4.645,4.216,6.084,5.5-.252-.3-.3-.48-.076-.379,3.105,2.423,4.166,2.9,7.069,5.377.177.581-1.54-.833-2.8-1.894,1.691,1.818,1.944,1.692,4.923,4.064-.025.354-2.045-1.565-2.575-1.615l3.433,2.5-.025.051c.808-.051,2.5,2.045,4.746,3.383a40.81,40.81,0,0,0,9.29,4.923c.707.581.859.833.48.757-1.161-.985-1.035-.682-1.54-.858,1.792,1.035,3.585,2.777,2.5,2.348,2.878,1.59-.884-.833.934.076,1.288.782,2.524,1.615,3.837,2.348-.328-.48-1.691-1.288.429-.329,1.742.884,2.55,1.388,4.8,2.626-.378-.076.53.732-1.161-.2a14.273,14.273,0,0,0,3.509,1.767c-2.4-1.49,4.216,1.843,2.524.556l2.424,1.439a9.941,9.941,0,0,1-1.54-.631c.555.707,2.12.909,3,1.288.833.53,3.156,1.641,3.307,1.818a12.664,12.664,0,0,1,3.105,1.514c1.237.454.2-.2.606-.152,1.363.58,2.726,1.212,4.115,1.767.151.277.278.959-.379.808,1.666.4.808-.379,3.206.53-1.54-.126,3.08,1.489.883,1.212a33.436,33.436,0,0,0,7.5,2.8c1.464.126-2.323-.934-2.07-1.211,6.235,1.818,6.841,1.161,11.411,2.5l-1.161-.4a28.866,28.866,0,0,0,4.317.707c-.454.1.3.581,1.742,1.212a38.186,38.186,0,0,0,6.034,1.666c.454-.126-2.575-.959-1.742-1.136l3.181.606c.227.076-.126.076-.555.051,2.853.5,5.2,1.515,6.109,1.186l2.8,1.085-1.111-.454c.429-.151,3.635.354,4.317.328a24.483,24.483,0,0,1,6.261.934c-.556-.227-1.944-.808.656-.555-.1.757,5.427.732,5.327,1.06,1.06.05,2.9.4,3.055.126l-.2.4c.152-.278,1.162-.354,2.525-.354,1.363-.025,3.054-.025,4.519-.05-.681.782,3.231,0,4.544.757.555-.5,5.226-.353,5.73-.833a3.464,3.464,0,0,1,2.651.581l1.035-.227c1.161.2,5.4-.126,7.952-.126.758-.227,1.54-.429,2.3-.707l.884.1c.353-.177,2.3-.479,1.06-.505l1.262-.126c.051-.53,1.742-.379,4.241-.908.606,0,.454.151-.075.3,1.262-.152.757.177,1.464.252-.909.026,4.342-1.742.934-1.364-.252-.176,1.667-.681,2.9-.807l.833.328,1.388-.758c1.894-.4,2.777-.227,4.317-.555-1.565.379-3.332,1.692.757.757-2.12.581-3.156,1.01-4.241,1.313.858-.126,1.287-.177,0,.278,3.206-.732,1.035-.429,4.19-1.212-.076.454.833.379,3.635-.1l-2.146.177.378-.2c-.783.126-1.035.126-1.237,0,.631-.151,3.534-1.363,4.14-1.237-3.307.126,5.4-1.818,3.256-1.741a7.651,7.651,0,0,1,2.752-.707c-2.525,1.035,2.1-.1,1.742.3.934-.379-2.121.278-.859-.252a19.184,19.184,0,0,1,3.661-.656l-.631.252c.808-.177,1.64-.328,2.448-.53.328-.328-2.4.4-.252-.4.606-.1,2.752-.959,2.727-.757-.934.631-.076.732-1.919,1.439,1.54-.555,6.438-2.247,4.317-1.969l1.843-.606c-1.212.227-4.544,1.01-.883-.3v.1c.808-.4,1.64-.757,2.449-1.187l1.161-.227c-.076-.075.278-.328,1.212-.707.277.025,1.187-.278,1.161-.1,2.7-1.086,2.4-1.212,2.7-1.465,1.49-.631,2.1-.757,1.49-.252,2.1-.782,5.554-2.5,7.043-2.9,2.625-1.413-.606.177.858-.807,1.338-.151,3.56-1.212,5.983-2.525,2.424-1.288,5.074-2.777,7.094-4.09-1.464.1,1.111-.732,1.59-1.691-.808.707,4.216-1.893.656.4l2.2-1.363c1.717-.581-3.56,2.4-1.01,1.464,2.524-1.464,3.761-3.1,6.74-4.771-.707,1.01,2.12-1.565,1.691-.681a15.936,15.936,0,0,1-2.12,1.565l.556-.253c5.427-3.383,1.237-1.464,3.862-3.56,3.1-2.3,2.676-1.489,3-1.439a19.753,19.753,0,0,0,2.827-2.2c-1.742,1.615-3.711,2.348-3,1.464,1.692-.58,4.67-3.357,5.4-4.14-4.8,2.8-3.1,2.247-7.649,4.8-.479.555-.1.908-2.827,2.423,1.515-1.262-.253-.152-.758.1.656-.1-1.742,1.262-2.474,1.893-.833.278,1.212-1.54-1.464.076l-.151.858c-1.085.581.2-.656-1.944.858,1.035-1.01-.606-.2,2.3-2.2-3.787,1.893-5.4,3.585-8.1,5.478.277-.2.252-.3.53-.5a21.512,21.512,0,0,1-2.449,1.666c-1.944.96,1.338-1.111.783-.985-.985.606-2.02,1.162-3.08,1.691h-.1a5.631,5.631,0,0,1-1.894.96c.833-.656,1.085-1.035,1.641-1.515l-3.054,2.07c.252-.379-2.853,1.06-.606-.278-1.59.858-3.181,1.767-4.822,2.5l-.606-.2c-1.161.606-1.136.707.278.1-1.717.682-7.195,4.09-6.639,2.9-3.812,1.894-5.276,2.4-10.047,4.393,3.635-1.641-4.469.984-.555-.53-2.4.606-2.726,1.212-4.544,1.893-1.767.4-1.136-.252.656-1.035l-2.12.934.025-.1c-.606.278-1.212.605-1.818.858-2.1.354-.555-.278-2.676.252l-.353.505-1.49.2c.581.026-.631.43-2.171.909v-.1l-1.843.606c1.792-.707-1.717.353-.959-.126-1.616.354-1.641.354-4.544,1.111l.556.126c-3.737,1.086-.252-.328-3.307.354l.253.252c-4.519.429-7.523,1.691-10.881,1.944,1.894-.354,1.363-.656,1.338-.555-2.827.555-7.5,1.035-10.426,1.742-1.136-.354-1.389-.455-4.468-.4a8.945,8.945,0,0,0-3.257.58c-2.146-.025-6.185.3-6.311,0-.505.252-1.944,0-3.13.252l-.253-.126.177.3c-3.812-.707-6.463.3-10.325-.4l.656-.025h-1.616c-.252-.151.4-.177.5-.354l-7.5-.555,1.464.329a19.785,19.785,0,0,1-4.468-.3c3.055-.1-2.5-.3-2.929-.707l1.616.076c-2.2-.227-2.2-.227-2.045.1-2.853-.252-1.893-.732-4.544-.858.631.1,1.237.228,1.843.3.53.252-.859.3-2.1.075-.278-.1-1.136-.379-.2-.252-2.247-.252-5.554-.959-6.564-1.01-1.186-.328-.757-.455-.076-.4-4.771-.732-2.12-.505-6.892-1.262l.126-.151-1.666-.151c-.757-.252-1.464-.631-2.2-.934l.758.429c-1.54-.379-2.524-.5-4.292-1.086l.783-.05c-4.368-.985-4.873-1.742-9.012-2.7-.253-.126.378,0,.732.051-3.862-.858-2.726-1.237-6.564-2.171.253,0-.1-.252.051-.252l-1.742-.479.252-.278-1.54-.05-.908-.707-.707-.1c-1.565-1.212-4.216-1.919-6.437-3.358l.252.581c-6.513-1.716-13.481-6.892-20.575-10.5l.3-.228-3-1.388c-1.363-1.162,1.061.3.682-.126-3.105-1.691-1.515-.353-5.074-2.424-1.616-1.363.732.2,1.666.581-1.717-.884-3.661-2.247-5.554-3.433a39.2,39.2,0,0,1-4.645-3.332l-.152.05c-2.121-1.464-4.772-3.56-6.968-5.327.151-.075.682.379,1.262.757a25.371,25.371,0,0,0-2.524-2.07l1.01.454c-1.615-1.439-4.973-3.913-5.125-4.493.126.252-.177.429-1.515-.884-.4-1.085-3.888-3.307-5.882-5.554.354.151,1.969,1.641,1.515,1.212a33.673,33.673,0,0,0-3.156-2.751l.429.151-5.1-4.822c-.328-1.086-4.418-4.9-3.837-4.8-1.641-1.893,1.212,1.717-.909-.606-.379-.783-1.969-2.07-1.616-2.2l.253.228c-.48-.555-.934-1.136-1.414-1.692l1.111.884c-1.237-1.439-2.348-2.323-2.626-2.248-.984-1.54-2.676-3.433-2.954-4.266l.48.479a38.962,38.962,0,0,1-3.584-5.529,35.727,35.727,0,0,0-3.231-4.746c-.126-.277-.025-.277.3.227l-1.666-2.625.606.48c-1.01-1.389-2.1-2.727-3.08-4.14l.177-.025c-1.641-2.979-4.443-7.5-6.412-11.436l.379.555c-2.448-4.115-1.969-4.165-3.585-7.271l.227.3-1.313-2.853.429.555c-1.363-1.944-2.146-6.311-1.894-4.847a31.933,31.933,0,0,0-1.994-3.484c-1.287-3.181-.152-.833-.732-2.9-.783-2.348-1.212-2.676-2.171-5.883l.177.025c-.556-1.464-.934-2.373-1.59-4.468l.253.606c-1.338-3.332-.833-4.393-2.222-6.917-.227-1.49-1.01-4.241-.631-4.166-.681-2.12-1.161-4.039-1.59-5.983-.429-1.919-.934-3.837-1.338-6.008.454-.782-.177-.934-.252-3.635l-.278.227c-1.06-6.185-.883-13.4-1.363-20.271l.278-.2c-.152-.454-.252-.908-.379-1.363-.1-7.422.4-16.99.984-22.846a47.89,47.89,0,0,1,.5-7.927v.328a109.53,109.53,0,0,1,2.853-16.611c.05.378.252-.152.2.5a16.18,16.18,0,0,1,1.061-4.544l-.581,1.363a14.817,14.817,0,0,1,1.439-4.67l.353-2.626.253-.429-.025-.479.808-1.212a36.959,36.959,0,0,0,1.035-5.15c.177-.2,1.06-2.5.53-.681,1.111-3,2.222-6.009,3.408-8.962-.253.429-.455.883-.682,1.338-.379.051.555-2.676,1.262-4.014-.53,1.893.328.3.859-.378.353-1.262-.682.934-.556.252a28.493,28.493,0,0,1,2.2-5.579l-.3.934c.858-2.07,1.767-2.777,2.676-4.771.606-1.894,1.439-3.105.808-2.954,1.237-2.575.833-.808,1.313-1.615a21.776,21.776,0,0,1,2.878-5.074c.1-1.742,4.115-6.463,3.862-7.3.48-.605,1.035-1.186,1.565-1.792-.1-.152-.177-.732.808-2.373,1.136-1.388,1.136-.884,1.59-1.237l.126-1.363c6.286-8.155,14.541-19.009,23.023-26.482a127.946,127.946,0,0,1,12.6-11.764l-.454.48c1.54-1.212,3.029-2.449,4.645-3.535-1.212.757-2.373,1.565-3.509,2.424a25.347,25.347,0,0,1,2.625-2.348c5.251-3.711,12.345-8.482,18.984-12.723,4.064-3.18,3.156-1.287,7.245-4.014-.328.253-.429.4-.732.656,4.544-2.65,6.967-4.19,11.638-6.689-.252.908,3.105-1.439,2.853-.909l.278-.454c1.111-.379,3.736-1.262,3.433-.934l2.02-1.187.3.2c2.827-1.237,9.037-3.559,10.779-3.484a134.378,134.378,0,0,1,28.375-7.043,34.565,34.565,0,0,1,6.235-1.162l2.348.076a30.71,30.71,0,0,1,6.614-.934l-.227.1c2.247-.2,4.418-.252,6.513-.631,2.474-.025,4.9.1,4.14.454.126-.3,1.439-.3,2.7-.227a20.308,20.308,0,0,1,2.524.278s1.994.076,5.528.2c1.768.026,3.913.177,6.387.43,2.474.227,5.3.379,8.356.858a190.393,190.393,0,0,1,45.441,11.436,178.422,178.422,0,0,1,24.361,11.461A185.3,185.3,0,0,1,558.3,398c12.976,9.821,22.569,19.817,28.1,25.346.884.631,2.853,2.8,2.424,1.717,1.49,1.691,1.717,2.828,2.222,2.979-1.742-2.525,1.212.3-.379-2.3l1.262,1.464c.4.177-1.817-1.918-1.237-1.767l-.783-.1a11.183,11.183,0,0,1-1.54-2.574,18.558,18.558,0,0,1-4.267-4.14l.656.707c-1.919-2.121-.909-1.54-1.237-2.045l.429.48-1.388-1.994c1.086,1.489,3.433,3.458,2.348,2.3-2.171-2.65.479.757-1.262-1.111-1.086-1.161-.555-1.035-.379-1.086l-1.919-2.12c.253-.1,1.262,1.439.682.378-.884-.833-1.717-1.691-2.65-2.474,0-.934-2.979-2.575-3.711-4.166,1.944,1.742,0-.328.429-.177-1.49-1.54-3.055-2.979-4.645-4.367-.379-.48,1.388.984.631.353a11,11,0,0,0-2.045-1.641c-.3-.5-3.534-3.206-3.156-3.383-3.181-2.954-1.767-.732-4.746-3.459-.252-.53,2.524,1.969,1.313.631l-3.333-2.575a4.962,4.962,0,0,1,2.1,1.212c-2.12-1.894-4.115-3.434-5.907-4.973-1.792-1.515-3.408-2.979-5.125-4.241-1.692-1.313-3.383-2.575-5.2-3.863-1.843-1.262-3.888-2.4-6.185-3.66-1.136-1.01,1.01.354,2.045.707-1.691-.858-3.1-1.666-4.342-2.423-1.262-.732-2.373-1.388-3.458-2.07a48.963,48.963,0,0,0-7.119-4.04l-.2.177c-7.826-4.67-18.3-7.953-28.022-11.108l1.136.505c-1.414-.152-3.61-.732-5.251-1.086-.227-.177,1.313-.2-1.59-.883.58.227,1.742.681,1.363.681a129.991,129.991,0,0,0-18.252-4.392c-3.711-.656-7.649-1.111-11.537-1.641-3.913-.3-7.75-.783-11.36-.959-19.539-.682-40.947,1.186-59.477,6.538,2.828-.807,1.767.126-.379.581-6.134.53-9.972,3.206-16.03,4.569-10.376,4.216-19.817,7.826-28.527,13.658l-.328-.152a26.832,26.832,0,0,0-3.055,1.944v-.1c-3.433,1.818-7.119,4.721-9.038,5.832l.076.353c-1.894,1.313-1.136.454-2.979,1.919l-.051-.177c-.707.581-1.338,1.262-2.02,1.894-.152-.631-5.2,3.862-6.841,4.746-2.2,2.019-6.437,5.73-9.8,8.709a67.193,67.193,0,0,0-7.447,6.513A233.814,233.814,0,0,0,290.7,426.884l.4.1-1.313,1.868c-.051-.075-.252.151-.1-.151-1.363,1.187-3.029,4.317-4.241,5.68a9.924,9.924,0,0,0,1.717-2.347c1.262-1.389.479.227-1.111,2.2l-.05-.1-.782,1.54c-.354,0-1.338,1.212-1.691,1.237-1.01,1.591-1.944,3.03-2.777,4.468-.783,1.464-1.54,2.852-2.3,4.266-1.565,2.777-2.953,5.68-4.821,9.063.05-.429-.606.808-1.212,1.944-.556,1.161-1.111,2.247-1.035,1.414-1.792,4.317.757-.48.227,1.616-.556,1.161-.985,2.474-1.288,2.575.126-.606-.782.808-.379-.177L268.69,464.9c-.151.253.025-.4.151-.732-1.111,2.979-2.246,5.529-3.383,8a71.367,71.367,0,0,0-2.853,7.7c.051.454.833-2.1.883-1.641-1.565,5.5-1.944,4.67-3.307,9.82l.05-1.136a25.892,25.892,0,0,1-1.262,5.15c-.429.4.3-2.424.581-3.762-.606,1.843-1.717,6.665-1.035,5.276A21.515,21.515,0,0,1,257.1,497.8c.076.051.782-2.045.581-.681-.883,3.029-1.994,7.826-2.676,11.637-.076-.05-.253.2-.227-.151-.2,3.282-.909,2.827-1.49,7.069" transform="translate(16149.031 2067.556)" fill="#fff"></path><path id="Path_103652" data-name="Path 103652" d="M283,577.309c2.777,3.307,6.614,7.372,9.34,10.679a11.034,11.034,0,0,1,2.853,2.348l-.354.505.909.707c.176.454-.656-.581-.278.177l.556.075c-.1.2,1.843,2.272.252,1.136.985,1.111,1.944,2.222,3,3.257.682.707.757.075,1.414.934.025.278-.354-.2-.455.026,1.969,2.625,3.459,1.868,5.377,4.215l-.227-.126c.48.252,1.136.959,1.212.909.151-.707-.606-.152-1.01-1.06.4-.3.985.631,1.212.3.379.631.883.682,1.363,1.086.556.934,1.792,1.792,2.121,2.625a5.641,5.641,0,0,1,2.07.985c.3.833-.4.151.3.984l.328-.1c.606.631.455.606.354.681.682.657.833.227,1.59,1.161l-.682-.227a19.022,19.022,0,0,1,1.894,1.565c-.126.1-.505-.2-.732-.479.227.757.985.581,1.237.858,0-.151-.606-.757-.1-.707.429.429,1.237.53,1.338,1.06l-.681-.2c1.111.631.757.151,1.792,1.161l-.151.076c.934.3,1.641,1.338,2.651,2.222l-.252-.1c.479.278.884.252,1.086.48-.48-.631-.278-.555-.152-.833.48,1.035,1.515.581,2.676,1.792-.126.127-.581.026-.833-.378-.757.051-1.085.354-2.02-.126.556.328,1.161.732.934.808l.454-.252c.3.227.53.43.758.606.3-.126-.3-.833.5-.455.883.48.126.707.379.631,1.212.681.757-.051,1.717.859l-.454-.253c.631.732,1.893,1.338,1.767,1.969-.177.025-.3.126-.556-.126l.076-.051c-1.085-.3.757.43.2.657.126-.278,1.136.581,1.59.985l.051-.4c2.2.378-.48.479,1.161,1.565,1.136.58-.328-.354.429-.1a6.634,6.634,0,0,0,1.843,1.54c.2.3.681.858.5,1.211.707.3,1.792,1.439,2.373,1.389-.884-.985-1.288-.4-2.247-1.666l.556-.076a28.353,28.353,0,0,1,2.575,1.717l.051-.278c1.313.732,1.868.657,2.979,1.565-.026.4-.707-.126-1.212-.455.631.732.783.581,1.944,1.464-.1.3-.808-.53-1.111-.379.455.278.934.531,1.414.783l-.025.05c.48-.3,1.01.682,1.944,1.06,1.969,1.212,2.625.833,3.938,1.162.227.3.252.454.05.48-.378-.48-.378-.278-.606-.278.682.353,1.212,1.313.732,1.262,1.136.53-.252-.455.48-.2l1.439.908c-.051-.328-.53-.681.328-.4a19.923,19.923,0,0,1,1.818.984c-.177.051.076.48-.556.127.354.3,1.01.682,1.363.58-.808-.707,1.641.631,1.136-.076l.808.707c-.2-.126-.3.025-.606-.2.076.48.808.328,1.161.455.3.253,1.136.732,1.136.908.353.076,1.035.531,1.06.783.48.177.151-.2.328-.253l1.464.833c-.026.227-.177.833-.429.783.657.126.5-.454,1.363-.025-.682.126,1.009.833.05.934a7.158,7.158,0,0,0,2.651,1.49c.631-.051-.783-.581-.581-.859,2.272.96,2.8.177,4.342,1.111l-.378-.278a4.692,4.692,0,0,0,1.666.328c-.455.253.656,1.616,2.423,2.222.227-.126-.783-.783-.379-.96l1.161.429-.252.076c1.06.277,1.666,1.288,2.146.959l.783,1.01-.3-.4c.227-.127,1.388.277,1.641.3a3.62,3.62,0,0,1,2.121,1.136c-.126-.253-.479-.833.429-.505-.277.657,1.818,1.01,1.667,1.313.378.126.959.58,1.111.328l-.2.379c.3-.53,1.666,0,2.726.278-.5.656,1.161.354,1.389,1.237.379-.455,1.918.5,2.272.126.808.277.555.732.707.984l.454-.076a13.163,13.163,0,0,0,2.752,1.237l1.01-.227.252.278c.177-.076.909.051.505-.227l.454.151c.177-.454.682.05,1.692.1.2.126.1.227-.126.227.454.126.2.3.4.53-.278-.2,1.893-.328.707-.884-.025-.2.732-.126,1.161.075l.151.455.656-.252c.732.151.959.5,1.515.656-.606-.126-1.515.379.025.732a8.352,8.352,0,0,0-1.717-.05c.3.1.455.177-.076.2,1.237.177.454-.1,1.666.1-.151.3.152.48,1.187.782l-.732-.378.176-.051c-.277-.1-.353-.151-.378-.3.227.05,1.49-.1,1.641.126-1.06-.732,2.2.1,1.49-.353l1.035.277c-1.06,0,.656.48.454.656.4,0-.732-.378-.2-.378a3.938,3.938,0,0,1,1.287.53h-.253l.884.3c.177-.1-.833-.4.025-.3l1.01.328c-.454.1-.2.379-.96.278.606.1,2.525.454,1.818.076l.707.151c-.429-.177-1.641-.656-.2-.379l-.025.05,1.035.051.4.2c0-.051.177-.076.53-.025l.379.252c1.086.177,1.01.05,1.161.025.606.1.833.177.505.252.833.177,2.272.379,2.8.581,1.111.1-.227-.076.455-.076a28.427,28.427,0,0,0,5.427.959c-.454-.227.5.025.859-.076-.4,0,1.691.329.1.177l.96.1c.656.152-1.616-.126-.631.1,1.085.1,1.818.051,3.105.228-.429.025.984.076.656.126-.278,0-.631-.05-.984-.076l.227.025a11.035,11.035,0,0,0,1.944.1c1.439.177,1.136.151,1.212.2.278.025.909.076,1.338.126-.884-.076-1.641-.177-1.212-.177.631.1,2.146.252,2.55.3-2.07-.277-1.439-.177-3.357-.48a9.091,9.091,0,0,1-1.389-.151c.732.076-.05-.051-.252-.076a10.247,10.247,0,0,1-1.161-.126c-.328-.075.707,0-.454-.2l-.252.076c-.454-.076.2-.05-.783-.177a2.994,2.994,0,0,1,1.187.051,19.2,19.2,0,0,0-3.661-.454h.278c-.278,0-.758-.076-1.111-.1-.808-.2.656.025.454-.075-.429-.051-.858-.152-1.313-.253l-.025-.025a2.556,2.556,0,0,1-.782-.177c.4,0,.555-.025.833-.025l-1.388-.151c.151-.051-1.086-.379-.126-.2l-2.019-.4-.126-.2c-.479-.076-.505-.05.05.1-.682-.2-3.13-.354-2.676-.656-1.616-.2-2.171-.353-4.09-.707,1.515.177-1.59-.732-.025-.429a6.63,6.63,0,0,0-1.843-.3c-.631-.3-.277-.48.454-.353l-.858-.126.025-.05-.757-.051c-.732-.379-.1-.328-.884-.581l-.227.2-.5-.3c.177.176-.3.1-.909-.051l.025-.05-.707-.151c.732.05-.631-.253-.253-.354a12.5,12.5,0,0,0-1.717-.454l.126.252c-1.464-.227.025-.3-1.111-.656v.252c-1.515-.934-2.827-.707-3.963-1.363.707.177.631-.177.581-.1a19.738,19.738,0,0,0-3.913-.959c-.253-.53-.329-.681-1.364-1.262-.808-.252-.934-.252-1.287-.1-.707-.454-2.247-.732-2.171-1.035-.253.177-.682-.278-1.161-.227l-.051-.152-.025.3c-1.136-1.111-2.448-.48-3.61-1.515h.252l-.631-.1.3-.3-2.651-1.035.455.4c-.581-.177-1.06-.075-1.616-.5,1.211.025-.859-.379-.909-.783l.606.126c-.782-.3-.782-.3-.833,0-1.035-.328-.479-.808-1.515-.909l.657.278c.126.252-.429.278-.884.075-.076-.075-.354-.354,0-.227-.833-.227-1.944-.858-2.348-.909-.379-.278-.177-.4.1-.379-1.792-.479-.732-.379-2.524-.858l.1-.151-.656-.051-.656-.707.2.328a6.692,6.692,0,0,1-1.54-.682l.353-.1c-1.59-.606-1.59-1.237-3.181-1.616l.3-.025c-1.515-.3-.808-.884-2.373-1.111l.1-.227-.681-.152.2-.278-.732.2-.227-.5-.3.025c-.354-.883-1.464-.984-2.121-1.868l-.05.455c-2.626-.429-4.822-3.156-7.624-4.317l.227-.252-1.262-.3c-.429-.58.479-.05.4-.3-1.237-.531-.732.126-2.095-.581-.556-.606.353-.076.757.025a20.53,20.53,0,0,1-4.039-2.3l-.1.076a17.787,17.787,0,0,1-2.8-1.767c.1-.126.328.025.58.127-.3-.228-.682-.631-1.035-.682l.505-.025c-.631-.505-2.1-1.187-2.045-1.565,0,.177-.177.353-.757-.05-.025-.656-1.716-.908-2.5-1.793l.707.278a3.009,3.009,0,0,0-1.464-.682l.253-.076c-.783-.429-1.565-.833-2.323-1.312,0-.657-2.045-1.465-1.666-1.641-.732-.581.505.656-.5-.025-.126-.379-.934-.581-.681-.809l.126.051-.681-.48.631.051c-.606-.379-1.237-.43-1.414-.253-.429-.555-1.287-1.035-1.363-1.464l.252.1c-1.641-1.035-1.919-2.676-3.433-3.206h.177l-.884-.783h.378l-1.742-.959.126-.1c-.934-.884-2.55-2.121-3.837-3.156l.252.1c-1.515-1.035-1.187-1.313-2.272-2.07l.151.051-.883-.808.3.05c-.909-.328-1.515-2.07-1.338-1.464a4.952,4.952,0,0,0-1.49-.606c-.959-.884-.076-.379-.581-1.035-.682-.656-1.01-.53-1.818-1.54l.127-.1c-.43-.4-.783-.581-1.389-1.161l.228.125c-1.212-.707-.833-1.565-2.1-1.792-.3-.5-1.136-1.212-.859-1.414-1.338-1.06-2.348-1.918-3.585-3.054.227-.581-.278-.252-.707-1.211l-.177.252c-1.616-1.742-2.878-4.266-4.721-6.16l.177-.252-.606-.177c-1.717-2.247-3.913-5.175-5.327-6.917a9.324,9.324,0,0,1-2.221-2.1l.1.076a40.778,40.778,0,0,1-3.913-5.074c.177.025.126-.2.328-.051-.581-.227-.783-1.035-1.06-1.413l.151.58a2.194,2.194,0,0,1-.934-1.616l-.858-.605v-.227l-.227-.051.025-.656c-.2-.151-1.01-1.211-1.54-1.338.051-.152-.378-.984.076-.429l-1.919-3.106.2.556c-.2.227-.985-.581-1.161-1.136.606.479.379-.177.4-.555-.4-.328.025.5-.278.379a5.47,5.47,0,0,1-1.389-1.793l.3.253c-.581-.631-.328-1.262-.757-1.969-.581-.531-.682-1.111-1.035-.707-.631-.883.076-.53-.051-.858a3.071,3.071,0,0,1-.959-1.995c-.959-.126-1.237-2.651-1.893-2.525l-.126-.934c-.151.05-.58.1-1.01-.505-.151-.681.177-.681.227-.959l-.757-.1c-1.161-3.812-4.064-8.1-5.2-12.294a48.235,48.235,0,0,1-2.953-5.832l.151.2-.631-2.121.3,1.615a9.049,9.049,0,0,1-.656-1.161,49.445,49.445,0,0,0-2.8-8.2c-1.288-1.616.2-1.439-.859-3.029l.328.277a46.128,46.128,0,0,0-2.322-4.594c.757.025-.429-1.237,0-1.161l-.328-.076c.051-.479-.151-1.514.1-1.414l-.581-.757.278-.151c-.278-1.136-1.161-3.51-.732-4.241-1.287-2.65-1.994-7.22-2.651-10.779a7,7,0,0,1-.757-2.3l.2-.934c-.252-.808-.833-1.616-.732-2.449l.1.076a7.954,7.954,0,0,0-.606-2.424c-.126-.934-.1-1.868.278-1.615-.606,0-.227-1.969-.227-1.969s-.278-3-.707-7.7c-.278-2.347-.378-5.124-.53-8.154a66.338,66.338,0,0,0-.808-9.694c-1.868-13.506-3.13-28.931-3.055-34.989-.025-.4,0-1.54-.025-1.111.025-.782.025-.909.051-1.439-.025,1.186.025-.353-.051.782l.051-.732c-.025.3-.025.3-.051.833v.2c-.025.505-.05.783-.076,1.136-.025.555.025.934-.051,2.272v-.379c-.05,1.086-.076.656-.1.883l.025-.252-.1.909c.076-.682.076-1.843.05-1.237-.1,1.288.051-.328-.025.631-.025.606-.076.429-.1.4l-.076,1.085c-.051-.051.051-.707-.025-.277l-.05,1.363c-.177.252-.025,1.49-.227,2.1.05-.985-.076.076-.1-.076-.076.808-.152,1.616-.177,2.4-.051.228-.025-.631-.051-.278a4.157,4.157,0,0,0,0,.985l-.252,1.717c-.227,1.641.177.707-.025,2.222-.126.2.05-1.212-.1-.53l-.076,1.59a1.468,1.468,0,0,1-.1-.909c-.48,4.266-1.49,6.564-1.54,10.5-.252.555-.126-.4-.227-.808.1,2.853-.833,4.014-.984,6.463l.2.05a70.634,70.634,0,0,0-.959,11.385l.152-.479a10.9,10.9,0,0,1,.555,1.994c-.126.1-.606-.429-.379.681.076-.227.126-.707.253-.581a65.391,65.391,0,0,0,0,7.094c.2,2.853.53,5.958.682,8.684.479,3.66,1.161,7.472,1.666,11.284.581,3.787,1.388,7.548,2.2,11.107-.253-1.085.454-.757.48.076-.454,2.474,1.187,3.787,1.086,6.235,1.338,4.014,1.717,7.877,3.711,11.385l-.252.177c.051.605.3.681.53,1.262l-.076.025c.3,1.439,1.313,2.979,1.439,3.812l.328-.076c.328.808-.076.505.4,1.288l-.177.025.682.858c-.58.126.833,2.3.833,3.054.48,1.035,1.54,2.878,2.146,4.469-.151.4.707,2.323,1.111,3.61.581,1.162,1.212,2.6,1.995,4.09.782,1.464,1.59,3.03,2.3,4.519l.3-.227.429.757-.152.051c-.076.808,1.035,1.717,1.111,2.449.1-.555-.227-.555-.454-1.01-.151-.707.48-.278.732.656l-.076.025.48.48c-.227.2-.076.808-.3,1.01,1.489,2.424,2.928,3.837,4.266,6.438-.429-.076,1.136,1.767.354,1.565,1.085,1.414.252-.505,1.01-.025.252.429.631.782.5.985-.227-.126-.1.53-.354.227l.682.959-.3-.152c1.59,1.818,2.019,3.762,3.484,5.352.252.025-.429-.732-.151-.732,1.54,1.565.732,1.792,2.1,3.307l-.48-.177a3.234,3.234,0,0,1,1.338,1.515c-.151.353-.783-.555-1.187-.909.4.631,1.59,2.045,1.515,1.414a3.5,3.5,0,0,1,.758,1.514c.076-.025-.3-.782.126-.479a42.031,42.031,0,0,0,2.5,3.761l-.227.126c1.186.707.479,1.06,1.539,2.322" transform="translate(16133.829 2168.772)" fill="#fff"></path><path id="Path_103653" data-name="Path 103653" d="M411.481,382.361c-1.01-.479-2.2-1.06-3.383-1.641-1.212-.505-2.423-.959-3.408-1.49a4.732,4.732,0,0,1-1.919-.429l.1-.4-.606-.126c-.177-.227.454.126.126-.2l-.3.152c.025-.152-1.364-.732-.328-.581l-2.121-.959c-.454-.227-.4.2-.883-.126l.227-.151c-1.439-.985-2.146.05-3.56-.682h.151c-.3,0-.782-.177-.808-.126.051.454.354-.126.707.278-.177.328-.631-.025-.707.227-.3-.252-.58-.126-.883-.227-.429-.4-1.237-.505-1.54-.909a2.134,2.134,0,0,1-1.237.05c-.3-.4.177-.227-.329-.505l-.151.177c-.429-.177-.328-.228-.278-.3-.455-.177-.479.126-1.01-.2l.379-.076a5.181,5.181,0,0,1-1.212-.4l.454.076c-.227-.4-.606-.076-.757-.177.025.1.429.3.151.4-.278-.151-.707.051-.858-.252l.4-.1c-.681-.025-.429.152-1.136-.126l.076-.1c-.531.126-1.086-.278-1.742-.48l.152-.025c-.3,0-.505.126-.656.076.354.227.227.252.2.454-.429-.479-.884.152-1.666-.252h.48c.379-.252.5-.53,1.06-.556-.353,0-.732-.075-.606-.177l-.177.278-.479-.151c-.126.177.3.429-.177.429-.531-.025-.177-.4-.3-.278-.732-.076-.379.252-1.01-.025l.278.025c-.429-.252-1.187-.278-1.237-.681l.3-.1-.025.05c.606-.126-.455-.05-.2-.353-.025.2-.682-.025-.959-.151l.025.252c-1.186.4.177-.454-.858-.631-.681-.025.227.126-.2.177-.429-.152-.53-.4-1.187-.48-.151-.151-.479-.328-.454-.605-.4.025-1.162-.354-1.439-.152.605.353.732-.151,1.414.353l-.278.2a10.555,10.555,0,0,1-1.59-.3l.025.177a6.023,6.023,0,0,1-1.792-.076c-.051-.252.378-.126.707-.075-.43-.278-.505-.1-1.212-.328,0-.2.505.1.631-.076l-.833-.1v-.051c-.177.328-.631-.152-1.136-.152-1.187-.227-1.464.177-2.171.328l-.1-.3c.252.2.227.075.353,0-.4-.051-.808-.505-.58-.606-.656-.025.2.227-.2.252l-.858-.2c.076.2.379.3-.1.353a7.492,7.492,0,0,1-1.06-.2c.076-.075-.126-.3.253-.227a.784.784,0,0,0-.783,0c.53.227-.934.05-.555.378l-.53-.227.328-.051c-.126-.278-.454.025-.656.025l-.707-.278-.656-.2c-.278.025-.051.177-.126.252l-.883-.126.1-.631c-.354.1-.177.429-.682.354.328-.252-.631-.3-.177-.606a2.724,2.724,0,0,0-1.565-.328c-.3.2.48.2.429.429-1.287-.076-1.439.555-2.348.328l.228.1a1.742,1.742,0,0,0-.884.2c.2-.252-.581-.884-1.54-.909-.1.126.5.328.328.555a5.336,5.336,0,0,0-.631,0l.126-.1c-.581.076-1.035-.454-1.237-.1l-.555-.454.227.2-.883.2a1.441,1.441,0,0,1-1.237-.228c.1.126.378.429-.152.429.025-.479-1.06-.227-1.035-.479l-.606.025.051-.3c-.076.4-.833.354-1.414.379.151-.555-.631,0-.884-.53-.125.379-1.035.1-1.161.4-.454,0-.4-.353-.5-.479l-.2.126a5.232,5.232,0,0,0-1.565-.379l-.48.353-.177-.151c-.076.076-.454.126-.228.252l-.252-.026c-.025.379-.354.1-.858.253l.025-.2c-.252,0-.151-.2-.277-.3.176.1-.909.657-.228.833.05.151-.354.252-.606.2l-.151-.328-.3.354c-.379.05-.555-.151-.858-.2.328-.025.707-.631-.126-.631a3.2,3.2,0,0,0,.883-.3c-.177-.025-.252-.051,0-.177-.656.1-.227.2-.858.252.025-.3-.152-.379-.707-.48l.429.227-.076.076.227.2-.858.2c.656.454-1.111.354-.707.631l-.555-.051c.53-.227-.4-.328-.328-.556-.2.076.429.228.151.329a1.205,1.205,0,0,1-.732-.253l.126-.05-.5-.126c-.076.152.479.253.025.328l-.555-.1c.2-.2.05-.48.429-.53-.328.025-1.338.076-.934.328h-.379c.253.126.934.354.151.378v-.05l-.53.227-.228-.152-.278.152-.227-.227c-.581.05-.53.2-.581.3-.328.051-.429,0-.3-.2a5.869,5.869,0,0,1-1.515-.051c-.58.177.126.051-.2.278-.531-.48-1.944-.075-2.9.051.278.429-.252.075-.4.505.2-.152-.934-.278-.1-.48l-.5.076c-.379-.227.833-.252.278-.555-.581.05-.909.58-1.591.454.2-.328-.5.151-.378-.227l.5-.151-.126-.051c-1.262,0-.328.4-.985.656-.757.1-.631-.2-.681-.353l-.707.126c.455-.227.884.151.682.353-.378-.353-1.136.051-1.338.2,1.136.3.757-.025,1.818.3.126-.126.076-.454.707-.353-.379.177.051.177.151.227l.606-.2c.177.152-.329.454.3.505l.075-.454c.253.05-.075.328.43.2-.252.253.1.354-.581.48.859.328,1.262-.278,1.893-.5l-.126.126.58-.177c.429.076-.328.227-.2.329l.682-.051.025.025.429-.025-.4.429.707-.353c-.076.151.606.2.1.353l1.061-.126.1.3c.253-.076.253-.126-.05-.152.379.05,1.616-.631,1.439-.025a10.078,10.078,0,0,1,2.171-.4c-.783.278.909.353.076.479.505.126.581-.2.959-.252.354.126.2.429-.177.53l.454-.152v.051l.4-.177c.429.152.1.3.53.328l.1-.278.3.152c-.1-.126.151-.177.454-.2v.051l.379-.051c-.379.177.353.051.176.253a7.854,7.854,0,0,0,.934-.05l-.1-.177c.782-.152.025.277.656.277l-.051-.2c.909.353,1.54-.2,2.2.025-.379.051-.278.3-.278.227a8.522,8.522,0,0,0,2.1-.278c.2.3.252.4.858.53.429,0,.5-.025.656-.2.429.152,1.237.026,1.237.228.1-.177.379.05.631-.076l.051.1-.025-.2c.732.5,1.288-.2,2.045.252l-.126.05.328-.05-.1.252,1.489.126-.277-.177c.328,0,.53-.2.883-.05-.631.278.5.05.581.278l-.328.076c.429,0,.429,0,.429-.2.581-.051.353.429.909.227l-.379-.025c-.1-.126.177-.278.43-.252l.025.151c.455-.05,1.111.1,1.313.025.227.076.151.228,0,.278a8.536,8.536,0,0,1,1.388-.025l-.025.126.328-.1.429.3-.151-.177a2.771,2.771,0,0,1,.883.076l-.177.151c.884.025.984.429,1.843.277l-.152.1c.808-.177.555.379,1.363.151l-.025.177.378-.076-.05.227.328-.3.177.277.152-.1c.328.5.909.227,1.364.631l-.051-.3c1.388-.429,2.953.656,4.519.732l-.076.227.682-.152c.3.252-.252.152-.151.3.707,0,.354-.278,1.161-.2.379.227-.177.151-.379.177a8.274,8.274,0,0,1,2.4.353l.025-.075a10.787,10.787,0,0,1,1.717.328l-.328.1.631.1-.252.152c.4.126,1.262.1,1.313.353-.026-.1.025-.277.379-.177.126.4,1.035.05,1.565.354l-.4.025a1.255,1.255,0,0,0,.859,0l-.1.126,1.388.177c.1.4,1.288.3,1.111.53.48.152-.354-.277.252-.126.126.2.556.076.48.3h-.076l.429.1-.328.152c.378.051.707-.1.757-.253.3.228.833.253.934.5l-.151.025c.985.177,1.414,1.061,2.3.884l-.1.076.581.177-.2.126,1.06.025-.05.1c.656.2,1.666.48,2.474.758H387.6c.959.152.833.429,1.515.53l-.076.026.581.2-.177.051c.53-.076,1.136.757.934.454a2.818,2.818,0,0,0,.884-.1c.657.227.1.2.455.43.455.176.606.025,1.212.353l-.051.1c.3.075.5.075.934.2h-.151c.757,0,.707.631,1.414.328.252.2.808.3.681.53.859.227,1.515.455,2.348.732-.025.429.177.051.581.48l.051-.2c1.136.48,2.222,1.54,3.484,2.045l-.051.2.353-.1c1.313.681,2.979,1.565,3.964,2.2a4.268,4.268,0,0,1,1.515.5h-.076a14.507,14.507,0,0,1,2.954,1.565l-.177.126c.354-.075.606.329.808.455l-.177-.278a.886.886,0,0,1,.757.606l.581.051.025.126.126-.051.1.378a2.763,2.763,0,0,0,1.111.177c0,.1.354.429.025.277l1.54,1.136-.2-.253c.076-.2.631,0,.807.253-.4-.076-.177.227-.126.454.278.051-.075-.277.1-.3a2.1,2.1,0,0,1,1.035.555l-.2-.051c.4.177.378.606.732.833.429.076.58.379.707.025.5.252.05.328.177.454.328,0,.908.53.884.757.555-.252,1.136,1.01,1.489.707l.227.454a.536.536,0,0,1,.656-.076c.227.3.025.429.051.581l.454-.227c1.338,1.615,3.61,3.08,5.1,4.8a22.838,22.838,0,0,1,2.8,1.969l-.126-.025a8.644,8.644,0,0,1,.783.859,6.916,6.916,0,0,0-.48-.707,1.886,1.886,0,0,1,.606.379,16.588,16.588,0,0,0,3.155,3.257c1.086.328.177.782,1.136,1.186h-.253a17.889,17.889,0,0,0,2.323,1.439c-.454.278.5.455.252.581l.2-.076c.075.253.454.656.277.707l.505.151-.126.177c.4.48,1.388,1.338,1.313,1.868a27.011,27.011,0,0,1,3.963,4.24c.3.076.682.505.985.809l.126.5c.353.277.909.429,1.06.858h-.075c.3.328.48.757.909.934.277.4.479.858.2.884.354-.227.581.858.581.858s.909,1.288,2.348,3.282c.732.984,1.59,2.171,2.524,3.433.858,1.338,1.792,2.777,2.751,4.267,4.09,5.806,7.851,12.723,10.451,14.869.278.1.682.53.783.227.278.353.05.707.278.682-.177-.606.555-.076.5-.707l.228.3c.177,0-.4-.379-.126-.429l-.4.075a.96.96,0,0,1-.051-.631c-.278-.177-.833-.1-.959-.833l.1.152c-.278-.48.05-.43.05-.556l.051.1-.051-.5c.051.378.631.757.455.5-.227-.656,0,.2-.278-.227-.177-.278.051-.278.177-.328l-.278-.48c.177-.076.177.328.227.051l-.5-.53c.329-.328-.555-.581-.354-1.061.354.4.1-.1.278-.1l-.632-1.085.177.076c0-.277-.278-.277-.353-.4.05-.152-.455-.833-.177-.934-.253-.858-.5-.126-.732-.908.1-.177.354.53.328.126l-.454-.707a.487.487,0,0,1,.454.278c-.909-2.07-.581-3.686-1.944-5.276.026-.353.228.1.48.2-1.061-1.111-.757-2.019-1.464-3.08l-.152.076c-.5-1.793-1.969-3.434-2.877-5.251l.025.278c-.3-.126-.555-.505-.808-.732.051-.1.454-.025.076-.454l-.025.379c-.555-1.742-2.954-4.519-4.494-6.968-1.262-1.464-2.323-3.206-3.66-4.7-1.288-1.54-2.6-3.08-3.888-4.468.4.429-.1.53-.3.151-.253-1.388-1.465-1.464-1.919-2.726-1.667-1.464-2.726-3.231-4.595-4.266l.127-.177c-.152-.278-.328-.227-.581-.454l.051-.051c-.5-.581-1.312-1.06-1.565-1.439l-.177.151c-.354-.3-.051-.3-.48-.53l.1-.076-.555-.2c.328-.278-.909-.909-1.035-1.288a16.363,16.363,0,0,1-2.12-1.515c0-.277-.858-.959-1.313-1.464-1.085-.808-2.651-1.969-3.963-3.13l-.126.227-.353-.278.075-.075c-.1-.455-.858-.581-1.035-.959.051.328.227.227.43.378.2.328-.228.328-.531-.1l.051-.051-.379-.076-.025-.631a35.289,35.289,0,0,1-3.534-2.02c.252-.1-.959-.581-.455-.732-.858-.378-.05.354-.555.354l-.455-.354.151-.227-.53-.328.177-.025c-1.161-.5-1.691-1.464-2.777-1.893l.2.354c-1.085-.379-.707-.782-1.717-1.111l.3-.076c-.379-.05-.581.025-.984-.379.025-.252.5.076.808.1-.328-.2-1.212-.631-1.061-.278-.455-.151-.48-.429-.656-.606-.025.051.3.353,0,.3a16.051,16.051,0,0,0-1.995-1.288l.1-.151c-.556.05-.253-.38-1.01-.733" transform="translate(16258.661 2091.985)" fill="#fff"></path><path id="Path_103654" data-name="Path 103654" d="M349.42,372.16Z" transform="translate(16297.902 2100.292)" fill="#fff"></path></g></svg> 