<?xml version="1.0" encoding="UTF-8"?> <svg xmlns="http://www.w3.org/2000/svg" xmlns:xlink="http://www.w3.org/1999/xlink" width="336.937" height="236.135" viewBox="0 0 336.937 236.135"><defs><clipPath id="clip-path"><path id="np_moon_2999975_000000" d="M48.815,10.4A92.08,92.08,0,0,1,74.706,0a89.15,89.15,0,0,0,87.383,145.627,87.988,87.988,0,0,1-21.267,17.8,89.278,89.278,0,1,1-92-153.031Z" transform="translate(-5.56)" clip-rule="evenodd"></path></clipPath></defs><g id="Group_11861" data-name="Group 11861" transform="translate(-305.75 -1806.5)"><g id="Mask_Group_27" data-name="Mask Group 27" transform="translate(486.157 1866.463)" clip-path="url(#clip-path)"><g id="np_sun_484540_000000" transform="translate(-49.761 -24.645)"><path id="Path_1075" data-name="Path 1075" d="M102.78,18.75A119,119,0,0,0,31.309,42.469H174.255A119.005,119.005,0,0,0,102.784,18.75Z" transform="translate(16.716 -18.75)" fill="#fff"></path><path id="Path_1076" data-name="Path 1076" d="M186.379,25.3H40.03A121.361,121.361,0,0,0,27.618,36.38H198.795A118.055,118.055,0,0,0,186.382,25.3Z" transform="translate(6.293 -0.262)" fill="#fff"></path><path id="Path_1077" data-name="Path 1077" d="M208.436,28.7H33.527a120.438,120.438,0,0,0-8.663,10.426H217.1A122.786,122.786,0,0,0,208.435,28.7Z" transform="translate(-1.485 9.355)" fill="#fff"></path><path id="Path_1078" data-name="Path 1078" d="M224.917,32.113h-196Q25.6,36.84,22.762,41.9h208.31c-1.9-3.361-3.958-6.632-6.154-9.784Z" transform="translate(-7.42 18.985)" fill="#fff"></path><path id="Path_1079" data-name="Path 1079" d="M237.325,35.523H25.478q-2.33,4.459-4.3,9.126H241.611q-1.949-4.66-4.287-9.126Z" transform="translate(-11.898 28.614)" fill="#fff"></path><path id="Path_1080" data-name="Path 1080" d="M246.446,38.934H22.872Q21.3,43.1,20.019,47.4H249.283c-.836-2.868-1.792-5.691-2.838-8.469Z" transform="translate(-15.165 38.246)" fill="#fff"></path><path id="Path_1081" data-name="Path 1081" d="M252.7,42.34H20.942q-.963,3.854-1.688,7.827H254.389c-.478-2.644-1.046-5.243-1.688-7.827Z" transform="translate(-17.323 47.864)" fill="#fff"></path><path id="Path_1082" data-name="Path 1082" d="M256.406,45.75H19.6q-.493,3.562-.762,7.17h238.3c-.164-2.4-.418-4.795-.732-7.17Z" transform="translate(-18.506 57.493)" fill="#fff"></path><path id="Path_1083" data-name="Path 1083" d="M257.74,52.372c0-1.075-.015-2.151-.045-3.211H18.794c-.03,1.06-.045,2.136-.045,3.211,0,1.105.015,2.211.045,3.3h238.9C257.725,54.582,257.74,53.477,257.74,52.372Z" transform="translate(-18.75 67.123)" fill="#fff"></path><path id="Path_1084" data-name="Path 1084" d="M257.038,52.57H18.856q.246,2.957.627,5.87H256.426c.254-1.942.448-3.9.612-5.87Z" transform="translate(-18.449 76.751)" fill="#fff"></path><path id="Path_1085" data-name="Path 1085" d="M253.946,55.98H19.321c.344,1.748.717,3.5,1.135,5.213H252.814c.418-1.733.792-3.465,1.135-5.213Z" transform="translate(-17.136 86.381)" fill="#fff"></path><path id="Path_1086" data-name="Path 1086" d="M248.209,59.387H20.183c.478,1.538,1,3.062,1.538,4.556H246.654c.553-1.494,1.061-3.017,1.553-4.556Z" transform="translate(-14.702 96.001)" fill="#fff"></path><path id="Path_1087" data-name="Path 1087" d="M239.561,62.8H21.485c.6,1.314,1.21,2.614,1.837,3.913h214.4c.642-1.285,1.255-2.6,1.837-3.913Z" transform="translate(-11.025 105.631)" fill="#fff"></path><path id="Path_1088" data-name="Path 1088" d="M227.642,66.207H23.278c.672,1.105,1.359,2.181,2.061,3.256H225.612c.687-1.075,1.374-2.151,2.031-3.256Z" transform="translate(-5.962 115.26)" fill="#fff"></path><path id="Path_1089" data-name="Path 1089" d="M211.723,69.617H25.672c.717.881,1.434,1.748,2.166,2.614H209.546c.747-.866,1.464-1.733,2.181-2.614Z" transform="translate(0.798 124.889)" fill="#fff"></path><path id="Path_1090" data-name="Path 1090" d="M190.458,73.027H28.871c.717.657,1.449,1.314,2.181,1.957H188.26c.747-.657,1.464-1.3,2.2-1.957Z" transform="translate(9.831 134.518)" fill="#fff"></path><path id="Path_1091" data-name="Path 1091" d="M160.829,76.434H33.328q1.053.672,2.106,1.3H158.721q1.053-.627,2.106-1.3Z" transform="translate(22.417 144.139)" fill="#fff"></path><path id="Path_1092" data-name="Path 1092" d="M111.8,79.844H40.7c.717.224,1.449.448,2.181.657h66.737c.732-.209,1.449-.433,2.181-.657Z" transform="translate(43.243 153.768)" fill="#fff"></path></g></g><g id="np_sun_484540_000000-2" data-name="np_sun_484540_000000" transform="translate(305.75 1806.5)"><path id="Path_1075-2" data-name="Path 1075" d="M93.465,18.75A103.49,103.49,0,0,0,31.309,39.378H155.625A103.5,103.5,0,0,0,93.469,18.75Z" transform="translate(10.457 -18.75)" fill="#fff"></path><path id="Path_1076-2" data-name="Path 1076" d="M165.688,25.3H38.413a105.547,105.547,0,0,0-10.795,9.639H176.485A102.669,102.669,0,0,0,165.691,25.3Z" transform="translate(1.873 -3.525)" fill="#fff"></path><path id="Path_1077-2" data-name="Path 1077" d="M184.511,28.7H32.4a104.737,104.737,0,0,0-7.534,9.067H192.044A106.787,106.787,0,0,0,184.51,28.7Z" transform="translate(-4.532 4.395)" fill="#fff"></path><path id="Path_1078-2" data-name="Path 1078" d="M198.57,32.113H28.114q-2.884,4.111-5.352,8.509H203.923c-1.65-2.923-3.443-5.768-5.352-8.509Z" transform="translate(-9.42 12.325)" fill="#fff"></path><path id="Path_1079-2" data-name="Path 1079" d="M209.154,35.523H24.917Q22.891,39.4,21.176,43.46H212.882q-1.7-4.053-3.728-7.937Z" transform="translate(-13.107 20.255)" fill="#fff"></path><path id="Path_1080-2" data-name="Path 1080" d="M216.936,38.934H22.5q-1.364,3.624-2.481,7.365H219.4c-.727-2.494-1.559-4.949-2.468-7.365Z" transform="translate(-15.798 28.187)" fill="#fff"></path><path id="Path_1081-2" data-name="Path 1081" d="M222.275,42.34H20.722q-.838,3.351-1.468,6.807H223.744c-.416-2.3-.909-4.56-1.468-6.807Z" transform="translate(-17.575 36.108)" fill="#fff"></path><path id="Path_1082-2" data-name="Path 1082" d="M225.444,45.75H19.5q-.429,3.1-.662,6.235H226.078c-.143-2.091-.364-4.17-.637-6.235Z" transform="translate(-18.549 44.037)" fill="#fff"></path><path id="Path_1083-2" data-name="Path 1083" d="M226.592,51.953c0-.935-.013-1.871-.039-2.793H18.789c-.026.922-.039,1.858-.039,2.793,0,.961.013,1.923.039,2.871H226.553C226.579,53.876,226.592,52.914,226.592,51.953Z" transform="translate(-18.75 51.968)" fill="#fff"></path><path id="Path_1084-2" data-name="Path 1084" d="M226,52.57H18.856q.214,2.572.546,5.105H225.464c.221-1.689.39-3.39.533-5.105Z" transform="translate(-18.502 59.897)" fill="#fff"></path><path id="Path_1085-2" data-name="Path 1085" d="M223.368,55.98H19.321c.3,1.52.624,3.04.987,4.534H222.383c.364-1.507.688-3.014.987-4.534Z" transform="translate(-17.421 67.827)" fill="#fff"></path><path id="Path_1086-2" data-name="Path 1086" d="M218.49,59.387H20.183c.416,1.338.87,2.663,1.338,3.962H217.138c.481-1.3.922-2.624,1.351-3.962Z" transform="translate(-15.416 75.75)" fill="#fff"></path><path id="Path_1087-2" data-name="Path 1087" d="M211.139,62.8H21.485c.52,1.143,1.052,2.273,1.6,3.4H209.541c.559-1.117,1.091-2.26,1.6-3.4Z" transform="translate(-12.388 83.68)" fill="#fff"></path><path id="Path_1088-2" data-name="Path 1088" d="M201.007,66.207H23.278c.585.961,1.182,1.9,1.793,2.832H199.242c.6-.935,1.2-1.871,1.767-2.832Z" transform="translate(-8.219 91.609)" fill="#fff"></path><path id="Path_1089-2" data-name="Path 1089" d="M187.476,69.617H25.672c.624.766,1.247,1.52,1.884,2.273H185.581c.65-.753,1.273-1.507,1.9-2.273Z" transform="translate(-2.652 99.539)" fill="#fff"></path><path id="Path_1090-2" data-name="Path 1090" d="M169.4,73.027H28.871c.624.572,1.26,1.143,1.9,1.7h136.72c.649-.572,1.273-1.13,1.91-1.7Z" transform="translate(4.787 107.469)" fill="#fff"></path><path id="Path_1091-2" data-name="Path 1091" d="M144.212,76.434H33.328q.916.585,1.832,1.13H142.379q.916-.546,1.832-1.13Z" transform="translate(15.152 115.392)" fill="#fff"></path><path id="Path_1092-2" data-name="Path 1092" d="M102.537,79.844H40.7c.624.195,1.26.39,1.9.572h58.039c.637-.182,1.26-.377,1.9-.572Z" transform="translate(32.302 123.322)" fill="#fff"></path></g></g></svg> 