<?xml version="1.0" encoding="UTF-8"?> <svg xmlns="http://www.w3.org/2000/svg" width="250" height="250" viewBox="0 0 250 250"><path id="Icon_ionic-ios-arrow-dropdown-circle" data-name="Icon ionic-ios-arrow-dropdown-circle" d="M3.375,128.375a125,125,0,1,0,125-125A124.981,124.981,0,0,0,3.375,128.375Zm173.738-26.082a11.643,11.643,0,0,1,16.406,0,11.457,11.457,0,0,1,3.365,8.173,11.658,11.658,0,0,1-3.425,8.233l-56.671,56.49a11.585,11.585,0,0,1-15.986-.361L63.291,117.5A11.6,11.6,0,0,1,79.7,101.091l48.738,49.219Z" transform="translate(-3.375 -3.375)" fill="#fff"></path></svg> 