<?xml version="1.0" encoding="UTF-8"?> <svg xmlns="http://www.w3.org/2000/svg" width="1200" height="120" viewBox="0 0 1200 120"><g id="Group_218" data-name="Group 218" transform="translate(-10889 -0.431)" opacity="0.836"><rect id="Rectangle_190" data-name="Rectangle 190" width="2" height="18" transform="translate(12087 53.431)" fill="#fff"></rect><rect id="Rectangle_189" data-name="Rectangle 189" width="2" height="18" transform="translate(12078 53.431)" fill="#fff"></rect><rect id="Rectangle_188" data-name="Rectangle 188" width="2" height="22" transform="translate(12069 51.431)" fill="#fff"></rect><rect id="Rectangle_187" data-name="Rectangle 187" width="2" height="29" transform="translate(12060 47.431)" fill="#fff"></rect><rect id="Rectangle_186" data-name="Rectangle 186" width="1" height="29" transform="translate(12052 47.431)" fill="#fff"></rect><rect id="Rectangle_185" data-name="Rectangle 185" width="2" height="21" transform="translate(12043 51.431)" fill="#fff"></rect><rect id="Rectangle_184" data-name="Rectangle 184" width="2" height="47" transform="translate(12034 38.431)" fill="#fff"></rect><rect id="Rectangle_183" data-name="Rectangle 183" width="2" height="42" transform="translate(12025 41.431)" fill="#fff"></rect><rect id="Rectangle_182" data-name="Rectangle 182" width="2" height="36" transform="translate(12016 44.431)" fill="#fff"></rect><rect id="Rectangle_181" data-name="Rectangle 181" width="2" height="19" transform="translate(12007 52.431)" fill="#fff"></rect><rect id="Rectangle_180" data-name="Rectangle 180" width="2" height="27" transform="translate(11998 48.431)" fill="#fff"></rect><rect id="Rectangle_179" data-name="Rectangle 179" width="2" height="37" transform="translate(11989 44.431)" fill="#fff"></rect><rect id="Rectangle_178" data-name="Rectangle 178" width="2" height="54" transform="translate(11980 34.431)" fill="#fff"></rect><rect id="Rectangle_177" data-name="Rectangle 177" width="2" height="54" transform="translate(11971 34.431)" fill="#fff"></rect><rect id="Rectangle_176" data-name="Rectangle 176" width="2" height="48" transform="translate(11962 38.431)" fill="#fff"></rect><rect id="Rectangle_175" data-name="Rectangle 175" width="2" height="22" transform="translate(11953 51.431)" fill="#fff"></rect><rect id="Rectangle_174" data-name="Rectangle 174" width="1" height="30" transform="translate(11945 47.431)" fill="#fff"></rect><rect id="Rectangle_173" data-name="Rectangle 173" width="2" height="38" transform="translate(11936 43.431)" fill="#fff"></rect><rect id="Rectangle_172" data-name="Rectangle 172" width="2" height="38" transform="translate(11927 43.431)" fill="#fff"></rect><rect id="Rectangle_171" data-name="Rectangle 171" width="2" height="38" transform="translate(11918 43.431)" fill="#fff"></rect><rect id="Rectangle_170" data-name="Rectangle 170" width="2" height="50" transform="translate(11909 37.431)" fill="#fff"></rect><rect id="Rectangle_169" data-name="Rectangle 169" width="2" height="50" transform="translate(11900 37.431)" fill="#fff"></rect><rect id="Rectangle_168" data-name="Rectangle 168" width="2" height="42" transform="translate(11891 41.431)" fill="#fff"></rect><rect id="Rectangle_167" data-name="Rectangle 167" width="1" height="27" transform="translate(11883 49.431)" fill="#fff"></rect><rect id="Rectangle_166" data-name="Rectangle 166" width="2" height="27" transform="translate(11874 49.431)" fill="#fff"></rect><rect id="Rectangle_165" data-name="Rectangle 165" width="2" height="27" transform="translate(11865 49.431)" fill="#fff"></rect><rect id="Rectangle_164" data-name="Rectangle 164" width="2" height="27" transform="translate(11856 49.431)" fill="#fff"></rect><rect id="Rectangle_161" data-name="Rectangle 161" width="2" height="48" transform="translate(11847 37.431)" fill="#fff"></rect><rect id="Rectangle_160" data-name="Rectangle 160" width="1" height="52" transform="translate(11839 35.431)" fill="#fff"></rect><rect id="Rectangle_159" data-name="Rectangle 159" width="2" height="52" transform="translate(11830 33.431)" fill="#fff"></rect><rect id="Rectangle_158" data-name="Rectangle 158" width="2" height="48" transform="translate(11821 37.431)" fill="#fff"></rect><rect id="Rectangle_157" data-name="Rectangle 157" width="2" height="23" transform="translate(11812 50.431)" fill="#fff"></rect><rect id="Rectangle_156" data-name="Rectangle 156" width="2" height="28" transform="translate(11803 45.431)" fill="#fff"></rect><rect id="Rectangle_155" data-name="Rectangle 155" width="2" height="38" transform="translate(11794 42.431)" fill="#fff"></rect><rect id="Rectangle_154" data-name="Rectangle 154" width="2" height="38" transform="translate(11785 42.431)" fill="#fff"></rect><rect id="Rectangle_153" data-name="Rectangle 153" width="1" height="38" transform="translate(11777 42.431)" fill="#fff"></rect><rect id="Rectangle_152" data-name="Rectangle 152" width="2" height="47" transform="translate(11768 35.431)" fill="#fff"></rect><rect id="Rectangle_151" data-name="Rectangle 151" width="2" height="47" transform="translate(11759 35.431)" fill="#fff"></rect><rect id="Rectangle_150" data-name="Rectangle 150" width="2" height="38" transform="translate(11750 42.431)" fill="#fff"></rect><rect id="Rectangle_149" data-name="Rectangle 149" width="2" height="23" transform="translate(11741 47.431)" fill="#fff"></rect><rect id="Rectangle_148" data-name="Rectangle 148" width="2" height="23" transform="translate(11732 47.431)" fill="#fff"></rect><rect id="Rectangle_147" data-name="Rectangle 147" width="2" height="23" transform="translate(11723 47.431)" fill="#fff"></rect><rect id="Rectangle_146" data-name="Rectangle 146" width="2" height="23" transform="translate(11714 47.431)" fill="#fff"></rect><rect id="Rectangle_145" data-name="Rectangle 145" width="2" height="47" transform="translate(11705 37.431)" fill="#fff"></rect><rect id="Rectangle_144" data-name="Rectangle 144" width="2" height="47" transform="translate(11696 37.431)" fill="#fff"></rect><rect id="Rectangle_143" data-name="Rectangle 143" width="2" height="51" transform="translate(11687 35.431)" fill="#fff"></rect><rect id="Rectangle_142" data-name="Rectangle 142" width="2" height="51" transform="translate(11678 35.431)" fill="#fff"></rect><rect id="Rectangle_141" data-name="Rectangle 141" width="1" height="21" transform="translate(11670 48.431)" fill="#fff"></rect><rect id="Rectangle_140" data-name="Rectangle 140" width="2" height="17" transform="translate(11661 52.431)" fill="#fff"></rect><rect id="Rectangle_139" data-name="Rectangle 139" width="2" height="21" transform="translate(11652 50.431)" fill="#fff"></rect><rect id="Rectangle_138" data-name="Rectangle 138" width="2" height="21" transform="translate(11643 50.431)" fill="#fff"></rect><rect id="Rectangle_137" data-name="Rectangle 137" width="2" height="21" transform="translate(11634 50.431)" fill="#fff"></rect><rect id="Rectangle_136" data-name="Rectangle 136" width="2" height="30" transform="translate(11625 45.431)" fill="#fff"></rect><rect id="Rectangle_135" data-name="Rectangle 135" width="2" height="30" transform="translate(11616 45.431)" fill="#fff"></rect><rect id="Rectangle_134" data-name="Rectangle 134" width="1" height="30" transform="translate(11608 45.431)" fill="#fff"></rect><rect id="Rectangle_133" data-name="Rectangle 133" width="2" height="30" transform="translate(11599 45.431)" fill="#fff"></rect><rect id="Rectangle_131" data-name="Rectangle 131" width="2" height="42" transform="translate(11590 40.431)" fill="#fff"></rect><rect id="Rectangle_132" data-name="Rectangle 132" width="2" height="106" transform="translate(11581 8.431)" fill="#fff"></rect><rect id="Rectangle_130" data-name="Rectangle 130" width="2" height="109" transform="translate(11572 6.431)" fill="#fff"></rect><rect id="Rectangle_129" data-name="Rectangle 129" width="1" height="118" transform="translate(11564 1.431)" fill="#fff"></rect><rect id="Rectangle_128" data-name="Rectangle 128" width="2" height="118" transform="translate(11555 1.431)" fill="#fff"></rect><rect id="Rectangle_126" data-name="Rectangle 126" width="2" height="30" transform="translate(11546 45.431)" fill="#fff"></rect><rect id="Rectangle_125" data-name="Rectangle 125" width="2" height="71" transform="translate(11537 25.431)" fill="#fff"></rect><rect id="Rectangle_124" data-name="Rectangle 124" width="2" height="93" transform="translate(11528 14.431)" fill="#fff"></rect><rect id="Rectangle_127" data-name="Rectangle 127" width="2" height="109" transform="translate(11519 6.431)" fill="#fff"></rect><rect id="Rectangle_123" data-name="Rectangle 123" width="2" height="118" transform="translate(11510 1.431)" fill="#fff"></rect><rect id="Rectangle_122" data-name="Rectangle 122" width="1" height="118" transform="translate(11502 1.431)" fill="#fff"></rect><rect id="Rectangle_121" data-name="Rectangle 121" width="2" height="105" transform="translate(11493 7.431)" fill="#fff"></rect><rect id="Rectangle_120" data-name="Rectangle 120" width="2" height="95" transform="translate(11484 13.431)" fill="#fff"></rect><rect id="Rectangle_119" data-name="Rectangle 119" width="2" height="11" transform="translate(11475 55.431)" fill="#fff"></rect><rect id="Rectangle_118" data-name="Rectangle 118" width="2" height="11" transform="translate(11466 55.431)" fill="#fff"></rect><rect id="Rectangle_117" data-name="Rectangle 117" width="2" height="11" transform="translate(11457 55.431)" fill="#fff"></rect><rect id="Rectangle_116" data-name="Rectangle 116" width="2" height="21" transform="translate(11448 50.431)" fill="#fff"></rect><rect id="Rectangle_115" data-name="Rectangle 115" width="2" height="28" transform="translate(11439 45.431)" fill="#fff"></rect><rect id="Rectangle_114" data-name="Rectangle 114" width="2" height="28" transform="translate(11430 45.431)" fill="#fff"></rect><rect id="Rectangle_113" data-name="Rectangle 113" width="2" height="20" transform="translate(11421 51.431)" fill="#fff"></rect><rect id="Rectangle_112" data-name="Rectangle 112" width="2" height="23" transform="translate(11412 49.431)" fill="#fff"></rect><rect id="Rectangle_111" data-name="Rectangle 111" width="2" height="43" transform="translate(11403 39.431)" fill="#fff"></rect><rect id="Rectangle_110" data-name="Rectangle 110" width="1" height="43" transform="translate(11395 39.431)" fill="#fff"></rect><rect id="Rectangle_109" data-name="Rectangle 109" width="2" height="30" transform="translate(11386 45.431)" fill="#fff"></rect><rect id="Rectangle_108" data-name="Rectangle 108" width="2" height="23" transform="translate(11377 49.431)" fill="#fff"></rect><rect id="Rectangle_107" data-name="Rectangle 107" width="2" height="46" transform="translate(11368 38.431)" fill="#fff"></rect><rect id="Rectangle_106" data-name="Rectangle 106" width="2" height="99" transform="translate(11359 10.431)" fill="#fff"></rect><rect id="Rectangle_105" data-name="Rectangle 105" width="2" height="110" transform="translate(11350 5.431)" fill="#fff"></rect><rect id="Rectangle_104" data-name="Rectangle 104" width="2" height="110" transform="translate(11341 5.431)" fill="#fff"></rect><rect id="Rectangle_103" data-name="Rectangle 103" width="1" height="79" transform="translate(11333 21.431)" fill="#fff"></rect><rect id="Rectangle_102" data-name="Rectangle 102" width="2" height="70" transform="translate(11324 25.431)" fill="#fff"></rect><rect id="Rectangle_101" data-name="Rectangle 101" width="2" height="23" transform="translate(11315 49.431)" fill="#fff"></rect><rect id="Rectangle_100" data-name="Rectangle 100" width="2" height="39" transform="translate(11306 41.431)" fill="#fff"></rect><rect id="Rectangle_99" data-name="Rectangle 99" width="2" height="39" transform="translate(11297 41.431)" fill="#fff"></rect><rect id="Rectangle_98" data-name="Rectangle 98" width="2" height="39" transform="translate(11288 41.431)" fill="#fff"></rect><rect id="Rectangle_97" data-name="Rectangle 97" width="2" height="31" transform="translate(11279 45.431)" fill="#fff"></rect><rect id="Rectangle_96" data-name="Rectangle 96" width="2" height="41" transform="translate(11270 39.431)" fill="#fff"></rect><rect id="Rectangle_95" data-name="Rectangle 95" width="2" height="99" transform="translate(11261 11.431)" fill="#fff"></rect><rect id="Rectangle_94" data-name="Rectangle 94" width="2" height="108" transform="translate(11252 6.431)" fill="#fff"></rect><rect id="Rectangle_93" data-name="Rectangle 93" width="2" height="108" transform="translate(11243 6.431)" fill="#fff"></rect><rect id="Rectangle_92" data-name="Rectangle 92" width="2" height="37" transform="translate(11234 42.431)" fill="#fff"></rect><rect id="Rectangle_91" data-name="Rectangle 91" width="1" height="28" transform="translate(11226 45.431)" fill="#fff"></rect><rect id="Rectangle_90" data-name="Rectangle 90" width="2" height="28" transform="translate(11217 45.431)" fill="#fff"></rect><rect id="Rectangle_89" data-name="Rectangle 89" width="2" height="44" transform="translate(11208 39.431)" fill="#fff"></rect><rect id="Rectangle_88" data-name="Rectangle 88" width="2" height="93" transform="translate(11199 14.431)" fill="#fff"></rect><rect id="Rectangle_87" data-name="Rectangle 87" width="2" height="38" transform="translate(11190 40.431)" fill="#fff"></rect><rect id="Rectangle_86" data-name="Rectangle 86" width="2" height="47" transform="translate(11181 37.431)" fill="#fff"></rect><rect id="Rectangle_85" data-name="Rectangle 85" width="2" height="76" transform="translate(11172 22.431)" fill="#fff"></rect><rect id="Rectangle_84" data-name="Rectangle 84" width="1" height="91" transform="translate(11164 15.431)" fill="#fff"></rect><rect id="Rectangle_83" data-name="Rectangle 83" width="2" height="85" transform="translate(11155 17.431)" fill="#fff"></rect><rect id="Rectangle_82" data-name="Rectangle 82" width="2" height="89" transform="translate(11146 15.431)" fill="#fff"></rect><rect id="Rectangle_81" data-name="Rectangle 81" width="2" height="102" transform="translate(11137 10.431)" fill="#fff"></rect><rect id="Rectangle_79" data-name="Rectangle 79" width="2" height="119" transform="translate(11128 1.431)" fill="#fff"></rect><rect id="Rectangle_80" data-name="Rectangle 80" width="1" height="119" transform="translate(11120 1.431)" fill="#fff"></rect><rect id="Rectangle_77" data-name="Rectangle 77" width="2" height="119" transform="translate(11111 0.431)" fill="#fff"></rect><rect id="Rectangle_78" data-name="Rectangle 78" width="2" height="119" transform="translate(11102 0.431)" fill="#fff"></rect><rect id="Rectangle_75" data-name="Rectangle 75" width="2" height="114" transform="translate(11093 3.431)" fill="#fff"></rect><rect id="Rectangle_76" data-name="Rectangle 76" width="2" height="114" transform="translate(11084 3.431)" fill="#fff"></rect><rect id="Rectangle_74" data-name="Rectangle 74" width="2" height="53" transform="translate(11075 31.431)" fill="#fff"></rect><rect id="Rectangle_73" data-name="Rectangle 73" width="2" height="114" transform="translate(11066 3.431)" fill="#fff"></rect><rect id="Rectangle_72" data-name="Rectangle 72" width="1" height="114" transform="translate(11058 3.431)" fill="#fff"></rect><rect id="Rectangle_71" data-name="Rectangle 71" width="2" height="109" transform="translate(11049 6.431)" fill="#fff"></rect><rect id="Rectangle_70" data-name="Rectangle 70" width="2" height="53" transform="translate(11040 34.431)" fill="#fff"></rect><rect id="Rectangle_69" data-name="Rectangle 69" width="2" height="21" transform="translate(11031 50.431)" fill="#fff"></rect><rect id="Rectangle_68" data-name="Rectangle 68" width="2" height="33" transform="translate(11022 44.431)" fill="#fff"></rect><rect id="Rectangle_67" data-name="Rectangle 67" width="2" height="49" transform="translate(11013 36.431)" fill="#fff"></rect><rect id="Rectangle_66" data-name="Rectangle 66" width="2" height="49" transform="translate(11004 36.431)" fill="#fff"></rect><rect id="Rectangle_65" data-name="Rectangle 65" width="2" height="49" transform="translate(10995 36.431)" fill="#fff"></rect><rect id="Rectangle_64" data-name="Rectangle 64" width="2" height="17" transform="translate(10986 52.431)" fill="#fff"></rect><rect id="Rectangle_63" data-name="Rectangle 63" width="2" height="33" transform="translate(10977 44.431)" fill="#fff"></rect><rect id="Rectangle_62" data-name="Rectangle 62" width="2" height="49" transform="translate(10968 36.431)" fill="#fff"></rect><rect id="Rectangle_61" data-name="Rectangle 61" width="2" height="76" transform="translate(10959 22.431)" fill="#fff"></rect><rect id="Rectangle_60" data-name="Rectangle 60" width="1" height="49" transform="translate(10951 36.431)" fill="#fff"></rect><rect id="Rectangle_59" data-name="Rectangle 59" width="2" height="33" transform="translate(10942 44.431)" fill="#fff"></rect><rect id="Rectangle_58" data-name="Rectangle 58" width="2" height="7" transform="translate(10933 58.431)" fill="#fff"></rect><rect id="Rectangle_57" data-name="Rectangle 57" width="2" height="7" transform="translate(10924 58.431)" fill="#fff"></rect><rect id="Rectangle_56" data-name="Rectangle 56" width="2" height="7" transform="translate(10915 58.431)" fill="#fff"></rect><rect id="Rectangle_55" data-name="Rectangle 55" width="2" height="7" transform="translate(10906 58.431)" fill="#fff"></rect><rect id="Rectangle_162" data-name="Rectangle 162" width="2" height="7" transform="translate(10897 58.431)" fill="#fff"></rect><rect id="Rectangle_163" data-name="Rectangle 163" width="1" height="7" transform="translate(10889 58.431)" fill="#fff"></rect></g></svg> 