<?xml version="1.0" encoding="UTF-8"?> <svg xmlns="http://www.w3.org/2000/svg" width="142.512" height="42.742" viewBox="0 0 142.512 42.742"><path id="Spotify_logo_with_text" d="M21.624.277A21.371,21.371,0,1,0,43,21.648,21.372,21.372,0,0,0,21.624.277h0Zm9.8,30.823a1.331,1.331,0,0,1-1.832.442c-5.018-3.065-11.335-3.759-18.774-2.059a1.332,1.332,0,0,1-.593-2.6c8.141-1.86,15.124-1.059,20.757,2.384A1.332,1.332,0,0,1,31.425,31.1Zm2.616-5.819a1.666,1.666,0,0,1-2.292.549c-5.745-3.531-14.5-4.554-21.3-2.491a1.666,1.666,0,1,1-.968-3.188c7.761-2.355,17.41-1.214,24.007,2.84a1.666,1.666,0,0,1,.549,2.291Zm.225-6.06c-6.888-4.091-18.252-4.467-24.828-2.471a2,2,0,1,1-1.16-3.825c7.549-2.292,20.1-1.849,28.029,2.859a2,2,0,1,1-2.039,3.438Zm24.132.784c-3.69-.88-4.346-1.5-4.346-2.8,0-1.226,1.154-2.051,2.871-2.051a8.387,8.387,0,0,1,5.043,1.916.244.244,0,0,0,.342-.054l1.8-2.54a.242.242,0,0,0-.046-.329A10.9,10.9,0,0,0,56.976,11.7c-3.984,0-6.768,2.391-6.768,5.812,0,3.669,2.4,4.968,6.551,5.97,3.529.813,4.127,1.495,4.127,2.713,0,1.35-1.2,2.19-3.144,2.19a8.487,8.487,0,0,1-5.877-2.427.25.25,0,0,0-.176-.059.239.239,0,0,0-.166.084l-2.021,2.4a.243.243,0,0,0,.023.337A12.043,12.043,0,0,0,57.66,31.84c4.292,0,7.067-2.345,7.067-5.977.008-3.064-1.827-4.761-6.321-5.855l-.008,0ZM74.44,16.366A5.8,5.8,0,0,0,69.792,18.6v-1.69a.241.241,0,0,0-.24-.242h-3.3a.241.241,0,0,0-.24.242V35.694a.242.242,0,0,0,.24.242h3.3a.242.242,0,0,0,.24-.242V29.766a5.945,5.945,0,0,0,4.647,2.1c3.458,0,6.959-2.662,6.959-7.75s-3.5-7.752-6.957-7.752h0Zm3.116,7.752c0,2.59-1.6,4.4-3.882,4.4a4.106,4.106,0,0,1-3.963-4.4,4.106,4.106,0,0,1,3.963-4.4c2.248,0,3.882,1.849,3.882,4.4Zm12.814-7.752a7.767,7.767,0,1,0,7.914,7.752,7.791,7.791,0,0,0-7.914-7.752Zm0,12.177a4.2,4.2,0,0,1-4.155-4.426,4.1,4.1,0,0,1,4.1-4.373,4.214,4.214,0,0,1,4.18,4.428,4.114,4.114,0,0,1-4.127,4.371Zm17.423-11.875h-3.637V12.951a.241.241,0,0,0-.24-.242h-3.3a.243.243,0,0,0-.242.242v3.717H98.781a.241.241,0,0,0-.24.242v2.84a.241.241,0,0,0,.24.242h1.587v7.349c0,2.968,1.478,4.474,4.395,4.474a6.019,6.019,0,0,0,3.093-.771.236.236,0,0,0,.122-.209V28.13a.241.241,0,0,0-.115-.2.234.234,0,0,0-.235-.01,4.171,4.171,0,0,1-1.94.467c-1.059,0-1.534-.482-1.534-1.559V19.994h3.637a.241.241,0,0,0,.24-.242V16.912a.234.234,0,0,0-.237-.242l0,0Zm12.668.015v-.457c0-1.343.515-1.942,1.669-1.942a5.583,5.583,0,0,1,1.863.344.241.241,0,0,0,.316-.23V11.614a.239.239,0,0,0-.171-.232,9.052,9.052,0,0,0-2.746-.395c-3.05,0-4.665,1.719-4.665,4.968v.7h-1.587a.243.243,0,0,0-.242.242V19.75a.243.243,0,0,0,.242.242h1.587V31.325a.242.242,0,0,0,.242.242h3.3a.241.241,0,0,0,.242-.242V19.993H123.6l4.726,11.331c-.536,1.189-1.064,1.427-1.784,1.427a3.793,3.793,0,0,1-1.822-.518.263.263,0,0,0-.191-.018.24.24,0,0,0-.143.13l-1.12,2.458a.241.241,0,0,0,.1.314,6.954,6.954,0,0,0,3.527.9c2.44,0,3.79-1.138,4.976-4.2L137.6,17.014a.242.242,0,0,0-.222-.33h-3.44a.242.242,0,0,0-.23.162L130.188,26.91,126.33,16.84a.241.241,0,0,0-.225-.156H120.46Zm-7.345-.015h-3.3a.243.243,0,0,0-.242.242V31.325a.242.242,0,0,0,.242.242h3.3a.242.242,0,0,0,.242-.242V16.912a.242.242,0,0,0-.242-.242Zm-1.633-6.564a2.37,2.37,0,1,0,2.368,2.369A2.369,2.369,0,0,0,111.482,10.105Zm28.945,11.2a2.331,2.331,0,1,1,2.338-2.339,2.316,2.316,0,0,1-2.338,2.339Zm.013-4.432a2.1,2.1,0,1,0,2.08,2.093,2.079,2.079,0,0,0-2.08-2.093Zm.516,2.332.658.921h-.556l-.592-.845h-.508v.845h-.464V17.684h1.087c.569,0,.942.29.942.779a.724.724,0,0,1-.564.741Zm-.393-1.1h-.6v.772h.6c.3,0,.482-.148.482-.386S140.864,18.1,140.562,18.1Z" transform="translate(-0.253 -0.277)" fill="#1ed760"></path></svg> 