<?xml version="1.0" encoding="UTF-8"?> <svg xmlns="http://www.w3.org/2000/svg" width="105.887" height="121.413" viewBox="0 0 105.887 121.413"><g id="Group_11763" data-name="Group 11763" transform="translate(-550.789 -2431.256)"><g id="Group_11707" data-name="Group 11707" transform="translate(599.004 2467.571)"><path id="np_consumer-behaviour_6149115_FFFFFF" d="M24.922,42.942a6.257,6.257,0,1,1-6.263-6.258,6.266,6.266,0,0,1,6.263,6.258ZM4.965,22.177V12.7a2.343,2.343,0,0,1,2.342-2.337H21.76A2.339,2.339,0,0,1,24.1,12.7v9.472a2.337,2.337,0,0,1-2.337,2.337H19.314a.825.825,0,0,0-.823.821v3.734a.592.592,0,0,1-.945.48l-6.72-4.876a.841.841,0,0,0-.486-.158H7.307a2.343,2.343,0,0,1-2.342-2.337Zm5.2-4.157,2.529,2.529a.82.82,0,0,0,1.158,0l5.061-5.058a.822.822,0,0,0-1.163-1.161l-4.479,4.477-1.947-1.947a.82.82,0,1,0-1.158,1.161Zm8.5,32.819A13.682,13.682,0,0,0,5.072,62.749l-.042.309H32.295l-.039-.309a13.684,13.684,0,0,0-13.6-11.911Z" transform="translate(-4.965 -10.367)" fill="#fff"></path></g><g id="BK_New_Logo-01" data-name="BK New Logo-01" transform="translate(550.789 2431.256)"><path id="Path_93660" data-name="Path 93660" d="M422.945,512.322l-.025-.022Z" transform="translate(-371.668 -390.909)" fill="#fff"></path><path id="Path_93661" data-name="Path 93661" d="M295.25,155.075l.143-.165c-.07.076-.112.126-.143.165" transform="translate(-279.812 -133.773)" fill="#fff"></path><path id="Path_93662" data-name="Path 93662" d="M550.091,436.9l-.031.006Z" transform="translate(-463.143 -336.66)" fill="#fff"></path><path id="Path_93663" data-name="Path 93663" d="M390.871,451.225c-.065-.02-.1-.025-.1,0,.087.02.109.017.1,0" transform="translate(-348.537 -346.955)" fill="#fff"></path><path id="Path_93664" data-name="Path 93664" d="M395.2,476.431l.025-.031Z" transform="translate(-351.724 -365.08)" fill="#fff"></path><path id="Path_93665" data-name="Path 93665" d="M374.67,466.97l.073.017Z" transform="translate(-336.953 -358.295)" fill="#fff"></path><g id="Group_11729" data-name="Group 11729" transform="translate(0)"><path id="Path_93666" data-name="Path 93666" d="M247.261,111.2a49.672,49.672,0,0,0-2.118,4.494c-.168.4-.365.783-.511,1.187s-.295.8-.438,1.189c-.292.78-.578,1.532-.858,2.225-.107.651-.328,1.571-.583,2.488l-.238.031-.163.78c-.157.292.137-.595-.107-.073l.042.325c-.093.036-.64,1.938-.407.62a14.3,14.3,0,0,0-.384,1.5l-.339,1.509c-.154.665.09.429-.126,1.153-.1.137.017-.272-.073-.23a6.3,6.3,0,0,0-.3,2.41,8.975,8.975,0,0,1-.151,2.306l0-.18c.006.362-.1,1.035-.067,1.046.253-.244-.064-.387.157-1.007.177.079-.017.8.129.777a4.557,4.557,0,0,0-.053,1.206c-.168.715-.16,1.767-.345,2.306a9.21,9.21,0,0,1,.165,1.529c-.143.544-.137-.135-.191.614l.109.123c-.014.612-.045.516-.1.494a8.678,8.678,0,0,1,.084,1.369l-.107-.457c.042.609.025.858.02,1.706-.062-.017-.059-.356-.042-.609a2.1,2.1,0,0,0,.067,1.038c.028-.073.059-.662.163-.379-.02.421.208.884.1,1.189l-.14-.452a5.608,5.608,0,0,1,.21,1.464c-.011-.053-.036-.025-.062-.045a12.939,12.939,0,0,1,.193,2.4l-.042-.174c.059.376.2.569.219.771-.022-.536.031-.4.129-.454-.067.721.37,1.038.443,2.188-.065-.008-.18-.272-.165-.595a2.51,2.51,0,0,1-.595-1.077c.109.429.216.937.121.839l.188.112c.039.264.07.471.1.668.123.1.09-.555.255.039.16.673-.115.39-.022.485.213.929.241.359.328,1.274a1.418,1.418,0,0,1-.081-.339c.017.665.314,1.579.16,1.809a.485.485,0,0,1-.166-.339l.034,0c-.3-.679.168.583-.059.4.1-.073.269.839.339,1.251l.093-.157c.687,1.262-.267-.014.121,1.307.3.825-.051-.328.171.168a7.807,7.807,0,0,0,.365,1.635c.022.244.1.732-.022.813a9.869,9.869,0,0,1,.306.987,2.639,2.639,0,0,0,.345.8c-.185-.884-.429-.805-.561-1.865l.216.241c.191.7.569,1.554.684,2.045-.008-.1.011-.16.059-.107.379.962.614,1.192.945,2.138-.067.168-.261-.387-.429-.783a13.239,13.239,0,0,0,.567,1.585c-.081.09-.241-.634-.382-.7l.438,1.027-.02.008c.23.079.323.785.645,1.389a8.454,8.454,0,0,0,1.518,2.32c.059.238.048.323-.036.252-.1-.39-.126-.3-.23-.4.247.482.367,1.145.165.909.454.741-.062-.32.238.121l.544,1.049c.017-.168-.16-.544.191-.039.264.443.359.673.7,1.254-.09-.062-.017.255-.267-.185a2.726,2.726,0,0,0,.564.864c-.3-.679.679,1,.525.454.1.227.2.449.311.67-.087-.143-.151-.126-.266-.345-.011.252.356.488.5.7a7.41,7.41,0,0,1,.452.884,2.664,2.664,0,0,1,.446.794c.222.269.093-.028.188.028l.659.973c-.028.1-.151.3-.275.174.317.325.278,0,.662.553-.356-.222.44.783-.042.44a8.869,8.869,0,0,0,1.215,1.72c.325.224-.353-.558-.224-.609,1.088,1.318,1.428,1.175,2.177,2.174-.062-.09-.126-.174-.185-.266a5.081,5.081,0,0,0,.872.757c-.247-.073.25.959,1.173,1.857.129.025-.387-.62-.154-.55l.6.6c.034.053-.05,0-.14-.062.564.511.83,1.17,1.122,1.189l.4.7-.151-.283a8.079,8.079,0,0,1,.9.7,5.181,5.181,0,0,1,1.173,1.184c-.07-.149-.253-.508.269-.067-.174.182,1.007,1.029.917,1.1.216.174.544.547.634.491l-.135.09c.194-.132.943.547,1.591.971-.32.126.687.5.8.917.227-.059,1.153.755,1.366.69.491.334.337.452.424.592l.269.1a16.281,16.281,0,0,0,1.647,1.293l.614.188.151.191c.109.014.567.252.326.034l.283.18c.124-.151.432.194,1.049.463.118.1.059.123-.079.073.286.171.115.182.238.331-.185-.151,1.215.286.471-.222-.017-.1.471.1.741.283l.093.247.432.025a8.76,8.76,0,0,1,.959.631c-.376-.188-.99-.143-.011.359a11.184,11.184,0,0,0-1.1-.4c.2.115.292.182-.056.079.788.356.3.05,1.069.418-.112.118.081.267.729.64l-.452-.345.115.008c-.182-.107-.224-.154-.238-.227.151.076.973.258,1.06.4-.665-.589,1.422.482.99.112a1.572,1.572,0,0,1,.679.32c-.7-.177.418.373.269.426.261.065-.466-.328-.115-.238a3.794,3.794,0,0,1,.836.508l-.174-.042.575.325c.129-.028-.53-.373.036-.171.132.093.713.269.67.32-.309-.006-.165.2-.656.039.4.143,1.68.617,1.22.283l.474.188c-.278-.177-1.066-.606-.107-.261l-.02.025.7.146c.087.062.174.123.264.18.005-.039.123-.039.37.048.05.065.278.163.238.213.724.238.69.143.8.132.407.126.547.208.331.23.541.222,1.534.46,1.891.659.769.152-.146-.076.323-.048a2.536,2.536,0,0,0,.645.323c.281.093.612.177.962.258.7.157,1.484.32,2.115.415-.289-.3.348.042.62-.121-.283.02,1.147.418.042.261l.67.112c.432.219-1.122-.129-.468.185a5.877,5.877,0,0,0,1.038.081,4.134,4.134,0,0,1,1.128.123c-.325.118.693.053.443.2a3.141,3.141,0,0,1-.693-.053l.151.056c1.652.311.511-.118,1.391-.1,1.013.107.78.224.83.311a4.03,4.03,0,0,0,.94.07c-.631.031-1.133-.236-.833-.309a3.966,3.966,0,0,0,1.781.146c-1.419-.365-1-.126-2.326-.5-.194.039-.185.216-.985.017.519,0-.02-.1-.16-.149.14.123-.567-.048-.819-.048-.21-.115.519-.146-.289-.317l-.194.2c-.314-.09.163-.137-.522-.208.387-.048-.079-.194.847-.084a8.414,8.414,0,0,0-2.553-.3c.09,0,.107-.025.194-.022a3.694,3.694,0,0,1-.774-.087c-.541-.18.463,0,.334-.1-.3-.053-.6-.135-.9-.2l-.02-.022a1.121,1.121,0,0,1-.539-.137c.283-.006.407-.056.6-.07l-.973-.076c.121-.048-.738-.317-.059-.208-.466-.1-.926-.208-1.383-.337l-.073-.182c-.334-.07-.354-.042.034.09-.454-.171-2.154-.342-1.812-.572a28.715,28.715,0,0,1-2.766-.8c1.021.238-1.046-.6,0-.266a5.294,5.294,0,0,0-1.246-.345c-.421-.233-.163-.3.337-.165l-.589-.151.022-.025c-.174-.034-.345-.081-.516-.121-.477-.3-.048-.191-.564-.438l-.168.076-.323-.227c.109.115-.213.006-.6-.149l.022-.025c-.16-.056-.317-.121-.471-.188.485.143-.4-.23-.154-.216-.387-.194-.4-.2-1.108-.516l.081.146c-.954-.373.023-.143-.712-.513l0,.121c-.957-.729-1.837-.844-2.533-1.4.446.233.4.059.376.081-.665-.359-1.725-.982-2.446-1.3-.157-.289-.188-.365-.822-.858a1.88,1.88,0,0,0-.783-.376c-.426-.376-1.346-.912-1.3-1.021-.16,0-.407-.3-.7-.435l-.025-.079-.025.118c-.64-.811-1.447-.9-2.084-1.725l.151.09-.353-.238c-.022-.079.129.008.185-.028-.5-.432-1.016-.836-1.492-1.288l.236.32a5.783,5.783,0,0,1-.9-.746c.7.407-.482-.443-.494-.62l.342.253c-.435-.379-.435-.379-.474-.267-.575-.485-.23-.5-.808-.9l.348.348c.062.146-.255-.036-.488-.266-.045-.067-.177-.264.011-.1-.454-.381-1.049-1.041-1.251-1.206-.2-.255-.067-.233.073-.126-.937-.85-.379-.426-1.316-1.282l.059-.025-.342-.278-.311-.553.087.219a9.279,9.279,0,0,1-.78-.858l.2.087c-.8-.853-.741-1.139-1.546-1.916-.034-.07.1.048.163.107-.76-.713-.345-.713-1.111-1.431.062.031.025-.081.07-.065l-.331-.342.121-.045-.379-.2c-.025-.1-.048-.2-.067-.309l-.151-.115c-.093-.55-.642-1.029-.884-1.691l-.065.182c-1.223-1.279-1.983-3.434-3.066-5.212l.126-.025-.533-.693c-.132-.452.224.2.213.042-.485-.788-.337-.261-.839-1.209-.165-.53.165.132.317.345-.244-.44-.55-.985-.811-1.509a13.992,13.992,0,0,1-.581-1.375l-.05,0a20.589,20.589,0,0,1-.867-2.126c.059,0,.135.163.213.331a3.759,3.759,0,0,0-.323-.794l.2.222a7.314,7.314,0,0,1-.553-1.694c-.022.079-.121.084-.275-.382.079-.309-.48-1.245-.612-2.028.07.076.247.626.2.468a3.617,3.617,0,0,0-.409-1.018l.1.081c-.2-.575-.379-1.161-.569-1.742.1-.3-.421-1.675-.258-1.585-.132-.64.034.553-.163-.25.031-.23-.2-.724-.067-.713l.034.084c-.039-.188-.1-.373-.123-.564.056.112.123.224.188.334-.129-.48-.283-.822-.384-.828a9.375,9.375,0,0,1-.09-1.36l.056.168a10.137,10.137,0,0,1-.146-1.717,7.288,7.288,0,0,0-.053-.749,3.916,3.916,0,0,0-.126-.746c.011-.079.042-.073.053.09l-.056-.814.107.185-.247-1.33.062.014c-.022-.443-.07-1.013-.126-1.61-.036-.6-.031-1.234-.05-1.807l.031.171c-.1-1.248.056-1.206-.017-2.118l.028.1-.006-.822.062.182a5.564,5.564,0,0,1,.146-1.358,5.519,5.519,0,0,0-.132-1.049c.059-.895.1-.213.188-.763a9.549,9.549,0,0,1,.1-1.638l.059.025c.05-.407.042-.665.118-1.234l0,.171c.008-.943.348-1.122.188-1.891.107-.379.171-1.122.3-1.06.177-1.147.337-2.039.541-3.181.238-.132.036-.247.311-.9l-.121.022c.23-.785.547-1.61.864-2.449.154-.421.311-.847.466-1.274s.342-.842.485-1.268l.121-.008.017-.376c.384-.889.766-1.933,1.215-2.892l1.24-2.555c.081-.241.182-.547.3-.886a6.559,6.559,0,0,1,.527-1.021l-.028.081c.317-.623.648-1.265,1-1.91.18-.32.362-.645.544-.973.21-.311.429-.623.654-.931-.014.1.1-.006.028.154a4.024,4.024,0,0,1,.676-1.018l-.281.275a2.784,2.784,0,0,1,.771-1.021l.286-.64.107-.079.02-.135c.107-.073.21-.149.325-.213a6.92,6.92,0,0,0,.673-1.2c.079-.022.5-.508.219-.1l1.571-1.952-.278.275c-.118-.034.295-.673.609-.917-.278.438.09.132.3.022.185-.292-.272.157-.2-.014a7.039,7.039,0,0,1,1-1.2l-.14.219c.362-.46.682-.53,1.058-.962.281-.443.595-.67.39-.721.5-.558.295-.115.477-.272a3.992,3.992,0,0,1,1.147-1.007c.107-.48,1.515-1.313,1.47-1.588a5.64,5.64,0,0,1,.541-.309c-.025-.059-.022-.241.345-.575.407-.247.39-.093.539-.135l.1-.376c.561-.382,1.144-.814,1.745-1.279.149-.115.3-.233.452-.353l.482-.328c.323-.222.651-.446.979-.673.656-.452,1.321-.906,1.972-1.352s1.344-.8,1.992-1.153c.555-.353,1.181-.752,1.829-1.167.665-.39,1.361-.78,2.051-1.119l-.137.1,1.4-.606-1.044.384c.289-.168.5-.32.8-.457.769-.337,1.694-.656,2.64-1.046.965-.348,1.952-.76,2.912-1.136,1.175-.69.906-.076,2.068-.634-.1.056-.126.1-.21.157,1.285-.5,2-.718,3.3-1.212-.093.289.875-.2.785-.039l.09-.129c.314,0,1.021-.14.937-.042l.572-.241.073.1c.4-.067,1.016-.21,1.6-.3a4.012,4.012,0,0,1,1.344-.045,36.094,36.094,0,0,1,7.616-.606,8.3,8.3,0,0,1,1.661-.093l.609.157a8.574,8.574,0,0,1,1.75-.045l-.065.031c.595-.011,1.15.109,1.711.045.648.067,1.268.194,1.058.3.042-.1.384-.065.715,0,.166.034.328.07.449.1s.2.065.2.065.513.081,1.425.23c.454.076,1.013.149,1.652.272l2.146.454A59.485,59.485,0,0,1,325,88.145a62.277,62.277,0,0,1,11.765,7.134c3.389,2.581,6.076,5.03,7.658,6.362.264.132.836.648.729.348.432.41.474.735.631.746-.494-.64.376,0-.059-.668l.365.356c.126.025-.533-.452-.345-.452L345.5,102a2.39,2.39,0,0,1-.426-.668,2.9,2.9,0,0,1-1.22-.987l.182.18c-.513-.547-.219-.426-.306-.561l.115.121-.376-.516c.3.376.951.853.659.555-.578-.69.132.2-.356-.269-.3-.286-.146-.278-.087-.309l-.539-.525c.084-.048.351.353.2.073l-.743-.6c.036-.292-.805-.648-.971-1.1.533.429.011-.1.14-.081L340.517,96.2c-.1-.129.376.241.18.079-.191-.258-.424-.3-.547-.418-.065-.146-.931-.836-.805-.912-.816-.8-.5-.151-1.262-.886-.048-.163.668.513.365.14l-.875-.668a.956.956,0,0,1,.57.292c-2.239-1.961-3.307-3.282-5.689-4.671-.266-.309.272.087.544.177a17.5,17.5,0,0,1-1.989-1.285,11.314,11.314,0,0,0-1.79-1.2l-.07.067a21.388,21.388,0,0,0-3.38-1.851c-.617-.275-1.245-.553-1.871-.83-.64-.247-1.276-.5-1.9-.766l.278.174a12.637,12.637,0,0,1-1.366-.365c-.05-.065.37-.09-.387-.289.143.081.446.213.339.224a32.89,32.89,0,0,0-4.685-1.579c-.48-.129-.971-.269-1.467-.39s-1.007-.216-1.512-.323l-1.5-.325-1.45-.252a67.054,67.054,0,0,0-15.745-.519c.769-.087.46.174-.121.182-1.627-.224-2.729.382-4.373.393-2.881.631-5.54.962-8.071,2.1l-.084-.087a5.065,5.065,0,0,0-.889.348v-.031c-.985.281-2.087.85-2.651,1.013l.011.129c-.558.23-.328.025-.872.337l-.008-.065-.617.4c-.011-.112-.4.053-.856.261a9.664,9.664,0,0,1-1.181.55c-.7.359-1.964,1.136-3.024,1.666a17.066,17.066,0,0,0-2.326,1.175L268.2,89c-.443.3-.892.637-1.366.971-.937.682-1.952,1.358-2.875,2.039l.118.084-.457.387c-.011-.031-.084.008-.023-.062-.457.171-1.038.914-1.473,1.145.314-.1.337-.252.6-.466.421-.261.143.143-.412.511l-.008-.031-.3.345c-.109-.051-.46.171-.572.121a13.693,13.693,0,0,0-1.027.926c-.3.317-.586.623-.875.926-.575.609-1.161,1.217-1.916,1.9.037-.109-.238.132-.463.387s-.454.474-.393.25c-.763.962.258-.031-.006.485-.23.25-.426.555-.527.547.07-.154-.281.118-.109-.1l-.536.617c-.064.048.034-.107.084-.182a21.956,21.956,0,0,1-1.532,1.7,15.828,15.828,0,0,0-1.332,1.7c-.008.135.382-.454.376-.32-.8,1.279-.926.962-1.7,2.138l.093-.292a4.649,4.649,0,0,1-.727,1.195c-.177.036.267-.583.421-.917-.289.424-.982,1.52-.67,1.257a4.466,4.466,0,0,1-.735.914c.02.025.387-.432.236-.1a19.889,19.889,0,0,0-1.739,2.617c-.022-.022-.1.014-.067-.07-.306.8-.5.583-1.029,1.585" transform="translate(-240.217 -79.562)" fill="#fff"></path><path id="Path_93667" data-name="Path 93667" d="M294,169.273a53.622,53.622,0,0,0-.309,9.117c.146.592.182,1.462.314,2.328l-.135.107.121.724c-.011.3-.084-.555-.084-.025l.118.264c-.059.065.241,1.863-.048.665.135.94.275,1.879.474,2.808.121.62.185.337.295,1.024-.011.146-.084-.238-.121-.171a10.609,10.609,0,0,0,.617,2.149,11.2,11.2,0,0,1,.718,2l-.065-.151.222.564a2.393,2.393,0,0,0,.137.337c.062-.283-.2-.3-.292-.892.123.014.3.679.373.612a7.679,7.679,0,0,0,.4,1.041c.129.668.572,1.532.662,2.042.154.295.407.586.71,1.223.124.5-.135-.07.121.572l.112.07c.224.519.171.449.132.443.258.547.314.407.617,1.1l-.255-.345c.283.488.373.7.729,1.394-.048.006-.188-.275-.283-.485a2.342,2.342,0,0,0,.488.825c-.006-.073-.264-.547-.07-.353a5.764,5.764,0,0,1,.561.948l-.272-.331a6.829,6.829,0,0,1,.735,1.147l-.056-.02a18.306,18.306,0,0,1,1.2,1.871l-.107-.129c.2.283.381.4.482.555-.252-.426-.157-.328-.126-.4.28.6.69.732,1.251,1.635-.042.011-.233-.168-.367-.432a2.87,2.87,0,0,1-.844-.7c.258.314.55.693.449.64l.165.036.359.511c.118.042-.193-.471.174-.039.415.485.115.339.216.387.581.662.323.21.816.895a1.682,1.682,0,0,1-.213-.241,10.48,10.48,0,0,1,.965,1.366.551.551,0,0,1-.269-.216l.022-.006c-.513-.443.387.4.157.325.025-.081.575.572.819.87l-.02-.146c1.035.788-.182.073.71.976.6.539-.2-.236.191.081a13.088,13.088,0,0,0,1.038,1.145c.126.188.435.519.4.614a16.522,16.522,0,0,0,1.316,1.156c-.553-.623-.673-.494-1.3-1.243l.261.121c.5.449,1.13,1.021,1.475,1.335-.059-.073-.076-.118-.02-.1.755.586,1.013.7,1.714,1.3.042.143-.373-.2-.676-.457a8.713,8.713,0,0,0,1.2.99c-.006.087-.494-.382-.626-.39l.833.6-.008.011c.2-.014.609.5,1.15.819a9.7,9.7,0,0,0,2.253,1.192c.171.143.21.2.115.179-.28-.236-.25-.165-.373-.208.432.252.872.676.609.572.7.387-.21-.2.224.017.311.188.612.393.931.569-.081-.118-.41-.314.107-.081.426.213.62.334,1.164.637-.093-.017.126.177-.281-.051a3.443,3.443,0,0,0,.85.429c-.581-.359,1.024.449.614.132l.583.348a3.588,3.588,0,0,1-.373-.151c.132.168.51.219.729.314.2.126.766.4.8.44a2.948,2.948,0,0,1,.755.37c.3.109.048-.048.146-.039.334.143.662.3,1,.429.034.07.067.236-.1.2.4.1.194-.093.777.129-.37-.031.743.359.216.292a8.337,8.337,0,0,0,1.818.679c.356.028-.567-.227-.505-.294,1.515.443,1.661.283,2.766.609l-.283-.1a6.612,6.612,0,0,0,1.046.168c-.109.022.07.143.424.292a9.066,9.066,0,0,0,1.467.4c.107-.031-.626-.236-.421-.275l.769.149c.053.02-.034.02-.135.011a6.294,6.294,0,0,0,1.481.289l.682.264-.269-.109c.1-.036.884.084,1.049.081a5.733,5.733,0,0,1,1.52.23c-.135-.059-.468-.194.16-.137-.025.182,1.316.177,1.29.255.255.014.707.1.741.031l-.048.1c.034-.07.283-.087.614-.084s.741-.008,1.1-.014c-.166.194.783,0,1.1.182.135-.126,1.268-.087,1.391-.2a.832.832,0,0,1,.642.14l.252-.056c.281.048,1.313-.028,1.93-.034.185-.056.373-.1.558-.168l.216.025c.087-.042.555-.118.261-.126l.306-.034c.008-.129.426-.09,1.032-.224.143,0,.112.036-.02.07.306-.039.185.045.359.062-.219.006,1.055-.421.23-.331-.065-.042.4-.163.7-.194l.2.081.334-.182c.46-.1.676-.059,1.049-.135-.379.093-.808.41.182.182-.516.14-.763.244-1.032.314.208-.034.314-.039,0,.065.777-.18.25-.1,1.015-.292-.02.109.2.093.881-.028l-.519.042.09-.048c-.193.034-.25.031-.3,0a6.21,6.21,0,0,1,1-.3c-.8.031,1.307-.443.794-.424a1.978,1.978,0,0,1,.67-.174c-.609.252.5-.022.424.076.227-.1-.516.067-.21-.059a5.043,5.043,0,0,1,.886-.16l-.151.062c.2-.042.4-.076.592-.132.079-.079-.581.1-.062-.1a5.556,5.556,0,0,1,.662-.185c-.23.151-.017.179-.463.348.373-.135,1.56-.547,1.046-.477l.446-.149c-.294.053-1.1.244-.213-.07v.022c.2-.1.4-.185.592-.286l.283-.056c-.017-.022.07-.081.294-.168.07.006.286-.067.286-.022.654-.264.581-.292.654-.353.362-.151.508-.185.362-.062.5-.188,1.349-.606,1.708-.7.637-.342-.143.042.21-.2a5.315,5.315,0,0,0,1.45-.612c.589-.311,1.229-.673,1.722-.99-.354.025.269-.177.384-.41-.194.171,1.027-.457.16.1l.536-.331c.415-.143-.867.581-.244.353.614-.353.912-.752,1.635-1.159-.171.247.516-.381.41-.165a3.923,3.923,0,0,1-.516.382l.135-.062c1.316-.822.3-.353.937-.861.757-.561.651-.365.727-.353a5.074,5.074,0,0,0,.69-.533c-.426.393-.9.569-.727.356a4.961,4.961,0,0,0,1.31-1c-1.164.682-.757.541-1.857,1.164-.118.135-.022.219-.684.592.365-.306-.062-.034-.185.022.157-.025-.424.309-.6.457-.2.07.295-.373-.356.02l-.039.208c-.264.143.05-.16-.469.21.25-.247-.149-.048.558-.536a12.629,12.629,0,0,0-1.966,1.33c.067-.051.065-.073.129-.121a4.727,4.727,0,0,1-.595.4c-.474.23.328-.269.188-.238-.241.149-.491.283-.743.412h-.025a1.378,1.378,0,0,1-.46.233c.2-.16.266-.25.4-.365l-.743.5c.062-.09-.693.261-.146-.065-.387.2-.769.426-1.17.606l-.146-.048c-.278.146-.278.168.07.025-.418.163-1.745.993-1.61.707-.928.46-1.282.581-2.438,1.063.878-.4-1.086.238-.135-.129a6.877,6.877,0,0,0-1.1.46c-.432.1-.275-.062.163-.25l-.513.224,0-.022c-.149.067-.295.146-.443.208-.511.087-.135-.07-.651.062l-.084.121-.362.048c.143,0-.154.107-.525.219l0-.022-.446.146c.435-.174-.418.09-.23-.034-.39.087-.4.09-1.1.267l.138.034c-.909.266-.059-.081-.805.084l.062.059c-1.1.1-1.823.41-2.637.471.457-.087.328-.157.323-.132-.687.135-1.821.252-2.53.424a2.614,2.614,0,0,0-1.083-.1,2.115,2.115,0,0,0-.788.14,10.964,10.964,0,0,1-1.532,0c-.121.064-.468,0-.757.062l-.062-.031.045.07c-.926-.171-1.571.073-2.5-.1l.163-.008-.4,0c-.062-.036.1-.045.121-.084l-1.821-.135.354.079a4.874,4.874,0,0,1-1.083-.07c.738-.022-.6-.073-.71-.171l.393.017c-.533-.056-.533-.056-.5.022-.693-.059-.457-.177-1.1-.208.151.025.3.056.449.076.129.062-.2.076-.508.02-.07-.022-.278-.09-.048-.062-.544-.062-1.349-.233-1.593-.244-.286-.076-.182-.109-.02-.1-1.156-.18-.513-.123-1.672-.306l.028-.036-.4-.036c-.182-.064-.356-.151-.536-.224l.185.1c-.373-.093-.612-.126-1.041-.264l.191-.011c-1.057-.238-1.181-.424-2.185-.656-.065-.031.1,0,.177.014-.934-.208-.659-.3-1.593-.525.062,0-.028-.059.014-.062l-.424-.115.059-.065-.376-.011-.221-.174-.174-.022c-.381-.294-1.024-.463-1.562-.816l.059.137c-1.579-.418-3.271-1.669-4.993-2.544l.07-.053-.732-.337c-.331-.281.255.076.163-.031-.752-.41-.367-.084-1.229-.586-.39-.334.18.05.4.143-.415-.216-.889-.541-1.349-.836a10.23,10.23,0,0,1-1.125-.805l-.034.011c-.513-.353-1.159-.864-1.689-1.3.039-.02.168.09.309.188a5.322,5.322,0,0,0-.614-.5l.241.112a10.9,10.9,0,0,1-1.243-1.091c.031.062-.042.1-.367-.213-.1-.264-.94-.805-1.428-1.349.084.039.48.4.37.295a7.4,7.4,0,0,0-.769-.665l.1.034-1.234-1.17c-.081-.267-1.074-1.189-.931-1.161-.4-.46.295.418-.224-.149-.1-.188-.477-.5-.393-.533l.062.056c-.118-.135-.227-.275-.339-.412l.272.213c-.3-.351-.572-.564-.634-.544a11.917,11.917,0,0,1-.715-1.035l.115.115a10.2,10.2,0,0,1-.872-1.338,8.37,8.37,0,0,0-.786-1.153c-.031-.067-.008-.07.073.056l-.4-.637.149.118c-.247-.334-.51-.662-.749-1l.042-.008c-.4-.724-1.077-1.821-1.554-2.772l.09.132a17.558,17.558,0,0,1-.867-1.765l.053.073-.317-.693.107.137a6.361,6.361,0,0,1-.463-1.178,7.38,7.38,0,0,0-.485-.844c-.309-.771-.034-.2-.177-.7-.194-.569-.295-.645-.527-1.428l.045,0c-.138-.356-.227-.575-.384-1.083l.065.146a13.655,13.655,0,0,0-.541-1.678c-.053-.362-.244-1.027-.154-1.013-.163-.516-.28-.982-.384-1.45s-.224-.931-.325-1.459c.109-.191-.042-.227-.062-.881l-.065.059c-.258-1.5-.216-3.254-.328-4.915l.07-.051c-.036-.109-.062-.222-.09-.331-.025-1.8.1-4.118.236-5.543a11.537,11.537,0,0,1,.121-1.924v.079a26.871,26.871,0,0,1,.693-4.028c.011.093.062-.039.048.121a3.939,3.939,0,0,1,.258-1.1l-.143.331a3.563,3.563,0,0,1,.351-1.133l.087-.637.059-.1,0-.118.194-.295a9.388,9.388,0,0,0,.25-1.248c.045-.05.258-.606.129-.163.269-.727.539-1.456.825-2.174-.059.107-.112.216-.163.325-.093.014.132-.651.3-.973-.129.46.081.076.208-.09.084-.306-.166.23-.137.059a7.331,7.331,0,0,1,.533-1.352l-.076.227c.208-.5.426-.673.648-1.156.149-.457.351-.752.2-.718.3-.623.2-.2.317-.39a5.143,5.143,0,0,1,.7-1.229c.025-.421,1-1.568.937-1.77.118-.149.25-.289.376-.432-.025-.036-.042-.18.2-.575.275-.339.278-.213.384-.3l.034-.328a47.53,47.53,0,0,1,5.582-6.427,31.742,31.742,0,0,1,3.055-2.853l-.109.118c.37-.292.735-.592,1.128-.856-.292.182-.575.379-.847.586a5.73,5.73,0,0,1,.634-.569c1.274-.9,2.993-2.056,4.606-3.089.985-.774.769-.314,1.756-.976-.081.062-.1.1-.177.16,1.1-.642,1.692-1.013,2.825-1.624-.062.222.757-.353.69-.222l.067-.109c.272-.093.909-.306.836-.23l.491-.292.073.05a11.6,11.6,0,0,1,2.615-.847,32.136,32.136,0,0,1,6.881-1.706,8.331,8.331,0,0,1,1.515-.278l.572.017a7.174,7.174,0,0,1,1.6-.224l-.056.028c.547-.05,1.069-.062,1.579-.151.6-.008,1.187.025,1,.109.028-.073.348-.076.656-.059a5.1,5.1,0,0,1,.614.065s.483.02,1.338.05c.429.006.951.045,1.551.1s1.285.093,2.028.208a46.287,46.287,0,0,1,11.022,2.777,43.257,43.257,0,0,1,5.908,2.783A44.781,44.781,0,0,1,368,140.736a61.29,61.29,0,0,1,6.814,6.152c.213.154.69.679.586.415.362.412.418.685.542.724-.426-.612.292.07-.093-.555l.306.356c.1.045-.443-.466-.3-.432l-.188-.022a2.884,2.884,0,0,1-.376-.623,4.408,4.408,0,0,1-1.032-1.007l.163.171c-.463-.513-.219-.373-.3-.5l.1.115-.339-.482c.261.362.83.839.57.555-.525-.645.118.182-.306-.272-.261-.283-.138-.25-.1-.264l-.466-.516c.062-.025.3.345.163.093-.213-.2-.415-.412-.64-.6,0-.224-.726-.623-.9-1.013.471.421,0-.079.1-.042-.359-.37-.738-.721-1.128-1.06-.093-.115.337.238.154.087a2.607,2.607,0,0,0-.5-.4c-.073-.121-.856-.78-.763-.819-.774-.715-.429-.177-1.153-.842-.062-.132.614.48.317.154l-.805-.623a1.17,1.17,0,0,1,.5.295c-.513-.463-1-.833-1.431-1.2s-.828-.724-1.245-1.032-.822-.626-1.265-.94a17.06,17.06,0,0,0-1.5-.886c-.272-.244.247.084.494.171-.412-.21-.752-.4-1.052-.589s-.578-.337-.839-.5a12.153,12.153,0,0,0-1.728-.979l-.053.045a34.892,34.892,0,0,0-6.794-2.693l.272.121c-.345-.034-.878-.177-1.276-.261-.053-.045.317-.051-.384-.216.14.056.426.163.331.168a32,32,0,0,0-4.427-1.063c-.9-.163-1.854-.269-2.8-.4-.945-.073-1.879-.194-2.757-.23a47.583,47.583,0,0,0-14.43,1.588c.685-.2.432.031-.093.143-1.492.129-2.418.78-3.888,1.108a37.3,37.3,0,0,0-6.92,3.316l-.078-.039a6.284,6.284,0,0,0-.741.471l0-.022c-.833.438-1.728,1.145-2.194,1.417l.017.087a6.318,6.318,0,0,0-.724.466l-.011-.042c-.171.143-.328.306-.491.457-.034-.154-1.262.934-1.658,1.15-.53.491-1.56,1.389-2.379,2.11a17.162,17.162,0,0,0-1.809,1.579,57.075,57.075,0,0,0-4.031,4.665l.1.025-.32.452c-.011-.02-.065.034-.022-.039a17.121,17.121,0,0,0-1.03,1.38c.222-.188.23-.311.415-.567.306-.339.118.059-.269.533l-.011-.022-.188.376c-.087,0-.323.3-.41.3-.244.384-.471.738-.673,1.086s-.376.693-.558,1.032c-.382.673-.718,1.375-1.17,2.2.008-.1-.146.2-.295.474s-.269.541-.252.342c-.435,1.043.182-.118.053.39a2.779,2.779,0,0,1-.314.628c.031-.149-.188.2-.09-.042l-.309.687c-.039.062.008-.1.036-.177-.266.721-.544,1.341-.822,1.944a16.9,16.9,0,0,0-.69,1.865c.014.112.2-.508.213-.4-.379,1.332-.471,1.133-.8,2.384l.014-.275a6.358,6.358,0,0,1-.306,1.251c-.107.1.073-.586.143-.909-.146.449-.415,1.616-.252,1.282a5.667,5.667,0,0,1-.342,1.024c.017.014.188-.5.14-.168-.216.738-.485,1.9-.648,2.822-.02-.011-.062.048-.056-.036a16.258,16.258,0,0,1-.342,1.686" transform="translate(-278.647 -115.321)" fill="#fff"></path><path id="Path_93668" data-name="Path 93668" d="M281.882,312.973c.676.805,1.607,1.79,2.264,2.592a2.674,2.674,0,0,1,.693.569l-.084.123.219.174c.042.112-.16-.14-.07.045l.138.017c-.025.051.446.553.062.278.238.267.471.536.729.788.163.174.185.014.342.227.006.067-.087-.048-.109.006.474.64.839.454,1.3,1.021l-.056-.031c.115.062.275.236.294.222.034-.168-.149-.036-.244-.258.1-.073.241.151.3.073.09.151.216.168.328.264.132.23.438.438.51.637a1.335,1.335,0,0,1,.5.241c.076.2-.1.036.073.241l.078-.025c.149.154.112.146.084.166.166.157.2.059.387.283l-.166-.056a5.009,5.009,0,0,1,.457.382c-.031.028-.121-.051-.18-.118.053.182.241.143.3.208,0-.039-.146-.182-.022-.171.1.1.3.126.325.258l-.168-.05c.269.154.182.036.432.283l-.036.017c.23.073.4.323.642.541l-.059-.025c.118.067.213.065.264.112-.118-.151-.065-.135-.034-.2.115.25.37.14.648.435-.031.028-.137.008-.2-.093-.185.011-.264.084-.488-.034.135.078.286.177.224.194l.109-.059c.076.053.129.1.185.146.076-.034-.076-.2.123-.112.216.118.031.168.093.151.292.166.185-.011.415.21l-.109-.059c.154.174.46.325.432.474-.045,0-.076.031-.138-.031l.014-.014c-.261-.076.185.107.048.157.031-.07.278.14.384.238l.014-.1c.533.093-.118.118.283.381.275.14-.078-.09.107-.022a1.73,1.73,0,0,0,.449.376c.05.076.165.208.123.292.174.073.438.351.575.334-.213-.241-.314-.1-.547-.4l.137-.017a7.119,7.119,0,0,1,.626.418l.011-.067a3.785,3.785,0,0,1,.727.379c-.008.1-.168-.034-.3-.109.151.18.188.143.471.353-.025.073-.2-.129-.269-.1.109.07.227.129.339.191l-.008.011c.112-.073.247.163.468.258a2.027,2.027,0,0,0,.954.28c.053.073.059.112.014.118-.09-.118-.09-.07-.149-.067.168.09.292.32.177.306.275.126-.059-.112.118-.048l.348.224c-.011-.079-.126-.168.078-.1a4.619,4.619,0,0,1,.44.241c-.045.011.02.118-.135.031a.515.515,0,0,0,.334.143c-.2-.174.4.154.275-.02l.2.171c-.05-.028-.076,0-.146-.048.02.118.2.078.281.112.07.059.272.18.272.222.084.017.25.129.258.191.115.042.037-.05.081-.059l.356.2c-.006.056-.039.2-.1.191.163.028.121-.112.331-.006-.168.031.247.2.014.227a1.67,1.67,0,0,0,.642.359c.154-.014-.188-.14-.137-.208.55.233.682.042,1.058.269l-.093-.07a1.074,1.074,0,0,0,.4.079c-.112.059.163.39.586.536.056-.034-.191-.188-.09-.233l.281.1-.062.017c.258.07.4.314.522.236l.191.244-.073-.1c.053-.031.334.07.4.076a.857.857,0,0,1,.516.275c-.034-.059-.118-.2.107-.121-.064.16.443.241.407.317.093.031.236.137.269.078l-.05.09c.073-.126.4,0,.662.07-.123.163.283.087.334.3.093-.107.466.123.547.031.2.065.137.177.171.236l.107-.017a3.192,3.192,0,0,0,.668.3l.244-.053.062.067c.042-.02.222.011.126-.056l.112.036c.045-.109.168.011.407.025.048.031.025.053-.028.056.112.031.048.073.1.126-.07-.05.463-.081.174-.213-.008-.051.177-.031.281.02l.039.112.16-.059c.177.034.23.121.37.16-.146-.031-.37.1.006.177a2.574,2.574,0,0,0-.418-.014c.076.022.112.042-.02.051.3.042.112-.025.407.025-.039.076.036.115.286.191l-.177-.093.042-.014c-.07-.022-.087-.039-.093-.073.059.011.365-.025.4.031-.258-.18.533.022.365-.084l.253.07c-.255,0,.16.121.109.157.1,0-.177-.093-.048-.09a1.069,1.069,0,0,1,.314.129H311.1l.216.076c.045-.022-.2-.1.008-.073l.247.076c-.109.022-.05.093-.23.07.146.025.612.109.44.017l.174.036c-.1-.045-.4-.157-.048-.09l-.006.011.252.008.1.048c0-.014.042-.02.132,0l.093.062c.261.042.247.011.283,0,.146.022.2.042.123.059.2.039.55.093.682.137.272.025-.053-.02.109-.02a6.328,6.328,0,0,0,1.318.23c-.112-.056.121.008.208-.017-.1,0,.412.081.025.045l.236.025c.157.036-.393-.028-.154.025.266.022.443.011.752.056-.107.006.241.022.16.031-.065,0-.151-.011-.238-.02l.053.008a2.593,2.593,0,0,0,.474.022c.351.042.275.039.294.045.067.006.222.022.325.031-.216-.017-.4-.045-.3-.039.154.025.522.059.617.073-.5-.067-.348-.039-.816-.115a1.973,1.973,0,0,1-.337-.034c.18.017-.011-.008-.059-.02a2.347,2.347,0,0,1-.283-.031c-.076-.02.174,0-.112-.048l-.059.02c-.112-.02.051-.014-.188-.042.132,0-.034-.034.286.014a4.895,4.895,0,0,0-.889-.109h.065c-.065,0-.182-.017-.269-.028-.193-.048.16.006.109-.017-.107-.014-.21-.039-.317-.059l-.008-.006a.7.7,0,0,1-.191-.039c.1,0,.137-.006.2-.006l-.337-.036c.039-.008-.266-.09-.028-.051l-.488-.1-.034-.051c-.118-.02-.123-.011.014.025-.163-.051-.757-.084-.648-.157-.39-.051-.527-.087-1-.174.365.042-.387-.18-.008-.1-.21-.087-.272-.036-.446-.073-.154-.07-.067-.115.112-.087l-.21-.031.006-.011-.185-.014c-.18-.09-.022-.079-.213-.143l-.059.048-.121-.073c.042.042-.076.022-.219-.014l.006-.014-.174-.036c.18.008-.151-.059-.062-.084-.146-.045-.149-.045-.415-.112l.034.059c-.356-.059.006-.073-.272-.16l0,.059c-.37-.224-.687-.171-.962-.331.171.042.151-.042.143-.025a5.213,5.213,0,0,0-.948-.233c-.065-.129-.076-.165-.328-.3-.194-.062-.227-.062-.309-.025-.171-.109-.541-.177-.527-.253-.065.042-.163-.07-.283-.059l-.011-.036-.008.076c-.278-.269-.592-.115-.875-.37l.065,0-.151-.025.073-.073-.645-.25.109.1a.917.917,0,0,1-.393-.123c.294.008-.21-.093-.222-.188l.146.031c-.188-.073-.188-.073-.2,0-.252-.079-.115-.2-.367-.222l.157.07c.031.059-.107.065-.213.02-.022-.022-.084-.084,0-.056-.2-.056-.474-.21-.569-.219-.1-.065-.039-.1.022-.093-.435-.115-.18-.09-.614-.2l.022-.034-.16-.014-.16-.174.048.081a1.691,1.691,0,0,1-.37-.166l.087-.025c-.384-.149-.384-.3-.771-.39l.076-.008c-.367-.07-.2-.216-.578-.269l.025-.059-.165-.036.048-.067-.177.05-.053-.121-.076.008c-.087-.216-.356-.236-.513-.454l-.011.112c-.634-.107-1.17-.763-1.851-1.046l.053-.065-.309-.076c-.107-.14.121-.008.1-.073-.3-.132-.177.034-.511-.143-.135-.149.09-.017.182.006a4.9,4.9,0,0,1-.979-.555l-.022.022a4.192,4.192,0,0,1-.682-.432c.025-.028.081,0,.14.034-.076-.056-.165-.151-.252-.163l.121,0c-.157-.123-.508-.289-.5-.381,0,.039-.042.084-.182-.014-.006-.157-.418-.222-.606-.435l.168.07a.722.722,0,0,0-.353-.165l.059-.02c-.191-.1-.381-.2-.564-.32,0-.16-.494-.353-.4-.4-.18-.143.121.163-.121,0-.031-.09-.224-.14-.166-.2l.031.011-.165-.118.151.014c-.149-.093-.3-.107-.345-.062-.1-.137-.314-.25-.328-.353l.062.022c-.4-.252-.466-.648-.83-.78l.045,0-.216-.188.092,0-.424-.233.031-.028c-.227-.216-.617-.513-.934-.766l.059.025c-.367-.25-.286-.317-.553-.5l.036.011-.213-.2.073.014c-.216-.081-.37-.5-.325-.356-.115-.053-.3-.163-.362-.149-.236-.213-.02-.093-.14-.25-.163-.16-.247-.132-.44-.376l.034-.025c-.107-.1-.191-.143-.337-.283l.056.028c-.292-.174-.2-.379-.51-.438-.073-.123-.275-.292-.208-.339-.323-.258-.57-.463-.872-.741.056-.14-.065-.059-.174-.3l-.042.062c-.393-.426-.7-1.038-1.145-1.492l.042-.062-.146-.042c-.415-.547-.945-1.254-1.293-1.675a2.183,2.183,0,0,1-.539-.511l.025.017a9.545,9.545,0,0,1-.948-1.229c.045.008.031-.048.081-.011-.14-.056-.191-.25-.258-.345l.036.14a.545.545,0,0,1-.227-.39l-.208-.149v-.053l-.056-.014.008-.163c-.048-.039-.244-.292-.376-.323.014-.036-.09-.238.02-.1l-.463-.752.048.132c-.051.053-.236-.143-.283-.275.149.118.1-.042.1-.137-.1-.079,0,.121-.065.09a1.381,1.381,0,0,1-.339-.438l.076.059c-.137-.154-.079-.306-.185-.474-.14-.126-.163-.269-.25-.171-.154-.213.022-.132-.011-.21a.779.779,0,0,1-.236-.482c-.23-.031-.3-.64-.46-.612l-.034-.227c-.039.014-.143.022-.244-.121-.039-.165.045-.168.059-.23l-.185-.025c-.28-.923-.985-1.966-1.259-2.979a11.5,11.5,0,0,1-.713-1.417l.039.048-.154-.516.076.39a1.889,1.889,0,0,1-.157-.283,11.629,11.629,0,0,0-.682-1.989c-.311-.39.05-.348-.208-.732l.081.065a11.911,11.911,0,0,0-.564-1.117c.185,0-.1-.3,0-.283l-.078-.02c.014-.115-.036-.368.022-.345l-.14-.182.065-.036c-.067-.275-.283-.85-.18-1.029a12.253,12.253,0,0,1-.642-2.614,1.623,1.623,0,0,1-.185-.558l.05-.227c-.059-.2-.2-.393-.177-.592l.025.02a1.958,1.958,0,0,0-.146-.586c-.031-.227-.023-.452.067-.4-.146,0-.056-.48-.056-.48s-.067-.729-.171-1.868c-.065-.567-.093-1.243-.129-1.978a15.318,15.318,0,0,0-.2-2.354,75.469,75.469,0,0,1-.738-8.488,2.513,2.513,0,0,0-.008-.267c.006-.188.006-.216.008-.348-.008.286,0-.09-.011.191l.011-.18c-.005.073-.005.07-.011.2v.05c-.008.121-.014.191-.02.275-.006.138.008.225-.014.55l0-.09c-.011.264-.02.16-.025.216l0-.059-.022.222c.017-.168.02-.449.011-.3-.028.314.008-.081,0,.154-.008.146-.017.1-.022.1l-.02.264c-.011-.011.014-.174-.006-.067l-.014.331c-.039.059-.008.362-.059.511.011-.238-.017.02-.025-.02-.02.194-.034.39-.042.583-.011.056-.006-.154-.008-.067a1.167,1.167,0,0,0,0,.241l-.065.418c-.056.4.042.171-.006.539-.031.048.011-.295-.028-.132l-.017.384a.37.37,0,0,1-.025-.222,23.467,23.467,0,0,0-.37,2.547c-.062.135-.028-.1-.056-.194a10.579,10.579,0,0,1-.241,1.565l.05.011a17.187,17.187,0,0,0-.233,2.763l.036-.115a2.951,2.951,0,0,1,.138.482c-.028.025-.146-.1-.093.166.017-.056.028-.174.065-.14a15.2,15.2,0,0,0,0,1.722c.048.69.132,1.442.165,2.107.115.889.283,1.809.4,2.735.143.92.339,1.832.536,2.693-.062-.261.112-.185.118.022-.112.6.289.917.264,1.512a15.274,15.274,0,0,0,.9,2.766l-.065.042c.014.146.073.168.126.309l-.02,0c.076.351.317.721.351.926l.081-.017c.081.194-.02.123.1.309l-.042.008.163.208c-.143.028.2.558.2.741.115.25.376.7.522,1.086a4.036,4.036,0,0,0,.269.875c.14.283.294.634.482.99s.384.735.555,1.1l.076-.056.1.182-.039.014c-.02.194.25.415.269.595.025-.135-.056-.138-.109-.244-.039-.174.115-.07.18.157l-.02.006.115.118c-.056.051-.02.194-.076.247.362.589.71.931,1.038,1.56-.107-.02.275.429.084.382.261.339.062-.121.247-.006.059.1.154.191.121.238-.059-.031-.022.129-.084.053l.166.233-.07-.034c.39.441.491.909.847,1.3.064,0-.1-.18-.039-.177.376.379.18.438.51.805l-.115-.045a.79.79,0,0,1,.323.368c-.039.084-.191-.135-.289-.219.1.151.387.5.365.345a.859.859,0,0,1,.185.367c.02-.009-.073-.194.031-.115a9.716,9.716,0,0,0,.609.912l-.056.031c.28.166.115.252.367.555" transform="translate(-263.005 -219.521)" fill="#fff"></path><path id="Path_93669" data-name="Path 93669" d="M471.977,168.014c-.247-.118-.533-.258-.819-.4-.292-.121-.586-.236-.83-.362a1.1,1.1,0,0,1-.463-.107l.025-.1-.146-.031c-.042-.053.109.028.031-.05L469.7,167c.006-.039-.328-.177-.078-.143l-.513-.236c-.112-.053-.1.048-.216-.031l.056-.036c-.351-.238-.522.011-.861-.168h.036c-.07,0-.188-.042-.194-.031.011.112.084-.028.174.067-.039.076-.154-.006-.171.056-.073-.059-.14-.031-.216-.053-.107-.1-.3-.126-.37-.224a.592.592,0,0,1-.3.014c-.073-.1.042-.053-.076-.123l-.036.039c-.1-.045-.081-.053-.07-.073-.112-.042-.115.031-.247-.05l.1-.017a1.224,1.224,0,0,1-.295-.1l.109.02c-.056-.1-.146-.02-.185-.042.006.025.1.073.039.1-.067-.036-.174.011-.21-.059l.1-.022c-.166-.006-.1.036-.272-.031l.017-.022c-.132.031-.261-.067-.424-.118l.036,0c-.073,0-.121.031-.157.017.087.053.056.062.051.109-.1-.115-.216.039-.407-.065l.118,0c.093-.062.121-.129.258-.132-.081,0-.177-.017-.149-.045l-.045.07-.118-.036c-.034.042.073.1-.045.107s-.042-.1-.073-.067c-.177-.017-.093.062-.247-.008l.064.006c-.107-.062-.289-.065-.3-.165l.076-.022-.006.014c.146-.031-.112-.011-.051-.084-.006.05-.165-.006-.236-.034l.008.062c-.286.1.042-.109-.2-.154-.163-.006.053.031-.05.045-.1-.039-.129-.1-.286-.118-.036-.034-.118-.079-.112-.146-.1.006-.281-.087-.348-.034.149.084.177-.034.345.084l-.067.05a2.691,2.691,0,0,1-.387-.07l.006.045c-.191-.014-.258.039-.432-.017-.011-.062.093-.031.168-.02-.107-.07-.121-.028-.3-.081,0-.051.121.028.151-.017l-.2-.022,0-.011c-.045.079-.151-.036-.278-.036-.289-.059-.353.045-.525.081l-.025-.073c.065.051.056.02.087,0-.1-.011-.2-.126-.138-.149-.16-.006.048.056-.05.062l-.21-.048c.017.048.09.073-.025.084a1.916,1.916,0,0,1-.258-.048c.02-.017-.028-.073.062-.053a.2.2,0,0,0-.191,0c.126.056-.224.008-.135.09l-.126-.056.081-.008c-.028-.07-.112.006-.16.006l-.174-.067-.16-.05c-.065.006-.011.042-.031.062l-.213-.034.022-.151c-.084.022-.042.1-.165.084.079-.062-.154-.073-.042-.146a.666.666,0,0,0-.379-.079c-.076.048.115.048.1.1-.311-.02-.348.137-.572.081l.056.022a.439.439,0,0,0-.216.048c.045-.065-.14-.216-.376-.222-.022.034.123.079.081.132-.05,0-.1,0-.154,0l.028-.025c-.14.017-.25-.107-.3-.025l-.132-.112.053.048-.213.048a.34.34,0,0,1-.3-.053c.025.031.09.1-.036.107.008-.115-.258-.059-.253-.118l-.146.006.011-.073c-.017.1-.2.084-.342.1.039-.135-.154,0-.213-.126-.031.093-.252.022-.28.1-.109,0-.1-.087-.121-.118l-.05.031a1.338,1.338,0,0,0-.379-.09l-.115.084-.042-.036c-.02.022-.112.034-.056.065l-.062-.006c-.006.09-.087.025-.208.065l.006-.048c-.062,0-.034-.048-.067-.076.042.022-.222.163-.056.2.011.036-.084.065-.143.048l-.036-.079-.073.084c-.093.011-.135-.039-.208-.048.076-.006.171-.157-.028-.151a.77.77,0,0,0,.213-.073c-.042,0-.062-.011,0-.045-.157.025-.053.05-.208.062.008-.073-.036-.1-.171-.118l.1.053-.02.02.059.048-.2.048c.157.112-.272.09-.171.154l-.138-.011c.129-.056-.1-.081-.078-.132-.048.022.1.053.039.081a.334.334,0,0,1-.18-.062l.031-.014-.121-.031c-.02.036.118.059.008.079l-.137-.025c.051-.051.011-.115.1-.129-.079.006-.325.017-.224.081l-.093,0c.059.031.224.084.039.1v-.014l-.126.056-.059-.036-.065.034-.056-.056c-.14.014-.126.048-.143.07-.076.011-.107,0-.073-.048a1.412,1.412,0,0,1-.367-.014c-.14.042.031.014-.05.067-.129-.118-.474-.017-.7.014.07.107-.062.017-.1.121.048-.036-.227-.07-.025-.115l-.123.02c-.09-.056.2-.059.067-.132-.14.014-.221.14-.387.109.048-.081-.123.034-.09-.053l.123-.034-.031-.014c-.309,0-.081.1-.236.163-.185.022-.152-.051-.166-.087l-.171.028c.109-.056.213.034.165.087-.09-.084-.278.011-.323.051.272.076.185-.008.44.076.031-.031.02-.109.171-.087-.09.045.011.045.036.056l.146-.048c.045.034-.081.112.07.121l.02-.109c.062.011-.02.081.1.048-.065.062.028.087-.143.115.21.079.306-.07.463-.121l-.031.031.14-.042c.107.017-.079.053-.05.081l.168-.014.006.008.1-.006-.1.107.171-.087c-.017.036.149.05.025.087l.261-.034.025.07c.062-.017.062-.031-.011-.036.09.011.39-.154.348-.008a2.294,2.294,0,0,1,.524-.1c-.188.067.222.084.02.115.121.031.143-.048.236-.059.09.031.05.1-.042.129l.109-.034,0,.014.1-.042c.1.039.022.073.129.081l.023-.065.073.036c-.028-.028.034-.042.112-.048l0,.014.092-.014c-.092.039.084.014.042.059a1.182,1.182,0,0,0,.224-.011l-.025-.045c.188-.039.008.065.16.067l-.008-.05c.219.084.37-.051.533,0-.093.011-.07.07-.067.056a2.171,2.171,0,0,0,.51-.07c.05.073.065.1.21.126.107,0,.123-.006.16-.048.1.034.3,0,.3.056.025-.042.093.014.152-.02l.011.022-.005-.051c.18.123.314-.045.494.065l-.034.011.078-.014-.025.065.362.031-.07-.042c.076,0,.132-.048.216-.011-.151.067.121.011.14.07l-.079.014c.107,0,.107,0,.1-.05.14-.011.087.1.219.056l-.09-.008c-.025-.031.045-.067.1-.065l.008.036c.109-.014.272.022.32.006.056.02.034.053,0,.065.236-.028.1.008.339-.008l-.005.028.081-.025.107.076-.036-.042a.82.82,0,0,1,.213.017l-.039.039c.216,0,.238.1.449.067l-.036.022c.2-.042.132.093.331.036l0,.045.09-.017-.014.056.081-.076.045.064.036-.022c.079.121.219.056.331.151l-.011-.076c.337-.1.715.157,1.1.177l-.017.056.168-.036c.076.062-.059.039-.036.073.171,0,.084-.07.28-.048.093.059-.042.034-.092.045a2.064,2.064,0,0,1,.583.087l.008-.02a2.912,2.912,0,0,1,.415.079l-.076.022.154.025-.062.039c.1.031.306.025.317.087-.009-.025.005-.065.1-.045.028.1.25.011.381.087l-.1.008a.349.349,0,0,0,.208,0l-.028.028.337.042c.025.1.309.073.272.129.115.034-.087-.065.062-.034.031.045.138.02.118.073l-.017,0,.1.025-.079.036c.09.014.171-.022.185-.064.076.053.2.062.224.121l-.034.006c.241.042.345.255.555.216l-.022.017.143.042-.048.031.258,0-.011.028c.157.048.4.118.6.185l-.034,0c.23.036.2.1.367.129l-.02.006.143.051-.039.014c.126-.02.272.185.227.112.067,0,.182,0,.213-.025.157.053.025.048.112.107.112.042.149,0,.292.084l-.014.025c.073.02.123.017.225.05l-.034,0c.182,0,.168.151.342.081.059.048.194.076.166.129.208.053.367.107.569.174-.006.1.045.014.14.118l.011-.051c.278.121.539.376.847.494l-.014.051.084-.022c.317.163.721.379.962.53a.914.914,0,0,1,.365.126l-.017,0a3.592,3.592,0,0,1,.715.379l-.042.034c.087-.017.146.079.2.109l-.042-.067a.216.216,0,0,1,.185.146l.138.014.008.028.034-.011.025.09c.034,0,.188.07.266.042,0,.025.087.107.006.067l.37.275-.048-.059c.02-.048.151,0,.2.062-.1-.017-.045.056-.034.109.067.011-.02-.067.023-.073a.523.523,0,0,1,.252.137l-.05-.008c.1.045.09.146.18.2.1.02.137.09.171.006.123.062.011.079.042.109.076,0,.219.132.216.182.135-.065.278.244.365.171l.059.112a.127.127,0,0,1,.16-.02c.053.073.006.1.011.14l.112-.053c.323.4.872.749,1.237,1.161a5.921,5.921,0,0,1,.682.474l-.034-.008a2.229,2.229,0,0,1,.191.208,1.917,1.917,0,0,0-.118-.174.478.478,0,0,1,.146.09,3.967,3.967,0,0,0,.766.791c.264.081.042.191.275.289l-.062,0a4.72,4.72,0,0,0,.561.348c-.107.065.123.112.059.14l.051-.02c.02.062.109.16.067.171l.123.036-.031.042c.1.112.339.323.317.452a6.624,6.624,0,0,1,.965,1.03.75.75,0,0,1,.241.2l.028.123c.084.067.224.1.255.2h-.02c.076.078.112.182.219.227.07.1.115.21.048.216.087-.053.143.21.143.21s.222.311.569.8l.612.836c.208.325.435.676.668,1.038a30.752,30.752,0,0,0,2.533,3.61c.067.022.165.129.191.056.07.087.014.171.07.165-.042-.146.138-.017.121-.174l.056.076c.042,0-.1-.093-.028-.1l-.1.02a.2.2,0,0,1-.011-.154c-.067-.045-.2-.028-.233-.2l.028.039c-.07-.118.011-.1.011-.135l.014.028-.014-.123c.014.093.151.185.109.121-.056-.157,0,.048-.07-.056-.042-.065.014-.07.039-.079l-.07-.121c.039-.017.042.081.053.011l-.123-.132c.081-.081-.137-.14-.084-.258.084.1.028-.028.067-.028l-.154-.267.042.017c0-.064-.07-.07-.084-.1.014-.039-.112-.2-.045-.227-.059-.208-.123-.031-.18-.222.025-.045.084.129.081.031l-.112-.168a.11.11,0,0,1,.109.07c-.219-.5-.138-.895-.474-1.279.005-.087.056.025.115.048-.258-.269-.18-.491-.356-.749l-.039.02a8.546,8.546,0,0,0-.7-1.274l.006.067a.951.951,0,0,1-.194-.177c.011-.022.107,0,.014-.112l-.006.09a12.208,12.208,0,0,0-1.088-1.689c-.306-.356-.567-.774-.889-1.142s-.628-.746-.945-1.08c.1.1-.022.129-.076.034-.062-.339-.356-.353-.466-.659a6.9,6.9,0,0,0-1.116-1.035l.028-.042c-.039-.067-.079-.056-.138-.107l.011-.008c-.121-.143-.32-.258-.381-.351l-.045.036c-.084-.073-.011-.073-.115-.126l.022-.02-.132-.05c.076-.067-.219-.222-.253-.314a3.954,3.954,0,0,1-.516-.367c0-.065-.2-.23-.323-.359-.267-.2-.642-.48-.959-.757l-.034.056-.087-.065.02-.022c-.023-.112-.208-.143-.252-.23.011.079.056.053.1.093.051.081-.053.079-.129-.022l.011-.011-.09-.02,0-.154a8.671,8.671,0,0,1-.856-.488c.065-.025-.23-.137-.112-.177-.208-.1-.014.087-.137.087l-.109-.087.039-.059-.129-.079.045,0c-.283-.123-.412-.356-.671-.46l.048.09c-.264-.093-.168-.188-.418-.272l.073-.017a.3.3,0,0,1-.241-.093c.008-.062.126.017.2.025-.081-.048-.295-.151-.258-.07-.107-.039-.118-.1-.163-.146-.008.011.073.084,0,.076a3.5,3.5,0,0,0-.483-.311l.025-.036c-.168,0-.093-.109-.281-.2" transform="translate(-391.656 -140.479)" fill="#fff"></path><path id="Path_93670" data-name="Path 93670" d="M490.66,166.786l.059-.006Z" transform="translate(-420.406 -142.314)" fill="#fff"></path></g></g></g></svg> 