<?xml version="1.0" encoding="UTF-8"?> <svg xmlns="http://www.w3.org/2000/svg" width="68.833" height="78.926" viewBox="0 0 68.833 78.926"><g id="Group_11788" data-name="Group 11788" transform="translate(-375.667 -2169.963)"><g id="BK_New_Logo-01" data-name="BK New Logo-01" transform="translate(375.667 2169.963)"><path id="Path_93660" data-name="Path 93660" d="M422.936,512.315l-.016-.015Z" transform="translate(-389.603 -433.389)" fill="#fff"></path><path id="Path_93661" data-name="Path 93661" d="M295.25,155.018l.093-.108c-.046.049-.073.082-.093.108" transform="translate(-285.215 -141.17)" fill="#fff"></path><path id="Path_93662" data-name="Path 93662" d="M550.08,436.9l-.02,0Z" transform="translate(-493.559 -371.738)" fill="#fff"></path><path id="Path_93663" data-name="Path 93663" d="M390.835,451.219c-.042-.013-.067-.016-.066,0,.057.013.071.011.066,0" transform="translate(-363.316 -383.437)" fill="#fff"></path><path id="Path_93664" data-name="Path 93664" d="M395.2,476.42l.016-.02Z" transform="translate(-366.938 -404.035)" fill="#fff"></path><path id="Path_93665" data-name="Path 93665" d="M374.67,466.97l.047.011Z" transform="translate(-350.152 -396.325)" fill="#fff"></path><g id="Group_11729" data-name="Group 11729" transform="translate(0 0)"><path id="Path_93666" data-name="Path 93666" d="M244.8,100.131a32.28,32.28,0,0,0-1.377,2.921c-.109.259-.237.509-.332.771s-.191.52-.284.773c-.19.507-.376,1-.558,1.446-.069.423-.213,1.021-.379,1.617l-.155.02-.106.507c-.1.19.089-.387-.069-.047l.027.212c-.06.024-.416,1.26-.264.4a9.3,9.3,0,0,0-.25.974l-.221.981c-.1.432.058.279-.082.749-.062.089.011-.177-.047-.15a4.1,4.1,0,0,0-.193,1.566,5.836,5.836,0,0,1-.1,1.5l0-.117c0,.235-.066.673-.044.68.164-.159-.042-.252.1-.655.115.051-.011.522.084.505a2.962,2.962,0,0,0-.035.784c-.109.465-.1,1.149-.224,1.5a5.988,5.988,0,0,1,.108.994c-.093.354-.089-.088-.124.4l.071.08c-.009.4-.029.336-.062.321a5.643,5.643,0,0,1,.055.89l-.069-.3c.027.4.016.558.013,1.109-.04-.011-.038-.232-.027-.4a1.365,1.365,0,0,0,.044.675c.018-.047.038-.43.106-.246-.013.274.135.574.062.773l-.091-.294a3.645,3.645,0,0,1,.137.952c-.007-.035-.024-.016-.04-.029a8.41,8.41,0,0,1,.126,1.561l-.027-.113c.038.244.128.37.142.5-.015-.348.02-.257.084-.3-.044.469.241.675.288,1.422-.042-.005-.117-.177-.108-.387a1.632,1.632,0,0,1-.387-.7c.071.279.14.609.078.545l.122.073c.026.171.046.306.064.434.08.062.058-.361.166.026.1.438-.075.253-.015.315.139.6.157.233.213.828a.922.922,0,0,1-.053-.221c.011.432.2,1.027.1,1.176a.316.316,0,0,1-.108-.221l.022,0c-.193-.441.109.379-.038.259.062-.047.175.545.221.813l.06-.1c.447.821-.173-.009.078.85.2.536-.033-.213.111.109a5.076,5.076,0,0,0,.237,1.063c.015.159.066.476-.015.529a6.411,6.411,0,0,1,.2.642,1.717,1.717,0,0,0,.224.518c-.12-.574-.279-.523-.365-1.213l.14.157c.124.456.37,1.01.445,1.329-.005-.067.007-.1.038-.069.246.625.4.775.615,1.39-.044.109-.17-.252-.279-.509a8.606,8.606,0,0,0,.368,1.03c-.053.058-.157-.412-.248-.456l.284.667-.013.005c.15.051.21.511.419.9a5.5,5.5,0,0,0,.987,1.508c.038.155.031.21-.024.164-.064-.253-.082-.2-.15-.263.16.314.239.744.108.591.3.481-.04-.208.155.078l.354.682c.011-.109-.1-.354.124-.026.171.288.233.438.454.815-.058-.04-.011.166-.173-.12a1.773,1.773,0,0,0,.367.562c-.193-.441.441.653.341.3.062.148.131.292.2.436-.057-.093-.1-.082-.173-.224-.007.164.232.317.328.452a4.813,4.813,0,0,1,.294.574,1.732,1.732,0,0,1,.29.516c.144.175.06-.018.122.018l.428.633c-.018.064-.1.2-.179.113.206.212.181,0,.43.359-.232-.144.286.509-.027.286a5.767,5.767,0,0,0,.79,1.118c.212.146-.23-.363-.146-.4.708.857.928.764,1.415,1.413-.04-.058-.082-.113-.12-.173a3.3,3.3,0,0,0,.567.492c-.16-.047.162.624.762,1.207.084.016-.252-.4-.1-.357l.39.39c.022.035-.033,0-.091-.04.367.332.54.76.729.773l.257.454-.1-.184a5.249,5.249,0,0,1,.587.456,3.368,3.368,0,0,1,.762.77c-.046-.1-.164-.33.175-.044-.113.118.655.669.6.715.14.113.354.356.412.319l-.088.058c.126-.086.613.356,1.034.631-.208.082.447.323.52.6.148-.038.749.491.888.449.319.217.219.294.275.385l.175.064a10.584,10.584,0,0,0,1.07.841l.4.122.1.124c.071.009.368.164.212.022l.184.117c.08-.1.281.126.682.3.077.067.038.08-.051.047.186.111.075.119.155.215-.12-.1.79.186.306-.144-.011-.062.306.066.481.184l.06.16.281.016a5.7,5.7,0,0,1,.624.41c-.244-.122-.644-.093-.007.233a7.267,7.267,0,0,0-.715-.263c.13.075.19.118-.036.051.512.232.2.033.695.272-.073.077.053.173.474.416l-.294-.224.075.005c-.118-.069-.146-.1-.155-.148.1.049.633.168.689.263-.432-.383.924.314.644.073a1.022,1.022,0,0,1,.441.208c-.454-.115.272.243.175.277.17.042-.3-.213-.075-.155a2.467,2.467,0,0,1,.543.33l-.113-.027.374.212c.084-.018-.345-.243.024-.111.086.06.463.175.436.208-.2,0-.108.131-.427.026.263.093,1.092.4.793.184l.308.122c-.181-.115-.693-.394-.069-.17l-.013.016.456.095c.057.04.113.08.171.117,0-.026.08-.026.241.031.033.042.181.106.155.139.47.155.449.093.52.086.264.082.356.135.215.15.352.144,1,.3,1.229.429.5.1-.095-.049.21-.031a1.648,1.648,0,0,0,.419.21c.182.06.4.115.625.168.458.1.965.208,1.375.27-.188-.2.226.027.4-.078-.184.013.746.272.027.17l.436.073c.281.142-.729-.084-.3.12a3.818,3.818,0,0,0,.675.053,2.689,2.689,0,0,1,.733.08c-.211.077.45.035.288.129a2.04,2.04,0,0,1-.45-.035l.1.036c1.074.2.332-.077.9-.062.658.069.507.146.54.2a2.618,2.618,0,0,0,.611.046c-.41.02-.737-.153-.542-.2a2.578,2.578,0,0,0,1.158.095c-.923-.237-.651-.082-1.512-.323-.126.026-.12.14-.64.011.337,0-.013-.066-.1-.1.091.08-.368-.031-.532-.031-.137-.075.337-.095-.188-.206l-.126.131c-.2-.058.106-.089-.339-.135.252-.031-.051-.126.551-.055a5.47,5.47,0,0,0-1.659-.193c.058,0,.069-.016.126-.015a2.4,2.4,0,0,1-.5-.057c-.352-.117.3,0,.217-.067-.2-.035-.388-.088-.584-.131l-.013-.015a.729.729,0,0,1-.35-.089c.184,0,.264-.036.388-.046l-.633-.049c.078-.031-.48-.206-.038-.135-.3-.064-.6-.135-.9-.219l-.047-.119c-.217-.046-.23-.027.022.058-.3-.111-1.4-.222-1.178-.372a18.676,18.676,0,0,1-1.8-.518c.664.155-.68-.39,0-.173a3.44,3.44,0,0,0-.81-.224c-.273-.151-.106-.193.219-.108l-.383-.1.015-.016c-.113-.022-.224-.053-.336-.078-.31-.193-.031-.124-.366-.284l-.109.049-.21-.148c.071.075-.139,0-.39-.1l.015-.016c-.1-.036-.206-.078-.306-.122.315.093-.263-.15-.1-.14-.252-.126-.257-.128-.72-.336l.053.095c-.62-.243.015-.093-.463-.334l0,.078c-.622-.474-1.194-.549-1.647-.908.29.151.259.038.244.053-.432-.233-1.121-.638-1.59-.848-.1-.188-.122-.237-.534-.558a1.222,1.222,0,0,0-.509-.244c-.277-.244-.875-.593-.846-.664-.1,0-.264-.2-.452-.283l-.016-.051-.016.077c-.416-.527-.941-.585-1.355-1.121l.1.058-.23-.155c-.015-.051.084.005.12-.018-.323-.281-.66-.543-.97-.837l.153.208a3.759,3.759,0,0,1-.587-.485c.452.264-.314-.288-.321-.4l.222.164c-.283-.246-.283-.246-.308-.173-.374-.315-.15-.328-.525-.585l.226.226c.04.095-.166-.024-.317-.173-.029-.044-.115-.171.007-.064-.3-.248-.682-.677-.813-.784-.128-.166-.044-.151.047-.082-.609-.553-.246-.277-.855-.833l.038-.016-.222-.181-.2-.359.057.142a6.028,6.028,0,0,1-.507-.558l.128.057c-.522-.554-.481-.74-1-1.245-.022-.046.062.031.106.069-.494-.463-.224-.463-.722-.93.04.02.016-.053.046-.042l-.215-.222.078-.029-.246-.129c-.016-.066-.031-.133-.044-.2l-.1-.075c-.06-.357-.418-.669-.574-1.1l-.042.119a21.185,21.185,0,0,1-1.993-3.388l.082-.016-.346-.45c-.086-.294.146.128.139.027-.315-.512-.219-.17-.545-.786-.108-.345.108.086.206.224-.159-.286-.357-.64-.527-.981a9.092,9.092,0,0,1-.377-.894l-.033,0a13.391,13.391,0,0,1-.563-1.382c.038,0,.088.106.139.215a2.442,2.442,0,0,0-.21-.516l.131.144a4.754,4.754,0,0,1-.359-1.1c-.015.051-.078.055-.179-.248.051-.2-.312-.81-.4-1.318.046.049.16.407.131.3a2.352,2.352,0,0,0-.266-.662l.067.053c-.131-.374-.246-.755-.37-1.132.064-.2-.274-1.089-.168-1.03-.086-.416.022.359-.106-.162.02-.15-.128-.47-.044-.463l.022.055c-.025-.122-.062-.243-.08-.367.036.073.08.146.122.217-.084-.312-.184-.534-.25-.538a6.1,6.1,0,0,1-.058-.884l.036.109a6.593,6.593,0,0,1-.095-1.116,4.74,4.74,0,0,0-.035-.487,2.545,2.545,0,0,0-.082-.485c.007-.051.027-.047.035.058l-.036-.529.069.12-.16-.864.04.009c-.015-.288-.046-.658-.082-1.047s-.02-.8-.033-1.174l.02.111c-.066-.811.036-.784-.011-1.377l.018.064,0-.534.04.119a3.619,3.619,0,0,1,.095-.883,3.586,3.586,0,0,0-.086-.682c.038-.582.062-.139.122-.5a6.211,6.211,0,0,1,.064-1.065l.038.016c.033-.264.027-.432.077-.8l0,.111c.005-.613.226-.729.122-1.229.069-.246.111-.729.2-.689.115-.746.219-1.326.352-2.068.155-.086.024-.16.2-.584l-.078.015c.15-.511.356-1.047.562-1.592.1-.274.2-.551.3-.828s.222-.547.315-.824l.078-.005.011-.244c.25-.578.5-1.256.79-1.88l.806-1.661c.053-.157.119-.356.193-.576a4.267,4.267,0,0,1,.343-.664l-.018.053c.206-.4.421-.822.649-1.242.117-.208.235-.419.354-.633.137-.2.279-.4.425-.605-.009.067.064,0,.018.1a2.615,2.615,0,0,1,.439-.662l-.182.179a1.81,1.81,0,0,1,.5-.664l.186-.416.069-.051.013-.088c.069-.047.137-.1.212-.139a4.5,4.5,0,0,0,.438-.777c.051-.015.326-.33.142-.066l1.021-1.269-.181.179c-.077-.022.191-.438.4-.6-.181.284.058.086.193.015.12-.19-.177.1-.128-.009a4.574,4.574,0,0,1,.653-.78l-.091.142c.235-.3.443-.345.688-.625.182-.288.387-.436.253-.469.323-.363.191-.075.31-.177a2.594,2.594,0,0,1,.746-.655c.069-.312.985-.853.956-1.032a3.667,3.667,0,0,1,.352-.2c-.016-.038-.015-.157.224-.374.264-.16.253-.06.35-.088l.062-.244c.365-.248.744-.529,1.134-.832.1-.075.2-.151.294-.23l.314-.213.636-.438c.427-.294.859-.589,1.282-.879s.873-.52,1.295-.749c.361-.23.768-.489,1.189-.759.432-.253.884-.507,1.333-.728l-.089.066.91-.394-.678.25c.188-.109.326-.208.518-.3.5-.219,1.1-.427,1.716-.68.627-.226,1.269-.494,1.893-.739.764-.449.589-.049,1.344-.412-.064.036-.082.067-.137.1.835-.325,1.3-.467,2.143-.788-.06.188.569-.131.511-.026l.058-.084c.2,0,.664-.091.609-.027l.372-.157.047.064c.257-.044.66-.137,1.038-.2a2.608,2.608,0,0,1,.873-.029,23.462,23.462,0,0,1,4.951-.394,5.394,5.394,0,0,1,1.08-.06l.4.1a5.574,5.574,0,0,1,1.138-.029l-.042.02c.387-.007.748.071,1.112.029.421.044.824.126.687.193.027-.067.25-.042.465,0,.108.022.213.046.292.067l.129.042.926.15c.3.049.658.1,1.074.177l1.395.3a38.67,38.67,0,0,1,7.531,2.542,40.484,40.484,0,0,1,7.648,4.637c2.2,1.678,3.95,3.27,4.978,4.136.171.086.543.421.474.226.281.266.308.478.41.485-.321-.416.244,0-.038-.434l.237.232c.082.016-.346-.294-.224-.294l-.16.018a1.555,1.555,0,0,1-.277-.434,1.885,1.885,0,0,1-.793-.642l.119.117c-.334-.356-.142-.277-.2-.365l.075.078-.244-.336c.2.244.618.554.429.361-.376-.449.086.128-.232-.175-.2-.186-.095-.181-.057-.2l-.35-.341c.055-.031.228.23.131.047l-.483-.388c.024-.19-.523-.421-.631-.717.346.279.007-.067.091-.053l-.815-.722c-.062-.084.244.157.117.051-.124-.168-.275-.2-.356-.272-.042-.095-.605-.543-.523-.593-.531-.52-.325-.1-.821-.576-.031-.106.434.334.237.091l-.569-.434a.621.621,0,0,1,.37.19,22.07,22.07,0,0,0-3.7-3.036c-.173-.2.177.057.354.115a11.376,11.376,0,0,1-1.293-.835,7.354,7.354,0,0,0-1.163-.78l-.046.044a13.9,13.9,0,0,0-2.2-1.2l-1.216-.54c-.416-.16-.83-.325-1.233-.5l.181.113a8.214,8.214,0,0,1-.888-.237c-.033-.042.241-.058-.252-.188.093.053.29.139.221.146a21.38,21.38,0,0,0-3.045-1.027c-.312-.084-.631-.175-.954-.253l-.983-.21-.972-.212-.943-.164a43.589,43.589,0,0,0-10.235-.337c.5-.057.3.113-.078.119a17.944,17.944,0,0,0-2.843.255,26.058,26.058,0,0,0-5.246,1.366l-.055-.057a3.294,3.294,0,0,0-.578.226v-.02c-.64.182-1.357.553-1.723.658l.007.084c-.363.15-.213.016-.567.219l-.005-.042-.4.257c-.007-.073-.263.035-.556.17a6.282,6.282,0,0,1-.768.357c-.454.233-1.276.739-1.966,1.083a11.094,11.094,0,0,0-1.512.764l-.81.523c-.288.193-.58.414-.888.631-.609.443-1.269.883-1.869,1.326l.077.055-.3.252c-.007-.02-.055.005-.015-.04-.3.111-.675.594-.957.744.2-.062.219-.164.392-.3.274-.17.093.093-.268.332l-.005-.02-.2.224c-.071-.033-.3.111-.372.078a8.9,8.9,0,0,0-.667.6c-.2.206-.381.4-.569.6-.374.4-.755.791-1.245,1.236.024-.071-.155.086-.3.252s-.3.308-.255.162c-.5.625.168-.02,0,.315-.15.162-.277.361-.343.356.046-.1-.182.077-.071-.066l-.348.4c-.042.031.022-.069.055-.119a14.272,14.272,0,0,1-1,1.105,10.288,10.288,0,0,0-.866,1.105c-.005.088.248-.3.244-.208-.52.832-.6.625-1.1,1.39l.06-.19a3.022,3.022,0,0,1-.472.777c-.115.024.173-.379.274-.6-.188.275-.638.988-.436.817a2.9,2.9,0,0,1-.478.594c.013.016.252-.281.153-.066a12.928,12.928,0,0,0-1.131,1.7c-.015-.015-.064.009-.044-.046-.2.52-.328.379-.669,1.03" transform="translate(-240.217 -79.562)" fill="#fff"></path><path id="Path_93667" data-name="Path 93667" d="M293.874,155.272a34.86,34.86,0,0,0-.2,5.926c.095.385.118.95.2,1.514l-.088.069.078.47c-.007.2-.055-.361-.055-.016l.077.171c-.038.042.157,1.211-.031.432.087.611.179,1.222.308,1.825.078.4.12.219.192.666-.007.095-.055-.155-.078-.111a6.889,6.889,0,0,0,.4,1.4,7.281,7.281,0,0,1,.467,1.3l-.042-.1.144.367a1.557,1.557,0,0,0,.089.219c.04-.184-.128-.2-.19-.58.08.009.193.441.242.4a4.991,4.991,0,0,0,.257.677c.084.434.372,1,.43,1.328.1.191.264.381.461.8.08.326-.087-.046.078.372l.073.046c.146.337.111.292.086.288.168.356.2.264.4.717l-.166-.224c.184.317.242.454.474.906-.031,0-.122-.179-.184-.315a1.523,1.523,0,0,0,.317.536c0-.047-.171-.356-.046-.23a3.745,3.745,0,0,1,.365.616l-.177-.215a4.44,4.44,0,0,1,.478.746l-.036-.013a11.894,11.894,0,0,1,.78,1.216l-.069-.084c.133.184.248.259.314.361-.164-.277-.1-.213-.082-.261.182.388.449.476.813,1.063-.027.007-.151-.109-.239-.281a1.864,1.864,0,0,1-.549-.454c.168.2.357.45.292.416l.108.024.233.332c.077.027-.126-.306.113-.026.27.315.075.221.14.252.377.43.21.137.531.582a1.09,1.09,0,0,1-.139-.157,6.8,6.8,0,0,1,.627.888.359.359,0,0,1-.175-.14l.015,0c-.334-.288.252.263.1.212.016-.053.374.372.532.565l-.013-.095c.673.512-.119.047.461.635.392.35-.128-.153.124.053a8.5,8.5,0,0,0,.675.744c.082.122.283.337.259.4a10.762,10.762,0,0,0,.855.751c-.359-.4-.438-.321-.844-.808l.17.078c.323.292.735.664.959.868-.038-.047-.049-.077-.013-.062.491.381.658.456,1.114.848.027.093-.242-.133-.439-.3a5.663,5.663,0,0,0,.779.644c0,.057-.321-.248-.407-.254l.542.392-.005.007c.128-.009.4.323.748.532a6.309,6.309,0,0,0,1.464.775c.111.093.137.133.075.117-.182-.153-.162-.108-.243-.135.281.164.567.439.4.372.454.252-.137-.133.146.011.2.122.4.255.605.37-.053-.077-.266-.2.069-.053.277.139.4.217.757.414-.06-.011.082.115-.182-.033a2.239,2.239,0,0,0,.553.279c-.378-.233.666.292.4.086l.379.226a2.335,2.335,0,0,1-.242-.1c.086.109.332.142.474.2.133.082.5.257.52.286a1.915,1.915,0,0,1,.49.241c.2.071.031-.031.095-.026.217.093.43.193.649.279.022.046.044.153-.062.128.263.064.126-.06.505.084-.241-.02.483.233.14.19a5.421,5.421,0,0,0,1.182.441c.232.018-.368-.148-.328-.191.985.288,1.08.184,1.8.4l-.184-.064a4.3,4.3,0,0,0,.68.109c-.071.015.046.093.275.19a5.9,5.9,0,0,0,.954.261c.069-.02-.407-.153-.273-.179l.5.1c.035.013-.022.013-.088.007a4.091,4.091,0,0,0,.963.188l.443.171-.175-.071c.068-.024.574.055.682.053a3.728,3.728,0,0,1,.988.15c-.088-.038-.3-.126.1-.089-.016.119.855.115.839.166.166.009.46.064.481.02l-.031.066c.022-.046.184-.057.4-.055l.713-.009c-.108.126.509,0,.715.119.088-.082.824-.057.9-.131a.541.541,0,0,1,.418.091l.164-.036c.182.031.853-.018,1.255-.022.12-.036.243-.066.363-.109l.14.016c.057-.027.361-.077.17-.082l.2-.022c.005-.084.277-.058.671-.146.093,0,.073.024-.013.046.2-.026.12.029.233.04-.142,0,.686-.274.149-.215-.042-.027.263-.106.458-.126l.131.053.217-.118c.3-.066.439-.038.682-.088-.246.06-.525.266.119.119-.336.091-.5.159-.671.2.135-.022.2-.025,0,.042.505-.117.162-.067.66-.19-.013.071.131.06.573-.018l-.337.027.058-.031c-.126.022-.162.02-.2,0a4.036,4.036,0,0,1,.651-.193c-.522.02.85-.288.516-.275a1.286,1.286,0,0,1,.436-.113c-.4.164.328-.015.275.049.148-.062-.336.044-.137-.038a3.278,3.278,0,0,1,.576-.1l-.1.04c.13-.027.259-.049.385-.086.051-.051-.377.066-.04-.064a3.61,3.61,0,0,1,.43-.12c-.149.1-.011.117-.3.226.242-.088,1.014-.356.68-.31l.29-.1c-.191.035-.715.159-.139-.046v.015c.128-.062.259-.12.385-.186l.184-.036c-.011-.015.046-.053.191-.109.046,0,.186-.044.186-.015.425-.171.378-.19.425-.23.235-.1.33-.12.235-.04.328-.122.877-.394,1.111-.458.414-.222-.093.027.137-.128a3.455,3.455,0,0,0,.943-.4c.383-.2.8-.438,1.12-.644-.23.016.175-.115.25-.266-.126.111.667-.3.1.064l.348-.215c.27-.093-.563.377-.159.23.4-.23.593-.489,1.063-.753-.111.16.336-.248.266-.108a2.548,2.548,0,0,1-.336.248l.088-.04c.855-.534.2-.23.609-.56.492-.365.423-.237.472-.23a3.3,3.3,0,0,0,.449-.346c-.277.255-.585.37-.472.232a3.225,3.225,0,0,0,.852-.653c-.757.443-.492.352-1.207.757-.077.088-.015.142-.445.385.237-.2-.04-.022-.12.015.1-.016-.275.2-.39.3-.133.046.191-.243-.232.013l-.026.135c-.171.093.033-.1-.3.137.162-.16-.1-.031.363-.348a8.206,8.206,0,0,0-1.278.864c.044-.033.042-.047.084-.078a3.071,3.071,0,0,1-.387.261c-.308.15.213-.175.122-.155-.157.1-.319.184-.483.268h-.016a.9.9,0,0,1-.3.151c.131-.1.173-.162.259-.237l-.483.328c.04-.058-.45.17-.095-.042-.252.133-.5.277-.76.394l-.095-.031c-.18.095-.18.109.046.016-.272.106-1.134.646-1.047.46-.6.3-.833.377-1.585.691.571-.259-.706.155-.088-.084a4.471,4.471,0,0,0-.715.3c-.281.064-.179-.04.106-.162l-.334.146,0-.015c-.1.044-.191.095-.288.135-.332.057-.088-.046-.423.04l-.055.078-.235.031c.093,0-.1.069-.341.142l0-.015-.29.095c.283-.113-.272.058-.15-.022-.253.057-.259.058-.715.173l.089.022c-.591.173-.038-.053-.523.055l.04.038c-.715.066-1.185.266-1.714.306.3-.057.213-.1.21-.086-.447.088-1.183.164-1.645.275a1.7,1.7,0,0,0-.7-.064,1.375,1.375,0,0,0-.512.091,7.125,7.125,0,0,1-1,0c-.078.042-.3,0-.492.04l-.04-.02.029.046c-.6-.111-1.021.047-1.627-.064l.106-.006-.257,0c-.04-.024.066-.029.078-.055l-1.183-.088.23.051a3.167,3.167,0,0,1-.7-.046c.48-.015-.392-.047-.461-.111l.255.011c-.346-.036-.346-.036-.323.015-.45-.038-.3-.115-.715-.135.1.016.2.036.292.049.084.04-.133.049-.33.013-.046-.015-.181-.058-.031-.04-.354-.04-.877-.151-1.036-.159-.186-.049-.118-.071-.013-.064-.751-.117-.334-.08-1.087-.2l.018-.024-.263-.024c-.119-.042-.232-.1-.348-.146l.12.067c-.242-.06-.4-.082-.677-.171l.124-.007c-.687-.155-.768-.275-1.42-.427-.042-.02.062,0,.115.009-.607-.135-.429-.193-1.036-.341.04,0-.018-.038.009-.04l-.275-.075.038-.042-.244-.007-.144-.113-.113-.015c-.248-.191-.666-.3-1.016-.531l.038.089a19.876,19.876,0,0,1-3.246-1.654l.046-.035-.476-.219c-.215-.182.166.049.106-.02-.489-.266-.239-.055-.8-.381-.253-.217.117.033.263.093-.27-.14-.578-.352-.877-.543a6.654,6.654,0,0,1-.731-.523l-.022.007c-.334-.23-.753-.562-1.1-.842.026-.013.109.058.2.122a3.462,3.462,0,0,0-.4-.326l.157.073a7.088,7.088,0,0,1-.808-.709c.02.04-.027.067-.239-.139-.064-.171-.611-.523-.928-.877.055.026.312.259.241.191a4.8,4.8,0,0,0-.5-.432l.067.022-.8-.76c-.053-.173-.7-.773-.605-.755-.257-.3.191.272-.146-.1-.062-.122-.31-.328-.255-.346l.04.036c-.077-.088-.148-.179-.221-.268l.177.139c-.2-.228-.372-.367-.412-.354a7.737,7.737,0,0,1-.465-.673l.075.075a6.638,6.638,0,0,1-.567-.87,5.442,5.442,0,0,0-.511-.749c-.02-.044-.005-.046.047.036l-.263-.414.1.077c-.161-.217-.332-.43-.487-.653l.027-.005c-.257-.47-.7-1.183-1.01-1.8l.058.086a11.425,11.425,0,0,1-.563-1.147l.035.047-.206-.45.069.089a4.135,4.135,0,0,1-.3-.766,4.8,4.8,0,0,0-.315-.549c-.2-.5-.022-.133-.115-.456-.126-.37-.192-.419-.343-.928l.029,0c-.089-.232-.148-.374-.25-.7l.042.095a8.881,8.881,0,0,0-.352-1.09c-.035-.235-.159-.667-.1-.658-.106-.336-.182-.638-.25-.943s-.146-.605-.212-.948c.071-.124-.027-.148-.04-.573l-.042.038c-.168-.976-.14-2.115-.213-3.195l.046-.033c-.024-.071-.04-.144-.058-.215-.016-1.169.062-2.677.153-3.6a7.5,7.5,0,0,1,.078-1.251v.051a17.467,17.467,0,0,1,.451-2.619c.007.06.04-.026.031.078a2.561,2.561,0,0,1,.168-.717l-.093.215a2.318,2.318,0,0,1,.228-.737l.057-.414.038-.067,0-.077.126-.191a6.1,6.1,0,0,0,.162-.811c.029-.033.168-.394.084-.106.175-.472.35-.946.536-1.413-.038.069-.073.14-.106.212-.06.009.086-.423.2-.633-.084.3.053.049.135-.058.055-.2-.108.15-.089.038a4.768,4.768,0,0,1,.346-.879l-.049.148c.135-.325.277-.438.421-.751.1-.3.228-.489.129-.467.2-.4.129-.128.206-.253a3.342,3.342,0,0,1,.454-.8c.016-.273.649-1.019.609-1.151.077-.1.162-.188.244-.281-.016-.024-.027-.117.129-.374.179-.221.181-.139.25-.193l.022-.213a30.893,30.893,0,0,1,3.629-4.178,20.634,20.634,0,0,1,1.986-1.855l-.071.077c.241-.19.478-.385.733-.556-.19.119-.374.246-.551.381a3.722,3.722,0,0,1,.412-.37c.828-.585,1.946-1.337,2.994-2.008.64-.5.5-.2,1.141-.635-.053.04-.067.066-.115.1.717-.418,1.1-.658,1.836-1.056-.04.144.492-.23.449-.144l.044-.071c.177-.06.591-.2.543-.15l.319-.19.047.033a7.539,7.539,0,0,1,1.7-.551,20.888,20.888,0,0,1,4.473-1.109,5.415,5.415,0,0,1,.985-.181l.372.011a4.663,4.663,0,0,1,1.041-.146l-.036.018c.356-.033.695-.04,1.027-.1.392-.005.771.016.653.071.018-.047.226-.049.427-.038a3.317,3.317,0,0,1,.4.042l.87.033c.279,0,.618.029,1.008.067s.835.06,1.318.135a30.09,30.09,0,0,1,7.165,1.805,28.122,28.122,0,0,1,3.84,1.809,29.114,29.114,0,0,1,3.4,2.225,39.845,39.845,0,0,1,4.429,4c.139.1.449.441.381.27.235.268.272.445.352.47-.277-.4.19.046-.06-.361l.2.232c.066.029-.288-.3-.193-.281l-.122-.015a1.875,1.875,0,0,1-.244-.4,2.864,2.864,0,0,1-.671-.655l.106.111c-.3-.334-.142-.242-.193-.323l.066.075-.221-.314c.17.235.54.545.37.361-.341-.419.077.119-.2-.177-.17-.184-.089-.162-.062-.171l-.3-.336c.04-.016.2.224.106.06-.139-.131-.27-.268-.416-.39,0-.146-.472-.4-.587-.658.306.274,0-.051.067-.027-.233-.241-.48-.469-.733-.689-.06-.075.219.155.1.057a1.692,1.692,0,0,0-.323-.259c-.047-.078-.556-.507-.5-.532-.5-.465-.279-.115-.749-.547-.04-.086.4.312.206.1l-.523-.4a.761.761,0,0,1,.328.191c-.334-.3-.649-.542-.93-.782s-.538-.47-.81-.671-.534-.407-.822-.611a11.084,11.084,0,0,0-.977-.576c-.177-.159.16.055.321.111-.268-.137-.489-.263-.684-.383s-.376-.219-.545-.326a7.9,7.9,0,0,0-1.123-.636l-.035.029a22.683,22.683,0,0,0-4.417-1.751l.177.078c-.224-.022-.571-.115-.83-.17-.035-.029.206-.033-.25-.14.091.036.277.106.215.109a20.8,20.8,0,0,0-2.878-.691c-.585-.106-1.205-.175-1.818-.259-.615-.047-1.222-.126-1.793-.15a30.932,30.932,0,0,0-9.38,1.032c.445-.128.281.02-.06.093a17.94,17.94,0,0,0-2.527.72,24.248,24.248,0,0,0-4.5,2.155l-.051-.026a4.085,4.085,0,0,0-.481.306l0-.015c-.542.284-1.123.744-1.426.921l.011.057a4.112,4.112,0,0,0-.471.3l-.007-.027c-.111.093-.213.2-.319.3-.022-.1-.821.607-1.078.748-.345.319-1.014.9-1.546,1.371a11.153,11.153,0,0,0-1.176,1.027,37.1,37.1,0,0,0-2.62,3.033l.064.016-.208.294c-.007-.013-.042.022-.015-.026a11.108,11.108,0,0,0-.669.9c.144-.122.149-.2.27-.368.2-.221.077.038-.175.346l-.007-.015-.122.244c-.057,0-.21.193-.266.193-.159.25-.306.48-.438.706s-.244.45-.363.671c-.248.438-.467.894-.76,1.428.005-.067-.095.128-.192.308s-.175.352-.164.222c-.283.678.119-.077.035.253a1.8,1.8,0,0,1-.2.408c.02-.1-.122.128-.058-.027l-.2.447c-.026.04.005-.064.024-.115-.173.469-.354.872-.534,1.264a10.993,10.993,0,0,0-.449,1.213c.009.073.129-.33.139-.259-.246.866-.306.737-.522,1.55l.009-.179a4.131,4.131,0,0,1-.2.813c-.069.062.047-.381.093-.591-.095.292-.27,1.05-.164.833a3.681,3.681,0,0,1-.222.666c.011.009.122-.323.091-.109-.14.48-.315,1.233-.421,1.834-.013-.007-.04.031-.036-.024a10.571,10.571,0,0,1-.222,1.1" transform="translate(-283.891 -120.2)" fill="#fff"></path><path id="Path_93668" data-name="Path 93668" d="M278.385,299.366c.439.523,1.045,1.163,1.472,1.685a1.738,1.738,0,0,1,.45.37l-.055.08.142.113c.027.073-.1-.091-.046.029l.089.011c-.016.033.29.359.04.181.155.173.306.348.474.512.106.113.12.009.222.148,0,.044-.057-.031-.071,0,.308.416.545.3.846.664l-.036-.02c.075.04.179.153.191.144.022-.109-.1-.024-.159-.168.066-.047.157.1.193.047.058.1.14.109.213.171.086.149.284.284.332.414a.868.868,0,0,1,.326.157c.049.131-.062.024.047.157l.051-.016c.1.1.073.095.055.108.108.1.133.038.252.184l-.108-.037a3.261,3.261,0,0,1,.3.248c-.02.018-.078-.033-.117-.077.035.119.157.093.2.135,0-.026-.095-.119-.015-.111.067.067.2.082.212.168l-.109-.033c.175.1.119.024.281.184l-.024.011c.149.047.257.21.418.352l-.038-.016c.077.044.139.042.171.073-.077-.1-.042-.088-.022-.129.075.162.241.091.421.283-.02.018-.089.005-.129-.06-.12.007-.172.055-.317-.022.088.051.186.115.146.126l.071-.038c.049.035.084.068.12.095.049-.022-.049-.133.08-.073.14.077.02.109.06.1.19.108.12-.007.27.137l-.071-.038c.1.113.3.212.281.308-.029,0-.049.02-.089-.02l.009-.009c-.17-.049.12.069.031.1.02-.046.18.091.25.155l.009-.062c.346.06-.077.077.184.248.179.091-.051-.058.069-.015a1.124,1.124,0,0,0,.292.244c.033.049.108.135.08.19.113.047.284.228.374.217-.139-.157-.2-.064-.356-.263l.089-.011a4.618,4.618,0,0,1,.407.272l.007-.044a2.457,2.457,0,0,1,.472.246c-.005.062-.109-.022-.193-.071.1.117.122.093.306.23-.016.047-.129-.084-.175-.062.071.046.148.084.221.124l-.005.007c.073-.047.16.106.3.168a1.318,1.318,0,0,0,.62.182c.035.047.038.073.009.077-.058-.077-.058-.046-.1-.044.109.058.19.208.115.2.179.082-.038-.073.077-.031l.226.146c-.007-.051-.082-.109.051-.062a3.01,3.01,0,0,1,.286.157c-.029.007.013.077-.088.02a.335.335,0,0,0,.217.093c-.13-.113.257.1.179-.013l.129.111c-.033-.018-.049,0-.095-.031.013.077.128.051.182.073.046.038.177.117.177.144.055.011.162.084.168.124.075.027.024-.033.053-.038l.232.133c0,.036-.026.131-.068.124.106.018.078-.073.215,0-.109.02.161.133.009.148a1.084,1.084,0,0,0,.418.233c.1-.009-.122-.091-.089-.135.357.151.443.027.688.175l-.06-.046a.7.7,0,0,0,.263.051c-.073.038.106.253.381.348.036-.022-.124-.122-.058-.151l.182.066-.04.011c.168.046.263.2.339.153l.124.159-.047-.066c.035-.02.217.046.259.049a.557.557,0,0,1,.336.179c-.022-.038-.077-.129.069-.078-.042.1.288.157.264.206.06.02.153.089.175.051l-.033.058c.047-.082.261,0,.43.046-.08.106.184.057.217.2.06-.069.3.08.356.02.128.042.089.115.111.153l.069-.011a2.075,2.075,0,0,0,.434.2l.159-.035.04.044c.027-.013.144.007.082-.036l.073.024c.029-.071.109.007.264.016.031.02.016.035-.018.036.073.02.031.047.064.082-.046-.033.3-.053.113-.139-.005-.033.115-.02.182.013l.026.073.1-.038c.115.022.15.078.241.1-.095-.02-.241.062,0,.115a1.675,1.675,0,0,0-.272-.009c.049.015.073.027-.013.033.2.027.073-.016.264.016-.026.049.024.075.186.124l-.115-.06.027-.009c-.046-.015-.057-.026-.06-.047.038.007.237-.016.259.02-.168-.117.346.015.237-.055l.164.046c-.166,0,.1.078.071.1.062,0-.115-.06-.031-.058a.7.7,0,0,1,.2.084h-.042l.14.049c.029-.015-.131-.066.005-.047l.16.049c-.071.015-.033.06-.15.046.095.016.4.071.286.011l.113.024c-.068-.029-.257-.1-.031-.058l0,.007.164.005.064.031c0-.009.027-.013.086,0l.06.04c.17.027.16.007.184,0,.095.015.129.027.08.038.129.026.357.06.443.089.177.016-.035-.013.071-.013a4.113,4.113,0,0,0,.857.15c-.073-.036.078.005.135-.011-.064,0,.268.053.016.029l.153.016c.1.024-.255-.018-.1.016.173.015.288.007.489.036-.069,0,.157.015.1.02s-.1-.007-.155-.013l.035.005a1.686,1.686,0,0,0,.308.015c.228.027.179.026.191.029l.212.02c-.14-.011-.257-.029-.193-.026.1.016.339.038.4.047-.325-.044-.226-.026-.531-.075a1.284,1.284,0,0,1-.219-.022c.117.011-.007-.005-.038-.013a1.53,1.53,0,0,1-.184-.02c-.049-.013.113,0-.073-.031l-.038.013c-.073-.013.033-.009-.122-.027.086,0-.022-.022.186.009a3.184,3.184,0,0,0-.578-.071h.042c-.042,0-.119-.011-.175-.018-.126-.031.1,0,.071-.011-.069-.009-.137-.026-.206-.038l-.005,0a.453.453,0,0,1-.124-.026c.064,0,.089,0,.131,0l-.219-.024c.026-.005-.173-.058-.018-.033l-.317-.066-.022-.033c-.077-.013-.08-.007.009.016-.106-.033-.492-.055-.421-.1-.253-.033-.343-.057-.647-.113.237.027-.252-.117-.005-.066-.137-.057-.177-.024-.29-.047-.1-.046-.044-.075.073-.056l-.137-.02,0-.007-.12-.009c-.117-.058-.015-.051-.139-.093l-.038.031-.078-.047c.027.027-.049.015-.142-.009l0-.009-.113-.024c.117.005-.1-.038-.04-.055-.095-.029-.1-.029-.27-.073l.022.038c-.232-.038,0-.047-.177-.1l0,.038c-.241-.146-.447-.111-.625-.215.111.027.1-.027.093-.016a3.39,3.39,0,0,0-.616-.151c-.042-.084-.049-.108-.213-.2-.126-.04-.148-.04-.2-.016-.111-.071-.352-.115-.343-.164-.042.027-.106-.046-.184-.038l-.007-.024-.005.049c-.181-.175-.385-.075-.569-.241l.042,0-.1-.016.047-.047-.419-.162.071.064a.6.6,0,0,1-.255-.08c.191.005-.137-.06-.144-.122l.095.02c-.122-.047-.122-.047-.131,0-.164-.051-.075-.129-.239-.144l.1.046c.02.038-.069.042-.139.013-.015-.015-.055-.055,0-.036-.131-.037-.308-.137-.37-.142-.062-.042-.026-.064.015-.06-.283-.075-.117-.058-.4-.133l.015-.022-.1-.009-.1-.113.031.053a1.1,1.1,0,0,1-.241-.108l.057-.016c-.25-.1-.25-.2-.5-.254l.049-.005c-.239-.046-.128-.14-.376-.175l.016-.038-.108-.024.031-.044-.115.033-.035-.078-.049.005c-.057-.14-.232-.153-.334-.3l-.007.073c-.412-.069-.76-.5-1.2-.68l.035-.042-.2-.049c-.069-.091.078-.005.064-.047-.2-.086-.115.022-.332-.093-.088-.1.058-.011.119,0a3.188,3.188,0,0,1-.636-.361l-.015.015a2.726,2.726,0,0,1-.443-.281c.016-.018.053,0,.091.022-.049-.036-.108-.1-.164-.106l.078,0c-.1-.08-.33-.188-.325-.248,0,.026-.027.055-.119-.009,0-.1-.272-.144-.394-.283l.109.046a.469.469,0,0,0-.23-.108l.038-.013c-.124-.066-.248-.133-.367-.208,0-.1-.321-.23-.263-.261-.117-.093.078.106-.078,0-.02-.058-.146-.091-.108-.128l.02.007-.108-.077.1.009c-.1-.06-.2-.069-.224-.04-.068-.089-.2-.162-.213-.23l.04.015c-.257-.164-.3-.421-.54-.507l.029,0-.14-.122.06,0-.275-.151.02-.018c-.148-.14-.4-.334-.607-.5l.038.016c-.239-.162-.186-.206-.359-.326l.024.007-.139-.128.047.009c-.14-.053-.241-.326-.212-.232-.075-.035-.2-.106-.235-.1-.153-.139-.013-.06-.091-.162-.106-.1-.16-.086-.286-.244l.022-.016c-.069-.064-.124-.093-.219-.184l.036.018c-.19-.113-.131-.246-.332-.284-.047-.08-.179-.19-.135-.221-.21-.168-.37-.3-.567-.481.036-.091-.042-.038-.113-.193l-.027.04c-.255-.277-.454-.675-.744-.97l.027-.04-.095-.027c-.27-.356-.615-.815-.841-1.089a1.42,1.42,0,0,1-.35-.332l.016.011a6.2,6.2,0,0,1-.616-.8c.029.005.02-.031.053-.007-.091-.036-.124-.162-.168-.224l.024.091a.354.354,0,0,1-.148-.254l-.135-.1v-.035l-.036-.009.005-.106c-.031-.026-.159-.19-.244-.21.009-.024-.058-.155.013-.068l-.3-.489.031.086c-.033.035-.153-.093-.184-.179.1.077.062-.027.064-.089-.064-.051,0,.078-.042.058a.9.9,0,0,1-.221-.284l.049.038c-.089-.1-.051-.2-.12-.308-.091-.082-.106-.175-.162-.111-.1-.139.015-.086-.007-.137a.506.506,0,0,1-.153-.314c-.15-.02-.2-.416-.3-.4l-.022-.148c-.026.009-.093.015-.159-.078-.026-.108.029-.109.038-.149l-.12-.016c-.182-.6-.64-1.278-.819-1.937a7.476,7.476,0,0,1-.463-.921l.026.031-.1-.335.049.253a1.224,1.224,0,0,1-.1-.184,7.56,7.56,0,0,0-.443-1.293c-.2-.254.033-.226-.135-.476l.053.042a7.759,7.759,0,0,0-.367-.726c.12,0-.067-.2,0-.184l-.051-.013c.009-.075-.024-.239.015-.224l-.091-.118.042-.024c-.044-.179-.184-.553-.117-.669a7.964,7.964,0,0,1-.418-1.7,1.057,1.057,0,0,1-.12-.363l.033-.148c-.038-.128-.131-.255-.115-.385l.016.013a1.272,1.272,0,0,0-.095-.381c-.02-.148-.015-.294.044-.257-.095,0-.036-.312-.036-.312s-.044-.474-.111-1.215c-.042-.368-.06-.808-.084-1.286a9.96,9.96,0,0,0-.13-1.53,49.041,49.041,0,0,1-.48-5.518,1.651,1.651,0,0,0-.005-.173c0-.122,0-.14.005-.226-.005.186,0-.058-.007.124l.007-.117c0,.047,0,.046-.007.129v.033c-.006.078-.009.124-.013.179,0,.089.005.146-.009.357l0-.058c-.007.171-.013.1-.016.14l0-.038-.015.144c.011-.109.013-.292.007-.2-.018.2.005-.053,0,.1-.006.095-.011.067-.015.064l-.013.171c-.007-.007.009-.113,0-.044l-.009.215c-.026.038-.005.235-.038.332.007-.155-.011.013-.016-.013-.013.126-.022.253-.027.379-.007.036,0-.1-.005-.044a.756.756,0,0,0,0,.157l-.042.272c-.036.257.027.111,0,.35-.02.031.007-.191-.018-.086l-.011.25a.241.241,0,0,1-.016-.144,15.276,15.276,0,0,0-.241,1.656c-.04.087-.018-.064-.036-.126a6.866,6.866,0,0,1-.157,1.018l.033.007a11.183,11.183,0,0,0-.151,1.8l.024-.075a1.914,1.914,0,0,1,.089.314c-.018.016-.095-.067-.06.108.011-.036.018-.113.042-.091a9.875,9.875,0,0,0,0,1.12c.031.449.086.937.108,1.37.075.578.184,1.176.261,1.778.093.6.221,1.191.348,1.751-.04-.17.073-.12.077.015-.073.388.188.6.171.983a9.934,9.934,0,0,0,.584,1.8l-.042.027c.009.095.047.109.082.2l-.013,0c.049.228.206.469.228.6l.053-.011c.053.126-.013.08.066.2l-.027.005.106.135c-.093.018.131.363.131.481.075.162.244.456.339.706a2.623,2.623,0,0,0,.175.569c.091.184.191.412.314.644s.25.478.361.715l.049-.036.066.119-.026.009c-.013.126.162.27.175.387.016-.088-.036-.089-.071-.159-.026-.113.075-.046.117.1l-.013,0,.075.077c-.036.033-.013.126-.049.16.235.383.461.605.675,1.014-.069-.013.179.279.055.248.17.221.04-.078.161,0,.038.068.1.124.078.155-.038-.02-.015.084-.055.035l.108.151-.046-.022c.253.286.319.591.551.844.042,0-.066-.117-.025-.115.244.246.117.285.332.523l-.075-.029a.514.514,0,0,1,.21.239c-.026.055-.124-.088-.188-.142.062.1.252.323.237.224a.557.557,0,0,1,.12.239c.013-.006-.047-.126.02-.075a6.316,6.316,0,0,0,.4.593l-.036.02c.182.108.075.164.239.361" transform="translate(-266.114 -238.617)" fill="#fff"></path><path id="Path_93669" data-name="Path 93669" d="M464.531,166.69l-.532-.257c-.19-.078-.381-.153-.54-.235a.716.716,0,0,1-.3-.069l.016-.066-.095-.02c-.027-.035.071.018.02-.033l-.049.022c0-.026-.213-.115-.051-.093l-.334-.153c-.073-.035-.064.031-.14-.02l.036-.024c-.228-.155-.339.007-.56-.109h.024c-.046,0-.122-.027-.126-.02.007.073.055-.018.113.044-.025.049-.1,0-.111.036-.047-.038-.091-.02-.14-.035-.069-.062-.2-.082-.241-.146a.385.385,0,0,1-.2.009c-.047-.064.027-.035-.049-.08l-.024.026c-.067-.029-.053-.035-.046-.047-.073-.027-.075.02-.161-.033l.062-.011a.794.794,0,0,1-.192-.066l.071.013c-.036-.066-.095-.013-.12-.027,0,.016.067.047.026.066-.044-.024-.113.007-.137-.038l.062-.015c-.108,0-.066.024-.177-.02l.011-.015c-.086.02-.17-.044-.275-.077l.024,0c-.047,0-.078.02-.1.011.057.035.036.04.033.071-.066-.075-.14.026-.264-.042l.077,0c.06-.04.078-.084.168-.086-.053,0-.115-.011-.1-.029l-.029.046-.077-.024c-.022.027.047.067-.029.069s-.027-.062-.047-.044c-.115-.011-.06.04-.16-.005l.042,0c-.069-.04-.188-.042-.193-.108l.049-.015,0,.009c.095-.02-.073-.007-.033-.055,0,.033-.108,0-.153-.022l.005.04c-.186.066.027-.071-.133-.1-.106,0,.035.02-.033.029-.066-.026-.084-.064-.186-.077-.024-.022-.077-.051-.073-.095-.066,0-.182-.057-.226-.022.1.055.115-.022.224.055l-.044.033a1.755,1.755,0,0,1-.252-.046l0,.029c-.124-.009-.168.026-.281-.011-.007-.04.06-.02.109-.013-.069-.046-.078-.018-.193-.053,0-.033.078.018.1-.011l-.131-.015,0-.007c-.029.051-.1-.024-.18-.024-.188-.038-.23.029-.341.053l-.016-.047c.042.033.036.013.057,0-.064-.007-.129-.082-.089-.1-.1,0,.031.036-.033.04l-.137-.031c.011.031.058.047-.016.055a1.245,1.245,0,0,1-.168-.031c.013-.011-.018-.047.04-.035a.13.13,0,0,0-.124,0c.082.036-.146.005-.088.058l-.082-.036.053-.005c-.018-.046-.073,0-.1,0l-.113-.044-.1-.033c-.042,0-.007.027-.02.04l-.139-.022.015-.1c-.055.015-.027.067-.108.055.051-.04-.1-.047-.027-.095a.433.433,0,0,0-.246-.051c-.049.031.075.031.066.067-.2-.013-.226.089-.372.053l.036.015a.285.285,0,0,0-.14.031c.029-.042-.091-.14-.244-.144-.015.022.08.051.053.086-.033,0-.067,0-.1,0l.018-.016c-.091.011-.162-.069-.193-.016l-.086-.073.035.031-.139.031a.221.221,0,0,1-.2-.035c.016.02.058.066-.024.069.005-.075-.168-.038-.164-.077l-.095,0,.007-.047c-.011.066-.131.055-.222.062.026-.088-.1,0-.139-.082-.02.06-.164.015-.182.066-.071,0-.062-.057-.078-.077l-.033.02a.871.871,0,0,0-.246-.058l-.075.055-.027-.024c-.013.015-.073.022-.036.042l-.04,0c0,.058-.057.016-.135.042l0-.031c-.04,0-.022-.031-.044-.049.027.015-.144.106-.036.131.007.024-.055.042-.093.031l-.024-.051-.047.055c-.06.007-.088-.026-.135-.031.049,0,.111-.1-.018-.1a.5.5,0,0,0,.139-.047c-.027,0-.04-.007,0-.029-.1.016-.035.033-.135.04.005-.047-.024-.062-.111-.077l.066.035-.013.013.038.031-.133.031c.1.073-.177.058-.111.1l-.089-.007c.084-.036-.064-.053-.051-.086-.031.015.068.035.026.053a.217.217,0,0,1-.117-.04l.02-.009-.078-.02c-.013.024.077.038.005.051l-.089-.016c.033-.033.007-.075.068-.084-.051,0-.212.011-.146.053l-.06,0c.038.02.146.055.026.062v-.009l-.082.036-.038-.024-.042.022-.036-.036c-.091.009-.082.031-.093.046-.049.007-.069,0-.047-.031a.917.917,0,0,1-.239-.009c-.091.027.02.009-.033.044-.084-.077-.308-.011-.458.009.046.069-.04.011-.064.078.031-.024-.148-.046-.016-.075l-.08.013c-.058-.036.131-.038.044-.086-.091.009-.144.091-.252.071.031-.053-.08.022-.058-.035l.08-.022-.02-.009c-.2,0-.053.064-.153.106-.12.015-.1-.033-.108-.057l-.111.018c.071-.036.139.022.108.057-.058-.055-.18.007-.21.033.177.049.12-.005.286.049.02-.02.013-.071.111-.057-.058.029.007.029.024.036l.095-.031c.029.022-.053.073.046.078l.013-.071c.04.007-.013.053.068.031-.042.04.018.057-.093.075.137.051.2-.046.3-.078l-.02.02.091-.027c.069.011-.051.035-.033.053l.109-.009,0,.005.066,0-.064.069.111-.057c-.011.024.1.033.016.057l.17-.022.016.046c.04-.011.04-.02-.007-.024.058.007.253-.1.226-.005a1.493,1.493,0,0,1,.341-.064c-.122.044.144.055.013.075.078.02.093-.031.153-.038.058.02.033.066-.027.084l.071-.022,0,.009.062-.027c.067.025.015.047.084.053l.015-.042.047.024c-.018-.018.022-.027.073-.031l0,.009.06-.009c-.06.026.055.009.027.038a.768.768,0,0,0,.146-.007l-.016-.029c.122-.026.005.042.1.044l-.005-.033c.142.055.241-.033.346,0-.06.007-.046.046-.044.036a1.411,1.411,0,0,0,.332-.046c.033.047.042.062.137.082.069,0,.08,0,.1-.031.068.022.2,0,.2.036.016-.027.06.009.1-.013l.007.015,0-.033c.117.08.2-.029.321.042l-.022.007.051-.009-.016.042.235.02-.046-.027c.049,0,.086-.031.14-.007-.1.044.078.007.091.046l-.051.009c.069,0,.069,0,.066-.033.091-.007.057.066.142.036l-.058-.005c-.016-.02.029-.044.068-.042l.005.024c.071-.009.177.015.208,0,.036.013.022.035,0,.042.153-.018.068.005.221-.005l0,.018.053-.016.069.049-.024-.027a.532.532,0,0,1,.139.011l-.026.026c.14,0,.155.066.292.044l-.024.015c.128-.027.086.06.215.024l0,.029.058-.011-.009.036.053-.049.029.042.024-.015c.051.078.142.036.215.1l-.007-.049c.219-.066.465.1.715.115l-.011.036.109-.024c.049.04-.038.026-.024.047.111,0,.055-.046.182-.031.06.038-.027.022-.06.029a1.34,1.34,0,0,1,.379.057l.005-.013a1.894,1.894,0,0,1,.27.051l-.049.015.1.016-.04.026c.066.02.2.016.206.057-.005-.016,0-.042.062-.029.018.062.162.007.248.057l-.064.005a.227.227,0,0,0,.135,0l-.018.018.219.027c.016.064.2.047.177.084.075.022-.056-.042.04-.022.02.029.089.013.077.047l-.011,0,.067.016-.051.024c.058.009.111-.015.12-.042.049.035.131.04.146.078l-.022,0c.157.027.224.166.361.14l-.015.011.093.027-.031.02.168,0-.007.018c.1.031.261.077.392.12l-.022,0c.15.024.129.066.239.084l-.013,0,.093.033-.026.009c.082-.013.177.12.148.073.044,0,.119,0,.139-.016.1.035.016.031.073.069.073.027.1,0,.19.055l-.009.016c.047.013.08.011.146.033l-.022,0c.119,0,.109.1.222.053.038.031.126.049.108.084.135.035.239.069.37.113,0,.066.029.009.091.077l.007-.033c.181.078.35.244.551.321l-.009.033.055-.015c.206.106.469.246.625.345a.594.594,0,0,1,.237.082l-.011,0a2.334,2.334,0,0,1,.465.246l-.027.022c.057-.011.095.051.128.071l-.027-.044a.14.14,0,0,1,.12.095l.089.009.005.018.022-.007.016.058c.022,0,.122.046.173.027,0,.016.057.069,0,.044l.241.179-.031-.038c.013-.031.1,0,.129.04-.066-.011-.029.036-.022.071.044.007-.013-.044.015-.047a.34.34,0,0,1,.164.089l-.033-.005c.064.029.058.095.117.131.066.013.089.058.111,0,.08.04.007.051.027.071.049,0,.142.086.14.119.088-.042.18.159.237.111l.038.073a.083.083,0,0,1,.1-.013c.035.047,0,.067.007.091l.073-.035c.21.257.567.487.8.755a3.836,3.836,0,0,1,.443.308l-.022-.005a1.446,1.446,0,0,1,.124.135,1.24,1.24,0,0,0-.077-.113.309.309,0,0,1,.095.058,2.579,2.579,0,0,0,.5.514c.171.053.027.124.179.188l-.04,0a3.072,3.072,0,0,0,.365.226c-.069.042.08.073.038.091l.033-.013c.013.04.071.1.044.111l.08.024-.02.027c.062.073.221.21.206.294a4.3,4.3,0,0,1,.627.669.489.489,0,0,1,.157.128l.018.08c.055.044.146.066.166.133h-.013c.049.051.073.119.142.148.046.064.075.137.031.14.057-.035.093.137.093.137l.37.518.4.543c.135.212.283.439.434.675a20,20,0,0,0,1.647,2.347c.044.015.108.084.124.036.046.057.009.111.046.108-.027-.095.089-.011.078-.113l.036.049c.027,0-.064-.06-.018-.066l-.062.013a.132.132,0,0,1-.007-.1c-.044-.029-.13-.018-.151-.129l.018.026c-.046-.077.007-.066.007-.088l.009.018-.009-.08c.009.06.1.12.071.078-.036-.1,0,.031-.046-.036-.027-.042.009-.046.026-.051l-.046-.078c.026-.011.027.053.035.007l-.08-.086c.053-.053-.089-.091-.055-.168.055.064.018-.018.044-.018l-.1-.173.027.011c0-.042-.046-.046-.055-.064.009-.026-.073-.129-.029-.148-.038-.135-.08-.02-.117-.144.016-.029.055.084.053.02l-.073-.109a.072.072,0,0,1,.071.046c-.142-.326-.089-.582-.308-.832,0-.057.036.016.075.031-.168-.175-.117-.319-.232-.487l-.026.013a5.563,5.563,0,0,0-.452-.828l0,.044a.617.617,0,0,1-.126-.115c.007-.015.069,0,.009-.073l0,.058a7.934,7.934,0,0,0-.708-1.1c-.2-.232-.368-.5-.578-.742s-.408-.485-.615-.7c.062.067-.015.084-.049.022-.04-.221-.232-.23-.3-.429a4.484,4.484,0,0,0-.726-.673l.018-.027c-.026-.044-.051-.036-.089-.069l.007-.005c-.078-.093-.208-.168-.248-.228l-.029.024c-.055-.047-.007-.047-.075-.082l.015-.013-.086-.033c.049-.044-.142-.144-.164-.2a2.567,2.567,0,0,1-.336-.239c0-.042-.133-.15-.21-.233-.173-.128-.418-.312-.624-.492l-.022.036-.057-.042.013-.015c-.015-.073-.135-.093-.164-.15.007.051.036.035.067.06.033.053-.035.051-.084-.015l.007-.007-.058-.013,0-.1a5.652,5.652,0,0,1-.556-.317c.042-.016-.15-.089-.073-.115-.135-.062-.009.057-.089.057l-.071-.057.026-.038-.084-.051.029,0c-.184-.08-.268-.232-.436-.3l.031.058c-.171-.06-.109-.122-.272-.177l.047-.011a.192.192,0,0,1-.157-.06c.005-.04.082.011.128.016-.053-.031-.191-.1-.168-.046-.069-.026-.077-.067-.106-.095-.005.007.047.055,0,.049a2.279,2.279,0,0,0-.314-.2l.016-.024c-.109,0-.06-.071-.182-.128" transform="translate(-412.318 -148.791)" fill="#fff"></path><path id="Path_93670" data-name="Path 93670" d="M490.66,166.784l.038,0Z" transform="translate(-444.991 -150.876)" fill="#fff"></path></g></g><path id="np_global_6687433_000000" d="M31.027,15.343a21.661,21.661,0,0,0,3.008-1.049A14.019,14.019,0,0,0,28.3,10.778a13.516,13.516,0,0,1,2.729,4.565Zm3.008,18.671a21.667,21.667,0,0,0-3.008-1.051A13.532,13.532,0,0,1,28.3,37.527a14,14,0,0,0,5.737-3.514Zm-4.354-1.37c-.981,2.5-2.673,5.021-4.937,5.469V32.106a27.112,27.112,0,0,1,4.937.537Zm-6.31-.537a27.107,27.107,0,0,0-4.937.538c.981,2.5,2.673,5.021,4.937,5.469Zm-6.283.856a13.532,13.532,0,0,0,2.729,4.565,14.019,14.019,0,0,1-5.737-3.515,21.843,21.843,0,0,1,3.008-1.049Zm-3.965-.019a22.733,22.733,0,0,1,3.522-1.28A25.79,25.79,0,0,1,15.6,24.84h-5.55a13.97,13.97,0,0,0,3.078,8.1Zm4.855-1.606a28.561,28.561,0,0,1,5.391-.607V24.839h-6.4a24.351,24.351,0,0,0,1.01,6.5Zm6.765-.606a28.45,28.45,0,0,1,5.391.607,24.353,24.353,0,0,0,1.01-6.5h-6.4Zm6.725.93a22.739,22.739,0,0,1,3.522,1.28,13.961,13.961,0,0,0,3.078-8.1h-5.55a25.789,25.789,0,0,1-1.051,6.824Zm3.522-16.3a22.875,22.875,0,0,1-3.522,1.28,25.79,25.79,0,0,1,1.051,6.824h5.55a13.969,13.969,0,0,0-3.078-8.1Zm-4.855,1.606a28.561,28.561,0,0,1-5.391.607v5.892h6.4a24.4,24.4,0,0,0-1.011-6.5Zm-6.765.606a28.45,28.45,0,0,1-5.391-.607,24.353,24.353,0,0,0-1.01,6.5h6.4Zm-6.725-.93a22.74,22.74,0,0,1-3.522-1.28,13.971,13.971,0,0,0-3.078,8.1H15.6a25.789,25.789,0,0,1,1.051-6.824Zm-2.566-2.351a21.667,21.667,0,0,0,3.008,1.051,13.532,13.532,0,0,1,2.729-4.565,14,14,0,0,0-5.737,3.514Zm4.354,1.37c.98-2.5,2.674-5.022,4.937-5.469V16.2a27.229,27.229,0,0,1-4.937-.538Zm6.31.537V10.192c2.263.448,3.958,2.965,4.937,5.469a26.99,26.99,0,0,1-4.937.538Z" transform="translate(390.941 2185.273)" fill="#fff" fill-rule="evenodd"></path></g></svg> 