<?xml version="1.0" encoding="UTF-8"?> <svg xmlns="http://www.w3.org/2000/svg" width="80.447" height="80.435" viewBox="0 0 80.447 80.435"><path id="np_call_1975558_000000" d="M80.438,63.528a18.911,18.911,0,0,1-.572,4.028,22.445,22.445,0,0,1-1.2,3.912q-1.2,2.856-6.969,6.055A22.156,22.156,0,0,1,61.07,80.435a21.812,21.812,0,0,1-3-.2,24.415,24.415,0,0,1-3.283-.713q-1.829-.514-2.715-.829T48.9,77.519q-2.286-.858-2.8-1.027a51.727,51.727,0,0,1-10-4.741,84.756,84.756,0,0,1-15.11-12.311A84.513,84.513,0,0,1,8.684,44.332a51.623,51.623,0,0,1-4.741-10q-.17-.514-1.027-2.8t-1.172-3.17q-.316-.886-.829-2.715A24.526,24.526,0,0,1,.2,22.366a21.731,21.731,0,0,1-.2-3A22.165,22.165,0,0,1,2.912,8.741q3.2-5.769,6.055-6.969a22.585,22.585,0,0,1,3.915-1.2A18.911,18.911,0,0,1,16.91,0a3.156,3.156,0,0,1,1.2.173q1.027.344,3.029,4.342Q21.767,5.6,22.852,7.6t2,3.629q.914,1.626,1.772,3.057.17.226,1,1.43a16.194,16.194,0,0,1,1.229,2.027,3.715,3.715,0,0,1,.4,1.628,4.754,4.754,0,0,1-1.628,2.856,27.658,27.658,0,0,1-3.541,3.142A34.029,34.029,0,0,0,20.54,28.4q-1.626,1.6-1.628,2.627A3.837,3.837,0,0,0,19.2,32.31a12.21,12.21,0,0,0,.487,1.172q.2.4.8,1.37c.4.647.619,1.009.657,1.084a59.919,59.919,0,0,0,9.941,13.426A60.013,60.013,0,0,0,44.51,59.3c.075.038.437.258,1.084.657s1.106.666,1.37.8.657.3,1.172.487a3.836,3.836,0,0,0,1.285.286q1.027,0,2.627-1.628a34.422,34.422,0,0,0,3.029-3.541,27.665,27.665,0,0,1,3.142-3.541A4.754,4.754,0,0,1,61.075,51.2a3.715,3.715,0,0,1,1.628.4,15.761,15.761,0,0,1,2.027,1.229c.8.553,1.276.886,1.43,1q1.428.858,3.057,1.772t3.629,2q2,1.084,3.086,1.712,4,2,4.342,3.029a3.22,3.22,0,0,1,.173,1.2Z" transform="translate(0 0)" fill="#fff"></path></svg> 