<?xml version="1.0" encoding="UTF-8"?> <svg xmlns="http://www.w3.org/2000/svg" width="207.784" height="128" viewBox="0 0 207.784 128"><path id="np_email_6434829_000000" d="M10,144.39,80.644,89.358,10,34.326ZM18.928,25.36H208.857a9.977,9.977,0,0,1,3.977.8l-92.2,71.831a10.856,10.856,0,0,1-13.494,0L14.941,26.162a10.028,10.028,0,0,1,3.987-.8Zm193.916,127.2a10.193,10.193,0,0,1-3.977.8H18.928a10.013,10.013,0,0,1-3.977-.8L88.367,95.366c8.675,6.757,16,14.488,25.537,14.488s16.852-7.731,25.537-14.488Zm-65.7-63.2,70.644,55.032V34.331Z" transform="translate(-10 -25.36)" fill="#fff" fill-rule="evenodd"></path></svg> 